%TF.GenerationSoftware,KiCad,Pcbnew,7.0.8*%
%TF.CreationDate,2024-10-02T10:44:02+02:00*%
%TF.ProjectId,chastity,63686173-7469-4747-992e-6b696361645f,rev?*%
%TF.SameCoordinates,Original*%
%TF.FileFunction,Profile,NP*%
%FSLAX46Y46*%
G04 Gerber Fmt 4.6, Leading zero omitted, Abs format (unit mm)*
G04 Created by KiCad (PCBNEW 7.0.8) date 2024-10-02 10:44:02*
%MOMM*%
%LPD*%
G01*
G04 APERTURE LIST*
%TA.AperFunction,Profile*%
%ADD10C,0.100000*%
%TD*%
%TA.AperFunction,Profile*%
%ADD11C,0.200000*%
%TD*%
%TA.AperFunction,Profile*%
%ADD12C,0.050000*%
%TD*%
%TA.AperFunction,Profile*%
%ADD13C,0.080000*%
%TD*%
G04 APERTURE END LIST*
D10*
X121964921Y32388424D02*
X118809899Y35248763D01*
X227649899Y41108763D02*
X217599899Y40678763D01*
X35553325Y46340546D02*
X36253325Y46330546D01*
X155419899Y44908763D02*
X154859899Y44828763D01*
X35013325Y46370546D02*
X35553325Y46340546D01*
X229471974Y116834763D02*
G75*
G03*
X229471974Y116834763I-966075J0D01*
G01*
X27273325Y46510546D02*
X28773325Y46500546D01*
X10593325Y44940546D02*
X11533325Y45190546D01*
X198069899Y44298763D02*
X197439899Y44488763D01*
X-34636675Y41770546D02*
X-34306675Y41670546D01*
X14183325Y45720546D02*
X15773325Y45960546D01*
X42973325Y45900546D02*
X43693325Y45820546D01*
X-5106675Y40510546D02*
X-3286675Y40920546D01*
X9843325Y44740546D02*
X10593325Y44940546D01*
X49883325Y44920546D02*
X50633325Y44810546D01*
X194519899Y45288763D02*
X193969899Y45408763D01*
X7983325Y44200546D02*
X7513325Y44060546D01*
X181909899Y46608763D02*
X179639899Y46608763D01*
X51813325Y44630546D02*
X52143325Y44580546D01*
X19613325Y46340546D02*
X20763325Y46410546D01*
X246742762Y130486297D02*
G75*
G03*
X241839200Y135328209I-4920698J-79397D01*
G01*
X97564667Y137681842D02*
X97563667Y111659842D01*
X150349899Y44088763D02*
X150009899Y44028763D01*
X167460005Y140248779D02*
G75*
G03*
X173337642Y141240653I2949959J429921D01*
G01*
X108465979Y111477763D02*
G75*
G03*
X109408553Y110534715I942585J-463D01*
G01*
X160749899Y45718763D02*
X159559899Y45548763D01*
X188469899Y46268763D02*
X187389899Y46368763D01*
X18173325Y142450546D02*
X32133325Y142450546D01*
X95345776Y103197647D02*
X95345117Y109772794D01*
X-6006675Y40330546D02*
X-5106675Y40510546D01*
X208089899Y139838763D02*
X187879899Y142548763D01*
X244139899Y45888763D02*
X243532488Y44591300D01*
X39963325Y46150546D02*
X41263325Y46060546D01*
X118809899Y35248763D02*
X110513663Y53583763D01*
X163079899Y45998763D02*
X162359899Y45918763D01*
X207907262Y138506928D02*
X208089899Y139838763D01*
X58243325Y43460546D02*
X58853325Y43310546D01*
X48603325Y45120546D02*
X49293325Y45010546D01*
X8613325Y44390546D02*
X9213325Y44560546D01*
X150009899Y44028763D02*
X149709899Y43968763D01*
X145359899Y42898763D02*
X144819899Y42728763D01*
X-11546675Y40580546D02*
X-6006675Y40330546D01*
X216509899Y138718763D02*
X241839200Y135328210D01*
X168979899Y46398763D02*
X167569899Y46328763D01*
X54403325Y44220546D02*
X54863325Y44140546D01*
X24143325Y46510546D02*
X26413325Y46510546D01*
D11*
X-15343333Y45956242D02*
G75*
G03*
X-15343333Y45956242I-1000000J0D01*
G01*
D10*
X58853325Y43310546D02*
X59513325Y43140546D01*
X-1756675Y41310546D02*
X483325Y41930546D01*
X59513325Y43140546D02*
X60193325Y42950546D01*
X241169899Y42068763D02*
X240689899Y41868763D01*
X96287667Y110715847D02*
G75*
G03*
X95345117Y109772794I97J-942647D01*
G01*
X21843325Y46450546D02*
X24143325Y46510546D01*
X-38086675Y45790546D02*
X-37479264Y44493083D01*
X55273325Y44070546D02*
X55443325Y44040546D01*
X163739899Y46068763D02*
X163079899Y45998763D01*
X54863325Y44140546D02*
X54983325Y44120546D01*
X109400662Y102071052D02*
G75*
G03*
X108458112Y101127958I102J-942652D01*
G01*
X240689899Y41868763D02*
X240359899Y41768763D01*
X62533325Y42160546D02*
X63083325Y41940546D01*
X134939899Y137798763D02*
X123959666Y137791147D01*
X164789899Y46158763D02*
X163739899Y46068763D01*
X173337642Y141240653D02*
X173189899Y142458763D01*
X18663325Y46270546D02*
X19613325Y46340546D01*
X57353325Y43660546D02*
X57803325Y43560546D01*
X-32566675Y41490546D02*
X-11546675Y40580546D01*
X-40689316Y97019491D02*
X-40696675Y65390546D01*
X246742540Y97117708D02*
X246749899Y65488763D01*
X20763325Y46410546D02*
X21843325Y46450546D01*
X50633325Y44810546D02*
X51193325Y44730546D01*
X191869899Y45818763D02*
X190279899Y46058763D01*
X96629008Y102253085D02*
X96288326Y102254599D01*
X167569899Y46328763D02*
X166089899Y46248763D01*
X96621117Y110716794D02*
X96287667Y110715842D01*
X55443325Y44040546D02*
X55703325Y43990546D01*
X151069899Y44218763D02*
X150959899Y44198763D01*
X147199899Y43408763D02*
X146539899Y43238763D01*
X7983325Y44200546D02*
X8613325Y44390546D01*
X167259899Y141738763D02*
X134939899Y137798763D01*
X-33336675Y41520546D02*
X-32566675Y41490546D01*
X88863375Y68840546D02*
G75*
G03*
X88863375Y68840546I-1000050J0D01*
G01*
X108463663Y137812763D02*
X108466003Y111477763D01*
X197439899Y44488763D02*
X196839899Y44658763D01*
X77699171Y32692842D02*
X78790763Y32025103D01*
X60693325Y42800546D02*
X61233325Y42630546D01*
X-40696675Y98920546D02*
X-40689537Y130388080D01*
X97547167Y87885843D02*
X97570667Y56584842D01*
X60193325Y42950546D02*
X60693325Y42800546D01*
X154859899Y44828763D02*
X154239899Y44728763D01*
X77699171Y32692842D02*
X63083325Y41940546D01*
X-35785976Y135229992D02*
G75*
G03*
X-40689536Y130388080I17200J-4921372D01*
G01*
X16743325Y46080546D02*
X17583325Y46170546D01*
X84125145Y32347500D02*
X87243325Y35150546D01*
X156169899Y45018763D02*
X155419899Y44908763D01*
X135719899Y37328763D02*
X127299303Y32066027D01*
X26413325Y46510546D02*
X27273325Y46510546D01*
X153449899Y44608763D02*
X152679899Y44488763D01*
X30423325Y46460546D02*
X32933325Y46420546D01*
X109741344Y102072570D02*
G75*
G03*
X110683894Y103015568I120J942430D01*
G01*
X173919899Y142548763D02*
X173189899Y142458763D01*
X52603325Y44510546D02*
X53373325Y44390546D01*
X196209899Y44838763D02*
X195459899Y45038763D01*
X12823325Y45470546D02*
X14183325Y45720546D01*
X95555667Y53442842D02*
X97570667Y56584842D01*
X193229899Y45568763D02*
X191869899Y45818763D01*
X216289898Y137068763D02*
X216509899Y138718763D01*
X17583325Y46170546D02*
X18663325Y46270546D01*
X54983325Y44120546D02*
X55093325Y44100546D01*
X157449899Y45218763D02*
X156759899Y45108763D01*
X71113325Y137700546D02*
X81909666Y137663342D01*
X207910037Y138506414D02*
G75*
G03*
X216289897Y137068763I4179827J-777714D01*
G01*
X178779899Y46608763D02*
X177279899Y46598763D01*
X42313325Y45970546D02*
X42973325Y45900546D01*
X-37479245Y44493092D02*
G75*
G03*
X-35116675Y41970547I5223409J2524508D01*
G01*
X246749899Y99018763D02*
X246742761Y130486297D01*
X32715589Y141142435D02*
G75*
G03*
X38593325Y140150546I2927735J-561915D01*
G01*
X152129899Y44398763D02*
X151649899Y44318763D01*
X217599899Y40678763D02*
X212059899Y40428763D01*
X171039899Y46468763D02*
X170499899Y46438763D01*
X483325Y41930546D02*
X1823325Y42320546D01*
X173119899Y46518763D02*
X171039899Y46468763D01*
X-1854038Y138408711D02*
X-2036675Y139740546D01*
X238619899Y41588763D02*
X227649899Y41108763D01*
X211159899Y40608763D02*
X209339899Y41018763D01*
X156759899Y45108763D02*
X156169899Y45018763D01*
X179639899Y46608763D02*
X178779899Y46608763D01*
X186439899Y46438763D02*
X185289899Y46508763D01*
X-40689315Y97019498D02*
G75*
G03*
X-40696675Y98920546I132699J951052D01*
G01*
X149349899Y43898763D02*
X148939899Y43808763D01*
X191643494Y103244763D02*
G75*
G03*
X191643494Y103244763I-983595J0D01*
G01*
X148699899Y43758763D02*
X148249899Y43658763D01*
X36253325Y46330546D02*
X37073325Y46300546D01*
X135719899Y37328763D02*
X142969899Y42038763D01*
X11533325Y45190546D02*
X12083325Y45310546D01*
X154239899Y44728763D02*
X153909899Y44678763D01*
X32933325Y46420546D02*
X35013325Y46370546D01*
X27623330Y64972546D02*
G75*
G03*
X27623330Y64972546I-985005J0D01*
G01*
X-10456675Y138620546D02*
X-35785976Y135229993D01*
X45303325Y45620546D02*
X46493325Y45450546D01*
X32715582Y141142436D02*
X32863325Y142360546D01*
X239899899Y41678763D02*
X239389899Y41618763D01*
X57803325Y43560546D02*
X58243325Y43460546D01*
X38593325Y140150546D02*
X38793325Y141640546D01*
X62063325Y42340546D02*
X62533325Y42160546D01*
X69578258Y43070546D02*
G75*
G03*
X69578258Y43070546I-934933J0D01*
G01*
X-10236674Y136970546D02*
X-10456675Y138620546D01*
X15773325Y45960546D02*
X16743325Y46080546D01*
X204229899Y42418763D02*
X201579899Y43228763D01*
X108532167Y87903646D02*
X108463663Y56808763D01*
X-10236668Y136970547D02*
G75*
G03*
X-1856859Y138408188I4200002J659963D01*
G01*
X49293325Y45010546D02*
X49883325Y44920546D01*
X147809899Y43558763D02*
X147199899Y43408763D01*
X87243325Y35150546D02*
X95555667Y53442842D01*
X138344832Y43168763D02*
G75*
G03*
X138344832Y43168763I-934933J0D01*
G01*
X158339899Y45358763D02*
X157449899Y45218763D01*
X187879899Y142548763D02*
X173919899Y142548763D01*
X193969899Y45408763D02*
X193229899Y45568763D01*
X150609899Y44138763D02*
X150349899Y44088763D01*
X51193325Y44730546D02*
X51813325Y44630546D01*
X-3286675Y40920546D02*
X-1756675Y41310546D01*
X162359899Y45918763D02*
X161669899Y45838763D01*
X119189949Y68938763D02*
G75*
G03*
X119189949Y68938763I-1000050J0D01*
G01*
X109742003Y110533763D02*
X109408553Y110534715D01*
X198069899Y44298763D02*
X198539899Y44158763D01*
X190279899Y46058763D02*
X189309899Y46178763D01*
X-33846675Y41580546D02*
X-33336675Y41520546D01*
X12083325Y45310546D02*
X12823325Y45470546D01*
X-38326675Y46480546D02*
X-38086675Y45790546D01*
X169799899Y46428763D02*
X168979899Y46398763D01*
X-35116675Y41970546D02*
X-34636675Y41770546D01*
X159559899Y45548763D02*
X158339899Y45358763D01*
X32133325Y142450546D02*
X32863325Y142360546D01*
X53373325Y44390546D02*
X53923325Y44300546D01*
X114859666Y137791147D02*
X108463663Y137812763D01*
X56703325Y43800546D02*
X57113325Y43710546D01*
X97571549Y101310037D02*
G75*
G03*
X96629008Y102253085I-942585J463D01*
G01*
X95345763Y103197647D02*
G75*
G03*
X96288326Y102254599I942601J-447D01*
G01*
X153909899Y44678763D02*
X153449899Y44608763D01*
X144819899Y42728763D02*
X143989899Y42438763D01*
X1823325Y42320546D02*
X4473325Y43130546D01*
X47713325Y45260546D02*
X48603325Y45120546D01*
X55703325Y43990546D02*
X56043325Y43930546D01*
X161669899Y45838763D02*
X160749899Y45718763D01*
X177279899Y46598763D02*
X175629899Y46558763D01*
X205569899Y42028763D02*
X204229899Y42418763D01*
X52143325Y44580546D02*
X52603325Y44510546D01*
X146539899Y43238763D02*
X145859899Y43048763D01*
X150779899Y44168763D02*
X150609899Y44138763D01*
X108532167Y97003646D02*
X108458112Y101127958D01*
X41263325Y46060546D02*
X42313325Y45970546D01*
X61233325Y42630546D02*
X62063325Y42340546D01*
X152679899Y44488763D02*
X152129899Y44398763D01*
X148249899Y43658763D02*
X147809899Y43558763D01*
X121964917Y32388418D02*
G75*
G03*
X127299303Y32066028I2953847J4581882D01*
G01*
X97571558Y101310037D02*
X97547167Y96985843D01*
X38793325Y141640546D02*
X71113325Y137700546D01*
X145859899Y43048763D02*
X145359899Y42898763D01*
X46493325Y45450546D02*
X47713325Y45260546D01*
X109741344Y102072520D02*
X109400662Y102071006D01*
X56043325Y43930546D02*
X56343325Y43870546D01*
X151649899Y44318763D02*
X151189899Y44238763D01*
X166089899Y46248763D02*
X164789899Y46158763D01*
X151189899Y44238763D02*
X151069899Y44218763D01*
X189309899Y46178763D02*
X188469899Y46268763D01*
X187389899Y46368763D02*
X186439899Y46438763D01*
X240359899Y41768763D02*
X239899899Y41678763D01*
X54863532Y100937546D02*
G75*
G03*
X54863532Y100937546I-965207J0D01*
G01*
X55093325Y44100546D02*
X55273325Y44070546D01*
X246749910Y99018834D02*
G75*
G03*
X246742540Y97117708I-140046J-950034D01*
G01*
X-40696675Y65390546D02*
X-38326675Y46480546D01*
X44383325Y45740546D02*
X45303325Y45620546D01*
X143519899Y42258763D02*
X142969899Y42038763D01*
X167459899Y140248763D02*
X167259899Y141738763D01*
X110684553Y109590715D02*
X110683894Y103015568D01*
X209339899Y41018763D02*
X207809899Y41408763D01*
X148939899Y43808763D02*
X148699899Y43758763D01*
X201579899Y43228763D02*
X198539899Y44158763D01*
X28773325Y46500546D02*
X30423325Y46460546D01*
X239389899Y41618763D02*
X238619899Y41588763D01*
X96621117Y110716797D02*
G75*
G03*
X97563667Y111659842I47J942503D01*
G01*
X110513663Y53583763D02*
X108463663Y56808763D01*
X78790756Y32025089D02*
G75*
G03*
X84125145Y32347501I2380508J4904511D01*
G01*
X207809899Y41408763D02*
X205569899Y42028763D01*
X57113325Y43710546D02*
X57353325Y43660546D01*
X149709899Y43968763D02*
X149349899Y43898763D01*
X38483325Y46230546D02*
X39963325Y46150546D01*
X180399904Y65070763D02*
G75*
G03*
X180399904Y65070763I-985005J0D01*
G01*
X91009666Y137663342D02*
X97564667Y137681842D01*
X195459899Y45038763D02*
X194519899Y45288763D01*
X175629899Y46558763D02*
X173119899Y46518763D01*
X196839899Y44658763D02*
X196209899Y44838763D01*
X185289899Y46508763D02*
X184209899Y46548763D01*
X184209899Y46548763D02*
X181909899Y46608763D01*
X153120106Y101035763D02*
G75*
G03*
X153120106Y101035763I-965207J0D01*
G01*
X16376920Y103146546D02*
G75*
G03*
X16376920Y103146546I-983595J0D01*
G01*
X170499899Y46438763D02*
X169799899Y46428763D01*
X53923325Y44300546D02*
X54403325Y44220546D01*
X212059899Y40428763D02*
X211159899Y40608763D01*
X246749899Y65488763D02*
X244379899Y46578763D01*
X43693325Y45820546D02*
X44383325Y45740546D01*
X4473325Y43130546D02*
X7513325Y44060546D01*
X110684527Y109590715D02*
G75*
G03*
X109742003Y110533763I-942563J485D01*
G01*
X9213325Y44560546D02*
X9843325Y44740546D01*
X-2036675Y139740546D02*
X18173325Y142450546D01*
X150959899Y44198763D02*
X150779899Y44168763D01*
X241169893Y42068774D02*
G75*
G03*
X243532488Y44591300I-2860629J5046926D01*
G01*
X244379899Y46578763D02*
X244139899Y45888763D01*
X-34306675Y41670546D02*
X-33846675Y41580546D01*
X37073325Y46300546D02*
X38483325Y46230546D01*
X56343325Y43870546D02*
X56703325Y43800546D01*
X-21486600Y116736546D02*
G75*
G03*
X-21486600Y116736546I-966075J0D01*
G01*
X143989899Y42438763D02*
X143519899Y42258763D01*
D12*
%TO.C,TFT2*%
X128010710Y134495000D02*
G75*
G03*
X128010710Y134495000I-1000000J0D01*
G01*
X113010710Y134495000D02*
G75*
G03*
X113010710Y134495000I-1000000J0D01*
G01*
X128060710Y102995000D02*
G75*
G03*
X128060710Y102995000I-1000000J0D01*
G01*
D13*
%TO.C,SPLIT_R1*%
X112895943Y96997804D02*
X108536764Y96997804D01*
X114066764Y95847803D02*
X114066764Y96997804D01*
X114466764Y95647804D02*
X114266764Y95647804D01*
X114616764Y92447804D02*
X114616764Y94541586D01*
X114616764Y92447804D02*
X114616764Y90354022D01*
X114466764Y89247804D02*
X114266764Y89247804D01*
X114066764Y89047805D02*
X114066764Y87897804D01*
X112895943Y87897804D02*
X108536764Y87897804D01*
X114066763Y96997804D02*
G75*
G03*
X113087608Y97140661I-499999J-1D01*
G01*
X112895943Y96997805D02*
G75*
G03*
X113087605Y97140661I1J199998D01*
G01*
X114716764Y94714791D02*
G75*
G03*
X114466764Y95647804I-250000J433013D01*
G01*
X114066764Y95847803D02*
G75*
G03*
X114266764Y95647803I200001J1D01*
G01*
X114716764Y94714791D02*
G75*
G03*
X114616764Y94541586I100000J-173205D01*
G01*
X114616779Y90354022D02*
G75*
G03*
X114716764Y90180817I199985J-17D01*
G01*
X114466764Y89247806D02*
G75*
G03*
X114716764Y90180817I0J499999D01*
G01*
X114266764Y89247804D02*
G75*
G03*
X114066765Y89047805I0J-199999D01*
G01*
X113087606Y87754947D02*
G75*
G03*
X114066765Y87897804I479158J142858D01*
G01*
X113087625Y87754953D02*
G75*
G03*
X112895943Y87897804I-191661J-57148D01*
G01*
%TO.C,J1*%
X81762769Y133111760D02*
G75*
G03*
X81905620Y133303442I-57148J191661D01*
G01*
X81762763Y133111779D02*
G75*
G03*
X81905620Y132132620I142858J-479158D01*
G01*
X83255620Y131932621D02*
G75*
G03*
X83055621Y132132620I-199999J0D01*
G01*
X83255622Y131732621D02*
G75*
G03*
X84188633Y131482621I499999J0D01*
G01*
X84361838Y131582606D02*
G75*
G03*
X84188633Y131482621I-17J-199985D01*
G01*
X88722607Y131482621D02*
G75*
G03*
X88549402Y131582621I-173205J-100000D01*
G01*
X89855619Y132132621D02*
G75*
G03*
X89655619Y131932621I1J-200001D01*
G01*
X88722607Y131482621D02*
G75*
G03*
X89655620Y131732621I433013J250000D01*
G01*
X91005621Y133303442D02*
G75*
G03*
X91148477Y133111780I199998J-1D01*
G01*
X91005620Y132132622D02*
G75*
G03*
X91148477Y133111777I-1J499999D01*
G01*
X81905620Y133303442D02*
X81905620Y137662621D01*
X83055621Y132132621D02*
X81905620Y132132621D01*
X83255620Y131732621D02*
X83255620Y131932621D01*
X86455620Y131582621D02*
X84361838Y131582621D01*
X86455620Y131582621D02*
X88549402Y131582621D01*
X89655620Y131732621D02*
X89655620Y131932621D01*
X89855619Y132132621D02*
X91005620Y132132621D01*
X91005620Y133303442D02*
X91005620Y137662621D01*
D12*
%TO.C,TFT1*%
X95007082Y134220609D02*
G75*
G03*
X95007082Y134220609I-1000000J0D01*
G01*
X80007082Y134220609D02*
G75*
G03*
X80007082Y134220609I-1000000J0D01*
G01*
X80007082Y102720609D02*
G75*
G03*
X80007082Y102720609I-1000000J0D01*
G01*
D13*
%TO.C,SPLIT_L1*%
X92995903Y97127852D02*
G75*
G03*
X93187585Y96985001I191661J57148D01*
G01*
X92995922Y97127858D02*
G75*
G03*
X92016763Y96985001I-479158J-142858D01*
G01*
X91816764Y95635001D02*
G75*
G03*
X92016763Y95835000I0J199999D01*
G01*
X91616764Y95634999D02*
G75*
G03*
X91366764Y94701988I0J-499999D01*
G01*
X91466749Y94528783D02*
G75*
G03*
X91366764Y94701988I-199985J17D01*
G01*
X91366764Y90168014D02*
G75*
G03*
X91466764Y90341219I-100000J173205D01*
G01*
X92016764Y89035002D02*
G75*
G03*
X91816764Y89235002I-200001J-1D01*
G01*
X91366764Y90168014D02*
G75*
G03*
X91616764Y89235001I250000J-433013D01*
G01*
X93187585Y87885000D02*
G75*
G03*
X92995923Y87742144I-1J-199998D01*
G01*
X92016765Y87885001D02*
G75*
G03*
X92995920Y87742144I499999J1D01*
G01*
X93187585Y96985001D02*
X97546764Y96985001D01*
X92016764Y95835000D02*
X92016764Y96985001D01*
X91616764Y95635001D02*
X91816764Y95635001D01*
X91466764Y92435001D02*
X91466764Y94528783D01*
X91466764Y92435001D02*
X91466764Y90341219D01*
X91616764Y89235001D02*
X91816764Y89235001D01*
X92016764Y89035002D02*
X92016764Y87885001D01*
X93187585Y87885001D02*
X97546764Y87885001D01*
%TO.C,J4*%
X123956031Y133432549D02*
X123956031Y137791728D01*
X122806030Y132261728D02*
X123956031Y132261728D01*
X122606031Y131861728D02*
X122606031Y132061728D01*
X119406031Y131711728D02*
X121499813Y131711728D01*
X119406031Y131711728D02*
X117312249Y131711728D01*
X116206031Y131861728D02*
X116206031Y132061728D01*
X116006032Y132261728D02*
X114856031Y132261728D01*
X114856031Y133432549D02*
X114856031Y137791728D01*
X123956031Y132261729D02*
G75*
G03*
X124098888Y133240884I-1J499999D01*
G01*
X123956032Y133432549D02*
G75*
G03*
X124098888Y133240887I199998J-1D01*
G01*
X121673018Y131611728D02*
G75*
G03*
X122606031Y131861728I433013J250000D01*
G01*
X122806030Y132261728D02*
G75*
G03*
X122606030Y132061728I1J-200001D01*
G01*
X121673018Y131611728D02*
G75*
G03*
X121499813Y131711728I-173205J-100000D01*
G01*
X117312249Y131711713D02*
G75*
G03*
X117139044Y131611728I-17J-199985D01*
G01*
X116206033Y131861728D02*
G75*
G03*
X117139044Y131611728I499999J0D01*
G01*
X116206031Y132061728D02*
G75*
G03*
X116006032Y132261727I-199999J0D01*
G01*
X114713174Y133240886D02*
G75*
G03*
X114856031Y132261727I142858J-479158D01*
G01*
X114713180Y133240867D02*
G75*
G03*
X114856031Y133432549I-57148J191661D01*
G01*
D10*
%TO.C,LED11*%
X45921775Y106332157D02*
G75*
G03*
X45971249Y106115279I500289J43D01*
G01*
X45268475Y105466700D02*
G75*
G03*
X45971248Y106115279I252259J431700D01*
G01*
X45971248Y107954719D02*
G75*
G03*
X45921763Y107737842I450866J-216959D01*
G01*
X45971244Y107954721D02*
G75*
G03*
X45268475Y108603296I-450510J216879D01*
G01*
X45016216Y108535000D02*
G75*
G03*
X45268474Y108603298I-2J500010D01*
G01*
X45268475Y105466700D02*
G75*
G03*
X45016217Y105534999I-252261J-431710D01*
G01*
X43175053Y108603298D02*
G75*
G03*
X43427312Y108534999I252261J431710D01*
G01*
X43427311Y105535000D02*
G75*
G03*
X43175053Y105466701I3J-500009D01*
G01*
X42472280Y106115279D02*
G75*
G03*
X43175053Y105466702I450515J-216877D01*
G01*
X42472280Y106115279D02*
G75*
G03*
X42521765Y106332156I-450505J216876D01*
G01*
X43175053Y108603298D02*
G75*
G03*
X42472281Y107954718I-252259J-431700D01*
G01*
X42521764Y107737841D02*
G75*
G03*
X42472279Y107954719I-499989J2D01*
G01*
X45921763Y107737841D02*
X45921763Y106332157D01*
X45016216Y105535000D02*
X43427311Y105535000D01*
X43427312Y108534999D02*
X45016216Y108534999D01*
X42521765Y106332157D02*
X42521765Y107737841D01*
%TO.C,LED19*%
X-30108225Y63562157D02*
G75*
G03*
X-30058751Y63345279I500289J43D01*
G01*
X-30761525Y62696700D02*
G75*
G03*
X-30058752Y63345279I252259J431700D01*
G01*
X-30058752Y65184719D02*
G75*
G03*
X-30108237Y64967842I450866J-216959D01*
G01*
X-30058756Y65184721D02*
G75*
G03*
X-30761525Y65833296I-450510J216879D01*
G01*
X-31013784Y65765000D02*
G75*
G03*
X-30761526Y65833298I-2J500010D01*
G01*
X-30761525Y62696700D02*
G75*
G03*
X-31013783Y62764999I-252261J-431710D01*
G01*
X-32854947Y65833298D02*
G75*
G03*
X-32602688Y65764999I252261J431710D01*
G01*
X-32602689Y62765000D02*
G75*
G03*
X-32854947Y62696701I3J-500009D01*
G01*
X-33557720Y63345279D02*
G75*
G03*
X-32854947Y62696702I450515J-216877D01*
G01*
X-33557720Y63345279D02*
G75*
G03*
X-33508235Y63562156I-450505J216876D01*
G01*
X-32854947Y65833298D02*
G75*
G03*
X-33557719Y65184718I-252259J-431700D01*
G01*
X-33508236Y64967841D02*
G75*
G03*
X-33557721Y65184719I-499989J2D01*
G01*
X-30108237Y64967841D02*
X-30108237Y63562157D01*
X-31013784Y62765000D02*
X-32602689Y62765000D01*
X-32602688Y65764999D02*
X-31013784Y65764999D01*
X-33508235Y63562157D02*
X-33508235Y64967841D01*
%TO.C,LED57*%
X167446746Y48288916D02*
X167373178Y49692674D01*
X168235764Y50536132D02*
X169822490Y50619289D01*
X169979498Y47623401D02*
X168392771Y47540244D01*
X170768516Y49870616D02*
X170842084Y48466858D01*
X167373178Y49692674D02*
G75*
G03*
X167312410Y49906665I-499305J-26166D01*
G01*
X167980275Y50591133D02*
G75*
G03*
X167312410Y49906664I-229320J-444309D01*
G01*
X167408679Y48069746D02*
G75*
G03*
X167446746Y48288915I-461238J193001D01*
G01*
X167408679Y48069746D02*
G75*
G03*
X168144433Y47458838I461248J-193002D01*
G01*
X168392771Y47540244D02*
G75*
G03*
X168144434Y47458836I26171J-499323D01*
G01*
X167980276Y50591135D02*
G75*
G03*
X168235764Y50536132I229321J444321D01*
G01*
X170234986Y47568397D02*
G75*
G03*
X169979499Y47623400I-229321J-444321D01*
G01*
X169822490Y50619289D02*
G75*
G03*
X170070828Y50700696I-26170J499325D01*
G01*
X170806579Y50089788D02*
G75*
G03*
X170070829Y50700694I-461243J193004D01*
G01*
X170806583Y50089786D02*
G75*
G03*
X170768516Y49870617I461603J-193065D01*
G01*
X170234987Y47568399D02*
G75*
G03*
X170902851Y48252867I229319J444309D01*
G01*
X170842096Y48466859D02*
G75*
G03*
X170902852Y48252867I499601J26226D01*
G01*
%TO.C,LED6*%
X61491753Y124377843D02*
G75*
G03*
X61442279Y124594721I-500289J-43D01*
G01*
X62145053Y125243300D02*
G75*
G03*
X61442280Y124594721I-252259J-431700D01*
G01*
X61442280Y122755281D02*
G75*
G03*
X61491765Y122972158I-450866J216959D01*
G01*
X61442284Y122755279D02*
G75*
G03*
X62145053Y122106704I450510J-216879D01*
G01*
X62397312Y122175000D02*
G75*
G03*
X62145054Y122106702I2J-500010D01*
G01*
X62145053Y125243300D02*
G75*
G03*
X62397311Y125175001I252261J431710D01*
G01*
X64238475Y122106702D02*
G75*
G03*
X63986216Y122175001I-252261J-431710D01*
G01*
X63986217Y125175000D02*
G75*
G03*
X64238475Y125243299I-3J500009D01*
G01*
X64941248Y124594721D02*
G75*
G03*
X64238475Y125243298I-450515J216877D01*
G01*
X64941248Y124594721D02*
G75*
G03*
X64891763Y124377844I450505J-216876D01*
G01*
X64238475Y122106702D02*
G75*
G03*
X64941247Y122755282I252259J431700D01*
G01*
X64891764Y122972159D02*
G75*
G03*
X64941249Y122755281I499989J-2D01*
G01*
X61491765Y122972159D02*
X61491765Y124377843D01*
X62397312Y125175000D02*
X63986217Y125175000D01*
X63986216Y122175001D02*
X62397312Y122175001D01*
X64891763Y124377843D02*
X64891763Y122972159D01*
%TO.C,LED14*%
X-14528247Y83977843D02*
G75*
G03*
X-14577721Y84194721I-500289J-43D01*
G01*
X-13874947Y84843300D02*
G75*
G03*
X-14577720Y84194721I-252259J-431700D01*
G01*
X-14577720Y82355281D02*
G75*
G03*
X-14528235Y82572158I-450866J216959D01*
G01*
X-14577716Y82355279D02*
G75*
G03*
X-13874947Y81706704I450510J-216879D01*
G01*
X-13622688Y81775000D02*
G75*
G03*
X-13874946Y81706702I2J-500010D01*
G01*
X-13874947Y84843300D02*
G75*
G03*
X-13622689Y84775001I252261J431710D01*
G01*
X-11781525Y81706702D02*
G75*
G03*
X-12033784Y81775001I-252261J-431710D01*
G01*
X-12033783Y84775000D02*
G75*
G03*
X-11781525Y84843299I-3J500009D01*
G01*
X-11078752Y84194721D02*
G75*
G03*
X-11781525Y84843298I-450515J216877D01*
G01*
X-11078752Y84194721D02*
G75*
G03*
X-11128237Y83977844I450505J-216876D01*
G01*
X-11781525Y81706702D02*
G75*
G03*
X-11078753Y82355282I252259J431700D01*
G01*
X-11128236Y82572159D02*
G75*
G03*
X-11078751Y82355281I499989J-2D01*
G01*
X-14528235Y82572159D02*
X-14528235Y83977843D01*
X-13622688Y84775000D02*
X-12033783Y84775000D01*
X-12033784Y81775001D02*
X-13622688Y81775001D01*
X-11128237Y83977843D02*
X-11128237Y82572159D01*
%TO.C,LED35*%
X217191765Y120819962D02*
X217191765Y122225646D01*
X218097312Y123022804D02*
X219686216Y123022804D01*
X219686216Y120022805D02*
X218097311Y120022805D01*
X220591763Y122225646D02*
X220591763Y120819962D01*
X217191764Y122225646D02*
G75*
G03*
X217142279Y122442524I-499989J2D01*
G01*
X217845053Y123091103D02*
G75*
G03*
X217142281Y122442523I-252259J-431700D01*
G01*
X217142280Y120603084D02*
G75*
G03*
X217191765Y120819961I-450505J216876D01*
G01*
X217142280Y120603084D02*
G75*
G03*
X217845053Y119954507I450515J-216877D01*
G01*
X218097311Y120022805D02*
G75*
G03*
X217845053Y119954506I3J-500009D01*
G01*
X217845053Y123091103D02*
G75*
G03*
X218097312Y123022804I252261J431710D01*
G01*
X219938475Y119954505D02*
G75*
G03*
X219686217Y120022804I-252261J-431710D01*
G01*
X219686216Y123022805D02*
G75*
G03*
X219938474Y123091103I-2J500010D01*
G01*
X220641244Y122442526D02*
G75*
G03*
X219938475Y123091101I-450510J216879D01*
G01*
X220641248Y122442524D02*
G75*
G03*
X220591763Y122225647I450866J-216959D01*
G01*
X219938475Y119954505D02*
G75*
G03*
X220641248Y120603084I252259J431700D01*
G01*
X220591775Y120819962D02*
G75*
G03*
X220641249Y120603084I500289J43D01*
G01*
%TO.C,LED47*%
X217191765Y82819962D02*
X217191765Y84225646D01*
X218097312Y85022804D02*
X219686216Y85022804D01*
X219686216Y82022805D02*
X218097311Y82022805D01*
X220591763Y84225646D02*
X220591763Y82819962D01*
X217191764Y84225646D02*
G75*
G03*
X217142279Y84442524I-499989J2D01*
G01*
X217845053Y85091103D02*
G75*
G03*
X217142281Y84442523I-252259J-431700D01*
G01*
X217142280Y82603084D02*
G75*
G03*
X217191765Y82819961I-450505J216876D01*
G01*
X217142280Y82603084D02*
G75*
G03*
X217845053Y81954507I450515J-216877D01*
G01*
X218097311Y82022805D02*
G75*
G03*
X217845053Y81954506I3J-500009D01*
G01*
X217845053Y85091103D02*
G75*
G03*
X218097312Y85022804I252261J431710D01*
G01*
X219938475Y81954505D02*
G75*
G03*
X219686217Y82022804I-252261J-431710D01*
G01*
X219686216Y85022805D02*
G75*
G03*
X219938474Y85091103I-2J500010D01*
G01*
X220641244Y84442526D02*
G75*
G03*
X219938475Y85091101I-450510J216879D01*
G01*
X220641248Y84442524D02*
G75*
G03*
X220591763Y84225647I450866J-216959D01*
G01*
X219938475Y81954505D02*
G75*
G03*
X220641248Y82603084I252259J431700D01*
G01*
X220591775Y82819962D02*
G75*
G03*
X220641249Y82603084I500289J43D01*
G01*
%TO.C,LED23*%
X45891775Y68312157D02*
G75*
G03*
X45941249Y68095279I500289J43D01*
G01*
X45238475Y67446700D02*
G75*
G03*
X45941248Y68095279I252259J431700D01*
G01*
X45941248Y69934719D02*
G75*
G03*
X45891763Y69717842I450866J-216959D01*
G01*
X45941244Y69934721D02*
G75*
G03*
X45238475Y70583296I-450510J216879D01*
G01*
X44986216Y70515000D02*
G75*
G03*
X45238474Y70583298I-2J500010D01*
G01*
X45238475Y67446700D02*
G75*
G03*
X44986217Y67514999I-252261J-431710D01*
G01*
X43145053Y70583298D02*
G75*
G03*
X43397312Y70514999I252261J431710D01*
G01*
X43397311Y67515000D02*
G75*
G03*
X43145053Y67446701I3J-500009D01*
G01*
X42442280Y68095279D02*
G75*
G03*
X43145053Y67446702I450515J-216877D01*
G01*
X42442280Y68095279D02*
G75*
G03*
X42491765Y68312156I-450505J216876D01*
G01*
X43145053Y70583298D02*
G75*
G03*
X42442281Y69934718I-252259J-431700D01*
G01*
X42491764Y69717841D02*
G75*
G03*
X42442279Y69934719I-499989J2D01*
G01*
X45891763Y69717841D02*
X45891763Y68312157D01*
X44986216Y67515000D02*
X43397311Y67515000D01*
X43397312Y70514999D02*
X44986216Y70514999D01*
X42491765Y68312157D02*
X42491765Y69717841D01*
%TO.C,LED54*%
X239591763Y65225648D02*
X239591763Y63819964D01*
X238686216Y63022806D02*
X237097312Y63022806D01*
X237097312Y66022805D02*
X238686217Y66022805D01*
X236191765Y63819964D02*
X236191765Y65225648D01*
X239591764Y63819964D02*
G75*
G03*
X239641249Y63603086I499989J-2D01*
G01*
X238938475Y62954507D02*
G75*
G03*
X239641247Y63603087I252259J431700D01*
G01*
X239641248Y65442526D02*
G75*
G03*
X239591763Y65225649I450505J-216876D01*
G01*
X239641248Y65442526D02*
G75*
G03*
X238938475Y66091103I-450515J216877D01*
G01*
X238686217Y66022805D02*
G75*
G03*
X238938475Y66091104I-3J500009D01*
G01*
X238938475Y62954507D02*
G75*
G03*
X238686216Y63022806I-252261J-431710D01*
G01*
X236845053Y66091105D02*
G75*
G03*
X237097311Y66022806I252261J431710D01*
G01*
X237097312Y63022805D02*
G75*
G03*
X236845054Y62954507I2J-500010D01*
G01*
X236142284Y63603084D02*
G75*
G03*
X236845053Y62954509I450510J-216879D01*
G01*
X236142280Y63603086D02*
G75*
G03*
X236191765Y63819963I-450866J216959D01*
G01*
X236845053Y66091105D02*
G75*
G03*
X236142280Y65442526I-252259J-431700D01*
G01*
X236191753Y65225648D02*
G75*
G03*
X236142279Y65442526I-500289J-43D01*
G01*
%TO.C,LED9*%
X7841775Y106292157D02*
G75*
G03*
X7891249Y106075279I500289J43D01*
G01*
X7188475Y105426700D02*
G75*
G03*
X7891248Y106075279I252259J431700D01*
G01*
X7891248Y107914719D02*
G75*
G03*
X7841763Y107697842I450866J-216959D01*
G01*
X7891244Y107914721D02*
G75*
G03*
X7188475Y108563296I-450510J216879D01*
G01*
X6936216Y108495000D02*
G75*
G03*
X7188474Y108563298I-2J500010D01*
G01*
X7188475Y105426700D02*
G75*
G03*
X6936217Y105494999I-252261J-431710D01*
G01*
X5095053Y108563298D02*
G75*
G03*
X5347312Y108494999I252261J431710D01*
G01*
X5347311Y105495000D02*
G75*
G03*
X5095053Y105426701I3J-500009D01*
G01*
X4392280Y106075279D02*
G75*
G03*
X5095053Y105426702I450515J-216877D01*
G01*
X4392280Y106075279D02*
G75*
G03*
X4441765Y106292156I-450505J216876D01*
G01*
X5095053Y108563298D02*
G75*
G03*
X4392281Y107914718I-252259J-431700D01*
G01*
X4441764Y107697841D02*
G75*
G03*
X4392279Y107914719I-499989J2D01*
G01*
X7841763Y107697841D02*
X7841763Y106292157D01*
X6936216Y105495000D02*
X5347311Y105495000D01*
X5347312Y108494999D02*
X6936216Y108494999D01*
X4441765Y106292157D02*
X4441765Y107697841D01*
%TO.C,LED2*%
X-14558247Y121967843D02*
G75*
G03*
X-14607721Y122184721I-500289J-43D01*
G01*
X-13904947Y122833300D02*
G75*
G03*
X-14607720Y122184721I-252259J-431700D01*
G01*
X-14607720Y120345281D02*
G75*
G03*
X-14558235Y120562158I-450866J216959D01*
G01*
X-14607716Y120345279D02*
G75*
G03*
X-13904947Y119696704I450510J-216879D01*
G01*
X-13652688Y119765000D02*
G75*
G03*
X-13904946Y119696702I2J-500010D01*
G01*
X-13904947Y122833300D02*
G75*
G03*
X-13652689Y122765001I252261J431710D01*
G01*
X-11811525Y119696702D02*
G75*
G03*
X-12063784Y119765001I-252261J-431710D01*
G01*
X-12063783Y122765000D02*
G75*
G03*
X-11811525Y122833299I-3J500009D01*
G01*
X-11108752Y122184721D02*
G75*
G03*
X-11811525Y122833298I-450515J216877D01*
G01*
X-11108752Y122184721D02*
G75*
G03*
X-11158237Y121967844I450505J-216876D01*
G01*
X-11811525Y119696702D02*
G75*
G03*
X-11108753Y120345282I252259J431700D01*
G01*
X-11158236Y120562159D02*
G75*
G03*
X-11108751Y120345281I499989J-2D01*
G01*
X-14558235Y120562159D02*
X-14558235Y121967843D01*
X-13652688Y122765000D02*
X-12063783Y122765000D01*
X-12063784Y119765001D02*
X-13652688Y119765001D01*
X-11158237Y121967843D02*
X-11158237Y120562159D01*
%TO.C,LED51*%
X182591763Y72425648D02*
X182591763Y71019964D01*
X181686216Y70222806D02*
X180097312Y70222806D01*
X180097312Y73222805D02*
X181686217Y73222805D01*
X179191765Y71019964D02*
X179191765Y72425648D01*
X182591764Y71019964D02*
G75*
G03*
X182641249Y70803086I499989J-2D01*
G01*
X181938475Y70154507D02*
G75*
G03*
X182641247Y70803087I252259J431700D01*
G01*
X182641248Y72642526D02*
G75*
G03*
X182591763Y72425649I450505J-216876D01*
G01*
X182641248Y72642526D02*
G75*
G03*
X181938475Y73291103I-450515J216877D01*
G01*
X181686217Y73222805D02*
G75*
G03*
X181938475Y73291104I-3J500009D01*
G01*
X181938475Y70154507D02*
G75*
G03*
X181686216Y70222806I-252261J-431710D01*
G01*
X179845053Y73291105D02*
G75*
G03*
X180097311Y73222806I252261J431710D01*
G01*
X180097312Y70222805D02*
G75*
G03*
X179845054Y70154507I2J-500010D01*
G01*
X179142284Y70803084D02*
G75*
G03*
X179845053Y70154509I450510J-216879D01*
G01*
X179142280Y70803086D02*
G75*
G03*
X179191765Y71019963I-450866J216959D01*
G01*
X179845053Y73291105D02*
G75*
G03*
X179142280Y72642526I-252259J-431700D01*
G01*
X179191753Y72425648D02*
G75*
G03*
X179142279Y72642526I-500289J-43D01*
G01*
%TO.C,LED29*%
X55068840Y47166946D02*
G75*
G03*
X55065539Y47389371I-489365J103974D01*
G01*
X55887803Y47877662D02*
G75*
G03*
X55065541Y47389371I-336502J-369818D01*
G01*
X54683098Y45590128D02*
G75*
G03*
X54776593Y45791976I-395904J305957D01*
G01*
X54683102Y45590124D02*
G75*
G03*
X55235668Y44809608I395574J-305806D01*
G01*
X55496614Y44823967D02*
G75*
G03*
X55235669Y44809606I-103950J-489108D01*
G01*
X55887803Y47877662D02*
G75*
G03*
X56120348Y47758408I336506J369828D01*
G01*
X57283343Y44374360D02*
G75*
G03*
X57050797Y44493614I-336509J-369835D01*
G01*
X57674533Y47428056D02*
G75*
G03*
X57935479Y47442415I103955J489083D01*
G01*
X58488046Y46661896D02*
G75*
G03*
X57935479Y47442413I-395578J305804D01*
G01*
X58488047Y46661895D02*
G75*
G03*
X58394553Y46460046I395570J-305802D01*
G01*
X57283344Y44374361D02*
G75*
G03*
X58105605Y44862652I336502J369817D01*
G01*
X58102294Y45085078D02*
G75*
G03*
X58105606Y44862651I489064J-103956D01*
G01*
X54776594Y45791977D02*
X55068852Y47166944D01*
X56120349Y47758407D02*
X57674533Y47428055D01*
X57050797Y44493614D02*
X55496614Y44823965D01*
X58394552Y46460045D02*
X58102294Y45085078D01*
%TO.C,LED25*%
X-31158247Y45967843D02*
G75*
G03*
X-31207721Y46184721I-500289J-43D01*
G01*
X-30504947Y46833300D02*
G75*
G03*
X-31207720Y46184721I-252259J-431700D01*
G01*
X-31207720Y44345281D02*
G75*
G03*
X-31158235Y44562158I-450866J216959D01*
G01*
X-31207716Y44345279D02*
G75*
G03*
X-30504947Y43696704I450510J-216879D01*
G01*
X-30252688Y43765000D02*
G75*
G03*
X-30504946Y43696702I2J-500010D01*
G01*
X-30504947Y46833300D02*
G75*
G03*
X-30252689Y46765001I252261J431710D01*
G01*
X-28411525Y43696702D02*
G75*
G03*
X-28663784Y43765001I-252261J-431710D01*
G01*
X-28663783Y46765000D02*
G75*
G03*
X-28411525Y46833299I-3J500009D01*
G01*
X-27708752Y46184721D02*
G75*
G03*
X-28411525Y46833298I-450515J216877D01*
G01*
X-27708752Y46184721D02*
G75*
G03*
X-27758237Y45967844I450505J-216876D01*
G01*
X-28411525Y43696702D02*
G75*
G03*
X-27708753Y44345282I252259J431700D01*
G01*
X-27758236Y44562159D02*
G75*
G03*
X-27708751Y44345281I499989J-2D01*
G01*
X-31158235Y44562159D02*
X-31158235Y45967843D01*
X-30252688Y46765000D02*
X-28663783Y46765000D01*
X-28663784Y43765001D02*
X-30252688Y43765001D01*
X-27758237Y45967843D02*
X-27758237Y44562159D01*
%TO.C,LED55*%
X117217430Y47992159D02*
X118469904Y48630326D01*
X119591286Y48185380D02*
X120312634Y46769656D01*
X117639615Y45407685D02*
X116918267Y46823410D01*
X120013470Y45600906D02*
X118760997Y44962739D01*
X118469904Y48630327D02*
G75*
G03*
X118640678Y48772878I-226989J445495D01*
G01*
X119537617Y48441152D02*
G75*
G03*
X118640677Y48772878I-499170J28777D01*
G01*
X117001724Y47937791D02*
G75*
G03*
X117217429Y47992160I-11284J499853D01*
G01*
X117001724Y47937790D02*
G75*
G03*
X116742890Y47017166I11290J-499872D01*
G01*
X116918267Y46823410D02*
G75*
G03*
X116742890Y47017165I-445504J-226997D01*
G01*
X119537618Y48441152D02*
G75*
G03*
X119591286Y48185380I499180J-28774D01*
G01*
X117693281Y45151913D02*
G75*
G03*
X117639613Y45407684I-499179J28774D01*
G01*
X120312633Y46769655D02*
G75*
G03*
X120488011Y46575900I445526J227021D01*
G01*
X120229176Y45655280D02*
G75*
G03*
X120488010Y46575897I-11287J499868D01*
G01*
X120229176Y45655276D02*
G75*
G03*
X120013471Y45600905I11409J-500330D01*
G01*
X117693283Y45151913D02*
G75*
G03*
X118590222Y44820187I499170J-28776D01*
G01*
X118761002Y44962728D02*
G75*
G03*
X118590223Y44820187I227165J-445741D01*
G01*
%TO.C,LED20*%
X-11158225Y63562157D02*
G75*
G03*
X-11108751Y63345279I500289J43D01*
G01*
X-11811525Y62696700D02*
G75*
G03*
X-11108752Y63345279I252259J431700D01*
G01*
X-11108752Y65184719D02*
G75*
G03*
X-11158237Y64967842I450866J-216959D01*
G01*
X-11108756Y65184721D02*
G75*
G03*
X-11811525Y65833296I-450510J216879D01*
G01*
X-12063784Y65765000D02*
G75*
G03*
X-11811526Y65833298I-2J500010D01*
G01*
X-11811525Y62696700D02*
G75*
G03*
X-12063783Y62764999I-252261J-431710D01*
G01*
X-13904947Y65833298D02*
G75*
G03*
X-13652688Y65764999I252261J431710D01*
G01*
X-13652689Y62765000D02*
G75*
G03*
X-13904947Y62696701I3J-500009D01*
G01*
X-14607720Y63345279D02*
G75*
G03*
X-13904947Y62696702I450515J-216877D01*
G01*
X-14607720Y63345279D02*
G75*
G03*
X-14558235Y63562156I-450505J216876D01*
G01*
X-13904947Y65833298D02*
G75*
G03*
X-14607719Y65184718I-252259J-431700D01*
G01*
X-14558236Y64967841D02*
G75*
G03*
X-14607721Y65184719I-499989J2D01*
G01*
X-11158237Y64967841D02*
X-11158237Y63562157D01*
X-12063784Y62765000D02*
X-13652689Y62765000D01*
X-13652688Y65764999D02*
X-12063784Y65764999D01*
X-14558235Y63562157D02*
X-14558235Y64967841D01*
%TO.C,LED33*%
X179191765Y128019962D02*
X179191765Y129425646D01*
X180097312Y130222804D02*
X181686216Y130222804D01*
X181686216Y127222805D02*
X180097311Y127222805D01*
X182591763Y129425646D02*
X182591763Y128019962D01*
X179191764Y129425646D02*
G75*
G03*
X179142279Y129642524I-499989J2D01*
G01*
X179845053Y130291103D02*
G75*
G03*
X179142281Y129642523I-252259J-431700D01*
G01*
X179142280Y127803084D02*
G75*
G03*
X179191765Y128019961I-450505J216876D01*
G01*
X179142280Y127803084D02*
G75*
G03*
X179845053Y127154507I450515J-216877D01*
G01*
X180097311Y127222805D02*
G75*
G03*
X179845053Y127154506I3J-500009D01*
G01*
X179845053Y130291103D02*
G75*
G03*
X180097312Y130222804I252261J431710D01*
G01*
X181938475Y127154505D02*
G75*
G03*
X181686217Y127222804I-252261J-431710D01*
G01*
X181686216Y130222805D02*
G75*
G03*
X181938474Y130291103I-2J500010D01*
G01*
X182641244Y129642526D02*
G75*
G03*
X181938475Y130291101I-450510J216879D01*
G01*
X182641248Y129642524D02*
G75*
G03*
X182591763Y129425647I450866J-216959D01*
G01*
X181938475Y127154505D02*
G75*
G03*
X182641248Y127803084I252259J431700D01*
G01*
X182591775Y128019962D02*
G75*
G03*
X182641249Y127803084I500289J43D01*
G01*
%TO.C,LED10*%
X26841775Y108762157D02*
G75*
G03*
X26891249Y108545279I500289J43D01*
G01*
X26188475Y107896700D02*
G75*
G03*
X26891248Y108545279I252259J431700D01*
G01*
X26891248Y110384719D02*
G75*
G03*
X26841763Y110167842I450866J-216959D01*
G01*
X26891244Y110384721D02*
G75*
G03*
X26188475Y111033296I-450510J216879D01*
G01*
X25936216Y110965000D02*
G75*
G03*
X26188474Y111033298I-2J500010D01*
G01*
X26188475Y107896700D02*
G75*
G03*
X25936217Y107964999I-252261J-431710D01*
G01*
X24095053Y111033298D02*
G75*
G03*
X24347312Y110964999I252261J431710D01*
G01*
X24347311Y107965000D02*
G75*
G03*
X24095053Y107896701I3J-500009D01*
G01*
X23392280Y108545279D02*
G75*
G03*
X24095053Y107896702I450515J-216877D01*
G01*
X23392280Y108545279D02*
G75*
G03*
X23441765Y108762156I-450505J216876D01*
G01*
X24095053Y111033298D02*
G75*
G03*
X23392281Y110384718I-252259J-431700D01*
G01*
X23441764Y110167841D02*
G75*
G03*
X23392279Y110384719I-499989J2D01*
G01*
X26841763Y110167841D02*
X26841763Y108762157D01*
X25936216Y107965000D02*
X24347311Y107965000D01*
X24347312Y110964999D02*
X25936216Y110964999D01*
X23441765Y108762157D02*
X23441765Y110167841D01*
%TO.C,LED18*%
X61471753Y86447843D02*
G75*
G03*
X61422279Y86664721I-500289J-43D01*
G01*
X62125053Y87313300D02*
G75*
G03*
X61422280Y86664721I-252259J-431700D01*
G01*
X61422280Y84825281D02*
G75*
G03*
X61471765Y85042158I-450866J216959D01*
G01*
X61422284Y84825279D02*
G75*
G03*
X62125053Y84176704I450510J-216879D01*
G01*
X62377312Y84245000D02*
G75*
G03*
X62125054Y84176702I2J-500010D01*
G01*
X62125053Y87313300D02*
G75*
G03*
X62377311Y87245001I252261J431710D01*
G01*
X64218475Y84176702D02*
G75*
G03*
X63966216Y84245001I-252261J-431710D01*
G01*
X63966217Y87245000D02*
G75*
G03*
X64218475Y87313299I-3J500009D01*
G01*
X64921248Y86664721D02*
G75*
G03*
X64218475Y87313298I-450515J216877D01*
G01*
X64921248Y86664721D02*
G75*
G03*
X64871763Y86447844I450505J-216876D01*
G01*
X64218475Y84176702D02*
G75*
G03*
X64921247Y84825282I252259J431700D01*
G01*
X64871764Y85042159D02*
G75*
G03*
X64921249Y84825281I499989J-2D01*
G01*
X61471765Y85042159D02*
X61471765Y86447843D01*
X62377312Y87245000D02*
X63966217Y87245000D01*
X63966216Y84245001D02*
X62377312Y84245001D01*
X64871763Y86447843D02*
X64871763Y85042159D01*
%TO.C,LED7*%
X-30158225Y101562157D02*
G75*
G03*
X-30108751Y101345279I500289J43D01*
G01*
X-30811525Y100696700D02*
G75*
G03*
X-30108752Y101345279I252259J431700D01*
G01*
X-30108752Y103184719D02*
G75*
G03*
X-30158237Y102967842I450866J-216959D01*
G01*
X-30108756Y103184721D02*
G75*
G03*
X-30811525Y103833296I-450510J216879D01*
G01*
X-31063784Y103765000D02*
G75*
G03*
X-30811526Y103833298I-2J500010D01*
G01*
X-30811525Y100696700D02*
G75*
G03*
X-31063783Y100764999I-252261J-431710D01*
G01*
X-32904947Y103833298D02*
G75*
G03*
X-32652688Y103764999I252261J431710D01*
G01*
X-32652689Y100765000D02*
G75*
G03*
X-32904947Y100696701I3J-500009D01*
G01*
X-33607720Y101345279D02*
G75*
G03*
X-32904947Y100696702I450515J-216877D01*
G01*
X-33607720Y101345279D02*
G75*
G03*
X-33558235Y101562156I-450505J216876D01*
G01*
X-32904947Y103833298D02*
G75*
G03*
X-33607719Y103184718I-252259J-431700D01*
G01*
X-33558236Y102967841D02*
G75*
G03*
X-33607721Y103184719I-499989J2D01*
G01*
X-30158237Y102967841D02*
X-30158237Y101562157D01*
X-31063784Y100765000D02*
X-32652689Y100765000D01*
X-32652688Y103764999D02*
X-31063784Y103764999D01*
X-33558235Y101562157D02*
X-33558235Y102967841D01*
%TO.C,LED16*%
X23471753Y91187843D02*
G75*
G03*
X23422279Y91404721I-500289J-43D01*
G01*
X24125053Y92053300D02*
G75*
G03*
X23422280Y91404721I-252259J-431700D01*
G01*
X23422280Y89565281D02*
G75*
G03*
X23471765Y89782158I-450866J216959D01*
G01*
X23422284Y89565279D02*
G75*
G03*
X24125053Y88916704I450510J-216879D01*
G01*
X24377312Y88985000D02*
G75*
G03*
X24125054Y88916702I2J-500010D01*
G01*
X24125053Y92053300D02*
G75*
G03*
X24377311Y91985001I252261J431710D01*
G01*
X26218475Y88916702D02*
G75*
G03*
X25966216Y88985001I-252261J-431710D01*
G01*
X25966217Y91985000D02*
G75*
G03*
X26218475Y92053299I-3J500009D01*
G01*
X26921248Y91404721D02*
G75*
G03*
X26218475Y92053298I-450515J216877D01*
G01*
X26921248Y91404721D02*
G75*
G03*
X26871763Y91187844I450505J-216876D01*
G01*
X26218475Y88916702D02*
G75*
G03*
X26921247Y89565282I252259J431700D01*
G01*
X26871764Y89782159D02*
G75*
G03*
X26921249Y89565281I499989J-2D01*
G01*
X23471765Y89782159D02*
X23471765Y91187843D01*
X24377312Y91985000D02*
X25966217Y91985000D01*
X25966216Y88985001D02*
X24377312Y88985001D01*
X26871763Y91187843D02*
X26871763Y89782159D01*
%TO.C,LED60*%
X233841765Y44819962D02*
X233841765Y46225646D01*
X234747312Y47022804D02*
X236336216Y47022804D01*
X236336216Y44022805D02*
X234747311Y44022805D01*
X237241763Y46225646D02*
X237241763Y44819962D01*
X233841764Y46225646D02*
G75*
G03*
X233792279Y46442524I-499989J2D01*
G01*
X234495053Y47091103D02*
G75*
G03*
X233792281Y46442523I-252259J-431700D01*
G01*
X233792280Y44603084D02*
G75*
G03*
X233841765Y44819961I-450505J216876D01*
G01*
X233792280Y44603084D02*
G75*
G03*
X234495053Y43954507I450515J-216877D01*
G01*
X234747311Y44022805D02*
G75*
G03*
X234495053Y43954506I3J-500009D01*
G01*
X234495053Y47091103D02*
G75*
G03*
X234747312Y47022804I252261J431710D01*
G01*
X236588475Y43954505D02*
G75*
G03*
X236336217Y44022804I-252261J-431710D01*
G01*
X236336216Y47022805D02*
G75*
G03*
X236588474Y47091103I-2J500010D01*
G01*
X237291244Y46442526D02*
G75*
G03*
X236588475Y47091101I-450510J216879D01*
G01*
X237291248Y46442524D02*
G75*
G03*
X237241763Y46225647I450866J-216959D01*
G01*
X236588475Y43954505D02*
G75*
G03*
X237291248Y44603084I252259J431700D01*
G01*
X237241775Y44819962D02*
G75*
G03*
X237291249Y44603084I500289J43D01*
G01*
%TO.C,LED1*%
X-33558247Y121967843D02*
G75*
G03*
X-33607721Y122184721I-500289J-43D01*
G01*
X-32904947Y122833300D02*
G75*
G03*
X-33607720Y122184721I-252259J-431700D01*
G01*
X-33607720Y120345281D02*
G75*
G03*
X-33558235Y120562158I-450866J216959D01*
G01*
X-33607716Y120345279D02*
G75*
G03*
X-32904947Y119696704I450510J-216879D01*
G01*
X-32652688Y119765000D02*
G75*
G03*
X-32904946Y119696702I2J-500010D01*
G01*
X-32904947Y122833300D02*
G75*
G03*
X-32652689Y122765001I252261J431710D01*
G01*
X-30811525Y119696702D02*
G75*
G03*
X-31063784Y119765001I-252261J-431710D01*
G01*
X-31063783Y122765000D02*
G75*
G03*
X-30811525Y122833299I-3J500009D01*
G01*
X-30108752Y122184721D02*
G75*
G03*
X-30811525Y122833298I-450515J216877D01*
G01*
X-30108752Y122184721D02*
G75*
G03*
X-30158237Y121967844I450505J-216876D01*
G01*
X-30811525Y119696702D02*
G75*
G03*
X-30108753Y120345282I252259J431700D01*
G01*
X-30158236Y120562159D02*
G75*
G03*
X-30108751Y120345281I499989J-2D01*
G01*
X-33558235Y120562159D02*
X-33558235Y121967843D01*
X-32652688Y122765000D02*
X-31063783Y122765000D01*
X-31063784Y119765001D02*
X-32652688Y119765001D01*
X-30158237Y121967843D02*
X-30158237Y120562159D01*
%TO.C,LED56*%
X147981235Y45342881D02*
X147688977Y46717848D01*
X148408997Y47685860D02*
X149963180Y48016211D01*
X150586915Y45081769D02*
X149032731Y44751418D01*
X151014677Y47424747D02*
X151306935Y46049780D01*
X147688976Y46717848D02*
G75*
G03*
X147595481Y46919698I-489063J-103952D01*
G01*
X148148051Y47700219D02*
G75*
G03*
X147595482Y46919697I-156991J-474714D01*
G01*
X147977924Y45120454D02*
G75*
G03*
X147981236Y45342880I-485752J118471D01*
G01*
X147977924Y45120454D02*
G75*
G03*
X148800185Y44632165I485761J-118470D01*
G01*
X149032731Y44751418D02*
G75*
G03*
X148800186Y44632164I103961J-489082D01*
G01*
X148148052Y47700220D02*
G75*
G03*
X148408997Y47685861I156990J474730D01*
G01*
X150847862Y45067409D02*
G75*
G03*
X150586916Y45081768I-156991J-474724D01*
G01*
X149963180Y48016213D02*
G75*
G03*
X150195724Y48135466I-103960J489082D01*
G01*
X151017984Y47647175D02*
G75*
G03*
X150195727Y48135463I-485756J118474D01*
G01*
X151017990Y47647174D02*
G75*
G03*
X151014678Y47424748I486121J-118478D01*
G01*
X150847862Y45067410D02*
G75*
G03*
X151400430Y45847930I156991J474713D01*
G01*
X151306947Y46049782D02*
G75*
G03*
X151400430Y45847930I489348J104059D01*
G01*
%TO.C,LED40*%
X201591763Y107975648D02*
X201591763Y106569964D01*
X200686216Y105772806D02*
X199097312Y105772806D01*
X199097312Y108772805D02*
X200686217Y108772805D01*
X198191765Y106569964D02*
X198191765Y107975648D01*
X201591764Y106569964D02*
G75*
G03*
X201641249Y106353086I499989J-2D01*
G01*
X200938475Y105704507D02*
G75*
G03*
X201641247Y106353087I252259J431700D01*
G01*
X201641248Y108192526D02*
G75*
G03*
X201591763Y107975649I450505J-216876D01*
G01*
X201641248Y108192526D02*
G75*
G03*
X200938475Y108841103I-450515J216877D01*
G01*
X200686217Y108772805D02*
G75*
G03*
X200938475Y108841104I-3J500009D01*
G01*
X200938475Y105704507D02*
G75*
G03*
X200686216Y105772806I-252261J-431710D01*
G01*
X198845053Y108841105D02*
G75*
G03*
X199097311Y108772806I252261J431710D01*
G01*
X199097312Y105772805D02*
G75*
G03*
X198845054Y105704507I2J-500010D01*
G01*
X198142284Y106353084D02*
G75*
G03*
X198845053Y105704509I450510J-216879D01*
G01*
X198142280Y106353086D02*
G75*
G03*
X198191765Y106569963I-450866J216959D01*
G01*
X198845053Y108841105D02*
G75*
G03*
X198142280Y108192526I-252259J-431700D01*
G01*
X198191753Y107975648D02*
G75*
G03*
X198142279Y108192526I-500289J-43D01*
G01*
%TO.C,LED52*%
X201591763Y69975648D02*
X201591763Y68569964D01*
X200686216Y67772806D02*
X199097312Y67772806D01*
X199097312Y70772805D02*
X200686217Y70772805D01*
X198191765Y68569964D02*
X198191765Y69975648D01*
X201591764Y68569964D02*
G75*
G03*
X201641249Y68353086I499989J-2D01*
G01*
X200938475Y67704507D02*
G75*
G03*
X201641247Y68353087I252259J431700D01*
G01*
X201641248Y70192526D02*
G75*
G03*
X201591763Y69975649I450505J-216876D01*
G01*
X201641248Y70192526D02*
G75*
G03*
X200938475Y70841103I-450515J216877D01*
G01*
X200686217Y70772805D02*
G75*
G03*
X200938475Y70841104I-3J500009D01*
G01*
X200938475Y67704507D02*
G75*
G03*
X200686216Y67772806I-252261J-431710D01*
G01*
X198845053Y70841105D02*
G75*
G03*
X199097311Y70772806I252261J431710D01*
G01*
X199097312Y67772805D02*
G75*
G03*
X198845054Y67704507I2J-500010D01*
G01*
X198142284Y68353084D02*
G75*
G03*
X198845053Y67704509I450510J-216879D01*
G01*
X198142280Y68353086D02*
G75*
G03*
X198191765Y68569963I-450866J216959D01*
G01*
X198845053Y70841105D02*
G75*
G03*
X198142280Y70192526I-252259J-431700D01*
G01*
X198191753Y69975648D02*
G75*
G03*
X198142279Y70192526I-500289J-43D01*
G01*
%TO.C,LED8*%
X-11108225Y101562157D02*
G75*
G03*
X-11058751Y101345279I500289J43D01*
G01*
X-11761525Y100696700D02*
G75*
G03*
X-11058752Y101345279I252259J431700D01*
G01*
X-11058752Y103184719D02*
G75*
G03*
X-11108237Y102967842I450866J-216959D01*
G01*
X-11058756Y103184721D02*
G75*
G03*
X-11761525Y103833296I-450510J216879D01*
G01*
X-12013784Y103765000D02*
G75*
G03*
X-11761526Y103833298I-2J500010D01*
G01*
X-11761525Y100696700D02*
G75*
G03*
X-12013783Y100764999I-252261J-431710D01*
G01*
X-13854947Y103833298D02*
G75*
G03*
X-13602688Y103764999I252261J431710D01*
G01*
X-13602689Y100765000D02*
G75*
G03*
X-13854947Y100696701I3J-500009D01*
G01*
X-14557720Y101345279D02*
G75*
G03*
X-13854947Y100696702I450515J-216877D01*
G01*
X-14557720Y101345279D02*
G75*
G03*
X-14508235Y101562156I-450505J216876D01*
G01*
X-13854947Y103833298D02*
G75*
G03*
X-14557719Y103184718I-252259J-431700D01*
G01*
X-14508236Y102967841D02*
G75*
G03*
X-14557721Y103184719I-499989J2D01*
G01*
X-11108237Y102967841D02*
X-11108237Y101562157D01*
X-12013784Y100765000D02*
X-13602689Y100765000D01*
X-13602688Y103764999D02*
X-12013784Y103764999D01*
X-14508235Y101562157D02*
X-14508235Y102967841D01*
%TO.C,LED28*%
X35315001Y49612814D02*
G75*
G03*
X35276946Y49831983I-499606J26140D01*
G01*
X36012700Y50442893D02*
G75*
G03*
X35276946Y49831983I-274507J-417906D01*
G01*
X35180676Y47995065D02*
G75*
G03*
X35241444Y48209054I-438932J240270D01*
G01*
X35180680Y47995062D02*
G75*
G03*
X35848543Y47310596I438543J-240159D01*
G01*
X36104031Y47365596D02*
G75*
G03*
X35848544Y47310593I-26167J-499325D01*
G01*
X36012701Y50442894D02*
G75*
G03*
X36261038Y50361486I274508J417915D01*
G01*
X37939095Y47201032D02*
G75*
G03*
X37690757Y47282440I-274508J-417915D01*
G01*
X37847766Y50278328D02*
G75*
G03*
X38103253Y50333331I26166J499324D01*
G01*
X38771119Y49648862D02*
G75*
G03*
X38103253Y50333331I-438547J240158D01*
G01*
X38771119Y49648862D02*
G75*
G03*
X38710351Y49434872I438528J-240154D01*
G01*
X37939097Y47201035D02*
G75*
G03*
X38674849Y47811944I274507J417904D01*
G01*
X38636784Y48031113D02*
G75*
G03*
X38674851Y47811943I499304J-26169D01*
G01*
X35241445Y48209055D02*
X35315013Y49612813D01*
X36261039Y50361485D02*
X37847766Y50278328D01*
X37690757Y47282440D02*
X36104031Y47365597D01*
X38710351Y49434871D02*
X38636783Y48031113D01*
%TO.C,LED12*%
X64871775Y104012157D02*
G75*
G03*
X64921249Y103795279I500289J43D01*
G01*
X64218475Y103146700D02*
G75*
G03*
X64921248Y103795279I252259J431700D01*
G01*
X64921248Y105634719D02*
G75*
G03*
X64871763Y105417842I450866J-216959D01*
G01*
X64921244Y105634721D02*
G75*
G03*
X64218475Y106283296I-450510J216879D01*
G01*
X63966216Y106215000D02*
G75*
G03*
X64218474Y106283298I-2J500010D01*
G01*
X64218475Y103146700D02*
G75*
G03*
X63966217Y103214999I-252261J-431710D01*
G01*
X62125053Y106283298D02*
G75*
G03*
X62377312Y106214999I252261J431710D01*
G01*
X62377311Y103215000D02*
G75*
G03*
X62125053Y103146701I3J-500009D01*
G01*
X61422280Y103795279D02*
G75*
G03*
X62125053Y103146702I450515J-216877D01*
G01*
X61422280Y103795279D02*
G75*
G03*
X61471765Y104012156I-450505J216876D01*
G01*
X62125053Y106283298D02*
G75*
G03*
X61422281Y105634718I-252259J-431700D01*
G01*
X61471764Y105417841D02*
G75*
G03*
X61422279Y105634719I-499989J2D01*
G01*
X64871763Y105417841D02*
X64871763Y104012157D01*
X63966216Y103215000D02*
X62377311Y103215000D01*
X62377312Y106214999D02*
X63966216Y106214999D01*
X61471765Y104012157D02*
X61471765Y105417841D01*
%TO.C,LED58*%
X187194226Y48340132D02*
X187316740Y49740467D01*
X188288318Y50455668D02*
X189871175Y50317186D01*
X189609708Y47328603D02*
X188026850Y47467085D01*
X190703800Y49444138D02*
X190581286Y48043803D01*
X187316739Y49740467D02*
G75*
G03*
X187286345Y49960833I-498087J43579D01*
G01*
X188042971Y50545693D02*
G75*
G03*
X187286346Y49960832I-288924J-408071D01*
G01*
X187126027Y48128392D02*
G75*
G03*
X187194226Y48340131I-429880J255312D01*
G01*
X187126027Y48128392D02*
G75*
G03*
X187769599Y47421033I429899J-255316D01*
G01*
X188026850Y47467085D02*
G75*
G03*
X187769599Y47421031I-43576J-498106D01*
G01*
X188042972Y50545694D02*
G75*
G03*
X188288318Y50455669I288926J408080D01*
G01*
X189855054Y47238576D02*
G75*
G03*
X189609709Y47328601I-288926J-408080D01*
G01*
X189871175Y50317187D02*
G75*
G03*
X190128426Y50363239I43577J498107D01*
G01*
X190771994Y49655880D02*
G75*
G03*
X190128427Y50363236I-429893J255318D01*
G01*
X190771999Y49655877D02*
G75*
G03*
X190703800Y49444139I430241J-255428D01*
G01*
X189855055Y47238577D02*
G75*
G03*
X190611681Y47823437I288924J408071D01*
G01*
X190581298Y48043802D02*
G75*
G03*
X190611682Y47823437I498389J-43560D01*
G01*
%TO.C,LED21*%
X7891775Y68262157D02*
G75*
G03*
X7941249Y68045279I500289J43D01*
G01*
X7238475Y67396700D02*
G75*
G03*
X7941248Y68045279I252259J431700D01*
G01*
X7941248Y69884719D02*
G75*
G03*
X7891763Y69667842I450866J-216959D01*
G01*
X7941244Y69884721D02*
G75*
G03*
X7238475Y70533296I-450510J216879D01*
G01*
X6986216Y70465000D02*
G75*
G03*
X7238474Y70533298I-2J500010D01*
G01*
X7238475Y67396700D02*
G75*
G03*
X6986217Y67464999I-252261J-431710D01*
G01*
X5145053Y70533298D02*
G75*
G03*
X5397312Y70464999I252261J431710D01*
G01*
X5397311Y67465000D02*
G75*
G03*
X5145053Y67396701I3J-500009D01*
G01*
X4442280Y68045279D02*
G75*
G03*
X5145053Y67396702I450515J-216877D01*
G01*
X4442280Y68045279D02*
G75*
G03*
X4491765Y68262156I-450505J216876D01*
G01*
X5145053Y70533298D02*
G75*
G03*
X4442281Y69884718I-252259J-431700D01*
G01*
X4491764Y69667841D02*
G75*
G03*
X4442279Y69884719I-499989J2D01*
G01*
X7891763Y69667841D02*
X7891763Y68262157D01*
X6986216Y67465000D02*
X5397311Y67465000D01*
X5397312Y70464999D02*
X6986216Y70464999D01*
X4491765Y68262157D02*
X4491765Y69667841D01*
%TO.C,LED24*%
X64841775Y66012157D02*
G75*
G03*
X64891249Y65795279I500289J43D01*
G01*
X64188475Y65146700D02*
G75*
G03*
X64891248Y65795279I252259J431700D01*
G01*
X64891248Y67634719D02*
G75*
G03*
X64841763Y67417842I450866J-216959D01*
G01*
X64891244Y67634721D02*
G75*
G03*
X64188475Y68283296I-450510J216879D01*
G01*
X63936216Y68215000D02*
G75*
G03*
X64188474Y68283298I-2J500010D01*
G01*
X64188475Y65146700D02*
G75*
G03*
X63936217Y65214999I-252261J-431710D01*
G01*
X62095053Y68283298D02*
G75*
G03*
X62347312Y68214999I252261J431710D01*
G01*
X62347311Y65215000D02*
G75*
G03*
X62095053Y65146701I3J-500009D01*
G01*
X61392280Y65795279D02*
G75*
G03*
X62095053Y65146702I450515J-216877D01*
G01*
X61392280Y65795279D02*
G75*
G03*
X61441765Y66012156I-450505J216876D01*
G01*
X62095053Y68283298D02*
G75*
G03*
X61392281Y67634718I-252259J-431700D01*
G01*
X61441764Y67417841D02*
G75*
G03*
X61392279Y67634719I-499989J2D01*
G01*
X64841763Y67417841D02*
X64841763Y66012157D01*
X63936216Y65215000D02*
X62347311Y65215000D01*
X62347312Y68214999D02*
X63936216Y68214999D01*
X61441765Y66012157D02*
X61441765Y67417841D01*
%TO.C,LED59*%
X206563653Y44712562D02*
X206951112Y46063792D01*
X208041306Y46580467D02*
X209568659Y46142506D01*
X208741747Y43258722D02*
X207214394Y43696683D01*
X210219400Y45126626D02*
X209831941Y43775396D01*
X206951112Y46063792D02*
G75*
G03*
X206963323Y46285909I-480620J137818D01*
G01*
X207817645Y46715652D02*
G75*
G03*
X206963325Y46285908I-361479J-345444D01*
G01*
X206456306Y44517726D02*
G75*
G03*
X206563653Y44712561I-373274J332650D01*
G01*
X206456306Y44517726D02*
G75*
G03*
X206953082Y43700562I373283J-332655D01*
G01*
X207214394Y43696683D02*
G75*
G03*
X206953082Y43700562I-137819J-480640D01*
G01*
X207817646Y46715653D02*
G75*
G03*
X208041306Y46580468I361487J345459D01*
G01*
X208965408Y43123536D02*
G75*
G03*
X208741748Y43258721I-361484J-345454D01*
G01*
X209568659Y46142507D02*
G75*
G03*
X209829971Y46138628I137820J480641D01*
G01*
X210326745Y45321465D02*
G75*
G03*
X209829971Y46138625I-373278J332655D01*
G01*
X210326747Y45321464D02*
G75*
G03*
X210219400Y45126627I373699J-332881D01*
G01*
X208965409Y43123537D02*
G75*
G03*
X209819728Y43553279I361479J345443D01*
G01*
X209831953Y43775393D02*
G75*
G03*
X209819730Y43553279I480920J-137858D01*
G01*
%TO.C,LED36*%
X236191765Y120819962D02*
X236191765Y122225646D01*
X237097312Y123022804D02*
X238686216Y123022804D01*
X238686216Y120022805D02*
X237097311Y120022805D01*
X239591763Y122225646D02*
X239591763Y120819962D01*
X236191764Y122225646D02*
G75*
G03*
X236142279Y122442524I-499989J2D01*
G01*
X236845053Y123091103D02*
G75*
G03*
X236142281Y122442523I-252259J-431700D01*
G01*
X236142280Y120603084D02*
G75*
G03*
X236191765Y120819961I-450505J216876D01*
G01*
X236142280Y120603084D02*
G75*
G03*
X236845053Y119954507I450515J-216877D01*
G01*
X237097311Y120022805D02*
G75*
G03*
X236845053Y119954506I3J-500009D01*
G01*
X236845053Y123091103D02*
G75*
G03*
X237097312Y123022804I252261J431710D01*
G01*
X238938475Y119954505D02*
G75*
G03*
X238686217Y120022804I-252261J-431710D01*
G01*
X238686216Y123022805D02*
G75*
G03*
X238938474Y123091103I-2J500010D01*
G01*
X239641244Y122442526D02*
G75*
G03*
X238938475Y123091101I-450510J216879D01*
G01*
X239641248Y122442524D02*
G75*
G03*
X239591763Y122225647I450866J-216959D01*
G01*
X238938475Y119954505D02*
G75*
G03*
X239641248Y120603084I252259J431700D01*
G01*
X239591775Y120819962D02*
G75*
G03*
X239641249Y120603084I500289J43D01*
G01*
%TO.C,LED53*%
X220591763Y65225648D02*
X220591763Y63819964D01*
X219686216Y63022806D02*
X218097312Y63022806D01*
X218097312Y66022805D02*
X219686217Y66022805D01*
X217191765Y63819964D02*
X217191765Y65225648D01*
X220591764Y63819964D02*
G75*
G03*
X220641249Y63603086I499989J-2D01*
G01*
X219938475Y62954507D02*
G75*
G03*
X220641247Y63603087I252259J431700D01*
G01*
X220641248Y65442526D02*
G75*
G03*
X220591763Y65225649I450505J-216876D01*
G01*
X220641248Y65442526D02*
G75*
G03*
X219938475Y66091103I-450515J216877D01*
G01*
X219686217Y66022805D02*
G75*
G03*
X219938475Y66091104I-3J500009D01*
G01*
X219938475Y62954507D02*
G75*
G03*
X219686216Y63022806I-252261J-431710D01*
G01*
X217845053Y66091105D02*
G75*
G03*
X218097311Y66022806I252261J431710D01*
G01*
X218097312Y63022805D02*
G75*
G03*
X217845054Y62954507I2J-500010D01*
G01*
X217142284Y63603084D02*
G75*
G03*
X217845053Y62954509I450510J-216879D01*
G01*
X217142280Y63603086D02*
G75*
G03*
X217191765Y63819963I-450866J216959D01*
G01*
X217845053Y66091105D02*
G75*
G03*
X217142280Y65442526I-252259J-431700D01*
G01*
X217191753Y65225648D02*
G75*
G03*
X217142279Y65442526I-500289J-43D01*
G01*
%TO.C,LED13*%
X-33528247Y83947843D02*
G75*
G03*
X-33577721Y84164721I-500289J-43D01*
G01*
X-32874947Y84813300D02*
G75*
G03*
X-33577720Y84164721I-252259J-431700D01*
G01*
X-33577720Y82325281D02*
G75*
G03*
X-33528235Y82542158I-450866J216959D01*
G01*
X-33577716Y82325279D02*
G75*
G03*
X-32874947Y81676704I450510J-216879D01*
G01*
X-32622688Y81745000D02*
G75*
G03*
X-32874946Y81676702I2J-500010D01*
G01*
X-32874947Y84813300D02*
G75*
G03*
X-32622689Y84745001I252261J431710D01*
G01*
X-30781525Y81676702D02*
G75*
G03*
X-31033784Y81745001I-252261J-431710D01*
G01*
X-31033783Y84745000D02*
G75*
G03*
X-30781525Y84813299I-3J500009D01*
G01*
X-30078752Y84164721D02*
G75*
G03*
X-30781525Y84813298I-450515J216877D01*
G01*
X-30078752Y84164721D02*
G75*
G03*
X-30128237Y83947844I450505J-216876D01*
G01*
X-30781525Y81676702D02*
G75*
G03*
X-30078753Y82325282I252259J431700D01*
G01*
X-30128236Y82542159D02*
G75*
G03*
X-30078751Y82325281I499989J-2D01*
G01*
X-33528235Y82542159D02*
X-33528235Y83947843D01*
X-32622688Y84745000D02*
X-31033783Y84745000D01*
X-31033784Y81745001D02*
X-32622688Y81745001D01*
X-30128237Y83947843D02*
X-30128237Y82542159D01*
%TO.C,LED43*%
X141191765Y85319962D02*
X141191765Y86725646D01*
X142097312Y87522804D02*
X143686216Y87522804D01*
X143686216Y84522805D02*
X142097311Y84522805D01*
X144591763Y86725646D02*
X144591763Y85319962D01*
X141191764Y86725646D02*
G75*
G03*
X141142279Y86942524I-499989J2D01*
G01*
X141845053Y87591103D02*
G75*
G03*
X141142281Y86942523I-252259J-431700D01*
G01*
X141142280Y85103084D02*
G75*
G03*
X141191765Y85319961I-450505J216876D01*
G01*
X141142280Y85103084D02*
G75*
G03*
X141845053Y84454507I450515J-216877D01*
G01*
X142097311Y84522805D02*
G75*
G03*
X141845053Y84454506I3J-500009D01*
G01*
X141845053Y87591103D02*
G75*
G03*
X142097312Y87522804I252261J431710D01*
G01*
X143938475Y84454505D02*
G75*
G03*
X143686217Y84522804I-252261J-431710D01*
G01*
X143686216Y87522805D02*
G75*
G03*
X143938474Y87591103I-2J500010D01*
G01*
X144641244Y86942526D02*
G75*
G03*
X143938475Y87591101I-450510J216879D01*
G01*
X144641248Y86942524D02*
G75*
G03*
X144591763Y86725647I450866J-216959D01*
G01*
X143938475Y84454505D02*
G75*
G03*
X144641248Y85103084I252259J431700D01*
G01*
X144591775Y85319962D02*
G75*
G03*
X144641249Y85103084I500289J43D01*
G01*
%TO.C,LED46*%
X198191765Y87569962D02*
X198191765Y88975646D01*
X199097312Y89772804D02*
X200686216Y89772804D01*
X200686216Y86772805D02*
X199097311Y86772805D01*
X201591763Y88975646D02*
X201591763Y87569962D01*
X198191764Y88975646D02*
G75*
G03*
X198142279Y89192524I-499989J2D01*
G01*
X198845053Y89841103D02*
G75*
G03*
X198142281Y89192523I-252259J-431700D01*
G01*
X198142280Y87353084D02*
G75*
G03*
X198191765Y87569961I-450505J216876D01*
G01*
X198142280Y87353084D02*
G75*
G03*
X198845053Y86704507I450515J-216877D01*
G01*
X199097311Y86772805D02*
G75*
G03*
X198845053Y86704506I3J-500009D01*
G01*
X198845053Y89841103D02*
G75*
G03*
X199097312Y89772804I252261J431710D01*
G01*
X200938475Y86704505D02*
G75*
G03*
X200686217Y86772804I-252261J-431710D01*
G01*
X200686216Y89772805D02*
G75*
G03*
X200938474Y89841103I-2J500010D01*
G01*
X201641244Y89192526D02*
G75*
G03*
X200938475Y89841101I-450510J216879D01*
G01*
X201641248Y89192524D02*
G75*
G03*
X201591763Y88975647I450866J-216959D01*
G01*
X200938475Y86704505D02*
G75*
G03*
X201641248Y87353084I252259J431700D01*
G01*
X201591775Y87569962D02*
G75*
G03*
X201641249Y87353084I500289J43D01*
G01*
%TO.C,LED4*%
X23441753Y129167843D02*
G75*
G03*
X23392279Y129384721I-500289J-43D01*
G01*
X24095053Y130033300D02*
G75*
G03*
X23392280Y129384721I-252259J-431700D01*
G01*
X23392280Y127545281D02*
G75*
G03*
X23441765Y127762158I-450866J216959D01*
G01*
X23392284Y127545279D02*
G75*
G03*
X24095053Y126896704I450510J-216879D01*
G01*
X24347312Y126965000D02*
G75*
G03*
X24095054Y126896702I2J-500010D01*
G01*
X24095053Y130033300D02*
G75*
G03*
X24347311Y129965001I252261J431710D01*
G01*
X26188475Y126896702D02*
G75*
G03*
X25936216Y126965001I-252261J-431710D01*
G01*
X25936217Y129965000D02*
G75*
G03*
X26188475Y130033299I-3J500009D01*
G01*
X26891248Y129384721D02*
G75*
G03*
X26188475Y130033298I-450515J216877D01*
G01*
X26891248Y129384721D02*
G75*
G03*
X26841763Y129167844I450505J-216876D01*
G01*
X26188475Y126896702D02*
G75*
G03*
X26891247Y127545282I252259J431700D01*
G01*
X26841764Y127762159D02*
G75*
G03*
X26891249Y127545281I499989J-2D01*
G01*
X23441765Y127762159D02*
X23441765Y129167843D01*
X24347312Y129965000D02*
X25936217Y129965000D01*
X25936216Y126965001D02*
X24347312Y126965001D01*
X26841763Y129167843D02*
X26841763Y127762159D01*
%TO.C,LED22*%
X26841775Y70812157D02*
G75*
G03*
X26891249Y70595279I500289J43D01*
G01*
X26188475Y69946700D02*
G75*
G03*
X26891248Y70595279I252259J431700D01*
G01*
X26891248Y72434719D02*
G75*
G03*
X26841763Y72217842I450866J-216959D01*
G01*
X26891244Y72434721D02*
G75*
G03*
X26188475Y73083296I-450510J216879D01*
G01*
X25936216Y73015000D02*
G75*
G03*
X26188474Y73083298I-2J500010D01*
G01*
X26188475Y69946700D02*
G75*
G03*
X25936217Y70014999I-252261J-431710D01*
G01*
X24095053Y73083298D02*
G75*
G03*
X24347312Y73014999I252261J431710D01*
G01*
X24347311Y70015000D02*
G75*
G03*
X24095053Y69946701I3J-500009D01*
G01*
X23392280Y70595279D02*
G75*
G03*
X24095053Y69946702I450515J-216877D01*
G01*
X23392280Y70595279D02*
G75*
G03*
X23441765Y70812156I-450505J216876D01*
G01*
X24095053Y73083298D02*
G75*
G03*
X23392281Y72434718I-252259J-431700D01*
G01*
X23441764Y72217841D02*
G75*
G03*
X23392279Y72434719I-499989J2D01*
G01*
X26841763Y72217841D02*
X26841763Y70812157D01*
X25936216Y70015000D02*
X24347311Y70015000D01*
X24347312Y73014999D02*
X25936216Y73014999D01*
X23441765Y70812157D02*
X23441765Y72217841D01*
%TO.C,LED3*%
X4441753Y126717843D02*
G75*
G03*
X4392279Y126934721I-500289J-43D01*
G01*
X5095053Y127583300D02*
G75*
G03*
X4392280Y126934721I-252259J-431700D01*
G01*
X4392280Y125095281D02*
G75*
G03*
X4441765Y125312158I-450866J216959D01*
G01*
X4392284Y125095279D02*
G75*
G03*
X5095053Y124446704I450510J-216879D01*
G01*
X5347312Y124515000D02*
G75*
G03*
X5095054Y124446702I2J-500010D01*
G01*
X5095053Y127583300D02*
G75*
G03*
X5347311Y127515001I252261J431710D01*
G01*
X7188475Y124446702D02*
G75*
G03*
X6936216Y124515001I-252261J-431710D01*
G01*
X6936217Y127515000D02*
G75*
G03*
X7188475Y127583299I-3J500009D01*
G01*
X7891248Y126934721D02*
G75*
G03*
X7188475Y127583298I-450515J216877D01*
G01*
X7891248Y126934721D02*
G75*
G03*
X7841763Y126717844I450505J-216876D01*
G01*
X7188475Y124446702D02*
G75*
G03*
X7891247Y125095282I252259J431700D01*
G01*
X7841764Y125312159D02*
G75*
G03*
X7891249Y125095281I499989J-2D01*
G01*
X4441765Y125312159D02*
X4441765Y126717843D01*
X5347312Y127515000D02*
X6936217Y127515000D01*
X6936216Y124515001D02*
X5347312Y124515001D01*
X7841763Y126717843D02*
X7841763Y125312159D01*
%TO.C,LED38*%
X163591763Y107975648D02*
X163591763Y106569964D01*
X162686216Y105772806D02*
X161097312Y105772806D01*
X161097312Y108772805D02*
X162686217Y108772805D01*
X160191765Y106569964D02*
X160191765Y107975648D01*
X163591764Y106569964D02*
G75*
G03*
X163641249Y106353086I499989J-2D01*
G01*
X162938475Y105704507D02*
G75*
G03*
X163641247Y106353087I252259J431700D01*
G01*
X163641248Y108192526D02*
G75*
G03*
X163591763Y107975649I450505J-216876D01*
G01*
X163641248Y108192526D02*
G75*
G03*
X162938475Y108841103I-450515J216877D01*
G01*
X162686217Y108772805D02*
G75*
G03*
X162938475Y108841104I-3J500009D01*
G01*
X162938475Y105704507D02*
G75*
G03*
X162686216Y105772806I-252261J-431710D01*
G01*
X160845053Y108841105D02*
G75*
G03*
X161097311Y108772806I252261J431710D01*
G01*
X161097312Y105772805D02*
G75*
G03*
X160845054Y105704507I2J-500010D01*
G01*
X160142284Y106353084D02*
G75*
G03*
X160845053Y105704509I450510J-216879D01*
G01*
X160142280Y106353086D02*
G75*
G03*
X160191765Y106569963I-450866J216959D01*
G01*
X160845053Y108841105D02*
G75*
G03*
X160142280Y108192526I-252259J-431700D01*
G01*
X160191753Y107975648D02*
G75*
G03*
X160142279Y108192526I-500289J-43D01*
G01*
%TO.C,LED44*%
X160191765Y87569962D02*
X160191765Y88975646D01*
X161097312Y89772804D02*
X162686216Y89772804D01*
X162686216Y86772805D02*
X161097311Y86772805D01*
X163591763Y88975646D02*
X163591763Y87569962D01*
X160191764Y88975646D02*
G75*
G03*
X160142279Y89192524I-499989J2D01*
G01*
X160845053Y89841103D02*
G75*
G03*
X160142281Y89192523I-252259J-431700D01*
G01*
X160142280Y87353084D02*
G75*
G03*
X160191765Y87569961I-450505J216876D01*
G01*
X160142280Y87353084D02*
G75*
G03*
X160845053Y86704507I450515J-216877D01*
G01*
X161097311Y86772805D02*
G75*
G03*
X160845053Y86704506I3J-500009D01*
G01*
X160845053Y89841103D02*
G75*
G03*
X161097312Y89772804I252261J431710D01*
G01*
X162938475Y86704505D02*
G75*
G03*
X162686217Y86772804I-252261J-431710D01*
G01*
X162686216Y89772805D02*
G75*
G03*
X162938474Y89841103I-2J500010D01*
G01*
X163641244Y89192526D02*
G75*
G03*
X162938475Y89841101I-450510J216879D01*
G01*
X163641248Y89192524D02*
G75*
G03*
X163591763Y88975647I450866J-216959D01*
G01*
X162938475Y86704505D02*
G75*
G03*
X163641248Y87353084I252259J431700D01*
G01*
X163591775Y87569962D02*
G75*
G03*
X163641249Y87353084I500289J43D01*
G01*
%TO.C,LED37*%
X144591763Y105725648D02*
X144591763Y104319964D01*
X143686216Y103522806D02*
X142097312Y103522806D01*
X142097312Y106522805D02*
X143686217Y106522805D01*
X141191765Y104319964D02*
X141191765Y105725648D01*
X144591764Y104319964D02*
G75*
G03*
X144641249Y104103086I499989J-2D01*
G01*
X143938475Y103454507D02*
G75*
G03*
X144641247Y104103087I252259J431700D01*
G01*
X144641248Y105942526D02*
G75*
G03*
X144591763Y105725649I450505J-216876D01*
G01*
X144641248Y105942526D02*
G75*
G03*
X143938475Y106591103I-450515J216877D01*
G01*
X143686217Y106522805D02*
G75*
G03*
X143938475Y106591104I-3J500009D01*
G01*
X143938475Y103454507D02*
G75*
G03*
X143686216Y103522806I-252261J-431710D01*
G01*
X141845053Y106591105D02*
G75*
G03*
X142097311Y106522806I252261J431710D01*
G01*
X142097312Y103522805D02*
G75*
G03*
X141845054Y103454507I2J-500010D01*
G01*
X141142284Y104103084D02*
G75*
G03*
X141845053Y103454509I450510J-216879D01*
G01*
X141142280Y104103086D02*
G75*
G03*
X141191765Y104319963I-450866J216959D01*
G01*
X141845053Y106591105D02*
G75*
G03*
X141142280Y105942526I-252259J-431700D01*
G01*
X141191753Y105725648D02*
G75*
G03*
X141142279Y105942526I-500289J-43D01*
G01*
%TO.C,LED15*%
X4471753Y88757843D02*
G75*
G03*
X4422279Y88974721I-500289J-43D01*
G01*
X5125053Y89623300D02*
G75*
G03*
X4422280Y88974721I-252259J-431700D01*
G01*
X4422280Y87135281D02*
G75*
G03*
X4471765Y87352158I-450866J216959D01*
G01*
X4422284Y87135279D02*
G75*
G03*
X5125053Y86486704I450510J-216879D01*
G01*
X5377312Y86555000D02*
G75*
G03*
X5125054Y86486702I2J-500010D01*
G01*
X5125053Y89623300D02*
G75*
G03*
X5377311Y89555001I252261J431710D01*
G01*
X7218475Y86486702D02*
G75*
G03*
X6966216Y86555001I-252261J-431710D01*
G01*
X6966217Y89555000D02*
G75*
G03*
X7218475Y89623299I-3J500009D01*
G01*
X7921248Y88974721D02*
G75*
G03*
X7218475Y89623298I-450515J216877D01*
G01*
X7921248Y88974721D02*
G75*
G03*
X7871763Y88757844I450505J-216876D01*
G01*
X7218475Y86486702D02*
G75*
G03*
X7921247Y87135282I252259J431700D01*
G01*
X7871764Y87352159D02*
G75*
G03*
X7921249Y87135281I499989J-2D01*
G01*
X4471765Y87352159D02*
X4471765Y88757843D01*
X5377312Y89555000D02*
X6966217Y89555000D01*
X6966216Y86555001D02*
X5377312Y86555001D01*
X7871763Y88757843D02*
X7871763Y87352159D01*
%TO.C,LED41*%
X220591763Y103225648D02*
X220591763Y101819964D01*
X219686216Y101022806D02*
X218097312Y101022806D01*
X218097312Y104022805D02*
X219686217Y104022805D01*
X217191765Y101819964D02*
X217191765Y103225648D01*
X220591764Y101819964D02*
G75*
G03*
X220641249Y101603086I499989J-2D01*
G01*
X219938475Y100954507D02*
G75*
G03*
X220641247Y101603087I252259J431700D01*
G01*
X220641248Y103442526D02*
G75*
G03*
X220591763Y103225649I450505J-216876D01*
G01*
X220641248Y103442526D02*
G75*
G03*
X219938475Y104091103I-450515J216877D01*
G01*
X219686217Y104022805D02*
G75*
G03*
X219938475Y104091104I-3J500009D01*
G01*
X219938475Y100954507D02*
G75*
G03*
X219686216Y101022806I-252261J-431710D01*
G01*
X217845053Y104091105D02*
G75*
G03*
X218097311Y104022806I252261J431710D01*
G01*
X218097312Y101022805D02*
G75*
G03*
X217845054Y100954507I2J-500010D01*
G01*
X217142284Y101603084D02*
G75*
G03*
X217845053Y100954509I450510J-216879D01*
G01*
X217142280Y101603086D02*
G75*
G03*
X217191765Y101819963I-450866J216959D01*
G01*
X217845053Y104091105D02*
G75*
G03*
X217142280Y103442526I-252259J-431700D01*
G01*
X217191753Y103225648D02*
G75*
G03*
X217142279Y103442526I-500289J-43D01*
G01*
%TO.C,LED34*%
X198191765Y125569962D02*
X198191765Y126975646D01*
X199097312Y127772804D02*
X200686216Y127772804D01*
X200686216Y124772805D02*
X199097311Y124772805D01*
X201591763Y126975646D02*
X201591763Y125569962D01*
X198191764Y126975646D02*
G75*
G03*
X198142279Y127192524I-499989J2D01*
G01*
X198845053Y127841103D02*
G75*
G03*
X198142281Y127192523I-252259J-431700D01*
G01*
X198142280Y125353084D02*
G75*
G03*
X198191765Y125569961I-450505J216876D01*
G01*
X198142280Y125353084D02*
G75*
G03*
X198845053Y124704507I450515J-216877D01*
G01*
X199097311Y124772805D02*
G75*
G03*
X198845053Y124704506I3J-500009D01*
G01*
X198845053Y127841103D02*
G75*
G03*
X199097312Y127772804I252261J431710D01*
G01*
X200938475Y124704505D02*
G75*
G03*
X200686217Y124772804I-252261J-431710D01*
G01*
X200686216Y127772805D02*
G75*
G03*
X200938474Y127841103I-2J500010D01*
G01*
X201641244Y127192526D02*
G75*
G03*
X200938475Y127841101I-450510J216879D01*
G01*
X201641248Y127192524D02*
G75*
G03*
X201591763Y126975647I450866J-216959D01*
G01*
X200938475Y124704505D02*
G75*
G03*
X201641248Y125353084I252259J431700D01*
G01*
X201591775Y125569962D02*
G75*
G03*
X201641249Y125353084I500289J43D01*
G01*
%TO.C,LED30*%
X86020050Y45343091D02*
G75*
G03*
X85804350Y45397470I-227088J-445780D01*
G01*
X85545515Y46318095D02*
G75*
G03*
X85804350Y45397471I270124J-420752D01*
G01*
X87443302Y44562382D02*
G75*
G03*
X87272530Y44704933I-397999J-303227D01*
G01*
X87443308Y44562386D02*
G75*
G03*
X88340241Y44894110I397767J302946D01*
G01*
X88393913Y45149880D02*
G75*
G03*
X88340244Y44894110I445513J-226998D01*
G01*
X85545515Y46318095D02*
G75*
G03*
X85720892Y46511851I-270133J420758D01*
G01*
X89290638Y46759362D02*
G75*
G03*
X89115261Y46565605I270132J-420758D01*
G01*
X86442241Y47927577D02*
G75*
G03*
X86495908Y48183347I-445512J226996D01*
G01*
X87392847Y48515073D02*
G75*
G03*
X86495910Y48183347I-397768J-302950D01*
G01*
X87392849Y48515074D02*
G75*
G03*
X87563622Y48372523I397763J302944D01*
G01*
X89290637Y46759364D02*
G75*
G03*
X89031801Y47679986I-270123J420751D01*
G01*
X88816096Y47734356D02*
G75*
G03*
X89031802Y47679986I226993J445493D01*
G01*
X87272530Y44704935D02*
X86020056Y45343102D01*
X85720894Y46511852D02*
X86442241Y47927577D01*
X89115260Y46565605D02*
X88393912Y45149881D01*
X87563623Y48372522D02*
X88816096Y47734355D01*
%TO.C,LED42*%
X239591763Y103225648D02*
X239591763Y101819964D01*
X238686216Y101022806D02*
X237097312Y101022806D01*
X237097312Y104022805D02*
X238686217Y104022805D01*
X236191765Y101819964D02*
X236191765Y103225648D01*
X239591764Y101819964D02*
G75*
G03*
X239641249Y101603086I499989J-2D01*
G01*
X238938475Y100954507D02*
G75*
G03*
X239641247Y101603087I252259J431700D01*
G01*
X239641248Y103442526D02*
G75*
G03*
X239591763Y103225649I450505J-216876D01*
G01*
X239641248Y103442526D02*
G75*
G03*
X238938475Y104091103I-450515J216877D01*
G01*
X238686217Y104022805D02*
G75*
G03*
X238938475Y104091104I-3J500009D01*
G01*
X238938475Y100954507D02*
G75*
G03*
X238686216Y101022806I-252261J-431710D01*
G01*
X236845053Y104091105D02*
G75*
G03*
X237097311Y104022806I252261J431710D01*
G01*
X237097312Y101022805D02*
G75*
G03*
X236845054Y100954507I2J-500010D01*
G01*
X236142284Y101603084D02*
G75*
G03*
X236845053Y100954509I450510J-216879D01*
G01*
X236142280Y101603086D02*
G75*
G03*
X236191765Y101819963I-450866J216959D01*
G01*
X236845053Y104091105D02*
G75*
G03*
X236142280Y103442526I-252259J-431700D01*
G01*
X236191753Y103225648D02*
G75*
G03*
X236142279Y103442526I-500289J-43D01*
G01*
%TO.C,LED39*%
X182591763Y110425648D02*
X182591763Y109019964D01*
X181686216Y108222806D02*
X180097312Y108222806D01*
X180097312Y111222805D02*
X181686217Y111222805D01*
X179191765Y109019964D02*
X179191765Y110425648D01*
X182591764Y109019964D02*
G75*
G03*
X182641249Y108803086I499989J-2D01*
G01*
X181938475Y108154507D02*
G75*
G03*
X182641247Y108803087I252259J431700D01*
G01*
X182641248Y110642526D02*
G75*
G03*
X182591763Y110425649I450505J-216876D01*
G01*
X182641248Y110642526D02*
G75*
G03*
X181938475Y111291103I-450515J216877D01*
G01*
X181686217Y111222805D02*
G75*
G03*
X181938475Y111291104I-3J500009D01*
G01*
X181938475Y108154507D02*
G75*
G03*
X181686216Y108222806I-252261J-431710D01*
G01*
X179845053Y111291105D02*
G75*
G03*
X180097311Y111222806I252261J431710D01*
G01*
X180097312Y108222805D02*
G75*
G03*
X179845054Y108154507I2J-500010D01*
G01*
X179142284Y108803084D02*
G75*
G03*
X179845053Y108154509I450510J-216879D01*
G01*
X179142280Y108803086D02*
G75*
G03*
X179191765Y109019963I-450866J216959D01*
G01*
X179845053Y111291105D02*
G75*
G03*
X179142280Y110642526I-252259J-431700D01*
G01*
X179191753Y110425648D02*
G75*
G03*
X179142279Y110642526I-500289J-43D01*
G01*
%TO.C,LED26*%
X-4185883Y44918820D02*
G75*
G03*
X-4293219Y45113659I-480897J-137940D01*
G01*
X-3796443Y45930822D02*
G75*
G03*
X-4293218Y45113659I-123495J-484507D01*
G01*
X-3786200Y43345476D02*
G75*
G03*
X-3798413Y43567592I-493315J84268D01*
G01*
X-3786197Y43345475D02*
G75*
G03*
X-2931880Y42915734I492838J-84300D01*
G01*
X-2708219Y43050917D02*
G75*
G03*
X-2931879Y42915733I137824J-480640D01*
G01*
X-3796443Y45930825D02*
G75*
G03*
X-3535132Y45934704I123493J484518D01*
G01*
X-919553Y43492757D02*
G75*
G03*
X-1180866Y43488878I-123494J-484518D01*
G01*
X-2007777Y46372663D02*
G75*
G03*
X-1784117Y46507848I-137824J480639D01*
G01*
X-929796Y46078106D02*
G75*
G03*
X-1784117Y46507848I-492842J84297D01*
G01*
X-929795Y46078106D02*
G75*
G03*
X-917584Y45855990I492823J-84299D01*
G01*
X-919553Y43492760D02*
G75*
G03*
X-422778Y44309923I123495J484507D01*
G01*
X-530125Y44504759D02*
G75*
G03*
X-422777Y44309922I480622J137814D01*
G01*
X-3798413Y43567593D02*
X-4185872Y44918823D01*
X-3535130Y45934702D02*
X-2007777Y46372663D01*
X-1180866Y43488879D02*
X-2708219Y43050918D01*
X-917584Y45855989D02*
X-530125Y44504759D01*
%TO.C,LED48*%
X236191765Y82819962D02*
X236191765Y84225646D01*
X237097312Y85022804D02*
X238686216Y85022804D01*
X238686216Y82022805D02*
X237097311Y82022805D01*
X239591763Y84225646D02*
X239591763Y82819962D01*
X236191764Y84225646D02*
G75*
G03*
X236142279Y84442524I-499989J2D01*
G01*
X236845053Y85091103D02*
G75*
G03*
X236142281Y84442523I-252259J-431700D01*
G01*
X236142280Y82603084D02*
G75*
G03*
X236191765Y82819961I-450505J216876D01*
G01*
X236142280Y82603084D02*
G75*
G03*
X236845053Y81954507I450515J-216877D01*
G01*
X237097311Y82022805D02*
G75*
G03*
X236845053Y81954506I3J-500009D01*
G01*
X236845053Y85091103D02*
G75*
G03*
X237097312Y85022804I252261J431710D01*
G01*
X238938475Y81954505D02*
G75*
G03*
X238686217Y82022804I-252261J-431710D01*
G01*
X238686216Y85022805D02*
G75*
G03*
X238938474Y85091103I-2J500010D01*
G01*
X239641244Y84442526D02*
G75*
G03*
X238938475Y85091101I-450510J216879D01*
G01*
X239641248Y84442524D02*
G75*
G03*
X239591763Y84225647I450866J-216959D01*
G01*
X238938475Y81954505D02*
G75*
G03*
X239641248Y82603084I252259J431700D01*
G01*
X239591775Y82819962D02*
G75*
G03*
X239641249Y82603084I500289J43D01*
G01*
%TO.C,LED31*%
X141191765Y123319962D02*
X141191765Y124725646D01*
X142097312Y125522804D02*
X143686216Y125522804D01*
X143686216Y122522805D02*
X142097311Y122522805D01*
X144591763Y124725646D02*
X144591763Y123319962D01*
X141191764Y124725646D02*
G75*
G03*
X141142279Y124942524I-499989J2D01*
G01*
X141845053Y125591103D02*
G75*
G03*
X141142281Y124942523I-252259J-431700D01*
G01*
X141142280Y123103084D02*
G75*
G03*
X141191765Y123319961I-450505J216876D01*
G01*
X141142280Y123103084D02*
G75*
G03*
X141845053Y122454507I450515J-216877D01*
G01*
X142097311Y122522805D02*
G75*
G03*
X141845053Y122454506I3J-500009D01*
G01*
X141845053Y125591103D02*
G75*
G03*
X142097312Y125522804I252261J431710D01*
G01*
X143938475Y122454505D02*
G75*
G03*
X143686217Y122522804I-252261J-431710D01*
G01*
X143686216Y125522805D02*
G75*
G03*
X143938474Y125591103I-2J500010D01*
G01*
X144641244Y124942526D02*
G75*
G03*
X143938475Y125591101I-450510J216879D01*
G01*
X144641248Y124942524D02*
G75*
G03*
X144591763Y124725647I450866J-216959D01*
G01*
X143938475Y122454505D02*
G75*
G03*
X144641248Y123103084I252259J431700D01*
G01*
X144591775Y123319962D02*
G75*
G03*
X144641249Y123103084I500289J43D01*
G01*
%TO.C,LED50*%
X163591763Y69975648D02*
X163591763Y68569964D01*
X162686216Y67772806D02*
X161097312Y67772806D01*
X161097312Y70772805D02*
X162686217Y70772805D01*
X160191765Y68569964D02*
X160191765Y69975648D01*
X163591764Y68569964D02*
G75*
G03*
X163641249Y68353086I499989J-2D01*
G01*
X162938475Y67704507D02*
G75*
G03*
X163641247Y68353087I252259J431700D01*
G01*
X163641248Y70192526D02*
G75*
G03*
X163591763Y69975649I450505J-216876D01*
G01*
X163641248Y70192526D02*
G75*
G03*
X162938475Y70841103I-450515J216877D01*
G01*
X162686217Y70772805D02*
G75*
G03*
X162938475Y70841104I-3J500009D01*
G01*
X162938475Y67704507D02*
G75*
G03*
X162686216Y67772806I-252261J-431710D01*
G01*
X160845053Y70841105D02*
G75*
G03*
X161097311Y70772806I252261J431710D01*
G01*
X161097312Y67772805D02*
G75*
G03*
X160845054Y67704507I2J-500010D01*
G01*
X160142284Y68353084D02*
G75*
G03*
X160845053Y67704509I450510J-216879D01*
G01*
X160142280Y68353086D02*
G75*
G03*
X160191765Y68569963I-450866J216959D01*
G01*
X160845053Y70841105D02*
G75*
G03*
X160142280Y70192526I-252259J-431700D01*
G01*
X160191753Y69975648D02*
G75*
G03*
X160142279Y70192526I-500289J-43D01*
G01*
%TO.C,LED5*%
X42491753Y126727843D02*
G75*
G03*
X42442279Y126944721I-500289J-43D01*
G01*
X43145053Y127593300D02*
G75*
G03*
X42442280Y126944721I-252259J-431700D01*
G01*
X42442280Y125105281D02*
G75*
G03*
X42491765Y125322158I-450866J216959D01*
G01*
X42442284Y125105279D02*
G75*
G03*
X43145053Y124456704I450510J-216879D01*
G01*
X43397312Y124525000D02*
G75*
G03*
X43145054Y124456702I2J-500010D01*
G01*
X43145053Y127593300D02*
G75*
G03*
X43397311Y127525001I252261J431710D01*
G01*
X45238475Y124456702D02*
G75*
G03*
X44986216Y124525001I-252261J-431710D01*
G01*
X44986217Y127525000D02*
G75*
G03*
X45238475Y127593299I-3J500009D01*
G01*
X45941248Y126944721D02*
G75*
G03*
X45238475Y127593298I-450515J216877D01*
G01*
X45941248Y126944721D02*
G75*
G03*
X45891763Y126727844I450505J-216876D01*
G01*
X45238475Y124456702D02*
G75*
G03*
X45941247Y125105282I252259J431700D01*
G01*
X45891764Y125322159D02*
G75*
G03*
X45941249Y125105281I499989J-2D01*
G01*
X42491765Y125322159D02*
X42491765Y126727843D01*
X43397312Y127525000D02*
X44986217Y127525000D01*
X44986216Y124525001D02*
X43397312Y124525001D01*
X45891763Y126727843D02*
X45891763Y125322159D01*
%TO.C,LED45*%
X179191765Y90019962D02*
X179191765Y91425646D01*
X180097312Y92222804D02*
X181686216Y92222804D01*
X181686216Y89222805D02*
X180097311Y89222805D01*
X182591763Y91425646D02*
X182591763Y90019962D01*
X179191764Y91425646D02*
G75*
G03*
X179142279Y91642524I-499989J2D01*
G01*
X179845053Y92291103D02*
G75*
G03*
X179142281Y91642523I-252259J-431700D01*
G01*
X179142280Y89803084D02*
G75*
G03*
X179191765Y90019961I-450505J216876D01*
G01*
X179142280Y89803084D02*
G75*
G03*
X179845053Y89154507I450515J-216877D01*
G01*
X180097311Y89222805D02*
G75*
G03*
X179845053Y89154506I3J-500009D01*
G01*
X179845053Y92291103D02*
G75*
G03*
X180097312Y92222804I252261J431710D01*
G01*
X181938475Y89154505D02*
G75*
G03*
X181686217Y89222804I-252261J-431710D01*
G01*
X181686216Y92222805D02*
G75*
G03*
X181938474Y92291103I-2J500010D01*
G01*
X182641244Y91642526D02*
G75*
G03*
X181938475Y92291101I-450510J216879D01*
G01*
X182641248Y91642524D02*
G75*
G03*
X182591763Y91425647I450866J-216959D01*
G01*
X181938475Y89154505D02*
G75*
G03*
X182641248Y89803084I252259J431700D01*
G01*
X182591775Y90019962D02*
G75*
G03*
X182641249Y89803084I500289J43D01*
G01*
%TO.C,LED32*%
X160191765Y125569962D02*
X160191765Y126975646D01*
X161097312Y127772804D02*
X162686216Y127772804D01*
X162686216Y124772805D02*
X161097311Y124772805D01*
X163591763Y126975646D02*
X163591763Y125569962D01*
X160191764Y126975646D02*
G75*
G03*
X160142279Y127192524I-499989J2D01*
G01*
X160845053Y127841103D02*
G75*
G03*
X160142281Y127192523I-252259J-431700D01*
G01*
X160142280Y125353084D02*
G75*
G03*
X160191765Y125569961I-450505J216876D01*
G01*
X160142280Y125353084D02*
G75*
G03*
X160845053Y124704507I450515J-216877D01*
G01*
X161097311Y124772805D02*
G75*
G03*
X160845053Y124704506I3J-500009D01*
G01*
X160845053Y127841103D02*
G75*
G03*
X161097312Y127772804I252261J431710D01*
G01*
X162938475Y124704505D02*
G75*
G03*
X162686217Y124772804I-252261J-431710D01*
G01*
X162686216Y127772805D02*
G75*
G03*
X162938474Y127841103I-2J500010D01*
G01*
X163641244Y127192526D02*
G75*
G03*
X162938475Y127841101I-450510J216879D01*
G01*
X163641248Y127192524D02*
G75*
G03*
X163591763Y126975647I450866J-216959D01*
G01*
X162938475Y124704505D02*
G75*
G03*
X163641248Y125353084I252259J431700D01*
G01*
X163591775Y125569962D02*
G75*
G03*
X163641249Y125353084I500289J43D01*
G01*
%TO.C,LED27*%
X15379716Y49136334D02*
G75*
G03*
X15311529Y49348075I-498381J-43646D01*
G01*
X15955101Y50055436D02*
G75*
G03*
X15311529Y49348075I-213674J-452043D01*
G01*
X15471849Y47515633D02*
G75*
G03*
X15502241Y47735999I-468173J176849D01*
G01*
X15471852Y47515632D02*
G75*
G03*
X16228473Y46930777I467697J-176789D01*
G01*
X16473820Y47020797D02*
G75*
G03*
X16228475Y46930773I43580J-498106D01*
G01*
X15955101Y50055437D02*
G75*
G03*
X16212351Y50009383I213675J452052D01*
G01*
X18313929Y47113227D02*
G75*
G03*
X18056677Y47159280I-213675J-452052D01*
G01*
X17795211Y50147865D02*
G75*
G03*
X18040556Y50237890I-43581J498105D01*
G01*
X18797182Y49653030D02*
G75*
G03*
X18040557Y50237889I-467702J176787D01*
G01*
X18797184Y49653030D02*
G75*
G03*
X18766789Y49432665I467682J-176786D01*
G01*
X18313929Y47113228D02*
G75*
G03*
X18957500Y47820590I213674J452043D01*
G01*
X18889301Y48032329D02*
G75*
G03*
X18957500Y47820589I498088J43575D01*
G01*
X15502242Y47736000D02*
X15379728Y49136335D01*
X16212353Y50009382D02*
X17795211Y50147864D01*
X18056677Y47159281D02*
X16473820Y47020799D01*
X18766788Y49432664D02*
X18889302Y48032329D01*
%TO.C,LED49*%
X144591763Y67675648D02*
X144591763Y66269964D01*
X143686216Y65472806D02*
X142097312Y65472806D01*
X142097312Y68472805D02*
X143686217Y68472805D01*
X141191765Y66269964D02*
X141191765Y67675648D01*
X144591764Y66269964D02*
G75*
G03*
X144641249Y66053086I499989J-2D01*
G01*
X143938475Y65404507D02*
G75*
G03*
X144641247Y66053087I252259J431700D01*
G01*
X144641248Y67892526D02*
G75*
G03*
X144591763Y67675649I450505J-216876D01*
G01*
X144641248Y67892526D02*
G75*
G03*
X143938475Y68541103I-450515J216877D01*
G01*
X143686217Y68472805D02*
G75*
G03*
X143938475Y68541104I-3J500009D01*
G01*
X143938475Y65404507D02*
G75*
G03*
X143686216Y65472806I-252261J-431710D01*
G01*
X141845053Y68541105D02*
G75*
G03*
X142097311Y68472806I252261J431710D01*
G01*
X142097312Y65472805D02*
G75*
G03*
X141845054Y65404507I2J-500010D01*
G01*
X141142284Y66053084D02*
G75*
G03*
X141845053Y65404509I450510J-216879D01*
G01*
X141142280Y66053086D02*
G75*
G03*
X141191765Y66269963I-450866J216959D01*
G01*
X141845053Y68541105D02*
G75*
G03*
X141142280Y67892526I-252259J-431700D01*
G01*
X141191753Y67675648D02*
G75*
G03*
X141142279Y67892526I-500289J-43D01*
G01*
%TO.C,LED17*%
X42471753Y88717843D02*
G75*
G03*
X42422279Y88934721I-500289J-43D01*
G01*
X43125053Y89583300D02*
G75*
G03*
X42422280Y88934721I-252259J-431700D01*
G01*
X42422280Y87095281D02*
G75*
G03*
X42471765Y87312158I-450866J216959D01*
G01*
X42422284Y87095279D02*
G75*
G03*
X43125053Y86446704I450510J-216879D01*
G01*
X43377312Y86515000D02*
G75*
G03*
X43125054Y86446702I2J-500010D01*
G01*
X43125053Y89583300D02*
G75*
G03*
X43377311Y89515001I252261J431710D01*
G01*
X45218475Y86446702D02*
G75*
G03*
X44966216Y86515001I-252261J-431710D01*
G01*
X44966217Y89515000D02*
G75*
G03*
X45218475Y89583299I-3J500009D01*
G01*
X45921248Y88934721D02*
G75*
G03*
X45218475Y89583298I-450515J216877D01*
G01*
X45921248Y88934721D02*
G75*
G03*
X45871763Y88717844I450505J-216876D01*
G01*
X45218475Y86446702D02*
G75*
G03*
X45921247Y87095282I252259J431700D01*
G01*
X45871764Y87312159D02*
G75*
G03*
X45921249Y87095281I499989J-2D01*
G01*
X42471765Y87312159D02*
X42471765Y88717843D01*
X43377312Y89515000D02*
X44966217Y89515000D01*
X44966216Y86515001D02*
X43377312Y86515001D01*
X45871763Y88717843D02*
X45871763Y87312159D01*
%TD*%
M02*
