M48
; DRILL file {KiCad 7.0.8} date Wed Oct  2 10:44:02 2024
; FORMAT={-:-/ absolute / inch / decimal}
; #@! TF.CreationDate,2024-10-02T10:44:02+02:00
; #@! TF.GenerationSoftware,Kicad,Pcbnew,7.0.8
; #@! TF.FileFunction,NonPlated,1,2,NPTH
FMAT,2
INCH
; #@! TA.AperFunction,NonPlated,NPTH,ComponentDrill
T1C0.0256
; #@! TA.AperFunction,NonPlated,NPTH,ComponentDrill
T2C0.0689
; #@! TA.AperFunction,NonPlated,NPTH,ComponentDrill
T3C0.1570
%
G90
G05
T1
X3.2559Y5.1664
X3.5512Y5.1664
X3.5871Y3.787
X3.5871Y3.4917
X4.5264Y3.7871
X4.5264Y3.4918
X4.5532Y5.1715
X4.8485Y5.1715
T2
X-1.4543Y4.9742
X-1.4543Y4.2262
X-1.4531Y3.4774
X-1.4523Y2.7301
X-1.3598Y1.9821
X-1.0543Y4.9742
X-1.0543Y4.2262
X-1.0531Y3.4774
X-1.0523Y2.7301
X-0.9598Y1.9821
X-0.7062Y4.9742
X-0.7062Y2.7301
X-0.705Y3.4785
X-0.7043Y4.2262
X-0.3402Y1.8974
X-0.3062Y4.9742
X-0.3062Y2.7301
X-0.305Y3.4785
X-0.3043Y4.2262
X0.0418Y5.1612
X0.0418Y4.4124
X0.043Y3.6667
X0.0438Y2.9152
X0.0443Y2.0077
X0.4418Y5.1612
X0.4418Y4.4124
X0.443Y3.6667
X0.4438Y2.9152
X0.4579Y2.0946
X0.7898Y5.2577
X0.7898Y4.5096
X0.7898Y3.0156
X0.791Y3.7624
X0.8564Y2.1294
X1.1898Y5.2577
X1.1898Y4.5096
X1.1898Y3.0156
X1.191Y3.7624
X1.2665Y2.1323
X1.539Y3.6652
X1.5398Y5.1616
X1.5398Y2.9171
X1.541Y4.414
X1.6659Y2.1114
X1.939Y3.6652
X1.9398Y5.1616
X1.9398Y2.9171
X1.941Y4.414
X2.0737Y2.0532
X2.2859Y2.8266
X2.2871Y4.3226
X2.2871Y3.5758
X2.2879Y5.0726
X2.465Y1.97
X2.6859Y2.8266
X2.6871Y4.3226
X2.6871Y3.5758
X2.6879Y5.0726
X3.1727Y1.7448
X3.3543Y2.1012
X4.7573Y2.1114
X4.9389Y1.755
X5.4257Y5.0828
X5.4257Y4.3348
X5.4257Y3.5867
X5.4257Y2.8367
X5.6485Y1.9802
X5.8257Y5.0828
X5.8257Y4.3348
X5.8257Y3.5867
X5.8257Y2.8367
X6.0398Y2.0633
X6.1737Y5.1714
X6.1737Y4.4233
X6.1737Y3.6753
X6.1737Y2.9273
X6.4476Y2.1215
X6.5737Y5.1714
X6.5737Y4.4233
X6.5737Y3.6753
X6.5737Y2.9273
X6.847Y2.1425
X6.9217Y5.2678
X6.9217Y4.5198
X6.9217Y3.7718
X6.9217Y3.0237
X7.2571Y2.1416
X7.3217Y5.2678
X7.3217Y4.5198
X7.3217Y3.7718
X7.3217Y3.0237
X7.6556Y2.1067
X7.6698Y5.1714
X7.6698Y4.4233
X7.6698Y3.6753
X7.6698Y2.9273
X8.0673Y2.0159
X8.0698Y5.1714
X8.0698Y4.4233
X8.0698Y3.6753
X8.0698Y2.9273
X8.4178Y4.9844
X8.4178Y4.2363
X8.4178Y3.4883
X8.4178Y2.7403
X8.4518Y1.9056
X8.8178Y4.9844
X8.8178Y4.2363
X8.8178Y3.4883
X8.8178Y2.7403
X9.0733Y1.9922
X9.1658Y4.9844
X9.1658Y4.2363
X9.1658Y3.4883
X9.1658Y2.7403
X9.4733Y1.9922
X9.5658Y4.9844
X9.5658Y4.2363
X9.5658Y3.4883
X9.5658Y2.7403
T3
X-1.2543Y4.9742
X-1.2543Y4.2262
X-1.2531Y3.4774
X-1.2523Y2.7301
X-1.1598Y1.9821
X-0.5062Y4.9742
X-0.5062Y2.7301
X-0.505Y3.4785
X-0.5043Y4.2262
X-0.148Y1.9526
X0.2418Y5.1612
X0.2418Y4.4124
X0.243Y3.6667
X0.2438Y2.9152
X0.6572Y2.112
X0.9898Y5.2577
X0.9898Y4.5096
X0.9898Y3.0156
X0.991Y3.7624
X1.4662Y2.1219
X1.739Y3.6652
X1.7398Y5.1616
X1.7398Y2.9171
X1.741Y4.414
X2.2694Y2.0116
X2.4859Y2.8266
X2.4871Y4.3226
X2.4871Y3.5758
X2.4879Y5.0726
X3.2635Y1.923
X3.3422Y1.3578
X3.7678Y2.1931
X4.3457Y2.2033
X4.7713Y1.368
X4.8481Y1.9332
X5.6257Y5.0828
X5.6257Y4.3348
X5.6257Y3.5867
X5.6257Y2.8367
X5.8442Y2.0218
X6.3737Y5.1714
X6.3737Y4.4233
X6.3737Y3.6753
X6.3737Y2.9273
X6.6473Y2.132
X7.1217Y5.2678
X7.1217Y4.5198
X7.1217Y3.7718
X7.1217Y3.0237
X7.4564Y2.1241
X7.8698Y5.1714
X7.8698Y4.4233
X7.8698Y3.6753
X7.8698Y2.9273
X8.2595Y1.9607
X8.6178Y4.9844
X8.6178Y4.2363
X8.6178Y3.4883
X8.6178Y2.7403
X9.2733Y1.9922
X9.3658Y4.9844
X9.3658Y4.2363
X9.3658Y3.4883
X9.3658Y2.7403
T0
M30
