%TF.GenerationSoftware,KiCad,Pcbnew,7.0.8*%
%TF.CreationDate,2024-10-02T10:44:02+02:00*%
%TF.ProjectId,chastity,63686173-7469-4747-992e-6b696361645f,rev?*%
%TF.SameCoordinates,Original*%
%TF.FileFunction,Soldermask,Bot*%
%TF.FilePolarity,Negative*%
%FSLAX46Y46*%
G04 Gerber Fmt 4.6, Leading zero omitted, Abs format (unit mm)*
G04 Created by KiCad (PCBNEW 7.0.8) date 2024-10-02 10:44:02*
%MOMM*%
%LPD*%
G01*
G04 APERTURE LIST*
G04 Aperture macros list*
%AMRoundRect*
0 Rectangle with rounded corners*
0 $1 Rounding radius*
0 $2 $3 $4 $5 $6 $7 $8 $9 X,Y pos of 4 corners*
0 Add a 4 corners polygon primitive as box body*
4,1,4,$2,$3,$4,$5,$6,$7,$8,$9,$2,$3,0*
0 Add four circle primitives for the rounded corners*
1,1,$1+$1,$2,$3*
1,1,$1+$1,$4,$5*
1,1,$1+$1,$6,$7*
1,1,$1+$1,$8,$9*
0 Add four rect primitives between the rounded corners*
20,1,$1+$1,$2,$3,$4,$5,0*
20,1,$1+$1,$4,$5,$6,$7,0*
20,1,$1+$1,$6,$7,$8,$9,0*
20,1,$1+$1,$8,$9,$2,$3,0*%
%AMFreePoly0*
4,1,18,-0.410000,0.593000,-0.403758,0.624380,-0.385983,0.650983,-0.359380,0.668758,-0.328000,0.675000,0.328000,0.675000,0.359380,0.668758,0.385983,0.650983,0.403758,0.624380,0.410000,0.593000,0.410000,-0.593000,0.403758,-0.624380,0.385983,-0.650983,0.359380,-0.668758,0.328000,-0.675000,0.000000,-0.675000,-0.410000,-0.265000,-0.410000,0.593000,-0.410000,0.593000,$1*%
G04 Aperture macros list end*
%ADD10C,0.650000*%
%ADD11O,2.250000X1.200000*%
%ADD12O,1.200000X2.250000*%
%ADD13C,2.000000*%
%ADD14RoundRect,0.550000X0.550000X-1.150000X0.550000X1.150000X-0.550000X1.150000X-0.550000X-1.150000X0*%
%ADD15RoundRect,0.500000X0.500000X-0.500000X0.500000X0.500000X-0.500000X0.500000X-0.500000X-0.500000X0*%
%ADD16RoundRect,0.500000X-0.500000X0.500000X-0.500000X-0.500000X0.500000X-0.500000X0.500000X0.500000X0*%
%ADD17RoundRect,0.550000X-0.550000X1.150000X-0.550000X-1.150000X0.550000X-1.150000X0.550000X1.150000X0*%
%ADD18C,4.000000*%
%ADD19C,3.987800*%
%ADD20RoundRect,0.225000X0.320025X-0.298050X0.413585X0.142116X-0.320025X0.298050X-0.413585X-0.142116X0*%
%ADD21RoundRect,0.225000X0.375000X-0.225000X0.375000X0.225000X-0.375000X0.225000X-0.375000X-0.225000X0*%
%ADD22FreePoly0,270.000000*%
%ADD23RoundRect,0.082000X-0.593000X0.328000X-0.593000X-0.328000X0.593000X-0.328000X0.593000X0.328000X0*%
%ADD24C,1.750000*%
%ADD25C,3.300000*%
%ADD26RoundRect,0.250000X1.025000X1.000000X-1.025000X1.000000X-1.025000X-1.000000X1.025000X-1.000000X0*%
%ADD27RoundRect,0.225000X0.386262X-0.205066X0.362710X0.244318X-0.386262X0.205066X-0.362710X-0.244318X0*%
%ADD28RoundRect,0.082000X-0.609354X0.296515X-0.575021X-0.358586X0.609354X-0.296515X0.575021X0.358586X0*%
%ADD29FreePoly0,273.000000*%
%ADD30R,1.700000X1.700000*%
%ADD31O,1.700000X1.700000*%
%ADD32FreePoly0,90.000000*%
%ADD33RoundRect,0.082000X0.593000X-0.328000X0.593000X0.328000X-0.593000X0.328000X-0.593000X-0.328000X0*%
%ADD34FreePoly0,78.000000*%
%ADD35RoundRect,0.082000X0.511846X-0.444124X0.648237X0.197541X-0.511846X0.444124X-0.648237X-0.197541X0*%
%ADD36RoundRect,0.250000X1.108255X0.906860X-0.933944X1.085529X-1.108255X-0.906860X0.933944X-1.085529X0*%
%ADD37RoundRect,0.082000X0.023034X0.677276X-0.561467X0.379458X-0.023034X-0.677276X0.561467X-0.379458X0*%
%ADD38FreePoly0,207.000000*%
%ADD39RoundRect,0.250000X1.356347X-0.459291X0.425666X1.367272X-1.356347X0.459291X-0.425666X-1.367272X0*%
%ADD40RoundRect,0.225000X-0.030230X-0.436275X0.370723X-0.231980X0.030230X0.436275X-0.370723X0.231980X0*%
%ADD41RoundRect,0.250000X1.210513X0.765038X-0.794690X1.191257X-1.210513X-0.765038X0.794690X-1.191257X0*%
%ADD42RoundRect,0.082000X-0.648237X0.197541X-0.511846X-0.444124X0.648237X-0.197541X0.511846X0.444124X0*%
%ADD43FreePoly0,282.000000*%
%ADD44RoundRect,0.225000X0.362710X-0.244318X0.386262X0.205066X-0.362710X0.244318X-0.386262X-0.205066X0*%
%ADD45RoundRect,0.225000X0.370723X0.231980X-0.030230X0.436275X-0.370723X-0.231980X0.030230X-0.436275X0*%
%ADD46FreePoly0,87.000000*%
%ADD47RoundRect,0.082000X0.575021X-0.358586X0.609354X0.296515X-0.575021X0.358586X-0.609354X-0.296515X0*%
%ADD48RoundRect,0.250000X1.260931X0.678733X-0.709656X1.243790X-1.260931X-0.678733X0.709656X-1.243790X0*%
%ADD49RoundRect,0.082000X-0.562156X0.378435X-0.619331X-0.275069X0.562156X-0.378435X0.619331X0.275069X0*%
%ADD50FreePoly0,265.000000*%
%ADD51RoundRect,0.225000X0.298455X-0.319648X0.422492X0.112920X-0.298455X0.319648X-0.422492X-0.112920X0*%
%ADD52RoundRect,0.150000X0.150000X-0.512500X0.150000X0.512500X-0.150000X0.512500X-0.150000X-0.512500X0*%
%ADD53RoundRect,0.250000X1.075931X0.944985X-0.971259X1.052274X-1.075931X-0.944985X0.971259X-1.052274X0*%
%ADD54RoundRect,0.225000X0.225000X0.375000X-0.225000X0.375000X-0.225000X-0.375000X0.225000X-0.375000X0*%
%ADD55RoundRect,0.082000X-0.479619X0.478747X-0.660437X-0.151841X0.479619X-0.478747X0.660437X0.151841X0*%
%ADD56FreePoly0,254.000000*%
%ADD57RoundRect,0.225000X0.393183X-0.191460X0.353963X0.256827X-0.393183X0.191460X-0.353963X-0.256827X0*%
%ADD58RoundRect,0.225000X0.353963X-0.256827X0.393183X0.191460X-0.353963X0.256827X-0.393183X-0.191460X0*%
%ADD59RoundRect,0.250000X0.971259X1.052274X-1.075931X0.944985X-0.971259X-1.052274X1.075931X-0.944985X0*%
%ADD60RoundRect,0.250000X0.709656X1.243790X-1.260931X0.678733X-0.709656X-1.243790X1.260931X-0.678733X0*%
%ADD61FreePoly0,153.000000*%
%ADD62RoundRect,0.082000X0.561467X0.379458X-0.023034X0.677276X-0.561467X-0.379458X0.023034X-0.677276X0*%
%ADD63RoundRect,0.225000X0.413585X-0.142116X0.320025X0.298050X-0.413585X0.142116X-0.320025X-0.298050X0*%
%ADD64RoundRect,0.250000X-0.425666X1.367272X-1.356347X-0.459291X0.425666X-1.367272X1.356347X0.459291X0*%
%ADD65FreePoly0,106.000000*%
%ADD66RoundRect,0.082000X0.660437X-0.151841X0.479619X0.478747X-0.660437X0.151841X-0.479619X-0.478747X0*%
%ADD67RoundRect,0.140000X-0.140000X-0.170000X0.140000X-0.170000X0.140000X0.170000X-0.140000X0.170000X0*%
%ADD68RoundRect,0.250000X0.794690X1.191257X-1.210513X0.765038X-0.794690X-1.191257X1.210513X-0.765038X0*%
%ADD69FreePoly0,95.000000*%
%ADD70RoundRect,0.082000X0.619331X-0.275069X0.562156X0.378435X-0.619331X0.275069X-0.562156X-0.378435X0*%
%ADD71RoundRect,0.250000X0.933944X1.085529X-1.108255X0.906860X-0.933944X-1.085529X1.108255X-0.906860X0*%
%ADD72RoundRect,0.225000X0.422492X-0.112920X0.298455X0.319648X-0.422492X0.112920X-0.298455X-0.319648X0*%
%ADD73C,0.800000*%
%ADD74C,0.500000*%
G04 APERTURE END LIST*
D10*
%TO.C,SPLIT_R1*%
X114971764Y96192805D03*
X114971764Y88692805D03*
D11*
X110291764Y98037805D03*
X114891764Y98017805D03*
X110291764Y86887805D03*
X114891764Y86867805D03*
%TD*%
D12*
%TO.C,J1*%
X80875621Y131307621D03*
X80895621Y135907621D03*
X92025621Y131307621D03*
X92045621Y135907621D03*
D10*
X82700621Y131227621D03*
X90200621Y131227621D03*
%TD*%
D13*
%TO.C,SW1*%
X82941764Y86195000D03*
X87941764Y86195000D03*
D14*
X91041764Y79195000D03*
X79841764Y79195000D03*
D15*
X85441764Y71695000D03*
D13*
X87941764Y71695000D03*
X82941764Y71695000D03*
%TD*%
%TO.C,SW2*%
X123101704Y86893835D03*
X118101704Y86893835D03*
D16*
X120601704Y86893835D03*
D17*
X126201704Y79393835D03*
X115001704Y79393835D03*
D13*
X118101704Y72393835D03*
X123101704Y72393835D03*
%TD*%
D11*
%TO.C,SPLIT_L1*%
X91191764Y98015000D03*
X95791764Y97995000D03*
X91191764Y86865000D03*
X95791764Y86845000D03*
D10*
X91111764Y96190000D03*
X91111764Y88690000D03*
%TD*%
%TO.C,J4*%
X123151032Y131356728D03*
X115651032Y131356728D03*
D12*
X124996032Y136036728D03*
X124976032Y131436728D03*
X113846032Y136036728D03*
X113826032Y131436728D03*
%TD*%
D18*
%TO.C,S31*%
X123960120Y62882475D03*
D19*
X110381181Y55963660D03*
D18*
X134770769Y41665382D03*
D19*
X121191830Y34746567D03*
%TD*%
%TO.C,S1*%
X95702347Y55705855D03*
D18*
X82123408Y62624670D03*
D19*
X84891698Y34488762D03*
D18*
X71312759Y41407577D03*
%TD*%
D20*
%TO.C,D29*%
X60934818Y51758944D03*
X60248710Y48531056D03*
%TD*%
D21*
%TO.C,D44*%
X164791764Y91602805D03*
X164791764Y94902805D03*
%TD*%
D22*
%TO.C,LED11*%
X41496764Y107785000D03*
D23*
X41496764Y106285000D03*
X46946764Y107785000D03*
X46946764Y106285000D03*
%TD*%
D24*
%TO.C,MX51*%
X185971764Y76802805D03*
D19*
X180891764Y76802805D03*
D24*
X175811764Y76802805D03*
D25*
X177081764Y79342805D03*
D26*
X173531764Y79342805D03*
X186981764Y81882805D03*
D25*
X183431764Y81882805D03*
%TD*%
D22*
%TO.C,LED19*%
X-34533236Y65015000D03*
D23*
X-34533236Y63515000D03*
X-29083236Y65015000D03*
X-29083236Y63515000D03*
%TD*%
D27*
%TO.C,D57*%
X172028118Y52355066D03*
X171855410Y55650544D03*
%TD*%
D25*
%TO.C,MX6*%
X65731764Y133925000D03*
D26*
X69281764Y133925000D03*
X55831764Y131385000D03*
D25*
X59381764Y131385000D03*
D24*
X58111764Y128845000D03*
D19*
X63191764Y128845000D03*
D24*
X68271764Y128845000D03*
%TD*%
D21*
%TO.C,D13*%
X-28708236Y89595000D03*
X-28708236Y86295000D03*
%TD*%
D28*
%TO.C,LED57*%
X171868148Y48473410D03*
X171789645Y49971355D03*
X166425617Y48188179D03*
D29*
X166347114Y49686124D03*
%TD*%
D21*
%TO.C,D35*%
X221791764Y124852805D03*
X221791764Y128152805D03*
%TD*%
D30*
%TO.C,J5*%
X112480764Y109825000D03*
D31*
X112480764Y107285000D03*
X112480764Y104745000D03*
X112480764Y102205000D03*
X112480764Y99665000D03*
%TD*%
D32*
%TO.C,LED6*%
X65916764Y122925000D03*
D33*
X65916764Y124425000D03*
X60466764Y122925000D03*
X60466764Y124425000D03*
%TD*%
D21*
%TO.C,D60*%
X238641764Y48652805D03*
X238641764Y51952805D03*
%TD*%
%TO.C,D48*%
X240791764Y86852805D03*
X240791764Y90152805D03*
%TD*%
%TO.C,D15*%
X9291764Y94395000D03*
X9291764Y91095000D03*
%TD*%
D32*
%TO.C,LED14*%
X-10103236Y82525000D03*
D33*
X-10103236Y84025000D03*
X-15553236Y82525000D03*
X-15553236Y84025000D03*
%TD*%
D21*
%TO.C,D6*%
X66241764Y130195000D03*
X66241764Y126895000D03*
%TD*%
D23*
%TO.C,LED35*%
X221616764Y120772805D03*
X221616764Y122272805D03*
X216166764Y120772805D03*
D22*
X216166764Y122272805D03*
%TD*%
D30*
%TO.C,J6*%
X110480764Y114245000D03*
D31*
X110480764Y116785000D03*
X110480764Y119325000D03*
X110480764Y121865000D03*
X110480764Y124405000D03*
X110480764Y126945000D03*
X110480764Y129485000D03*
X110480764Y132025000D03*
%TD*%
D21*
%TO.C,D17*%
X47291764Y94395000D03*
X47291764Y91095000D03*
%TD*%
%TO.C,D5*%
X47291764Y132595000D03*
X47291764Y129295000D03*
%TD*%
%TO.C,D34*%
X202791764Y129602805D03*
X202791764Y132902805D03*
%TD*%
%TO.C,D40*%
X202791764Y110602805D03*
X202791764Y113902805D03*
%TD*%
D25*
%TO.C,MX22*%
X27681764Y81675000D03*
D26*
X31231764Y81675000D03*
X17781764Y79135000D03*
D25*
X21331764Y79135000D03*
D24*
X20061764Y76595000D03*
D19*
X25141764Y76595000D03*
D24*
X30221764Y76595000D03*
%TD*%
D23*
%TO.C,LED47*%
X221616764Y82772805D03*
X221616764Y84272805D03*
X216166764Y82772805D03*
D22*
X216166764Y84272805D03*
%TD*%
%TO.C,LED23*%
X41466764Y69765000D03*
D23*
X41466764Y68265000D03*
X46916764Y69765000D03*
X46916764Y68265000D03*
%TD*%
D24*
%TO.C,MX37*%
X147971764Y110102805D03*
D19*
X142891764Y110102805D03*
D24*
X137811764Y110102805D03*
D25*
X139081764Y112642805D03*
D26*
X135531764Y112642805D03*
X148981764Y115182805D03*
D25*
X145431764Y115182805D03*
%TD*%
D33*
%TO.C,LED54*%
X235166764Y65272805D03*
X235166764Y63772805D03*
X240616764Y65272805D03*
D32*
X240616764Y63772805D03*
%TD*%
D22*
%TO.C,LED9*%
X3416764Y107745000D03*
D23*
X3416764Y106245000D03*
X8866764Y107745000D03*
X8866764Y106245000D03*
%TD*%
D32*
%TO.C,LED2*%
X-10133236Y120515000D03*
D33*
X-10133236Y122015000D03*
X-15583236Y120515000D03*
X-15583236Y122015000D03*
%TD*%
D21*
%TO.C,D53*%
X222045211Y67851540D03*
X222045211Y71151540D03*
%TD*%
D33*
%TO.C,LED51*%
X178166764Y72472805D03*
X178166764Y70972805D03*
X183616764Y72472805D03*
D32*
X183616764Y70972805D03*
%TD*%
D34*
%TO.C,LED29*%
X59095091Y44825840D03*
D35*
X59406959Y46293061D03*
X53764187Y45958959D03*
X54076055Y47426180D03*
%TD*%
D24*
%TO.C,MX38*%
X166971764Y112352805D03*
D19*
X161891764Y112352805D03*
D24*
X156811764Y112352805D03*
D25*
X158081764Y114892805D03*
D26*
X154531764Y114892805D03*
X167981764Y117432805D03*
D25*
X164431764Y117432805D03*
%TD*%
D24*
%TO.C,MX58*%
X194452433Y53510054D03*
D19*
X189391764Y53952805D03*
D24*
X184331095Y54395556D03*
D25*
X185817638Y56815203D03*
D36*
X182281147Y57124606D03*
X195901341Y58482696D03*
D25*
X192364850Y58792098D03*
%TD*%
D32*
%TO.C,LED25*%
X-26733236Y44515000D03*
D33*
X-26733236Y46015000D03*
X-32183236Y44515000D03*
X-32183236Y46015000D03*
%TD*%
D24*
%TO.C,MX54*%
X242971764Y69602805D03*
D19*
X237891764Y69602805D03*
D24*
X232811764Y69602805D03*
D25*
X234081764Y72142805D03*
D26*
X230531764Y72142805D03*
X243981764Y74682805D03*
D25*
X240431764Y74682805D03*
%TD*%
D24*
%TO.C,MX42*%
X242971764Y107602805D03*
D19*
X237891764Y107602805D03*
D24*
X232811764Y107602805D03*
D25*
X234081764Y110142805D03*
D26*
X230531764Y110142805D03*
X243981764Y112682805D03*
D25*
X240431764Y112682805D03*
%TD*%
%TO.C,MX8*%
X-10268236Y112425000D03*
D26*
X-6718236Y112425000D03*
X-20168236Y109885000D03*
D25*
X-16618236Y109885000D03*
D24*
X-17888236Y107345000D03*
D19*
X-12808236Y107345000D03*
D24*
X-7728236Y107345000D03*
%TD*%
D37*
%TO.C,LED55*%
X119184320Y44028047D03*
X120520830Y44709033D03*
X116710072Y48884033D03*
D38*
X118046582Y49565019D03*
%TD*%
D22*
%TO.C,LED20*%
X-15583236Y65015000D03*
D23*
X-15583236Y63515000D03*
X-10133236Y65015000D03*
X-10133236Y63515000D03*
%TD*%
D24*
%TO.C,MX48*%
X242971764Y88602805D03*
D19*
X237891764Y88602805D03*
D24*
X232811764Y88602805D03*
D25*
X234081764Y91142805D03*
D26*
X230531764Y91142805D03*
X243981764Y93682805D03*
D25*
X240431764Y93682805D03*
%TD*%
D24*
%TO.C,MX55*%
X125448036Y44576492D03*
D19*
X123141764Y49102805D03*
D24*
X120835492Y53629118D03*
D25*
X123675217Y53650676D03*
D39*
X122063550Y56813749D03*
X130432879Y45982847D03*
D25*
X128821213Y49145920D03*
%TD*%
D23*
%TO.C,LED33*%
X183616764Y127972805D03*
X183616764Y129472805D03*
X178166764Y127972805D03*
D22*
X178166764Y129472805D03*
%TD*%
D25*
%TO.C,MX24*%
X65681764Y76875000D03*
D26*
X69231764Y76875000D03*
X55781764Y74335000D03*
D25*
X59331764Y74335000D03*
D24*
X58061764Y71795000D03*
D19*
X63141764Y71795000D03*
D24*
X68221764Y71795000D03*
%TD*%
%TO.C,MX33*%
X185971764Y133802805D03*
D19*
X180891764Y133802805D03*
D24*
X175811764Y133802805D03*
D25*
X177081764Y136342805D03*
D26*
X173531764Y136342805D03*
X186981764Y138882805D03*
D25*
X183431764Y138882805D03*
%TD*%
D22*
%TO.C,LED10*%
X22416764Y110215000D03*
D23*
X22416764Y108715000D03*
X27866764Y110215000D03*
X27866764Y108715000D03*
%TD*%
D25*
%TO.C,MX19*%
X-29268236Y74425000D03*
D26*
X-25718236Y74425000D03*
X-39168236Y71885000D03*
D25*
X-35618236Y71885000D03*
D24*
X-36888236Y69345000D03*
D19*
X-31808236Y69345000D03*
D24*
X-26728236Y69345000D03*
%TD*%
D32*
%TO.C,LED18*%
X65896764Y84995000D03*
D33*
X65896764Y86495000D03*
X60446764Y84995000D03*
X60446764Y86495000D03*
%TD*%
D21*
%TO.C,D2*%
X-9658236Y127495000D03*
X-9658236Y124195000D03*
%TD*%
D22*
%TO.C,LED7*%
X-34583236Y103015000D03*
D23*
X-34583236Y101515000D03*
X-29133236Y103015000D03*
X-29133236Y101515000D03*
%TD*%
D21*
%TO.C,D24*%
X66291764Y73095000D03*
X66291764Y69795000D03*
%TD*%
%TO.C,D16*%
X28291764Y96795000D03*
X28291764Y93495000D03*
%TD*%
D40*
%TO.C,D55*%
X122771603Y45853721D03*
X125711925Y47351889D03*
%TD*%
D32*
%TO.C,LED16*%
X27896764Y89735000D03*
D33*
X27896764Y91235000D03*
X22446764Y89735000D03*
X22446764Y91235000D03*
%TD*%
D25*
%TO.C,MX29*%
X61182450Y55535894D03*
D41*
X64654874Y54797808D03*
X50970693Y55109725D03*
D25*
X54443117Y54371638D03*
D24*
X52672774Y52151191D03*
D19*
X57641764Y51095000D03*
D24*
X62610754Y50038809D03*
%TD*%
D21*
%TO.C,D61*%
X94666073Y84231460D03*
X94666073Y80931460D03*
%TD*%
D24*
%TO.C,MX40*%
X204971764Y112352805D03*
D19*
X199891764Y112352805D03*
D24*
X194811764Y112352805D03*
D25*
X196081764Y114892805D03*
D26*
X192531764Y114892805D03*
X205981764Y117432805D03*
D25*
X202431764Y117432805D03*
%TD*%
D23*
%TO.C,LED60*%
X238266764Y44772805D03*
X238266764Y46272805D03*
X232816764Y44772805D03*
D22*
X232816764Y46272805D03*
%TD*%
D21*
%TO.C,D3*%
X9141764Y132245000D03*
X9141764Y128945000D03*
%TD*%
D25*
%TO.C,MX2*%
X-10318236Y131425000D03*
D26*
X-6768236Y131425000D03*
X-20218236Y128885000D03*
D25*
X-16668236Y128885000D03*
D24*
X-17938236Y126345000D03*
D19*
X-12858236Y126345000D03*
D24*
X-7778236Y126345000D03*
%TD*%
D32*
%TO.C,LED1*%
X-29133236Y120515000D03*
D33*
X-29133236Y122015000D03*
X-34583236Y120515000D03*
X-34583236Y122015000D03*
%TD*%
D42*
%TO.C,LED56*%
X152319342Y46216764D03*
X152007474Y47683985D03*
X146988438Y45083645D03*
D43*
X146676570Y46550866D03*
%TD*%
D24*
%TO.C,MX50*%
X166971764Y74352805D03*
D19*
X161891764Y74352805D03*
D24*
X156811764Y74352805D03*
D25*
X158081764Y76892805D03*
D26*
X154531764Y76892805D03*
X167981764Y79432805D03*
D25*
X164431764Y79432805D03*
%TD*%
D21*
%TO.C,D42*%
X240791764Y105852805D03*
X240791764Y109152805D03*
%TD*%
D44*
%TO.C,D28*%
X40378118Y54992739D03*
X40205410Y51697261D03*
%TD*%
D24*
%TO.C,MX52*%
X204971764Y74352805D03*
D19*
X199891764Y74352805D03*
D24*
X194811764Y74352805D03*
D25*
X196081764Y76892805D03*
D26*
X192531764Y76892805D03*
X205981764Y79432805D03*
D25*
X202431764Y79432805D03*
%TD*%
D45*
%TO.C,D30*%
X83021603Y52294084D03*
X85961925Y50795916D03*
%TD*%
D25*
%TO.C,MX14*%
X-10288236Y93435000D03*
D26*
X-6738236Y93435000D03*
X-20188236Y90895000D03*
D25*
X-16638236Y90895000D03*
D24*
X-17908236Y88355000D03*
D19*
X-12828236Y88355000D03*
D24*
X-7748236Y88355000D03*
%TD*%
D33*
%TO.C,LED40*%
X197166764Y108022805D03*
X197166764Y106522805D03*
X202616764Y108022805D03*
D32*
X202616764Y106522805D03*
%TD*%
D33*
%TO.C,LED52*%
X197166764Y70022805D03*
X197166764Y68522805D03*
X202616764Y70022805D03*
D32*
X202616764Y68522805D03*
%TD*%
D21*
%TO.C,D49*%
X145791764Y70302805D03*
X145791764Y73602805D03*
%TD*%
D25*
%TO.C,MX13*%
X-29288236Y93405000D03*
D26*
X-25738236Y93405000D03*
X-39188236Y90865000D03*
D25*
X-35638236Y90865000D03*
D24*
X-36908236Y88325000D03*
D19*
X-31828236Y88325000D03*
D24*
X-26748236Y88325000D03*
%TD*%
D25*
%TO.C,MX20*%
X-10318236Y74425000D03*
D26*
X-6768236Y74425000D03*
X-20218236Y71885000D03*
D25*
X-16668236Y71885000D03*
D24*
X-17938236Y69345000D03*
D19*
X-12858236Y69345000D03*
D24*
X-7778236Y69345000D03*
%TD*%
D22*
%TO.C,LED8*%
X-15533236Y103015000D03*
D23*
X-15533236Y101515000D03*
X-10083236Y103015000D03*
X-10083236Y101515000D03*
%TD*%
D21*
%TO.C,D39*%
X183791764Y113052805D03*
X183791764Y116352805D03*
%TD*%
D24*
%TO.C,MX32*%
X166971764Y131352805D03*
D19*
X161891764Y131352805D03*
D24*
X156811764Y131352805D03*
D25*
X158081764Y133892805D03*
D26*
X154531764Y133892805D03*
X167981764Y136432805D03*
D25*
X164431764Y136432805D03*
%TD*%
%TO.C,MX16*%
X27711764Y100645000D03*
D26*
X31261764Y100645000D03*
X17811764Y98105000D03*
D25*
X21361764Y98105000D03*
D24*
X20091764Y95565000D03*
D19*
X25171764Y95565000D03*
D24*
X30251764Y95565000D03*
%TD*%
D21*
%TO.C,D20*%
X-9708236Y70695000D03*
X-9708236Y67395000D03*
%TD*%
%TO.C,D32*%
X164791764Y129602805D03*
X164791764Y132902805D03*
%TD*%
D24*
%TO.C,MX43*%
X147971764Y91102805D03*
D19*
X142891764Y91102805D03*
D24*
X137811764Y91102805D03*
D25*
X139081764Y93642805D03*
D26*
X135531764Y93642805D03*
X148981764Y96182805D03*
D25*
X145431764Y96182805D03*
%TD*%
D46*
%TO.C,LED28*%
X39657912Y47930374D03*
D47*
X39736415Y49428319D03*
X34215381Y48215605D03*
X34293884Y49713550D03*
%TD*%
D21*
%TO.C,D11*%
X47291764Y113395000D03*
X47291764Y110095000D03*
%TD*%
D22*
%TO.C,LED12*%
X60446764Y105465000D03*
D23*
X60446764Y103965000D03*
X65896764Y105465000D03*
X65896764Y103965000D03*
%TD*%
D21*
%TO.C,D51*%
X183791764Y75052805D03*
X183791764Y78352805D03*
%TD*%
D24*
%TO.C,MX59*%
X214674973Y48402567D03*
D19*
X209791764Y49802805D03*
D24*
X204908555Y51203043D03*
D25*
X206829476Y53294588D03*
D48*
X203416997Y54273101D03*
X217046085Y53007383D03*
D25*
X213633606Y53985896D03*
%TD*%
D49*
%TO.C,LED58*%
X191598277Y47907491D03*
X191729010Y49401783D03*
X186169016Y48382489D03*
D50*
X186299749Y49876781D03*
%TD*%
D51*
%TO.C,D59*%
X212186962Y47116723D03*
X213096566Y50288887D03*
%TD*%
D21*
%TO.C,D45*%
X183791764Y94052805D03*
X183791764Y97352805D03*
%TD*%
%TO.C,D43*%
X145791764Y89352805D03*
X145791764Y92652805D03*
%TD*%
D22*
%TO.C,LED21*%
X3466764Y69715000D03*
D23*
X3466764Y68215000D03*
X8916764Y69715000D03*
X8916764Y68215000D03*
%TD*%
D21*
%TO.C,D18*%
X66291764Y92095000D03*
X66291764Y88795000D03*
%TD*%
D24*
%TO.C,MX35*%
X223971764Y126602805D03*
D19*
X218891764Y126602805D03*
D24*
X213811764Y126602805D03*
D25*
X215081764Y129142805D03*
D26*
X211531764Y129142805D03*
X224981764Y131682805D03*
D25*
X221431764Y131682805D03*
%TD*%
D24*
%TO.C,MX31*%
X147971764Y129102805D03*
D19*
X142891764Y129102805D03*
D24*
X137811764Y129102805D03*
D25*
X139081764Y131642805D03*
D26*
X135531764Y131642805D03*
X148981764Y134182805D03*
D25*
X145431764Y134182805D03*
%TD*%
%TO.C,MX5*%
X46731764Y136185000D03*
D26*
X50281764Y136185000D03*
X36831764Y133645000D03*
D25*
X40381764Y133645000D03*
D24*
X39111764Y131105000D03*
D19*
X44191764Y131105000D03*
D24*
X49271764Y131105000D03*
%TD*%
D22*
%TO.C,LED24*%
X60416764Y67465000D03*
D23*
X60416764Y65965000D03*
X65866764Y67465000D03*
X65866764Y65965000D03*
%TD*%
D52*
%TO.C,U6*%
X74441764Y124882500D03*
X72541764Y124882500D03*
X72541764Y122607500D03*
X73491764Y122607500D03*
X74441764Y122607500D03*
%TD*%
D25*
%TO.C,MX28*%
X40044150Y58835105D03*
D53*
X43589285Y58649312D03*
X30024784Y56816712D03*
D25*
X33569919Y56630919D03*
D24*
X32168726Y54160867D03*
D19*
X37241764Y53895000D03*
D24*
X42314802Y53629133D03*
%TD*%
D21*
%TO.C,D1*%
X-28758236Y127495000D03*
X-28758236Y124195000D03*
%TD*%
D54*
%TO.C,D62*%
X124630764Y69545000D03*
X121330764Y69545000D03*
%TD*%
D55*
%TO.C,LED59*%
X210804237Y43447537D03*
X211217693Y44889429D03*
X205565361Y44949761D03*
D56*
X205978817Y46391653D03*
%TD*%
D21*
%TO.C,D21*%
X9291764Y75295000D03*
X9291764Y71995000D03*
%TD*%
D25*
%TO.C,MX17*%
X46711764Y98175000D03*
D26*
X50261764Y98175000D03*
X36811764Y95635000D03*
D25*
X40361764Y95635000D03*
D24*
X39091764Y93095000D03*
D19*
X44171764Y93095000D03*
D24*
X49251764Y93095000D03*
%TD*%
D57*
%TO.C,D27*%
X19697957Y55188721D03*
X19985571Y51901279D03*
%TD*%
D21*
%TO.C,D52*%
X202791764Y72602805D03*
X202791764Y75902805D03*
%TD*%
D58*
%TO.C,D58*%
X192297957Y51759084D03*
X192585571Y55046526D03*
%TD*%
D21*
%TO.C,D41*%
X221791764Y105852805D03*
X221791764Y109152805D03*
%TD*%
D23*
%TO.C,LED36*%
X240616764Y120772805D03*
X240616764Y122272805D03*
X235166764Y120772805D03*
D22*
X235166764Y122272805D03*
%TD*%
D21*
%TO.C,D47*%
X221791764Y86852805D03*
X221791764Y90152805D03*
%TD*%
D24*
%TO.C,MX47*%
X223971764Y88602805D03*
D19*
X218891764Y88602805D03*
D24*
X213811764Y88602805D03*
D25*
X215081764Y91142805D03*
D26*
X211531764Y91142805D03*
X224981764Y93682805D03*
D25*
X221431764Y93682805D03*
%TD*%
D21*
%TO.C,D10*%
X28191764Y115795000D03*
X28191764Y112495000D03*
%TD*%
%TO.C,D36*%
X240791764Y124852805D03*
X240791764Y128152805D03*
%TD*%
D25*
%TO.C,MX1*%
X-29318236Y131425000D03*
D26*
X-25768236Y131425000D03*
X-39218236Y128885000D03*
D25*
X-35668236Y128885000D03*
D24*
X-36938236Y126345000D03*
D19*
X-31858236Y126345000D03*
D24*
X-26778236Y126345000D03*
%TD*%
D33*
%TO.C,LED53*%
X216166764Y65272805D03*
X216166764Y63772805D03*
X221616764Y65272805D03*
D32*
X221616764Y63772805D03*
%TD*%
D24*
%TO.C,MX44*%
X166971764Y93352805D03*
D19*
X161891764Y93352805D03*
D24*
X156811764Y93352805D03*
D25*
X158081764Y95892805D03*
D26*
X154531764Y95892805D03*
X167981764Y98432805D03*
D25*
X164431764Y98432805D03*
%TD*%
D31*
%TO.C,J2*%
X93491764Y110105000D03*
X93491764Y107565000D03*
X93491764Y105025000D03*
X93491764Y102485000D03*
D30*
X93491764Y99945000D03*
%TD*%
D32*
%TO.C,LED13*%
X-29103236Y82495000D03*
D33*
X-29103236Y83995000D03*
X-34553236Y82495000D03*
X-34553236Y83995000D03*
%TD*%
D24*
%TO.C,MX57*%
X173914802Y54418672D03*
D19*
X168841764Y54152805D03*
D24*
X163768726Y53886938D03*
D25*
X164904052Y56489924D03*
D59*
X161358917Y56304131D03*
X174657551Y59544569D03*
D25*
X171112416Y59358776D03*
%TD*%
D21*
%TO.C,D54*%
X241037142Y67919007D03*
X241037142Y71219007D03*
%TD*%
D31*
%TO.C,J3*%
X95591764Y113865000D03*
X95591764Y116405000D03*
X95591764Y118945000D03*
X95591764Y121485000D03*
X95591764Y124025000D03*
X95591764Y126565000D03*
X95591764Y129105000D03*
D30*
X95591764Y131645000D03*
%TD*%
D23*
%TO.C,LED43*%
X145616764Y85272805D03*
X145616764Y86772805D03*
X140166764Y85272805D03*
D22*
X140166764Y86772805D03*
%TD*%
D25*
%TO.C,MX15*%
X8711764Y98215000D03*
D26*
X12261764Y98215000D03*
X-1188236Y95675000D03*
D25*
X2361764Y95675000D03*
D24*
X1091764Y93135000D03*
D19*
X6171764Y93135000D03*
D24*
X11251764Y93135000D03*
%TD*%
D21*
%TO.C,D8*%
X-9708236Y108595000D03*
X-9708236Y105295000D03*
%TD*%
D23*
%TO.C,LED46*%
X202616764Y87522805D03*
X202616764Y89022805D03*
X197166764Y87522805D03*
D22*
X197166764Y89022805D03*
%TD*%
D21*
%TO.C,D14*%
X-9708236Y89595000D03*
X-9708236Y86295000D03*
%TD*%
D25*
%TO.C,MX18*%
X65711764Y95905000D03*
D26*
X69261764Y95905000D03*
X55811764Y93365000D03*
D25*
X59361764Y93365000D03*
D24*
X58091764Y90825000D03*
D19*
X63171764Y90825000D03*
D24*
X68251764Y90825000D03*
%TD*%
%TO.C,MX45*%
X185971764Y95802805D03*
D19*
X180891764Y95802805D03*
D24*
X175811764Y95802805D03*
D25*
X177081764Y98342805D03*
D26*
X173531764Y98342805D03*
X186981764Y100882805D03*
D25*
X183431764Y100882805D03*
%TD*%
D32*
%TO.C,LED4*%
X27866764Y127715000D03*
D33*
X27866764Y129215000D03*
X22416764Y127715000D03*
X22416764Y129215000D03*
%TD*%
D24*
%TO.C,MX53*%
X223971764Y69602805D03*
D19*
X218891764Y69602805D03*
D24*
X213811764Y69602805D03*
D25*
X215081764Y72142805D03*
D26*
X211531764Y72142805D03*
X224981764Y74682805D03*
D25*
X221431764Y74682805D03*
%TD*%
D21*
%TO.C,D33*%
X183791764Y132052805D03*
X183791764Y135352805D03*
%TD*%
%TO.C,D4*%
X28291764Y135195000D03*
X28291764Y131895000D03*
%TD*%
D22*
%TO.C,LED22*%
X22416764Y72265000D03*
D23*
X22416764Y70765000D03*
X27866764Y72265000D03*
X27866764Y70765000D03*
%TD*%
D32*
%TO.C,LED3*%
X8866764Y125265000D03*
D33*
X8866764Y126765000D03*
X3416764Y125265000D03*
X3416764Y126765000D03*
%TD*%
D25*
%TO.C,MX9*%
X8681764Y117155000D03*
D26*
X12231764Y117155000D03*
X-1218236Y114615000D03*
D25*
X2331764Y114615000D03*
D24*
X1061764Y112075000D03*
D19*
X6141764Y112075000D03*
D24*
X11221764Y112075000D03*
%TD*%
%TO.C,MX46*%
X204971764Y93352805D03*
D19*
X199891764Y93352805D03*
D24*
X194811764Y93352805D03*
D25*
X196081764Y95892805D03*
D26*
X192531764Y95892805D03*
X205981764Y98432805D03*
D25*
X202431764Y98432805D03*
%TD*%
D33*
%TO.C,LED38*%
X159166764Y108022805D03*
X159166764Y106522805D03*
X164616764Y108022805D03*
D32*
X164616764Y106522805D03*
%TD*%
D25*
%TO.C,MX12*%
X65711764Y114875000D03*
D26*
X69261764Y114875000D03*
X55811764Y112335000D03*
D25*
X59361764Y112335000D03*
D24*
X58091764Y109795000D03*
D19*
X63171764Y109795000D03*
D24*
X68251764Y109795000D03*
%TD*%
D23*
%TO.C,LED44*%
X164616764Y87522805D03*
X164616764Y89022805D03*
X159166764Y87522805D03*
D22*
X159166764Y89022805D03*
%TD*%
D25*
%TO.C,MX26*%
X-2716869Y55178328D03*
D60*
X695610Y56156841D03*
X-11533241Y50007914D03*
D25*
X-8120762Y50986426D03*
D24*
X-8641445Y48194762D03*
D19*
X-3758236Y49595000D03*
D24*
X1124973Y50995238D03*
%TD*%
D33*
%TO.C,LED37*%
X140166764Y105772805D03*
X140166764Y104272805D03*
X145616764Y105772805D03*
D32*
X145616764Y104272805D03*
%TD*%
%TO.C,LED15*%
X8896764Y87305000D03*
D33*
X8896764Y88805000D03*
X3446764Y87305000D03*
X3446764Y88805000D03*
%TD*%
%TO.C,LED41*%
X216166764Y103272805D03*
X216166764Y101772805D03*
X221616764Y103272805D03*
D32*
X221616764Y101772805D03*
%TD*%
D24*
%TO.C,MX41*%
X223971764Y107602805D03*
D19*
X218891764Y107602805D03*
D24*
X213811764Y107602805D03*
D25*
X215081764Y110142805D03*
D26*
X211531764Y110142805D03*
X224981764Y112682805D03*
D25*
X221431764Y112682805D03*
%TD*%
D23*
%TO.C,LED34*%
X202616764Y125522805D03*
X202616764Y127022805D03*
X197166764Y125522805D03*
D22*
X197166764Y127022805D03*
%TD*%
D61*
%TO.C,LED30*%
X89323456Y48626228D03*
D62*
X87986946Y49307214D03*
X86849208Y43770242D03*
X85512698Y44451228D03*
%TD*%
D21*
%TO.C,D12*%
X66291764Y111095000D03*
X66291764Y107795000D03*
%TD*%
D63*
%TO.C,D56*%
X151884818Y50088861D03*
X151198710Y53316749D03*
%TD*%
D25*
%TO.C,MX11*%
X46761764Y117195000D03*
D26*
X50311764Y117195000D03*
X36861764Y114655000D03*
D25*
X40411764Y114655000D03*
D24*
X39141764Y112115000D03*
D19*
X44221764Y112115000D03*
D24*
X49301764Y112115000D03*
%TD*%
D25*
%TO.C,MX30*%
X79518587Y53414428D03*
D64*
X81130253Y56577501D03*
X77287237Y43440328D03*
D25*
X78898904Y46603401D03*
D24*
X80585492Y44318687D03*
D19*
X82891764Y48845000D03*
D24*
X85198036Y53371313D03*
%TD*%
%TO.C,MX49*%
X147971764Y72052805D03*
D19*
X142891764Y72052805D03*
D24*
X137811764Y72052805D03*
D25*
X139081764Y74592805D03*
D26*
X135531764Y74592805D03*
X148981764Y77132805D03*
D25*
X145431764Y77132805D03*
%TD*%
D33*
%TO.C,LED42*%
X235166764Y103272805D03*
X235166764Y101772805D03*
X240616764Y103272805D03*
D32*
X240616764Y101772805D03*
%TD*%
D21*
%TO.C,D31*%
X145791764Y127352805D03*
X145791764Y130652805D03*
%TD*%
D24*
%TO.C,MX36*%
X242971764Y126602805D03*
D19*
X237891764Y126602805D03*
D24*
X232811764Y126602805D03*
D25*
X234081764Y129142805D03*
D26*
X230531764Y129142805D03*
X243981764Y131682805D03*
D25*
X240431764Y131682805D03*
%TD*%
%TO.C,MX21*%
X8731764Y79125000D03*
D26*
X12281764Y79125000D03*
X-1168236Y76585000D03*
D25*
X2381764Y76585000D03*
D24*
X1111764Y74045000D03*
D19*
X6191764Y74045000D03*
D24*
X11271764Y74045000D03*
%TD*%
D33*
%TO.C,LED39*%
X178166764Y110472805D03*
X178166764Y108972805D03*
X183616764Y110472805D03*
D32*
X183616764Y108972805D03*
%TD*%
D21*
%TO.C,D7*%
X-28808236Y108595000D03*
X-28808236Y105295000D03*
%TD*%
%TO.C,D50*%
X164791764Y72602805D03*
X164791764Y75902805D03*
%TD*%
D65*
%TO.C,LED26*%
X468168Y44741956D03*
D66*
X54712Y46183848D03*
X-4770708Y43239732D03*
X-5184164Y44681624D03*
%TD*%
D67*
%TO.C,C35*%
X131031337Y125945000D03*
X131991337Y125945000D03*
%TD*%
D23*
%TO.C,LED48*%
X240616764Y82772805D03*
X240616764Y84272805D03*
X235166764Y82772805D03*
D22*
X235166764Y84272805D03*
%TD*%
D23*
%TO.C,LED31*%
X145616764Y123272805D03*
X145616764Y124772805D03*
X140166764Y123272805D03*
D22*
X140166764Y124772805D03*
%TD*%
D33*
%TO.C,LED50*%
X159166764Y70022805D03*
X159166764Y68522805D03*
X164616764Y70022805D03*
D32*
X164616764Y68522805D03*
%TD*%
D21*
%TO.C,D25*%
X-26308236Y51645000D03*
X-26308236Y48345000D03*
%TD*%
%TO.C,D46*%
X202791764Y91602805D03*
X202791764Y94902805D03*
%TD*%
%TO.C,D19*%
X-28708236Y70595000D03*
X-28708236Y67295000D03*
%TD*%
%TO.C,D9*%
X9191764Y113295000D03*
X9191764Y109995000D03*
%TD*%
%TO.C,D37*%
X145791764Y108352805D03*
X145791764Y111652805D03*
%TD*%
D24*
%TO.C,MX60*%
X240621764Y50602805D03*
D19*
X235541764Y50602805D03*
D24*
X230461764Y50602805D03*
D25*
X231731764Y53142805D03*
D26*
X228181764Y53142805D03*
X241631764Y55682805D03*
D25*
X238081764Y55682805D03*
%TD*%
%TO.C,MX4*%
X27681764Y138625000D03*
D26*
X31231764Y138625000D03*
X17781764Y136085000D03*
D25*
X21331764Y136085000D03*
D24*
X20061764Y133545000D03*
D19*
X25141764Y133545000D03*
D24*
X30221764Y133545000D03*
%TD*%
D21*
%TO.C,D38*%
X164791764Y110602805D03*
X164791764Y113902805D03*
%TD*%
D24*
%TO.C,MX56*%
X153410754Y52408996D03*
D19*
X148441764Y51352805D03*
D24*
X143472774Y50296614D03*
D25*
X144186926Y53045156D03*
D68*
X140714502Y52307070D03*
X153342491Y57587977D03*
D25*
X149870068Y56849891D03*
%TD*%
D32*
%TO.C,LED5*%
X46916764Y125275000D03*
D33*
X46916764Y126775000D03*
X41466764Y125275000D03*
X41466764Y126775000D03*
%TD*%
D25*
%TO.C,MX10*%
X27681764Y119625000D03*
D26*
X31231764Y119625000D03*
X17781764Y117085000D03*
D25*
X21331764Y117085000D03*
D24*
X20061764Y114545000D03*
D19*
X25141764Y114545000D03*
D24*
X30221764Y114545000D03*
%TD*%
D52*
%TO.C,U11*%
X131975779Y122119077D03*
X131025779Y122119077D03*
X130075779Y122119077D03*
X130075779Y124394077D03*
X131975779Y124394077D03*
%TD*%
D24*
%TO.C,MX34*%
X204971764Y131352805D03*
D19*
X199891764Y131352805D03*
D24*
X194811764Y131352805D03*
D25*
X196081764Y133892805D03*
D26*
X192531764Y133892805D03*
X205981764Y136432805D03*
D25*
X202431764Y136432805D03*
%TD*%
D21*
%TO.C,D22*%
X28241764Y77795000D03*
X28241764Y74495000D03*
%TD*%
D25*
%TO.C,MX7*%
X-29318236Y112425000D03*
D26*
X-25768236Y112425000D03*
X-39218236Y109885000D03*
D25*
X-35668236Y109885000D03*
D24*
X-36938236Y107345000D03*
D19*
X-31858236Y107345000D03*
D24*
X-26778236Y107345000D03*
%TD*%
D23*
%TO.C,LED45*%
X183616764Y89972805D03*
X183616764Y91472805D03*
X178166764Y89972805D03*
D22*
X178166764Y91472805D03*
%TD*%
D23*
%TO.C,LED32*%
X164616764Y125522805D03*
X164616764Y127022805D03*
X159166764Y125522805D03*
D22*
X159166764Y127022805D03*
%TD*%
D69*
%TO.C,LED27*%
X19914512Y48074684D03*
D70*
X19783779Y49568976D03*
X14485251Y47599686D03*
X14354518Y49093978D03*
%TD*%
D25*
%TO.C,MX3*%
X8681764Y136175000D03*
D26*
X12231764Y136175000D03*
X-1218236Y133635000D03*
D25*
X2331764Y133635000D03*
D24*
X1061764Y131095000D03*
D19*
X6141764Y131095000D03*
D24*
X11221764Y131095000D03*
%TD*%
D67*
%TO.C,C6*%
X74438387Y127045000D03*
X73478387Y127045000D03*
%TD*%
D25*
%TO.C,MX27*%
X18779347Y58927045D03*
D71*
X22315839Y59236448D03*
X9138395Y55533868D03*
D25*
X12674887Y55843271D03*
D24*
X11631095Y53202249D03*
D19*
X16691764Y53645000D03*
D24*
X21752433Y54087751D03*
%TD*%
%TO.C,MX39*%
X185971764Y114802805D03*
D19*
X180891764Y114802805D03*
D24*
X175811764Y114802805D03*
D25*
X177081764Y117342805D03*
D26*
X173531764Y117342805D03*
X186981764Y119882805D03*
D25*
X183431764Y119882805D03*
%TD*%
%TO.C,MX25*%
X-26918236Y55425000D03*
D26*
X-23368236Y55425000D03*
X-36818236Y52885000D03*
D25*
X-33268236Y52885000D03*
D24*
X-34538236Y50345000D03*
D19*
X-29458236Y50345000D03*
D24*
X-24378236Y50345000D03*
%TD*%
D25*
%TO.C,MX23*%
X46731764Y79175000D03*
D26*
X50281764Y79175000D03*
X36831764Y76635000D03*
D25*
X40381764Y76635000D03*
D24*
X39111764Y74095000D03*
D19*
X44191764Y74095000D03*
D24*
X49271764Y74095000D03*
%TD*%
D21*
%TO.C,D23*%
X47291764Y75295000D03*
X47291764Y71995000D03*
%TD*%
D72*
%TO.C,D26*%
X-1163038Y51731082D03*
X-253434Y48558918D03*
%TD*%
D33*
%TO.C,LED49*%
X140166764Y67722805D03*
X140166764Y66222805D03*
X145616764Y67722805D03*
D32*
X145616764Y66222805D03*
%TD*%
%TO.C,LED17*%
X46896764Y87265000D03*
D33*
X46896764Y88765000D03*
X41446764Y87265000D03*
X41446764Y88765000D03*
%TD*%
D73*
X74641764Y64345000D03*
X127880764Y94345000D03*
X68391764Y85345000D03*
X179380764Y50745000D03*
X-4398236Y129035000D03*
X68591764Y122545000D03*
X54291764Y137345000D03*
X52491764Y61645000D03*
X90291764Y104945000D03*
X90303390Y107955920D03*
X44291764Y102445000D03*
X90791764Y130073764D03*
X5891764Y101845000D03*
X31891764Y63945000D03*
X115106032Y130156728D03*
X62991764Y99745000D03*
X94591764Y64345000D03*
X73491764Y124145000D03*
X82396764Y120802239D03*
X-31808236Y116645000D03*
X86400099Y110113140D03*
X-12108236Y79145000D03*
X85441764Y74495000D03*
X74641764Y62820000D03*
X117659380Y105099502D03*
D74*
X122780764Y124945000D03*
D73*
X80491764Y95145000D03*
X-20908236Y135385000D03*
X123684304Y130145000D03*
X31591764Y127445000D03*
X190980764Y139345000D03*
X84991264Y121751892D03*
X122580764Y126694500D03*
X-31608236Y78945000D03*
X89891764Y125045500D03*
X86400099Y112113140D03*
X82291764Y95145000D03*
X90291927Y126460730D03*
X115380764Y105345000D03*
X25291764Y122745000D03*
X92317298Y117358641D03*
X25091764Y104745000D03*
X84991264Y119945000D03*
X113651695Y116207566D03*
X-32008236Y97545000D03*
X127880764Y96195000D03*
X84400099Y112113140D03*
X6991764Y120445000D03*
X73491764Y73445000D03*
X129848959Y66320634D03*
X-12808236Y116345000D03*
X79070355Y115467283D03*
X72491764Y109545000D03*
X83991764Y106245000D03*
X-11108236Y58945000D03*
X-12408236Y97245000D03*
X43791764Y120245000D03*
X127880764Y92495000D03*
X14651764Y140465000D03*
X84400099Y110113140D03*
X129880764Y68345000D03*
X83691764Y95145000D03*
X126180764Y110259545D03*
X11791764Y62545000D03*
X74641764Y61145000D03*
X84957620Y104762930D03*
X66891764Y61645000D03*
X125256206Y117414273D03*
X85400099Y111113140D03*
X-29708236Y59345000D03*
X85491764Y118545000D03*
X82091764Y130145000D03*
X170580764Y132545000D03*
X129880764Y70254214D03*
X113461477Y125360503D03*
X90091764Y115545000D03*
X123085000Y115751006D03*
X83591764Y42545000D03*
X70248014Y125988750D03*
X70248014Y64545000D03*
X72191764Y47445000D03*
X70248014Y88145000D03*
X70248014Y102945000D03*
X133191930Y121820500D03*
X115580764Y46945000D03*
X133191930Y68805214D03*
X133191930Y107145000D03*
X133216844Y87169914D03*
X76991264Y109345994D03*
X-3746668Y83167707D03*
X-3758236Y125695000D03*
X-37708236Y120145000D03*
X-37108236Y103145000D03*
X-37508236Y64145000D03*
X-38138236Y77745000D03*
X-39741678Y118545000D03*
X-39908236Y69545000D03*
X76991264Y115345000D03*
X-39741678Y126283076D03*
X-39741678Y88483076D03*
X-39741678Y107283076D03*
X-14808236Y52045000D03*
X76991264Y114345497D03*
X-20808236Y107545000D03*
X-20808236Y126545000D03*
X-20808236Y117870500D03*
X-20808236Y69745000D03*
X-20808236Y88745000D03*
X6691764Y57945000D03*
X76991264Y113345994D03*
X-1890937Y120537701D03*
X-1898236Y130955000D03*
X-1898236Y93155000D03*
X-1898236Y111955000D03*
X-1898236Y74155000D03*
X17101764Y133505000D03*
X17101764Y114505000D03*
X76991264Y112346491D03*
X17101764Y124070500D03*
X17101764Y76705000D03*
X17101764Y95705000D03*
X28244130Y58597366D03*
X36101764Y130855000D03*
X49191764Y57345000D03*
X36101764Y74055000D03*
X76991264Y111345000D03*
X36101764Y93055000D03*
X36101764Y121345000D03*
X36101764Y111855000D03*
X55091764Y71845000D03*
X55091764Y118345000D03*
X55091764Y109645000D03*
X55091764Y128645000D03*
X55091764Y90845000D03*
X72591764Y45745000D03*
X76991264Y110345497D03*
X134923632Y115136968D03*
X127380764Y56745000D03*
X134895418Y110359606D03*
X129681264Y109945497D03*
X134895418Y91559606D03*
X134895418Y129359606D03*
X134895418Y72345000D03*
X153863963Y131661615D03*
X153863963Y93861615D03*
X153863963Y112661615D03*
X153876589Y120907039D03*
X145780764Y59145000D03*
X153863963Y74545000D03*
X129681264Y110945000D03*
X172879556Y123746402D03*
X172865432Y77145000D03*
X172865432Y96297725D03*
X172865432Y133860332D03*
X165780764Y61745000D03*
X129681264Y111944503D03*
X172865432Y115097725D03*
X191909333Y93812617D03*
X186580764Y62345000D03*
X191909333Y122370500D03*
X191909333Y131612617D03*
X191909333Y112612617D03*
X191909333Y74545000D03*
X129681264Y112944006D03*
X210859097Y69745000D03*
X210853016Y118448150D03*
X210859097Y126745000D03*
X129681264Y113943509D03*
X210859097Y89005601D03*
X210859097Y107805601D03*
X206780764Y58945000D03*
X229980764Y88945000D03*
X229980764Y126745000D03*
X229955463Y118745500D03*
X229980764Y69745000D03*
X129681264Y114943012D03*
X229980764Y58345000D03*
X229955463Y107745000D03*
X-3746988Y79145000D03*
X7491764Y48945000D03*
X76991264Y105145000D03*
X208554713Y79918949D03*
X197180764Y51345000D03*
X129681264Y104947982D03*
X-4471988Y68481247D03*
X76991264Y106145000D03*
X-3746433Y80144502D03*
X209980764Y67945000D03*
X208551337Y80946925D03*
X129681264Y105947485D03*
X-5232736Y86545000D03*
X76991264Y107345000D03*
X-3746508Y81144004D03*
X208580764Y81945994D03*
X129681264Y106946988D03*
X210159597Y86945000D03*
X-3746110Y82168205D03*
X76991264Y108345000D03*
X-4508236Y106123611D03*
X208580764Y82945497D03*
X209380764Y107945000D03*
X129681264Y107946491D03*
X208593665Y83957194D03*
X208580764Y127345000D03*
X129681264Y108945994D03*
X90407034Y113217164D03*
X129681264Y117945000D03*
X90403239Y114222900D03*
X129681264Y116945000D03*
X118080420Y98846032D03*
X117487392Y94545000D03*
X88738875Y94914500D03*
X89241564Y124286392D03*
X127019000Y127306764D03*
X91491764Y121435858D03*
X83491764Y127345000D03*
X124180764Y105145000D03*
X123264748Y104745099D03*
X124380764Y106145000D03*
X126180764Y122745000D03*
X115780764Y124945000D03*
X76991264Y116344503D03*
X129681264Y115942515D03*
X119642075Y113521722D03*
X86797143Y113370547D03*
M02*
