%TF.GenerationSoftware,KiCad,Pcbnew,7.0.8*%
%TF.CreationDate,2024-10-02T10:44:01+02:00*%
%TF.ProjectId,chastity,63686173-7469-4747-992e-6b696361645f,rev?*%
%TF.SameCoordinates,Original*%
%TF.FileFunction,Paste,Top*%
%TF.FilePolarity,Positive*%
%FSLAX46Y46*%
G04 Gerber Fmt 4.6, Leading zero omitted, Abs format (unit mm)*
G04 Created by KiCad (PCBNEW 7.0.8) date 2024-10-02 10:44:01*
%MOMM*%
%LPD*%
G01*
G04 APERTURE LIST*
G04 Aperture macros list*
%AMRoundRect*
0 Rectangle with rounded corners*
0 $1 Rounding radius*
0 $2 $3 $4 $5 $6 $7 $8 $9 X,Y pos of 4 corners*
0 Add a 4 corners polygon primitive as box body*
4,1,4,$2,$3,$4,$5,$6,$7,$8,$9,$2,$3,0*
0 Add four circle primitives for the rounded corners*
1,1,$1+$1,$2,$3*
1,1,$1+$1,$4,$5*
1,1,$1+$1,$6,$7*
1,1,$1+$1,$8,$9*
0 Add four rect primitives between the rounded corners*
20,1,$1+$1,$2,$3,$4,$5,0*
20,1,$1+$1,$4,$5,$6,$7,0*
20,1,$1+$1,$6,$7,$8,$9,0*
20,1,$1+$1,$8,$9,$2,$3,0*%
%AMRotRect*
0 Rectangle, with rotation*
0 The origin of the aperture is its center*
0 $1 length*
0 $2 width*
0 $3 Rotation angle, in degrees counterclockwise*
0 Add horizontal line*
21,1,$1,$2,0,0,$3*%
G04 Aperture macros list end*
%ADD10RoundRect,0.250000X-0.625000X0.375000X-0.625000X-0.375000X0.625000X-0.375000X0.625000X0.375000X0*%
%ADD11RoundRect,0.140000X-0.140000X-0.170000X0.140000X-0.170000X0.140000X0.170000X-0.140000X0.170000X0*%
%ADD12RoundRect,0.135000X0.185000X-0.135000X0.185000X0.135000X-0.185000X0.135000X-0.185000X-0.135000X0*%
%ADD13RoundRect,0.140000X0.140000X0.170000X-0.140000X0.170000X-0.140000X-0.170000X0.140000X-0.170000X0*%
%ADD14RoundRect,0.140000X0.170000X-0.140000X0.170000X0.140000X-0.170000X0.140000X-0.170000X-0.140000X0*%
%ADD15RoundRect,0.050000X-0.050000X-0.387500X0.050000X-0.387500X0.050000X0.387500X-0.050000X0.387500X0*%
%ADD16RoundRect,0.050000X-0.387500X-0.050000X0.387500X-0.050000X0.387500X0.050000X-0.387500X0.050000X0*%
%ADD17RoundRect,0.249999X-0.395001X-0.395001X0.395001X-0.395001X0.395001X0.395001X-0.395001X0.395001X0*%
%ADD18RoundRect,0.135000X-0.185000X0.135000X-0.185000X-0.135000X0.185000X-0.135000X0.185000X0.135000X0*%
%ADD19R,1.100000X0.540000*%
%ADD20R,1.100000X0.300000*%
%ADD21R,0.540000X1.100000*%
%ADD22R,0.300000X1.100000*%
%ADD23RoundRect,0.150000X0.150000X-0.650000X0.150000X0.650000X-0.150000X0.650000X-0.150000X-0.650000X0*%
%ADD24R,1.000000X1.700000*%
%ADD25RoundRect,0.140000X-0.021213X0.219203X-0.219203X0.021213X0.021213X-0.219203X0.219203X-0.021213X0*%
%ADD26RoundRect,0.135000X0.135000X0.185000X-0.135000X0.185000X-0.135000X-0.185000X0.135000X-0.185000X0*%
%ADD27RoundRect,0.150000X-0.150000X0.512500X-0.150000X-0.512500X0.150000X-0.512500X0.150000X0.512500X0*%
%ADD28RoundRect,0.140000X-0.170000X0.140000X-0.170000X-0.140000X0.170000X-0.140000X0.170000X0.140000X0*%
%ADD29RoundRect,0.225000X0.225000X0.250000X-0.225000X0.250000X-0.225000X-0.250000X0.225000X-0.250000X0*%
%ADD30RoundRect,0.150000X0.150000X-0.512500X0.150000X0.512500X-0.150000X0.512500X-0.150000X-0.512500X0*%
%ADD31R,1.700000X1.000000*%
%ADD32RoundRect,0.140000X0.219203X0.021213X0.021213X0.219203X-0.219203X-0.021213X-0.021213X-0.219203X0*%
%ADD33RotRect,1.400000X1.200000X135.000000*%
G04 APERTURE END LIST*
D10*
%TO.C,F1*%
X92091764Y125945000D03*
X92091764Y128745000D03*
%TD*%
D11*
%TO.C,C45*%
X70271764Y100110302D03*
X69311764Y100110302D03*
%TD*%
D12*
%TO.C,R18*%
X119530067Y118972118D03*
X119530067Y119992118D03*
%TD*%
D13*
%TO.C,C32*%
X124897560Y124575540D03*
X123937560Y124575540D03*
%TD*%
D14*
%TO.C,C31*%
X112662918Y128999888D03*
X112662918Y129959888D03*
%TD*%
D11*
%TO.C,C18*%
X88969775Y105452286D03*
X88009775Y105452286D03*
%TD*%
D10*
%TO.C,F2*%
X124780764Y128882118D03*
X124780764Y126082118D03*
%TD*%
D12*
%TO.C,R10*%
X87178681Y98255000D03*
X87178681Y97235000D03*
%TD*%
D15*
%TO.C,U3*%
X82800099Y114553640D03*
X83200099Y114553640D03*
X83600099Y114553640D03*
X84000099Y114553640D03*
X84400099Y114553640D03*
X84800099Y114553640D03*
X85200099Y114553640D03*
X85600099Y114553640D03*
X86000099Y114553640D03*
X86400099Y114553640D03*
X86800099Y114553640D03*
X87200099Y114553640D03*
X87600099Y114553640D03*
X88000099Y114553640D03*
D16*
X88837599Y113716140D03*
X88837599Y113316140D03*
X88837599Y112916140D03*
X88837599Y112516140D03*
X88837599Y112116140D03*
X88837599Y111716140D03*
X88837599Y111316140D03*
X88837599Y110916140D03*
X88837599Y110516140D03*
X88837599Y110116140D03*
X88837599Y109716140D03*
X88837599Y109316140D03*
X88837599Y108916140D03*
X88837599Y108516140D03*
D15*
X88000099Y107678640D03*
X87600099Y107678640D03*
X87200099Y107678640D03*
X86800099Y107678640D03*
X86400099Y107678640D03*
X86000099Y107678640D03*
X85600099Y107678640D03*
X85200099Y107678640D03*
X84800099Y107678640D03*
X84400099Y107678640D03*
X84000099Y107678640D03*
X83600099Y107678640D03*
X83200099Y107678640D03*
X82800099Y107678640D03*
D16*
X81962599Y108516140D03*
X81962599Y108916140D03*
X81962599Y109316140D03*
X81962599Y109716140D03*
X81962599Y110116140D03*
X81962599Y110516140D03*
X81962599Y110916140D03*
X81962599Y111316140D03*
X81962599Y111716140D03*
X81962599Y112116140D03*
X81962599Y112516140D03*
X81962599Y112916140D03*
X81962599Y113316140D03*
X81962599Y113716140D03*
D17*
X86200099Y110316140D03*
X86200099Y111916140D03*
X84600099Y110316140D03*
X84600099Y111916140D03*
%TD*%
D18*
%TO.C,R27*%
X128780764Y74255000D03*
X128780764Y73235000D03*
%TD*%
D12*
%TO.C,R6*%
X87691764Y119855000D03*
X87691764Y118835000D03*
%TD*%
D19*
%TO.C,SPLIT_R1*%
X116171764Y95642805D03*
X116171764Y94892805D03*
D20*
X116171764Y93692805D03*
X116171764Y92692805D03*
X116171764Y92192805D03*
X116171764Y91192805D03*
D19*
X116171764Y89992805D03*
X116171764Y89242805D03*
X116171764Y89242805D03*
X116171764Y89992805D03*
D20*
X116171764Y90692805D03*
X116171764Y91692805D03*
X116171764Y93192805D03*
X116171764Y94192805D03*
D19*
X116171764Y94892805D03*
X116171764Y95642805D03*
%TD*%
D11*
%TO.C,C41*%
X70247728Y81167508D03*
X69287728Y81167508D03*
%TD*%
D21*
%TO.C,J1*%
X89650621Y130027621D03*
X88900621Y130027621D03*
D22*
X88200621Y130027621D03*
X87200621Y130027621D03*
X85700621Y130027621D03*
X84700621Y130027621D03*
D21*
X84000621Y130027621D03*
X83250621Y130027621D03*
X83250621Y130027621D03*
X84000621Y130027621D03*
D22*
X85200621Y130027621D03*
X86200621Y130027621D03*
X86700621Y130027621D03*
X87700621Y130027621D03*
D21*
X88900621Y130027621D03*
X89650621Y130027621D03*
%TD*%
D23*
%TO.C,U1*%
X78586764Y124745000D03*
X79856764Y124745000D03*
X81126764Y124745000D03*
X82396764Y124745000D03*
X82396764Y117545000D03*
X81126764Y117545000D03*
X79856764Y117545000D03*
X78586764Y117545000D03*
%TD*%
D12*
%TO.C,R12*%
X74391764Y68755000D03*
X74391764Y67735000D03*
%TD*%
D18*
%TO.C,R16*%
X117803279Y90692214D03*
X117803279Y89672214D03*
%TD*%
D14*
%TO.C,C17*%
X85205628Y117425000D03*
X85205628Y116465000D03*
%TD*%
%TO.C,C10*%
X89193640Y117396716D03*
X89193640Y116436716D03*
%TD*%
D24*
%TO.C,BOOT2*%
X131280764Y71295000D03*
X131280764Y64995000D03*
X127480764Y71295000D03*
X127480764Y64995000D03*
%TD*%
D25*
%TO.C,C36*%
X115956025Y104515440D03*
X115277203Y103836618D03*
%TD*%
D26*
%TO.C,R23*%
X125404071Y99368926D03*
X124384071Y99368926D03*
%TD*%
D11*
%TO.C,C48*%
X130300764Y61945000D03*
X131260764Y61945000D03*
%TD*%
D18*
%TO.C,R9*%
X76346638Y126864986D03*
X76346638Y127884986D03*
%TD*%
%TO.C,R22*%
X122580764Y128554609D03*
X122580764Y127534609D03*
%TD*%
D12*
%TO.C,R26*%
X127580764Y73235000D03*
X127580764Y74255000D03*
%TD*%
D27*
%TO.C,U7*%
X131730764Y130882500D03*
X130780764Y130882500D03*
X129830764Y130882500D03*
X129830764Y128607500D03*
X130780764Y128607500D03*
X131730764Y128607500D03*
%TD*%
D11*
%TO.C,C43*%
X70236956Y60738731D03*
X69276956Y60738731D03*
%TD*%
D25*
%TO.C,C5*%
X82052353Y102905589D03*
X82731175Y103584411D03*
%TD*%
D28*
%TO.C,C8*%
X74412587Y126857504D03*
X74412587Y127817504D03*
%TD*%
D29*
%TO.C,C20*%
X124992560Y118882118D03*
X123442560Y118882118D03*
%TD*%
D30*
%TO.C,U4*%
X91491764Y122882500D03*
X92441764Y120607500D03*
X90541764Y120607500D03*
%TD*%
%TO.C,U9*%
X123467560Y120744618D03*
X125367560Y120744618D03*
X124417560Y123019618D03*
%TD*%
D11*
%TO.C,C46*%
X132182234Y73750530D03*
X133142234Y73750530D03*
%TD*%
%TO.C,C42*%
X132220764Y110145000D03*
X133180764Y110145000D03*
%TD*%
D28*
%TO.C,C4*%
X72891764Y131185642D03*
X72891764Y132145642D03*
%TD*%
D11*
%TO.C,C24*%
X124282009Y115382294D03*
X125242009Y115382294D03*
%TD*%
%TO.C,C25*%
X121361054Y103493392D03*
X122321054Y103493392D03*
%TD*%
D19*
%TO.C,SPLIT_L1*%
X89911764Y89240000D03*
X89911764Y89990000D03*
D20*
X89911764Y90690000D03*
X89911764Y91690000D03*
X89911764Y93190000D03*
X89911764Y94190000D03*
D19*
X89911764Y94890000D03*
X89911764Y95640000D03*
X89911764Y95640000D03*
X89911764Y94890000D03*
D20*
X89911764Y93690000D03*
X89911764Y92690000D03*
X89911764Y92190000D03*
X89911764Y91190000D03*
D19*
X89911764Y89990000D03*
X89911764Y89240000D03*
%TD*%
D11*
%TO.C,C26*%
X124300764Y110259545D03*
X125260764Y110259545D03*
%TD*%
%TO.C,C14*%
X88971764Y104345000D03*
X88011764Y104345000D03*
%TD*%
D14*
%TO.C,C30*%
X120981310Y116023597D03*
X120981310Y116983597D03*
%TD*%
D30*
%TO.C,U12*%
X119141152Y125744618D03*
X120091152Y125744618D03*
X121041152Y125744618D03*
X121041152Y128019618D03*
X120091152Y128019618D03*
X119141152Y128019618D03*
%TD*%
D11*
%TO.C,C11*%
X92300550Y116245558D03*
X91340550Y116245558D03*
%TD*%
D18*
%TO.C,R3*%
X77777553Y130599625D03*
X77777553Y131619625D03*
%TD*%
D28*
%TO.C,C15*%
X90291764Y108865000D03*
X90291764Y109825000D03*
%TD*%
D14*
%TO.C,C27*%
X119183461Y116601816D03*
X119183461Y117561816D03*
%TD*%
D31*
%TO.C,RST1*%
X85241764Y93645000D03*
X78941764Y93645000D03*
X85241764Y97445000D03*
X78941764Y97445000D03*
%TD*%
D13*
%TO.C,C1*%
X91011764Y124438422D03*
X91971764Y124438422D03*
%TD*%
D12*
%TO.C,R8*%
X75382478Y134250834D03*
X75382478Y133230834D03*
%TD*%
%TO.C,R4*%
X86604271Y119855000D03*
X86604271Y118835000D03*
%TD*%
D28*
%TO.C,R20*%
X130780764Y127027064D03*
X130780764Y126067064D03*
%TD*%
D21*
%TO.C,J4*%
X122601032Y130156728D03*
X121851032Y130156728D03*
D22*
X120651032Y130156728D03*
X119651032Y130156728D03*
X119151032Y130156728D03*
X118151032Y130156728D03*
D21*
X116951032Y130156728D03*
X116201032Y130156728D03*
X116201032Y130156728D03*
X116951032Y130156728D03*
D22*
X117651032Y130156728D03*
X118651032Y130156728D03*
X120151032Y130156728D03*
X121151032Y130156728D03*
D21*
X121851032Y130156728D03*
X122601032Y130156728D03*
%TD*%
D32*
%TO.C,C37*%
X120272027Y102740590D03*
X119593205Y103419412D03*
%TD*%
D28*
%TO.C,C34*%
X133191930Y129112784D03*
X133191930Y128152784D03*
%TD*%
D13*
%TO.C,C33*%
X124131661Y117560152D03*
X123171661Y117560152D03*
%TD*%
D14*
%TO.C,R21*%
X129815844Y132504589D03*
X129815844Y133464589D03*
%TD*%
D18*
%TO.C,R14*%
X76879228Y67746337D03*
X76879228Y68766337D03*
%TD*%
D12*
%TO.C,R15*%
X118580764Y94235000D03*
X118580764Y95255000D03*
%TD*%
D13*
%TO.C,C47*%
X70244471Y55875831D03*
X71204471Y55875831D03*
%TD*%
D11*
%TO.C,C29*%
X121346585Y104585836D03*
X122306585Y104585836D03*
%TD*%
D14*
%TO.C,C21*%
X122118607Y116573532D03*
X122118607Y117533532D03*
%TD*%
D18*
%TO.C,R25*%
X118580764Y105455000D03*
X118580764Y104435000D03*
%TD*%
D12*
%TO.C,R2*%
X87689743Y95447264D03*
X87689743Y94427264D03*
%TD*%
D30*
%TO.C,U2*%
X86215356Y127882500D03*
X87165356Y127882500D03*
X88115356Y127882500D03*
X88115356Y125607500D03*
X87165356Y125607500D03*
X86215356Y125607500D03*
%TD*%
%TO.C,U5*%
X74409989Y131662412D03*
X75359989Y131662412D03*
X76309989Y131662412D03*
X76309989Y129387412D03*
X75359989Y129387412D03*
X74409989Y129387412D03*
%TD*%
D28*
%TO.C,R17*%
X128271012Y129558607D03*
X128271012Y128598607D03*
%TD*%
D29*
%TO.C,C9*%
X90516764Y118745000D03*
X92066764Y118745000D03*
%TD*%
D13*
%TO.C,C2*%
X90245865Y117423034D03*
X91205865Y117423034D03*
%TD*%
D17*
%TO.C,U10*%
X117515629Y112058355D03*
X117515629Y110458355D03*
X119115629Y112058355D03*
X119115629Y110458355D03*
D16*
X114878129Y113858355D03*
X114878129Y113458355D03*
X114878129Y113058355D03*
X114878129Y112658355D03*
X114878129Y112258355D03*
X114878129Y111858355D03*
X114878129Y111458355D03*
X114878129Y111058355D03*
X114878129Y110658355D03*
X114878129Y110258355D03*
X114878129Y109858355D03*
X114878129Y109458355D03*
X114878129Y109058355D03*
X114878129Y108658355D03*
D15*
X115715629Y107820855D03*
X116115629Y107820855D03*
X116515629Y107820855D03*
X116915629Y107820855D03*
X117315629Y107820855D03*
X117715629Y107820855D03*
X118115629Y107820855D03*
X118515629Y107820855D03*
X118915629Y107820855D03*
X119315629Y107820855D03*
X119715629Y107820855D03*
X120115629Y107820855D03*
X120515629Y107820855D03*
X120915629Y107820855D03*
D16*
X121753129Y108658355D03*
X121753129Y109058355D03*
X121753129Y109458355D03*
X121753129Y109858355D03*
X121753129Y110258355D03*
X121753129Y110658355D03*
X121753129Y111058355D03*
X121753129Y111458355D03*
X121753129Y111858355D03*
X121753129Y112258355D03*
X121753129Y112658355D03*
X121753129Y113058355D03*
X121753129Y113458355D03*
X121753129Y113858355D03*
D15*
X120915629Y114695855D03*
X120515629Y114695855D03*
X120115629Y114695855D03*
X119715629Y114695855D03*
X119315629Y114695855D03*
X118915629Y114695855D03*
X118515629Y114695855D03*
X118115629Y114695855D03*
X117715629Y114695855D03*
X117315629Y114695855D03*
X116915629Y114695855D03*
X116515629Y114695855D03*
X116115629Y114695855D03*
X115715629Y114695855D03*
%TD*%
D33*
%TO.C,Y1*%
X85134397Y100384072D03*
X83578762Y101939707D03*
X84780843Y103141788D03*
X86336478Y101586153D03*
%TD*%
D32*
%TO.C,C7*%
X86735578Y103368584D03*
X87414400Y102689762D03*
%TD*%
D13*
%TO.C,C40*%
X134156985Y123878281D03*
X133196985Y123878281D03*
%TD*%
D18*
%TO.C,R1*%
X88291764Y89235000D03*
X88291764Y90255000D03*
%TD*%
D24*
%TO.C,BOOT1*%
X76891764Y65895000D03*
X76891764Y59595000D03*
X73091764Y65895000D03*
X73091764Y59595000D03*
%TD*%
D18*
%TO.C,R28*%
X129980764Y74255000D03*
X129980764Y73235000D03*
%TD*%
D14*
%TO.C,C23*%
X113476366Y114093807D03*
X113476366Y115053807D03*
%TD*%
%TO.C,C16*%
X86258494Y117425000D03*
X86258494Y116465000D03*
%TD*%
%TO.C,C3*%
X78595535Y127547637D03*
X78595535Y126587637D03*
%TD*%
D18*
%TO.C,R11*%
X85894533Y104156806D03*
X85894533Y105176806D03*
%TD*%
%TO.C,R5*%
X90293266Y127390546D03*
X90293266Y128410546D03*
%TD*%
D11*
%TO.C,C39*%
X70271764Y119445000D03*
X69311764Y119445000D03*
%TD*%
D26*
%TO.C,R24*%
X114844091Y129218496D03*
X113824091Y129218496D03*
%TD*%
D14*
%TO.C,C19*%
X88056343Y116846781D03*
X88056343Y115886781D03*
%TD*%
%TO.C,C38*%
X131727709Y132516448D03*
X131727709Y133476448D03*
%TD*%
D11*
%TO.C,C44*%
X132220764Y90745000D03*
X133180764Y90745000D03*
%TD*%
%TO.C,C22*%
X124274338Y116487036D03*
X125234338Y116487036D03*
%TD*%
D23*
%TO.C,U8*%
X113475764Y120145000D03*
X114745764Y120145000D03*
X116015764Y120145000D03*
X117285764Y120145000D03*
X117285764Y127345000D03*
X116015764Y127345000D03*
X114745764Y127345000D03*
X113475764Y127345000D03*
%TD*%
D24*
%TO.C,RST2*%
X129206298Y97588826D03*
X129206298Y91288826D03*
X125406298Y97588826D03*
X125406298Y91288826D03*
%TD*%
D18*
%TO.C,R13*%
X75651158Y67732538D03*
X75651158Y68752538D03*
%TD*%
D11*
%TO.C,C13*%
X92316904Y115174382D03*
X91356904Y115174382D03*
%TD*%
D12*
%TO.C,R19*%
X120630067Y118962118D03*
X120630067Y119982118D03*
%TD*%
D33*
%TO.C,Y2*%
X118959701Y101904798D03*
X117404066Y103460433D03*
X116201985Y102258352D03*
X117757620Y100702717D03*
%TD*%
D18*
%TO.C,R7*%
X84691764Y127435000D03*
X84691764Y128455000D03*
%TD*%
D14*
%TO.C,C12*%
X80551399Y114916991D03*
X80551399Y113956991D03*
%TD*%
%TO.C,C28*%
X118130595Y116601816D03*
X118130595Y117561816D03*
%TD*%
M02*
