  0
SECTION
  2
HEADER
  9
$ANGBASE
  50
0.0
  9
$ANGDIR
  70
1
  9
$MEASUREMENT
  70
1
  0
ENDSEC
  0
SECTION
  2
TABLES
  0
TABLE
  2
LTYPE
  70
4
  0
LTYPE
  5
40F
  2
CONTINUOUS
  70
0
  3
Solid line
  72
65
  73
0
  40
0.0
  0
LTYPE
  5
410
  2
DASHDOT
 70
0
  3
Dash Dot ____ _ ____ _
 72
65
 73
4
 40
2.0
 49
1.25
 49
-0.25
 49
0.25
 49
-0.25
  0
LTYPE
  5
411
  2
DASHED
 70
0
  3
Dashed __ __ __ __ __
 72
65
 73
2
 40
0.75
 49
0.5
 49
-0.25
  0
LTYPE
  5
43B
  2
DOTTED
 70
0
  3
Dotted .  .  .  .
 72
65
 73
2
 40
0.2
 49
0.0
 49
-0.2
  0
ENDTAB
  0
TABLE
  2
STYLE
  70
4
  0
STYLE
  2
KICAD
  70
0
  40
0
  41
1
  42
1
  50
0
  71
0
  3
isocp.shx
  0
STYLE
  2
KICADB
  70
0
  40
0
  41
1
  42
1
  50
0
  71
0
  3
isocp.shx
  0
STYLE
  2
KICADI
  70
0
  40
0
  41
1
  42
1
  50
15
  71
0
  3
isocp.shx
  0
STYLE
  2
KICADBI
  70
0
  40
0
  41
1
  42
1
  50
15
  71
0
  3
isocp.shx
  0
ENDTAB
  0
TABLE
  2
LAYER
  70
1
  0
LAYER
  2
BLACK
  70
0
  62
7
  6
CONTINUOUS
  0
ENDTAB
  0
ENDSEC
  0
SECTION
  2
ENTITIES
0
LINE
8
BLACK
6
CONTINUOUS
10
477.6245169999999689
20
-160.8207229999999868
11
477.6745719999999551
21
-160.8189619999999991
0
LINE
8
BLACK
6
CONTINUOUS
10
480.0773059999999646
20
-160.7660769999999957
11
480.1273369999999545
21
-160.7655699999999968
0
LINE
8
BLACK
6
CONTINUOUS
10
462.3473899999999617
20
-163.5201079999999934
11
462.4429480000000012
21
-163.4907690000000002
0
LINE
8
BLACK
6
CONTINUOUS
10
460.7708039999999983
20
-164.0060979999999802
11
460.8185829999999896
21
-163.9913530000000037
0
LINE
8
BLACK
6
CONTINUOUS
10
465.0257829999999899
20
-162.7155259999999828
11
465.1216670000000022
21
-162.6879699999999787
0
LINE
8
BLACK
6
CONTINUOUS
10
499.9577289999999721
20
-161.5032239999999888
11
500.056492999999989
21
-161.5151850000000024
0
LINE
8
BLACK
6
CONTINUOUS
10
507.1239539999999693
20
-162.5658669999999972
11
507.1737549999999715
21
-162.5733429999999942
0
LINE
8
BLACK
6
CONTINUOUS
10
507.9209869999999682
20
-162.6861669999999833
11
507.9708089999999743
21
-162.6937479999999994
0
LINE
8
BLACK
6
CONTINUOUS
10
485.6150129999999763
20
-160.8067549999999812
11
485.7146699999999555
21
-160.808497999999986
0
LINE
8
BLACK
6
CONTINUOUS
10
510.0115059999999971
20
-163.0171789999999987
11
510.0611799999999789
21
-163.0254669999999919
0
LINE
8
BLACK
6
CONTINUOUS
10
517.7071280000000115
20
-164.8800669999999968
11
517.7998759999999265
21
-164.9135069999999814
0
LINE
8
BLACK
6
CONTINUOUS
10
494.297918999999979
20
-161.0400530000000003
11
494.3976009999999519
21
-161.0450969999999984
0
LINE
8
BLACK
6
CONTINUOUS
10
450.1398949999999672
20
-166.886256000000003
11
450.237277000000006
21
-166.8666900000000055
0
LINE
8
BLACK
6
CONTINUOUS
10
507.5722419999999602
20
-162.6333209999999951
11
507.6220629999999687
21
-162.6408490000000029
0
LINE
8
BLACK
6
CONTINUOUS
10
460.0540619999999876
20
-164.2270049999999912
11
460.1018489999999588
21
-164.2122949999999832
0
LINE
8
BLACK
6
CONTINUOUS
10
504.8388999999999669
20
-162.2202859999999873
11
504.8883929999999509
21
-162.2279570000000035
0
LINE
8
BLACK
6
CONTINUOUS
10
511.7446410000000014
20
-163.3246639999999843
11
511.7939529999999877
21
-163.3340579999999989
0
LINE
8
BLACK
6
CONTINUOUS
10
427.1892729999999574
20
-166.3837279999999907
11
427.2792269999999917
21
-166.3954650000000015
0
LINE
8
BLACK
6
CONTINUOUS
10
470.461311999999964
20
-161.4757290000000012
11
470.5597479999999564
21
-161.4600759999999866
0
LINE
8
BLACK
6
CONTINUOUS
10
469.96977899999996
20
-161.5572959999999796
11
470.0679989999999862
21
-161.5405449999999803
0
LINE
8
BLACK
6
CONTINUOUS
10
479.37667399999998
20
-160.7754139999999836
11
479.4267289999999662
21
-160.7745830000000069
0
LINE
8
BLACK
6
CONTINUOUS
10
423.6486679999999865
20
-79.9457079999999962
11
423.6157649999999535
21
-79.9863440000000026
0
LINE
8
BLACK
6
CONTINUOUS
10
505.8306159999999636
20
-162.3717739999999878
11
505.8802859999999555
21
-162.3792709999999886
0
LINE
8
BLACK
6
CONTINUOUS
10
509.2656669999999508
20
-162.8953929999999843
11
509.3154250000000047
21
-162.9033729999999878
0
LINE
8
BLACK
6
CONTINUOUS
10
541.3418130000000019
20
-176.3427309999999864
11
541.2565979999999399
21
-176.370775999999978
0
LINE
8
BLACK
6
CONTINUOUS
10
459.8628969999999754
20
-164.2857829999999808
11
459.9584799999999518
21
-164.2564009999999826
0
LINE
8
BLACK
6
CONTINUOUS
10
542.4568349999999555
20
-175.8447309999999959
11
542.3705870000000004
21
-175.8918349999999862
0
LINE
8
BLACK
6
CONTINUOUS
10
424.6374059999999986
20
-79.0170219999999972
11
424.5949719999999843
21
-79.047189000000003
0
LINE
8
BLACK
6
CONTINUOUS
10
516.2055460000000267
20
-164.3869799999999941
11
516.3003099999999677
21
-164.4155969999999911
0
LINE
8
BLACK
6
CONTINUOUS
10
462.2518339999999739
20
-163.5494719999999802
11
462.3473899999999617
21
-163.5201079999999934
0
LINE
8
BLACK
6
CONTINUOUS
10
422.5550779999999804
20
-82.6369179999999943
11
422.5475189999999657
21
-82.7290220000000005
0
LINE
8
BLACK
6
CONTINUOUS
10
484.1203989999999635
20
-160.7825079999999787
11
484.2200419999999781
21
-160.783963
0
LINE
8
BLACK
6
CONTINUOUS
10
506.128755999999953
20
-162.4166649999999947
11
506.1784639999999627
21
-162.4241379999999992
0
LINE
8
BLACK
6
CONTINUOUS
10
457.5668849999999566
20
-164.9815419999999904
11
457.66265199999998
21
-164.9530550000000062
0
LINE
8
BLACK
6
CONTINUOUS
10
422.7060199999999668
20
-81.7929499999999905
11
422.6815829999999892
21
-81.8874469999999945
0
LINE
8
BLACK
6
CONTINUOUS
10
478.87607799999995
20
-160.7849939999999833
11
478.9261409999999728
21
-160.7839069999999992
0
LINE
8
BLACK
6
CONTINUOUS
10
508.967016000000001
20
-162.847943999999984
11
509.0167979999999943
21
-162.8558160000000044
0
LINE
8
BLACK
6
CONTINUOUS
10
487.6094379999999546
20
-160.8420689999999809
11
487.7092329999999833
21
-160.8438629999999989
0
CIRCLE
8
BLACK
10
476.4892279999999687
20
-73.2618599999999986
40
0.8999999999999999
0
LINE
8
BLACK
6
CONTINUOUS
10
476.7738089999999715
20
-160.8556999999999846
11
476.8238339999999766
21
-160.8533709999999814
0
LINE
8
BLACK
6
CONTINUOUS
10
425.2094659999999635
20
-78.6653359999999964
11
425.1642749999999751
21
-78.6896649999999909
0
LINE
8
BLACK
6
CONTINUOUS
10
483.9210999999999672
20
-160.7797029999999836
11
484.020751999999959
21
-160.7810869999999852
0
LINE
8
BLACK
6
CONTINUOUS
10
505.8802859999999555
20
-162.3792709999999886
11
505.9299689999999714
21
-162.3867569999999887
0
LINE
8
BLACK
6
CONTINUOUS
10
472.9335779999999545
20
-161.1460139999999797
11
473.0329049999999711
21
-161.135358999999994
0
LINE
8
BLACK
6
CONTINUOUS
10
423.1089910000000032
20
-163.0081830000000025
11
423.1339339999999538
21
-163.0596259999999802
0
LINE
8
BLACK
6
CONTINUOUS
10
423.7855359999999791
20
-164.1737679999999955
11
423.8148919999999862
21
-164.2151690000000031
0
LINE
8
BLACK
6
CONTINUOUS
10
491.5038289999999961
20
-160.9299749999999847
11
491.603685999999982
21
-160.9330190000000016
0
LINE
8
BLACK
6
CONTINUOUS
10
426.8003809999999589
20
-78.1461219999999912
11
426.7067049999999995
21
-78.160933
0
LINE
8
BLACK
6
CONTINUOUS
10
540.0719500000000153
20
-176.6094410000000039
11
539.9879300000000057
21
-176.615491999999989
0
LINE
8
BLACK
6
CONTINUOUS
10
454.4951219999999807
20
-165.8546639999999854
11
454.591370999999981
21
-165.8287639999999783
0
LINE
8
BLACK
6
CONTINUOUS
10
503.4068719999999644
20
-161.9960729999999955
11
503.5054639999999608
21
-162.0115169999999978
0
LINE
8
BLACK
6
CONTINUOUS
10
460.8185829999999896
20
-163.9913530000000037
11
460.8663579999999911
21
-163.9766050000000064
0
LINE
8
BLACK
6
CONTINUOUS
10
426.7067049999999995
20
-78.160933
11
426.6127569999999878
21
-78.1776239999999945
0
LINE
8
BLACK
6
CONTINUOUS
10
455.0723289999999679
20
-165.6977210000000014
11
455.1684649999999692
21
-165.6712169999999844
0
LINE
8
BLACK
6
CONTINUOUS
10
422.82372799999996
20
-81.4155839999999955
11
422.7912829999999644
21
-81.5097119999999933
0
LINE
8
BLACK
6
CONTINUOUS
10
479.877159000000006
20
-160.7682839999999942
11
479.9271979999999758
21
-160.7676899999999875
0
LINE
8
BLACK
6
CONTINUOUS
10
477.9248629999999594
20
-160.8105180000000018
11
477.9749249999999847
21
-160.8089310000000012
0
LINE
8
BLACK
6
CONTINUOUS
10
506.5763670000000047
20
-162.4838019999999972
11
506.6261329999999816
21
-162.4912569999999903
0
LINE
8
BLACK
6
CONTINUOUS
10
493.9988129999999842
20
-161.0254419999999982
11
494.0985239999999976
21
-161.030225999999999
0
LINE
8
BLACK
6
CONTINUOUS
10
510.9043669999999793
20
-163.1706419999999866
11
510.9538900000000012
21
-163.1794260000000065
0
LINE
8
BLACK
6
CONTINUOUS
10
504.5915449999999964
20
-162.1818250000000035
11
504.6410019999999577
21
-162.1895319999999856
0
LINE
8
BLACK
6
CONTINUOUS
10
452.6624299999999721
20
-166.3247309999999857
11
452.7590909999999553
21
-166.3011259999999822
0
LINE
8
BLACK
6
CONTINUOUS
10
424.3384130000000027
20
-164.8633800000000065
11
424.4032369999999901
21
-164.9322789999999941
0
LINE
8
BLACK
6
CONTINUOUS
10
504.7399319999999534
20
-162.2049269999999979
11
504.7894059999999854
21
-162.2126140000000021
0
LINE
8
BLACK
6
CONTINUOUS
10
505.9299689999999714
20
-162.3867569999999887
11
505.9796519999999873
21
-162.3942439999999863
0
CIRCLE
8
BLACK
10
441.2299999999999613
20
-128.3408900000000017
40
0.8999999999999999
0
LINE
8
BLACK
6
CONTINUOUS
10
470.1662609999999631
20
-161.5240079999999807
11
470.2645689999999945
21
-161.5076959999999815
0
LINE
8
BLACK
6
CONTINUOUS
10
424.8760379999999941
20
-165.3713149999999814
11
424.9462969999999586
21
-165.4278539999999964
0
LINE
8
BLACK
6
CONTINUOUS
10
507.3231719999999996
20
-162.5957939999999837
11
507.3729829999999765
21
-162.6032859999999971
0
LINE
8
BLACK
6
CONTINUOUS
10
540.7469810000000052
20
-176.5082500000000039
11
540.6623250000000098
21
-176.526030999999989
0
LINE
8
BLACK
6
CONTINUOUS
10
503.6040759999999636
20
-162.0269759999999906
11
503.7027069999999753
21
-162.0424600000000055
0
LINE
8
BLACK
6
CONTINUOUS
10
465.9859589999999798
20
-162.4462330000000065
11
466.0821619999999825
21
-162.4201549999999941
0
LINE
8
BLACK
6
CONTINUOUS
10
539.4854729999999563
20
-176.6210079999999891
11
539.4020080000000235
21
-176.6167959999999937
0
LINE
8
BLACK
6
CONTINUOUS
10
479.0262649999999667
20
-160.7818409999999858
11
479.0763249999999971
21
-160.7808579999999949
0
LINE
8
BLACK
6
CONTINUOUS
10
495.7920569999999998
20
-161.1255409999999983
11
495.8915690000000041
21
-161.1320350000000019
0
LINE
8
BLACK
6
CONTINUOUS
10
458.5241110000000049
20
-164.6943809999999928
11
458.619780999999989
21
-164.6654139999999984
0
LINE
8
BLACK
6
CONTINUOUS
10
538.9028929999999491
20
-176.5607299999999782
11
538.8199859999999717
21
-176.5462550000000022
0
LINE
8
BLACK
6
CONTINUOUS
10
516.4894929999999249
20
-164.4736699999999985
11
516.5839069999999538
21
-164.5031349999999861
0
LINE
8
BLACK
6
CONTINUOUS
10
485.3160689999999704
20
-160.8015790000000038
11
485.4157129999999825
21
-160.8032890000000066
0
LINE
8
BLACK
6
CONTINUOUS
10
503.0126729999999498
20
-161.9346079999999972
11
503.1112009999999941
21
-161.9499199999999917
0
LINE
8
BLACK
6
CONTINUOUS
10
517.3347830000000158
20
-164.7494979999999885
11
517.4280689999999368
21
-164.7816629999999805
0
LINE
8
BLACK
6
CONTINUOUS
10
539.8201259999999593
20
-176.6231970000000047
11
539.7363429999999198
21
-176.6248479999999859
0
LINE
8
BLACK
6
CONTINUOUS
10
467.433435999999972
20
-162.0754019999999969
11
467.5303199999999606
21
-162.0524130000000014
0
LINE
8
BLACK
6
CONTINUOUS
10
483.3230909999999767
20
-160.7721420000000023
11
483.4227730000000065
21
-160.7733049999999935
0
LINE
8
BLACK
6
CONTINUOUS
10
454.783807999999965
20
-165.7766509999999869
11
454.8799999999999955
21
-165.7504449999999849
0
LINE
8
BLACK
6
CONTINUOUS
10
424.1503209999999626
20
-79.4115060000000028
11
424.1117419999999925
21
-79.4469780000000014
0
LINE
8
BLACK
6
CONTINUOUS
10
504.3444129999999745
20
-162.1431929999999966
11
504.3938200000000052
21
-162.1509289999999908
0
LINE
8
BLACK
6
CONTINUOUS
10
514.4815179999999373
20
-163.916608999999994
11
514.5781349999999748
21
-163.9406630000000007
0
LINE
8
BLACK
6
CONTINUOUS
10
425.3077809999999772
20
-165.6873789999999929
11
425.3821140000000014
21
-165.7346479999999929
0
LINE
8
BLACK
6
CONTINUOUS
10
458.8111049999999977
20
-164.6073569999999791
11
458.9067539999999781
21
-164.5782779999999832
0
LINE
8
BLACK
6
CONTINUOUS
10
509.7133269999999925
20
-162.9678789999999822
11
509.763040999999987
21
-162.9760259999999903
0
LINE
8
BLACK
6
CONTINUOUS
10
510.3094259999999736
20
-163.0673549999999921
11
510.3590599999999995
21
-163.0757959999999969
0
LINE
8
BLACK
6
CONTINUOUS
10
484.020751999999959
20
-160.7810869999999852
11
484.1203989999999635
21
-160.7825079999999787
0
LINE
8
BLACK
6
CONTINUOUS
10
511.991094999999973
20
-163.3719319999999868
11
512.0403519999999844
21
-163.3814769999999896
0
LINE
8
BLACK
6
CONTINUOUS
10
425.5309049999999615
20
-78.5111610000000013
11
425.484519999999975
21
-78.5314479999999975
0
LINE
8
BLACK
6
CONTINUOUS
10
494.8958690000000047
20
-161.0716679999999883
11
494.9954909999999586
21
-161.077258999999998
0
CIRCLE
8
BLACK
10
534.0699999999999363
20
-140.8104449999999872
40
0.8999999999999999
0
LINE
8
BLACK
6
CONTINUOUS
10
453.2420419999999694
20
-166.1810899999999833
11
453.3385609999999701
21
-166.1566990000000033
0
LINE
8
BLACK
6
CONTINUOUS
10
515.1558749999999236
20
-164.089901999999995
11
515.2518239999999423
21
-164.1156210000000044
0
LINE
8
BLACK
6
CONTINUOUS
10
423.8893459999999891
20
-79.6693739999999906
11
423.8538749999999595
21
-79.7079530000000034
0
LINE
8
BLACK
6
CONTINUOUS
10
462.5385119999999688
20
-163.4614530000000059
11
462.6340739999999983
21
-163.4321579999999869
0
LINE
8
BLACK
6
CONTINUOUS
10
489.3066409999999564
20
-160.8746869999999944
11
489.4065079999999739
21
-160.8768059999999878
0
LINE
8
BLACK
6
CONTINUOUS
10
487.0107919999999808
20
-160.831436999999994
11
487.1105499999999893
21
-160.8331989999999792
0
LINE
8
BLACK
6
CONTINUOUS
10
425.8579519999999548
20
-78.3813600000000008
11
425.8110110000000077
21
-78.3985959999999977
0
LINE
8
BLACK
6
CONTINUOUS
10
465.2175790000000006
20
-162.6605439999999874
11
465.3135169999999903
21
-162.6332439999999906
0
LINE
8
BLACK
6
CONTINUOUS
10
476.4236869999999726
20
-160.8728150000000028
11
476.4736979999999562
21
-160.8702849999999955
0
LINE
8
BLACK
6
CONTINUOUS
10
468.2100590000000011
20
-161.8984829999999988
11
468.3073859999999513
21
-161.877490999999992
0
LINE
8
BLACK
6
CONTINUOUS
10
424.5949719999999843
20
-79.047189000000003
11
424.5531080000000088
21
-79.0782839999999965
0
LINE
8
BLACK
6
CONTINUOUS
10
503.8013609999999858
20
-162.0579510000000028
11
503.9000369999999975
21
-162.0734510000000057
0
LINE
8
BLACK
6
CONTINUOUS
10
477.4743589999999926
20
-160.82624899999999
11
477.5244109999999864
21
-160.8243640000000028
0
LINE
8
BLACK
6
CONTINUOUS
10
514.0941589999999906
20
-163.8226319999999987
11
514.1911289999999326
21
-163.8457970000000046
0
LINE
8
BLACK
6
CONTINUOUS
10
481.3273140000000012
20
-160.7598859999999945
11
481.4272269999999594
21
-160.7599139999999807
0
LINE
8
BLACK
6
CONTINUOUS
10
475.4241619999999671
20
-160.9312219999999911
11
475.4741060000000061
21
-160.9279750000000035
0
LINE
8
BLACK
6
CONTINUOUS
10
479.6269360000000006
20
-160.7715419999999824
11
479.6769819999999527
21
-160.7708519999999908
0
LINE
8
BLACK
6
CONTINUOUS
10
426.1628019999999992
20
-166.1223799999999926
11
426.2446059999999761
21
-166.1526549999999816
0
LINE
8
BLACK
6
CONTINUOUS
10
476.5237099999999941
20
-160.8677519999999959
11
476.5737269999999626
21
-160.8652879999999925
0
LINE
8
BLACK
6
CONTINUOUS
10
498.6718169999999759
20
-161.361284999999981
11
498.7708559999999807
21
-161.3713369999999827
0
LINE
8
BLACK
6
CONTINUOUS
10
475.6239549999999667
20
-160.9183830000000057
11
475.6739139999999679
21
-160.9152799999999957
0
LINE
8
BLACK
6
CONTINUOUS
10
505.2847239999999829
20
-162.2889089999999896
11
505.3343150000000037
21
-162.2964779999999791
0
LINE
8
BLACK
6
CONTINUOUS
10
507.6718779999999924
20
-162.6483810000000005
11
507.7216999999999985
21
-162.6559220000000039
0
LINE
8
BLACK
6
CONTINUOUS
10
496.0905589999999847
20
-161.1453469999999868
11
496.1900349999999662
21
-161.1521620000000041
0
LINE
8
BLACK
6
CONTINUOUS
10
450.6264969999999721
20
-166.7866960000000063
11
450.7237250000000017
21
-166.7662689999999941
0
LINE
8
BLACK
6
CONTINUOUS
10
470.5597479999999564
20
-161.4600759999999866
11
470.6582279999999514
21
-161.4446329999999818
0
LINE
8
BLACK
6
CONTINUOUS
10
495.5929859999999962
20
-161.1128640000000019
11
495.6925269999999841
21
-161.119150999999988
0
LINE
8
BLACK
6
CONTINUOUS
10
489.9058699999999931
20
-160.8878709999999899
11
490.0057449999999903
21
-160.890184000000005
0
LINE
8
BLACK
6
CONTINUOUS
10
506.079044999999951
20
-162.4091980000000035
11
506.128755999999953
21
-162.4166649999999947
0
LINE
8
BLACK
6
CONTINUOUS
10
483.1237029999999777
20
-160.7699539999999843
11
483.2234009999999671
21
-160.7710249999999803
0
LINE
8
BLACK
6
CONTINUOUS
10
509.1661339999999996
20
-162.8795029999999997
11
509.2159019999999714
21
-162.8874469999999803
0
LINE
8
BLACK
6
CONTINUOUS
10
480.3274429999999597
20
-160.7638069999999857
11
480.3774629999999775
21
-160.7634280000000047
0
LINE
8
BLACK
6
CONTINUOUS
10
510.7061989999999696
20
-163.1357519999999965
11
510.7557609999999499
21
-163.1444160000000068
0
LINE
8
BLACK
6
CONTINUOUS
10
491.1043699999999603
20
-160.9183299999999974
11
491.2042359999999803
21
-160.9211659999999995
0
LINE
8
BLACK
6
CONTINUOUS
10
500.2539529999999672
20
-161.5395849999999882
11
500.3526469999999904
21
-161.5520209999999963
0
LINE
8
BLACK
6
CONTINUOUS
10
451.5600000000000023
20
-74.6604449999999957
11
427.3540360000000078
21
-78.0952130000000011
0
LINE
8
BLACK
6
CONTINUOUS
10
462.7296409999999582
20
-163.4028899999999851
11
462.8252129999999624
21
-163.3736499999999978
0
LINE
8
BLACK
6
CONTINUOUS
10
456.0329419999999914
20
-165.4285500000000013
11
456.1289170000000013
21
-165.4011589999999785
0
LINE
8
BLACK
6
CONTINUOUS
10
425.609190999999953
20
-165.8671909999999912
11
425.6862390000000005
21
-165.9082799999999907
0
LINE
8
BLACK
6
CONTINUOUS
10
484.8178739999999607
20
-160.7932480000000055
11
484.9175099999999929
21
-160.7948729999999955
0
LINE
8
BLACK
6
CONTINUOUS
10
510.8052999999999884
20
-163.1531359999999893
11
510.8548439999999573
21
-163.1618589999999926
0
LINE
8
BLACK
6
CONTINUOUS
10
424.1888999999999896
20
-79.3760350000000017
11
424.1503209999999626
21
-79.4115060000000028
0
LINE
8
BLACK
6
CONTINUOUS
10
461.869624999999985
20
-163.6670929999999942
11
461.9651739999999904
21
-163.6376630000000034
0
LINE
8
BLACK
6
CONTINUOUS
10
479.4267289999999662
20
-160.7745830000000069
11
479.4767829999999549
21
-160.7737979999999993
0
LINE
8
BLACK
6
CONTINUOUS
10
472.8342819999999733
20
-161.1568609999999921
11
472.9335779999999545
21
-161.1460139999999797
0
LINE
8
BLACK
6
CONTINUOUS
10
511.3002029999999536
20
-163.2419199999999933
11
511.3496359999999754
21
-163.2509599999999921
0
LINE
8
BLACK
6
CONTINUOUS
10
478.7759499999999662
20
-160.7872209999999882
11
478.826012999999989
21
-160.7860770000000059
0
LINE
8
BLACK
6
CONTINUOUS
10
471.0525470000000041
20
-161.3850060000000042
11
471.1512259999999515
21
-161.3706229999999948
0
LINE
8
BLACK
6
CONTINUOUS
10
457.7584099999999694
20
-164.9245129999999904
11
457.8541549999999916
21
-164.8959209999999871
0
LINE
8
BLACK
6
CONTINUOUS
10
466.5637529999999629
20
-162.2924639999999954
11
466.6601969999999824
21
-162.2674939999999992
0
LINE
8
BLACK
6
CONTINUOUS
10
496.4883729999999673
20
-161.1732759999999871
11
496.5877929999999765
21
-161.1805389999999818
0
LINE
8
BLACK
6
CONTINUOUS
10
490.5051299999999515
20
-160.9023349999999937
11
490.605006000000003
21
-160.9048860000000047
0
LINE
8
BLACK
6
CONTINUOUS
10
507.5224249999999984
20
-162.625805999999983
11
507.5722419999999602
21
-162.6333209999999951
0
LINE
8
BLACK
6
CONTINUOUS
10
471.3487039999999979
20
-161.3424809999999923
11
471.447496000000001
21
-161.3287200000000041
0
LINE
8
BLACK
6
CONTINUOUS
10
516.6782009999999445
20
-164.5328899999999805
11
516.7723720000000185
21
-164.5629380000000026
0
LINE
8
BLACK
6
CONTINUOUS
10
541.00143300000002
20
-176.4461089999999786
11
540.9165359999999509
21
-176.4682880000000011
0
LINE
8
BLACK
6
CONTINUOUS
10
506.2779069999999706
20
-162.4390649999999994
11
506.3276409999999714
21
-162.4465249999999799
0
LINE
8
BLACK
6
CONTINUOUS
10
508.7180399999999736
20
-162.8088799999999878
11
508.7678419999999733
21
-162.8166569999999922
0
LINE
8
BLACK
6
CONTINUOUS
10
504.2950050000000033
20
-162.1354529999999841
11
504.3444129999999745
21
-162.1431929999999966
0
LINE
8
BLACK
6
CONTINUOUS
10
424.6017929999999865
20
-165.1297079999999937
11
424.6693359999999871
21
-165.1924259999999833
0
LINE
8
BLACK
6
CONTINUOUS
10
507.2235589999999661
20
-162.5808219999999835
11
507.2733629999999607
21
-162.5883039999999937
0
LINE
8
BLACK
6
CONTINUOUS
10
487.1105499999999893
20
-160.8331989999999792
11
487.2103129999999851
21
-160.8349619999999902
0
LINE
8
BLACK
6
CONTINUOUS
10
476.3236779999999726
20
-160.8780189999999948
11
476.3736819999999739
21
-160.8754209999999887
0
LINE
8
BLACK
6
CONTINUOUS
10
503.2097430000000031
20
-161.9652719999999988
11
503.3082989999999768
21
-161.9806549999999845
0
LINE
8
BLACK
6
CONTINUOUS
10
478.17517399999997
20
-160.8028309999999976
11
478.2252379999999903
21
-160.8013650000000041
0
LINE
8
BLACK
6
CONTINUOUS
10
427.0999999999999659
20
-166.3704449999999895
11
427.1892729999999574
21
-166.3837279999999907
0
LINE
8
BLACK
6
CONTINUOUS
10
493.2008329999999887
20
-160.9900729999999953
11
493.3006079999999542
21
-160.9942219999999793
0
LINE
8
BLACK
6
CONTINUOUS
10
425.4383849999999825
20
-78.5527500000000032
11
425.3922489999999925
21
-78.5740529999999922
0
LINE
8
BLACK
6
CONTINUOUS
10
500.7472009999999614
20
-161.6033280000000047
11
500.8457879999999705
21
-161.6165320000000065
0
LINE
8
BLACK
6
CONTINUOUS
10
509.9618259999999736
20
-163.008893999999998
11
510.0115059999999971
21
-163.0171789999999987
0
LINE
8
BLACK
6
CONTINUOUS
10
513.5106140000000323
20
-163.6880559999999889
11
513.6080699999999979
21
-163.7099729999999909
0
LINE
8
BLACK
6
CONTINUOUS
10
512.4338450000000194
20
-163.4594139999999811
11
512.4829559999999447
21
-163.4693619999999896
0
LINE
8
BLACK
6
CONTINUOUS
10
423.8148919999999862
20
-164.2151690000000031
11
423.8442509999999857
21
-164.2565720000000056
0
LINE
8
BLACK
6
CONTINUOUS
10
460.0849999999999795
20
-73.2004439999999903
11
477.25
21
-70.9304449999999918
0
LINE
8
BLACK
6
CONTINUOUS
10
511.6459639999999922
20
-163.3060239999999794
11
511.6953019999999697
21
-163.3153439999999819
0
LINE
8
BLACK
6
CONTINUOUS
10
471.1512259999999515
20
-161.3706229999999948
11
471.2499449999999683
21
-161.3564489999999978
0
CIRCLE
8
BLACK
10
477.6295549999999821
20
-104.3904449999999997
40
0.8999999999999999
0
LINE
8
BLACK
6
CONTINUOUS
10
423.0610529999999585
20
-80.8581750000000028
11
423.0387369999999692
21
-80.9040279999999967
0
LINE
8
BLACK
6
CONTINUOUS
10
463.9724819999999568
20
-163.0256819999999891
11
464.068147999999951
21
-162.9970399999999984
0
LINE
8
BLACK
6
CONTINUOUS
10
426.923486999999966
20
-166.3392470000000003
11
427.0114019999999755
21
-166.3556179999999927
0
LINE
8
BLACK
6
CONTINUOUS
10
467.3366069999999581
20
-162.0986240000000009
11
467.433435999999972
21
-162.0754019999999969
0
LINE
8
BLACK
6
CONTINUOUS
10
423.8739459999999895
20
-164.2972010000000012
11
423.9036439999999857
21
-164.3378309999999942
0
LINE
8
BLACK
6
CONTINUOUS
10
493.101052999999979
20
-160.98599999999999
11
493.2008329999999887
21
-160.9900729999999953
0
LINE
8
BLACK
6
CONTINUOUS
10
517.4280689999999368
20
-164.7816629999999805
11
517.5212229999999636
21
-164.8141449999999963
0
LINE
8
BLACK
6
CONTINUOUS
10
494.7962369999999623
20
-161.0661719999999946
11
494.8958690000000047
21
-161.0716679999999883
0
LINE
8
BLACK
6
CONTINUOUS
10
497.8788049999999998
20
-161.2857889999999941
11
497.9779959999999619
21
-161.2947599999999966
0
LINE
8
BLACK
6
CONTINUOUS
10
424.3880759999999555
20
-79.2062999999999988
11
424.347440000000006
21
-79.2392030000000034
0
LINE
8
BLACK
6
CONTINUOUS
10
510.9538900000000012
20
-163.1794260000000065
11
511.0033879999999726
21
-163.1882739999999785
0
LINE
8
BLACK
6
CONTINUOUS
10
499.265754999999956
20
-161.4237159999999847
11
499.3646739999999795
21
-161.4346270000000061
0
LINE
8
BLACK
6
CONTINUOUS
10
461.3918840000000046
20
-163.8144089999999835
11
461.4874309999999582
21
-163.7849290000000053
0
LINE
8
BLACK
6
CONTINUOUS
10
459.7673069999999598
20
-164.3151459999999986
11
459.8628969999999754
21
-164.2857829999999808
0
LINE
8
BLACK
6
CONTINUOUS
10
453.9172199999999862
20
-166.0077650000000062
11
454.0135869999999727
21
-165.9825280000000021
0
LINE
8
BLACK
6
CONTINUOUS
10
470.0679989999999862
20
-161.5405449999999803
11
470.1662609999999631
21
-161.5240079999999807
0
LINE
8
BLACK
6
CONTINUOUS
10
511.7939529999999877
20
-163.3340579999999989
11
511.8432659999999714
21
-163.34344999999999
0
LINE
8
BLACK
6
CONTINUOUS
10
503.1112009999999941
20
-161.9499199999999917
11
503.2097430000000031
21
-161.9652719999999988
0
LINE
8
BLACK
6
CONTINUOUS
10
424.2742659999999546
20
-164.7929369999999949
11
424.3384130000000027
21
-164.8633800000000065
0
LINE
8
BLACK
6
CONTINUOUS
10
466.9497959999999921
20
-162.1938189999999906
11
467.0464269999999942
21
-162.1696890000000053
0
LINE
8
BLACK
6
CONTINUOUS
10
460.3407789999999977
20
-164.1387129999999956
11
460.3885629999999765
21
-164.1239889999999946
0
LINE
8
BLACK
6
CONTINUOUS
10
451.20943299999999
20
-166.6616689999999892
11
451.3064889999999991
21
-166.6402630000000045
0
LINE
8
BLACK
6
CONTINUOUS
10
463.589937999999961
20
-163.1409229999999866
11
463.6855569999999602
21
-163.1120200000000011
0
LINE
8
BLACK
6
CONTINUOUS
10
475.7238729999999691
20
-160.9121810000000039
11
475.7738410000000044
21
-160.9091549999999984
0
LINE
8
BLACK
6
CONTINUOUS
10
484.6185999999999581
20
-160.7900499999999795
11
484.7182369999999878
21
-160.7916380000000061
0
LINE
8
BLACK
6
CONTINUOUS
10
482.2260059999999839
20
-160.7625329999999906
11
482.325794999999971
21
-160.7631379999999979
0
LINE
8
BLACK
6
CONTINUOUS
10
480.177364999999952
20
-160.7651089999999954
11
480.2273940000000039
21
-160.7646469999999965
0
LINE
8
BLACK
6
CONTINUOUS
10
422.7912829999999644
20
-81.5097119999999933
11
422.7608569999999872
21
-81.604022999999998
0
LINE
8
BLACK
6
CONTINUOUS
10
491.7035399999999754
20
-160.9361150000000009
11
491.8033909999999764
21
-160.9392729999999858
0
LINE
8
BLACK
6
CONTINUOUS
10
492.4024179999999546
20
-160.9594669999999894
11
492.5022389999999746
21
-160.9630520000000047
0
LINE
8
BLACK
6
CONTINUOUS
10
510.1605019999999513
20
-163.0421399999999892
11
510.2101490000000013
21
-163.0505299999999806
0
LINE
8
BLACK
6
CONTINUOUS
10
466.0821619999999825
20
-162.4201549999999941
11
466.1783999999999537
21
-162.394250999999997
0
LINE
8
BLACK
6
CONTINUOUS
10
422.8409639999999854
20
-81.3686419999999941
11
422.82372799999996
21
-81.4155839999999955
0
LINE
8
BLACK
6
CONTINUOUS
10
423.7837669999999548
20
-79.785823999999991
11
423.7491309999999771
21
-79.8251159999999942
0
LINE
8
BLACK
6
CONTINUOUS
10
424.6693359999999871
20
-165.1924259999999833
11
424.7375569999999811
21
-165.2536000000000058
0
LINE
8
BLACK
6
CONTINUOUS
10
495.3938689999999951
20
-161.1005989999999883
11
495.4934339999999793
21
-161.1066830000000039
0
LINE
8
BLACK
6
CONTINUOUS
10
511.0528899999999908
20
-163.1971159999999941
11
511.1023689999999533
21
-163.2060239999999851
0
LINE
8
BLACK
6
CONTINUOUS
10
468.4047669999999925
20
-161.8567479999999819
11
468.5022029999999518
21
-161.8362500000000068
0
LINE
8
BLACK
6
CONTINUOUS
10
504.987417999999991
20
-162.2432619999999872
11
505.0369519999999852
21
-162.2508890000000008
0
LINE
8
BLACK
6
CONTINUOUS
10
482.9242840000000001
20
-160.767944
11
483.0239969999999516
21
-160.7689249999999959
0
LINE
8
BLACK
6
CONTINUOUS
10
458.2370429999999715
20
-164.7810340000000053
11
458.3327409999999986
21
-164.7521899999999846
0
LINE
8
BLACK
6
CONTINUOUS
10
499.8589399999999614
20
-161.4914090000000044
11
499.9577289999999721
21
-161.5032239999999888
0
LINE
8
BLACK
6
CONTINUOUS
10
452.2755379999999832
20
-166.417792999999989
11
452.3722980000000007
21
-166.3947379999999896
0
LINE
8
BLACK
6
CONTINUOUS
10
426.410254000000009
20
-166.2085720000000038
11
426.4940949999999589
21
-166.2342139999999802
0
LINE
8
BLACK
6
CONTINUOUS
10
478.7258860000000027
20
-160.7883559999999932
11
478.7759499999999662
21
-160.7872209999999882
0
LINE
8
BLACK
6
CONTINUOUS
10
477.7746859999999742
20
-160.8154999999999859
11
477.8247429999999554
21
-160.8137979999999914
0
LINE
8
BLACK
6
CONTINUOUS
10
496.9853169999999523
20
-161.2107429999999795
11
497.0846589999999878
21
-161.218592000000001
0
LINE
8
BLACK
6
CONTINUOUS
10
496.5877929999999765
20
-161.1805389999999818
11
496.6871959999999717
21
-161.1879150000000038
0
LINE
8
BLACK
6
CONTINUOUS
10
423.9637169999999742
20
-164.4175429999999949
11
424.0244689999999537
21
-164.495711
0
LINE
8
BLACK
6
CONTINUOUS
10
505.3839009999999803
20
-162.3040459999999996
11
505.4335089999999582
21
-162.3115980000000036
0
LINE
8
BLACK
6
CONTINUOUS
10
539.3186239999999998
20
-176.6111180000000047
11
539.2353180000000066
21
-176.6039710000000014
0
LINE
8
BLACK
6
CONTINUOUS
10
540.2402309999999943
20
-176.5929429999999911
11
540.156050999999934
21
-176.6019239999999968
0
LINE
8
BLACK
6
CONTINUOUS
10
452.7590909999999553
20
-166.3011259999999822
11
452.8557289999999966
21
-166.2773799999999937
0
LINE
8
BLACK
6
CONTINUOUS
10
506.7256659999999897
20
-162.506165999999979
11
506.7754359999999565
21
-162.5136200000000031
0
LINE
8
BLACK
6
CONTINUOUS
10
422.9863149999999905
20
-162.7463300000000004
11
423.0105779999999527
21
-162.7993170000000021
0
LINE
8
BLACK
6
CONTINUOUS
10
466.6601969999999824
20
-162.2674939999999992
11
466.756684000000007
21
-162.2427279999999996
0
LINE
8
BLACK
6
CONTINUOUS
10
423.3707769999999755
20
-80.3234179999999895
11
423.3425110000000018
21
-80.366897999999992
0
LINE
8
BLACK
6
CONTINUOUS
10
477.1240399999999795
20
-160.8401749999999879
11
477.174081000000001
21
-160.8381029999999896
0
LINE
8
BLACK
6
CONTINUOUS
10
503.5054639999999608
20
-162.0115169999999978
11
503.6040759999999636
21
-162.0269759999999906
0
LINE
8
BLACK
6
CONTINUOUS
10
422.821897999999976
20
-162.3630509999999845
11
422.8448060000000055
21
-162.4191299999999956
0
LINE
8
BLACK
6
CONTINUOUS
10
473.3310539999999946
20
-161.1044679999999971
11
473.4304919999999584
21
-161.0945299999999918
0
LINE
8
BLACK
6
CONTINUOUS
10
468.5022029999999518
20
-161.8362500000000068
11
468.5996899999999528
21
-161.8159939999999892
0
LINE
8
BLACK
6
CONTINUOUS
10
475.8238089999999829
20
-160.9061309999999878
11
475.8737809999999513
21
-160.903176000000002
0
LINE
8
BLACK
6
CONTINUOUS
10
455.4567720000000008
20
-165.5911339999999825
11
455.5528400000000033
21
-165.5642550000000028
0
LINE
8
BLACK
6
CONTINUOUS
10
504.3938200000000052
20
-162.1509289999999908
11
504.4432410000000004
21
-162.1586619999999925
0
LINE
8
BLACK
6
CONTINUOUS
10
509.2159019999999714
20
-162.8874469999999803
11
509.2656669999999508
21
-162.8953929999999843
0
LINE
8
BLACK
6
CONTINUOUS
10
462.0607259999999883
20
-163.6082490000000007
11
462.1562779999999862
21
-163.5788519999999835
0
LINE
8
BLACK
6
CONTINUOUS
10
504.6904569999999808
20
-162.1972339999999804
11
504.7399319999999534
21
-162.2049269999999979
0
LINE
8
BLACK
6
CONTINUOUS
10
455.1684649999999692
20
-165.6712169999999844
11
455.2645849999999541
21
-165.6446179999999799
0
LINE
8
BLACK
6
CONTINUOUS
10
537.5042829999999867
20
-176.1152369999999792
11
537.4227260000000115
21
-176.0758349999999837
0
LINE
8
BLACK
6
CONTINUOUS
10
474.0276629999999614
20
-161.0385799999999961
11
474.1272769999999923
21
-161.0298549999999977
0
LINE
8
BLACK
6
CONTINUOUS
10
480.2273940000000039
20
-160.7646469999999965
11
480.2774179999999546
21
-160.7642270000000053
0
LINE
8
BLACK
6
CONTINUOUS
10
469.6753959999999779
20
-161.6089139999999986
11
469.7734789999999521
21
-161.591481999999985
0
LINE
8
BLACK
6
CONTINUOUS
10
423.1816900000000032
20
-80.6319029999999941
11
423.1563629999999989
21
-80.6767150000000015
0
LINE
8
BLACK
6
CONTINUOUS
10
505.0369519999999852
20
-162.2508890000000008
11
505.0864819999999895
21
-162.2585179999999809
0
LINE
8
BLACK
6
CONTINUOUS
10
424.679839999999956
20
-78.9868549999999914
11
424.6374059999999986
21
-79.0170219999999972
0
LINE
8
BLACK
6
CONTINUOUS
10
506.974568999999974
20
-162.5434589999999844
11
507.0243619999999964
21
-162.5509250000000065
0
LINE
8
BLACK
6
CONTINUOUS
10
508.8176369999999906
20
-162.8244650000000036
11
508.8674340000000029
21
-162.8322679999999991
0
LINE
8
BLACK
6
CONTINUOUS
10
425.5772890000000075
20
-78.4908750000000026
11
425.5309049999999615
21
-78.5111610000000013
0
LINE
8
BLACK
6
CONTINUOUS
10
498.869876999999974
20
-161.3815290000000005
11
498.968877999999961
21
-161.3918599999999799
0
LINE
8
BLACK
6
CONTINUOUS
10
522.8714439999999968
20
-167.2583459999999889
11
518.719573999999966
21
-165.2663169999999866
0
LINE
8
BLACK
6
CONTINUOUS
10
518.2615299999999934
20
-165.08566399999998
11
518.5368009999999686
21
-165.1930119999999818
0
LINE
8
BLACK
6
CONTINUOUS
10
506.4271149999999579
20
-162.4614369999999894
11
506.4768609999999853
21
-162.4688940000000059
0
LINE
8
BLACK
6
CONTINUOUS
10
464.7382779999999798
20
-162.7989089999999806
11
464.8340879999999515
21
-162.771002999999979
0
LINE
8
BLACK
6
CONTINUOUS
10
459.6717119999999568
20
-164.3444869999999867
11
459.7673069999999598
21
-164.3151459999999986
0
LINE
8
BLACK
6
CONTINUOUS
10
475.3742269999999621
20
-160.9345459999999832
11
475.4241619999999671
21
-160.9312219999999911
0
LINE
8
BLACK
6
CONTINUOUS
10
450.0424809999999525
20
-166.9056429999999978
11
450.1398949999999672
21
-166.886256000000003
0
LINE
8
BLACK
6
CONTINUOUS
10
473.4304919999999584
20
-161.0945299999999918
11
473.5299559999999701
21
-161.0847729999999842
0
LINE
8
BLACK
6
CONTINUOUS
10
480.5775189999999952
20
-160.762092999999993
11
480.6275279999999839
21
-160.7617970000000014
0
LINE
8
BLACK
6
CONTINUOUS
10
423.6988220000000069
20
-164.0464739999999892
11
423.7274999999999636
21
-164.0894209999999873
0
LINE
8
BLACK
6
CONTINUOUS
10
492.1029249999999706
20
-160.949091999999979
11
492.2027579999999602
21
-160.9524869999999908
0
LINE
8
BLACK
6
CONTINUOUS
10
479.2765599999999608
20
-160.7771299999999997
11
479.3266189999999938
21
-160.7762489999999787
0
LINE
8
BLACK
6
CONTINUOUS
10
490.0057449999999903
20
-160.890184000000005
11
490.10562299999998
21
-160.8925389999999993
0
LINE
8
BLACK
6
CONTINUOUS
10
466.8532179999999698
20
-162.2181679999999915
11
466.9497959999999921
21
-162.1938189999999906
0
LINE
8
BLACK
6
CONTINUOUS
10
425.842378999999994
20
-165.985826000000003
11
425.9214659999999526
21
-166.0222819999999899
0
LINE
8
BLACK
6
CONTINUOUS
10
497.1839860000000044
20
-161.2265569999999855
11
497.2832949999999528
21
-161.2346459999999979
0
LINE
8
BLACK
6
CONTINUOUS
10
423.4895569999999907
20
-80.1526039999999966
11
423.4593899999999849
21
-80.1950379999999967
0
LINE
8
BLACK
6
CONTINUOUS
10
425.0294589999999744
20
-78.7646489999999915
11
424.9850589999999784
21
-78.7909659999999974
0
LINE
8
BLACK
6
CONTINUOUS
10
542.8026229999999259
20
-175.641649000000001
11
542.7593399999999519
21
-175.6681329999999832
0
LINE
8
BLACK
6
CONTINUOUS
10
461.7740759999999796
20
-163.696534999999983
11
461.869624999999985
21
-163.6670929999999942
0
LINE
8
BLACK
6
CONTINUOUS
10
507.422794999999951
20
-162.6107899999999802
11
507.4726079999999797
21
-162.6182900000000018
0
LINE
8
BLACK
6
CONTINUOUS
10
425.9214659999999526
20
-166.0222819999999899
11
426.001231999999959
21
-166.0571919999999864
0
LINE
8
BLACK
6
CONTINUOUS
10
422.6656350000000089
20
-161.9612329999999929
11
422.6875210000000038
21
-162.0196289999999806
0
LINE
8
BLACK
6
CONTINUOUS
10
497.9779959999999619
20
-161.2947599999999966
11
498.0771699999999669
21
-161.303861999999981
0
LINE
8
BLACK
6
CONTINUOUS
10
538.3242089999999962
20
-176.4286109999999894
11
538.2418599999999742
21
-176.403870999999981
0
LINE
8
BLACK
6
CONTINUOUS
10
458.0456169999999929
20
-164.8385719999999992
11
458.1413329999999746
21
-164.8098279999999818
0
LINE
8
BLACK
6
CONTINUOUS
10
500.6485950000000003
20
-161.5902729999999963
11
500.7472009999999614
21
-161.6033280000000047
0
LINE
8
BLACK
6
CONTINUOUS
10
422.5592550000000074
20
-161.6623019999999826
11
422.5416969999999992
21
-82.8206189999999935
0
LINE
8
BLACK
6
CONTINUOUS
10
425.5328189999999609
20
-165.8245540000000062
11
425.609190999999953
21
-165.8671909999999912
0
LINE
8
BLACK
6
CONTINUOUS
10
503.7027069999999753
20
-162.0424600000000055
11
503.8013609999999858
21
-162.0579510000000028
0
LINE
8
BLACK
6
CONTINUOUS
10
422.5644069999999601
20
-82.5443519999999893
11
422.5550779999999804
21
-82.6369179999999943
0
LINE
8
BLACK
6
CONTINUOUS
10
423.8442509999999857
20
-164.2565720000000056
11
423.8739459999999895
21
-164.2972010000000012
0
LINE
8
BLACK
6
CONTINUOUS
10
509.4646799999999871
20
-162.9273979999999824
11
509.5144179999999778
21
-162.9354579999999828
0
LINE
8
BLACK
6
CONTINUOUS
10
499.6613009999999804
20
-161.4682439999999986
11
499.7601329999999962
21
-161.4797529999999881
0
LINE
8
BLACK
6
CONTINUOUS
10
487.7092329999999833
20
-160.8438629999999989
11
487.8090369999999893
21
-160.8456679999999892
0
LINE
8
BLACK
6
CONTINUOUS
10
505.2351569999999583
20
-162.2813219999999887
11
505.2847239999999829
21
-162.2889089999999896
0
LINE
8
BLACK
6
CONTINUOUS
10
537.8312989999999445
20
-176.2581799999999816
11
537.7494249999999738
21
-176.2246429999999862
0
LINE
8
BLACK
6
CONTINUOUS
10
424.7657859999999914
20
-78.928409000000002
11
424.7228129999999737
21
-78.9576319999999896
0
LINE
8
BLACK
6
CONTINUOUS
10
541.2565979999999399
20
-176.370775999999978
11
541.171463000000017
21
-176.3973519999999837
0
LINE
8
BLACK
6
CONTINUOUS
10
511.3496359999999754
20
-163.2509599999999921
11
511.3990489999999909
21
-163.2600669999999923
0
LINE
8
BLACK
6
CONTINUOUS
10
514.1911289999999326
20
-163.8457970000000046
11
514.2880129999999781
21
-163.8691769999999792
0
LINE
8
BLACK
6
CONTINUOUS
10
476.9238929999999641
20
-160.8488409999999931
11
476.9739280000000008
21
-160.8466430000000003
0
LINE
8
BLACK
6
CONTINUOUS
10
489.8059969999999907
20
-160.8855920000000026
11
489.9058699999999931
21
-160.8878709999999899
0
LINE
8
BLACK
6
CONTINUOUS
10
486.1133499999999685
20
-160.8155480000000068
11
486.2130319999999983
21
-160.8173189999999977
0
LINE
8
BLACK
6
CONTINUOUS
10
423.4475109999999631
20
-163.6445070000000044
11
423.4748299999999972
21
-163.6905419999999935
0
LINE
8
BLACK
6
CONTINUOUS
10
467.9184079999999994
20
-161.9629439999999931
11
468.0155669999999759
21
-161.941203999999999
0
LINE
8
BLACK
6
CONTINUOUS
10
463.4943279999999959
20
-163.169871999999998
11
463.589937999999961
21
-163.1409229999999866
0
LINE
8
BLACK
6
CONTINUOUS
10
508.6682379999999739
20
-162.8011099999999942
11
508.7180399999999736
21
-162.8088799999999878
0
LINE
8
BLACK
6
CONTINUOUS
10
481.4272269999999594
20
-160.7599139999999807
11
481.5271259999999529
21
-160.7600050000000067
0
LINE
8
BLACK
6
CONTINUOUS
10
487.409860999999978
20
-160.8385020000000054
11
487.5096479999999701
21
-160.8402829999999994
0
LINE
8
BLACK
6
CONTINUOUS
10
500.8457879999999705
20
-161.6165320000000065
11
500.944360999999958
21
-161.6298669999999902
0
LINE
8
BLACK
6
CONTINUOUS
10
539.2353180000000066
20
-176.6039710000000014
11
539.15209399999992
21
-176.5953629999999919
0
LINE
8
BLACK
6
CONTINUOUS
10
481.2273839999999723
20
-160.7599319999999921
11
481.3273140000000012
21
-160.7598859999999945
0
LINE
8
BLACK
6
CONTINUOUS
10
512.3847019999999475
20
-163.4495519999999829
11
512.4338450000000194
21
-163.4594139999999811
0
LINE
8
BLACK
6
CONTINUOUS
10
422.9332430000000045
20
-81.1349209999999914
11
422.9139739999999961
21
-81.1815229999999985
0
LINE
8
BLACK
6
CONTINUOUS
10
422.8947039999999902
20
-81.2281260000000032
11
422.876451999999972
21
-81.274912999999998
0
LINE
8
BLACK
6
CONTINUOUS
10
467.143101999999999
20
-162.1457729999999913
11
467.2398289999999861
21
-162.122084000000001
0
LINE
8
BLACK
6
CONTINUOUS
10
506.8749959999999533
20
-162.5285350000000051
11
506.9247819999999933
21
-162.5359980000000064
0
LINE
8
BLACK
6
CONTINUOUS
10
475.9237559999999689
20
-160.9002209999999877
11
475.9737369999999714
21
-160.8973369999999932
0
LINE
8
BLACK
6
CONTINUOUS
10
478.3754309999999919
20
-160.7971849999999847
11
478.4254969999999503
21
-160.7958329999999876
0
LINE
8
BLACK
6
CONTINUOUS
10
425.2550049999999828
20
-78.6420099999999991
11
425.2094659999999635
21
-78.6653359999999964
0
LINE
8
BLACK
6
CONTINUOUS
10
426.7496909999999843
20
-166.3018689999999822
11
426.8362510000000043
21
-166.3213329999999814
0
LINE
8
BLACK
6
CONTINUOUS
10
511.1023689999999533
20
-163.2060239999999851
11
511.1518499999999676
21
-163.2149359999999945
0
LINE
8
BLACK
6
CONTINUOUS
10
422.9148789999999849
20
-162.5842739999999935
11
422.9384660000000054
21
-162.6388069999999857
0
LINE
8
BLACK
6
CONTINUOUS
10
540.5777459999999337
20
-176.5423449999999832
11
540.4932499999999891
21
-176.5571939999999813
0
LINE
8
BLACK
6
CONTINUOUS
10
477.5244109999999864
20
-160.8243640000000028
11
477.5744619999999827
21
-160.8225419999999986
0
LINE
8
BLACK
6
CONTINUOUS
10
477.4243089999999938
20
-160.8281309999999849
11
477.4743589999999926
21
-160.82624899999999
0
LINE
8
BLACK
6
CONTINUOUS
10
422.6033009999999877
20
-82.2643369999999976
11
422.5884899999999789
21
-82.3580129999999997
0
LINE
8
BLACK
6
CONTINUOUS
10
456.2248749999999973
20
-165.3736899999999821
11
456.3208189999999718
21
-165.3461360000000013
0
LINE
8
BLACK
6
CONTINUOUS
10
488.2083039999999983
20
-160.8530020000000036
11
488.3081339999999955
21
-160.8548729999999978
0
LINE
8
BLACK
6
CONTINUOUS
10
453.5315349999999626
20
-166.1075369999999793
11
453.6279889999999568
21
-166.082776999999993
0
LINE
8
BLACK
6
CONTINUOUS
10
511.5965999999999667
20
-163.2967769999999916
11
511.6459639999999922
21
-163.3060239999999794
0
LINE
8
BLACK
6
CONTINUOUS
10
487.3100829999999632
20
-160.8367299999999886
11
487.409860999999978
21
-160.8385020000000054
0
LINE
8
BLACK
6
CONTINUOUS
10
481.7268779999999992
20
-160.7604010000000017
11
481.8267329999999902
21
-160.7607019999999807
0
LINE
8
BLACK
6
CONTINUOUS
10
484.5189639999999827
20
-160.788488000000001
11
484.6185999999999581
21
-160.7900499999999795
0
LINE
8
BLACK
6
CONTINUOUS
10
496.1900349999999662
20
-161.1521620000000041
11
496.2894949999999881
21
-161.1590889999999945
0
LINE
8
BLACK
6
CONTINUOUS
10
515.4434179999999515
20
-164.1678079999999795
11
515.5390619999999444
21
-164.1942809999999895
0
LINE
8
BLACK
6
CONTINUOUS
10
455.9369539999999574
20
-165.4558600000000013
11
456.0329419999999914
21
-165.4285500000000013
0
LINE
8
BLACK
6
CONTINUOUS
10
463.6855569999999602
20
-163.1120200000000011
11
463.7811889999999835
21
-163.0831809999999962
0
LINE
8
BLACK
6
CONTINUOUS
10
450.4319479999999771
20
-166.82703699999999
11
450.5292399999999589
21
-166.8069500000000005
0
LINE
8
BLACK
6
CONTINUOUS
10
476.2736789999999587
20
-160.8806879999999921
11
476.3236779999999726
21
-160.8780189999999948
0
LINE
8
BLACK
6
CONTINUOUS
10
512.4829559999999447
20
-163.4693619999999896
11
512.5320679999999811
21
-163.4793080000000032
0
LINE
8
BLACK
6
CONTINUOUS
10
474.2269139999999652
20
-161.021300999999994
11
474.2767450000000053
21
-161.0171059999999841
0
LINE
8
BLACK
6
CONTINUOUS
10
464.4509689999999864
20
-162.8832669999999894
11
464.5467160000000035
21
-162.8550469999999848
0
LINE
8
BLACK
6
CONTINUOUS
10
479.3266189999999938
20
-160.7762489999999787
11
479.37667399999998
21
-160.7754139999999836
0
LINE
8
BLACK
6
CONTINUOUS
10
472.5365719999999783
20
-161.1905040000000042
11
472.6357779999999593
21
-161.1791029999999978
0
LINE
8
BLACK
6
CONTINUOUS
10
501.239975999999956
20
-161.6706849999999918
11
501.3384889999999814
21
-161.6845419999999933
0
LINE
8
BLACK
6
CONTINUOUS
10
505.9796519999999873
20
-162.3942439999999863
11
506.0293479999999704
21
-162.4017199999999832
0
LINE
8
BLACK
6
CONTINUOUS
10
425.3922489999999925
20
-78.5740529999999922
11
425.3463959999999702
21
-78.5963689999999957
0
LINE
8
BLACK
6
CONTINUOUS
10
539.0689459999999826
20
-176.5852849999999989
11
538.9858799999999519
21
-176.5737409999999841
0
LINE
8
BLACK
6
CONTINUOUS
10
423.551747999999975
20
-80.0688749999999914
11
423.5206529999999816
21
-80.1107389999999953
0
LINE
8
BLACK
6
CONTINUOUS
10
542.6295699999999442
20
-175.7461249999999779
11
542.5431639999999334
21
-175.7961579999999913
0
LINE
8
BLACK
6
CONTINUOUS
10
492.2027579999999602
20
-160.9524869999999908
11
492.3025909999999499
21
-160.9559459999999831
0
LINE
8
BLACK
6
CONTINUOUS
10
477.8748039999999833
20
-160.8121569999999849
11
477.9248629999999594
21
-160.8105180000000018
0
LINE
8
BLACK
6
CONTINUOUS
10
425.0172359999999685
20
-165.48284799999999
11
425.0888509999999769
21
-165.536297999999988
0
LINE
8
BLACK
6
CONTINUOUS
10
511.4978489999999738
20
-163.2783529999999814
11
511.5472369999999955
21
-163.2875290000000064
0
LINE
8
BLACK
6
CONTINUOUS
10
497.5811269999999809
20
-161.2596499999999935
11
497.6803709999999796
21
-161.2682360000000017
0
LINE
8
BLACK
6
CONTINUOUS
10
498.0771699999999669
20
-161.303861999999981
11
498.1763239999999655
21
-161.3130960000000016
0
LINE
8
BLACK
6
CONTINUOUS
10
478.4755619999999681
20
-160.7945299999999804
11
478.5256259999999884
21
-160.7932299999999941
0
LINE
8
BLACK
6
CONTINUOUS
10
484.4193269999999529
20
-160.7869509999999877
11
484.5189639999999827
21
-160.788488000000001
0
LINE
8
BLACK
6
CONTINUOUS
10
457.66265199999998
20
-164.9530550000000062
11
457.7584099999999694
21
-164.9245129999999904
0
LINE
8
BLACK
6
CONTINUOUS
10
528.6200000000000045
20
-171.3004289999999799
11
537.4227260000000115
21
-176.0758349999999837
0
LINE
8
BLACK
6
CONTINUOUS
10
472.2391470000000027
20
-161.2258559999999932
11
472.338252999999952
21
-161.2138789999999915
0
LINE
8
BLACK
6
CONTINUOUS
10
493.7993639999999687
20
-161.0161180000000058
11
493.8990929999999935
21
-161.0207389999999918
0
LINE
8
BLACK
6
CONTINUOUS
10
425.0888509999999769
20
-165.536297999999988
11
425.1611489999999662
21
-165.5882039999999904
0
LINE
8
BLACK
6
CONTINUOUS
10
542.1123199999999542
20
-176.0243539999999882
11
542.0263899999999921
21
-176.065591999999981
0
LINE
8
BLACK
6
CONTINUOUS
10
426.6127569999999878
20
-78.1776239999999945
11
426.5185909999999581
21
-78.1962199999999967
0
LINE
8
BLACK
6
CONTINUOUS
10
489.5063759999999888
20
-160.8789559999999881
11
489.6062489999999912
21
-160.8811379999999929
0
LINE
8
BLACK
6
CONTINUOUS
10
456.9920419999999694
20
-165.1512160000000051
11
457.0878789999999867
21
-165.1230919999999855
0
LINE
8
BLACK
6
CONTINUOUS
10
422.9951189999999883
20
-80.9960159999999973
11
422.9738159999999993
21
-81.0421520000000015
0
LINE
8
BLACK
6
CONTINUOUS
10
515.7300329999999349
20
-164.2480089999999961
11
515.8253559999999425
21
-164.2752629999999954
0
LINE
8
BLACK
6
CONTINUOUS
10
463.1119489999999814
20
-163.2861110000000053
11
463.2075350000000071
21
-163.2569939999999917
0
LINE
8
BLACK
6
CONTINUOUS
10
479.4767829999999549
20
-160.7737979999999993
11
479.5268329999999537
21
-160.7730119999999943
0
LINE
8
BLACK
6
CONTINUOUS
10
423.1563629999999989
20
-80.6767150000000015
11
423.132033999999976
21
-80.7219059999999899
0
LINE
8
BLACK
6
CONTINUOUS
10
496.6871959999999717
20
-161.1879150000000038
11
496.9853169999999523
21
-161.2107429999999795
0
LINE
8
BLACK
6
CONTINUOUS
10
473.629447999999968
20
-161.0751879999999971
11
473.7289649999999597
21
-161.0657759999999996
0
LINE
8
BLACK
6
CONTINUOUS
10
483.0239969999999516
20
-160.7689249999999959
11
483.1237029999999777
21
-160.7699539999999843
0
LINE
8
BLACK
6
CONTINUOUS
10
469.1856980000000021
20
-161.6995189999999809
11
469.283540999999957
21
-161.6809329999999818
0
LINE
8
BLACK
6
CONTINUOUS
10
498.3745769999999879
20
-161.3319630000000018
11
498.4736759999999549
21
-161.3416009999999972
0
LINE
8
BLACK
6
CONTINUOUS
10
490.4052529999999592
20
-160.8998220000000003
11
490.5051299999999515
21
-160.9023349999999937
0
LINE
8
BLACK
6
CONTINUOUS
10
515.6345989999999802
20
-164.2210169999999891
11
515.7300329999999349
21
-164.2480089999999961
0
LINE
8
BLACK
6
CONTINUOUS
10
426.8937349999999924
20
-78.1331670000000003
11
426.8003809999999589
21
-78.1461219999999912
0
LINE
8
BLACK
6
CONTINUOUS
10
493.0012639999999919
20
-160.9819970000000069
11
493.101052999999979
21
-160.98599999999999
0
LINE
8
BLACK
6
CONTINUOUS
10
453.3385609999999701
20
-166.1566990000000033
11
453.4350599999999645
21
-166.1321789999999794
0
LINE
8
BLACK
6
CONTINUOUS
10
539.9039849999999205
20
-176.620079000000004
11
539.8201259999999593
21
-176.6231970000000047
0
LINE
8
BLACK
6
CONTINUOUS
10
510.7557609999999499
20
-163.1444160000000068
11
510.8052999999999884
21
-163.1531359999999893
0
LINE
8
BLACK
6
CONTINUOUS
10
463.3987239999999588
20
-163.1988709999999969
11
463.4943279999999959
21
-163.169871999999998
0
LINE
8
BLACK
6
CONTINUOUS
10
485.9139979999999923
20
-160.8120150000000024
11
486.0136699999999905
21
-160.813777999999985
0
LINE
8
BLACK
6
CONTINUOUS
10
484.7182369999999878
20
-160.7916380000000061
11
484.8178739999999607
21
-160.7932480000000055
0
LINE
8
BLACK
6
CONTINUOUS
10
423.6134669999999574
20
-163.916089999999997
11
423.6418059999999741
21
-163.9598079999999811
0
LINE
8
BLACK
6
CONTINUOUS
10
541.0864080000000058
20
-176.4224669999999833
11
541.00143300000002
21
-176.4461089999999786
0
LINE
8
BLACK
6
CONTINUOUS
10
474.7254259999999704
20
-160.9809869999999989
11
474.7753099999999904
21
-160.9771979999999871
0
LINE
8
BLACK
6
CONTINUOUS
10
506.6758939999999711
20
-162.4987119999999834
11
506.7256659999999897
21
-162.506165999999979
0
LINE
8
BLACK
6
CONTINUOUS
10
423.0387369999999692
20
-80.9040279999999967
11
423.0164209999999798
21
-80.9498809999999906
0
LINE
8
BLACK
6
CONTINUOUS
10
478.5756920000000036
20
-160.7919839999999851
11
478.6257569999999646
21
-160.7907390000000021
0
LINE
8
BLACK
6
CONTINUOUS
10
478.9261409999999728
20
-160.7839069999999992
11
478.9762029999999982
21
-160.782872999999995
0
LINE
8
BLACK
6
CONTINUOUS
10
495.1947040000000015
20
-161.0887329999999906
11
495.2942919999999845
21
-161.0946169999999995
0
LINE
8
BLACK
6
CONTINUOUS
10
474.6755529999999794
20
-160.9848529999999869
11
474.7254259999999704
21
-160.9809869999999989
0
LINE
8
BLACK
6
CONTINUOUS
10
424.0360639999999535
20
-79.5195470000000029
11
423.9989899999999921
21
-79.5566209999999927
0
LINE
8
BLACK
6
CONTINUOUS
10
423.0105779999999527
20
-162.7993170000000021
11
423.0348409999999717
21
-162.8523069999999962
0
LINE
8
BLACK
6
CONTINUOUS
10
477.7246289999999931
20
-160.8171999999999855
11
477.7746859999999742
21
-160.8154999999999859
0
LINE
8
BLACK
6
CONTINUOUS
10
473.5299559999999701
20
-161.0847729999999842
11
473.629447999999968
21
-161.0751879999999971
0
LINE
8
BLACK
6
CONTINUOUS
10
471.8430399999999736
20
-161.275699000000003
11
471.9420139999999719
21
-161.262945000000002
0
LINE
8
BLACK
6
CONTINUOUS
10
425.8110110000000077
20
-78.3985959999999977
11
425.7640690000000063
21
-78.4158319999999947
0
LINE
8
BLACK
6
CONTINUOUS
10
482.4255689999999959
20
-160.7638069999999857
11
482.5253349999999841
21
-160.7645259999999894
0
LINE
8
BLACK
6
CONTINUOUS
10
454.1099350000000072
20
-165.9571799999999939
11
454.2062649999999735
21
-165.9317139999999995
0
LINE
8
BLACK
6
CONTINUOUS
10
423.8184029999999893
20
-79.746532000000002
11
423.7837669999999548
21
-79.785823999999991
0
LINE
8
BLACK
6
CONTINUOUS
10
492.7018669999999929
20
-160.9704229999999825
11
492.8016729999999939
21
-160.9742149999999867
0
LINE
8
BLACK
6
CONTINUOUS
10
471.5463269999999625
20
-161.315164999999979
11
471.645196999999996
21
-161.3018059999999991
0
LINE
8
BLACK
6
CONTINUOUS
10
474.7753099999999904
20
-160.9771979999999871
11
474.8251909999999612
21
-160.9734100000000012
0
LINE
8
BLACK
6
CONTINUOUS
10
502.1263179999999693
20
-161.7992820000000052
11
502.2247830000000022
21
-161.814046999999988
0
LINE
8
BLACK
6
CONTINUOUS
10
423.7274999999999636
20
-164.0894209999999873
11
423.7565179999999714
21
-164.1315939999999785
0
LINE
8
BLACK
6
CONTINUOUS
10
537.5859169999999949
20
-176.1531750000000045
11
537.5042829999999867
21
-176.1152369999999792
0
LINE
8
BLACK
6
CONTINUOUS
10
451.6944320000000062
20
-166.5530829999999867
11
451.7913489999999683
21
-166.5309039999999925
0
LINE
8
BLACK
6
CONTINUOUS
10
470.9539059999999608
20
-161.3995929999999817
11
471.0525470000000041
21
-161.3850060000000042
0
LINE
8
BLACK
6
CONTINUOUS
10
497.0846589999999878
20
-161.218592000000001
11
497.1839860000000044
21
-161.2265569999999855
0
LINE
8
BLACK
6
CONTINUOUS
10
505.7809469999999692
20
-162.3642779999999846
11
505.8306159999999636
21
-162.3717739999999878
0
LINE
8
BLACK
6
CONTINUOUS
10
501.8309189999999944
20
-161.7555109999999843
11
501.9293869999999629
21
-161.7700119999999799
0
LINE
8
BLACK
6
CONTINUOUS
10
456.5126639999999725
20
-165.2908089999999959
11
456.6085689999999886
21
-165.2630289999999889
0
LINE
8
BLACK
6
CONTINUOUS
10
540.156050999999934
20
-176.6019239999999968
11
540.0719500000000153
21
-176.6094410000000039
0
LINE
8
BLACK
6
CONTINUOUS
10
483.5224499999999921
20
-160.7745060000000024
11
483.6221199999999953
21
-160.7757469999999955
0
LINE
8
BLACK
6
CONTINUOUS
10
460.4841279999999983
20
-164.0945250000000044
11
460.5319089999999846
21
-164.0797959999999875
0
LINE
8
BLACK
6
CONTINUOUS
10
538.4891509999999926
20
-176.4736889999999789
11
538.4066399999999248
21
-176.4518829999999809
0
LINE
8
BLACK
6
CONTINUOUS
10
424.2674839999999676
20
-79.3067629999999895
11
424.2281919999999786
21
-79.3413989999999956
0
LINE
8
BLACK
6
CONTINUOUS
10
422.9139739999999961
20
-81.1815229999999985
11
422.8947039999999902
21
-81.2281260000000032
0
LINE
8
BLACK
6
CONTINUOUS
10
453.6279889999999568
20
-166.082776999999993
11
453.7244199999999523
21
-166.0578879999999913
0
LINE
8
BLACK
6
CONTINUOUS
10
481.8267329999999902
20
-160.7607019999999807
11
481.9265699999999697
21
-160.7610669999999971
0
LINE
8
BLACK
6
CONTINUOUS
10
508.4690009999999916
20
-162.7701779999999872
11
508.518812999999966
21
-162.7778969999999958
0
LINE
8
BLACK
6
CONTINUOUS
10
511.2507650000000012
20
-163.2328799999999944
11
511.3002029999999536
21
-163.2419199999999933
0
LINE
8
BLACK
6
CONTINUOUS
10
538.077397000000019
20
-176.3499919999999861
11
537.9952849999999671
21
-176.3208569999999895
0
CIRCLE
8
BLACK
10
532.9495550000000321
20
-118.9404449999999969
40
0.8999999999999999
0
LINE
8
BLACK
6
CONTINUOUS
10
513.8999679999999444
20
-163.7769439999999861
11
513.9971050000000332
21
-163.7996789999999976
0
LINE
8
BLACK
6
CONTINUOUS
10
542.2844179999999596
20
-175.9374749999999779
11
542.1983289999999442
21
-175.9816459999999836
0
LINE
8
BLACK
6
CONTINUOUS
10
425.9520799999999667
20
-78.348914999999991
11
425.8579519999999548
21
-78.3813600000000008
0
LINE
8
BLACK
6
CONTINUOUS
10
516.5839069999999538
20
-164.5031349999999861
11
516.6782009999999445
21
-164.5328899999999805
0
LINE
8
BLACK
6
CONTINUOUS
10
476.6237419999999929
20
-160.8628239999999892
11
476.6737640000000056
21
-160.8604299999999796
0
LINE
8
BLACK
6
CONTINUOUS
10
495.8915690000000041
20
-161.1320350000000019
11
495.9910699999999792
21
-161.1386359999999911
0
LINE
8
BLACK
6
CONTINUOUS
10
465.1216670000000022
20
-162.6879699999999787
11
465.2175790000000006
21
-162.6605439999999874
0
LINE
8
BLACK
6
CONTINUOUS
10
452.0819409999999721
20
-166.4634749999999883
11
452.1787539999999694
21
-166.4407070000000033
0
LINE
8
BLACK
6
CONTINUOUS
10
541.7690759999999273
20
-176.1805169999999805
11
541.6834619999999632
21
-176.2158919999999966
0
LINE
8
BLACK
6
CONTINUOUS
10
470.8553059999999846
20
-161.4143939999999873
11
470.9539059999999608
21
-161.3995929999999817
0
LINE
8
BLACK
6
CONTINUOUS
10
489.6062489999999912
20
-160.8811379999999929
11
489.7061219999999935
21
-160.8833469999999863
0
LINE
8
BLACK
6
CONTINUOUS
10
423.7153509999999983
20
-79.8650939999999991
11
423.6815709999999626
21
-79.9050719999999899
0
LINE
8
BLACK
6
CONTINUOUS
10
501.0429120000000012
20
-161.6433429999999873
11
501.1414499999999634
21
-161.6569499999999948
0
LINE
8
BLACK
6
CONTINUOUS
10
425.3005430000000047
20
-78.6186849999999993
11
425.2550049999999828
21
-78.6420099999999991
0
LINE
8
BLACK
6
CONTINUOUS
10
422.5592550000000074
20
-161.6623019999999826
11
422.5801219999999603
21
-161.7230160000000012
0
LINE
8
BLACK
6
CONTINUOUS
10
469.479376000000002
20
-161.6444630000000018
11
469.5773609999999962
21
-161.6265719999999817
0
LINE
8
BLACK
6
CONTINUOUS
10
476.8738629999999716
20
-160.8511059999999873
11
476.9238929999999641
21
-160.8488409999999931
0
LINE
8
BLACK
6
CONTINUOUS
10
506.2281859999999938
20
-162.431601999999998
11
506.2779069999999706
21
-162.4390649999999994
0
LINE
8
BLACK
6
CONTINUOUS
10
441.4428929999999696
20
-166.4017379999999946
11
427.5299999999999727
21
-166.4404449999999827
0
LINE
8
BLACK
6
CONTINUOUS
10
475.9737369999999714
20
-160.8973369999999932
11
476.0237169999999765
21
-160.894457999999986
0
LINE
8
BLACK
6
CONTINUOUS
10
482.5253349999999841
20
-160.7645259999999894
11
482.6250849999999559
21
-160.7653019999999913
0
LINE
8
BLACK
6
CONTINUOUS
10
423.2869479999999953
20
-80.4543340000000029
11
423.2596509999999626
21
-80.4982899999999972
0
LINE
8
BLACK
6
CONTINUOUS
10
493.3006079999999542
20
-160.9942219999999793
11
493.4003730000000019
21
-160.9984450000000038
0
LINE
8
BLACK
6
CONTINUOUS
10
537.6676310000000285
20
-176.1896399999999971
11
537.5859169999999949
21
-176.1531750000000045
0
LINE
8
BLACK
6
CONTINUOUS
10
449.0077440000000024
20
-166.9149630000000002
11
441.4428929999999696
21
-166.4017379999999946
0
LINE
8
BLACK
6
CONTINUOUS
10
454.8799999999999955
20
-165.7504449999999849
11
454.9761749999999552
21
-165.7241319999999973
0
LINE
8
BLACK
6
CONTINUOUS
10
422.5884899999999789
20
-82.3580129999999997
11
422.5755350000000021
21
-82.4513669999999905
0
LINE
8
BLACK
6
CONTINUOUS
10
475.0746859999999856
20
-160.955173000000002
11
475.1245969999999943
21
-160.9516209999999887
0
LINE
8
BLACK
6
CONTINUOUS
10
510.4086709999999698
20
-163.0842920000000049
11
510.4582859999999869
21
-163.0927829999999972
0
LINE
8
BLACK
6
CONTINUOUS
10
508.3693700000000035
20
-162.7547989999999913
11
508.4191869999999653
21
-162.7624879999999905
0
LINE
8
BLACK
6
CONTINUOUS
10
423.4748299999999972
20
-163.6905419999999935
11
423.5021509999999694
21
-163.7365779999999802
0
LINE
8
BLACK
6
CONTINUOUS
10
426.9867199999999912
20
-78.1220390000000009
11
426.8937349999999924
21
-78.1331670000000003
0
LINE
8
BLACK
6
CONTINUOUS
10
479.5268329999999537
20
-160.7730119999999943
11
479.5768850000000043
21
-160.772279999999995
0
LINE
8
BLACK
6
CONTINUOUS
10
480.4274800000000027
20
-160.7630529999999851
11
480.4774949999999762
21
-160.7627180000000067
0
LINE
8
BLACK
6
CONTINUOUS
10
423.429222999999979
20
-80.2374719999999968
11
423.3999999999999773
21
-80.2804450000000003
0
LINE
8
BLACK
6
CONTINUOUS
10
477.8247429999999554
20
-160.8137979999999914
11
477.8748039999999833
21
-160.8121569999999849
0
LINE
8
BLACK
6
CONTINUOUS
10
504.9379059999999981
20
-162.2356079999999849
11
504.987417999999991
21
-162.2432619999999872
0
CIRCLE
8
BLACK
10
529.4095549999999548
20
-156.1504449999999906
40
0.8999999999999999
0
LINE
8
BLACK
6
CONTINUOUS
10
424.1117419999999925
20
-79.4469780000000014
11
424.073902999999973
21
-79.4832619999999963
0
LINE
8
BLACK
6
CONTINUOUS
10
509.5144179999999778
20
-162.9354579999999828
11
509.564156999999966
21
-162.9435210000000041
0
LINE
8
BLACK
6
CONTINUOUS
10
498.5727549999999724
20
-161.3513759999999877
11
498.6718169999999759
21
-161.361284999999981
0
LINE
8
BLACK
6
CONTINUOUS
10
486.4124219999999923
20
-160.8208640000000003
11
486.5121299999999565
21
-160.8226310000000012
0
LINE
8
BLACK
6
CONTINUOUS
10
451.0152379999999539
20
-166.7039999999999793
11
451.1123499999999922
21
-166.6829139999999825
0
LINE
8
BLACK
6
CONTINUOUS
10
423.2101209999999583
20
-163.210866999999979
11
423.2357429999999567
21
-163.2607649999999921
0
LINE
8
BLACK
6
CONTINUOUS
10
478.0249849999999583
20
-160.8073499999999854
11
478.0750489999999786
21
-160.8058230000000037
0
LINE
8
BLACK
6
CONTINUOUS
10
502.0278539999999907
20
-161.7846020000000067
11
502.1263179999999693
21
-161.7992820000000052
0
LINE
8
BLACK
6
CONTINUOUS
10
424.4687449999999558
20
-164.9996329999999887
11
424.5349289999999769
21
-165.0654419999999902
0
LINE
8
BLACK
6
CONTINUOUS
10
506.8252159999999549
20
-162.5210779999999886
11
506.8749959999999533
21
-162.5285350000000051
0
LINE
8
BLACK
6
CONTINUOUS
10
538.6544089999999869
20
-176.5129059999999868
11
538.571739999999977
21
-176.4940320000000042
0
LINE
8
BLACK
6
CONTINUOUS
10
508.5686230000000023
20
-162.7856139999999812
11
508.6184319999999843
21
-162.7933599999999785
0
LINE
8
BLACK
6
CONTINUOUS
10
475.3242919999999572
20
-160.9378690000000063
11
475.3742269999999621
21
-160.9345459999999832
0
LINE
8
BLACK
6
CONTINUOUS
10
460.2929949999999621
20
-164.1534350000000018
11
460.3407789999999977
21
-164.1387129999999956
0
LINE
8
BLACK
6
CONTINUOUS
10
477.0739999999999554
20
-160.8423099999999977
11
477.1240399999999795
21
-160.8401749999999879
0
LINE
8
BLACK
6
CONTINUOUS
10
512.0403519999999844
20
-163.3814769999999896
11
512.0895829999999478
21
-163.3910979999999995
0
LINE
8
BLACK
6
CONTINUOUS
10
510.1108429999999885
20
-163.0338040000000035
11
510.1605019999999513
21
-163.0421399999999892
0
LINE
8
BLACK
6
CONTINUOUS
10
423.2357429999999567
20
-163.2607649999999921
11
423.2617040000000088
21
-163.3098919999999907
0
LINE
8
BLACK
6
CONTINUOUS
10
459.2892839999999524
20
-164.4616110000000049
11
459.3848979999999642
21
-164.4323689999999942
0
CIRCLE
8
BLACK
10
462.5
20
-145.
40
0.8999999999999999
0
LINE
8
BLACK
6
CONTINUOUS
10
517.8924879999999575
20
-164.9472739999999931
11
517.9849609999999984
21
-164.9813699999999983
0
LINE
8
BLACK
6
CONTINUOUS
10
514.6746610000000146
20
-163.9649479999999926
11
514.7710949999999457
21
-163.9894620000000032
0
LINE
8
BLACK
6
CONTINUOUS
10
424.8092659999999796
20
-78.9001429999999999
11
424.7657859999999914
21
-78.928409000000002
0
LINE
8
BLACK
6
CONTINUOUS
10
422.776427999999953
20
-162.2501209999999787
11
422.7989939999999933
21
-162.3069720000000018
0
LINE
8
BLACK
6
CONTINUOUS
10
478.1251120000000014
20
-160.8043009999999811
11
478.17517399999997
21
-160.8028309999999976
0
LINE
8
BLACK
6
CONTINUOUS
10
456.6085689999999886
20
-165.2630289999999889
11
456.7044559999999933
21
-165.2351799999999855
0
LINE
8
BLACK
6
CONTINUOUS
10
422.9384660000000054
20
-162.6388069999999857
11
422.9623899999999708
21
-162.6925679999999943
0
LINE
8
BLACK
6
CONTINUOUS
10
490.305375999999967
20
-160.8973569999999995
11
490.4052529999999592
21
-160.8998220000000003
0
LINE
8
BLACK
6
CONTINUOUS
10
456.4167499999999791
20
-165.3185090000000059
11
456.5126639999999725
21
-165.2908089999999959
0
LINE
8
BLACK
6
CONTINUOUS
10
480.4774949999999762
20
-160.7627180000000067
11
480.5275089999999523
21
-160.7623839999999973
0
LINE
8
BLACK
6
CONTINUOUS
10
423.6418059999999741
20
-163.9598079999999811
11
423.6701449999999909
21
-164.0035279999999887
0
LINE
8
BLACK
6
CONTINUOUS
10
471.9420139999999719
20
-161.262945000000002
11
472.0410239999999931
21
-161.2503859999999918
0
LINE
8
BLACK
6
CONTINUOUS
10
506.1784639999999627
20
-162.4241379999999992
11
506.2281859999999938
21
-162.431601999999998
0
LINE
8
BLACK
6
CONTINUOUS
10
505.5327369999999974
20
-162.3266849999999977
11
505.5823609999999917
21
-162.3342219999999827
0
LINE
8
BLACK
6
CONTINUOUS
10
464.9299219999999764
20
-162.743204999999989
11
465.0257829999999899
21
-162.7155259999999828
0
LINE
8
BLACK
6
CONTINUOUS
10
506.7754359999999565
20
-162.5136200000000031
11
506.8252159999999549
21
-162.5210779999999886
0
LINE
8
BLACK
6
CONTINUOUS
10
425.4571269999999572
20
-165.7803729999999973
11
425.5328189999999609
21
-165.8245540000000062
0
LINE
8
BLACK
6
CONTINUOUS
10
449.8475609999999847
20
-166.943885999999992
11
449.9450369999999566
21
-166.9248570000000029
0
LINE
8
BLACK
6
CONTINUOUS
10
458.3327409999999986
20
-164.7521899999999846
11
458.4284289999999942
21
-164.7233059999999796
0
LINE
8
BLACK
6
CONTINUOUS
10
504.8883929999999509
20
-162.2279570000000035
11
504.9379059999999981
21
-162.2356079999999849
0
LINE
8
BLACK
6
CONTINUOUS
10
474.9748739999999998
20
-160.9623569999999972
11
475.0247749999999769
21
-160.9587269999999819
0
LINE
8
BLACK
6
CONTINUOUS
10
537.7494249999999738
20
-176.2246429999999862
11
537.6676310000000285
21
-176.1896399999999971
0
LINE
8
BLACK
6
CONTINUOUS
10
498.1763239999999655
20
-161.3130960000000016
11
498.2754609999999502
21
-161.3224629999999991
0
LINE
8
BLACK
6
CONTINUOUS
10
424.9850589999999784
20
-78.7909659999999974
11
424.9406579999999849
21
-78.8172830000000033
0
LINE
8
BLACK
6
CONTINUOUS
10
485.7146699999999555
20
-160.808497999999986
11
485.8143309999999815
21
-160.8102519999999913
0
LINE
8
BLACK
6
CONTINUOUS
10
539.7363429999999198
20
-176.6248479999999859
11
539.6526410000000169
21
-176.6250339999999994
0
LINE
8
BLACK
6
CONTINUOUS
10
502.8156529999999975
20
-161.9041179999999827
11
502.9141589999999837
21
-161.919337999999982
0
LINE
8
BLACK
6
CONTINUOUS
10
538.9858799999999519
20
-176.5737409999999841
11
538.9028929999999491
21
-176.5607299999999782
0
LINE
8
BLACK
6
CONTINUOUS
10
478.2252379999999903
20
-160.8013650000000041
11
478.2753019999999538
21
-160.799950999999993
0
LINE
8
BLACK
6
CONTINUOUS
10
513.6080699999999979
20
-163.7099729999999909
11
513.7054489999999305
21
-163.7320909999999969
0
LINE
8
BLACK
6
CONTINUOUS
10
507.0243619999999964
20
-162.5509250000000065
11
507.074154999999962
21
-162.5583910000000003
0
LINE
8
BLACK
6
CONTINUOUS
10
422.7094079999999963
20
-162.0780249999999967
11
422.7316349999999829
21
-162.1356470000000058
0
LINE
8
BLACK
6
CONTINUOUS
10
497.2832949999999528
20
-161.2346459999999979
11
497.3825899999999933
21
-161.242857999999984
0
LINE
8
BLACK
6
CONTINUOUS
10
492.9014719999999556
20
-160.9780700000000024
11
493.0012639999999919
21
-160.9819970000000069
0
LINE
8
BLACK
6
CONTINUOUS
10
556.5699999999999363
20
-75.6704450000000008
11
556.17999999999995
21
-149.6904449999999827
0
LINE
8
BLACK
6
CONTINUOUS
10
505.4335089999999582
20
-162.3115980000000036
11
505.4831140000000005
21
-162.3191489999999817
0
LINE
8
BLACK
6
CONTINUOUS
10
481.9265699999999697
20
-160.7610669999999971
11
482.026395999999977
21
-160.7614920000000041
0
LINE
8
BLACK
6
CONTINUOUS
10
475.1245969999999943
20
-160.9516209999999887
11
475.1745159999999828
21
-160.9481429999999875
0
LINE
8
BLACK
6
CONTINUOUS
10
511.6953019999999697
20
-163.3153439999999819
11
511.7446410000000014
21
-163.3246639999999843
0
LINE
8
BLACK
6
CONTINUOUS
10
513.7054489999999305
20
-163.7320909999999969
11
513.8027489999999489
21
-163.754413999999997
0
LINE
8
BLACK
6
CONTINUOUS
10
541.5979320000000143
20
-176.2498019999999883
11
541.5124779999999873
21
-176.282242999999994
0
LINE
8
BLACK
6
CONTINUOUS
10
476.2236790000000042
20
-160.8833569999999895
11
476.2736789999999587
21
-160.8806879999999921
0
LINE
8
BLACK
6
CONTINUOUS
10
505.6816389999999615
20
-162.3492640000000051
11
505.7312919999999963
21
-162.3567699999999832
0
LINE
8
BLACK
6
CONTINUOUS
10
462.4429480000000012
20
-163.4907690000000002
11
462.5385119999999688
21
-163.4614530000000059
0
LINE
8
BLACK
6
CONTINUOUS
10
451.985102999999981
20
-166.4860979999999984
11
452.0819409999999721
21
-166.4634749999999883
0
LINE
8
BLACK
6
CONTINUOUS
10
427.0792859999999678
20
-78.1127099999999928
11
426.9867199999999912
21
-78.1220390000000009
0
LINE
8
BLACK
6
CONTINUOUS
10
509.3154250000000047
20
-162.9033729999999878
11
509.3651839999999993
21
-162.9113549999999861
0
LINE
8
BLACK
6
CONTINUOUS
10
478.0750489999999786
20
-160.8058230000000037
11
478.1251120000000014
21
-160.8043009999999811
0
LINE
8
BLACK
6
CONTINUOUS
10
425.6704939999999624
20
-78.4523360000000025
11
425.6238919999999553
21
-78.4716049999999967
0
LINE
8
BLACK
6
CONTINUOUS
10
507.8213419999999587
20
-162.6710290000000043
11
507.8711639999999647
21
-162.6785879999999906
0
LINE
8
BLACK
6
CONTINUOUS
10
469.3814319999999611
20
-161.6625789999999938
11
469.479376000000002
21
-161.6444630000000018
0
LINE
8
BLACK
6
CONTINUOUS
10
480.2774179999999546
20
-160.7642270000000053
11
480.3274429999999597
21
-160.7638069999999857
0
LINE
8
BLACK
6
CONTINUOUS
10
489.2067759999999907
20
-160.8726010000000031
11
489.3066409999999564
21
-160.8746869999999944
0
LINE
8
BLACK
6
CONTINUOUS
10
423.7565179999999714
20
-164.1315939999999785
11
423.7855359999999791
21
-164.1737679999999955
0
LINE
8
BLACK
6
CONTINUOUS
10
426.0463909999999714
20
-78.3184889999999996
11
425.9520799999999667
21
-78.348914999999991
0
LINE
8
BLACK
6
CONTINUOUS
10
479.6769819999999527
20
-160.7708519999999908
11
479.7270289999999591
21
-160.7701669999999865
0
LINE
8
BLACK
6
CONTINUOUS
10
426.4940949999999589
20
-166.2342139999999802
11
426.5786139999999591
21
-166.2583099999999945
0
LINE
8
BLACK
6
CONTINUOUS
10
502.5201929999999493
20
-161.8587859999999807
11
502.6186720000000037
21
-161.8738369999999804
0
LINE
8
BLACK
6
CONTINUOUS
10
423.132033999999976
20
-80.7219059999999899
11
423.1077039999999556
21
-80.7670979999999901
0
LINE
8
BLACK
6
CONTINUOUS
10
495.6925269999999841
20
-161.119150999999988
11
495.7920569999999998
21
-161.1255409999999983
0
LINE
8
BLACK
6
CONTINUOUS
10
504.6410019999999577
20
-162.1895319999999856
11
504.6904569999999808
21
-162.1972339999999804
0
LINE
8
BLACK
6
CONTINUOUS
10
515.9205699999999979
20
-164.302786999999995
11
516.0156749999999874
21
-164.3305780000000027
0
LINE
8
BLACK
6
CONTINUOUS
10
540.6623250000000098
20
-176.526030999999989
11
540.5777459999999337
21
-176.5423449999999832
0
LINE
8
BLACK
6
CONTINUOUS
10
459.9584799999999518
20
-164.2564009999999826
11
460.0062689999999748
21
-164.2417030000000011
0
LINE
8
BLACK
6
CONTINUOUS
10
483.2234009999999671
20
-160.7710249999999803
11
483.3230909999999767
21
-160.7721420000000023
0
LINE
8
BLACK
6
CONTINUOUS
10
505.1360320000000002
20
-162.2661290000000065
11
505.1855850000000032
21
-162.2737369999999828
0
LINE
8
BLACK
6
CONTINUOUS
10
517.054147999999941
20
-164.6548530000000028
11
517.1478220000000192
21
-164.6860929999999996
0
LINE
8
BLACK
6
CONTINUOUS
10
424.7228129999999737
20
-78.9576319999999896
11
424.679839999999956
21
-78.9868549999999914
0
LINE
8
BLACK
6
CONTINUOUS
10
474.5259599999999978
20
-160.9966210000000046
11
474.5758209999999622
21
-160.9926729999999964
0
CIRCLE
8
BLACK
10
551.9695550000000139
20
-122.0004449999999991
40
0.8999999999999999
0
LINE
8
BLACK
6
CONTINUOUS
10
476.0737049999999613
20
-160.8916470000000061
11
476.1236920000000055
21
-160.8888359999999977
0
LINE
8
BLACK
6
CONTINUOUS
10
479.777072999999973
20
-160.7695219999999949
11
479.827118999999982
21
-160.7688789999999983
0
LINE
8
BLACK
6
CONTINUOUS
10
542.7593399999999519
20
-175.6681329999999832
11
542.7160579999999754
21
-175.6946189999999888
0
LINE
8
BLACK
6
CONTINUOUS
10
514.9636789999999564
20
-164.0391999999999939
11
515.0598249999999325
21
-164.0644309999999848
0
LINE
8
BLACK
6
CONTINUOUS
10
456.8961929999999825
20
-165.179271
11
456.9920419999999694
21
-165.1512160000000051
0
LINE
8
BLACK
6
CONTINUOUS
10
504.4432410000000004
20
-162.1586619999999925
11
504.4926659999999856
21
-162.166388999999981
0
LINE
8
BLACK
6
CONTINUOUS
10
422.7538599999999747
20
-162.1932689999999866
11
422.776427999999953
21
-162.2501209999999787
0
LINE
8
BLACK
6
CONTINUOUS
10
472.0410239999999931
20
-161.2503859999999918
11
472.1400669999999877
21
-161.2380229999999983
0
LINE
8
BLACK
6
CONTINUOUS
10
515.2518239999999423
20
-164.1156210000000044
11
515.3476719999999887
21
-164.1415879999999845
0
LINE
8
BLACK
6
CONTINUOUS
10
460.6752469999999562
20
-164.0355809999999792
11
460.7230270000000019
21
-164.0208379999999977
0
LINE
8
BLACK
6
CONTINUOUS
10
517.2413689999999633
20
-164.7176399999999887
11
517.3347830000000158
21
-164.7494979999999885
0
LINE
8
BLACK
6
CONTINUOUS
10
500.056492999999989
20
-161.5151850000000024
11
500.1552329999999529
21
-161.5273069999999791
0
LINE
8
BLACK
6
CONTINUOUS
10
425.484519999999975
20
-78.5314479999999975
11
425.4383849999999825
21
-78.5527500000000032
0
LINE
8
BLACK
6
CONTINUOUS
10
460.3885629999999765
20
-164.1239889999999946
11
460.4363449999999602
21
-164.1092579999999828
0
LINE
8
BLACK
6
CONTINUOUS
10
501.4369909999999777
20
-161.6985159999999837
11
501.5354839999999967
21
-161.7126049999999964
0
LINE
8
BLACK
6
CONTINUOUS
10
425.6238919999999553
20
-78.4716049999999967
11
425.5772890000000075
21
-78.4908750000000026
0
LINE
8
BLACK
6
CONTINUOUS
10
496.2894949999999881
20
-161.1590889999999945
11
496.3889419999999859
21
-161.1661269999999888
0
LINE
8
BLACK
6
CONTINUOUS
10
456.3208189999999718
20
-165.3461360000000013
11
456.4167499999999791
21
-165.3185090000000059
0
LINE
8
BLACK
6
CONTINUOUS
10
466.274676999999997
20
-162.3685229999999819
11
466.370993999999996
21
-162.3429809999999804
0
LINE
8
BLACK
6
CONTINUOUS
10
492.8016729999999939
20
-160.9742149999999867
11
492.9014719999999556
21
-160.9780700000000024
0
LINE
8
BLACK
6
CONTINUOUS
10
511.0033879999999726
20
-163.1882739999999785
11
511.0528899999999908
21
-163.1971159999999941
0
LINE
8
BLACK
6
CONTINUOUS
10
492.5022389999999746
20
-160.9630520000000047
11
492.6020570000000021
21
-160.9667039999999929
0
LINE
8
BLACK
6
CONTINUOUS
10
478.2753019999999538
20
-160.799950999999993
11
478.3253669999999715
21
-160.7985429999999951
0
LINE
8
BLACK
6
CONTINUOUS
10
510.6566399999999817
20
-163.1270920000000046
11
510.7061989999999696
21
-163.1357519999999965
0
LINE
8
BLACK
6
CONTINUOUS
10
450.3346279999999524
20
-166.8469489999999951
11
450.4319479999999771
21
-166.82703699999999
0
LINE
8
BLACK
6
CONTINUOUS
10
423.8538749999999595
20
-79.7079530000000034
11
423.8184029999999893
21
-79.746532000000002
0
LINE
8
BLACK
6
CONTINUOUS
10
509.1163569999999936
20
-162.8715959999999825
11
509.1661339999999996
21
-162.8795029999999997
0
LINE
8
BLACK
6
CONTINUOUS
10
461.0096879999999828
20
-163.9323729999999841
11
461.1052389999999832
21
-163.9028789999999844
0
LINE
8
BLACK
6
CONTINUOUS
10
504.4926659999999856
20
-162.166388999999981
11
504.5421049999999923
21
-162.1741079999999897
0
LINE
8
BLACK
6
CONTINUOUS
10
423.1077039999999556
20
-80.7670979999999901
11
423.0843789999999558
21
-80.8126359999999977
0
LINE
8
BLACK
6
CONTINUOUS
10
469.0879019999999855
20
-161.7183389999999861
11
469.1856980000000021
21
-161.6995189999999809
0
LINE
8
BLACK
6
CONTINUOUS
10
537.9952849999999671
20
-176.3208569999999895
11
537.9132519999999431
21
-176.2902509999999836
0
LINE
8
BLACK
6
CONTINUOUS
10
423.340268999999978
20
-163.455725000000001
11
423.3669099999999617
21
-163.5033070000000066
0
LINE
8
BLACK
6
CONTINUOUS
10
504.1962219999999775
20
-162.1199649999999792
11
504.2950050000000033
21
-162.1354529999999841
0
LINE
8
BLACK
6
CONTINUOUS
10
486.0136699999999905
20
-160.813777999999985
11
486.1133499999999685
21
-160.8155480000000068
0
LINE
8
BLACK
6
CONTINUOUS
10
461.1052389999999832
20
-163.9028789999999844
11
461.2007879999999886
21
-163.8733849999999848
0
LINE
8
BLACK
6
CONTINUOUS
10
491.9032399999999825
20
-160.9424860000000024
11
492.0030840000000012
21
-160.9457599999999786
0
LINE
8
BLACK
6
CONTINUOUS
10
461.4874309999999582
20
-163.7849290000000053
11
461.5829799999999636
21
-163.7554549999999836
0
LINE
8
BLACK
6
CONTINUOUS
10
486.911044000000004
20
-160.8296780000000012
11
487.0107919999999808
21
-160.831436999999994
0
LINE
8
BLACK
6
CONTINUOUS
10
424.5349289999999769
20
-165.0654419999999902
11
424.6017929999999865
21
-165.1297079999999937
0
LINE
8
BLACK
6
CONTINUOUS
10
485.0171489999999608
20
-160.7965250000000026
11
485.116784999999993
21
-160.7981920000000002
0
LINE
8
BLACK
6
CONTINUOUS
10
422.7316349999999829
20
-162.1356470000000058
11
422.7538599999999747
21
-162.1932689999999866
0
LINE
8
BLACK
6
CONTINUOUS
10
507.8711639999999647
20
-162.6785879999999906
11
507.9209869999999682
21
-162.6861669999999833
0
LINE
8
BLACK
6
CONTINUOUS
10
477.174081000000001
20
-160.8381029999999896
11
477.2241219999999657
21
-160.8360339999999837
0
LINE
8
BLACK
6
CONTINUOUS
10
422.876451999999972
20
-81.274912999999998
11
422.8581999999999539
21
-81.3217009999999902
0
LINE
8
BLACK
6
CONTINUOUS
10
451.8882370000000037
20
-166.5085789999999974
11
451.985102999999981
21
-166.4860979999999984
0
LINE
8
BLACK
6
CONTINUOUS
10
492.0030840000000012
20
-160.9457599999999786
11
492.1029249999999706
21
-160.949091999999979
0
LINE
8
BLACK
6
CONTINUOUS
10
505.5823609999999917
20
-162.3342219999999827
11
505.6320010000000025
21
-162.3417409999999848
0
LINE
8
BLACK
6
CONTINUOUS
10
423.3935500000000047
20
-163.5508879999999863
11
423.4205299999999852
21
-163.5976969999999824
0
LINE
8
BLACK
6
CONTINUOUS
10
514.7710949999999457
20
-163.9894620000000032
11
514.8674369999999954
21
-164.0142119999999863
0
LINE
8
BLACK
6
CONTINUOUS
10
462.8252129999999624
20
-163.3736499999999978
11
462.9207879999999591
21
-163.3444379999999967
0
LINE
8
BLACK
6
CONTINUOUS
10
424.4699779999999691
20
-79.1413879999999921
11
424.4287119999999618
21
-79.1733969999999943
0
LINE
8
BLACK
6
CONTINUOUS
10
457.375315999999998
20
-165.0383449999999925
11
457.4711049999999659
21
-165.0099709999999789
0
LINE
8
BLACK
6
CONTINUOUS
10
480.0272709999999847
20
-160.7665839999999946
11
480.0773059999999646
21
-160.7660769999999957
0
LINE
8
BLACK
6
CONTINUOUS
10
451.4035159999999678
20
-166.6187009999999873
11
451.5005150000000071
21
-166.5969829999999945
0
LINE
8
BLACK
6
CONTINUOUS
10
505.1855850000000032
20
-162.2737369999999828
11
505.2351569999999583
21
-162.2813219999999887
0
LINE
8
BLACK
6
CONTINUOUS
10
475.6739139999999679
20
-160.9152799999999957
11
475.7238729999999691
21
-160.9121810000000039
0
LINE
8
BLACK
6
CONTINUOUS
10
473.2316419999999653
20
-161.1145829999999819
11
473.3310539999999946
21
-161.1044679999999971
0
LINE
8
BLACK
6
CONTINUOUS
10
494.4972740000000044
20
-161.0502309999999966
11
494.5969389999999635
21
-161.0554520000000025
0
LINE
8
BLACK
6
CONTINUOUS
10
461.5829799999999636
20
-163.7554549999999836
11
461.6785269999999741
21
-163.7259899999999959
0
LINE
8
BLACK
6
CONTINUOUS
10
476.1236920000000055
20
-160.8888359999999977
11
476.1736849999999777
21
-160.8860959999999807
0
LINE
8
BLACK
6
CONTINUOUS
10
505.0864819999999895
20
-162.2585179999999809
11
505.1360320000000002
21
-162.2661290000000065
0
LINE
8
BLACK
6
CONTINUOUS
10
488.907197999999994
20
-160.8664859999999805
11
489.0070549999999798
21
-160.8684979999999882
0
LINE
8
BLACK
6
CONTINUOUS
10
482.026395999999977
20
-160.7614920000000041
11
482.1262089999999603
21
-160.7619809999999916
0
LINE
8
BLACK
6
CONTINUOUS
10
493.6996279999999615
20
-161.0115799999999808
11
493.7993639999999687
21
-161.0161180000000058
0
LINE
8
BLACK
6
CONTINUOUS
10
505.3343150000000037
20
-162.2964779999999791
11
505.3839009999999803
21
-162.3040459999999996
0
LINE
8
BLACK
6
CONTINUOUS
10
424.0858989999999835
20
-164.5723339999999837
11
424.1480080000000044
21
-164.6474139999999977
0
LINE
8
BLACK
6
CONTINUOUS
10
423.2617040000000088
20
-163.3098919999999907
11
423.287666999999999
21
-163.3590179999999918
0
LINE
8
BLACK
6
CONTINUOUS
10
424.347440000000006
20
-79.2392030000000034
11
424.3074619999999868
21
-79.2729829999999964
0
LINE
8
BLACK
6
CONTINUOUS
10
423.0348409999999717
20
-162.8523069999999962
11
423.0594449999999824
21
-162.9045219999999858
0
LINE
8
BLACK
6
CONTINUOUS
10
423.0594449999999824
20
-162.9045219999999858
11
423.0840479999999957
21
-162.9567370000000039
0
LINE
8
BLACK
6
CONTINUOUS
10
503.3082989999999768
20
-161.9806549999999845
11
503.4068719999999644
21
-161.9960729999999955
0
LINE
8
BLACK
6
CONTINUOUS
10
473.0329049999999711
20
-161.135358999999994
11
473.1322599999999738
21
-161.1248779999999954
0
LINE
8
BLACK
6
CONTINUOUS
10
423.0843789999999558
20
-80.8126359999999977
11
423.0610529999999585
21
-80.8581750000000028
0
LINE
8
BLACK
6
CONTINUOUS
10
486.7115699999999947
20
-160.8261569999999949
11
486.8113039999999501
21
-160.8279189999999801
0
LINE
8
BLACK
6
CONTINUOUS
10
480.3774629999999775
20
-160.7634280000000047
11
480.4274800000000027
21
-160.7630529999999851
0
LINE
8
BLACK
6
CONTINUOUS
10
456.7044559999999933
20
-165.2351799999999855
11
456.8003309999999715
21
-165.2072609999999884
0
LINE
8
BLACK
6
CONTINUOUS
10
461.2963369999999941
20
-163.8438950000000034
11
461.3918840000000046
21
-163.8144089999999835
0
LINE
8
BLACK
6
CONTINUOUS
10
457.8541549999999916
20
-164.8959209999999871
11
457.9498909999999796
21
-164.8672689999999932
0
LINE
8
BLACK
6
CONTINUOUS
10
464.3552369999999883
20
-162.9115799999999865
11
464.4509689999999864
21
-162.8832669999999894
0
LINE
8
BLACK
6
CONTINUOUS
10
509.0665819999999826
20
-162.8636889999999937
11
509.1163569999999936
21
-162.8715959999999825
0
LINE
8
BLACK
6
CONTINUOUS
10
507.7715220000000045
20
-162.6634669999999971
11
507.8213419999999587
21
-162.6710290000000043
0
LINE
8
BLACK
6
CONTINUOUS
10
426.081677999999954
20
-166.0905599999999822
11
426.1628019999999992
21
-166.1223799999999926
0
LINE
8
BLACK
6
CONTINUOUS
10
482.1262089999999603
20
-160.7619809999999916
11
482.2260059999999839
21
-160.7625329999999906
0
LINE
8
BLACK
6
CONTINUOUS
10
468.5996899999999528
20
-161.8159939999999892
11
468.697228999999993
21
-161.7959830000000068
0
LINE
8
BLACK
6
CONTINUOUS
10
423.6701449999999909
20
-164.0035279999999887
11
423.6988220000000069
21
-164.0464739999999892
0
LINE
8
BLACK
6
CONTINUOUS
10
456.8003309999999715
20
-165.2072609999999884
11
456.8961929999999825
21
-165.179271
0
LINE
8
BLACK
6
CONTINUOUS
10
476.8238339999999766
20
-160.8533709999999814
11
476.8738629999999716
21
-160.8511059999999873
0
LINE
8
BLACK
6
CONTINUOUS
10
511.9418369999999641
20
-163.3623879999999815
11
511.991094999999973
21
-163.3719319999999868
0
LINE
8
BLACK
6
CONTINUOUS
10
424.9406579999999849
20
-78.8172830000000033
11
424.8967020000000048
21
-78.8445799999999934
0
LINE
8
BLACK
6
CONTINUOUS
10
463.7811889999999835
20
-163.0831809999999962
11
463.876829999999984
21
-163.054397999999992
0
LINE
8
BLACK
6
CONTINUOUS
10
476.5737269999999626
20
-160.8652879999999925
11
476.6237419999999929
21
-160.8628239999999892
0
LINE
8
BLACK
6
CONTINUOUS
10
511.8432659999999714
20
-163.34344999999999
11
511.8925519999999665
21
-163.3529209999999807
0
LINE
8
BLACK
6
CONTINUOUS
10
467.7242489999999862
20
-162.0071779999999819
11
467.8212999999999511
21
-161.9849319999999864
0
LINE
8
BLACK
6
CONTINUOUS
10
495.0951019999999971
20
-161.0829489999999851
11
495.1947040000000015
21
-161.0887329999999906
0
LINE
8
BLACK
6
CONTINUOUS
10
509.564156999999966
20
-162.9435210000000041
11
509.6138839999999846
21
-162.9516260000000045
0
LINE
8
BLACK
6
CONTINUOUS
10
540.8317200000000184
20
-176.4890029999999967
11
540.7469810000000052
21
-176.5082500000000039
0
LINE
8
BLACK
6
CONTINUOUS
10
478.826012999999989
20
-160.7860770000000059
11
478.87607799999995
21
-160.7849939999999833
0
LINE
8
BLACK
6
CONTINUOUS
10
491.2042359999999803
20
-160.9211659999999995
11
491.3041059999999902
21
-160.9240479999999991
0
LINE
8
BLACK
6
CONTINUOUS
10
538.1595869999999877
20
-176.3776639999999816
11
538.077397000000019
21
-176.3499919999999861
0
LINE
8
BLACK
6
CONTINUOUS
10
492.6020570000000021
20
-160.9667039999999929
11
492.7018669999999929
21
-160.9704229999999825
0
LINE
8
BLACK
6
CONTINUOUS
10
480.82752899999997
20
-160.7608669999999904
11
480.9275129999999763
21
-160.760518999999988
0
LINE
8
BLACK
6
CONTINUOUS
10
470.6582279999999514
20
-161.4446329999999818
11
470.7567469999999616
21
-161.4294060000000002
0
LINE
8
BLACK
6
CONTINUOUS
10
516.960348999999951
20
-164.6239149999999825
11
517.054147999999941
21
-164.6548530000000028
0
LINE
8
BLACK
6
CONTINUOUS
10
479.2265039999999772
20
-160.7780129999999872
11
479.2765599999999608
21
-160.7771299999999997
0
LINE
8
BLACK
6
CONTINUOUS
10
476.1736849999999777
20
-160.8860959999999807
11
476.2236790000000042
21
-160.8833569999999895
0
LINE
8
BLACK
6
CONTINUOUS
10
494.1982259999999769
20
-161.0350959999999816
11
494.297918999999979
21
-161.0400530000000003
0
LINE
8
BLACK
6
CONTINUOUS
10
425.6862390000000005
20
-165.9082799999999907
11
425.7639689999999746
21
-165.9478269999999895
0
LINE
8
BLACK
6
CONTINUOUS
10
477.2741669999999772
20
-160.8340269999999919
11
477.3242109999999911
21
-160.8320169999999791
0
LINE
8
BLACK
6
CONTINUOUS
10
509.6138839999999846
20
-162.9516260000000045
11
509.6636110000000031
21
-162.9597320000000025
0
LINE
8
BLACK
6
CONTINUOUS
10
462.9207879999999591
20
-163.3444379999999967
11
463.016366000000005
21
-163.315258
0
LINE
8
BLACK
6
CONTINUOUS
10
542.7160579999999754
20
-175.6946189999999888
11
542.6728130000000192
21
-175.7203700000000026
0
LINE
8
BLACK
6
CONTINUOUS
10
541.5124779999999873
20
-176.282242999999994
11
541.4271069999999781
21
-176.3132200000000012
0
LINE
8
BLACK
6
CONTINUOUS
10
424.4287119999999618
20
-79.1733969999999943
11
424.3880759999999555
21
-79.2062999999999988
0
LINE
8
BLACK
6
CONTINUOUS
10
424.4032369999999901
20
-164.9322789999999941
11
424.4687449999999558
21
-164.9996329999999887
0
LINE
8
BLACK
6
CONTINUOUS
10
507.9708089999999743
20
-162.6937479999999994
11
508.0206329999999753
21
-162.701344000000006
0
LINE
8
BLACK
6
CONTINUOUS
10
425.7640690000000063
20
-78.4158319999999947
11
425.7172819999999547
21
-78.4340839999999986
0
LINE
8
BLACK
6
CONTINUOUS
10
475.7738410000000044
20
-160.9091549999999984
11
475.8238089999999829
21
-160.9061309999999878
0
LINE
8
BLACK
6
CONTINUOUS
10
514.3848100000000159
20
-163.8927819999999826
11
514.4815179999999373
21
-163.916608999999994
0
LINE
8
BLACK
6
CONTINUOUS
10
509.3651839999999993
20
-162.9113549999999861
11
509.4149329999999622
21
-162.9193769999999972
0
LINE
8
BLACK
6
CONTINUOUS
10
451.5005150000000071
20
-166.5969829999999945
11
451.597487000000001
21
-166.5751099999999951
0
LINE
8
BLACK
6
CONTINUOUS
10
516.7723720000000185
20
-164.5629380000000026
11
516.8664219999999432
21
-164.593277999999998
0
LINE
8
BLACK
6
CONTINUOUS
10
518.6282629999999472
20
-165.2294890000000009
11
518.719573999999966
21
-165.2663169999999866
0
LINE
8
BLACK
6
CONTINUOUS
10
466.1783999999999537
20
-162.394250999999997
11
466.274676999999997
21
-162.3685229999999819
0
LINE
8
BLACK
6
CONTINUOUS
10
500.1552329999999529
20
-161.5273069999999791
11
500.2539529999999672
21
-161.5395849999999882
0
LINE
8
BLACK
6
CONTINUOUS
10
494.6965929999999503
20
-161.0607629999999801
11
494.7962369999999623
21
-161.0661719999999946
0
LINE
8
BLACK
6
CONTINUOUS
10
427.2792269999999917
20
-166.3954650000000015
11
427.5299999999999727
21
-166.4404449999999827
0
LINE
8
BLACK
6
CONTINUOUS
10
423.3139679999999885
20
-163.4073729999999784
11
423.340268999999978
21
-163.455725000000001
0
LINE
8
BLACK
6
CONTINUOUS
10
423.1592169999999555
20
-163.1102989999999977
11
423.1844989999999598
21
-163.1609689999999944
0
LINE
8
BLACK
6
CONTINUOUS
10
505.6320010000000025
20
-162.3417409999999848
11
505.6816389999999615
21
-162.3492640000000051
0
LINE
8
BLACK
6
CONTINUOUS
10
502.717158999999981
20
-161.8889479999999992
11
502.8156529999999975
21
-161.9041179999999827
0
LINE
8
BLACK
6
CONTINUOUS
10
511.5472369999999955
20
-163.2875290000000064
11
511.5965999999999667
21
-163.2967769999999916
0
LINE
8
BLACK
6
CONTINUOUS
10
506.0293479999999704
20
-162.4017199999999832
11
506.079044999999951
21
-162.4091980000000035
0
LINE
8
BLACK
6
CONTINUOUS
10
508.1202749999999924
20
-162.7165640000000053
11
508.1700960000000009
21
-162.7241809999999873
0
LINE
8
BLACK
6
CONTINUOUS
10
464.068147999999951
20
-162.9970399999999984
11
464.1638289999999643
21
-162.9684699999999964
0
LINE
8
BLACK
6
CONTINUOUS
10
468.697228999999993
20
-161.7959830000000068
11
468.7948209999999563
21
-161.7762149999999792
0
LINE
8
BLACK
6
CONTINUOUS
10
507.1737549999999715
20
-162.5733429999999942
11
507.2235589999999661
21
-162.5808219999999835
0
LINE
8
BLACK
6
CONTINUOUS
10
506.6261329999999816
20
-162.4912569999999903
11
506.6758939999999711
21
-162.4987119999999834
0
LINE
8
BLACK
6
CONTINUOUS
10
426.6638149999999996
20
-166.2808619999999848
11
426.7496909999999843
21
-166.3018689999999822
0
LINE
8
BLACK
6
CONTINUOUS
10
517.6142419999999902
20
-164.8469460000000026
11
517.7071280000000115
21
-164.8800669999999968
0
LINE
8
BLACK
6
CONTINUOUS
10
455.5528400000000033
20
-165.5642550000000028
11
455.6488929999999868
21
-165.5372839999999997
0
LINE
8
BLACK
6
CONTINUOUS
10
490.2054999999999723
20
-160.8949250000000006
11
490.305375999999967
21
-160.8973569999999995
0
LINE
8
BLACK
6
CONTINUOUS
10
423.6815709999999626
20
-79.9050719999999899
11
423.6486679999999865
21
-79.9457079999999962
0
LINE
8
BLACK
6
CONTINUOUS
10
502.421718999999996
20
-161.8438009999999849
11
502.5201929999999493
21
-161.8587859999999807
0
LINE
8
BLACK
6
CONTINUOUS
10
424.8967020000000048
20
-78.8445799999999934
11
424.8527459999999678
21
-78.8718769999999978
0
LINE
8
BLACK
6
CONTINUOUS
10
455.6488929999999868
20
-165.5372839999999997
11
455.7449289999999564
21
-165.5102299999999786
0
LINE
8
BLACK
6
CONTINUOUS
10
495.2942919999999845
20
-161.0946169999999995
11
495.3938689999999951
21
-161.1005989999999883
0
LINE
8
BLACK
6
CONTINUOUS
10
454.3025710000000004
20
-165.906138999999996
11
454.3988549999999691
21
-165.8804549999999836
0
LINE
8
BLACK
6
CONTINUOUS
10
472.6357779999999593
20
-161.1791029999999978
11
472.7350149999999758
21
-161.1678890000000024
0
LINE
8
BLACK
6
CONTINUOUS
10
474.1770960000000059
20
-161.0255760000000009
11
474.2269139999999652
21
-161.021300999999994
0
LINE
8
BLACK
6
CONTINUOUS
10
460.0062689999999748
20
-164.2417030000000011
11
460.0540619999999876
21
-164.2270049999999912
0
LINE
8
BLACK
6
CONTINUOUS
10
452.1787539999999694
20
-166.4407070000000033
11
452.2755379999999832
21
-166.417792999999989
0
LINE
8
BLACK
6
CONTINUOUS
10
474.3265739999999937
20
-161.0129110000000026
11
474.3764139999999543
21
-161.0087939999999946
0
LINE
8
BLACK
6
CONTINUOUS
10
452.5657449999999926
20
-166.3482049999999788
11
452.6624299999999721
21
-166.3247309999999857
0
LINE
8
BLACK
6
CONTINUOUS
10
541.9405399999999418
20
-176.1053679999999986
11
541.8547669999999243
21
-176.1436750000000018
0
LINE
8
BLACK
6
CONTINUOUS
10
423.2070170000000076
20
-80.5870910000000009
11
423.1816900000000032
21
-80.6319029999999941
0
LINE
8
BLACK
6
CONTINUOUS
10
464.2595279999999889
20
-162.9399829999999838
11
464.3552369999999883
21
-162.9115799999999865
0
LINE
8
BLACK
6
CONTINUOUS
10
471.7440990000000056
20
-161.2886529999999823
11
471.8430399999999736
21
-161.275699000000003
0
LINE
8
BLACK
6
CONTINUOUS
10
425.3463959999999702
20
-78.5963689999999957
11
425.3005430000000047
21
-78.6186849999999993
0
LINE
8
BLACK
6
CONTINUOUS
10
462.1562779999999862
20
-163.5788519999999835
11
462.2518339999999739
21
-163.5494719999999802
0
LINE
8
BLACK
6
CONTINUOUS
10
488.5078049999999621
20
-160.8586629999999786
11
488.6076479999999833
21
-160.8605890000000045
0
LINE
8
BLACK
6
CONTINUOUS
10
503.9000369999999975
20
-162.0734510000000057
11
503.998738000000003
21
-162.088957999999991
0
LINE
8
BLACK
6
CONTINUOUS
10
488.3081339999999955
20
-160.8548729999999978
11
488.4079679999999826
21
-160.8567589999999825
0
LINE
8
BLACK
6
CONTINUOUS
10
452.8557289999999966
20
-166.2773799999999937
11
452.9523439999999823
21
-166.2535029999999949
0
LINE
8
BLACK
6
CONTINUOUS
10
500.3526469999999904
20
-161.5520209999999963
11
500.4513199999999529
21
-161.5646160000000009
0
LINE
8
BLACK
6
CONTINUOUS
10
460.8663579999999911
20
-163.9766050000000064
11
460.914135999999985
21
-163.9618619999999964
0
LINE
8
BLACK
6
CONTINUOUS
10
460.5319089999999846
20
-164.0797959999999875
11
460.5796889999999735
21
-164.0650559999999984
0
LINE
8
BLACK
6
CONTINUOUS
10
518.0772919999999431
20
-165.0158030000000053
11
518.1694810000000189
21
-165.0505609999999876
0
LINE
8
BLACK
6
CONTINUOUS
10
451.7913489999999683
20
-166.5309039999999925
11
451.8882370000000037
21
-166.5085789999999974
0
LINE
8
BLACK
6
CONTINUOUS
10
468.0155669999999759
20
-161.941203999999999
11
468.1127879999999664
21
-161.9197179999999889
0
LINE
8
BLACK
6
CONTINUOUS
10
427.171389999999974
20
-78.1051509999999922
11
427.0792859999999678
21
-78.1127099999999928
0
LINE
8
BLACK
6
CONTINUOUS
10
423.3425110000000018
20
-80.366897999999992
11
423.3142449999999712
21
-80.4103779999999944
0
LINE
8
BLACK
6
CONTINUOUS
10
481.6270099999999843
20
-160.760171999999983
11
481.7268779999999992
21
-160.7604010000000017
0
LINE
8
BLACK
6
CONTINUOUS
10
423.5574689999999691
20
-163.8271049999999889
11
423.5854669999999942
21
-163.87159699999998
0
LINE
8
BLACK
6
CONTINUOUS
10
485.5153619999999819
20
-160.8050149999999974
11
485.6150129999999763
21
-160.8067549999999812
0
LINE
8
BLACK
6
CONTINUOUS
10
482.7248289999999997
20
-160.7661319999999989
11
482.8245599999999627
21
-160.767013999999989
0
LINE
8
BLACK
6
CONTINUOUS
10
451.597487000000001
20
-166.5751099999999951
11
451.6944320000000062
21
-166.5530829999999867
0
LINE
8
BLACK
6
CONTINUOUS
10
489.7061219999999935
20
-160.8833469999999863
11
489.8059969999999907
21
-160.8855920000000026
0
LINE
8
BLACK
6
CONTINUOUS
10
468.8924639999999613
20
-161.7566829999999811
11
468.9901590000000056
21
-161.7373939999999948
0
LINE
8
BLACK
6
CONTINUOUS
10
422.6199919999999679
20
-82.1703890000000001
11
422.6033009999999877
21
-82.2643369999999976
0
LINE
8
BLACK
6
CONTINUOUS
10
427.0114019999999755
20
-166.3556179999999927
11
427.0999999999999659
21
-166.3704449999999895
0
LINE
8
BLACK
6
CONTINUOUS
10
451.3064889999999991
20
-166.6402630000000045
11
451.4035159999999678
21
-166.6187009999999873
0
LINE
8
BLACK
6
CONTINUOUS
10
510.0611799999999789
20
-163.0254669999999919
11
510.1108429999999885
21
-163.0338040000000035
0
LINE
8
BLACK
6
CONTINUOUS
10
423.2333339999999566
20
-80.5426899999999932
11
423.2070170000000076
21
-80.5870910000000009
0
LINE
8
BLACK
6
CONTINUOUS
10
474.3764139999999543
20
-161.0087939999999946
11
474.4262549999999692
21
-161.004683
0
LINE
8
BLACK
6
CONTINUOUS
10
471.447496000000001
20
-161.3287200000000041
11
471.5463269999999625
21
-161.315164999999979
0
LINE
8
BLACK
6
CONTINUOUS
10
460.4363449999999602
20
-164.1092579999999828
11
460.4841279999999983
21
-164.0945250000000044
0
LINE
8
BLACK
6
CONTINUOUS
10
515.0598249999999325
20
-164.0644309999999848
11
515.1558749999999236
21
-164.089901999999995
0
LINE
8
BLACK
6
CONTINUOUS
10
539.15209399999992
20
-176.5953629999999919
11
539.0689459999999826
21
-176.5852849999999989
0
LINE
8
BLACK
6
CONTINUOUS
10
541.6834619999999632
20
-176.2158919999999966
11
541.5979320000000143
21
-176.2498019999999883
0
LINE
8
BLACK
6
CONTINUOUS
10
508.2199169999999526
20
-162.7318229999999915
11
508.2697359999999662
21
-162.739467999999988
0
LINE
8
BLACK
6
CONTINUOUS
10
481.1274399999999787
20
-160.7600549999999942
11
481.2273839999999723
21
-160.7599319999999921
0
LINE
8
BLACK
6
CONTINUOUS
10
425.7639689999999746
20
-165.9478269999999895
11
425.842378999999994
21
-165.985826000000003
0
LINE
8
BLACK
6
CONTINUOUS
10
422.5801219999999603
20
-161.7230160000000012
11
422.6013319999999567
21
-161.7829559999999844
0
LINE
8
BLACK
6
CONTINUOUS
10
504.5421049999999923
20
-162.1741079999999897
11
504.5915449999999964
21
-162.1818250000000035
0
LINE
8
BLACK
6
CONTINUOUS
10
422.7989939999999933
20
-162.3069720000000018
11
422.821897999999976
21
-162.3630509999999845
0
LINE
8
BLACK
6
CONTINUOUS
10
473.9280729999999835
20
-161.047473999999994
11
474.0276629999999614
21
-161.0385799999999961
0
LINE
8
BLACK
6
CONTINUOUS
10
487.5096479999999701
20
-160.8402829999999994
11
487.6094379999999546
21
-160.8420689999999809
0
LINE
8
BLACK
6
CONTINUOUS
10
478.9762029999999982
20
-160.782872999999995
11
479.0262649999999667
21
-160.7818409999999858
0
LINE
8
BLACK
6
CONTINUOUS
10
472.4373969999999758
20
-161.2020959999999832
11
472.5365719999999783
21
-161.1905040000000042
0
LINE
8
BLACK
6
CONTINUOUS
10
522.8714439999999968
20
-167.2583459999999889
11
528.6200000000000045
21
-171.3004289999999799
0
LINE
8
BLACK
6
CONTINUOUS
10
467.8212999999999511
20
-161.9849319999999864
11
467.9184079999999994
21
-161.9629439999999931
0
LINE
8
BLACK
6
CONTINUOUS
10
426.3298149999999964
20
-78.2392150000000015
11
426.2353180000000066
21
-78.2636519999999933
0
LINE
8
BLACK
6
CONTINUOUS
10
498.4736759999999549
20
-161.3416009999999972
11
498.5727549999999724
21
-161.3513759999999877
0
LINE
8
BLACK
6
CONTINUOUS
10
513.8027489999999489
20
-163.754413999999997
11
513.8999679999999444
21
-163.7769439999999861
0
LINE
8
BLACK
6
CONTINUOUS
10
512.5811489999999822
20
-163.4893399999999986
11
512.6302269999999908
21
-163.4993729999999914
0
LINE
8
BLACK
6
CONTINUOUS
10
491.8033909999999764
20
-160.9392729999999858
11
491.9032399999999825
21
-160.9424860000000024
0
LINE
8
BLACK
6
CONTINUOUS
10
491.4039659999999685
20
-160.9269840000000045
11
491.5038289999999961
21
-160.9299749999999847
0
LINE
8
BLACK
6
CONTINUOUS
10
508.3195529999999849
20
-162.747130999999996
11
508.3693700000000035
21
-162.7547989999999913
0
LINE
8
BLACK
6
CONTINUOUS
10
512.2372159999999894
20
-163.4201229999999896
11
512.2863879999999881
21
-163.4299049999999909
0
LINE
8
BLACK
6
CONTINUOUS
10
488.4079679999999826
20
-160.8567589999999825
11
488.5078049999999621
21
-160.8586629999999786
0
LINE
8
BLACK
6
CONTINUOUS
10
423.5206529999999816
20
-80.1107389999999953
11
423.4895569999999907
21
-80.1526039999999966
0
LINE
8
BLACK
6
CONTINUOUS
10
516.0156749999999874
20
-164.3305780000000027
11
516.1106659999999238
21
-164.3586410000000058
0
LINE
8
BLACK
6
CONTINUOUS
10
506.3276409999999714
20
-162.4465249999999799
11
506.3773729999999773
21
-162.4539849999999888
0
LINE
8
BLACK
6
CONTINUOUS
10
422.6815829999999892
20
-81.8874469999999945
11
422.6591119999999933
21
-81.9818899999999928
0
LINE
8
BLACK
6
CONTINUOUS
10
461.6785269999999741
20
-163.7259899999999959
11
461.7740759999999796
21
-163.696534999999983
0
LINE
8
BLACK
6
CONTINUOUS
10
503.998738000000003
20
-162.088957999999991
11
504.0974659999999972
21
-162.1044650000000047
0
LINE
8
BLACK
6
CONTINUOUS
10
422.5755350000000021
20
-82.4513669999999905
11
422.5644069999999601
21
-82.5443519999999893
0
LINE
8
BLACK
6
CONTINUOUS
10
494.9954909999999586
20
-161.077258999999998
11
495.0951019999999971
21
-161.0829489999999851
0
LINE
8
BLACK
6
CONTINUOUS
10
508.2697359999999662
20
-162.739467999999988
11
508.3195529999999849
21
-162.747130999999996
0
LINE
8
BLACK
6
CONTINUOUS
10
423.3669099999999617
20
-163.5033070000000066
11
423.3935500000000047
21
-163.5508879999999863
0
LINE
8
BLACK
6
CONTINUOUS
10
514.8674369999999954
20
-164.0142119999999863
11
514.9636789999999564
21
-164.0391999999999939
0
LINE
8
BLACK
6
CONTINUOUS
10
480.6775309999999877
20
-160.7615439999999865
11
480.7275349999999889
21
-160.7612919999999974
0
LINE
8
BLACK
6
CONTINUOUS
10
459.4805079999999862
20
-164.4031019999999899
11
459.5761129999999639
21
-164.3738069999999993
0
LINE
8
BLACK
6
CONTINUOUS
10
456.1289170000000013
20
-165.4011589999999785
11
456.2248749999999973
21
-165.3736899999999821
0
LINE
8
BLACK
6
CONTINUOUS
10
476.6737640000000056
20
-160.8604299999999796
11
476.723782999999969
21
-160.8580309999999827
0
LINE
8
BLACK
6
CONTINUOUS
10
512.3355609999999842
20
-163.4396879999999896
11
512.3847019999999475
21
-163.4495519999999829
0
LINE
8
BLACK
6
CONTINUOUS
10
491.603685999999982
20
-160.9330190000000016
11
491.7035399999999754
21
-160.9361150000000009
0
LINE
8
BLACK
6
CONTINUOUS
10
450.7237250000000017
20
-166.7662689999999941
11
450.8209259999999858
21
-166.745679999999993
0
LINE
8
BLACK
6
CONTINUOUS
10
424.1480080000000044
20
-164.6474139999999977
11
424.2107969999999568
21
-164.7209479999999928
0
LINE
8
BLACK
6
CONTINUOUS
10
510.2597959999999944
20
-163.0589159999999822
11
510.3094259999999736
21
-163.0673549999999921
0
LINE
8
BLACK
6
CONTINUOUS
10
499.5624459999999658
20
-161.4568899999999871
11
499.6613009999999804
21
-161.4682439999999986
0
LINE
8
BLACK
6
CONTINUOUS
10
464.6424849999999651
20
-162.8269259999999861
11
464.7382779999999798
21
-162.7989089999999806
0
LINE
8
BLACK
6
CONTINUOUS
10
469.283540999999957
20
-161.6809329999999818
11
469.3814319999999611
21
-161.6625789999999938
0
LINE
8
BLACK
6
CONTINUOUS
10
460.5796889999999735
20
-164.0650559999999984
11
460.6274679999999648
21
-164.0503190000000018
0
LINE
8
BLACK
6
CONTINUOUS
10
512.0895829999999478
20
-163.3910979999999995
11
512.1388140000000249
21
-163.400718999999981
0
LINE
8
BLACK
6
CONTINUOUS
10
423.7491309999999771
20
-79.8251159999999942
11
423.7153509999999983
21
-79.8650939999999991
0
LINE
8
BLACK
6
CONTINUOUS
10
479.5768850000000043
20
-160.772279999999995
11
479.6269360000000006
21
-160.7715419999999824
0
LINE
8
BLACK
6
CONTINUOUS
10
508.0704549999999813
20
-162.7089419999999791
11
508.1202749999999924
21
-162.7165640000000053
0
LINE
8
BLACK
6
CONTINUOUS
10
500.5099999999999909
20
-71.8404450000000026
11
530.1299999999999955
21
-75.6704450000000008
0
LINE
8
BLACK
6
CONTINUOUS
10
500.944360999999958
20
-161.6298669999999902
11
501.0429120000000012
21
-161.6433429999999873
0
LINE
8
BLACK
6
CONTINUOUS
10
475.2244339999999738
20
-160.9446669999999813
11
475.2743649999999889
21
-160.9412679999999796
0
LINE
8
BLACK
6
CONTINUOUS
10
424.8527459999999678
20
-78.8718769999999978
11
424.8092659999999796
21
-78.9001429999999999
0
LINE
8
BLACK
6
CONTINUOUS
10
540.9165359999999509
20
-176.4682880000000011
11
540.8317200000000184
21
-176.4890029999999967
0
LINE
8
BLACK
6
CONTINUOUS
10
476.4736979999999562
20
-160.8702849999999955
11
476.5237099999999941
21
-160.8677519999999959
0
LINE
8
BLACK
6
CONTINUOUS
10
423.287666999999999
20
-163.3590179999999918
11
423.3139679999999885
21
-163.4073729999999784
0
LINE
8
BLACK
6
CONTINUOUS
10
490.605006000000003
20
-160.9048860000000047
11
490.7048800000000028
21
-160.9074839999999824
0
LINE
8
BLACK
6
CONTINUOUS
10
513.9971050000000332
20
-163.7996789999999976
11
514.0941589999999906
21
-163.8226319999999987
0
LINE
8
BLACK
6
CONTINUOUS
10
459.3848979999999642
20
-164.4323689999999942
11
459.4805079999999862
21
-164.4031019999999899
0
LINE
8
BLACK
6
CONTINUOUS
10
511.4484589999999571
20
-163.2691779999999824
11
511.4978489999999738
21
-163.2783529999999814
0
LINE
8
BLACK
6
CONTINUOUS
10
449.9450369999999566
20
-166.9248570000000029
11
450.0424809999999525
21
-166.9056429999999978
0
LINE
8
BLACK
6
CONTINUOUS
10
422.9738159999999993
20
-81.0421520000000015
11
422.9535300000000007
21
-81.0885359999999906
0
LINE
8
BLACK
6
CONTINUOUS
10
422.6440869999999563
20
-161.9020649999999932
11
422.6656350000000089
21
-161.9612329999999929
0
LINE
8
BLACK
6
CONTINUOUS
10
477.5744619999999827
20
-160.8225419999999986
11
477.6245169999999689
21
-160.8207229999999868
0
LINE
8
BLACK
6
CONTINUOUS
10
538.571739999999977
20
-176.4940320000000042
11
538.4891509999999926
21
-176.4736889999999789
0
LINE
8
BLACK
6
CONTINUOUS
10
509.763040999999987
20
-162.9760259999999903
11
509.8127470000000017
21
-162.984218999999996
0
LINE
8
BLACK
6
CONTINUOUS
10
539.4020080000000235
20
-176.6167959999999937
11
539.3186239999999998
21
-176.6111180000000047
0
LINE
8
BLACK
6
CONTINUOUS
10
423.925630999999953
20
-79.6315349999999995
11
423.8893459999999891
21
-79.6693739999999906
0
LINE
8
BLACK
6
CONTINUOUS
10
514.5781349999999748
20
-163.9406630000000007
11
514.6746610000000146
21
-163.9649479999999926
0
LINE
8
BLACK
6
CONTINUOUS
10
471.2499449999999683
20
-161.3564489999999978
11
471.3487039999999979
21
-161.3424809999999923
0
LINE
8
BLACK
6
CONTINUOUS
10
538.4066399999999248
20
-176.4518829999999809
11
538.3242089999999962
21
-176.4286109999999894
0
LINE
8
BLACK
6
CONTINUOUS
10
465.4094859999999585
20
-162.6060849999999789
11
465.5054829999999697
21
-162.5790609999999958
0
LINE
8
BLACK
6
CONTINUOUS
10
422.6875210000000038
20
-162.0196289999999806
11
422.7094079999999963
21
-162.0780249999999967
0
LINE
8
BLACK
6
CONTINUOUS
10
491.004498999999953
20
-160.9155470000000037
11
491.1043699999999603
21
-160.9183299999999974
0
LINE
8
BLACK
6
CONTINUOUS
10
517.9849609999999984
20
-164.9813699999999983
11
518.0772919999999431
21
-165.0158030000000053
0
LINE
8
BLACK
6
CONTINUOUS
10
450.9180969999999888
20
-166.7249199999999973
11
451.0152379999999539
21
-166.7039999999999793
0
LINE
8
BLACK
6
CONTINUOUS
10
479.1263859999999681
20
-160.7798760000000016
11
479.1764459999999985
21
-160.7789429999999982
0
LINE
8
BLACK
6
CONTINUOUS
10
422.5475189999999657
20
-82.7290220000000005
11
422.5416969999999992
21
-82.8206189999999935
0
CIRCLE
8
BLACK
10
441.2295550000000048
20
-94.2904449999999912
40
0.8999999999999999
0
LINE
8
BLACK
6
CONTINUOUS
10
455.2645849999999541
20
-165.6446179999999799
11
455.3606879999999819
21
-165.6179239999999879
0
LINE
8
BLACK
6
CONTINUOUS
10
457.0878789999999867
20
-165.1230919999999855
11
457.18370299999998
21
-165.0949049999999829
0
LINE
8
BLACK
6
CONTINUOUS
10
423.9989899999999921
20
-79.5566209999999927
11
423.9619149999999763
21
-79.5936959999999942
0
LINE
8
BLACK
6
CONTINUOUS
10
501.5354839999999967
20
-161.7126049999999964
11
501.6339669999999842
21
-161.7268029999999897
0
LINE
8
BLACK
6
CONTINUOUS
10
471.645196999999996
20
-161.3018059999999991
11
471.7440990000000056
21
-161.2886529999999823
0
LINE
8
BLACK
6
CONTINUOUS
10
499.7601329999999962
20
-161.4797529999999881
11
499.8589399999999614
21
-161.4914090000000044
0
LINE
8
BLACK
6
CONTINUOUS
10
425.1190829999999892
20
-78.713994999999997
11
425.0742709999999533
21
-78.7393220000000014
0
LINE
8
BLACK
6
CONTINUOUS
10
495.9910699999999792
20
-161.1386359999999911
11
496.0905589999999847
21
-161.1453469999999868
0
LINE
8
BLACK
6
CONTINUOUS
10
480.7275349999999889
20
-160.7612919999999974
11
480.82752899999997
21
-160.7608669999999904
0
LINE
8
BLACK
6
CONTINUOUS
10
424.9462969999999586
20
-165.4278539999999964
11
425.0172359999999685
21
-165.48284799999999
0
LINE
8
BLACK
6
CONTINUOUS
10
453.4350599999999645
20
-166.1321789999999794
11
453.5315349999999626
21
-166.1075369999999793
0
LINE
8
BLACK
6
CONTINUOUS
10
490.7048800000000028
20
-160.9074839999999824
11
490.8047559999999976
21
-160.9101239999999962
0
LINE
8
BLACK
6
CONTINUOUS
10
515.5390619999999444
20
-164.1942809999999895
11
515.6345989999999802
21
-164.2210169999999891
0
LINE
8
BLACK
6
CONTINUOUS
10
423.2596509999999626
20
-80.4982899999999972
11
423.2333339999999566
21
-80.5426899999999932
0
LINE
8
BLACK
6
CONTINUOUS
10
424.073902999999973
20
-79.4832619999999963
11
424.0360639999999535
21
-79.5195470000000029
0
LINE
8
BLACK
6
CONTINUOUS
10
491.3041059999999902
20
-160.9240479999999991
11
491.4039659999999685
21
-160.9269840000000045
0
LINE
8
BLACK
6
CONTINUOUS
10
451.5600000000000023
20
-74.6604449999999957
11
460.0849999999999795
21
-73.2004439999999903
0
LINE
8
BLACK
6
CONTINUOUS
10
483.6221199999999953
20
-160.7757469999999955
11
483.7217880000000036
21
-160.7770280000000014
0
LINE
8
BLACK
6
CONTINUOUS
10
465.6975739999999746
20
-162.5254609999999786
11
465.7936669999999708
21
-162.4988899999999887
0
LINE
8
BLACK
6
CONTINUOUS
10
502.6186720000000037
20
-161.8738369999999804
11
502.717158999999981
21
-161.8889479999999992
0
LINE
8
BLACK
6
CONTINUOUS
10
454.591370999999981
20
-165.8287639999999783
11
454.6875999999999749
21
-165.802757999999983
0
LINE
8
BLACK
6
CONTINUOUS
10
423.5298099999999977
20
-163.7818429999999807
11
423.5574689999999691
21
-163.8271049999999889
0
LINE
8
BLACK
6
CONTINUOUS
10
493.8990929999999935
20
-161.0207389999999918
11
493.9988129999999842
21
-161.0254419999999982
0
LINE
8
BLACK
6
CONTINUOUS
10
511.3990489999999909
20
-163.2600669999999923
11
511.4484589999999571
21
-163.2691779999999824
0
LINE
8
BLACK
6
CONTINUOUS
10
470.3629189999999767
20
-161.4916029999999978
11
470.461311999999964
21
-161.4757290000000012
0
LINE
8
BLACK
6
CONTINUOUS
10
511.8925519999999665
20
-163.3529209999999807
11
511.9418369999999641
21
-163.3623879999999815
0
LINE
8
BLACK
6
CONTINUOUS
10
423.1339339999999538
20
-163.0596259999999802
11
423.1592169999999555
21
-163.1102989999999977
0
LINE
8
BLACK
6
CONTINUOUS
10
518.1694810000000189
20
-165.0505609999999876
11
518.2615299999999934
21
-165.08566399999998
0
LINE
8
BLACK
6
CONTINUOUS
10
466.4673530000000028
20
-162.3176249999999925
11
466.5637529999999629
21
-162.2924639999999954
0
LINE
8
BLACK
6
CONTINUOUS
10
478.3253669999999715
20
-160.7985429999999951
11
478.3754309999999919
21
-160.7971849999999847
0
LINE
8
BLACK
6
CONTINUOUS
10
511.1518499999999676
20
-163.2149359999999945
11
511.2013079999999832
21
-163.2239059999999995
0
LINE
8
BLACK
6
CONTINUOUS
10
455.8409499999999639
20
-165.4830869999999834
11
455.9369539999999574
21
-165.4558600000000013
0
LINE
8
BLACK
6
CONTINUOUS
10
514.2880129999999781
20
-163.8691769999999792
11
514.3848100000000159
21
-163.8927819999999826
0
LINE
8
BLACK
6
CONTINUOUS
10
453.0489319999999793
20
-166.2294939999999883
11
453.145497999999975
21
-166.2053579999999897
0
LINE
8
BLACK
6
CONTINUOUS
10
424.7375569999999811
20
-165.2536000000000058
11
424.8064559999999688
21
-165.3132300000000043
0
LINE
8
BLACK
6
CONTINUOUS
10
508.8674340000000029
20
-162.8322679999999991
11
508.9172249999999735
21
-162.8401059999999916
0
LINE
8
BLACK
6
CONTINUOUS
10
490.8047559999999976
20
-160.9101239999999962
11
490.9046289999999999
21
-160.9128129999999999
0
LINE
8
BLACK
6
CONTINUOUS
10
481.0274839999999585
20
-160.7602459999999951
11
481.1274399999999787
21
-160.7600549999999942
0
LINE
8
BLACK
6
CONTINUOUS
10
452.3722980000000007
20
-166.3947379999999896
11
452.4690339999999651
21
-166.3715409999999792
0
LINE
8
BLACK
6
CONTINUOUS
10
425.1611489999999662
20
-165.5882039999999904
11
425.2341260000000034
21
-165.6385640000000024
0
LINE
8
BLACK
6
CONTINUOUS
10
507.074154999999962
20
-162.5583910000000003
11
507.1239539999999693
21
-162.5658669999999972
0
LINE
8
BLACK
6
CONTINUOUS
10
423.4205299999999852
20
-163.5976969999999824
11
423.4475109999999631
21
-163.6445070000000044
0
LINE
8
BLACK
6
CONTINUOUS
10
512.6302269999999908
20
-163.4993729999999914
11
513.4130809999999201
21
-163.6663369999999986
0
LINE
8
BLACK
6
CONTINUOUS
10
422.7608569999999872
20
-81.604022999999998
11
422.7324399999999969
21
-81.6984549999999956
0
LINE
8
BLACK
6
CONTINUOUS
10
505.4831140000000005
20
-162.3191489999999817
11
505.5327369999999974
21
-162.3266849999999977
0
LINE
8
BLACK
6
CONTINUOUS
10
426.001231999999959
20
-166.0571919999999864
11
426.081677999999954
21
-166.0905599999999822
0
LINE
8
BLACK
6
CONTINUOUS
10
474.9249729999999659
20
-160.9659879999999816
11
474.9748739999999998
21
-160.9623569999999972
0
LINE
8
BLACK
6
CONTINUOUS
10
454.2062649999999735
20
-165.9317139999999995
11
454.3025710000000004
21
-165.906138999999996
0
LINE
8
BLACK
6
CONTINUOUS
10
423.3999999999999773
20
-80.2804450000000003
11
423.3707769999999755
21
-80.3234179999999895
0
LINE
8
BLACK
6
CONTINUOUS
10
476.3736819999999739
20
-160.8754209999999887
11
476.4236869999999726
21
-160.8728150000000028
0
LINE
8
BLACK
6
CONTINUOUS
10
481.5271259999999529
20
-160.7600050000000067
11
481.6270099999999843
21
-160.760171999999983
0
LINE
8
BLACK
6
CONTINUOUS
10
475.5240509999999858
20
-160.9247269999999901
11
475.5740030000000047
21
-160.9215529999999887
0
LINE
8
BLACK
6
CONTINUOUS
10
423.5021509999999694
20
-163.7365779999999802
11
423.5298099999999977
21
-163.7818429999999807
0
LINE
8
BLACK
6
CONTINUOUS
10
458.7154489999999782
20
-164.6364039999999989
11
458.8111049999999977
21
-164.6073569999999791
0
LINE
8
BLACK
6
CONTINUOUS
10
467.0464269999999942
20
-162.1696890000000053
11
467.143101999999999
21
-162.1457729999999913
0
LINE
8
BLACK
6
CONTINUOUS
10
501.1414499999999634
20
-161.6569499999999948
11
501.239975999999956
21
-161.6706849999999918
0
LINE
8
BLACK
6
CONTINUOUS
10
425.0742709999999533
20
-78.7393220000000014
11
425.0294589999999744
21
-78.7646489999999915
0
LINE
8
BLACK
6
CONTINUOUS
10
465.7936669999999708
20
-162.4988899999999887
11
465.8897959999999898
21
-162.4724799999999902
0
LINE
8
BLACK
6
CONTINUOUS
10
507.2733629999999607
20
-162.5883039999999937
11
507.3231719999999996
21
-162.5957939999999837
0
LINE
8
BLACK
6
CONTINUOUS
10
422.8680499999999824
20
-162.4744340000000022
11
422.8912949999999569
21
-162.5297400000000039
0
LINE
8
BLACK
6
CONTINUOUS
10
479.9271979999999758
20
-160.7676899999999875
11
479.9772349999999506
21
-160.7671349999999961
0
LINE
8
BLACK
6
CONTINUOUS
10
479.7270289999999591
20
-160.7701669999999865
11
479.777072999999973
21
-160.7695219999999949
0
LINE
8
BLACK
6
CONTINUOUS
10
475.4741060000000061
20
-160.9279750000000035
11
475.5240509999999858
21
-160.9247269999999901
0
LINE
8
BLACK
6
CONTINUOUS
10
517.5212229999999636
20
-164.8141449999999963
11
517.6142419999999902
21
-164.8469460000000026
0
LINE
8
BLACK
6
CONTINUOUS
10
480.5275089999999523
20
-160.7623839999999973
11
480.5775189999999952
21
-160.762092999999993
0
LINE
8
BLACK
6
CONTINUOUS
10
516.8664219999999432
20
-164.593277999999998
11
516.960348999999951
21
-164.6239149999999825
0
LINE
8
BLACK
6
CONTINUOUS
10
474.6256829999999809
20
-160.9887209999999982
11
474.6755529999999794
21
-160.9848529999999869
0
LINE
8
BLACK
6
CONTINUOUS
10
424.8064559999999688
20
-165.3132300000000043
11
424.8760379999999941
21
-165.3713149999999814
0
LINE
8
BLACK
6
CONTINUOUS
10
458.619780999999989
20
-164.6654139999999984
11
458.7154489999999782
21
-164.6364039999999989
0
LINE
8
BLACK
6
CONTINUOUS
10
510.3590599999999995
20
-163.0757959999999969
11
510.4086709999999698
21
-163.0842920000000049
0
LINE
8
BLACK
6
CONTINUOUS
10
461.2007879999999886
20
-163.8733849999999848
11
461.2963369999999941
21
-163.8438950000000034
0
LINE
8
BLACK
6
CONTINUOUS
10
502.9141589999999837
20
-161.919337999999982
11
503.0126729999999498
21
-161.9346079999999972
0
LINE
8
BLACK
6
CONTINUOUS
10
485.4157129999999825
20
-160.8032890000000066
11
485.5153619999999819
21
-160.8050149999999974
0
LINE
8
BLACK
6
CONTINUOUS
10
423.3142449999999712
20
-80.4103779999999944
11
423.2869479999999953
21
-80.4543340000000029
0
LINE
8
BLACK
6
CONTINUOUS
10
424.3074619999999868
20
-79.2729829999999964
11
424.2674839999999676
21
-79.3067629999999895
0
LINE
8
BLACK
6
CONTINUOUS
10
422.6225379999999632
20
-161.8428969999999936
11
422.6440869999999563
21
-161.9020649999999932
0
LINE
8
BLACK
6
CONTINUOUS
10
470.7567469999999616
20
-161.4294060000000002
11
470.8553059999999846
21
-161.4143939999999873
0
LINE
8
BLACK
6
CONTINUOUS
10
424.511242999999979
20
-79.1093800000000016
11
424.4699779999999691
21
-79.1413879999999921
0
LINE
8
BLACK
6
CONTINUOUS
10
495.4934339999999793
20
-161.1066830000000039
11
495.5929859999999962
21
-161.1128640000000019
0
LINE
8
BLACK
6
CONTINUOUS
10
463.016366000000005
20
-163.315258
11
463.1119489999999814
21
-163.2861110000000053
0
LINE
8
BLACK
6
CONTINUOUS
10
510.5078819999999951
20
-163.1013350000000059
11
510.5574809999999957
21
-163.1098819999999989
0
LINE
8
BLACK
6
CONTINUOUS
10
422.6591119999999933
20
-81.9818899999999928
11
422.6385879999999702
21
-82.0762229999999988
0
LINE
8
BLACK
6
CONTINUOUS
10
510.5574809999999957
20
-163.1098819999999989
11
510.6070589999999925
21
-163.1184839999999951
0
LINE
8
BLACK
6
CONTINUOUS
10
472.1400669999999877
20
-161.2380229999999983
11
472.2391470000000027
21
-161.2258559999999932
0
LINE
8
BLACK
6
CONTINUOUS
10
422.8448060000000055
20
-162.4191299999999956
11
422.8680499999999824
21
-162.4744340000000022
0
LINE
8
BLACK
6
CONTINUOUS
10
477.6745719999999551
20
-160.8189619999999991
11
477.7246289999999931
21
-160.8171999999999855
0
LINE
8
BLACK
6
CONTINUOUS
10
469.7734789999999521
20
-161.591481999999985
11
469.8716069999999831
21
-161.5742759999999976
0
LINE
8
BLACK
6
CONTINUOUS
10
488.6076479999999833
20
-160.8605890000000045
11
488.707493999999997
21
-160.8625309999999899
0
LINE
8
BLACK
6
CONTINUOUS
10
455.3606879999999819
20
-165.6179239999999879
11
455.4567720000000008
21
-165.5911339999999825
0
LINE
8
BLACK
6
CONTINUOUS
10
460.1018489999999588
20
-164.2122949999999832
11
460.1496379999999817
21
-164.1975869999999986
0
LINE
8
BLACK
6
CONTINUOUS
10
467.2398289999999861
20
-162.122084000000001
11
467.3366069999999581
21
-162.0986240000000009
0
LINE
8
BLACK
6
CONTINUOUS
10
508.6184319999999843
20
-162.7933599999999785
11
508.6682379999999739
21
-162.8011099999999942
0
LINE
8
BLACK
6
CONTINUOUS
10
460.1974249999999529
20
-164.1828710000000058
11
460.2452129999999784
21
-164.1681590000000028
0
LINE
8
BLACK
6
CONTINUOUS
10
540.4088309999999638
20
-176.5705759999999884
11
540.3244889999999714
21
-176.5824899999999786
0
LINE
8
BLACK
6
CONTINUOUS
10
515.8253559999999425
20
-164.2752629999999954
11
515.9205699999999979
21
-164.302786999999995
0
LINE
8
BLACK
6
CONTINUOUS
10
497.4818669999999656
20
-161.2511920000000032
11
497.5811269999999809
21
-161.2596499999999935
0
LINE
8
BLACK
6
CONTINUOUS
10
423.4593899999999849
20
-80.1950379999999967
11
423.429222999999979
21
-80.2374719999999968
0
LINE
8
BLACK
6
CONTINUOUS
10
475.1745159999999828
20
-160.9481429999999875
11
475.2244339999999738
21
-160.9446669999999813
0
LINE
8
BLACK
6
CONTINUOUS
10
450.5292399999999589
20
-166.8069500000000005
11
450.6264969999999721
21
-166.7866960000000063
0
LINE
8
BLACK
6
CONTINUOUS
10
460.914135999999985
20
-163.9618619999999964
11
461.0096879999999828
21
-163.9323729999999841
0
LINE
8
BLACK
6
CONTINUOUS
10
475.0247749999999769
20
-160.9587269999999819
11
475.0746859999999856
21
-160.955173000000002
0
LINE
8
BLACK
6
CONTINUOUS
10
474.875080999999966
20
-160.9696969999999965
11
474.9249729999999659
21
-160.9659879999999816
0
LINE
8
BLACK
6
CONTINUOUS
10
502.3232499999999732
20
-161.8288859999999829
11
502.421718999999996
21
-161.8438009999999849
0
LINE
8
BLACK
6
CONTINUOUS
10
479.0763249999999971
20
-160.7808579999999949
11
479.1263859999999681
21
-160.7798760000000016
0
LINE
8
BLACK
6
CONTINUOUS
10
509.4149329999999622
20
-162.9193769999999972
11
509.4646799999999871
21
-162.9273979999999824
0
LINE
8
BLACK
6
CONTINUOUS
10
449.0077440000000024
20
-166.9149630000000002
11
449.8475609999999847
21
-166.943885999999992
0
LINE
8
BLACK
6
CONTINUOUS
10
457.4711049999999659
20
-165.0099709999999789
11
457.5668849999999566
21
-164.9815419999999904
0
LINE
8
BLACK
6
CONTINUOUS
10
469.5773609999999962
20
-161.6265719999999817
11
469.6753959999999779
21
-161.6089139999999986
0
LINE
8
BLACK
6
CONTINUOUS
10
500.549966999999981
20
-161.5773669999999811
11
500.6485950000000003
21
-161.5902729999999963
0
LINE
8
BLACK
6
CONTINUOUS
10
494.3976009999999519
20
-161.0450969999999984
11
494.4972740000000044
21
-161.0502309999999966
0
LINE
8
BLACK
6
CONTINUOUS
10
508.0206329999999753
20
-162.701344000000006
11
508.0704549999999813
21
-162.7089419999999791
0
LINE
8
BLACK
6
CONTINUOUS
10
457.18370299999998
20
-165.0949049999999829
11
457.279516000000001
21
-165.0666530000000023
0
LINE
8
BLACK
6
CONTINUOUS
10
452.9523439999999823
20
-166.2535029999999949
11
453.0489319999999793
21
-166.2294939999999883
0
LINE
8
BLACK
6
CONTINUOUS
10
486.2130319999999983
20
-160.8173189999999977
11
486.3127240000000029
21
-160.819090999999986
0
LINE
8
BLACK
6
CONTINUOUS
10
453.7244199999999523
20
-166.0578879999999913
11
453.8208309999999983
21
-166.0328889999999831
0
LINE
8
BLACK
6
CONTINUOUS
10
466.756684000000007
20
-162.2427279999999996
11
466.8532179999999698
21
-162.2181679999999915
0
LINE
8
BLACK
6
CONTINUOUS
10
498.2754609999999502
20
-161.3224629999999991
11
498.3745769999999879
21
-161.3319630000000018
0
LINE
8
BLACK
6
CONTINUOUS
10
462.6340739999999983
20
-163.4321579999999869
11
462.7296409999999582
21
-163.4028899999999851
0
LINE
8
BLACK
6
CONTINUOUS
10
477.25
20
-70.9304449999999918
11
491.1499999999999773
21
-70.9304449999999918
0
LINE
8
BLACK
6
CONTINUOUS
10
458.4284289999999942
20
-164.7233059999999796
11
458.5241110000000049
21
-164.6943809999999928
0
LINE
8
BLACK
6
CONTINUOUS
10
477.0239619999999832
20
-160.8444429999999841
11
477.0739999999999554
21
-160.8423099999999977
0
LINE
8
BLACK
6
CONTINUOUS
10
504.7894059999999854
20
-162.2126140000000021
11
504.8388999999999669
21
-162.2202859999999873
0
LINE
8
BLACK
6
CONTINUOUS
10
426.8362510000000043
20
-166.3213329999999814
11
426.923486999999966
21
-166.3392470000000003
0
LINE
8
BLACK
6
CONTINUOUS
10
476.723782999999969
20
-160.8580309999999827
11
476.7738089999999715
21
-160.8556999999999846
0
LINE
8
BLACK
6
CONTINUOUS
10
422.6013319999999567
20
-161.7829559999999844
11
422.6225379999999632
21
-161.8428969999999936
0
LINE
8
BLACK
6
CONTINUOUS
10
493.4003730000000019
20
-160.9984450000000038
11
493.5001350000000002
21
-161.0027450000000044
0
LINE
8
BLACK
6
CONTINUOUS
10
488.008658999999966
20
-160.8493059999999844
11
488.1084799999999859
21
-160.8511479999999949
0
LINE
8
BLACK
6
CONTINUOUS
10
477.9749249999999847
20
-160.8089310000000012
11
478.0249849999999583
21
-160.8073499999999854
0
LINE
8
BLACK
6
CONTINUOUS
10
474.1272769999999923
20
-161.0298549999999977
11
474.1770960000000059
21
-161.0255760000000009
0
LINE
8
BLACK
6
CONTINUOUS
10
480.1273369999999545
20
-160.7655699999999968
11
480.177364999999952
21
-160.7651089999999954
0
LINE
8
BLACK
6
CONTINUOUS
10
510.2101490000000013
20
-163.0505299999999806
11
510.2597959999999944
21
-163.0589159999999822
0
LINE
8
BLACK
6
CONTINUOUS
10
516.1106659999999238
20
-164.3586410000000058
11
516.2055460000000267
21
-164.3869799999999941
0
LINE
8
BLACK
6
CONTINUOUS
10
539.9879300000000057
20
-176.615491999999989
11
539.9039849999999205
21
-176.620079000000004
0
LINE
8
BLACK
6
CONTINUOUS
10
499.3646739999999795
20
-161.4346270000000061
11
499.4635719999999992
21
-161.4456869999999924
0
LINE
8
BLACK
6
CONTINUOUS
10
508.4191869999999653
20
-162.7624879999999905
11
508.4690009999999916
21
-162.7701779999999872
0
LINE
8
BLACK
6
CONTINUOUS
10
541.171463000000017
20
-176.3973519999999837
11
541.0864080000000058
21
-176.4224669999999833
0
LINE
8
BLACK
6
CONTINUOUS
10
422.8581999999999539
20
-81.3217009999999902
11
422.8409639999999854
21
-81.3686419999999941
0
LINE
8
BLACK
6
CONTINUOUS
10
509.8127470000000017
20
-162.984218999999996
11
509.8624479999999721
21
-162.9924149999999941
0
LINE
8
BLACK
6
CONTINUOUS
10
426.2446059999999761
20
-166.1526549999999816
11
426.3270890000000009
21
-166.1813860000000034
0
LINE
8
BLACK
6
CONTINUOUS
10
423.1844989999999598
20
-163.1609689999999944
11
423.2101209999999583
21
-163.210866999999979
0
LINE
8
BLACK
6
CONTINUOUS
10
502.2247830000000022
20
-161.814046999999988
11
502.3232499999999732
21
-161.8288859999999829
0
LINE
8
BLACK
6
CONTINUOUS
10
427.3540360000000078
20
-78.0952130000000011
11
427.2629869999999528
21
-78.0993289999999973
0
LINE
8
BLACK
6
CONTINUOUS
10
541.4271069999999781
20
-176.3132200000000012
11
541.3418130000000019
21
-176.3427309999999864
0
LINE
8
BLACK
6
CONTINUOUS
10
425.2341260000000034
20
-165.6385640000000024
11
425.3077809999999772
21
-165.6873789999999929
0
LINE
8
BLACK
6
CONTINUOUS
10
426.3270890000000009
20
-166.1813860000000034
11
426.410254000000009
21
-166.2085720000000038
0
LINE
8
BLACK
6
CONTINUOUS
10
423.6157649999999535
20
-79.9863440000000026
11
423.5837569999999914
21
-80.0276089999999982
0
LINE
8
BLACK
6
CONTINUOUS
10
476.0237169999999765
20
-160.894457999999986
11
476.0737049999999613
21
-160.8916470000000061
0
LINE
8
BLACK
6
CONTINUOUS
10
539.6526410000000169
20
-176.6250339999999994
11
539.5690180000000282
21
-176.6237549999999885
0
LINE
8
BLACK
6
CONTINUOUS
10
482.6250849999999559
20
-160.7653019999999913
11
482.7248289999999997
21
-160.7661319999999989
0
LINE
8
BLACK
6
CONTINUOUS
10
488.1084799999999859
20
-160.8511479999999949
11
488.2083039999999983
21
-160.8530020000000036
0
LINE
8
BLACK
6
CONTINUOUS
10
501.3384889999999814
20
-161.6845419999999933
11
501.4369909999999777
21
-161.6985159999999837
0
LINE
8
BLACK
6
CONTINUOUS
10
426.2353180000000066
20
-78.2636519999999933
11
426.1408229999999548
21
-78.290071999999995
0
LINE
8
BLACK
6
CONTINUOUS
10
512.2863879999999881
20
-163.4299049999999909
11
512.3355609999999842
21
-163.4396879999999896
0
LINE
8
BLACK
6
CONTINUOUS
10
463.876829999999984
20
-163.054397999999992
11
463.9724819999999568
21
-163.0256819999999891
0
CIRCLE
8
BLACK
10
441.2595549999999776
20
-111.2104449999999929
40
0.8999999999999999
0
LINE
8
BLACK
6
CONTINUOUS
10
473.8285060000000044
20
-161.0565389999999866
11
473.9280729999999835
21
-161.047473999999994
0
LINE
8
BLACK
6
CONTINUOUS
10
508.9172249999999735
20
-162.8401059999999916
11
508.967016000000001
21
-162.847943999999984
0
LINE
8
BLACK
6
CONTINUOUS
10
518.5368009999999686
20
-165.1930119999999818
11
518.6282629999999472
21
-165.2294890000000009
0
LINE
8
BLACK
6
CONTINUOUS
10
422.6385879999999702
20
-82.0762229999999988
11
422.6199919999999679
21
-82.1703890000000001
0
LINE
8
BLACK
6
CONTINUOUS
10
517.7998759999999265
20
-164.9135069999999814
11
517.8924879999999575
21
-164.9472739999999931
0
LINE
8
BLACK
6
CONTINUOUS
10
487.8090369999999893
20
-160.8456679999999892
11
487.9088439999999878
21
-160.8474799999999902
0
LINE
8
BLACK
6
CONTINUOUS
10
498.968877999999961
20
-161.3918599999999799
11
499.0678570000000036
21
-161.4023349999999937
0
LINE
8
BLACK
6
CONTINUOUS
10
541.8547669999999243
20
-176.1436750000000018
11
541.7690759999999273
21
-176.1805169999999805
0
LINE
8
BLACK
6
CONTINUOUS
10
542.8459460000000263
20
-175.6144319999999936
11
542.8026229999999259
21
-175.641649000000001
0
LINE
8
BLACK
6
CONTINUOUS
10
490.9046289999999999
20
-160.9128129999999999
11
491.004498999999953
21
-160.9155470000000037
0
LINE
8
BLACK
6
CONTINUOUS
10
490.10562299999998
20
-160.8925389999999993
11
490.2054999999999723
21
-160.8949250000000006
0
LINE
8
BLACK
6
CONTINUOUS
10
509.0167979999999943
20
-162.8558160000000044
11
509.0665819999999826
21
-162.8636889999999937
0
LINE
8
BLACK
6
CONTINUOUS
10
542.0263899999999921
20
-176.065591999999981
11
541.9405399999999418
21
-176.1053679999999986
0
LINE
8
BLACK
6
CONTINUOUS
10
512.1880149999999503
20
-163.4104209999999853
11
512.2372159999999894
21
-163.4201229999999896
0
LINE
8
BLACK
6
CONTINUOUS
10
457.9498909999999796
20
-164.8672689999999932
11
458.0456169999999929
21
-164.8385719999999992
0
LINE
8
BLACK
6
CONTINUOUS
10
468.9901590000000056
20
-161.7373939999999948
11
469.0879019999999855
21
-161.7183389999999861
0
LINE
8
BLACK
6
CONTINUOUS
10
454.0135869999999727
20
-165.9825280000000021
11
454.1099350000000072
21
-165.9571799999999939
0
LINE
8
BLACK
6
CONTINUOUS
10
425.3821140000000014
20
-165.7346479999999929
11
425.4571269999999572
21
-165.7803729999999973
0
LINE
8
BLACK
6
CONTINUOUS
10
506.52661599999999
20
-162.4763519999999914
11
506.5763670000000047
21
-162.4838019999999972
0
LINE
8
BLACK
6
CONTINUOUS
10
501.7324459999999817
20
-161.7411050000000046
11
501.8309189999999944
21
-161.7555109999999843
0
LINE
8
BLACK
6
CONTINUOUS
10
460.6274679999999648
20
-164.0503190000000018
11
460.6752469999999562
21
-164.0355809999999792
0
LINE
8
BLACK
6
CONTINUOUS
10
474.4761059999999588
20
-161.0006520000000023
11
474.5259599999999978
21
-160.9966210000000046
0
LINE
8
BLACK
6
CONTINUOUS
10
484.3196839999999952
20
-160.7854389999999967
11
484.4193269999999529
21
-160.7869509999999877
0
LINE
8
BLACK
6
CONTINUOUS
10
486.8113039999999501
20
-160.8279189999999801
11
486.911044000000004
21
-160.8296780000000012
0
LINE
8
BLACK
6
CONTINUOUS
10
513.4130809999999201
20
-163.6663369999999986
11
513.5106140000000323
21
-163.6880559999999889
0
LINE
8
BLACK
6
CONTINUOUS
10
511.2013079999999832
20
-163.2239059999999995
11
511.2507650000000012
21
-163.2328799999999944
0
LINE
8
BLACK
6
CONTINUOUS
10
424.5531080000000088
20
-79.0782839999999965
11
424.511242999999979
21
-79.1093800000000016
0
LINE
8
BLACK
6
CONTINUOUS
10
478.5256259999999884
20
-160.7932299999999941
11
478.5756920000000036
21
-160.7919839999999851
0
LINE
8
BLACK
6
CONTINUOUS
10
424.2107969999999568
20
-164.7209479999999928
11
424.2742659999999546
21
-164.7929369999999949
0
LINE
8
BLACK
6
CONTINUOUS
10
457.279516000000001
20
-165.0666530000000023
11
457.375315999999998
21
-165.0383449999999925
0
LINE
8
BLACK
6
CONTINUOUS
10
488.8073459999999955
20
-160.8644970000000001
11
488.907197999999994
21
-160.8664859999999805
0
LINE
8
BLACK
6
CONTINUOUS
10
530.1299999999999955
20
-75.6704450000000008
11
556.5699999999999363
21
-75.6704450000000008
0
LINE
8
BLACK
6
CONTINUOUS
10
474.8251909999999612
20
-160.9734100000000012
11
474.875080999999966
21
-160.9696969999999965
0
LINE
8
BLACK
6
CONTINUOUS
10
491.1499999999999773
20
-70.9304449999999918
11
500.5099999999999909
21
-71.8404450000000026
0
LINE
8
BLACK
6
CONTINUOUS
10
473.7289649999999597
20
-161.0657759999999996
11
473.8285060000000044
21
-161.0565389999999866
0
LINE
8
BLACK
6
CONTINUOUS
10
486.5121299999999565
20
-160.8226310000000012
11
486.6118469999999547
21
-160.8243989999999997
0
LINE
8
BLACK
6
CONTINUOUS
10
485.116784999999993
20
-160.7981920000000002
11
485.2164259999999558
21
-160.7998769999999809
0
LINE
8
BLACK
6
CONTINUOUS
10
458.9067539999999781
20
-164.5782779999999832
11
459.0023969999999736
21
-164.5491590000000031
0
LINE
8
BLACK
6
CONTINUOUS
10
508.7678419999999733
20
-162.8166569999999922
11
508.8176369999999906
21
-162.8244650000000036
0
LINE
8
BLACK
6
CONTINUOUS
10
474.4262549999999692
20
-161.004683
11
474.4761059999999588
21
-161.0006520000000023
0
LINE
8
BLACK
6
CONTINUOUS
10
459.1936609999999632
20
-164.4908259999999984
11
459.2892839999999524
21
-164.4616110000000049
0
LINE
8
BLACK
6
CONTINUOUS
10
477.2241219999999657
20
-160.8360339999999837
11
477.2741669999999772
21
-160.8340269999999919
0
LINE
8
BLACK
6
CONTINUOUS
10
478.6758229999999799
20
-160.7895479999999964
11
478.7258860000000027
21
-160.7883559999999932
0
LINE
8
BLACK
6
CONTINUOUS
10
483.4227730000000065
20
-160.7733049999999935
11
483.5224499999999921
21
-160.7745060000000024
0
LINE
8
BLACK
6
CONTINUOUS
10
508.518812999999966
20
-162.7778969999999958
11
508.5686230000000023
21
-162.7856139999999812
0
LINE
8
BLACK
6
CONTINUOUS
10
540.4932499999999891
20
-176.5571939999999813
11
540.4088309999999638
21
-176.5705759999999884
0
LINE
8
BLACK
6
CONTINUOUS
10
542.3705870000000004
20
-175.8918349999999862
11
542.2844179999999596
21
-175.9374749999999779
0
LINE
8
BLACK
6
CONTINUOUS
10
497.7795949999999721
20
-161.2769490000000019
11
497.8788049999999998
21
-161.2857889999999941
0
LINE
8
BLACK
6
CONTINUOUS
10
542.1983289999999442
20
-175.9816459999999836
11
542.1123199999999542
21
-176.0243539999999882
0
LINE
8
BLACK
6
CONTINUOUS
10
422.7324399999999969
20
-81.6984549999999956
11
422.7060199999999668
21
-81.7929499999999905
0
LINE
8
BLACK
6
CONTINUOUS
10
463.3031269999999608
20
-163.2279130000000009
11
463.3987239999999588
21
-163.1988709999999969
0
LINE
8
BLACK
6
CONTINUOUS
10
509.8624479999999721
20
-162.9924149999999941
11
509.9121369999999729
21
-163.0006520000000023
0
LINE
8
BLACK
6
CONTINUOUS
10
459.0023969999999736
20
-164.5491590000000031
11
459.0980319999999892
21
-164.5200069999999926
0
LINE
8
BLACK
6
CONTINUOUS
10
464.5467160000000035
20
-162.8550469999999848
11
464.6424849999999651
21
-162.8269259999999861
0
LINE
8
BLACK
6
CONTINUOUS
10
542.6728130000000192
20
-175.7203700000000026
11
542.6295699999999442
21
-175.7461249999999779
0
LINE
8
BLACK
6
CONTINUOUS
10
501.6339669999999842
20
-161.7268029999999897
11
501.7324459999999817
21
-161.7411050000000046
0
LINE
8
BLACK
6
CONTINUOUS
10
479.827118999999982
20
-160.7688789999999983
11
479.877159000000006
21
-160.7682839999999942
0
LINE
8
BLACK
6
CONTINUOUS
10
500.4513199999999529
20
-161.5646160000000009
11
500.549966999999981
21
-161.5773669999999811
0
LINE
8
BLACK
6
CONTINUOUS
10
510.8548439999999573
20
-163.1618589999999926
11
510.9043669999999793
21
-163.1706419999999866
0
LINE
8
BLACK
6
CONTINUOUS
10
423.9036439999999857
20
-164.3378309999999942
11
423.9637169999999742
21
-164.4175429999999949
0
LINE
8
BLACK
6
CONTINUOUS
10
424.2281919999999786
20
-79.3413989999999956
11
424.1888999999999896
21
-79.3760350000000017
0
LINE
8
BLACK
6
CONTINUOUS
10
505.7312919999999963
20
-162.3567699999999832
11
505.7809469999999692
21
-162.3642779999999846
0
LINE
8
BLACK
6
CONTINUOUS
10
486.3127240000000029
20
-160.819090999999986
11
486.4124219999999923
21
-160.8208640000000003
0
LINE
8
BLACK
6
CONTINUOUS
10
515.3476719999999887
20
-164.1415879999999845
11
515.4434179999999515
21
-164.1678079999999795
0
LINE
8
BLACK
6
CONTINUOUS
10
517.1478220000000192
20
-164.6860929999999996
11
517.2413689999999633
21
-164.7176399999999887
0
LINE
8
BLACK
6
CONTINUOUS
10
467.6272559999999885
20
-162.0296699999999817
11
467.7242489999999862
21
-162.0071779999999819
0
LINE
8
BLACK
6
CONTINUOUS
10
507.3729829999999765
20
-162.6032859999999971
11
507.422794999999951
21
-162.6107899999999802
0
LINE
8
BLACK
6
CONTINUOUS
10
423.5854669999999942
20
-163.87159699999998
11
423.6134669999999574
21
-163.916089999999997
0
LINE
8
BLACK
6
CONTINUOUS
10
460.2452129999999784
20
-164.1681590000000028
11
460.2929949999999621
21
-164.1534350000000018
0
LINE
8
BLACK
6
CONTINUOUS
10
510.4582859999999869
20
-163.0927829999999972
11
510.5078819999999951
21
-163.1013350000000059
0
LINE
8
BLACK
6
CONTINUOUS
10
427.2629869999999528
20
-78.0993289999999973
11
427.171389999999974
21
-78.1051509999999922
0
LINE
8
BLACK
6
CONTINUOUS
10
499.4635719999999992
20
-161.4456869999999924
11
499.5624459999999658
21
-161.4568899999999871
0
LINE
8
BLACK
6
CONTINUOUS
10
468.1127879999999664
20
-161.9197179999999889
11
468.2100590000000011
21
-161.8984829999999988
0
LINE
8
BLACK
6
CONTINUOUS
10
506.4768609999999853
20
-162.4688940000000059
11
506.52661599999999
21
-162.4763519999999914
0
LINE
8
BLACK
6
CONTINUOUS
10
542.889269000000013
20
-175.5872119999999938
11
542.8459460000000263
21
-175.6144319999999936
0
LINE
8
BLACK
6
CONTINUOUS
10
497.3825899999999933
20
-161.242857999999984
11
497.4818669999999656
21
-161.2511920000000032
0
LINE
8
BLACK
6
CONTINUOUS
10
493.5001350000000002
20
-161.0027450000000044
11
493.599884999999972
21
-161.0071240000000046
0
LINE
8
BLACK
6
CONTINUOUS
10
423.0840479999999957
20
-162.9567370000000039
11
423.1089910000000032
21
-163.0081830000000025
0
LINE
8
BLACK
6
CONTINUOUS
10
512.1388140000000249
20
-163.400718999999981
11
512.1880149999999503
21
-163.4104209999999853
0
LINE
8
BLACK
6
CONTINUOUS
10
485.2164259999999558
20
-160.7998769999999809
11
485.3160689999999704
21
-160.8015790000000038
0
LINE
8
BLACK
6
CONTINUOUS
10
538.8199859999999717
20
-176.5462550000000022
11
538.7371560000000272
21
-176.5303150000000016
0
LINE
8
BLACK
6
CONTINUOUS
10
509.6636110000000031
20
-162.9597320000000025
11
509.7133269999999925
21
-162.9678789999999822
0
LINE
8
BLACK
6
CONTINUOUS
10
504.0974659999999972
20
-162.1044650000000047
11
504.1962219999999775
21
-162.1199649999999792
0
LINE
8
BLACK
6
CONTINUOUS
10
499.0678570000000036
20
-161.4023349999999937
11
499.1668169999999805
21
-161.4129570000000058
0
LINE
8
BLACK
6
CONTINUOUS
10
423.5837569999999914
20
-80.0276089999999982
11
423.551747999999975
21
-80.0688749999999914
0
LINE
8
BLACK
6
CONTINUOUS
10
507.6220629999999687
20
-162.6408490000000029
11
507.6718779999999924
21
-162.6483810000000005
0
LINE
8
BLACK
6
CONTINUOUS
10
426.5185909999999581
20
-78.1962199999999967
11
426.4242580000000089
21
-78.2167439999999914
0
LINE
8
BLACK
6
CONTINUOUS
10
453.8208309999999983
20
-166.0328889999999831
11
453.9172199999999862
21
-166.0077650000000062
0
LINE
8
BLACK
6
CONTINUOUS
10
475.8737809999999513
20
-160.903176000000002
11
475.9237559999999689
21
-160.9002209999999877
0
LINE
8
BLACK
6
CONTINUOUS
10
466.370993999999996
20
-162.3429809999999804
11
466.4673530000000028
21
-162.3176249999999925
0
LINE
8
BLACK
6
CONTINUOUS
10
487.9088439999999878
20
-160.8474799999999902
11
488.008658999999966
21
-160.8493059999999844
0
LINE
8
BLACK
6
CONTINUOUS
10
426.4242580000000089
20
-78.2167439999999914
11
426.3298149999999964
21
-78.2392150000000015
0
LINE
8
BLACK
6
CONTINUOUS
10
506.9247819999999933
20
-162.5359980000000064
11
506.974568999999974
21
-162.5434589999999844
0
LINE
8
BLACK
6
CONTINUOUS
10
477.3242109999999911
20
-160.8320169999999791
11
477.374258999999995
21
-160.8300739999999962
0
LINE
8
BLACK
6
CONTINUOUS
10
494.5969389999999635
20
-161.0554520000000025
11
494.6965929999999503
21
-161.0607629999999801
0
LINE
8
BLACK
6
CONTINUOUS
10
498.7708559999999807
20
-161.3713369999999827
11
498.869876999999974
21
-161.3815290000000005
0
CIRCLE
8
BLACK
10
514.0495549999999412
20
-75.700445000000002
40
0.8999999999999999
0
LINE
8
BLACK
6
CONTINUOUS
10
489.4065079999999739
20
-160.8768059999999878
11
489.5063759999999888
21
-160.8789559999999881
0
LINE
8
BLACK
6
CONTINUOUS
10
468.3073859999999513
20
-161.877490999999992
11
468.4047669999999925
21
-161.8567479999999819
0
LINE
8
BLACK
6
CONTINUOUS
10
484.2200419999999781
20
-160.783963
11
484.3196839999999952
21
-160.7854389999999967
0
LINE
8
BLACK
6
CONTINUOUS
10
497.6803709999999796
20
-161.2682360000000017
11
497.7795949999999721
21
-161.2769490000000019
0
LINE
8
BLACK
6
CONTINUOUS
10
425.7172819999999547
20
-78.4340839999999986
11
425.6704939999999624
21
-78.4523360000000025
0
LINE
8
BLACK
6
CONTINUOUS
10
452.4690339999999651
20
-166.3715409999999792
11
452.5657449999999926
21
-166.3482049999999788
0
LINE
8
BLACK
6
CONTINUOUS
10
422.8912949999999569
20
-162.5297400000000039
11
422.9148789999999849
21
-162.5842739999999935
0
LINE
8
BLACK
6
CONTINUOUS
10
424.0244689999999537
20
-164.495711
11
424.0858989999999835
21
-164.5723339999999837
0
LINE
8
BLACK
6
CONTINUOUS
10
473.1322599999999738
20
-161.1248779999999954
11
473.2316419999999653
21
-161.1145829999999819
0
LINE
8
BLACK
6
CONTINUOUS
10
474.2767450000000053
20
-161.0171059999999841
11
474.3265739999999937
21
-161.0129110000000026
0
LINE
8
BLACK
6
CONTINUOUS
10
454.6875999999999749
20
-165.802757999999983
11
454.783807999999965
21
-165.7766509999999869
0
LINE
8
BLACK
6
CONTINUOUS
10
480.9275129999999763
20
-160.760518999999988
11
481.0274839999999585
21
-160.7602459999999951
0
LINE
8
BLACK
6
CONTINUOUS
10
483.8214439999999854
20
-160.7783459999999991
11
483.9210999999999672
21
-160.7797029999999836
0
LINE
8
BLACK
6
CONTINUOUS
10
493.599884999999972
20
-161.0071240000000046
11
493.6996279999999615
21
-161.0115799999999808
0
LINE
8
BLACK
6
CONTINUOUS
10
470.2645689999999945
20
-161.5076959999999815
11
470.3629189999999767
21
-161.4916029999999978
0
LINE
8
BLACK
6
CONTINUOUS
10
459.0980319999999892
20
-164.5200069999999926
11
459.1936609999999632
21
-164.4908259999999984
0
LINE
8
BLACK
6
CONTINUOUS
10
512.5320679999999811
20
-163.4793080000000032
11
512.5811489999999822
21
-163.4893399999999986
0
LINE
8
BLACK
6
CONTINUOUS
10
485.8143309999999815
20
-160.8102519999999913
11
485.9139979999999923
21
-160.8120150000000024
0
LINE
8
BLACK
6
CONTINUOUS
10
507.4726079999999797
20
-162.6182900000000018
11
507.5224249999999984
21
-162.625805999999983
0
LINE
8
BLACK
6
CONTINUOUS
10
426.1408229999999548
20
-78.290071999999995
11
426.0463909999999714
21
-78.3184889999999996
0
LINE
8
BLACK
6
CONTINUOUS
10
453.145497999999975
20
-166.2053579999999897
11
453.2420419999999694
21
-166.1810899999999833
0
LINE
8
BLACK
6
CONTINUOUS
10
450.237277000000006
20
-166.8666900000000055
11
450.3346279999999524
21
-166.8469489999999951
0
LINE
8
BLACK
6
CONTINUOUS
10
477.374258999999995
20
-160.8300739999999962
11
477.4243089999999938
21
-160.8281309999999849
0
LINE
8
BLACK
6
CONTINUOUS
10
465.3135169999999903
20
-162.6332439999999906
11
465.4094859999999585
21
-162.6060849999999789
0
LINE
8
BLACK
6
CONTINUOUS
10
472.338252999999952
20
-161.2138789999999915
11
472.4373969999999758
21
-161.2020959999999832
0
LINE
8
BLACK
6
CONTINUOUS
10
422.9535300000000007
20
-81.0885359999999906
11
422.9332430000000045
21
-81.1349209999999914
0
LINE
8
BLACK
6
CONTINUOUS
10
467.5303199999999606
20
-162.0524130000000014
11
467.6272559999999885
21
-162.0296699999999817
0
LINE
8
BLACK
6
CONTINUOUS
10
455.7449289999999564
20
-165.5102299999999786
11
455.8409499999999639
21
-165.4830869999999834
0
LINE
8
BLACK
6
CONTINUOUS
10
539.5690180000000282
20
-176.6237549999999885
11
539.4854729999999563
21
-176.6210079999999891
0
LINE
8
BLACK
6
CONTINUOUS
10
494.0985239999999976
20
-161.030225999999999
11
494.1982259999999769
21
-161.0350959999999816
0
LINE
8
BLACK
6
CONTINUOUS
10
478.6257569999999646
20
-160.7907390000000021
11
478.6758229999999799
21
-160.7895479999999964
0
LINE
8
BLACK
6
CONTINUOUS
10
472.7350149999999758
20
-161.1678890000000024
11
472.8342819999999733
21
-161.1568609999999921
0
LINE
8
BLACK
6
CONTINUOUS
10
482.8245599999999627
20
-160.767013999999989
11
482.9242840000000001
21
-160.767944
0
LINE
8
BLACK
6
CONTINUOUS
10
483.7217880000000036
20
-160.7770280000000014
11
483.8214439999999854
21
-160.7783459999999991
0
LINE
8
BLACK
6
CONTINUOUS
10
474.5758209999999622
20
-160.9926729999999964
11
474.6256829999999809
21
-160.9887209999999982
0
LINE
8
BLACK
6
CONTINUOUS
10
540.3244889999999714
20
-176.5824899999999786
11
540.2402309999999943
21
-176.5929429999999911
0
LINE
8
BLACK
6
CONTINUOUS
10
426.5786139999999591
20
-166.2583099999999945
11
426.6638149999999996
21
-166.2808619999999848
0
LINE
8
BLACK
6
CONTINUOUS
10
509.9121369999999729
20
-163.0006520000000023
11
509.9618259999999736
21
-163.008893999999998
0
LINE
8
BLACK
6
CONTINUOUS
10
425.1642749999999751
20
-78.6896649999999909
11
425.1190829999999892
21
-78.713994999999997
0
LINE
8
BLACK
6
CONTINUOUS
10
451.1123499999999922
20
-166.6829139999999825
11
451.20943299999999
21
-166.6616689999999892
0
LINE
8
BLACK
6
CONTINUOUS
10
465.8897959999999898
20
-162.4724799999999902
11
465.9859589999999798
21
-162.4462330000000065
0
LINE
8
BLACK
6
CONTINUOUS
10
423.0164209999999798
20
-80.9498809999999906
11
422.9951189999999883
21
-80.9960159999999973
0
LINE
8
BLACK
6
CONTINUOUS
10
461.9651739999999904
20
-163.6376630000000034
11
462.0607259999999883
21
-163.6082490000000007
0
LINE
8
BLACK
6
CONTINUOUS
10
469.8716069999999831
20
-161.5742759999999976
11
469.96977899999996
21
-161.5572959999999796
0
LINE
8
BLACK
6
CONTINUOUS
10
460.1496379999999817
20
-164.1975869999999986
11
460.1974249999999529
21
-164.1828710000000058
0
LINE
8
BLACK
6
CONTINUOUS
10
458.1413329999999746
20
-164.8098279999999818
11
458.2370429999999715
21
-164.7810340000000053
0
LINE
8
BLACK
6
CONTINUOUS
10
464.1638289999999643
20
-162.9684699999999964
11
464.2595279999999889
21
-162.9399829999999838
0
LINE
8
BLACK
6
CONTINUOUS
10
537.9132519999999431
20
-176.2902509999999836
11
537.8312989999999445
21
-176.2581799999999816
0
LINE
8
BLACK
6
CONTINUOUS
10
480.6275279999999839
20
-160.7617970000000014
11
480.6775309999999877
21
-160.7615439999999865
0
LINE
8
BLACK
6
CONTINUOUS
10
423.9619149999999763
20
-79.5936959999999942
11
423.925630999999953
21
-79.6315349999999995
0
LINE
8
BLACK
6
CONTINUOUS
10
454.9761749999999552
20
-165.7241319999999973
11
455.0723289999999679
21
-165.6977210000000014
0
LINE
8
BLACK
6
CONTINUOUS
10
465.5054829999999697
20
-162.5790609999999958
11
465.6015129999999544
21
-162.5521860000000061
0
LINE
8
BLACK
6
CONTINUOUS
10
464.8340879999999515
20
-162.771002999999979
11
464.9299219999999764
21
-162.743204999999989
0
LINE
8
BLACK
6
CONTINUOUS
10
488.707493999999997
20
-160.8625309999999899
11
488.8073459999999955
21
-160.8644970000000001
0
LINE
8
BLACK
6
CONTINUOUS
10
422.9623899999999708
20
-162.6925679999999943
11
422.9863149999999905
21
-162.7463300000000004
0
LINE
8
BLACK
6
CONTINUOUS
10
542.5431639999999334
20
-175.7961579999999913
11
542.4568349999999555
21
-175.8447309999999959
0
LINE
8
BLACK
6
CONTINUOUS
10
489.0070549999999798
20
-160.8684979999999882
11
489.1069149999999581
21
-160.8705359999999871
0
LINE
8
BLACK
6
CONTINUOUS
10
496.3889419999999859
20
-161.1661269999999888
11
496.4883729999999673
21
-161.1732759999999871
0
LINE
8
BLACK
6
CONTINUOUS
10
475.5740030000000047
20
-160.9215529999999887
11
475.6239549999999667
21
-160.9183830000000057
0
LINE
8
BLACK
6
CONTINUOUS
10
538.7371560000000272
20
-176.5303150000000016
11
538.6544089999999869
21
-176.5129059999999868
0
LINE
8
BLACK
6
CONTINUOUS
10
475.2743649999999889
20
-160.9412679999999796
11
475.3242919999999572
21
-160.9378690000000063
0
LINE
8
BLACK
6
CONTINUOUS
10
482.325794999999971
20
-160.7631379999999979
11
482.4255689999999959
21
-160.7638069999999857
0
LINE
8
BLACK
6
CONTINUOUS
10
510.6070589999999925
20
-163.1184839999999951
11
510.6566399999999817
21
-163.1270920000000046
0
LINE
8
BLACK
6
CONTINUOUS
10
516.3003099999999677
20
-164.4155969999999911
11
516.3949609999999666
21
-164.4444909999999993
0
LINE
8
BLACK
6
CONTINUOUS
10
486.6118469999999547
20
-160.8243989999999997
11
486.7115699999999947
21
-160.8261569999999949
0
LINE
8
BLACK
6
CONTINUOUS
10
489.1069149999999581
20
-160.8705359999999871
11
489.2067759999999907
21
-160.8726010000000031
0
LINE
8
BLACK
6
CONTINUOUS
10
556.17999999999995
20
-149.6904449999999827
11
542.889269000000013
21
-175.5872119999999938
0
LINE
8
BLACK
6
CONTINUOUS
10
538.2418599999999742
20
-176.403870999999981
11
538.1595869999999877
21
-176.3776639999999816
0
LINE
8
BLACK
6
CONTINUOUS
10
459.5761129999999639
20
-164.3738069999999993
11
459.6717119999999568
21
-164.3444869999999867
0
LINE
8
BLACK
6
CONTINUOUS
10
454.3988549999999691
20
-165.8804549999999836
11
454.4951219999999807
21
-165.8546639999999854
0
LINE
8
BLACK
6
CONTINUOUS
10
465.6015129999999544
20
-162.5521860000000061
11
465.6975739999999746
21
-162.5254609999999786
0
LINE
8
BLACK
6
CONTINUOUS
10
499.1668169999999805
20
-161.4129570000000058
11
499.265754999999956
21
-161.4237159999999847
0
LINE
8
BLACK
6
CONTINUOUS
10
476.9739280000000008
20
-160.8466430000000003
11
477.0239619999999832
21
-160.8444429999999841
0
LINE
8
BLACK
6
CONTINUOUS
10
463.2075350000000071
20
-163.2569939999999917
11
463.3031269999999608
21
-163.2279130000000009
0
LINE
8
BLACK
6
CONTINUOUS
10
478.4254969999999503
20
-160.7958329999999876
11
478.4755619999999681
21
-160.7945299999999804
0
LINE
8
BLACK
6
CONTINUOUS
10
492.3025909999999499
20
-160.9559459999999831
11
492.4024179999999546
21
-160.9594669999999894
0
LINE
8
BLACK
6
CONTINUOUS
10
507.7216999999999985
20
-162.6559220000000039
11
507.7715220000000045
21
-162.6634669999999971
0
LINE
8
BLACK
6
CONTINUOUS
10
501.9293869999999629
20
-161.7700119999999799
11
502.0278539999999907
21
-161.7846020000000067
0
LINE
8
BLACK
6
CONTINUOUS
10
460.7230270000000019
20
-164.0208379999999977
11
460.7708039999999983
21
-164.0060979999999802
0
LINE
8
BLACK
6
CONTINUOUS
10
479.9772349999999506
20
-160.7671349999999961
11
480.0272709999999847
21
-160.7665839999999946
0
LINE
8
BLACK
6
CONTINUOUS
10
506.3773729999999773
20
-162.4539849999999888
11
506.4271149999999579
21
-162.4614369999999894
0
LINE
8
BLACK
6
CONTINUOUS
10
450.8209259999999858
20
-166.745679999999993
11
450.9180969999999888
21
-166.7249199999999973
0
LINE
8
BLACK
6
CONTINUOUS
10
508.1700960000000009
20
-162.7241809999999873
11
508.2199169999999526
21
-162.7318229999999915
0
LINE
8
BLACK
6
CONTINUOUS
10
479.1764459999999985
20
-160.7789429999999982
11
479.2265039999999772
21
-160.7780129999999872
0
LINE
8
BLACK
6
CONTINUOUS
10
487.2103129999999851
20
-160.8349619999999902
11
487.3100829999999632
21
-160.8367299999999886
0
LINE
8
BLACK
6
CONTINUOUS
10
468.7948209999999563
20
-161.7762149999999792
11
468.8924639999999613
21
-161.7566829999999811
0
LINE
8
BLACK
6
CONTINUOUS
10
516.3949609999999666
20
-164.4444909999999993
11
516.4894929999999249
21
-164.4736699999999985
0
LINE
8
BLACK
6
CONTINUOUS
10
484.9175099999999929
20
-160.7948729999999955
11
485.0171489999999608
21
-160.7965250000000026
  0
ENDSEC
  0
EOF
