  0
SECTION
  2
HEADER
  9
$ANGBASE
  50
0.0
  9
$ANGDIR
  70
1
  9
$MEASUREMENT
  70
1
  0
ENDSEC
  0
SECTION
  2
TABLES
  0
TABLE
  2
LTYPE
  70
4
  0
LTYPE
  5
40F
  2
CONTINUOUS
  70
0
  3
Solid line
  72
65
  73
0
  40
0.0
  0
LTYPE
  5
410
  2
DASHDOT
 70
0
  3
Dash Dot ____ _ ____ _
 72
65
 73
4
 40
2.0
 49
1.25
 49
-0.25
 49
0.25
 49
-0.25
  0
LTYPE
  5
411
  2
DASHED
 70
0
  3
Dashed __ __ __ __ __
 72
65
 73
2
 40
0.75
 49
0.5
 49
-0.25
  0
LTYPE
  5
43B
  2
DOTTED
 70
0
  3
Dotted .  .  .  .
 72
65
 73
2
 40
0.2
 49
0.0
 49
-0.2
  0
ENDTAB
  0
TABLE
  2
STYLE
  70
4
  0
STYLE
  2
KICAD
  70
0
  40
0
  41
1
  42
1
  50
0
  71
0
  3
isocp.shx
  0
STYLE
  2
KICADB
  70
0
  40
0
  41
1
  42
1
  50
0
  71
0
  3
isocp.shx
  0
STYLE
  2
KICADI
  70
0
  40
0
  41
1
  42
1
  50
15
  71
0
  3
isocp.shx
  0
STYLE
  2
KICADBI
  70
0
  40
0
  41
1
  42
1
  50
15
  71
0
  3
isocp.shx
  0
ENDTAB
  0
TABLE
  2
LAYER
  70
1
  0
LAYER
  2
BLACK
  70
0
  62
7
  6
CONTINUOUS
  0
ENDTAB
  0
ENDSEC
  0
SECTION
  2
ENTITIES
0
LINE
8
BLACK
6
CONTINUOUS
10
701.7679719999999861
20
-79.3474099999999964
11
701.7983980000000201
21
-79.4417210000000011
0
LINE
8
BLACK
6
CONTINUOUS
10
626.5812589999999318
20
-159.1324579999999855
11
626.4820849999999837
21
-159.1415599999999984
0
LINE
8
BLACK
6
CONTINUOUS
10
619.7203549999999268
20
-160.0579840000000047
11
619.6708619999999428
21
-160.0656549999999925
0
LINE
8
BLACK
6
CONTINUOUS
10
650.1329999999999245
20
-158.8423809999999889
11
650.0831489999999349
21
-158.8383499999999913
0
LINE
8
BLACK
6
CONTINUOUS
10
613.1107959999999366
20
-161.1068759999999997
11
613.0614059999999199
21
-161.1160509999999988
0
LINE
8
BLACK
6
CONTINUOUS
10
700.0243259999999736
20
-162.9031399999999792
11
699.9574619999999641
21
-162.9674059999999827
0
LINE
8
BLACK
6
CONTINUOUS
10
649.5344799999999168
20
-158.7964249999999993
11
649.4845689999999649
21
-158.792870999999991
0
LINE
8
BLACK
6
CONTINUOUS
10
623.7134669999999232
20
-159.4542299999999955
11
623.6148939999999357
21
-159.4675649999999791
0
LINE
8
BLACK
6
CONTINUOUS
10
661.5428889999999456
20
-161.152955999999989
11
661.447306000000026
21
-161.1238089999999943
0
LINE
8
BLACK
6
CONTINUOUS
10
582.961322999999993
20
-174.0875000000000057
11
583.0467770000000201
21
-174.119940999999983
0
LINE
8
BLACK
6
CONTINUOUS
10
625.194580999999971
20
-159.272324999999995
11
625.0956830000000082
21
-159.2833849999999813
0
LINE
8
BLACK
6
CONTINUOUS
10
668.5263129999999592
20
-163.2662479999999903
11
668.4303380000000061
21
-163.2388569999999959
0
LINE
8
BLACK
6
CONTINUOUS
10
670.2566839999999502
20
-163.743836999999985
11
670.1603999999999814
21
-163.7181530000000009
0
LINE
8
BLACK
6
CONTINUOUS
10
645.1325259999999844
20
-158.6122809999999959
11
645.0824719999999388
21
-158.6114959999999883
0
LINE
8
BLACK
6
CONTINUOUS
10
605.8396809999999277
20
-163.104015000000004
11
605.7485189999999875
21
-163.1411970000000053
0
LINE
8
BLACK
6
CONTINUOUS
10
633.5547559999999976
20
-158.7532449999999926
11
633.4548849999999902
21
-158.7560279999999864
0
LINE
8
BLACK
6
CONTINUOUS
10
633.3550189999999702
20
-158.7588639999999884
11
633.2551489999999603
21
-158.761745999999988
0
LINE
8
BLACK
6
CONTINUOUS
10
653.9995069999999942
20
-159.297774000000004
11
653.9010269999999991
21
-159.2823309999999992
0
LINE
8
BLACK
6
CONTINUOUS
10
671.4137569999999187
20
-164.0430559999999787
11
671.3172129999999243
21
-164.0187880000000007
0
LINE
8
BLACK
6
CONTINUOUS
10
614.4980749999999716
20
-160.8631649999999809
11
614.4484119999999621
21
-160.8715019999999924
0
LINE
8
BLACK
6
CONTINUOUS
10
655.0798790000000054
20
-159.4821609999999907
11
654.9818940000000111
21
-159.4642699999999991
0
LINE
8
BLACK
6
CONTINUOUS
10
613.6053650000000061
20
-161.0171239999999955
11
613.5558669999999211
21
-161.0259719999999959
0
LINE
8
BLACK
6
CONTINUOUS
10
659.8209769999999708
20
-160.6366069999999979
11
659.7251669999999422
21
-160.6087009999999964
0
LINE
8
BLACK
6
CONTINUOUS
10
636.6504109999999628
20
-158.6851779999999792
11
636.5505959999999277
21
-158.6870040000000017
0
LINE
8
BLACK
6
CONTINUOUS
10
647.9855279999999311
20
-158.7029859999999815
11
647.9355130000000145
21
-158.7005220000000065
0
LINE
8
BLACK
6
CONTINUOUS
10
651.7249729999999772
20
-158.9945589999999811
11
651.625676999999996
21
-158.983711999999997
0
LINE
8
BLACK
6
CONTINUOUS
10
634.5535099999999602
20
-158.7278819999999939
11
634.4536319999999705
21
-158.7302369999999883
0
LINE
8
BLACK
6
CONTINUOUS
10
700.8027369999999792
20
-161.9692919999999958
11
700.7737189999999146
21
-162.0114659999999844
0
LINE
8
BLACK
6
CONTINUOUS
10
615.4926729999999679
20
-160.7013869999999827
11
615.4428980000000138
21
-160.7092939999999999
0
LINE
8
BLACK
6
CONTINUOUS
10
616.1898850000000039
20
-160.5924969999999803
11
616.1400679999999284
21
-160.6001859999999795
0
LINE
8
BLACK
6
CONTINUOUS
10
665.3655939999999873
20
-162.3285239999999874
11
665.2699709999999413
21
-162.2993089999999938
0
LINE
8
BLACK
6
CONTINUOUS
10
700.4475129999999581
20
-77.2846759999999904
11
700.4853519999999207
21
-77.3209599999999995
0
LINE
8
BLACK
6
CONTINUOUS
10
700.3484579999999369
20
-162.5586459999999818
11
700.2849889999999959
21
-162.6306349999999838
0
LINE
8
BLACK
6
CONTINUOUS
10
663.4540160000000242
20
-161.7405770000000018
11
663.3584670000000187
21
-161.7110830000000021
0
LINE
8
BLACK
6
CONTINUOUS
10
618.0823940000000221
20
-160.3065919999999949
11
618.0326390000000174
21
-160.3140499999999804
0
LINE
8
BLACK
6
CONTINUOUS
10
625.3924379999999701
20
-159.2506549999999947
11
625.2934999999999945
21
-159.261414000000002
0
LINE
8
BLACK
6
CONTINUOUS
10
616.5386219999999184
20
-160.5390419999999949
11
616.4887999999999693
21
-160.5466399999999965
0
LINE
8
BLACK
6
CONTINUOUS
10
615.2438300000000027
20
-160.7410710000000051
11
615.1940710000000081
21
-160.7490530000000035
0
LINE
8
BLACK
6
CONTINUOUS
10
643.0321289999999408
20
-158.5977029999999957
11
642.9322449999999662
21
-158.5978700000000003
0
LINE
8
BLACK
6
CONTINUOUS
10
698.7168759999999565
20
-163.8235239999999919
11
698.6377889999999979
21
-163.8599799999999789
0
LINE
8
BLACK
6
CONTINUOUS
10
637.4487050000000181
20
-158.6708969999999965
11
637.3489419999999654
21
-158.6726599999999792
0
LINE
8
BLACK
6
CONTINUOUS
10
664.0273459999999659
20
-161.9174940000000049
11
663.9795659999999771
21
-161.9027539999999874
0
LINE
8
BLACK
6
CONTINUOUS
10
701.499810000000025
20
-160.7422200000000032
11
701.4752069999999549
21
-160.7944349999999929
0
LINE
8
BLACK
6
CONTINUOUS
10
618.5796030000000201
20
-160.2319420000000036
11
618.5299069999999801
21
-160.2394180000000006
0
LINE
8
BLACK
6
CONTINUOUS
10
701.1387250000000222
20
-161.4353949999999998
11
701.1117439999999306
21
-161.4822049999999933
0
LINE
8
BLACK
6
CONTINUOUS
10
636.4507750000000215
20
-158.6888459999999839
11
636.3509510000000091
21
-158.6906999999999925
0
LINE
8
BLACK
6
CONTINUOUS
10
653.0129279999999881
20
-159.1528629999999964
11
652.9140579999999545
21
-159.1395039999999881
0
LINE
8
BLACK
6
CONTINUOUS
10
661.7340419999999312
20
-161.2113479999999868
11
661.6384669999999915
21
-161.1821359999999856
0
LINE
8
BLACK
6
CONTINUOUS
10
632.4563299999999799
20
-158.7867899999999963
11
632.3564969999999903
21
-158.7901849999999797
0
LINE
8
BLACK
6
CONTINUOUS
10
630.6601620000000139
20
-158.8584369999999808
11
630.5604419999999664
21
-158.8631399999999871
0
LINE
8
BLACK
6
CONTINUOUS
10
700.975498000000016
20
-77.8653070000000014
11
701.0075069999999187
21
-77.9065729999999945
0
LINE
8
BLACK
6
CONTINUOUS
10
629.3645510000000058
20
-158.9264309999999796
11
629.2649629999999661
21
-158.9323149999999885
0
LINE
8
BLACK
6
CONTINUOUS
10
649.3348209999999199
20
-158.7823649999999986
11
649.2848900000000185
21
-158.7789659999999969
0
LINE
8
BLACK
6
CONTINUOUS
10
649.4346580000000131
20
-158.7893190000000061
11
649.3847389999999677
21
-158.7858410000000049
0
LINE
8
BLACK
6
CONTINUOUS
10
635.2526139999999941
20
-158.7123849999999834
11
635.1527469999999767
21
-158.7145040000000051
0
LINE
8
BLACK
6
CONTINUOUS
10
584.2347659999999223
20
-174.420187999999996
11
584.3190240000000131
21
-174.4306409999999801
0
LINE
8
BLACK
6
CONTINUOUS
10
637.0496069999999236
20
-158.6779809999999884
11
636.9498169999999391
21
-158.6797669999999982
0
LINE
8
BLACK
6
CONTINUOUS
10
645.5830519999999524
20
-158.620570999999984
11
645.532989999999927
21
-158.6195390000000032
0
LINE
8
BLACK
6
CONTINUOUS
10
613.7044109999999364
20
-160.9995569999999816
11
613.6548880000000281
21
-161.008340000000004
0
LINE
8
BLACK
6
CONTINUOUS
10
661.1605309999999918
20
-161.0365689999999859
11
661.0649270000000115
21
-161.007569999999987
0
LINE
8
BLACK
6
CONTINUOUS
10
701.5641359999999622
20
-78.8337140000000005
11
701.5854389999999512
21
-78.8798499999999905
0
LINE
8
BLACK
6
CONTINUOUS
10
662.3074209999999766
20
-161.3871699999999976
11
662.2118649999999889
21
-161.3578059999999823
0
LINE
8
BLACK
6
CONTINUOUS
10
698.9819659999999431
20
-76.3285729999999916
11
699.0283499999999322
21
-76.3488589999999903
0
LINE
8
BLACK
6
CONTINUOUS
10
617.2360830000000078
20
-160.4334920000000011
11
617.1862719999999172
21
-160.4409839999999861
0
LINE
8
BLACK
6
CONTINUOUS
10
670.5456679999999778
20
-163.820225999999991
11
670.4493199999999433
21
-163.7948779999999829
0
LINE
8
BLACK
6
CONTINUOUS
10
613.753955000000019
20
-160.9908340000000067
11
613.7044109999999364
21
-160.9995569999999816
0
LINE
8
BLACK
6
CONTINUOUS
10
616.4887999999999693
20
-160.5466399999999965
11
616.438980000000015
21
-160.5542619999999943
0
LINE
8
BLACK
6
CONTINUOUS
10
672.0902209999999286
20
-164.2092389999999966
11
671.9935100000000148
21
-164.1859029999999962
0
LINE
8
BLACK
6
CONTINUOUS
10
701.9837199999999484
20
-80.2890649999999937
11
701.9948479999999336
21
-80.3820499999999925
0
LINE
8
BLACK
6
CONTINUOUS
10
666.6093639999999141
20
-162.7049669999999821
11
666.5136380000000145
21
-162.6762699999999882
0
LINE
8
BLACK
6
CONTINUOUS
10
652.1218579999999747
20
-159.0397940000000006
11
652.0226829999999154
21
-159.0282019999999932
0
LINE
8
BLACK
6
CONTINUOUS
10
664.5051929999999629
20
-162.0647029999999802
11
664.4574059999999918
21
-162.0499930000000006
0
LINE
8
BLACK
6
CONTINUOUS
10
631.9571979999999485
20
-158.8044019999999819
11
631.8573880000000145
21
-158.8081209999999999
0
LINE
8
BLACK
6
CONTINUOUS
10
653.6053489999999329
20
-159.237290999999999
11
653.5067080000000033
21
-159.2227039999999931
0
LINE
8
BLACK
6
CONTINUOUS
10
622.5314009999999598
20
-159.6222999999999956
11
622.4329369999999244
21
-159.6369799999999941
0
LINE
8
BLACK
6
CONTINUOUS
10
615.0945749999999634
20
-160.7650959999999998
11
615.0448369999999159
21
-160.7731560000000002
0
LINE
8
BLACK
6
CONTINUOUS
10
628.5681849999999713
20
-158.9763339999999801
11
628.4686960000000227
21
-158.9830450000000042
0
LINE
8
BLACK
6
CONTINUOUS
10
701.5729400000000169
20
-160.5840279999999893
11
701.5486769999999979
21
-160.637014999999991
0
LINE
8
BLACK
6
CONTINUOUS
10
700.2118150000000014
20
-77.0769009999999923
11
700.2517930000000206
21
-77.1106809999999996
0
LINE
8
BLACK
6
CONTINUOUS
10
661.3517200000000003
20
-161.0946919999999807
11
661.2561279999999897
21
-161.0656109999999899
0
LINE
8
BLACK
6
CONTINUOUS
10
633.4548849999999902
20
-158.7560279999999864
11
633.3550189999999702
21
-158.7588639999999884
0
LINE
8
BLACK
6
CONTINUOUS
10
612.0271870000000263
20
-161.3170059999999921
11
611.9781060000000252
21
-161.3270379999999875
0
LINE
8
BLACK
6
CONTINUOUS
10
585.3239370000000008
20
-174.4416689999999903
11
585.4071609999999737
21
-174.4330609999999808
0
LINE
8
BLACK
6
CONTINUOUS
10
701.3747559999999339
20
-160.9986669999999833
11
701.3491339999999354
21
-161.0485649999999964
0
LINE
8
BLACK
6
CONTINUOUS
10
613.2096189999999751
20
-161.088657999999981
11
613.1602060000000165
21
-161.0977649999999812
0
LINE
8
BLACK
6
CONTINUOUS
10
646.4842059999999719
20
-158.6435209999999927
11
646.4341429999999491
21
-158.6419989999999984
0
LINE
8
BLACK
6
CONTINUOUS
10
647.1849959999999555
20
-158.6677719999999852
11
647.1349460000000136
21
-158.6658290000000022
0
LINE
8
BLACK
6
CONTINUOUS
10
701.400037999999995
20
-160.9479969999999867
11
701.3747559999999339
21
-160.9986669999999833
0
LINE
8
BLACK
6
CONTINUOUS
10
700.5973399999999174
20
-77.4313939999999974
11
700.6336239999999407
21
-77.4692330000000027
0
LINE
8
BLACK
6
CONTINUOUS
10
627.1766649999999572
20
-159.0805560000000014
11
627.0773879999999281
21
-159.0888899999999921
0
LINE
8
BLACK
6
CONTINUOUS
10
674.0300149999999348
20
-164.6446479999999895
11
673.9327579999999216
21
-164.6243939999999952
0
LINE
8
BLACK
6
CONTINUOUS
10
649.5843810000000076
20
-158.8000549999999862
11
649.5344799999999168
21
-158.7964249999999993
0
LINE
8
BLACK
6
CONTINUOUS
10
615.8910169999999198
20
-160.6388079999999832
11
615.8412149999999201
21
-160.6465780000000052
0
LINE
8
BLACK
6
CONTINUOUS
10
583.1321480000000292
20
-174.1509179999999901
11
583.2174420000000055
21
-174.1804290000000037
0
LINE
8
BLACK
6
CONTINUOUS
10
620.8565479999999752
20
-159.8801579999999944
11
620.7578939999999648
21
-159.8956489999999917
0
LINE
8
BLACK
6
CONTINUOUS
10
607.4114329999999882
20
-162.5237909999999886
11
607.3178859999999304
21
-162.5553380000000061
0
LINE
8
BLACK
6
CONTINUOUS
10
628.4686960000000227
20
-158.9830450000000042
11
628.3692199999999275
21
-158.9898599999999931
0
LINE
8
BLACK
6
CONTINUOUS
10
620.2642499999999472
20
-159.9731510000000014
11
620.214841999999976
21
-159.9808909999999855
0
LINE
8
BLACK
6
CONTINUOUS
10
673.8355299999999488
20
-164.603966999999983
11
673.7383290000000216
21
-164.583377999999982
0
LINE
8
BLACK
6
CONTINUOUS
10
614.4484119999999621
20
-160.8715019999999924
11
614.3987529999999424
21
-160.8798380000000066
0
LINE
8
BLACK
6
CONTINUOUS
10
586.1526149999999689
20
-174.2895809999999983
11
586.2350460000000112
21
-174.2663089999999784
0
LINE
8
BLACK
6
CONTINUOUS
10
644.0317459999999983
20
-158.6000819999999862
11
643.9817359999999553
21
-158.599790999999982
0
LINE
8
BLACK
6
CONTINUOUS
10
606.7593789999999672
20
-162.7512049999999988
11
606.6667669999999362
21
-162.784971999999982
0
LINE
8
BLACK
6
CONTINUOUS
10
612.6174179999999296
20
-161.2000859999999989
11
612.5681599999999207
21
-161.2096300000000042
0
LINE
8
BLACK
6
CONTINUOUS
10
698.7951859999999442
20
-76.2535299999999978
11
698.841972999999939
21
-76.2717820000000017
0
LINE
8
BLACK
6
CONTINUOUS
10
629.1653860000000122
20
-158.9382970000000057
11
629.0658210000000281
21
-158.9443809999999928
0
LINE
8
BLACK
6
CONTINUOUS
10
658.3808549999999968
20
-160.231948999999986
11
658.2845780000000104
21
-160.2062209999999993
0
LINE
8
BLACK
6
CONTINUOUS
10
582.7901789999999664
20
-174.0182149999999979
11
582.8757929999999305
21
-174.0535899999999856
0
LINE
8
BLACK
6
CONTINUOUS
10
633.4092549999999164
20
-68.7681429999999949
11
624.0492550000000165
21
-69.6781429999999915
0
LINE
8
BLACK
6
CONTINUOUS
10
669.3907899999999245
20
-163.5089150000000018
11
669.2946699999999964
21
-163.4823159999999973
0
LINE
8
BLACK
6
CONTINUOUS
10
618.1321399999999358
20
-160.2991350000000068
11
618.0823940000000221
21
-160.3065919999999949
0
LINE
8
BLACK
6
CONTINUOUS
10
636.2511210000000119
20
-158.6925709999999867
11
636.1512870000000248
21
-158.6944569999999999
0
LINE
8
BLACK
6
CONTINUOUS
10
629.0658210000000281
20
-158.9443809999999928
11
628.9662690000000111
21
-158.9505619999999908
0
LINE
8
BLACK
6
CONTINUOUS
10
584.5713250000000016
20
-174.453189999999978
11
584.6552699999999732
21
-174.457776999999993
0
LINE
8
BLACK
6
CONTINUOUS
10
622.0390619999999444
20
-159.6964839999999981
11
621.9405829999999469
21
-159.7115349999999978
0
LINE
8
BLACK
6
CONTINUOUS
10
607.8810539999999492
20
-162.3705879999999979
11
607.7868829999999889
21
-162.4006359999999916
0
LINE
8
BLACK
6
CONTINUOUS
10
655.2757139999999936
20
-159.5186309999999992
11
655.1778229999999894
21
-159.5002769999999828
0
LINE
8
BLACK
6
CONTINUOUS
10
623.5163430000000062
20
-159.4810410000000047
11
623.4178049999999303
21
-159.4946479999999838
0
LINE
8
BLACK
6
CONTINUOUS
10
645.0824719999999388
20
-158.6114959999999883
11
645.0324219999999968
21
-158.6107099999999832
0
LINE
8
BLACK
6
CONTINUOUS
10
609.788159999999948
20
-161.8271599999999921
11
609.691818000000012
21
-161.8519100000000037
0
LINE
8
BLACK
6
CONTINUOUS
10
640.937135000000012
20
-158.6134449999999845
11
640.8374669999999469
21
-158.6147259999999903
0
LINE
8
BLACK
6
CONTINUOUS
10
631.8573880000000145
20
-158.8081209999999999
11
631.7575819999999567
21
-158.8119130000000041
0
LINE
8
BLACK
6
CONTINUOUS
10
660.7780659999999671
20
-160.9208789999999851
11
660.6824249999999665
21
-160.8920959999999809
0
LINE
8
BLACK
6
CONTINUOUS
10
647.9355130000000145
20
-158.7005220000000065
11
647.8854910000000018
21
-158.698127999999997
0
LINE
8
BLACK
6
CONTINUOUS
10
698.6071749999999838
20
-76.1866129999999941
11
698.7013029999999389
21
-76.2190579999999898
0
LINE
8
BLACK
6
CONTINUOUS
10
662.785178999999971
20
-161.5342330000000004
11
662.6896299999999655
21
-161.5047909999999831
0
LINE
8
BLACK
6
CONTINUOUS
10
614.6471179999999777
20
-160.8383499999999913
11
614.5974289999999201
21
-160.8465919999999869
0
LINE
8
BLACK
6
CONTINUOUS
10
620.5605170000000044
20
-159.9266559999999799
11
620.4617889999999534
21
-159.9421629999999936
0
LINE
8
BLACK
6
CONTINUOUS
10
669.9678840000000264
20
-163.6664619999999957
11
669.8716549999999188
21
-163.6404560000000004
0
LINE
8
BLACK
6
CONTINUOUS
10
700.0061469999999417
20
-76.9159819999999996
11
700.0480119999999715
21
-76.9470779999999905
0
LINE
8
BLACK
6
CONTINUOUS
10
646.8346259999999575
20
-158.6548980000000029
11
646.7845689999999195
21
-158.6531980000000033
0
LINE
8
BLACK
6
CONTINUOUS
10
618.9272539999999481
20
-160.1794390000000021
11
618.8776159999999891
21
-160.1869619999999941
0
LINE
8
BLACK
6
CONTINUOUS
10
639.6417450000000144
20
-158.6325709999999845
11
639.5421059999999898
21
-158.6342229999999915
0
LINE
8
BLACK
6
CONTINUOUS
10
652.5182310000000143
20
-159.0880839999999807
11
652.4191879999999628
21
-159.0757209999999873
0
LINE
8
BLACK
6
CONTINUOUS
10
612.7159889999999223
20
-161.181147999999979
11
612.6667029999999841
21
-161.1906189999999981
0
LINE
8
BLACK
6
CONTINUOUS
10
662.9762749999999869
20
-161.5931530000000009
11
662.8807279999999764
21
-161.5636879999999849
0
LINE
8
BLACK
6
CONTINUOUS
10
650.7307489999999461
20
-158.8942370000000039
11
650.631181999999967
21
-158.885171999999983
0
LINE
8
BLACK
6
CONTINUOUS
10
664.1706919999999172
20
-161.9616869999999835
11
664.1229099999999335
21
-161.9469560000000001
0
LINE
8
BLACK
6
CONTINUOUS
10
635.1527469999999767
20
-158.7145040000000051
11
635.0528789999999617
21
-158.7166540000000055
0
LINE
8
BLACK
6
CONTINUOUS
10
627.375269000000003
20
-159.0642550000000028
11
627.2759599999999409
21
-159.0723439999999869
0
LINE
8
BLACK
6
CONTINUOUS
10
644.2318119999999908
20
-158.6015050000000031
11
644.1817919999999731
21
-158.6011259999999936
0
LINE
8
BLACK
6
CONTINUOUS
10
607.2244719999999916
20
-162.5871960000000058
11
607.1311859999999569
21
-162.6193609999999978
0
LINE
8
BLACK
6
CONTINUOUS
10
700.2917709999999261
20
-77.1444609999999926
11
700.3310629999999719
21
-77.1790969999999987
0
LINE
8
BLACK
6
CONTINUOUS
10
646.6844509999999673
20
-158.6498550000000023
11
646.6343919999999343
21
-158.6482159999999908
0
LINE
8
BLACK
6
CONTINUOUS
10
701.9707649999999148
20
-80.1957110000000029
11
701.9837199999999484
21
-80.2890649999999937
0
LINE
8
BLACK
6
CONTINUOUS
10
697.4592549999999846
20
-164.2081429999999784
11
697.029254999999921
21
-164.278143
0
LINE
8
BLACK
6
CONTINUOUS
10
667.6630619999999681
20
-163.0169689999999889
11
667.5672129999999243
21
-162.9889139999999941
0
LINE
8
BLACK
6
CONTINUOUS
10
639.8410179999999627
20
-158.629335999999995
11
639.741380999999933
21
-158.6309459999999945
0
LINE
8
BLACK
6
CONTINUOUS
10
657.8025709999999435
20
-160.0804259999999886
11
657.7060369999999239
21
-160.0558659999999804
0
LINE
8
BLACK
6
CONTINUOUS
10
650.631181999999967
20
-158.885171999999983
11
650.5315919999999323
21
-158.876277999999985
0
LINE
8
BLACK
6
CONTINUOUS
10
651.4269949999999199
20
-158.9625759999999843
11
651.3276129999999284
21
-158.9522809999999993
0
LINE
8
BLACK
6
CONTINUOUS
10
617.1364599999999427
20
-160.4484879999999976
11
617.0866469999999708
21
-160.4559879999999907
0
LINE
8
BLACK
6
CONTINUOUS
10
649.8338289999999233
20
-158.8186849999999879
11
649.783945000000017
21
-158.8148960000000045
0
LINE
8
BLACK
6
CONTINUOUS
10
617.6344729999999572
20
-160.3736959999999954
11
617.5846859999999197
21
-160.3811570000000017
0
LINE
8
BLACK
6
CONTINUOUS
10
700.8891099999999597
20
-161.841226000000006
11
700.8604329999999436
21
-161.8841720000000066
0
LINE
8
BLACK
6
CONTINUOUS
10
648.1355679999999211
20
-158.7105129999999917
11
648.0855569999999943
21
-158.7079829999999845
0
LINE
8
BLACK
6
CONTINUOUS
10
638.0471249999999372
20
-158.6603289999999902
11
637.9474079999999958
21
-158.6620969999999886
0
LINE
8
BLACK
6
CONTINUOUS
10
699.542018999999982
20
-163.3205459999999789
11
699.4704039999999168
21
-163.3739960000000053
0
LINE
8
BLACK
6
CONTINUOUS
10
699.2128589999999804
20
-76.4340669999999989
11
699.2587119999999459
21
-76.4563830000000024
0
LINE
8
BLACK
6
CONTINUOUS
10
610.0777369999999564
20
-161.754306999999983
11
609.9811199999999189
21
-161.7783609999999896
0
LINE
8
BLACK
6
CONTINUOUS
10
622.1375359999999546
20
-159.6814990000000023
11
622.0390619999999444
21
-159.6964839999999981
0
LINE
8
BLACK
6
CONTINUOUS
10
658.5732959999999139
20
-160.2839309999999955
11
658.477092999999968
21
-160.257852999999983
0
LINE
8
BLACK
6
CONTINUOUS
10
662.8807279999999764
20
-161.5636879999999849
11
662.785178999999971
21
-161.5342330000000004
0
LINE
8
BLACK
6
CONTINUOUS
10
627.4745960000000196
20
-159.05628999999999
11
627.375269000000003
21
-159.0642550000000028
0
LINE
8
BLACK
6
CONTINUOUS
10
634.0541249999999991
20
-158.7400329999999826
11
633.9542490000000043
21
-158.7425839999999937
0
LINE
8
BLACK
6
CONTINUOUS
10
623.8120539999999892
20
-159.4410259999999937
11
623.7134669999999232
21
-159.4542299999999955
0
LINE
8
BLACK
6
CONTINUOUS
10
635.4523399999999356
20
-158.7082340000000045
11
635.3524790000000166
21
-158.710298999999992
0
LINE
8
BLACK
6
CONTINUOUS
10
608.9246560000000272
20
-162.0587150000000065
11
608.8292219999999588
21
-162.0857069999999851
0
LINE
8
BLACK
6
CONTINUOUS
10
700.6853089999999611
20
-162.1348989999999901
11
700.6556110000000217
21
-162.1755289999999832
0
LINE
8
BLACK
6
CONTINUOUS
10
622.3344720000000052
20
-159.6517450000000053
11
622.2360049999999774
21
-159.6665840000000003
0
LINE
8
BLACK
6
CONTINUOUS
10
585.6563619999999446
20
-174.3984279999999956
11
585.739268999999922
21
-174.3839529999999911
0
LINE
8
BLACK
6
CONTINUOUS
10
656.3491960000000063
20
-159.7361809999999878
11
656.2518689999999424
21
-159.715188999999981
0
LINE
8
BLACK
6
CONTINUOUS
10
628.3692199999999275
20
-158.9898599999999931
11
628.2697600000000193
21
-158.9967869999999834
0
LINE
8
BLACK
6
CONTINUOUS
10
638.6452570000000151
20
-158.6497129999999913
11
638.54558499999996
21
-158.6514760000000024
0
LINE
8
BLACK
6
CONTINUOUS
10
651.625676999999996
20
-158.983711999999997
11
651.5263499999999794
21
-158.973056999999983
0
LINE
8
BLACK
6
CONTINUOUS
10
645.3327509999999165
20
-158.6157110000000046
11
645.2826949999999897
21
-158.6148279999999886
0
LINE
8
BLACK
6
CONTINUOUS
10
581.8431969999999183
20
-173.5323170000000061
11
581.8864419999999882
21
-173.5580679999999916
0
LINE
8
BLACK
6
CONTINUOUS
10
586.5639699999999266
20
-174.1585549999999785
11
586.6460029999999506
21
-174.127949000000001
0
LINE
8
BLACK
6
CONTINUOUS
10
701.1117439999999306
20
-161.4822049999999933
11
701.0844250000000102
21
-161.5282399999999825
0
LINE
8
BLACK
6
CONTINUOUS
10
697.9464980000000196
20
-76.0153219999999976
11
698.0406639999999925
21
-76.0339179999999999
0
LINE
8
BLACK
6
CONTINUOUS
10
645.2826949999999897
20
-158.6148279999999886
11
645.2326359999999568
21
-158.613946999999996
0
LINE
8
BLACK
6
CONTINUOUS
10
626.6804499999999507
20
-159.123486999999983
11
626.5812589999999318
21
-159.1324579999999855
0
LINE
8
BLACK
6
CONTINUOUS
10
607.5051069999999527
20
-162.4925509999999917
11
607.4114329999999882
21
-162.5237909999999886
0
LINE
8
BLACK
6
CONTINUOUS
10
701.0844250000000102
20
-161.5282399999999825
11
701.0571039999999812
21
-161.5742759999999976
0
LINE
8
BLACK
6
CONTINUOUS
10
701.9392629999999826
20
-80.0080870000000033
11
701.9559540000000197
21
-80.1020350000000008
0
LINE
8
BLACK
6
CONTINUOUS
10
697.4799689999999828
20
-75.9504079999999959
11
697.5725350000000162
21
-75.9597369999999898
0
LINE
8
BLACK
6
CONTINUOUS
10
617.5348930000000109
20
-160.3886229999999955
11
617.4850999999999885
21
-160.3960889999999893
0
LINE
8
BLACK
6
CONTINUOUS
10
626.7796599999999216
20
-159.1146469999999908
11
626.6804499999999507
21
-159.123486999999983
0
LINE
8
BLACK
6
CONTINUOUS
10
653.8025079999999889
20
-159.2671039999999891
11
653.703948999999966
21
-159.2520920000000046
0
LINE
8
BLACK
6
CONTINUOUS
10
660.3954259999999294
20
-160.8061679999999853
11
660.2997269999999617
21
-160.7776810000000012
0
LINE
8
BLACK
6
CONTINUOUS
10
699.6625530000000026
20
-76.6822779999999966
11
699.7065089999999827
21
-76.709575000000001
0
LINE
8
BLACK
6
CONTINUOUS
10
586.6460029999999506
20
-174.127949000000001
11
586.7279559999999492
21
-174.095877999999999
0
LINE
8
BLACK
6
CONTINUOUS
10
620.9551789999999301
20
-159.8646739999999795
11
620.8565479999999752
21
-159.8801579999999944
0
LINE
8
BLACK
6
CONTINUOUS
10
616.8375549999999521
20
-160.4936199999999928
11
616.7877330000000029
21
-160.5011649999999861
0
LINE
8
BLACK
6
CONTINUOUS
10
641.9341699999999946
20
-158.6029999999999802
11
641.8344260000000077
21
-158.6038299999999879
0
LINE
8
BLACK
6
CONTINUOUS
10
672.5741519999999127
20
-164.3237959999999873
11
672.4773139999999785
21
-164.3011730000000057
0
LINE
8
BLACK
6
CONTINUOUS
10
701.4272209999999177
20
-78.5596039999999931
11
701.4515509999999949
21
-78.6047959999999932
0
LINE
8
BLACK
6
CONTINUOUS
10
670.8348349999999982
20
-163.8955859999999802
11
670.7384240000000091
21
-163.8705870000000004
0
LINE
8
BLACK
6
CONTINUOUS
10
611.488130999999953
20
-161.4295599999999808
11
611.4392169999999851
21
-161.4400379999999871
0
LINE
8
BLACK
6
CONTINUOUS
10
698.841972999999939
20
-76.2717820000000017
11
698.8887609999999313
21
-76.2900339999999915
0
LINE
8
BLACK
6
CONTINUOUS
10
618.2813479999999799
20
-160.2767629999999883
11
618.2316139999999223
21
-160.2842229999999972
0
LINE
8
BLACK
6
CONTINUOUS
10
614.0017739999999549
20
-160.9475799999999879
11
613.9521959999999581
21
-160.9561819999999841
0
LINE
8
BLACK
6
CONTINUOUS
10
644.5319839999999658
20
-158.6042819999999836
11
644.481948999999986
21
-158.6037749999999846
0
LINE
8
BLACK
6
CONTINUOUS
10
623.6148939999999357
20
-159.4675649999999791
11
623.5163430000000062
21
-159.4810410000000047
0
LINE
8
BLACK
6
CONTINUOUS
10
656.8350060000000212
20
-159.8448759999999993
11
656.7379549999999426
21
-159.8226300000000037
0
LINE
8
BLACK
6
CONTINUOUS
10
701.7355269999999337
20
-79.2532819999999987
11
701.7679719999999861
21
-79.3474099999999964
0
LINE
8
BLACK
6
CONTINUOUS
10
637.7479509999999436
20
-158.6656169999999975
11
637.6482109999999466
21
-158.6673759999999902
0
LINE
8
BLACK
6
CONTINUOUS
10
646.5342699999999923
20
-158.6450480000000027
11
646.4842059999999719
21
-158.6435209999999927
0
LINE
8
BLACK
6
CONTINUOUS
10
619.769849000000022
20
-160.050311999999991
11
619.7203549999999268
21
-160.0579840000000047
0
LINE
8
BLACK
6
CONTINUOUS
10
700.7737189999999146
20
-162.0114659999999844
11
700.7443630000000212
21
-162.052866999999992
0
LINE
8
BLACK
6
CONTINUOUS
10
699.2514739999999165
20
-163.5250769999999818
11
699.177141000000006
21
-163.5723459999999818
0
LINE
8
BLACK
6
CONTINUOUS
10
630.9593699999999217
20
-158.8448219999999935
11
630.8596269999999322
21
-158.8492779999999982
0
LINE
8
BLACK
6
CONTINUOUS
10
613.0614059999999199
20
-161.1160509999999988
11
613.0120180000000119
21
-161.1252269999999953
0
LINE
8
BLACK
6
CONTINUOUS
10
648.0855569999999943
20
-158.7079829999999845
11
648.0355449999999564
21
-158.7054499999999848
0
LINE
8
BLACK
6
CONTINUOUS
10
619.918252999999936
20
-160.027230000000003
11
619.8687979999999698
21
-160.0349319999999977
0
LINE
8
BLACK
6
CONTINUOUS
10
648.1855729999999767
20
-158.7131190000000061
11
648.1355679999999211
21
-158.7105129999999917
0
LINE
8
BLACK
6
CONTINUOUS
10
617.3854999999999791
20
-160.4110409999999831
11
617.3356959999999845
21
-160.4185200000000009
0
LINE
8
BLACK
6
CONTINUOUS
10
616.3891589999999496
20
-160.5618790000000047
11
616.3393379999999979
21
-160.5695209999999804
0
LINE
8
BLACK
6
CONTINUOUS
10
629.9623159999999871
20
-158.8931499999999915
11
629.8626620000000003
21
-158.8984609999999975
0
LINE
8
BLACK
6
CONTINUOUS
10
663.7884510000000091
20
-161.8437959999999975
11
663.7406720000000178
21
-161.8290509999999927
0
LINE
8
BLACK
6
CONTINUOUS
10
618.7286389999999301
20
-160.2094720000000052
11
618.6789689999999382
21
-160.216969000000006
0
LINE
8
BLACK
6
CONTINUOUS
10
669.5830799999999954
20
-163.5618299999999863
11
669.4869259999999258
21
-163.5354189999999903
0
LINE
8
BLACK
6
CONTINUOUS
10
583.8969299999999976
20
-174.363728999999978
11
583.98150899999996
21
-174.3800430000000006
0
LINE
8
BLACK
6
CONTINUOUS
10
701.6260119999999461
20
-78.9726189999999946
11
701.6452809999999545
21
-79.0192210000000017
0
LINE
8
BLACK
6
CONTINUOUS
10
652.3201080000000047
20
-159.0635539999999821
11
652.2210019999999986
21
-159.0515769999999804
0
LINE
8
BLACK
6
CONTINUOUS
10
648.4355630000000019
20
-158.7265339999999867
11
648.385569999999916
21
-158.7237939999999981
0
LINE
8
BLACK
6
CONTINUOUS
10
653.1117590000000064
20
-159.1664179999999931
11
653.0129279999999881
21
-159.1528629999999964
0
LINE
8
BLACK
6
CONTINUOUS
10
611.5859909999999218
20
-161.408695999999992
11
611.537042999999926
21
-161.4190820000000031
0
LINE
8
BLACK
6
CONTINUOUS
10
611.1461739999999736
20
-161.5040349999999876
11
611.0486409999999751
21
-161.5257540000000063
0
LINE
8
BLACK
6
CONTINUOUS
10
614.3491060000000061
20
-160.888227999999998
11
614.2994589999999562
21
-160.8966139999999996
0
LINE
8
BLACK
6
CONTINUOUS
10
609.691818000000012
20
-161.8519100000000037
11
609.5955759999999373
21
-161.8768979999999829
0
LINE
8
BLACK
6
CONTINUOUS
10
615.1940710000000081
20
-160.7490530000000035
11
615.1443219999999883
21
-160.7570749999999862
0
LINE
8
BLACK
6
CONTINUOUS
10
699.1208699999999681
20
-76.3904479999999921
11
699.1670060000000149
21
-76.4117509999999953
0
LINE
8
BLACK
6
CONTINUOUS
10
698.9500639999999976
20
-163.7048889999999801
11
698.8730160000000069
21
-163.7459779999999796
0
LINE
8
BLACK
6
CONTINUOUS
10
654.7857759999999416
20
-159.4291800000000023
11
654.6876479999999674
21
-159.4119739999999865
0
LINE
8
BLACK
6
CONTINUOUS
10
701.8498469999999543
20
-159.9157229999999856
11
701.8276200000000244
21
-159.9733449999999948
0
LINE
8
BLACK
6
CONTINUOUS
10
584.8229119999999739
20
-174.4625460000000032
11
584.9066139999999905
21
-174.4627319999999884
0
LINE
8
BLACK
6
CONTINUOUS
10
617.5846859999999197
20
-160.3811570000000017
11
617.5348930000000109
21
-160.3886229999999955
0
LINE
8
BLACK
6
CONTINUOUS
10
618.7783079999999245
20
-160.2019760000000019
11
618.7286389999999301
21
-160.2094720000000052
0
LINE
8
BLACK
6
CONTINUOUS
10
671.3172129999999243
20
-164.0187880000000007
11
671.2206939999999804
21
-163.9943969999999922
0
LINE
8
BLACK
6
CONTINUOUS
10
702.
20
-159.5
11
701.9791329999999334
21
-159.5607139999999902
0
LINE
8
BLACK
6
CONTINUOUS
10
701.2715879999999515
20
-161.1967159999999808
11
701.2452869999999621
21
-161.2450709999999958
0
LINE
8
BLACK
6
CONTINUOUS
10
700.5602649999999585
20
-77.3943189999999959
11
700.5973399999999174
21
-77.4313939999999974
0
LINE
8
BLACK
6
CONTINUOUS
10
674.1273069999999734
20
-164.664734999999979
11
674.0300149999999348
21
-164.6446479999999895
0
LINE
8
BLACK
6
CONTINUOUS
10
643.1320279999999912
20
-158.597611999999998
11
643.0321289999999408
21
-158.5977029999999957
0
LINE
8
BLACK
6
CONTINUOUS
10
612.518903000000023
20
-161.2191749999999786
11
612.4696719999999459
21
-161.2287959999999885
0
LINE
8
BLACK
6
CONTINUOUS
10
644.481948999999986
20
-158.6037749999999846
11
644.431917999999996
21
-158.6032679999999857
0
LINE
8
BLACK
6
CONTINUOUS
10
646.6343919999999343
20
-158.6482159999999908
11
646.5843300000000227
21
-158.6466289999999901
0
LINE
8
BLACK
6
CONTINUOUS
10
652.7162149999999201
20
-159.113396999999992
11
652.6172409999999218
21
-159.1006429999999909
0
LINE
8
BLACK
6
CONTINUOUS
10
617.783818999999994
20
-160.351317999999992
11
617.7340389999999388
21
-160.358776000000006
0
LINE
8
BLACK
6
CONTINUOUS
10
585.8220989999999802
20
-174.3680129999999906
11
585.9048460000000205
21
-174.3506040000000041
0
LINE
8
BLACK
6
CONTINUOUS
10
700.9457879999999932
20
-161.7537879999999859
11
700.9174489999999196
21
-161.7975059999999985
0
LINE
8
BLACK
6
CONTINUOUS
10
617.8335889999999608
20
-160.3438639999999964
11
617.783818999999994
21
-160.351317999999992
0
LINE
8
BLACK
6
CONTINUOUS
10
610.6592869999999493
20
-161.6146420000000035
11
610.5621499999999742
21
-161.6373769999999865
0
LINE
8
BLACK
6
CONTINUOUS
10
609.3074309999999514
20
-161.9533189999999934
11
609.2115830000000187
21
-161.9792860000000019
0
LINE
8
BLACK
6
CONTINUOUS
10
701.352237999999943
20
-78.4247889999999899
11
701.3775650000000041
21
-78.4696009999999973
0
LINE
8
BLACK
6
CONTINUOUS
10
629.4641530000000103
20
-158.9206470000000024
11
629.3645510000000058
21
-158.9264309999999796
0
LINE
8
BLACK
6
CONTINUOUS
10
653.9010269999999991
20
-159.2823309999999992
11
653.8025079999999889
21
-159.2671039999999891
0
LINE
8
BLACK
6
CONTINUOUS
10
616.2397019999999657
20
-160.5848289999999849
11
616.1898850000000039
21
-160.5924969999999803
0
LINE
8
BLACK
6
CONTINUOUS
10
582.3609259999999495
20
-173.819344000000001
11
582.4469349999999395
21
-173.8620520000000056
0
LINE
8
BLACK
6
CONTINUOUS
10
699.1670060000000149
20
-76.4117509999999953
11
699.2128589999999804
21
-76.4340669999999989
0
LINE
8
BLACK
6
CONTINUOUS
10
617.7340389999999388
20
-160.358776000000006
11
617.6842589999999973
21
-160.366232999999994
0
LINE
8
BLACK
6
CONTINUOUS
10
625.0956830000000082
20
-159.2833849999999813
11
624.9968089999999847
21
-159.2945880000000045
0
LINE
8
BLACK
6
CONTINUOUS
10
614.845927999999958
20
-160.8055769999999995
11
614.7962139999999636
21
-160.8137239999999792
0
LINE
8
BLACK
6
CONTINUOUS
10
586.2350460000000112
20
-174.2663089999999784
11
586.3173949999999195
21
-174.2415689999999984
0
LINE
8
BLACK
6
CONTINUOUS
10
659.3416760000000068
20
-160.4982420000000047
11
659.2457379999999603
21
-160.4709419999999795
0
LINE
8
BLACK
6
CONTINUOUS
10
614.5974289999999201
20
-160.8465919999999869
11
614.5477489999999534
21
-160.8548769999999877
0
LINE
8
BLACK
6
CONTINUOUS
10
669.0064149999999472
20
-163.4019529999999918
11
668.9103619999999637
21
-163.3749819999999886
0
LINE
8
BLACK
6
CONTINUOUS
10
583.7275349999999889
20
-174.3267009999999857
11
583.8122740000000022
21
-174.3459479999999928
0
LINE
8
BLACK
6
CONTINUOUS
10
610.7565059999999448
20
-161.592111999999986
11
610.6592869999999493
21
-161.6146420000000035
0
LINE
8
BLACK
6
CONTINUOUS
10
615.642029999999977
20
-160.6778039999999805
11
615.5922389999999496
21
-160.6856420000000014
0
LINE
8
BLACK
6
CONTINUOUS
10
631.0591200000000072
20
-158.8404429999999934
11
630.9593699999999217
21
-158.8448219999999935
0
CIRCLE
8
BLACK
10
572.5896999999999935
20
-119.8381429999999881
40
0.8999999999999999
0
LINE
8
BLACK
6
CONTINUOUS
10
660.2997269999999617
20
-160.7776810000000012
11
660.2040180000000191
21
-160.7492780000000039
0
LINE
8
BLACK
6
CONTINUOUS
10
624.0092879999999695
20
-159.4150649999999985
11
623.9106600000000071
21
-159.4279709999999852
0
LINE
8
BLACK
6
CONTINUOUS
10
657.2226479999999356
20
-159.9363219999999899
11
657.1258189999999786
21
-159.9130999999999858
0
LINE
8
BLACK
6
CONTINUOUS
10
644.6320569999999179
20
-158.6053880000000049
11
644.5820199999999431
21
-158.6048329999999851
0
LINE
8
BLACK
6
CONTINUOUS
10
660.2040180000000191
20
-160.7492780000000039
11
660.108286000000021
21
-160.7209650000000067
0
LINE
8
BLACK
6
CONTINUOUS
10
650.5315919999999323
20
-158.876277999999985
11
650.4319779999999582
21
-158.8675529999999867
0
LINE
8
BLACK
6
CONTINUOUS
10
701.498201999999992
20
-78.6958729999999917
11
701.5205179999999245
21
-78.7417259999999999
0
LINE
8
BLACK
6
CONTINUOUS
10
651.3276129999999284
20
-158.9522809999999993
11
651.2282010000000128
21
-158.9421659999999861
0
LINE
8
BLACK
6
CONTINUOUS
10
671.6069109999999682
20
-164.0912009999999839
11
671.5103229999999712
21
-164.0671920000000057
0
LINE
8
BLACK
6
CONTINUOUS
10
671.5103229999999712
20
-164.0671920000000057
11
671.4137569999999187
21
-164.0430559999999787
0
LINE
8
BLACK
6
CONTINUOUS
10
699.8216979999999694
20
-163.0912979999999948
11
699.7527989999999818
21
-163.1509279999999933
0
LINE
8
BLACK
6
CONTINUOUS
10
621.6450959999999668
20
-159.7570359999999994
11
621.5465819999999439
21
-159.7723059999999862
0
LINE
8
BLACK
6
CONTINUOUS
10
639.0438930000000255
20
-158.6427129999999863
11
638.9442419999999174
21
-158.6444529999999986
0
LINE
8
BLACK
6
CONTINUOUS
10
698.8887609999999313
20
-76.2900339999999915
11
698.9353629999999384
21
-76.3093029999999999
0
LINE
8
BLACK
6
CONTINUOUS
10
701.6828029999999217
20
-79.1126110000000011
11
701.7010549999999967
21
-79.1593989999999934
0
LINE
8
BLACK
6
CONTINUOUS
10
612.2236940000000232
20
-161.2773859999999786
11
612.1745529999999462
21
-161.2872500000000002
0
LINE
8
BLACK
6
CONTINUOUS
10
700.7150040000000217
20
-162.0942699999999945
11
700.6853089999999611
21
-162.1348989999999901
0
LINE
8
BLACK
6
CONTINUOUS
10
673.2527659999999514
20
-164.4779609999999934
11
673.1557389999999259
21
-164.4563990000000047
0
LINE
8
BLACK
6
CONTINUOUS
10
667.5672129999999243
20
-162.9889139999999941
11
667.4713759999999638
21
-162.9607900000000029
0
LINE
8
BLACK
6
CONTINUOUS
10
648.8853409999999258
20
-158.7529779999999846
11
648.8353819999999814
21
-158.7498789999999929
0
LINE
8
BLACK
6
CONTINUOUS
10
623.220766000000026
20
-159.5222399999999823
11
623.1222639999999728
21
-159.5362140000000011
0
LINE
8
BLACK
6
CONTINUOUS
10
647.8854910000000018
20
-158.698127999999997
11
647.8354719999999816
21
-158.695729
0
LINE
8
BLACK
6
CONTINUOUS
10
634.4536319999999705
20
-158.7302369999999883
11
634.3537549999999783
21
-158.7326229999999896
0
LINE
8
BLACK
6
CONTINUOUS
10
651.2282010000000128
20
-158.9421659999999861
11
651.1287629999999353
21
-158.9322279999999807
0
LINE
8
BLACK
6
CONTINUOUS
10
700.4089339999999311
20
-77.2492039999999918
11
700.4475129999999581
21
-77.2846759999999904
0
LINE
8
BLACK
6
CONTINUOUS
10
606.4819629999999506
20
-162.8535009999999943
11
606.3897739999999885
21
-162.888259000000005
0
LINE
8
BLACK
6
CONTINUOUS
10
618.4802099999999427
20
-160.2468959999999925
11
618.4304989999999407
21
-160.2543629999999837
0
LINE
8
BLACK
6
CONTINUOUS
10
614.7465079999999489
20
-160.8219169999999849
11
614.6968069999999216
21
-160.830112999999983
0
LINE
8
BLACK
6
CONTINUOUS
10
642.632684999999924
20
-158.598764999999986
11
642.5328589999999167
21
-158.599189999999993
0
LINE
8
BLACK
6
CONTINUOUS
10
671.1241949999999861
20
-163.9698769999999968
11
671.0277199999999311
21
-163.9452349999999967
0
LINE
8
BLACK
6
CONTINUOUS
10
647.7354209999999739
20
-158.6910689999999988
11
647.6853919999999789
21
-158.6888040000000046
0
LINE
8
BLACK
6
CONTINUOUS
10
659.149768999999992
20
-160.4437829999999963
11
659.0537719999999808
21
-160.4167589999999848
0
LINE
8
BLACK
6
CONTINUOUS
10
631.2586469999999963
20
-158.8319199999999967
11
631.1588819999999487
21
-158.8361429999999928
0
LINE
8
BLACK
6
CONTINUOUS
10
663.7406720000000178
20
-161.8290509999999927
11
663.6928970000000163
21
-161.8143029999999953
0
LINE
8
BLACK
6
CONTINUOUS
10
700.2208419999999478
20
-162.7010779999999954
11
700.1560180000000173
21
-162.769976999999983
0
LINE
8
BLACK
6
CONTINUOUS
10
671.7035260000000108
20
-164.1150779999999827
11
671.6069109999999682
21
-164.0912009999999839
0
LINE
8
BLACK
6
CONTINUOUS
10
622.2360049999999774
20
-159.6665840000000003
11
622.1375359999999546
21
-159.6814990000000023
0
LINE
8
BLACK
6
CONTINUOUS
10
581.7133089999999811
20
-173.4521299999999826
11
581.7566319999999678
21
-173.47934699999999
0
LINE
8
BLACK
6
CONTINUOUS
10
645.6331139999999778
20
-158.6216049999999882
11
645.5830519999999524
21
-158.620570999999984
0
LINE
8
BLACK
6
CONTINUOUS
10
701.6207889999999452
20
-160.4765050000000031
11
701.5968649999999798
21
-160.5302659999999833
0
LINE
8
BLACK
6
CONTINUOUS
10
614.1505839999999807
20
-160.9219899999999939
11
614.1009689999999637
21
-160.9304809999999861
0
LINE
8
BLACK
6
CONTINUOUS
10
697.665520000000015
20
-75.9708650000000034
11
697.7588739999999916
21
-75.9838199999999944
0
LINE
8
BLACK
6
CONTINUOUS
10
699.7527989999999818
20
-163.1509279999999933
11
699.6832170000000133
21
-163.2090129999999988
0
LINE
8
BLACK
6
CONTINUOUS
10
627.0773879999999281
20
-159.0888899999999921
11
626.9781279999999697
21
-159.0973479999999824
0
LINE
8
BLACK
6
CONTINUOUS
10
671.8001639999999952
20
-164.1388239999999996
11
671.7035260000000108
21
-164.1150779999999827
0
LINE
8
BLACK
6
CONTINUOUS
10
698.2294399999999541
20
-76.0769129999999905
11
698.3239370000000008
21
-76.1013499999999965
0
LINE
8
BLACK
6
CONTINUOUS
10
644.7821819999999207
20
-158.6072199999999839
11
644.7321359999999686
21
-158.6065769999999873
0
LINE
8
BLACK
6
CONTINUOUS
10
595.9392550000000028
20
-169.1381269999999972
11
587.1365289999999959
21
-173.913533000000001
0
LINE
8
BLACK
6
CONTINUOUS
10
581.6699859999999944
20
-173.4249099999999828
11
581.7133089999999811
21
-173.4521299999999826
0
LINE
8
BLACK
6
CONTINUOUS
10
615.9906320000000051
20
-160.6233119999999985
11
615.9408230000000231
21
-160.6310579999999959
0
LINE
8
BLACK
6
CONTINUOUS
10
620.0665890000000218
20
-160.0040869999999984
11
620.0171500000000151
21
-160.0118059999999787
0
LINE
8
BLACK
6
CONTINUOUS
10
630.759890999999925
20
-158.8538159999999948
11
630.6601620000000139
21
-158.8584369999999808
0
LINE
8
BLACK
6
CONTINUOUS
10
633.8543750000000045
20
-158.7451819999999998
11
633.7544990000000098
21
-158.7478219999999851
0
LINE
8
BLACK
6
CONTINUOUS
10
648.2855759999999918
20
-158.7183859999999811
11
648.2355769999999211
21
-158.7157169999999837
0
LINE
8
BLACK
6
CONTINUOUS
10
623.3192789999999377
20
-159.5083829999999807
11
623.220766000000026
21
-159.5222399999999823
0
LINE
8
BLACK
6
CONTINUOUS
10
632.6560150000000249
20
-158.7801839999999913
11
632.5561709999999493
21
-158.783457999999996
0
LINE
8
BLACK
6
CONTINUOUS
10
612.863952999999924
20
-161.1530419999999992
11
612.8146140000000059
21
-161.1623620000000017
0
LINE
8
BLACK
6
CONTINUOUS
10
643.5317709999999352
20
-158.597943999999984
11
643.431814999999915
21
-158.5977529999999831
0
LINE
8
BLACK
6
CONTINUOUS
10
667.2797389999999496
20
-162.9043509999999912
11
667.1839390000000094
21
-162.8760429999999815
0
LINE
8
BLACK
6
CONTINUOUS
10
671.2206939999999804
20
-163.9943969999999922
11
671.1241949999999861
21
-163.9698769999999968
0
LINE
8
BLACK
6
CONTINUOUS
10
698.7482439999999997
20
-76.2362940000000009
11
698.7951859999999442
21
-76.2535299999999978
0
LINE
8
BLACK
6
CONTINUOUS
10
660.012538999999947
20
-160.6927450000000022
11
659.9167699999999286
21
-160.6646240000000034
0
LINE
8
BLACK
6
CONTINUOUS
10
671.0277199999999311
20
-163.9452349999999967
11
670.9312659999999369
21
-163.9204749999999819
0
LINE
8
BLACK
6
CONTINUOUS
10
615.8412149999999201
20
-160.6465780000000052
11
615.7914129999999204
21
-160.6543549999999811
0
LINE
8
BLACK
6
CONTINUOUS
10
582.4469349999999395
20
-173.8620520000000056
11
582.5328650000000152
21
-173.9032899999999984
0
LINE
8
BLACK
6
CONTINUOUS
10
697.5725350000000162
20
-75.9597369999999898
11
697.665520000000015
21
-75.9708650000000034
0
LINE
8
BLACK
6
CONTINUOUS
10
653.4080289999999422
20
-159.2083209999999838
11
653.3093099999999822
21
-159.1941469999999867
0
LINE
8
BLACK
6
CONTINUOUS
10
657.5128280000000132
20
-160.0073869999999943
11
657.4161530000000084
21
-159.9834709999999802
0
LINE
8
BLACK
6
CONTINUOUS
10
632.7558639999999741
20
-158.7769710000000032
11
632.6560150000000249
21
-158.7801839999999913
0
LINE
8
BLACK
6
CONTINUOUS
10
613.259051999999997
20
-161.0796179999999822
11
613.2096189999999751
21
-161.088657999999981
0
LINE
8
BLACK
6
CONTINUOUS
10
653.3093099999999822
20
-159.1941469999999867
11
653.2105510000000095
21
-159.1801789999999812
0
LINE
8
BLACK
6
CONTINUOUS
10
632.3564969999999903
20
-158.7901849999999797
11
632.2566640000000007
21
-158.7936440000000005
0
LINE
8
BLACK
6
CONTINUOUS
10
621.5465819999999439
20
-159.7723059999999862
11
621.4480539999999564
21
-159.7876179999999806
0
LINE
8
BLACK
6
CONTINUOUS
10
663.6928970000000163
20
-161.8143029999999953
11
663.6451190000000224
21
-161.7995599999999854
0
LINE
8
BLACK
6
CONTINUOUS
10
581.9296849999999495
20
-173.5838229999999953
11
582.0160909999999603
21
-173.6338559999999802
0
LINE
8
BLACK
6
CONTINUOUS
10
662.1163070000000062
20
-161.3284669999999892
11
662.0207429999999249
21
-161.2991509999999948
0
LINE
8
BLACK
6
CONTINUOUS
10
701.0075069999999187
20
-77.9065729999999945
11
701.1592549999999164
21
-78.1181430000000034
0
LINE
8
BLACK
6
CONTINUOUS
10
647.6353619999999864
20
-158.686538999999982
11
647.5853270000000066
21
-158.6843409999999892
0
LINE
8
BLACK
6
CONTINUOUS
10
620.0171500000000151
20
-160.0118059999999787
11
619.967710000000011
21
-160.0195229999999924
0
LINE
8
BLACK
6
CONTINUOUS
10
626.8788839999999709
20
-159.1059339999999906
11
626.7796599999999216
21
-159.1146469999999908
0
LINE
8
BLACK
6
CONTINUOUS
10
642.7325220000000172
20
-158.598399999999998
11
642.632684999999924
21
-158.598764999999986
0
LINE
8
BLACK
6
CONTINUOUS
10
584.9902369999999792
20
-174.4614530000000059
11
585.0737819999999374
21
-174.4587059999999781
0
LINE
8
BLACK
6
CONTINUOUS
10
582.0160909999999603
20
-173.6338559999999802
11
582.1024199999999382
21
-173.6824289999999849
0
LINE
8
BLACK
6
CONTINUOUS
10
654.1963359999999739
20
-159.3293009999999867
11
654.0979429999999866
21
-159.3134269999999901
0
LINE
8
BLACK
6
CONTINUOUS
10
666.5136380000000145
20
-162.6762699999999882
11
666.4179219999999759
21
-162.6475259999999992
0
LINE
8
BLACK
6
CONTINUOUS
10
618.380790999999931
20
-160.2618359999999882
11
618.3310689999999568
21
-160.269299999999987
0
LINE
8
BLACK
6
CONTINUOUS
10
611.0486409999999751
20
-161.5257540000000063
11
610.9511850000000095
21
-161.5476709999999798
0
LINE
8
BLACK
6
CONTINUOUS
10
630.5604419999999664
20
-158.8631399999999871
11
630.4607310000000098
21
-158.8679239999999879
0
LINE
8
BLACK
6
CONTINUOUS
10
648.3355759999999464
20
-158.7210550000000069
11
648.2855759999999918
21
-158.7183859999999811
0
LINE
8
BLACK
6
CONTINUOUS
10
631.3584220000000187
20
-158.8277709999999843
11
631.2586469999999963
21
-158.8319199999999967
0
LINE
8
BLACK
6
CONTINUOUS
10
699.3042500000000246
20
-76.4797080000000022
11
699.349788999999987
21
-76.5030339999999995
0
LINE
8
BLACK
6
CONTINUOUS
10
701.2975509999999986
20
-161.1475899999999797
11
701.2715879999999515
21
-161.1967159999999808
0
LINE
8
BLACK
6
CONTINUOUS
10
584.3190240000000131
20
-174.4306409999999801
11
584.4032039999999597
21
-174.4396219999999857
0
LINE
8
BLACK
6
CONTINUOUS
10
648.9352999999999838
20
-158.7560809999999947
11
648.8853409999999258
21
-158.7529779999999846
0
LINE
8
BLACK
6
CONTINUOUS
10
617.3356959999999845
20
-160.4185200000000009
11
617.2858919999999898
21
-160.4260019999999827
0
LINE
8
BLACK
6
CONTINUOUS
10
641.1364820000000009
20
-158.6110029999999824
11
641.0368049999999585
21
-158.6122039999999913
0
LINE
8
BLACK
6
CONTINUOUS
10
615.2935879999999997
20
-160.7330910000000017
11
615.2438300000000027
21
-160.7410710000000051
0
LINE
8
BLACK
6
CONTINUOUS
10
608.258944999999926
20
-162.2532949999999801
11
608.1642939999999271
21
-162.2821889999999883
0
LINE
8
BLACK
6
CONTINUOUS
10
626.0855789999999388
20
-159.1792989999999861
11
625.9864999999999782
21
-159.1890740000000051
0
LINE
8
BLACK
6
CONTINUOUS
10
655.569095999999945
20
-159.5750919999999837
11
655.4713530000000219
21
-159.5560370000000034
0
LINE
8
BLACK
6
CONTINUOUS
10
660.108286000000021
20
-160.7209650000000067
11
660.012538999999947
21
-160.6927450000000022
0
LINE
8
BLACK
6
CONTINUOUS
10
624.4040219999999408
20
-159.3650049999999965
11
624.3053019999999833
21
-159.3772830000000056
0
LINE
8
BLACK
6
CONTINUOUS
10
606.0224539999999251
20
-163.0307099999999991
11
605.9309919999999465
21
-163.0671869999999899
0
LINE
8
BLACK
6
CONTINUOUS
10
669.6792550000000119
20
-163.5881430000000023
11
669.5830799999999954
21
-163.5618299999999863
0
LINE
8
BLACK
6
CONTINUOUS
10
628.1703129999999646
20
-159.0038250000000062
11
628.0708819999999832
21
-159.0109740000000045
0
LINE
8
BLACK
6
CONTINUOUS
10
607.7868829999999889
20
-162.4006359999999916
11
607.6928329999999505
21
-162.4309759999999869
0
LINE
8
BLACK
6
CONTINUOUS
10
701.8776719999999614
20
-79.7251449999999977
11
701.9001429999999573
21
-79.819587999999996
0
LINE
8
BLACK
6
CONTINUOUS
10
642.4330459999999903
20
-158.5996789999999805
11
642.3332490000000234
21
-158.6002309999999795
0
LINE
8
BLACK
6
CONTINUOUS
10
647.335132999999928
20
-158.6737320000000011
11
647.2850879999999734
21
-158.6717249999999808
0
LINE
8
BLACK
6
CONTINUOUS
10
699.4704039999999168
20
-163.3739960000000053
11
699.3981059999999843
21
-163.4259019999999794
0
LINE
8
BLACK
6
CONTINUOUS
10
670.9312659999999369
20
-163.9204749999999819
11
670.8348349999999982
21
-163.8955859999999802
0
LINE
8
BLACK
6
CONTINUOUS
10
638.9442419999999174
20
-158.6444529999999986
11
638.8445849999999382
21
-158.6461960000000033
0
LINE
8
BLACK
6
CONTINUOUS
10
701.9559540000000197
20
-80.1020350000000008
11
701.9707649999999148
21
-80.1957110000000029
0
LINE
8
BLACK
6
CONTINUOUS
10
661.9251809999999523
20
-161.2698560000000043
11
661.8296139999999923
21
-161.2405880000000025
0
LINE
8
BLACK
6
CONTINUOUS
10
664.6963579999999183
20
-162.1234809999999982
11
664.6007749999999987
21
-162.0940989999999999
0
LINE
8
BLACK
6
CONTINUOUS
10
701.6057250000000067
20
-78.9262339999999938
11
701.6260119999999461
21
-78.9726189999999946
0
LINE
8
BLACK
6
CONTINUOUS
10
625.7883990000000267
20
-159.2090350000000001
11
625.6893779999999197
21
-159.2192269999999894
0
LINE
8
BLACK
6
CONTINUOUS
10
673.9327579999999216
20
-164.6243939999999952
11
673.8355299999999488
21
-164.603966999999983
0
LINE
8
BLACK
6
CONTINUOUS
10
662.2118649999999889
20
-161.3578059999999823
11
662.1163070000000062
21
-161.3284669999999892
0
LINE
8
BLACK
6
CONTINUOUS
10
618.0326390000000174
20
-160.3140499999999804
11
617.9828880000000026
21
-160.3214999999999861
0
LINE
8
BLACK
6
CONTINUOUS
10
700.3703550000000178
20
-77.2137329999999906
11
700.4089339999999311
21
-77.2492039999999918
0
LINE
8
BLACK
6
CONTINUOUS
10
642.5328589999999167
20
-158.599189999999993
11
642.4330459999999903
21
-158.5996789999999805
0
LINE
8
BLACK
6
CONTINUOUS
10
619.02651800000001
20
-160.1643829999999866
11
618.9768940000000157
21
-160.1719200000000001
0
LINE
8
BLACK
6
CONTINUOUS
10
624.0492550000000165
20
-69.6781429999999915
11
594.4292550000000119
21
-73.5081429999999898
0
LINE
8
BLACK
6
CONTINUOUS
10
649.2848900000000185
20
-158.7789659999999969
11
649.2349629999999934
21
-158.7755669999999952
0
LINE
8
BLACK
6
CONTINUOUS
10
701.4028919999999516
20
-78.5144129999999905
11
701.4272209999999177
21
-78.5596039999999931
0
LINE
8
BLACK
6
CONTINUOUS
10
699.177141000000006
20
-163.5723459999999818
11
699.1021279999999933
21
-163.6180709999999863
0
LINE
8
BLACK
6
CONTINUOUS
10
618.9768940000000157
20
-160.1719200000000001
11
618.9272539999999481
21
-160.1794390000000021
0
LINE
8
BLACK
6
CONTINUOUS
10
610.1744449999999915
20
-161.73048
11
610.0777369999999564
21
-161.754306999999983
0
LINE
8
BLACK
6
CONTINUOUS
10
605.9309919999999465
20
-163.0671869999999899
11
605.8396809999999277
21
-163.104015000000004
0
LINE
8
BLACK
6
CONTINUOUS
10
614.9453710000000228
20
-160.7893239999999935
11
614.8956439999999475
21
-160.7974299999999914
0
LINE
8
BLACK
6
CONTINUOUS
10
584.4032039999999597
20
-174.4396219999999857
11
584.4873049999999921
21
-174.4471389999999928
0
LINE
8
BLACK
6
CONTINUOUS
10
612.3220390000000179
20
-161.2578209999999785
11
612.2728670000000193
21
-161.2676029999999798
0
LINE
8
BLACK
6
CONTINUOUS
10
636.750218000000018
20
-158.6833660000000066
11
636.6504109999999628
21
-158.6851779999999792
0
LINE
8
BLACK
6
CONTINUOUS
10
700.6556110000000217
20
-162.1755289999999832
11
700.5955379999999195
21
-162.2552409999999838
0
LINE
8
BLACK
6
CONTINUOUS
10
624.897954000000027
20
-159.3059419999999875
11
624.7991220000000112
21
-159.3174510000000055
0
CIRCLE
8
BLACK
10
610.3950909999999794
20
-73.5881159999999994
40
0.8999999999999999
0
LINE
8
BLACK
6
CONTINUOUS
10
701.714448999999945
20
-160.2568279999999845
11
701.6912049999999681
21
-160.3121319999999912
0
LINE
8
BLACK
6
CONTINUOUS
10
611.8799799999999323
20
-161.3471899999999835
11
611.8309329999999591
21
-161.3573089999999866
0
LINE
8
BLACK
6
CONTINUOUS
10
698.8730160000000069
20
-163.7459779999999796
11
698.7952859999999191
21
-163.7855249999999785
0
LINE
8
BLACK
6
CONTINUOUS
10
646.7345119999999952
20
-158.6514959999999803
11
646.6844509999999673
21
-158.6498550000000023
0
LINE
8
BLACK
6
CONTINUOUS
10
660.6824249999999665
20
-160.8920959999999809
11
660.5867729999999938
21
-160.8633800000000065
0
LINE
8
BLACK
6
CONTINUOUS
10
656.6408470000000079
20
-159.8006419999999821
11
656.5436879999999746
21
-159.778901999999988
0
LINE
8
BLACK
6
CONTINUOUS
10
644.1317749999999478
20
-158.6007510000000025
11
644.0817599999999175
21
-158.6004159999999956
0
LINE
8
BLACK
6
CONTINUOUS
10
700.7754879999999957
20
-77.6235219999999941
11
700.8101239999999734
21
-77.6628139999999973
0
LINE
8
BLACK
6
CONTINUOUS
10
646.7845689999999195
20
-158.6531980000000033
11
646.7345119999999952
21
-158.6514959999999803
0
LINE
8
BLACK
6
CONTINUOUS
10
625.5903769999999895
20
-159.2295579999999973
11
625.4913980000000038
21
-159.2400329999999826
0
LINE
8
BLACK
6
CONTINUOUS
10
628.0708819999999832
20
-159.0109740000000045
11
627.9714619999999741
21
-159.0182369999999992
0
LINE
8
BLACK
6
CONTINUOUS
10
617.036830000000009
20
-160.4635040000000004
11
616.9870129999999335
21
-160.4710189999999841
0
LINE
8
BLACK
6
CONTINUOUS
10
698.0406639999999925
20
-76.0339179999999999
11
698.1349969999999985
21
-76.0544419999999946
0
LINE
8
BLACK
6
CONTINUOUS
10
655.9595649999999978
20
-159.6536920000000066
11
655.8620260000000144
21
-159.6336809999999957
0
LINE
8
BLACK
6
CONTINUOUS
10
700.0905099999999948
20
-162.837331000000006
11
700.0243259999999736
21
-162.9031399999999792
0
LINE
8
BLACK
6
CONTINUOUS
10
655.7644339999999374
20
-159.6139129999999966
11
655.6667909999999893
21
-159.5943809999999985
0
LINE
8
BLACK
6
CONTINUOUS
10
659.0537719999999808
20
-160.4167589999999848
11
658.9577419999999393
21
-160.389883999999995
0
LINE
8
BLACK
6
CONTINUOUS
10
647.1349460000000136
20
-158.6658290000000022
11
647.0848959999999579
21
-158.663946999999979
0
LINE
8
BLACK
6
CONTINUOUS
10
648.5855179999999791
20
-158.7350349999999821
11
648.5355379999999741
21
-158.7321560000000034
0
LINE
8
BLACK
6
CONTINUOUS
10
621.9405829999999469
20
-159.7115349999999978
11
621.8420959999999695
21
-159.7266459999999881
0
LINE
8
BLACK
6
CONTINUOUS
10
620.214841999999976
20
-159.9808909999999855
11
620.1654350000000022
21
-159.9886269999999797
0
LINE
8
BLACK
6
CONTINUOUS
10
642.0339199999999664
20
-158.6022240000000068
11
641.9341699999999946
21
-158.6029999999999802
0
LINE
8
BLACK
6
CONTINUOUS
10
657.4161530000000084
20
-159.9834709999999802
11
657.3194260000000213
21
-159.9597819999999899
0
LINE
8
BLACK
6
CONTINUOUS
10
664.6007749999999987
20
-162.0940989999999999
11
664.5529859999999189
21
-162.0794009999999901
0
LINE
8
BLACK
6
CONTINUOUS
10
641.6349709999999504
20
-158.6056419999999889
11
641.5352579999999989
21
-158.6066229999999848
0
LINE
8
BLACK
6
CONTINUOUS
10
612.3712399999999434
20
-161.2481190000000026
11
612.3220390000000179
21
-161.2578209999999785
0
LINE
8
BLACK
6
CONTINUOUS
10
664.5529859999999189
20
-162.0794009999999901
11
664.5051929999999629
21
-162.0647029999999802
0
LINE
8
BLACK
6
CONTINUOUS
10
654.0979429999999866
20
-159.3134269999999901
11
653.9995069999999942
21
-159.297774000000004
0
LINE
8
BLACK
6
CONTINUOUS
10
634.6533849999999575
20
-158.7255689999999788
11
634.5535099999999602
21
-158.7278819999999939
0
LINE
8
BLACK
6
CONTINUOUS
10
651.8242399999999179
20
-159.0055869999999913
11
651.7249729999999772
21
-158.9945589999999811
0
LINE
8
BLACK
6
CONTINUOUS
10
701.2189859999999726
20
-161.29342299999999
11
701.192344999999932
21
-161.3410049999999956
0
LINE
8
BLACK
6
CONTINUOUS
10
655.4713530000000219
20
-159.5560370000000034
11
655.3735570000000052
21
-159.5372169999999983
0
LINE
8
BLACK
6
CONTINUOUS
10
649.0352040000000216
20
-158.762424999999979
11
648.9852519999999458
21
-158.7592510000000061
0
LINE
8
BLACK
6
CONTINUOUS
10
700.8317549999999301
20
-161.9271190000000047
11
700.8027369999999792
21
-161.9692919999999958
0
LINE
8
BLACK
6
CONTINUOUS
10
647.3092550000000074
20
-68.7681429999999949
11
633.4092549999999164
21
-68.7681429999999949
0
LINE
8
BLACK
6
CONTINUOUS
10
624.7991220000000112
20
-159.3174510000000055
11
624.7003149999999323
21
-159.3291069999999934
0
LINE
8
BLACK
6
CONTINUOUS
10
655.1778229999999894
20
-159.5002769999999828
11
655.0798790000000054
21
-159.4821609999999907
0
LINE
8
BLACK
6
CONTINUOUS
10
699.3949799999999186
20
-76.527362999999994
11
699.4401719999999614
21
-76.5516930000000002
0
LINE
8
BLACK
6
CONTINUOUS
10
644.9323190000000068
20
-158.6092399999999998
11
644.882272999999941
21
-158.6085499999999797
0
LINE
8
BLACK
6
CONTINUOUS
10
664.4096170000000257
20
-162.0352849999999876
11
664.3618299999999408
21
-162.0205689999999947
0
LINE
8
BLACK
6
CONTINUOUS
10
614.8956439999999475
20
-160.7974299999999914
11
614.845927999999958
21
-160.8055769999999995
0
LINE
8
BLACK
6
CONTINUOUS
10
586.4818579999999884
20
-174.1876900000000035
11
586.5639699999999266
21
-174.1585549999999785
0
LINE
8
BLACK
6
CONTINUOUS
10
701.7010549999999967
20
-79.1593989999999934
11
701.718291000000022
21
-79.2063399999999973
0
LINE
8
BLACK
6
CONTINUOUS
10
672.2837170000000242
20
-164.2554910000000064
11
672.1869570000000067
21
-164.2324359999999785
0
LINE
8
BLACK
6
CONTINUOUS
10
639.9406549999999925
20
-158.6277479999999969
11
639.8410179999999627
21
-158.629335999999995
0
LINE
8
BLACK
6
CONTINUOUS
10
698.5580229999999347
20
-163.8948900000000037
11
698.3146489999999176
21
-163.9903529999999989
0
LINE
8
BLACK
6
CONTINUOUS
10
645.8333689999999478
20
-158.6260539999999821
11
645.7833049999999275
21
-158.6249190000000056
0
LINE
8
BLACK
6
CONTINUOUS
10
612.962654999999927
20
-161.1344749999999806
11
612.9132909999999583
21
-161.1437219999999968
0
LINE
8
BLACK
6
CONTINUOUS
10
698.2321660000000065
20
-164.0190839999999923
11
697.7230039999999462
21
-164.1590309999999988
0
LINE
8
BLACK
6
CONTINUOUS
10
614.1009689999999637
20
-160.9304809999999861
11
614.0513730000000123
21
-160.9390329999999949
0
LINE
8
BLACK
6
CONTINUOUS
10
699.0747349999999187
20
-76.3691460000000006
11
699.1208699999999681
21
-76.3904479999999921
0
LINE
8
BLACK
6
CONTINUOUS
10
700.8604329999999436
20
-161.8841720000000066
11
700.8317549999999301
21
-161.9271190000000047
0
LINE
8
BLACK
6
CONTINUOUS
10
663.9795659999999771
20
-161.9027539999999874
11
663.9317869999999857
21
-161.8880169999999907
0
LINE
8
BLACK
6
CONTINUOUS
10
662.0207429999999249
20
-161.2991509999999948
11
661.9251809999999523
21
-161.2698560000000043
0
LINE
8
BLACK
6
CONTINUOUS
10
646.0836929999999256
20
-158.6322279999999978
11
646.033629000000019
21
-158.6309279999999831
0
LINE
8
BLACK
6
CONTINUOUS
10
650.9298069999999825
20
-158.9128859999999861
11
650.8302899999999909
21
-158.9034739999999886
0
LINE
8
BLACK
6
CONTINUOUS
10
618.5299069999999801
20
-160.2394180000000006
11
618.4802099999999427
21
-160.2468959999999925
0
LINE
8
BLACK
6
CONTINUOUS
10
611.341464999999971
20
-161.4611809999999821
11
611.2437820000000102
21
-161.4825139999999806
0
LINE
8
BLACK
6
CONTINUOUS
10
614.0513730000000123
20
-160.9390329999999949
11
614.0017739999999549
21
-160.9475799999999879
0
LINE
8
BLACK
6
CONTINUOUS
10
619.967710000000011
20
-160.0195229999999924
11
619.918252999999936
21
-160.027230000000003
0
LINE
8
BLACK
6
CONTINUOUS
10
585.0737819999999374
20
-174.4587059999999781
11
585.1572469999999839
21
-174.4544939999999826
0
LINE
8
BLACK
6
CONTINUOUS
10
610.8538059999999632
20
-161.5697889999999859
11
610.7565059999999448
21
-161.592111999999986
0
LINE
8
BLACK
6
CONTINUOUS
10
613.3579469999999674
20
-161.0616039999999884
11
613.3084900000000061
21
-161.0705779999999834
0
LINE
8
BLACK
6
CONTINUOUS
10
701.0571039999999812
20
-161.5742759999999976
11
701.0294450000000097
21
-161.6195409999999981
0
LINE
8
BLACK
6
CONTINUOUS
10
701.7602610000000141
20
-160.1446699999999908
11
701.7373569999999745
21
-160.2007490000000018
0
LINE
8
BLACK
6
CONTINUOUS
10
645.1825810000000274
20
-158.613112000000001
11
645.1325259999999844
21
-158.6122809999999959
0
LINE
8
BLACK
6
CONTINUOUS
10
615.6918210000000045
20
-160.6699659999999881
11
615.642029999999977
21
-160.6778039999999805
0
LINE
8
BLACK
6
CONTINUOUS
10
641.0368049999999585
20
-158.6122039999999913
11
640.937135000000012
21
-158.6134449999999845
0
LINE
8
BLACK
6
CONTINUOUS
10
612.125409999999988
20
-161.2971119999999985
11
612.076298999999949
21
-161.3070599999999786
0
LINE
8
BLACK
6
CONTINUOUS
10
606.3897739999999885
20
-162.888259000000005
11
606.297725000000014
21
-162.9233619999999974
0
LINE
8
BLACK
6
CONTINUOUS
10
650.1828409999999394
20
-158.8464919999999836
11
650.1329999999999245
21
-158.8423809999999889
0
LINE
8
BLACK
6
CONTINUOUS
10
627.7726719999999432
20
-159.0331089999999961
11
627.6732959999999366
21
-159.0407139999999799
0
LINE
8
BLACK
6
CONTINUOUS
10
609.4994299999999612
20
-161.9021290000000022
11
609.4033799999999701
21
-161.927599999999984
0
LINE
8
BLACK
6
CONTINUOUS
10
649.9335720000000265
20
-158.8264189999999871
11
649.8837019999999711
21
-158.8225510000000043
0
LINE
8
BLACK
6
CONTINUOUS
10
624.1079349999999977
20
-159.4023139999999898
11
624.0092879999999695
21
-159.4150649999999985
0
LINE
8
BLACK
6
CONTINUOUS
10
669.1024830000000065
20
-163.4288319999999999
11
669.0064149999999472
21
-163.4019529999999918
0
LINE
8
BLACK
6
CONTINUOUS
10
650.2326809999999568
20
-158.8506089999999915
11
650.1828409999999394
21
-158.8464919999999836
0
LINE
8
BLACK
6
CONTINUOUS
10
622.4329369999999244
20
-159.6369799999999941
11
622.3344720000000052
21
-159.6517450000000053
0
LINE
8
BLACK
6
CONTINUOUS
10
699.9574619999999641
20
-162.9674059999999827
11
699.8899189999999635
21
-163.0301240000000007
0
LINE
8
BLACK
6
CONTINUOUS
10
635.9516069999999672
20
-158.6982869999999934
11
635.8517610000000104
21
-158.7002289999999789
0
LINE
8
BLACK
6
CONTINUOUS
10
670.7384240000000091
20
-163.8705870000000004
11
670.6420349999999644
21
-163.8454629999999952
0
LINE
8
BLACK
6
CONTINUOUS
10
668.9103619999999637
20
-163.3749819999999886
11
668.8143259999999373
21
-163.347927999999996
0
LINE
8
BLACK
6
CONTINUOUS
10
635.3524790000000166
20
-158.710298999999992
11
635.2526139999999941
21
-158.7123849999999834
0
LINE
8
BLACK
6
CONTINUOUS
10
656.2518689999999424
20
-159.715188999999981
11
656.1544880000000148
21
-159.6944459999999992
0
LINE
8
BLACK
6
CONTINUOUS
10
643.8817239999999629
20
-158.5992420000000038
11
643.8317200000000184
21
-158.5989899999999864
0
LINE
8
BLACK
6
CONTINUOUS
10
618.4304989999999407
20
-160.2543629999999837
11
618.380790999999931
21
-160.2618359999999882
0
LINE
8
BLACK
6
CONTINUOUS
10
611.3903399999999237
20
-161.4506079999999884
11
611.341464999999971
21
-161.4611809999999821
0
LINE
8
BLACK
6
CONTINUOUS
10
666.3222119999999222
20
-162.6187319999999943
11
666.2265139999999519
21
-162.589888000000002
0
LINE
8
BLACK
6
CONTINUOUS
10
630.3610289999999168
20
-158.872793999999999
11
630.2613359999999147
21
-158.8777509999999893
0
LINE
8
BLACK
6
CONTINUOUS
10
621.0537909999999329
20
-159.8492149999999867
11
620.9551789999999301
21
-159.8646739999999795
0
LINE
8
BLACK
6
CONTINUOUS
10
624.6015259999999216
20
-159.3409220000000062
11
624.5027619999999615
21
-159.3528829999999914
0
LINE
8
BLACK
6
CONTINUOUS
10
647.034844000000021
20
-158.6620619999999917
11
646.9847929999999678
21
-158.6602399999999875
0
LINE
8
BLACK
6
CONTINUOUS
10
616.5884459999999763
20
-160.5314459999999883
11
616.5386219999999184
21
-160.5390419999999949
0
LINE
8
BLACK
6
CONTINUOUS
10
664.0751269999999522
20
-161.9322229999999934
11
664.0273459999999659
21
-161.9174940000000049
0
LINE
8
BLACK
6
CONTINUOUS
10
699.921848999999952
20
-76.8547200000000004
11
699.9642830000000231
21
-76.884886999999992
0
LINE
8
BLACK
6
CONTINUOUS
10
701.9151679999999942
20
-159.7397629999999822
11
701.8936199999999417
21
-159.7989309999999819
0
LINE
8
BLACK
6
CONTINUOUS
10
700.8439039999999522
20
-77.7027920000000023
11
700.8776839999999311
21
-77.742769999999993
0
LINE
8
BLACK
6
CONTINUOUS
10
669.8716549999999188
20
-163.6404560000000004
11
669.7754469999999856
21
-163.6143490000000043
0
LINE
8
BLACK
6
CONTINUOUS
10
647.2350440000000162
20
-158.6697149999999965
11
647.1849959999999555
21
-158.6677719999999852
0
LINE
8
BLACK
6
CONTINUOUS
10
673.1557389999999259
20
-164.4563990000000047
11
673.0587399999999434
21
-164.4346809999999834
0
LINE
8
BLACK
6
CONTINUOUS
10
611.8309329999999591
20
-161.3573089999999866
11
611.7819170000000213
21
-161.3675139999999999
0
LINE
8
BLACK
6
CONTINUOUS
10
698.9353629999999384
20
-76.3093029999999999
11
698.9819659999999431
21
-76.3285729999999916
0
LINE
8
BLACK
6
CONTINUOUS
10
624.7003149999999323
20
-159.3291069999999934
11
624.6015259999999216
21
-159.3409220000000062
0
LINE
8
BLACK
6
CONTINUOUS
10
673.6411580000000185
20
-164.5626179999999863
11
673.5440169999999398
21
-164.5416979999999967
0
LINE
8
BLACK
6
CONTINUOUS
10
619.1257459999999355
20
-160.1492959999999925
11
619.0761410000000069
21
-160.1568469999999991
0
LINE
8
BLACK
6
CONTINUOUS
10
645.7833049999999275
20
-158.6249190000000056
11
645.7332420000000184
21
-158.6237749999999949
0
LINE
8
BLACK
6
CONTINUOUS
10
701.4752069999999549
20
-160.7944349999999929
11
701.4502639999999474
21
-160.8458809999999914
0
LINE
8
BLACK
6
CONTINUOUS
10
624.5027619999999615
20
-159.3528829999999914
11
624.4040219999999408
21
-159.3650049999999965
0
LINE
8
BLACK
6
CONTINUOUS
10
700.7443630000000212
20
-162.052866999999992
11
700.7150040000000217
21
-162.0942699999999945
0
LINE
8
BLACK
6
CONTINUOUS
10
700.6336239999999407
20
-77.4692330000000027
11
700.6699089999999615
21
-77.5070719999999937
0
LINE
8
BLACK
6
CONTINUOUS
10
664.3140419999999722
20
-162.0058569999999918
11
664.2662599999999884
21
-161.9911329999999907
0
LINE
8
BLACK
6
CONTINUOUS
10
624.2066079999999602
20
-159.3897189999999853
11
624.1079349999999977
21
-159.4023139999999898
0
LINE
8
BLACK
6
CONTINUOUS
10
665.5568579999999201
20
-162.386856999999992
11
665.4612230000000181
21
-162.3577049999999815
0
LINE
8
BLACK
6
CONTINUOUS
10
644.3318610000000035
20
-158.6023449999999855
11
644.2818369999999959
21
-158.6019249999999943
0
LINE
8
BLACK
6
CONTINUOUS
10
666.8008449999999812
20
-162.7622109999999793
11
666.7051000000000158
21
-162.7336190000000045
0
LINE
8
BLACK
6
CONTINUOUS
10
699.83644199999992
20
-76.7953299999999928
11
699.8794149999999945
21
-76.8245529999999945
0
LINE
8
BLACK
6
CONTINUOUS
10
644.3818899999999985
20
-158.6028069999999843
11
644.3318610000000035
21
-158.6023449999999855
0
LINE
8
BLACK
6
CONTINUOUS
10
609.9811199999999189
20
-161.7783609999999896
11
609.8845939999999928
21
-161.8026459999999815
0
LINE
8
BLACK
6
CONTINUOUS
10
701.323511999999937
20
-161.0984629999999811
11
701.2975509999999986
21
-161.1475899999999797
0
LINE
8
BLACK
6
CONTINUOUS
10
654.3929939999999306
20
-159.3617059999999981
11
654.294685999999956
21
-159.3453939999999989
0
LINE
8
BLACK
6
CONTINUOUS
10
620.6592180000000099
20
-159.9111489999999947
11
620.5605170000000044
21
-159.9266559999999799
0
CIRCLE
8
BLACK
10
661.0488100000000031
20
-142.837697999999989
40
0.8999999999999999
0
LINE
8
BLACK
6
CONTINUOUS
10
652.0226829999999154
20
-159.0282019999999932
11
651.9234769999999344
21
-159.0168009999999867
0
LINE
8
BLACK
6
CONTINUOUS
10
626.9781279999999697
20
-159.0973479999999824
11
626.8788839999999709
21
-159.1059339999999906
0
LINE
8
BLACK
6
CONTINUOUS
10
652.6172409999999218
20
-159.1006429999999909
11
652.5182310000000143
21
-159.0880839999999807
0
LINE
8
BLACK
6
CONTINUOUS
10
648.385569999999916
20
-158.7237939999999981
11
648.3355759999999464
21
-158.7210550000000069
0
LINE
8
BLACK
6
CONTINUOUS
10
615.5922389999999496
20
-160.6856420000000014
11
615.5424570000000131
21
-160.6935139999999933
0
LINE
8
BLACK
6
CONTINUOUS
10
638.7449239999999691
20
-158.6479499999999803
11
638.6452570000000151
21
-158.6497129999999913
0
LINE
8
BLACK
6
CONTINUOUS
10
667.8547989999999572
20
-163.0728780000000029
11
667.7589239999999791
21
-163.0449590000000057
0
LINE
8
BLACK
6
CONTINUOUS
10
618.3310689999999568
20
-160.269299999999987
11
618.2813479999999799
21
-160.2767629999999883
0
LINE
8
BLACK
6
CONTINUOUS
10
622.728336000000013
20
-159.5932090000000017
11
622.6298679999999877
21
-159.6077099999999973
0
LINE
8
BLACK
6
CONTINUOUS
10
639.741380999999933
20
-158.6309459999999945
11
639.6417450000000144
21
-158.6325709999999845
0
LINE
8
BLACK
6
CONTINUOUS
10
657.6094590000000153
20
-160.0315169999999796
11
657.5128280000000132
21
-160.0073869999999943
0
LINE
8
BLACK
6
CONTINUOUS
10
666.2265139999999519
20
-162.589888000000002
11
666.1308259999999564
21
-162.5610039999999969
0
LINE
8
BLACK
6
CONTINUOUS
10
647.0848959999999579
20
-158.663946999999979
11
647.034844000000021
21
-158.6620619999999917
0
LINE
8
BLACK
6
CONTINUOUS
10
586.3996680000000197
20
-174.2153619999999989
11
586.4818579999999884
21
-174.1876900000000035
0
LINE
8
BLACK
6
CONTINUOUS
10
637.5484629999999697
20
-158.6691349999999829
11
637.4487050000000181
21
-158.6708969999999965
0
LINE
8
BLACK
6
CONTINUOUS
10
673.5440169999999398
20
-164.5416979999999967
11
673.4469050000000152
21
-164.5206119999999999
0
LINE
8
BLACK
6
CONTINUOUS
10
701.7373569999999745
20
-160.2007490000000018
11
701.714448999999945
21
-160.2568279999999845
0
LINE
8
BLACK
6
CONTINUOUS
10
648.6854739999999993
20
-158.7408739999999909
11
648.6354989999999816
21
-158.7379190000000051
0
LINE
8
BLACK
6
CONTINUOUS
10
625.6893779999999197
20
-159.2192269999999894
11
625.5903769999999895
21
-159.2295579999999973
0
LINE
8
BLACK
6
CONTINUOUS
10
663.8362280000000055
20
-161.8585359999999866
11
663.7884510000000091
21
-161.8437959999999975
0
LINE
8
BLACK
6
CONTINUOUS
10
645.2326359999999568
20
-158.613946999999996
11
645.1825810000000274
21
-158.613112000000001
0
LINE
8
BLACK
6
CONTINUOUS
10
700.4853519999999207
20
-77.3209599999999995
11
700.5231909999999971
21
-77.3572449999999918
0
LINE
8
BLACK
6
CONTINUOUS
10
650.4319779999999582
20
-158.8675529999999867
11
650.3821590000000015
21
-158.8632739999999899
0
LINE
8
BLACK
6
CONTINUOUS
10
662.4029769999999644
20
-161.4165500000000009
11
662.3074209999999766
21
-161.3871699999999976
0
LINE
8
BLACK
6
CONTINUOUS
10
651.1287629999999353
20
-158.9322279999999807
11
651.0292989999999236
21
-158.9224710000000016
0
LINE
8
BLACK
6
CONTINUOUS
10
646.1337579999999434
20
-158.633531000000005
11
646.0836929999999256
21
-158.6322279999999978
0
LINE
8
BLACK
6
CONTINUOUS
10
616.1400679999999284
20
-160.6001859999999795
11
616.090253999999959
21
-160.6078760000000045
0
LINE
8
BLACK
6
CONTINUOUS
10
647.5853270000000066
20
-158.6843409999999892
11
647.5352930000000242
21
-158.6821410000000014
0
LINE
8
BLACK
6
CONTINUOUS
10
639.1435420000000249
20
-158.6409869999999955
11
639.0438930000000255
21
-158.6427129999999863
0
LINE
8
BLACK
6
CONTINUOUS
10
654.9818940000000111
20
-159.4642699999999991
11
654.8838589999999158
21
-159.4466119999999876
0
LINE
8
BLACK
6
CONTINUOUS
10
701.192344999999932
20
-161.3410049999999956
11
701.1657050000000027
21
-161.3885860000000037
0
LINE
8
BLACK
6
CONTINUOUS
10
616.3393379999999979
20
-160.5695209999999804
11
616.2895189999999275
21
-160.5771660000000054
0
LINE
8
BLACK
6
CONTINUOUS
10
611.6349389999999175
20
-161.3983089999999834
11
611.5859909999999218
21
-161.408695999999992
0
LINE
8
BLACK
6
CONTINUOUS
10
658.9577419999999393
20
-160.389883999999995
11
658.8616809999999759
21
-160.363158999999996
0
LINE
8
BLACK
6
CONTINUOUS
10
659.2457379999999603
20
-160.4709419999999795
11
659.149768999999992
21
-160.4437829999999963
0
LINE
8
BLACK
6
CONTINUOUS
10
626.4820849999999837
20
-159.1415599999999984
11
626.382930999999985
21
-159.1507939999999905
0
LINE
8
BLACK
6
CONTINUOUS
10
585.1572469999999839
20
-174.4544939999999826
11
585.2406310000000076
21
-174.4488159999999937
0
LINE
8
BLACK
6
CONTINUOUS
10
643.3318709999999783
20
-158.597629999999981
11
643.2319410000000062
21
-158.5975839999999835
0
LINE
8
BLACK
6
CONTINUOUS
10
624.3053019999999833
20
-159.3772830000000056
11
624.2066079999999602
21
-159.3897189999999853
0
LINE
8
BLACK
6
CONTINUOUS
10
637.2491719999999304
20
-158.674428000000006
11
637.1493939999999156
21
-158.6761999999999944
0
LINE
8
BLACK
6
CONTINUOUS
10
656.9319990000000189
20
-159.867367999999999
11
656.8350060000000212
21
-159.8448759999999993
0
LINE
8
BLACK
6
CONTINUOUS
10
647.8354719999999816
20
-158.695729
11
647.785445999999979
21
-158.693398000000002
0
LINE
8
BLACK
6
CONTINUOUS
10
670.1603999999999814
20
-163.7181530000000009
11
670.0641329999999698
21
-163.6923620000000028
0
LINE
8
BLACK
6
CONTINUOUS
10
618.6789689999999382
20
-160.216969000000006
11
618.6292859999999791
21
-160.2244550000000061
0
LINE
8
BLACK
6
CONTINUOUS
10
616.438980000000015
20
-160.5542619999999943
11
616.3891589999999496
21
-160.5618790000000047
0
LINE
8
BLACK
6
CONTINUOUS
10
618.6292859999999791
20
-160.2244550000000061
11
618.5796030000000201
21
-160.2319420000000036
0
LINE
8
BLACK
6
CONTINUOUS
10
632.1568369999999959
20
-158.7971650000000068
11
632.057015999999976
21
-158.8007499999999936
0
LINE
8
BLACK
6
CONTINUOUS
10
700.53478599999994
20
-162.333408999999989
11
700.473355999999967
21
-162.4100320000000011
0
LINE
8
BLACK
6
CONTINUOUS
10
701.6452809999999545
20
-79.0192210000000017
11
701.6645509999999604
21
-79.0658239999999921
0
LINE
8
BLACK
6
CONTINUOUS
10
613.8530559999999241
20
-160.9734499999999855
11
613.8034940000000006
21
-160.9821139999999957
0
LINE
8
BLACK
6
CONTINUOUS
10
664.4574059999999918
20
-162.0499930000000006
11
664.4096170000000257
21
-162.0352849999999876
0
LINE
8
BLACK
6
CONTINUOUS
10
655.8620260000000144
20
-159.6336809999999957
11
655.7644339999999374
21
-159.6139129999999966
0
LINE
8
BLACK
6
CONTINUOUS
10
612.4204409999999825
20
-161.2384169999999983
11
612.3712399999999434
21
-161.2481190000000026
0
LINE
8
BLACK
6
CONTINUOUS
10
672.7679059999999254
20
-164.3686019999999814
11
672.6710180000000037
21
-164.3462769999999864
0
LINE
8
BLACK
6
CONTINUOUS
10
616.6880909999999858
20
-160.5162859999999796
11
616.6382679999999255
21
-160.5238650000000007
0
LINE
8
BLACK
6
CONTINUOUS
10
638.54558499999996
20
-158.6514760000000024
11
638.4459049999999252
21
-158.6532459999999958
0
LINE
8
BLACK
6
CONTINUOUS
10
567.9892549999999574
20
-73.5081429999999898
11
568.3792549999999437
21
-147.528143
0
LINE
8
BLACK
6
CONTINUOUS
10
585.9875149999999167
20
-174.3317299999999932
11
586.0701040000000148
21
-174.3113869999999963
0
LINE
8
BLACK
6
CONTINUOUS
10
612.6667029999999841
20
-161.1906189999999981
11
612.6174179999999296
21
-161.2000859999999989
0
LINE
8
BLACK
6
CONTINUOUS
10
613.9026149999999689
20
-160.9647899999999936
11
613.8530559999999241
21
-160.9734499999999855
0
LINE
8
BLACK
6
CONTINUOUS
10
609.8845939999999928
20
-161.8026459999999815
11
609.788159999999948
21
-161.8271599999999921
0
LINE
8
BLACK
6
CONTINUOUS
10
643.431814999999915
20
-158.5977529999999831
11
643.3318709999999783
21
-158.597629999999981
0
LINE
8
BLACK
6
CONTINUOUS
10
611.9781060000000252
20
-161.3270379999999875
11
611.9290280000000166
21
-161.3370709999999804
0
LINE
8
BLACK
6
CONTINUOUS
10
621.2509559999999738
20
-159.8183530000000019
11
621.1523829999999862
21
-159.8337709999999845
0
LINE
8
BLACK
6
CONTINUOUS
10
701.8268150000000105
20
-79.5361529999999988
11
701.8532349999999269
21
-79.6306479999999937
0
LINE
8
BLACK
6
CONTINUOUS
10
658.2845780000000104
20
-160.2062209999999993
11
658.1882610000000113
21
-160.1806789999999978
0
LINE
8
BLACK
6
CONTINUOUS
10
646.233887999999979
20
-158.6362409999999841
11
646.1838239999999587
21
-158.6348830000000021
0
LINE
8
BLACK
6
CONTINUOUS
10
649.1850279999999884
20
-158.7722440000000006
11
649.1350929999999835
21
-158.7689199999999801
0
LINE
8
BLACK
6
CONTINUOUS
10
700.7408520000000181
20
-77.5842299999999909
11
700.7754879999999957
21
-77.6235219999999941
0
LINE
8
BLACK
6
CONTINUOUS
10
581.7999149999999418
20
-173.5058310000000006
11
581.8431969999999183
21
-173.5323170000000061
0
LINE
8
BLACK
6
CONTINUOUS
10
673.3498220000000174
20
-164.4993670000000066
11
673.2527659999999514
21
-164.4779609999999934
0
LINE
8
BLACK
6
CONTINUOUS
10
701.2996039999999311
20
-78.3359880000000004
11
701.3259209999999939
21
-78.3803879999999964
0
LINE
8
BLACK
6
CONTINUOUS
10
631.6577829999999949
20
-158.8157679999999914
11
631.5579910000000154
21
-158.8196949999999958
0
LINE
8
BLACK
6
CONTINUOUS
10
613.1602060000000165
20
-161.0977649999999812
11
613.1107959999999366
21
-161.1068759999999997
0
LINE
8
BLACK
6
CONTINUOUS
10
623.0237710000000106
20
-159.5503029999999853
11
622.9252880000000232
21
-159.5645009999999786
0
LINE
8
BLACK
6
CONTINUOUS
10
701.6912049999999681
20
-160.3121319999999912
11
701.6679599999999937
21
-160.3674379999999928
0
LINE
8
BLACK
6
CONTINUOUS
10
615.7914129999999204
20
-160.6543549999999811
11
615.7416180000000168
21
-160.6621629999999925
0
LINE
8
BLACK
6
CONTINUOUS
10
701.9367169999999305
20
-159.6805949999999825
11
701.9151679999999942
21
-159.7397629999999822
0
LINE
8
BLACK
6
CONTINUOUS
10
701.2167439999999488
20
-78.2045959999999951
11
701.2450099999999793
21
-78.2480759999999975
0
LINE
8
BLACK
6
CONTINUOUS
10
661.6384669999999915
20
-161.1821359999999856
11
661.5428889999999456
21
-161.152955999999989
0
LINE
8
BLACK
6
CONTINUOUS
10
582.8757929999999305
20
-174.0535899999999856
11
582.961322999999993
21
-174.0875000000000057
0
LINE
8
BLACK
6
CONTINUOUS
10
617.0866469999999708
20
-160.4559879999999907
11
617.036830000000009
21
-160.4635040000000004
0
LINE
8
BLACK
6
CONTINUOUS
10
658.8616809999999759
20
-160.363158999999996
11
658.7655879999999797
21
-160.3365880000000061
0
LINE
8
BLACK
6
CONTINUOUS
10
612.2728670000000193
20
-161.2676029999999798
11
612.2236940000000232
21
-161.2773859999999786
0
LINE
8
BLACK
6
CONTINUOUS
10
701.3775650000000041
20
-78.4696009999999973
11
701.4028919999999516
21
-78.5144129999999905
0
LINE
8
BLACK
6
CONTINUOUS
10
633.9542490000000043
20
-158.7425839999999937
11
633.8543750000000045
21
-158.7451819999999998
0
LINE
8
BLACK
6
CONTINUOUS
10
586.9733380000000125
20
-173.9908729999999935
11
587.0549720000000207
21
-173.9529349999999965
0
LINE
8
BLACK
6
CONTINUOUS
10
607.3178859999999304
20
-162.5553380000000061
11
607.2244719999999916
21
-162.5871960000000058
0
LINE
8
BLACK
6
CONTINUOUS
10
609.0201929999999493
20
-162.0319790000000069
11
608.9246560000000272
21
-162.0587150000000065
0
LINE
8
BLACK
6
CONTINUOUS
10
622.8268090000000257
20
-159.5788029999999935
11
622.728336000000013
21
-159.5932090000000017
0
LINE
8
BLACK
6
CONTINUOUS
10
608.4485889999999699
20
-162.1963389999999947
11
608.3537089999999807
21
-162.2246779999999831
0
CIRCLE
8
BLACK
10
590.7633650000000216
20
-137.6786979999999971
40
0.8999999999999999
0
LINE
8
BLACK
6
CONTINUOUS
10
644.2818369999999959
20
-158.6019249999999943
11
644.2318119999999908
21
-158.6015050000000031
0
LINE
8
BLACK
6
CONTINUOUS
10
663.5495670000000246
20
-161.7700710000000015
11
663.4540160000000242
21
-161.7405770000000018
0
LINE
8
BLACK
6
CONTINUOUS
10
644.882272999999941
20
-158.6085499999999797
11
644.8322259999999915
21
-158.6078650000000039
0
LINE
8
BLACK
6
CONTINUOUS
10
646.033629000000019
20
-158.6309279999999831
11
645.9835630000000037
21
-158.6296820000000025
0
LINE
8
BLACK
6
CONTINUOUS
10
606.8521269999999959
20
-162.7177649999999858
11
606.7593789999999672
21
-162.7512049999999988
0
LINE
8
BLACK
6
CONTINUOUS
10
656.7379549999999426
20
-159.8226300000000037
11
656.6408470000000079
21
-159.8006419999999821
0
LINE
8
BLACK
6
CONTINUOUS
10
701.9001429999999573
20
-79.819587999999996
11
701.9206669999999804
21
-79.913921000000002
0
LINE
8
BLACK
6
CONTINUOUS
10
700.6699089999999615
20
-77.5070719999999937
11
700.705379999999991
21
-77.5456509999999923
0
CIRCLE
8
BLACK
10
647.7083649999999579
20
-104.4176980000000015
40
0.8999999999999999
0
LINE
8
BLACK
6
CONTINUOUS
10
633.0554260000000113
20
-158.767673000000002
11
632.9555689999999686
21
-158.7707169999999905
0
LINE
8
BLACK
6
CONTINUOUS
10
637.3489419999999654
20
-158.6726599999999792
11
637.2491719999999304
21
-158.674428000000006
0
LINE
8
BLACK
6
CONTINUOUS
10
636.0514499999999316
20
-158.696360999999996
11
635.9516069999999672
21
-158.6982869999999934
0
LINE
8
BLACK
6
CONTINUOUS
10
633.1552889999999252
20
-158.7646819999999934
11
633.0554260000000113
21
-158.767673000000002
0
LINE
8
BLACK
6
CONTINUOUS
10
646.1838239999999587
20
-158.6348830000000021
11
646.1337579999999434
21
-158.633531000000005
0
LINE
8
BLACK
6
CONTINUOUS
10
612.9132909999999583
20
-161.1437219999999968
11
612.863952999999924
21
-161.1530419999999992
0
LINE
8
BLACK
6
CONTINUOUS
10
699.6185970000000225
20
-76.6549809999999923
11
699.6625530000000026
21
-76.6822779999999966
0
LINE
8
BLACK
6
CONTINUOUS
10
658.7655879999999797
20
-160.3365880000000061
11
658.6694589999999607
21
-160.3101779999999792
0
LINE
8
BLACK
6
CONTINUOUS
10
585.4071609999999737
20
-174.4330609999999808
11
585.4903090000000248
21
-174.4229829999999879
0
CIRCLE
8
BLACK
10
683.8083649999999807
20
-126.2276979999999895
40
0.8999999999999999
0
LINE
8
BLACK
6
CONTINUOUS
10
648.5355379999999741
20
-158.7321560000000034
11
648.4855499999999893
21
-158.729344999999995
0
LINE
8
BLACK
6
CONTINUOUS
10
701.4515509999999949
20
-78.6047959999999932
11
701.4748759999999947
21
-78.6503340000000009
0
LINE
8
BLACK
6
CONTINUOUS
10
664.474254999999971
20
-71.0381419999999935
11
647.3092550000000074
21
-68.7681429999999949
0
LINE
8
BLACK
6
CONTINUOUS
10
672.6710180000000037
20
-164.3462769999999864
11
672.5741519999999127
21
-164.3237959999999873
0
CIRCLE
8
BLACK
10
683.3588099999999486
20
-92.3281429999999972
40
0.8999999999999999
0
LINE
8
BLACK
6
CONTINUOUS
10
616.0404419999999845
20
-160.6155949999999848
11
615.9906320000000051
21
-160.6233119999999985
0
LINE
8
BLACK
6
CONTINUOUS
10
702.011735999999928
20
-80.5667199999999895
11
702.0175580000000082
21
-80.6583169999999967
0
LINE
8
BLACK
6
CONTINUOUS
10
612.1745529999999462
20
-161.2872500000000002
11
612.125409999999988
21
-161.2971119999999985
0
LINE
8
BLACK
6
CONTINUOUS
10
636.5505959999999277
20
-158.6870040000000017
11
636.4507750000000215
21
-158.6888459999999839
0
LINE
8
BLACK
6
CONTINUOUS
10
623.4178049999999303
20
-159.4946479999999838
11
623.3192789999999377
21
-159.5083829999999807
0
CIRCLE
8
BLACK
10
647.9750910000000204
20
-71.2781159999999971
40
0.8999999999999999
0
LINE
8
BLACK
6
CONTINUOUS
10
641.3358539999999266
20
-158.6087229999999977
11
641.236163999999917
21
-158.6098399999999913
0
LINE
8
BLACK
6
CONTINUOUS
10
631.1588819999999487
20
-158.8361429999999928
11
631.0591200000000072
21
-158.8404429999999934
0
LINE
8
BLACK
6
CONTINUOUS
10
665.6525009999999156
20
-162.4159760000000006
11
665.5568579999999201
21
-162.386856999999992
0
LINE
8
BLACK
6
CONTINUOUS
10
583.3877919999999904
20
-174.2350500000000011
11
583.4728470000000016
21
-174.2601650000000006
0
LINE
8
BLACK
6
CONTINUOUS
10
672.8648230000000012
20
-164.390781000000004
11
672.7679059999999254
21
-164.3686019999999814
0
LINE
8
BLACK
6
CONTINUOUS
10
614.9950979999999845
20
-160.781218999999993
11
614.9453710000000228
21
-160.7893239999999935
0
LINE
8
BLACK
6
CONTINUOUS
10
656.1544880000000148
20
-159.6944459999999992
11
656.0570519999999988
21
-159.6739479999999958
0
LINE
8
BLACK
6
CONTINUOUS
10
663.1673710000000028
20
-161.6521070000000009
11
663.0718239999999923
21
-161.6226269999999943
0
LINE
8
BLACK
6
CONTINUOUS
10
699.4401719999999614
20
-76.5516930000000002
11
699.4849839999999404
21
-76.5770199999999903
0
LINE
8
BLACK
6
CONTINUOUS
10
647.3851740000000063
20
-158.675801000000007
11
647.335132999999928
21
-158.6737320000000011
0
LINE
8
BLACK
6
CONTINUOUS
10
701.8936199999999417
20
-159.7989309999999819
11
701.8717339999999467
21
-159.857326999999998
0
LINE
8
BLACK
6
CONTINUOUS
10
625.2934999999999945
20
-159.261414000000002
11
625.194580999999971
21
-159.272324999999995
0
LINE
8
BLACK
6
CONTINUOUS
10
583.98150899999996
20
-174.3800430000000006
11
584.0660050000000183
21
-174.3948919999999987
0
LINE
8
BLACK
6
CONTINUOUS
10
620.1160139999999501
20
-159.9963599999999815
11
620.0665890000000218
21
-160.0040869999999984
0
LINE
8
BLACK
6
CONTINUOUS
10
626.1846779999999626
20
-159.1696609999999907
11
626.0855789999999388
21
-159.1792989999999861
0
LINE
8
BLACK
6
CONTINUOUS
10
640.0402910000000247
20
-158.6261859999999899
11
639.9406549999999925
21
-158.6277479999999969
0
LINE
8
BLACK
6
CONTINUOUS
10
669.1985670000000255
20
-163.4556220000000053
11
669.1024830000000065
21
-163.4288319999999999
0
LINE
8
BLACK
6
CONTINUOUS
10
658.1882610000000113
20
-160.1806789999999978
11
658.0919020000000046
21
-160.1553229999999814
0
LINE
8
BLACK
6
CONTINUOUS
10
615.393120999999951
20
-160.7172009999999887
11
615.3433529999999791
21
-160.7251449999999977
0
LINE
8
BLACK
6
CONTINUOUS
10
668.8143259999999373
20
-163.347927999999996
11
668.7183049999999866
21
-163.3207850000000008
0
LINE
8
BLACK
6
CONTINUOUS
10
659.5334719999999606
20
-160.5532240000000002
11
659.4375880000000052
21
-160.525667999999996
0
LINE
8
BLACK
6
CONTINUOUS
10
669.2946699999999964
20
-163.4823159999999973
11
669.1985670000000255
21
-163.4556220000000053
0
LINE
8
BLACK
6
CONTINUOUS
10
622.6298679999999877
20
-159.6077099999999973
11
622.5314009999999598
21
-159.6222999999999956
0
LINE
8
BLACK
6
CONTINUOUS
10
640.438855999999987
20
-158.620205999999996
11
640.3392129999999725
21
-158.6216609999999889
0
LINE
8
BLACK
6
CONTINUOUS
10
583.4728470000000016
20
-174.2601650000000006
11
583.5578219999999874
21
-174.2838069999999959
0
LINE
8
BLACK
6
CONTINUOUS
10
701.8532349999999269
20
-79.6306479999999937
11
701.8776719999999614
21
-79.7251449999999977
0
LINE
8
BLACK
6
CONTINUOUS
10
627.9714619999999741
20
-159.0182369999999992
11
627.872058999999922
21
-159.0256129999999928
0
LINE
8
BLACK
6
CONTINUOUS
10
619.2249399999999468
20
-160.1341759999999965
11
619.1753539999999703
21
-160.1417439999999885
0
LINE
8
BLACK
6
CONTINUOUS
10
641.5352579999999989
20
-158.6066229999999848
11
641.435551999999916
21
-158.6076520000000016
0
LINE
8
BLACK
6
CONTINUOUS
10
649.3847389999999677
20
-158.7858410000000049
11
649.3348209999999199
21
-158.7823649999999986
0
LINE
8
BLACK
6
CONTINUOUS
10
697.7230039999999462
20
-164.1590309999999988
11
697.4592549999999846
21
-164.2081429999999784
0
LINE
8
BLACK
6
CONTINUOUS
10
701.5968649999999798
20
-160.5302659999999833
11
701.5729400000000169
21
-160.5840279999999893
0
LINE
8
BLACK
6
CONTINUOUS
10
623.9106600000000071
20
-159.4279709999999852
11
623.8120539999999892
21
-159.4410259999999937
0
LINE
8
BLACK
6
CONTINUOUS
10
667.1839390000000094
20
-162.8760429999999815
11
667.0881499999999278
21
-162.8476689999999962
0
LINE
8
BLACK
6
CONTINUOUS
10
633.2551489999999603
20
-158.761745999999988
11
633.1552889999999252
21
-158.7646819999999934
0
LINE
8
BLACK
6
CONTINUOUS
10
630.0619809999999461
20
-158.8879289999999855
11
629.9623159999999871
21
-158.8931499999999915
0
LINE
8
BLACK
6
CONTINUOUS
10
648.7854139999999461
20
-158.7468529999999873
11
648.7354460000000245
21
-158.7438290000000052
0
LINE
8
BLACK
6
CONTINUOUS
10
614.249828999999977
20
-160.905052999999981
11
614.2001950000000079
21
-160.9134939999999858
0
LINE
8
BLACK
6
CONTINUOUS
10
629.2649629999999661
20
-158.9323149999999885
11
629.1653860000000122
21
-158.9382970000000057
0
LINE
8
BLACK
6
CONTINUOUS
10
627.2759599999999409
20
-159.0723439999999869
11
627.1766649999999572
21
-159.0805560000000014
0
LINE
8
BLACK
6
CONTINUOUS
10
701.1657050000000027
20
-161.3885860000000037
11
701.1387250000000222
21
-161.4353949999999998
0
LINE
8
BLACK
6
CONTINUOUS
10
583.8122740000000022
20
-174.3459479999999928
11
583.8969299999999976
21
-174.363728999999978
0
LINE
8
BLACK
6
CONTINUOUS
10
640.3392129999999725
20
-158.6216609999999889
11
640.2395709999999553
21
-158.6231369999999856
0
LINE
8
BLACK
6
CONTINUOUS
10
659.9167699999999286
20
-160.6646240000000034
11
659.8209769999999708
21
-160.6366069999999979
0
LINE
8
BLACK
6
CONTINUOUS
10
632.8557149999999183
20
-158.7738129999999899
11
632.7558639999999741
21
-158.7769710000000032
0
LINE
8
BLACK
6
CONTINUOUS
10
701.2450099999999793
20
-78.2480759999999975
11
701.2723069999999552
21
-78.2920319999999919
0
LINE
8
BLACK
6
CONTINUOUS
10
613.5558669999999211
20
-161.0259719999999959
11
613.5063649999999598
21
-161.034813999999983
0
LINE
8
BLACK
6
CONTINUOUS
10
671.9935100000000148
20
-164.1859029999999962
11
671.8968249999999216
21
-164.162429000000003
0
LINE
8
BLACK
6
CONTINUOUS
10
607.1311859999999569
20
-162.6193609999999978
11
607.0380319999999301
21
-162.6518429999999853
0
LINE
8
BLACK
6
CONTINUOUS
10
641.236163999999917
20
-158.6098399999999913
11
641.1364820000000009
21
-158.6110029999999824
0
LINE
8
BLACK
6
CONTINUOUS
10
613.5063649999999598
20
-161.034813999999983
11
613.4568859999999404
21
-161.0437220000000025
0
LINE
8
BLACK
6
CONTINUOUS
10
697.2052189999999428
20
-75.9329109999999901
11
697.2962679999999409
21
-75.9370270000000005
0
LINE
8
BLACK
6
CONTINUOUS
10
657.9955019999999877
20
-160.1301619999999843
11
657.8990579999999682
21
-160.1051919999999882
0
LINE
8
BLACK
6
CONTINUOUS
10
614.7962139999999636
20
-160.8137239999999792
11
614.7465079999999489
21
-160.8219169999999849
0
LINE
8
BLACK
6
CONTINUOUS
10
621.7436020000000099
20
-159.741816
11
621.6450959999999668
21
-159.7570359999999994
0
LINE
8
BLACK
6
CONTINUOUS
10
665.8438059999999723
20
-162.4741019999999878
11
665.7481500000000096
21
-162.4450549999999964
0
LINE
8
BLACK
6
CONTINUOUS
10
698.1349969999999985
20
-76.0544419999999946
11
698.2294399999999541
21
-76.0769129999999905
0
LINE
8
BLACK
6
CONTINUOUS
10
698.7952859999999191
20
-163.7855249999999785
11
698.7168759999999565
21
-163.8235239999999919
0
CIRCLE
8
BLACK
10
595.1496999999999389
20
-153.9881429999999796
40
0.8999999999999999
0
LINE
8
BLACK
6
CONTINUOUS
10
667.0881499999999278
20
-162.8476689999999962
11
666.9923699999999371
21
-162.8192399999999793
0
LINE
8
BLACK
6
CONTINUOUS
10
629.7630179999999882
20
-158.9038699999999835
11
629.6633859999999459
21
-158.9093660000000057
0
LINE
8
BLACK
6
CONTINUOUS
10
607.5989059999999427
20
-162.4616129999999998
11
607.5051069999999527
21
-162.4925509999999917
0
LINE
8
BLACK
6
CONTINUOUS
10
617.4353009999999813
20
-160.4035649999999862
11
617.3854999999999791
21
-160.4110409999999831
0
LINE
8
BLACK
6
CONTINUOUS
10
701.8717339999999467
20
-159.857326999999998
11
701.8498469999999543
21
-159.9157229999999856
0
LINE
8
BLACK
6
CONTINUOUS
10
601.6878110000000106
20
-165.0960440000000062
11
595.9392550000000028
21
-169.1381269999999972
0
LINE
8
BLACK
6
CONTINUOUS
10
700.9174489999999196
20
-161.7975059999999985
11
700.8891099999999597
21
-161.841226000000006
0
LINE
8
BLACK
6
CONTINUOUS
10
628.6676860000000033
20
-158.9697329999999909
11
628.5681849999999713
21
-158.9763339999999801
0
LINE
8
BLACK
6
CONTINUOUS
10
699.7499889999999141
20
-76.7378410000000031
11
699.7934689999999591
21
-76.766106999999991
0
LINE
8
BLACK
6
CONTINUOUS
10
651.9234769999999344
20
-159.0168009999999867
11
651.8242399999999179
21
-159.0055869999999913
0
LINE
8
BLACK
6
CONTINUOUS
10
673.0587399999999434
20
-164.4346809999999834
11
672.9617680000000064
21
-164.4128079999999841
0
LINE
8
BLACK
6
CONTINUOUS
10
585.2406310000000076
20
-174.4488159999999937
11
585.3239370000000008
21
-174.4416689999999903
0
LINE
8
BLACK
6
CONTINUOUS
10
638.4459049999999252
20
-158.6532459999999958
11
638.3462230000000091
21
-158.6550169999999866
0
LINE
8
BLACK
6
CONTINUOUS
10
619.5718369999999595
20
-160.0809600000000046
11
619.5223029999999653
21
-160.0885869999999898
0
LINE
8
BLACK
6
CONTINUOUS
10
701.7983980000000201
20
-79.4417210000000011
11
701.8268150000000105
21
-79.5361529999999988
0
LINE
8
BLACK
6
CONTINUOUS
10
699.2587119999999459
20
-76.4563830000000024
11
699.3042500000000246
21
-76.4797080000000022
0
LINE
8
BLACK
6
CONTINUOUS
10
648.2355769999999211
20
-158.7157169999999837
11
648.1855729999999767
21
-158.7131190000000061
0
LINE
8
BLACK
6
CONTINUOUS
10
643.6317419999999174
20
-158.5982170000000053
11
643.5317709999999352
21
-158.597943999999984
0
LINE
8
BLACK
6
CONTINUOUS
10
608.7338989999999512
20
-162.1129609999999843
11
608.6386850000000095
21
-162.140484999999984
0
LINE
8
BLACK
6
CONTINUOUS
10
620.4617889999999534
20
-159.9421629999999936
11
620.3630329999999731
21
-159.9576629999999966
0
LINE
8
BLACK
6
CONTINUOUS
10
640.8374669999999469
20
-158.6147259999999903
11
640.7378109999999651
21
-158.616043999999988
0
LINE
8
BLACK
6
CONTINUOUS
10
611.2437820000000102
20
-161.4825139999999806
11
611.1461739999999736
21
-161.5040349999999876
0
LINE
8
BLACK
6
CONTINUOUS
10
625.4913980000000038
20
-159.2400329999999826
11
625.3924379999999701
21
-159.2506549999999947
0
LINE
8
BLACK
6
CONTINUOUS
10
652.8151560000000018
20
-159.1263509999999997
11
652.7162149999999201
21
-159.113396999999992
0
LINE
8
BLACK
6
CONTINUOUS
10
639.3428289999999379
20
-158.6375749999999982
11
639.2431859999999233
21
-158.6392769999999928
0
LINE
8
BLACK
6
CONTINUOUS
10
664.474254999999971
20
-71.0381419999999935
11
672.9992549999999483
21
-72.4981429999999989
0
LINE
8
BLACK
6
CONTINUOUS
10
610.4650960000000168
20
-161.6603299999999876
11
610.3681259999999611
21
-161.6834949999999935
0
LINE
8
BLACK
6
CONTINUOUS
10
700.5955379999999195
20
-162.2552409999999838
11
700.53478599999994
21
-162.333408999999989
0
LINE
8
BLACK
6
CONTINUOUS
10
634.2538789999999835
20
-158.7350549999999885
11
634.1540019999999913
21
-158.7375199999999893
0
LINE
8
BLACK
6
CONTINUOUS
10
666.0351439999999457
20
-162.5320789999999818
11
665.9394740000000183
21
-162.5031119999999873
0
LINE
8
BLACK
6
CONTINUOUS
10
659.6293329999999742
20
-160.5809030000000064
11
659.5334719999999606
21
-160.5532240000000002
0
LINE
8
BLACK
6
CONTINUOUS
10
583.6427189999999428
20
-174.3059859999999901
11
583.7275349999999889
21
-174.3267009999999857
0
LINE
8
BLACK
6
CONTINUOUS
10
701.3259209999999939
20
-78.3803879999999964
11
701.352237999999943
21
-78.4247889999999899
0
LINE
8
BLACK
6
CONTINUOUS
10
640.7378109999999651
20
-158.616043999999988
11
640.6381549999999834
21
-158.617401000000001
0
LINE
8
BLACK
6
CONTINUOUS
10
651.5263499999999794
20
-158.973056999999983
11
651.4269949999999199
21
-158.9625759999999843
0
LINE
8
BLACK
6
CONTINUOUS
10
650.0332949999999528
20
-158.8343189999999936
11
649.9834339999999884
21
-158.8303709999999853
0
LINE
8
BLACK
6
CONTINUOUS
10
644.0817599999999175
20
-158.6004159999999956
11
644.0317459999999983
21
-158.6000819999999862
0
LINE
8
BLACK
6
CONTINUOUS
10
660.9693169999999327
20
-160.978621000000004
11
660.8736979999999903
21
-160.9497179999999901
0
LINE
8
BLACK
6
CONTINUOUS
10
673.4469050000000152
20
-164.5206119999999999
11
673.3498220000000174
21
-164.4993670000000066
0
LINE
8
BLACK
6
CONTINUOUS
10
652.4191879999999628
20
-159.0757209999999873
11
652.3201080000000047
21
-159.0635539999999821
0
LINE
8
BLACK
6
CONTINUOUS
10
700.1711789999999382
20
-77.043998000000002
11
700.2118150000000014
21
-77.0769009999999923
0
LINE
8
BLACK
6
CONTINUOUS
10
699.8899189999999635
20
-163.0301240000000007
11
699.8216979999999694
21
-163.0912979999999948
0
LINE
8
BLACK
6
CONTINUOUS
10
672.9992549999999483
20
-72.4981429999999989
11
697.2052189999999428
21
-75.9329109999999901
0
LINE
8
BLACK
6
CONTINUOUS
10
701.4502639999999474
20
-160.8458809999999914
11
701.4253209999999399
21
-160.8973239999999976
0
LINE
8
BLACK
6
CONTINUOUS
10
581.8864419999999882
20
-173.5580679999999916
11
581.9296849999999495
21
-173.5838229999999953
0
LINE
8
BLACK
6
CONTINUOUS
10
635.6520570000000134
20
-158.7041839999999979
11
635.5521999999999707
21
-158.7061960000000056
0
LINE
8
BLACK
6
CONTINUOUS
10
635.8517610000000104
20
-158.7002289999999789
11
635.7519089999999551
21
-158.702194999999989
0
LINE
8
BLACK
6
CONTINUOUS
10
582.7044879999999694
20
-173.9813729999999907
11
582.7901789999999664
21
-174.0182149999999979
0
LINE
8
BLACK
6
CONTINUOUS
10
657.1258189999999786
20
-159.9130999999999858
11
657.0289349999999331
21
-159.8901109999999903
0
LINE
8
BLACK
6
CONTINUOUS
10
611.537042999999926
20
-161.4190820000000031
11
611.488130999999953
21
-161.4295599999999808
0
LINE
8
BLACK
6
CONTINUOUS
10
635.0528789999999617
20
-158.7166540000000055
11
634.9530059999999594
21
-158.7188359999999818
0
LINE
8
BLACK
6
CONTINUOUS
10
663.6451190000000224
20
-161.7995599999999854
11
663.5495670000000246
21
-161.7700710000000015
0
LINE
8
BLACK
6
CONTINUOUS
10
639.2431859999999233
20
-158.6392769999999928
11
639.1435420000000249
21
-158.6409869999999955
0
LINE
8
BLACK
6
CONTINUOUS
10
627.6732959999999366
20
-159.0407139999999799
11
627.5739379999999983
21
-159.0484409999999968
0
LINE
8
BLACK
6
CONTINUOUS
10
699.6832170000000133
20
-163.2090129999999988
11
699.6129579999999351
21
-163.2655519999999854
0
LINE
8
BLACK
6
CONTINUOUS
10
648.9852519999999458
20
-158.7592510000000061
11
648.9352999999999838
21
-158.7560809999999947
0
LINE
8
BLACK
6
CONTINUOUS
10
700.9737880000000132
20
-161.7092949999999973
11
700.9457879999999932
21
-161.7537879999999859
0
LINE
8
BLACK
6
CONTINUOUS
10
605.657511999999997
20
-163.1787369999999839
11
605.5666559999999663
21
-163.2166339999999991
0
LINE
8
BLACK
6
CONTINUOUS
10
645.6831770000000006
20
-158.6226920000000007
11
645.6331139999999778
21
-158.6216049999999882
0
LINE
8
BLACK
6
CONTINUOUS
10
667.7589239999999791
20
-163.0449590000000057
11
667.6630619999999681
21
-163.0169689999999889
0
LINE
8
BLACK
6
CONTINUOUS
10
670.6420349999999644
20
-163.8454629999999952
11
670.5456679999999778
21
-163.820225999999991
0
LINE
8
BLACK
6
CONTINUOUS
10
701.4748759999999947
20
-78.6503340000000009
11
701.498201999999992
21
-78.6958729999999917
0
LINE
8
BLACK
6
CONTINUOUS
10
619.3240979999999354
20
-160.1190200000000061
11
619.2745310000000245
21
-160.1266069999999786
0
LINE
8
BLACK
6
CONTINUOUS
10
668.4303380000000061
20
-163.2388569999999959
11
668.3343800000000101
21
-163.2113879999999995
0
LINE
8
BLACK
6
CONTINUOUS
10
658.6694589999999607
20
-160.3101779999999792
11
658.5732959999999139
21
-160.2839309999999955
0
LINE
8
BLACK
6
CONTINUOUS
10
662.4985289999999623
20
-161.4459469999999897
11
662.4029769999999644
21
-161.4165500000000009
0
LINE
8
BLACK
6
CONTINUOUS
10
628.8667279999999664
20
-158.9568490000000054
11
628.7671980000000076
21
-158.9632389999999873
0
LINE
8
BLACK
6
CONTINUOUS
10
648.0355449999999564
20
-158.7054499999999848
11
647.9855279999999311
21
-158.7029859999999815
0
LINE
8
BLACK
6
CONTINUOUS
10
701.957922999999937
20
-159.6206540000000018
11
701.9367169999999305
21
-159.6805949999999825
0
LINE
8
BLACK
6
CONTINUOUS
10
582.1886680000000069
20
-173.7295330000000035
11
582.2748369999999341
21
-173.7751729999999952
0
LINE
8
BLACK
6
CONTINUOUS
10
660.4911069999999427
20
-160.8347379999999873
11
660.3954259999999294
21
-160.8061679999999853
0
LINE
8
BLACK
6
CONTINUOUS
10
657.7060369999999239
20
-160.0558659999999804
11
657.6094590000000153
21
-160.0315169999999796
0
LINE
8
BLACK
6
CONTINUOUS
10
652.9140579999999545
20
-159.1395039999999881
11
652.8151560000000018
21
-159.1263509999999997
0
LINE
8
BLACK
6
CONTINUOUS
10
619.1753539999999703
20
-160.1417439999999885
11
619.1257459999999355
21
-160.1492959999999925
0
LINE
8
BLACK
6
CONTINUOUS
10
619.6213490000000093
20
-160.0733060000000023
11
619.5718369999999595
21
-160.0809600000000046
0
CIRCLE
8
BLACK
10
683.1683649999999943
20
-109.4376979999999975
40
0.8999999999999999
0
LINE
8
BLACK
6
CONTINUOUS
10
699.7934689999999591
20
-76.766106999999991
11
699.83644199999992
21
-76.7953299999999928
0
LINE
8
BLACK
6
CONTINUOUS
10
647.6853919999999789
20
-158.6888040000000046
11
647.6353619999999864
21
-158.686538999999982
0
LINE
8
BLACK
6
CONTINUOUS
10
664.9831419999999298
20
-162.2115049999999883
11
664.8875429999999369
21
-162.182185000000004
0
LINE
8
BLACK
6
CONTINUOUS
10
584.0660050000000183
20
-174.3948919999999987
11
584.1504239999999299
21
-174.4082740000000058
0
LINE
8
BLACK
6
CONTINUOUS
10
612.076298999999949
20
-161.3070599999999786
11
612.0271870000000263
21
-161.3170059999999921
0
LINE
8
BLACK
6
CONTINUOUS
10
615.5424570000000131
20
-160.6935139999999933
11
615.4926729999999679
21
-160.7013869999999827
0
LINE
8
BLACK
6
CONTINUOUS
10
625.9864999999999782
20
-159.1890740000000051
11
625.8874379999999746
21
-159.1989829999999984
0
LINE
8
BLACK
6
CONTINUOUS
10
700.411247000000003
20
-162.4851119999999867
11
700.3484579999999369
21
-162.5586459999999818
0
LINE
8
BLACK
6
CONTINUOUS
10
656.5436879999999746
20
-159.778901999999988
11
656.4464669999999842
21
-159.7574160000000063
0
LINE
8
BLACK
6
CONTINUOUS
10
667.9506860000000188
20
-163.1007270000000062
11
667.8547989999999572
21
-163.0728780000000029
0
LINE
8
BLACK
6
CONTINUOUS
10
701.2452869999999621
20
-161.2450709999999958
11
701.2189859999999726
21
-161.29342299999999
0
LINE
8
BLACK
6
CONTINUOUS
10
654.294685999999956
20
-159.3453939999999989
11
654.1963359999999739
21
-159.3293009999999867
0
LINE
8
BLACK
6
CONTINUOUS
10
647.5352930000000242
20
-158.6821410000000014
11
647.4852549999999383
21
-158.6800079999999866
0
LINE
8
BLACK
6
CONTINUOUS
10
583.5578219999999874
20
-174.2838069999999959
11
583.6427189999999428
21
-174.3059859999999901
0
LINE
8
BLACK
6
CONTINUOUS
10
584.7391289999999344
20
-174.4608949999999936
11
584.8229119999999739
21
-174.4625460000000032
0
LINE
8
BLACK
6
CONTINUOUS
10
584.4873049999999921
20
-174.4471389999999928
11
584.5713250000000016
21
-174.453189999999978
0
LINE
8
BLACK
6
CONTINUOUS
10
617.1862719999999172
20
-160.4409839999999861
11
617.1364599999999427
21
-160.4484879999999976
0
LINE
8
BLACK
6
CONTINUOUS
10
642.1336860000000115
20
-158.6015050000000031
11
642.0339199999999664
21
-158.6022240000000068
0
LINE
8
BLACK
6
CONTINUOUS
10
700.1305429999999888
20
-77.0110949999999974
11
700.1711789999999382
21
-77.043998000000002
0
LINE
8
BLACK
6
CONTINUOUS
10
668.0465909999999212
20
-163.1285069999999848
11
667.9506860000000188
21
-163.1007270000000062
0
LINE
8
BLACK
6
CONTINUOUS
10
648.6354989999999816
20
-158.7379190000000051
11
648.5855179999999791
21
-158.7350349999999821
0
LINE
8
BLACK
6
CONTINUOUS
10
653.5067080000000033
20
-159.2227039999999931
11
653.4080289999999422
21
-159.2083209999999838
0
LINE
8
BLACK
6
CONTINUOUS
10
699.6129579999999351
20
-163.2655519999999854
11
699.542018999999982
21
-163.3205459999999789
0
LINE
8
BLACK
6
CONTINUOUS
10
649.4845689999999649
20
-158.792870999999991
11
649.4346580000000131
21
-158.7893190000000061
0
LINE
8
BLACK
6
CONTINUOUS
10
619.2745310000000245
20
-160.1266069999999786
11
619.2249399999999468
21
-160.1341759999999965
0
LINE
8
BLACK
6
CONTINUOUS
10
661.0649270000000115
20
-161.007569999999987
11
660.9693169999999327
21
-160.978621000000004
0
LINE
8
BLACK
6
CONTINUOUS
10
611.9290280000000166
20
-161.3370709999999804
11
611.8799799999999323
21
-161.3471899999999835
0
LINE
8
BLACK
6
CONTINUOUS
10
657.8990579999999682
20
-160.1051919999999882
11
657.8025709999999435
21
-160.0804259999999886
0
LINE
8
BLACK
6
CONTINUOUS
10
586.8916239999999789
20
-174.0273379999999861
11
586.9733380000000125
21
-173.9908729999999935
0
LINE
8
BLACK
6
CONTINUOUS
10
608.0697619999999688
20
-162.3113679999999874
11
607.9753479999999399
21
-162.3408330000000035
0
LINE
8
BLACK
6
CONTINUOUS
10
699.0264359999999897
20
-163.6622519999999952
11
698.9500639999999976
21
-163.7048889999999801
0
LINE
8
BLACK
6
CONTINUOUS
10
672.3805009999999811
20
-164.2784049999999922
11
672.2837170000000242
21
-164.2554910000000064
0
LINE
8
BLACK
6
CONTINUOUS
10
638.3462230000000091
20
-158.6550169999999866
11
638.2465310000000045
21
-158.6567890000000034
0
LINE
8
BLACK
6
CONTINUOUS
10
619.8193229999999403
20
-160.0426249999999868
11
619.769849000000022
21
-160.050311999999991
0
LINE
8
BLACK
6
CONTINUOUS
10
644.1817919999999731
20
-158.6011259999999936
11
644.1317749999999478
21
-158.6007510000000025
0
LINE
8
BLACK
6
CONTINUOUS
10
699.3981059999999843
20
-163.4259019999999794
11
699.3251289999999472
21
-163.4762619999999913
0
LINE
8
BLACK
6
CONTINUOUS
10
665.0787470000000212
20
-162.2407999999999788
11
664.9831419999999298
21
-162.2115049999999883
0
LINE
8
BLACK
6
CONTINUOUS
10
624.9968089999999847
20
-159.2945880000000045
11
624.897954000000027
21
-159.3059419999999875
0
LINE
8
BLACK
6
CONTINUOUS
10
641.435551999999916
20
-158.6076520000000016
11
641.3358539999999266
21
-158.6087229999999977
0
LINE
8
BLACK
6
CONTINUOUS
10
586.0701040000000148
20
-174.3113869999999963
11
586.1526149999999689
21
-174.2895809999999983
0
LINE
8
BLACK
6
CONTINUOUS
10
619.0761410000000069
20
-160.1568469999999991
11
619.02651800000001
21
-160.1643829999999866
0
LINE
8
BLACK
6
CONTINUOUS
10
632.057015999999976
20
-158.8007499999999936
11
631.9571979999999485
21
-158.8044019999999819
0
LINE
8
BLACK
6
CONTINUOUS
10
586.8098299999999199
20
-174.0623410000000035
11
586.8916239999999789
21
-174.0273379999999861
0
LINE
8
BLACK
6
CONTINUOUS
10
672.9617680000000064
20
-164.4128079999999841
11
672.8648230000000012
21
-164.390781000000004
0
LINE
8
BLACK
6
CONTINUOUS
10
618.8776159999999891
20
-160.1869619999999941
11
618.8279629999999543
21
-160.1944680000000005
0
LINE
8
BLACK
6
CONTINUOUS
10
644.9823699999999462
20
-158.6099779999999839
11
644.9323190000000068
21
-158.6092399999999998
0
LINE
8
BLACK
6
CONTINUOUS
10
700.3310629999999719
20
-77.1790969999999987
11
700.3703550000000178
21
-77.2137329999999906
0
LINE
8
BLACK
6
CONTINUOUS
10
606.574294000000009
20
-162.8190679999999873
11
606.4819629999999506
21
-162.8535009999999943
0
LINE
8
BLACK
6
CONTINUOUS
10
647.785445999999979
20
-158.693398000000002
11
647.7354209999999739
21
-158.6910689999999988
0
LINE
8
BLACK
6
CONTINUOUS
10
701.7828269999999975
20
-160.0878189999999961
11
701.7602610000000141
21
-160.1446699999999908
0
LINE
8
BLACK
6
CONTINUOUS
10
618.2316139999999223
20
-160.2842229999999972
11
618.1818819999999732
21
-160.2916830000000061
0
LINE
8
BLACK
6
CONTINUOUS
10
613.0120180000000119
20
-161.1252269999999953
11
612.962654999999927
21
-161.1344749999999806
0
LINE
8
BLACK
6
CONTINUOUS
10
650.282510000000002
20
-158.8548040000000015
11
650.2326809999999568
21
-158.8506089999999915
0
LINE
8
BLACK
6
CONTINUOUS
10
644.7321359999999686
20
-158.6065769999999873
11
644.6820960000000014
21
-158.6059819999999831
0
LINE
8
BLACK
6
CONTINUOUS
10
645.9835630000000037
20
-158.6296820000000025
11
645.933497999999986
21
-158.628436999999991
0
LINE
8
BLACK
6
CONTINUOUS
10
661.2561279999999897
20
-161.0656109999999899
11
661.1605309999999918
21
-161.0365689999999859
0
LINE
8
BLACK
6
CONTINUOUS
10
616.6382679999999255
20
-160.5238650000000007
11
616.5884459999999763
21
-160.5314459999999883
0
LINE
8
BLACK
6
CONTINUOUS
10
645.382808999999952
20
-158.6166409999999871
11
645.3327509999999165
21
-158.6157110000000046
0
LINE
8
BLACK
6
CONTINUOUS
10
635.5521999999999707
20
-158.7061960000000056
11
635.4523399999999356
21
-158.7082340000000045
0
LINE
8
BLACK
6
CONTINUOUS
10
699.9642830000000231
20
-76.884886999999992
11
700.0061469999999417
21
-76.9159819999999996
0
LINE
8
BLACK
6
CONTINUOUS
10
649.1350929999999835
20
-158.7689199999999801
11
649.0851490000000013
21
-158.7656729999999925
0
LINE
8
BLACK
6
CONTINUOUS
10
583.0467770000000201
20
-174.119940999999983
11
583.1321480000000292
21
-174.1509179999999901
0
LINE
8
BLACK
6
CONTINUOUS
10
654.4912560000000212
20
-159.3782429999999977
11
654.3929939999999306
21
-159.3617059999999981
0
LINE
8
BLACK
6
CONTINUOUS
10
610.5621499999999742
20
-161.6373769999999865
11
610.4650960000000168
21
-161.6603299999999876
0
LINE
8
BLACK
6
CONTINUOUS
10
582.6187149999999519
20
-173.9430659999999875
11
582.7044879999999694
21
-173.9813729999999907
0
LINE
8
BLACK
6
CONTINUOUS
10
656.0570519999999988
20
-159.6739479999999958
11
655.9595649999999978
21
-159.6536920000000066
0
LINE
8
BLACK
6
CONTINUOUS
10
611.6839209999999412
20
-161.3880159999999933
11
611.6349389999999175
21
-161.3983089999999834
0
LINE
8
BLACK
6
CONTINUOUS
10
630.2613359999999147
20
-158.8777509999999893
11
630.1616539999999986
21
-158.8827949999999873
0
LINE
8
BLACK
6
CONTINUOUS
10
629.8626620000000003
20
-158.8984609999999975
11
629.7630179999999882
21
-158.9038699999999835
0
LINE
8
BLACK
6
CONTINUOUS
10
646.9847929999999678
20
-158.6602399999999875
11
646.9347379999999248
21
-158.6584210000000041
0
LINE
8
BLACK
6
CONTINUOUS
10
642.2334599999999227
20
-158.6008359999999868
11
642.1336860000000115
21
-158.6015050000000031
0
LINE
8
BLACK
6
CONTINUOUS
10
617.6842589999999973
20
-160.366232999999994
11
617.6344729999999572
21
-160.3736959999999954
0
LINE
8
BLACK
6
CONTINUOUS
10
671.8968249999999216
20
-164.162429000000003
11
671.8001639999999952
21
-164.1388239999999996
0
LINE
8
BLACK
6
CONTINUOUS
10
629.6633859999999459
20
-158.9093660000000057
11
629.5637639999999919
21
-158.9149569999999869
0
LINE
8
BLACK
6
CONTINUOUS
10
649.6841739999999845
20
-158.8073949999999854
11
649.6342819999999847
21
-158.803685999999999
0
LINE
8
BLACK
6
CONTINUOUS
10
650.3323409999999285
20
-158.858998999999983
11
650.282510000000002
21
-158.8548040000000015
0
LINE
8
BLACK
6
CONTINUOUS
10
652.2210019999999986
20
-159.0515769999999804
11
652.1218579999999747
21
-159.0397940000000006
0
LINE
8
BLACK
6
CONTINUOUS
10
617.9828880000000026
20
-160.3214999999999861
11
617.9331220000000258
21
-160.3289549999999792
0
LINE
8
BLACK
6
CONTINUOUS
10
607.9753479999999399
20
-162.3408330000000035
11
607.8810539999999492
21
-162.3705879999999979
0
LINE
8
BLACK
6
CONTINUOUS
10
645.933497999999986
20
-158.628436999999991
11
645.8834319999999707
21
-158.6272459999999853
0
LINE
8
BLACK
6
CONTINUOUS
10
618.8279629999999543
20
-160.1944680000000005
11
618.7783079999999245
21
-160.2019760000000019
0
LINE
8
BLACK
6
CONTINUOUS
10
621.4480539999999564
20
-159.7876179999999806
11
621.3495120000000043
21
-159.8029699999999877
0
LINE
8
BLACK
6
CONTINUOUS
10
665.2699709999999413
20
-162.2993089999999938
11
665.1743569999999863
21
-162.2700669999999832
0
LINE
8
BLACK
6
CONTINUOUS
10
612.4696719999999459
20
-161.2287959999999885
11
612.4204409999999825
21
-161.2384169999999983
0
LINE
8
BLACK
6
CONTINUOUS
10
637.1493939999999156
20
-158.6761999999999944
11
637.0496069999999236
21
-158.6779809999999884
0
LINE
8
BLACK
6
CONTINUOUS
10
582.5328650000000152
20
-173.9032899999999984
11
582.6187149999999519
21
-173.9430659999999875
0
LINE
8
BLACK
6
CONTINUOUS
10
658.477092999999968
20
-160.257852999999983
11
658.3808549999999968
21
-160.231948999999986
0
LINE
8
BLACK
6
CONTINUOUS
10
613.8034940000000006
20
-160.9821139999999957
11
613.753955000000019
21
-160.9908340000000067
0
LINE
8
BLACK
6
CONTINUOUS
10
621.1523829999999862
20
-159.8337709999999845
11
621.0537909999999329
21
-159.8492149999999867
0
LINE
8
BLACK
6
CONTINUOUS
10
632.5561709999999493
20
-158.783457999999996
11
632.4563299999999799
21
-158.7867899999999963
0
LINE
8
BLACK
6
CONTINUOUS
10
582.2748369999999341
20
-173.7751729999999952
11
582.3609259999999495
21
-173.819344000000001
0
LINE
8
BLACK
6
CONTINUOUS
10
698.3146489999999176
20
-163.9903529999999989
11
698.2321660000000065
21
-164.0190839999999923
0
LINE
8
BLACK
6
CONTINUOUS
10
627.872058999999922
20
-159.0256129999999928
11
627.7726719999999432
21
-159.0331089999999961
0
LINE
8
BLACK
6
CONTINUOUS
10
644.8322259999999915
20
-158.6078650000000039
11
644.7821819999999207
21
-158.6072199999999839
0
LINE
8
BLACK
6
CONTINUOUS
10
628.7671980000000076
20
-158.9632389999999873
11
628.6676860000000033
21
-158.9697329999999909
0
LINE
8
BLACK
6
CONTINUOUS
10
616.9870129999999335
20
-160.4710189999999841
11
616.9371919999999818
21
-160.4785469999999918
0
LINE
8
BLACK
6
CONTINUOUS
10
636.9498169999999391
20
-158.6797669999999982
11
636.8500219999999672
21
-158.6815609999999879
0
LINE
8
BLACK
6
CONTINUOUS
10
674.3219779999999446
20
-164.7043879999999945
11
674.2246269999999413
21
-164.684646999999984
0
LINE
8
BLACK
6
CONTINUOUS
10
634.8531329999999571
20
-158.7210450000000037
11
634.7532579999999598
21
-158.7232899999999916
0
LINE
8
BLACK
6
CONTINUOUS
10
643.9317270000000235
20
-158.5994949999999903
11
643.8817239999999629
21
-158.5992420000000038
0
LINE
8
BLACK
6
CONTINUOUS
10
608.8292219999999588
20
-162.0857069999999851
11
608.7338989999999512
21
-162.1129609999999843
0
LINE
8
BLACK
6
CONTINUOUS
10
586.7279559999999492
20
-174.095877999999999
11
586.8098299999999199
21
-174.0623410000000035
0
LINE
8
BLACK
6
CONTINUOUS
10
650.8302899999999909
20
-158.9034739999999886
11
650.7307489999999461
21
-158.8942370000000039
0
LINE
8
BLACK
6
CONTINUOUS
10
701.718291000000022
20
-79.2063399999999973
11
701.7355269999999337
21
-79.2532819999999987
0
LINE
8
BLACK
6
CONTINUOUS
10
667.4713759999999638
20
-162.9607900000000029
11
667.3755519999999706
21
-162.9326030000000003
0
LINE
8
BLACK
6
CONTINUOUS
10
700.473355999999967
20
-162.4100320000000011
11
700.411247000000003
21
-162.4851119999999867
0
LINE
8
BLACK
6
CONTINUOUS
10
635.7519089999999551
20
-158.702194999999989
11
635.6520570000000134
21
-158.7041839999999979
0
LINE
8
BLACK
6
CONTINUOUS
10
613.4074049999999261
20
-161.0526339999999834
11
613.3579469999999674
21
-161.0616039999999884
0
LINE
8
BLACK
6
CONTINUOUS
10
630.8596269999999322
20
-158.8492779999999982
11
630.759890999999925
21
-158.8538159999999948
0
LINE
8
BLACK
6
CONTINUOUS
10
636.8500219999999672
20
-158.6815609999999879
11
636.750218000000018
21
-158.6833660000000066
0
LINE
8
BLACK
6
CONTINUOUS
10
666.4179219999999759
20
-162.6475259999999992
11
666.3222119999999222
21
-162.6187319999999943
0
LINE
8
BLACK
6
CONTINUOUS
10
666.7051000000000158
20
-162.7336190000000045
11
666.6093639999999141
21
-162.7049669999999821
0
LINE
8
BLACK
6
CONTINUOUS
10
634.9530059999999594
20
-158.7188359999999818
11
634.8531329999999571
21
-158.7210450000000037
0
LINE
8
BLACK
6
CONTINUOUS
10
610.9511850000000095
20
-161.5476709999999798
11
610.8538059999999632
21
-161.5697889999999859
0
LINE
8
BLACK
6
CONTINUOUS
10
645.4829300000000103
20
-158.6185559999999839
11
645.4328689999999824
21
-158.6175739999999905
0
LINE
8
BLACK
6
CONTINUOUS
10
654.6876479999999674
20
-159.4119739999999865
11
654.5894759999999906
21
-159.394993999999997
0
LINE
8
BLACK
6
CONTINUOUS
10
657.0289349999999331
20
-159.8901109999999903
11
656.9319990000000189
21
-159.867367999999999
0
LINE
8
BLACK
6
CONTINUOUS
10
701.9791329999999334
20
-159.5607139999999902
11
701.957922999999937
21
-159.6206540000000018
0
LINE
8
BLACK
6
CONTINUOUS
10
612.5681599999999207
20
-161.2096300000000042
11
612.518903000000023
21
-161.2191749999999786
0
LINE
8
BLACK
6
CONTINUOUS
10
644.431917999999996
20
-158.6032679999999857
11
644.3818899999999985
21
-158.6028069999999843
0
LINE
8
BLACK
6
CONTINUOUS
10
640.5385029999999915
20
-158.6187850000000026
11
640.438855999999987
21
-158.620205999999996
0
LINE
8
BLACK
6
CONTINUOUS
10
614.5477489999999534
20
-160.8548769999999877
11
614.4980749999999716
21
-160.8631649999999809
0
LINE
8
BLACK
6
CONTINUOUS
10
668.2384359999999788
20
-163.1838339999999903
11
668.1425049999999146
21
-163.1562069999999949
0
LINE
8
BLACK
6
CONTINUOUS
10
643.9817359999999553
20
-158.599790999999982
11
643.9317270000000235
21
-158.5994949999999903
0
LINE
8
BLACK
6
CONTINUOUS
10
670.0641329999999698
20
-163.6923620000000028
11
669.9678840000000264
21
-163.6664619999999957
0
LINE
8
BLACK
6
CONTINUOUS
10
697.8525499999999511
20
-75.9986310000000032
11
697.9464980000000196
21
-76.0153219999999976
0
LINE
8
BLACK
6
CONTINUOUS
10
645.532989999999927
20
-158.6195390000000032
11
645.4829300000000103
21
-158.6185559999999839
0
LINE
8
BLACK
6
CONTINUOUS
10
663.0718239999999923
20
-161.6226269999999943
11
662.9762749999999869
21
-161.5931530000000009
0
LINE
8
BLACK
6
CONTINUOUS
10
669.7754469999999856
20
-163.6143490000000043
11
669.6792550000000119
21
-163.5881430000000023
0
LINE
8
BLACK
6
CONTINUOUS
10
613.4568859999999404
20
-161.0437220000000025
11
613.4074049999999261
21
-161.0526339999999834
0
LINE
8
BLACK
6
CONTINUOUS
10
700.2517930000000206
20
-77.1106809999999996
11
700.2917709999999261
21
-77.1444609999999926
0
LINE
8
BLACK
6
CONTINUOUS
10
615.9408230000000231
20
-160.6310579999999959
11
615.8910169999999198
21
-160.6388079999999832
0
LINE
8
BLACK
6
CONTINUOUS
10
583.2174420000000055
20
-174.1804290000000037
11
583.3026569999999538
21
-174.2084739999999954
0
CIRCLE
8
BLACK
10
590.7188099999999622
20
-113.8681429999999892
40
0.8999999999999999
0
LINE
8
BLACK
6
CONTINUOUS
10
701.8053949999999759
20
-160.030967000000004
11
701.7828269999999975
21
-160.0878189999999961
0
LINE
8
BLACK
6
CONTINUOUS
10
582.1024199999999382
20
-173.6824289999999849
11
582.1886680000000069
21
-173.7295330000000035
0
LINE
8
BLACK
6
CONTINUOUS
10
663.9317869999999857
20
-161.8880169999999907
11
663.8840079999999944
21
-161.8732789999999966
0
LINE
8
BLACK
6
CONTINUOUS
10
620.7578939999999648
20
-159.8956489999999917
11
620.6592180000000099
21
-159.9111489999999947
0
LINE
8
BLACK
6
CONTINUOUS
10
640.1399279999999408
20
-158.6246490000000051
11
640.0402910000000247
21
-158.6261859999999899
0
LINE
8
BLACK
6
CONTINUOUS
10
665.7481500000000096
20
-162.4450549999999964
11
665.6525009999999156
21
-162.4159760000000006
0
LINE
8
BLACK
6
CONTINUOUS
10
609.5955759999999373
20
-161.8768979999999829
11
609.4994299999999612
21
-161.9021290000000022
0
LINE
8
BLACK
6
CONTINUOUS
10
700.8776839999999311
20
-77.742769999999993
11
700.9105869999999641
21
-77.7834059999999994
0
LINE
8
BLACK
6
CONTINUOUS
10
616.090253999999959
20
-160.6078760000000045
11
616.0404419999999845
21
-160.6155949999999848
0
LINE
8
BLACK
6
CONTINUOUS
10
646.5843300000000227
20
-158.6466289999999901
11
646.5342699999999923
21
-158.6450480000000027
0
LINE
8
BLACK
6
CONTINUOUS
10
649.783945000000017
20
-158.8148960000000045
11
649.7340639999999894
21
-158.8111079999999902
0
LINE
8
BLACK
6
CONTINUOUS
10
620.1654350000000022
20
-159.9886269999999797
11
620.1160139999999501
21
-159.9963599999999815
0
LINE
8
BLACK
6
CONTINUOUS
10
642.9322449999999662
20
-158.5978700000000003
11
642.8323769999999513
21
-158.5980989999999906
0
LINE
8
BLACK
6
CONTINUOUS
10
701.5428339999999707
20
-78.7875789999999938
11
701.5641359999999622
21
-78.8337140000000005
0
LINE
8
BLACK
6
CONTINUOUS
10
665.4612230000000181
20
-162.3577049999999815
11
665.3655939999999873
21
-162.3285239999999874
0
LINE
8
BLACK
6
CONTINUOUS
10
700.9434899999999971
20
-77.8240419999999915
11
700.975498000000016
21
-77.8653070000000014
0
LINE
8
BLACK
6
CONTINUOUS
10
701.4253209999999399
20
-160.8973239999999976
11
701.400037999999995
21
-160.9479969999999867
0
LINE
8
BLACK
6
CONTINUOUS
10
618.1818819999999732
20
-160.2916830000000061
11
618.1321399999999358
21
-160.2991350000000068
0
LINE
8
BLACK
6
CONTINUOUS
10
634.1540019999999913
20
-158.7375199999999893
11
634.0541249999999991
21
-158.7400329999999826
0
LINE
8
BLACK
6
CONTINUOUS
10
638.1468330000000151
20
-158.6585619999999892
11
638.0471249999999372
21
-158.6603289999999902
0
LINE
8
BLACK
6
CONTINUOUS
10
673.7383290000000216
20
-164.583377999999982
11
673.6411580000000185
21
-164.5626179999999863
0
LINE
8
BLACK
6
CONTINUOUS
10
701.0017859999999246
20
-161.6648030000000063
11
700.9737880000000132
21
-161.7092949999999973
0
LINE
8
BLACK
6
CONTINUOUS
10
585.5733749999999418
20
-174.4114390000000014
11
585.6563619999999446
21
-174.3984279999999956
0
LINE
8
BLACK
6
CONTINUOUS
10
585.4903090000000248
20
-174.4229829999999879
11
585.5733749999999418
21
-174.4114390000000014
0
LINE
8
BLACK
6
CONTINUOUS
10
606.1140649999999823
20
-162.9945819999999799
11
606.0224539999999251
21
-163.0307099999999991
0
LINE
8
BLACK
6
CONTINUOUS
10
641.8344260000000077
20
-158.6038299999999879
11
641.7346949999999879
21
-158.6047120000000064
0
LINE
8
BLACK
6
CONTINUOUS
10
584.6552699999999732
20
-174.457776999999993
11
584.7391289999999344
21
-174.4608949999999936
0
LINE
8
BLACK
6
CONTINUOUS
10
631.4582019999999147
20
-158.8236979999999789
11
631.3584220000000187
21
-158.8277709999999843
0
LINE
8
BLACK
6
CONTINUOUS
10
616.737912999999935
20
-160.5087269999999933
11
616.6880909999999858
21
-160.5162859999999796
0
LINE
8
BLACK
6
CONTINUOUS
10
699.0283499999999322
20
-76.3488589999999903
11
699.0747349999999187
21
-76.3691460000000006
0
LINE
8
BLACK
6
CONTINUOUS
10
674.2246269999999413
20
-164.684646999999984
11
674.1273069999999734
21
-164.664734999999979
0
LINE
8
BLACK
6
CONTINUOUS
10
586.3173949999999195
20
-174.2415689999999984
11
586.3996680000000197
21
-174.2153619999999989
0
LINE
8
BLACK
6
CONTINUOUS
10
609.1158369999999422
20
-162.0055059999999969
11
609.0201929999999493
21
-162.0319790000000069
0
LINE
8
BLACK
6
CONTINUOUS
10
651.0292989999999236
20
-158.9224710000000016
11
650.9298069999999825
21
-158.9128859999999861
0
LINE
8
BLACK
6
CONTINUOUS
10
653.2105510000000095
20
-159.1801789999999812
11
653.1117590000000064
21
-159.1664179999999931
0
LINE
8
BLACK
6
CONTINUOUS
10
616.9371919999999818
20
-160.4785469999999918
11
616.887377000000015
21
-160.4860789999999895
0
LINE
8
BLACK
6
CONTINUOUS
10
648.8353819999999814
20
-158.7498789999999929
11
648.7854139999999461
21
-158.7468529999999873
0
LINE
8
BLACK
6
CONTINUOUS
10
617.2858919999999898
20
-160.4260019999999827
11
617.2360830000000078
21
-160.4334920000000011
0
LINE
8
BLACK
6
CONTINUOUS
10
628.9662690000000111
20
-158.9505619999999908
11
628.8667279999999664
21
-158.9568490000000054
0
LINE
8
BLACK
6
CONTINUOUS
10
668.6223009999999931
20
-163.2935579999999902
11
668.5263129999999592
21
-163.2662479999999903
0
LINE
8
BLACK
6
CONTINUOUS
10
665.1743569999999863
20
-162.2700669999999832
11
665.0787470000000212
21
-162.2407999999999788
0
LINE
8
BLACK
6
CONTINUOUS
10
699.5741959999999153
20
-76.6286640000000006
11
699.6185970000000225
21
-76.6549809999999923
0
LINE
8
BLACK
6
CONTINUOUS
10
646.3840809999999237
20
-158.6405289999999866
11
646.3340170000000171
21
-158.6390629999999931
0
LINE
8
BLACK
6
CONTINUOUS
10
623.1222639999999728
20
-159.5362140000000011
11
623.0237710000000106
21
-159.5503029999999853
0
LINE
8
BLACK
6
CONTINUOUS
10
665.9394740000000183
20
-162.5031119999999873
11
665.8438059999999723
21
-162.4741019999999878
0
LINE
8
BLACK
6
CONTINUOUS
10
697.7588739999999916
20
-75.9838199999999944
11
697.8525499999999511
21
-75.9986310000000032
0
LINE
8
BLACK
6
CONTINUOUS
10
649.9834339999999884
20
-158.8303709999999853
11
649.9335720000000265
21
-158.8264189999999871
0
LINE
8
BLACK
6
CONTINUOUS
10
700.5231909999999971
20
-77.3572449999999918
11
700.5602649999999585
21
-77.3943189999999959
0
LINE
8
BLACK
6
CONTINUOUS
10
672.1869570000000067
20
-164.2324359999999785
11
672.0902209999999286
21
-164.2092389999999966
0
LINE
8
BLACK
6
CONTINUOUS
10
669.4869259999999258
20
-163.5354189999999903
11
669.3907899999999245
21
-163.5089150000000018
0
LINE
8
BLACK
6
CONTINUOUS
10
631.7575819999999567
20
-158.8119130000000041
11
631.6577829999999949
21
-158.8157679999999914
0
LINE
8
BLACK
6
CONTINUOUS
10
649.7340639999999894
20
-158.8111079999999902
11
649.6841739999999845
21
-158.8073949999999854
0
LINE
8
BLACK
6
CONTINUOUS
10
699.4849839999999404
20
-76.5770199999999903
11
699.5297959999999193
21
-76.6023469999999946
0
LINE
8
BLACK
6
CONTINUOUS
10
646.9347379999999248
20
-158.6584210000000041
11
646.8846829999999954
21
-158.656659999999988
0
LINE
8
BLACK
6
CONTINUOUS
10
664.2662599999999884
20
-161.9911329999999907
11
664.2184760000000097
21
-161.9764109999999846
0
LINE
8
BLACK
6
CONTINUOUS
10
619.6708619999999428
20
-160.0656549999999925
11
619.6213490000000093
21
-160.0733060000000023
0
LINE
8
BLACK
6
CONTINUOUS
10
699.8794149999999945
20
-76.8245529999999945
11
699.921848999999952
21
-76.8547200000000004
0
LINE
8
BLACK
6
CONTINUOUS
10
701.5205179999999245
20
-78.7417259999999999
11
701.5428339999999707
21
-78.7875789999999938
0
LINE
8
BLACK
6
CONTINUOUS
10
616.7877330000000029
20
-160.5011649999999861
11
616.737912999999935
21
-160.5087269999999933
0
LINE
8
BLACK
6
CONTINUOUS
10
609.4033799999999701
20
-161.927599999999984
11
609.3074309999999514
21
-161.9533189999999934
0
LINE
8
BLACK
6
CONTINUOUS
10
646.3340170000000171
20
-158.6390629999999931
11
646.2839529999999968
21
-158.6376489999999819
0
LINE
8
BLACK
6
CONTINUOUS
10
634.3537549999999783
20
-158.7326229999999896
11
634.2538789999999835
21
-158.7350549999999885
0
LINE
8
BLACK
6
CONTINUOUS
10
584.9066139999999905
20
-174.4627319999999884
11
584.9902369999999792
21
-174.4614530000000059
0
LINE
8
BLACK
6
CONTINUOUS
10
611.4392169999999851
20
-161.4400379999999871
11
611.3903399999999237
21
-161.4506079999999884
0
LINE
8
BLACK
6
CONTINUOUS
10
648.7354460000000245
20
-158.7438290000000052
11
648.6854739999999993
21
-158.7408739999999909
0
LINE
8
BLACK
6
CONTINUOUS
10
697.3878649999999197
20
-75.9428489999999954
11
697.4799689999999828
21
-75.9504079999999959
0
LINE
8
BLACK
6
CONTINUOUS
10
701.9948479999999336
20
-80.3820499999999925
11
702.0041769999999133
21
-80.4746159999999975
0
LINE
8
BLACK
6
CONTINUOUS
10
645.0324219999999968
20
-158.6107099999999832
11
644.9823699999999462
21
-158.6099779999999839
0
LINE
8
BLACK
6
CONTINUOUS
10
640.2395709999999553
20
-158.6231369999999856
11
640.1399279999999408
21
-158.6246490000000051
0
LINE
8
BLACK
6
CONTINUOUS
10
594.4292550000000119
20
-73.5081429999999898
11
567.9892549999999574
21
-73.5081429999999898
0
LINE
8
BLACK
6
CONTINUOUS
10
625.8874379999999746
20
-159.1989829999999984
11
625.7883990000000267
21
-159.2090350000000001
0
LINE
8
BLACK
6
CONTINUOUS
10
670.352989999999977
20
-163.7694119999999884
11
670.2566839999999502
21
-163.743836999999985
0
LINE
8
BLACK
6
CONTINUOUS
10
622.9252880000000232
20
-159.5645009999999786
11
622.8268090000000257
21
-159.5788029999999935
0
LINE
8
BLACK
6
CONTINUOUS
10
650.0831489999999349
20
-158.8383499999999913
11
650.0332949999999528
21
-158.8343189999999936
0
LINE
8
BLACK
6
CONTINUOUS
10
608.6386850000000095
20
-162.140484999999984
11
608.5435800000000199
21
-162.1682759999999917
0
LINE
8
BLACK
6
CONTINUOUS
10
619.3736699999999473
20
-160.1114350000000002
11
619.3240979999999354
21
-160.1190200000000061
0
LINE
8
BLACK
6
CONTINUOUS
10
647.2850879999999734
20
-158.6717249999999808
11
647.2350440000000162
21
-158.6697149999999965
0
LINE
8
BLACK
6
CONTINUOUS
10
698.4184319999999389
20
-76.1277699999999982
11
698.5128639999999223
21
-76.1561870000000027
0
LINE
8
BLACK
6
CONTINUOUS
10
626.2837939999999435
20
-159.160160999999988
11
626.1846779999999626
21
-159.1696609999999907
0
LINE
8
BLACK
6
CONTINUOUS
10
608.1642939999999271
20
-162.2821889999999883
11
608.0697619999999688
21
-162.3113679999999874
0
LINE
8
BLACK
6
CONTINUOUS
10
697.2962679999999409
20
-75.9370270000000005
11
697.3878649999999197
21
-75.9428489999999954
0
LINE
8
BLACK
6
CONTINUOUS
10
666.1308259999999564
20
-162.5610039999999969
11
666.0351439999999457
21
-162.5320789999999818
0
LINE
8
BLACK
6
CONTINUOUS
10
607.0380319999999301
20
-162.6518429999999853
11
606.9450130000000172
21
-162.6846439999999916
0
LINE
8
BLACK
6
CONTINUOUS
10
698.5128639999999223
20
-76.1561870000000027
11
698.6071749999999838
21
-76.1866129999999941
0
LINE
8
BLACK
6
CONTINUOUS
10
644.6820960000000014
20
-158.6059819999999831
11
644.6320569999999179
21
-158.6053880000000049
0
LINE
8
BLACK
6
CONTINUOUS
10
636.3509510000000091
20
-158.6906999999999925
11
636.2511210000000119
21
-158.6925709999999867
0
LINE
8
BLACK
6
CONTINUOUS
10
701.6645509999999604
20
-79.0658239999999921
11
701.6828029999999217
21
-79.1126110000000011
0
LINE
8
BLACK
6
CONTINUOUS
10
636.1512870000000248
20
-158.6944569999999999
11
636.0514499999999316
21
-158.696360999999996
0
LINE
8
BLACK
6
CONTINUOUS
10
664.8875429999999369
20
-162.182185000000004
11
664.7919479999999339
21
-162.1528439999999875
0
LINE
8
BLACK
6
CONTINUOUS
10
701.5486769999999979
20
-160.637014999999991
11
701.5244139999999788
21
-160.6900049999999851
0
LINE
8
BLACK
6
CONTINUOUS
10
634.7532579999999598
20
-158.7232899999999916
11
634.6533849999999575
21
-158.7255689999999788
0
LINE
8
BLACK
6
CONTINUOUS
10
632.2566640000000007
20
-158.7936440000000005
11
632.1568369999999959
21
-158.7971650000000068
0
LINE
8
BLACK
6
CONTINUOUS
10
700.2849889999999959
20
-162.6306349999999838
11
700.2208419999999478
21
-162.7010779999999954
0
LINE
8
BLACK
6
CONTINUOUS
10
701.1884779999999182
20
-78.1611159999999927
11
701.2167439999999488
21
-78.2045959999999951
0
LINE
8
BLACK
6
CONTINUOUS
10
666.9923699999999371
20
-162.8192399999999793
11
666.8966029999999137
21
-162.7907529999999952
0
LINE
8
BLACK
6
CONTINUOUS
10
663.8840079999999944
20
-161.8732789999999966
11
663.8362280000000055
21
-161.8585359999999866
0
LINE
8
BLACK
6
CONTINUOUS
10
701.9206669999999804
20
-79.913921000000002
11
701.9392629999999826
21
-80.0080870000000033
0
LINE
8
BLACK
6
CONTINUOUS
10
662.6896299999999655
20
-161.5047909999999831
11
662.5940809999999601
21
-161.4753609999999924
0
LINE
8
BLACK
6
CONTINUOUS
10
585.739268999999922
20
-174.3839529999999911
11
585.8220989999999802
21
-174.3680129999999906
0
LINE
8
BLACK
6
CONTINUOUS
10
581.7566319999999678
20
-173.47934699999999
11
581.7999149999999418
21
-173.5058310000000006
0
LINE
8
BLACK
6
CONTINUOUS
10
645.4328689999999824
20
-158.6175739999999905
11
645.382808999999952
21
-158.6166409999999871
0
LINE
8
BLACK
6
CONTINUOUS
10
568.3792549999999437
20
-147.528143
11
581.6699859999999944
21
-173.4249099999999828
0
LINE
8
BLACK
6
CONTINUOUS
10
663.3584670000000187
20
-161.7110830000000021
11
663.2629180000000133
21
-161.6815929999999923
0
LINE
8
BLACK
6
CONTINUOUS
10
616.2895189999999275
20
-160.5771660000000054
11
616.2397019999999657
21
-160.5848289999999849
0
LINE
8
BLACK
6
CONTINUOUS
10
674.6688100000000077
20
-164.7976979999999969
11
674.3219779999999446
21
-164.7043879999999945
0
LINE
8
BLACK
6
CONTINUOUS
10
612.8146140000000059
20
-161.1623620000000017
11
612.7653020000000197
21
-161.1717559999999878
0
LINE
8
BLACK
6
CONTINUOUS
10
606.9450130000000172
20
-162.6846439999999916
11
606.8521269999999959
21
-162.7177649999999858
0
LINE
8
BLACK
6
CONTINUOUS
10
637.8476849999999558
20
-158.6638549999999839
11
637.7479509999999436
21
-158.6656169999999975
0
LINE
8
BLACK
6
CONTINUOUS
10
657.3194260000000213
20
-159.9597819999999899
11
657.2226479999999356
21
-159.9363219999999899
0
LINE
8
BLACK
6
CONTINUOUS
10
619.5223029999999653
20
-160.0885869999999898
11
619.472772999999961
21
-160.0962159999999983
0
LINE
8
BLACK
6
CONTINUOUS
10
649.2349629999999934
20
-158.7755669999999952
11
649.1850279999999884
21
-158.7722440000000006
0
LINE
8
BLACK
6
CONTINUOUS
10
666.8966029999999137
20
-162.7907529999999952
11
666.8008449999999812
21
-162.7622109999999793
0
LINE
8
BLACK
6
CONTINUOUS
10
617.8833609999999226
20
-160.3364100000000008
11
617.8335889999999608
21
-160.3438639999999964
0
LINE
8
BLACK
6
CONTINUOUS
10
659.4375880000000052
20
-160.525667999999996
11
659.3416760000000068
21
-160.4982420000000047
0
LINE
8
BLACK
6
CONTINUOUS
10
601.6878110000000106
20
-165.0960440000000062
11
605.5666559999999663
21
-163.2166339999999991
0
LINE
8
BLACK
6
CONTINUOUS
10
653.703948999999966
20
-159.2520920000000046
11
653.6053489999999329
21
-159.237290999999999
0
LINE
8
BLACK
6
CONTINUOUS
10
626.382930999999985
20
-159.1507939999999905
11
626.2837939999999435
21
-159.160160999999988
0
LINE
8
BLACK
6
CONTINUOUS
10
700.0892769999999246
20
-76.9790859999999952
11
700.1305429999999888
21
-77.0110949999999974
0
LINE
8
BLACK
6
CONTINUOUS
10
621.3495120000000043
20
-159.8029699999999877
11
621.2509559999999738
21
-159.8183530000000019
0
LINE
8
BLACK
6
CONTINUOUS
10
698.6377889999999979
20
-163.8599799999999789
11
698.5580229999999347
21
-163.8948900000000037
0
LINE
8
BLACK
6
CONTINUOUS
10
610.3681259999999611
20
-161.6834949999999935
11
610.2712419999999156
21
-161.7068749999999966
0
LINE
8
BLACK
6
CONTINUOUS
10
700.705379999999991
20
-77.5456509999999923
11
700.7408520000000181
21
-77.5842299999999909
0
LINE
8
BLACK
6
CONTINUOUS
10
619.472772999999961
20
-160.0962159999999983
11
619.4232230000000072
21
-160.1038269999999955
0
LINE
8
BLACK
6
CONTINUOUS
10
617.9331220000000258
20
-160.3289549999999792
11
617.8833609999999226
21
-160.3364100000000008
0
LINE
8
BLACK
6
CONTINUOUS
10
660.8736979999999903
20
-160.9497179999999901
11
660.7780659999999671
21
-160.9208789999999851
0
LINE
8
BLACK
6
CONTINUOUS
10
638.2465310000000045
20
-158.6567890000000034
11
638.1468330000000151
21
-158.6585619999999892
0
LINE
8
BLACK
6
CONTINUOUS
10
607.6928329999999505
20
-162.4309759999999869
11
607.5989059999999427
21
-162.4616129999999998
0
LINE
8
BLACK
6
CONTINUOUS
10
630.4607310000000098
20
-158.8679239999999879
11
630.3610289999999168
21
-158.872793999999999
0
LINE
8
BLACK
6
CONTINUOUS
10
617.4850999999999885
20
-160.3960889999999893
11
617.4353009999999813
21
-160.4035649999999862
0
LINE
8
BLACK
6
CONTINUOUS
10
613.6548880000000281
20
-161.008340000000004
11
613.6053650000000061
21
-161.0171239999999955
0
LINE
8
BLACK
6
CONTINUOUS
10
650.3821590000000015
20
-158.8632739999999899
11
650.3323409999999285
21
-158.858998999999983
0
LINE
8
BLACK
6
CONTINUOUS
10
702.0175580000000082
20
-80.6583169999999967
11
702.
21
-159.5
0
LINE
8
BLACK
6
CONTINUOUS
10
668.7183049999999866
20
-163.3207850000000008
11
668.6223009999999931
21
-163.2935579999999902
0
LINE
8
BLACK
6
CONTINUOUS
10
662.5940809999999601
20
-161.4753609999999924
11
662.4985289999999623
21
-161.4459469999999897
0
LINE
8
BLACK
6
CONTINUOUS
10
642.3332490000000234
20
-158.6002309999999795
11
642.2334599999999227
21
-158.6008359999999868
0
LINE
8
BLACK
6
CONTINUOUS
10
701.3491339999999354
20
-161.0485649999999964
11
701.323511999999937
21
-161.0984629999999811
0
LINE
8
BLACK
6
CONTINUOUS
10
613.9521959999999581
20
-160.9561819999999841
11
613.9026149999999689
21
-160.9647899999999936
0
LINE
8
BLACK
6
CONTINUOUS
10
609.2115830000000187
20
-161.9792860000000019
11
609.1158369999999422
21
-162.0055059999999969
0
LINE
8
BLACK
6
CONTINUOUS
10
655.6667909999999893
20
-159.5943809999999985
11
655.569095999999945
21
-159.5750919999999837
0
LINE
8
BLACK
6
CONTINUOUS
10
664.3618299999999408
20
-162.0205689999999947
11
664.3140419999999722
21
-162.0058569999999918
0
LINE
8
BLACK
6
CONTINUOUS
10
700.1560180000000173
20
-162.769976999999983
11
700.0905099999999948
21
-162.837331000000006
0
LINE
8
BLACK
6
CONTINUOUS
10
613.3084900000000061
20
-161.0705779999999834
11
613.259051999999997
21
-161.0796179999999822
0
LINE
8
BLACK
6
CONTINUOUS
10
621.8420959999999695
20
-159.7266459999999881
11
621.7436020000000099
21
-159.741816
0
LINE
8
BLACK
6
CONTINUOUS
10
619.8687979999999698
20
-160.0349319999999977
11
619.8193229999999403
21
-160.0426249999999868
0
LINE
8
BLACK
6
CONTINUOUS
10
664.7919479999999339
20
-162.1528439999999875
11
664.6963579999999183
21
-162.1234809999999982
0
LINE
8
BLACK
6
CONTINUOUS
10
615.1443219999999883
20
-160.7570749999999862
11
615.0945749999999634
21
-160.7650959999999998
0
LINE
8
BLACK
6
CONTINUOUS
10
639.4424699999999575
20
-158.6358899999999892
11
639.3428289999999379
21
-158.6375749999999982
0
LINE
8
BLACK
6
CONTINUOUS
10
615.0448369999999159
20
-160.7731560000000002
11
614.9950979999999845
21
-160.781218999999993
0
LINE
8
BLACK
6
CONTINUOUS
10
614.2994589999999562
20
-160.8966139999999996
11
614.249828999999977
21
-160.905052999999981
0
LINE
8
BLACK
6
CONTINUOUS
10
606.6667669999999362
20
-162.784971999999982
11
606.574294000000009
21
-162.8190679999999873
0
LINE
8
BLACK
6
CONTINUOUS
10
611.7819170000000213
20
-161.3675139999999999
11
611.7329019999999673
21
-161.3777209999999798
0
LINE
8
BLACK
6
CONTINUOUS
10
646.2839529999999968
20
-158.6376489999999819
11
646.233887999999979
21
-158.6362409999999841
0
LINE
8
BLACK
6
CONTINUOUS
10
701.1592549999999164
20
-78.1181430000000034
11
701.1884779999999182
21
-78.1611159999999927
0
LINE
8
BLACK
6
CONTINUOUS
10
620.3630329999999731
20
-159.9576629999999966
11
620.2642499999999472
21
-159.9731510000000014
0
LINE
8
BLACK
6
CONTINUOUS
10
583.3026569999999538
20
-174.2084739999999954
11
583.3877919999999904
21
-174.2350500000000011
0
LINE
8
BLACK
6
CONTINUOUS
10
699.1021279999999933
20
-163.6180709999999863
11
699.0264359999999897
21
-163.6622519999999952
0
LINE
8
BLACK
6
CONTINUOUS
10
646.8846829999999954
20
-158.656659999999988
11
646.8346259999999575
21
-158.6548980000000029
0
LINE
8
BLACK
6
CONTINUOUS
10
614.3987529999999424
20
-160.8798380000000066
11
614.3491060000000061
21
-160.888227999999998
0
LINE
8
BLACK
6
CONTINUOUS
10
682.238809999999944
20
-164.3176979999999787
11
674.6688100000000077
21
-164.7976979999999969
0
LINE
8
BLACK
6
CONTINUOUS
10
629.5637639999999919
20
-158.9149569999999869
11
629.4641530000000103
21
-158.9206470000000024
0
LINE
8
BLACK
6
CONTINUOUS
10
608.5435800000000199
20
-162.1682759999999917
11
608.4485889999999699
21
-162.1963389999999947
0
LINE
8
BLACK
6
CONTINUOUS
10
649.6342819999999847
20
-158.803685999999999
11
649.5843810000000076
21
-158.8000549999999862
0
LINE
8
BLACK
6
CONTINUOUS
10
699.349788999999987
20
-76.5030339999999995
11
699.3949799999999186
21
-76.527362999999994
0
LINE
8
BLACK
6
CONTINUOUS
10
628.2697600000000193
20
-158.9967869999999834
11
628.1703129999999646
21
-159.0038250000000062
0
LINE
8
BLACK
6
CONTINUOUS
10
699.5297959999999193
20
-76.6023469999999946
11
699.5741959999999153
21
-76.6286640000000006
0
LINE
8
BLACK
6
CONTINUOUS
10
640.6381549999999834
20
-158.617401000000001
11
640.5385029999999915
21
-158.6187850000000026
0
LINE
8
BLACK
6
CONTINUOUS
10
585.9048460000000205
20
-174.3506040000000041
11
585.9875149999999167
21
-174.3317299999999932
0
LINE
8
BLACK
6
CONTINUOUS
10
700.8101239999999734
20
-77.6628139999999973
11
700.8439039999999522
21
-77.7027920000000023
0
LINE
8
BLACK
6
CONTINUOUS
10
639.5421059999999898
20
-158.6342229999999915
11
639.4424699999999575
21
-158.6358899999999892
0
LINE
8
BLACK
6
CONTINUOUS
10
701.6443759999999656
20
-160.4219719999999825
11
701.6207889999999452
21
-160.4765050000000031
0
LINE
8
BLACK
6
CONTINUOUS
10
663.2629180000000133
20
-161.6815929999999923
11
663.1673710000000028
21
-161.6521070000000009
0
LINE
8
BLACK
6
CONTINUOUS
10
660.5867729999999938
20
-160.8633800000000065
11
660.4911069999999427
21
-160.8347379999999873
0
LINE
8
BLACK
6
CONTINUOUS
10
614.2001950000000079
20
-160.9134939999999858
11
614.1505839999999807
21
-160.9219899999999939
0
LINE
8
BLACK
6
CONTINUOUS
10
587.0549720000000207
20
-173.9529349999999965
11
587.1365289999999959
21
-173.913533000000001
0
LINE
8
BLACK
6
CONTINUOUS
10
698.3239370000000008
20
-76.1013499999999965
11
698.4184319999999389
21
-76.1277699999999982
0
LINE
8
BLACK
6
CONTINUOUS
10
643.8317200000000184
20
-158.5989899999999864
11
643.7317259999999806
21
-158.5985649999999794
0
LINE
8
BLACK
6
CONTINUOUS
10
584.1504239999999299
20
-174.4082740000000058
11
584.2347659999999223
21
-174.420187999999996
0
LINE
8
BLACK
6
CONTINUOUS
10
701.5854389999999512
20
-78.8798499999999905
11
701.6057250000000067
21
-78.9262339999999938
0
LINE
8
BLACK
6
CONTINUOUS
10
614.6968069999999216
20
-160.830112999999983
11
614.6471179999999777
21
-160.8383499999999913
0
LINE
8
BLACK
6
CONTINUOUS
10
655.3735570000000052
20
-159.5372169999999983
11
655.2757139999999936
21
-159.5186309999999992
0
LINE
8
BLACK
6
CONTINUOUS
10
638.8445849999999382
20
-158.6461960000000033
11
638.7449239999999691
21
-158.6479499999999803
0
LINE
8
BLACK
6
CONTINUOUS
10
701.6679599999999937
20
-160.3674379999999928
11
701.6443759999999656
21
-160.4219719999999825
0
LINE
8
BLACK
6
CONTINUOUS
10
627.5739379999999983
20
-159.0484409999999968
11
627.4745960000000196
21
-159.05628999999999
0
LINE
8
BLACK
6
CONTINUOUS
10
664.1229099999999335
20
-161.9469560000000001
11
664.0751269999999522
21
-161.9322229999999934
0
LINE
8
BLACK
6
CONTINUOUS
10
668.3343800000000101
20
-163.2113879999999995
11
668.2384359999999788
21
-163.1838339999999903
0
LINE
8
BLACK
6
CONTINUOUS
10
658.0919020000000046
20
-160.1553229999999814
11
657.9955019999999877
21
-160.1301619999999843
0
LINE
8
BLACK
6
CONTINUOUS
10
682.238809999999944
20
-164.3176979999999787
11
697.029254999999921
21
-164.278143
0
LINE
8
BLACK
6
CONTINUOUS
10
632.9555689999999686
20
-158.7707169999999905
11
632.8557149999999183
21
-158.7738129999999899
0
LINE
8
BLACK
6
CONTINUOUS
10
643.2319410000000062
20
-158.5975839999999835
11
643.1320279999999912
21
-158.597611999999998
0
LINE
8
BLACK
6
CONTINUOUS
10
612.7653020000000197
20
-161.1717559999999878
11
612.7159889999999223
21
-161.181147999999979
0
LINE
8
BLACK
6
CONTINUOUS
10
661.447306000000026
20
-161.1238089999999943
11
661.3517200000000003
21
-161.0946919999999807
0
LINE
8
BLACK
6
CONTINUOUS
10
700.9105869999999641
20
-77.7834059999999994
11
700.9434899999999971
21
-77.8240419999999915
0
LINE
8
BLACK
6
CONTINUOUS
10
645.8834319999999707
20
-158.6272459999999853
11
645.8333689999999478
21
-158.6260539999999821
0
LINE
8
BLACK
6
CONTINUOUS
10
641.7346949999999879
20
-158.6047120000000064
11
641.6349709999999504
21
-158.6056419999999889
0
LINE
8
BLACK
6
CONTINUOUS
10
606.2058220000000119
20
-162.9587989999999991
11
606.1140649999999823
21
-162.9945819999999799
0
LINE
8
BLACK
6
CONTINUOUS
10
701.0294450000000097
20
-161.6195409999999981
11
701.0017859999999246
21
-161.6648030000000063
0
LINE
8
BLACK
6
CONTINUOUS
10
633.6546260000000075
20
-158.7505109999999888
11
633.5547559999999976
21
-158.7532449999999926
0
LINE
8
BLACK
6
CONTINUOUS
10
631.5579910000000154
20
-158.8196949999999958
11
631.4582019999999147
21
-158.8236979999999789
0
LINE
8
BLACK
6
CONTINUOUS
10
637.9474079999999958
20
-158.6620969999999886
11
637.8476849999999558
21
-158.6638549999999839
0
LINE
8
BLACK
6
CONTINUOUS
10
701.5244139999999788
20
-160.6900049999999851
11
701.499810000000025
21
-160.7422200000000032
0
LINE
8
BLACK
6
CONTINUOUS
10
610.2712419999999156
20
-161.7068749999999966
11
610.1744449999999915
21
-161.73048
0
LINE
8
BLACK
6
CONTINUOUS
10
661.8296139999999923
20
-161.2405880000000025
11
661.7340419999999312
21
-161.2113479999999868
0
LINE
8
BLACK
6
CONTINUOUS
10
649.0851490000000013
20
-158.7656729999999925
11
649.0352040000000216
21
-158.762424999999979
0
LINE
8
BLACK
6
CONTINUOUS
10
630.1616539999999986
20
-158.8827949999999873
11
630.0619809999999461
21
-158.8879289999999855
0
LINE
8
BLACK
6
CONTINUOUS
10
699.7065089999999827
20
-76.709575000000001
11
699.7499889999999141
21
-76.7378410000000031
0
LINE
8
BLACK
6
CONTINUOUS
10
606.297725000000014
20
-162.9233619999999974
11
606.2058220000000119
21
-162.9587989999999991
0
LINE
8
BLACK
6
CONTINUOUS
10
668.1425049999999146
20
-163.1562069999999949
11
668.0465909999999212
21
-163.1285069999999848
0
LINE
8
BLACK
6
CONTINUOUS
10
672.4773139999999785
20
-164.3011730000000057
11
672.3805009999999811
21
-164.2784049999999922
0
LINE
8
BLACK
6
CONTINUOUS
10
615.4428980000000138
20
-160.7092939999999999
11
615.393120999999951
21
-160.7172009999999887
0
LINE
8
BLACK
6
CONTINUOUS
10
645.7332420000000184
20
-158.6237749999999949
11
645.6831770000000006
21
-158.6226920000000007
0
LINE
8
BLACK
6
CONTINUOUS
10
698.7013029999999389
20
-76.2190579999999898
11
698.7482439999999997
21
-76.2362940000000009
0
LINE
8
BLACK
6
CONTINUOUS
10
643.7317259999999806
20
-158.5985649999999794
11
643.6317419999999174
21
-158.5982170000000053
0
LINE
8
BLACK
6
CONTINUOUS
10
615.7416180000000168
20
-160.6621629999999925
11
615.6918210000000045
21
-160.6699659999999881
0
LINE
8
BLACK
6
CONTINUOUS
10
633.7544990000000098
20
-158.7478219999999851
11
633.6546260000000075
21
-158.7505109999999888
0
LINE
8
BLACK
6
CONTINUOUS
10
664.2184760000000097
20
-161.9764109999999846
11
664.1706919999999172
21
-161.9616869999999835
0
LINE
8
BLACK
6
CONTINUOUS
10
700.0480119999999715
20
-76.9470779999999905
11
700.0892769999999246
21
-76.9790859999999952
0
LINE
8
BLACK
6
CONTINUOUS
10
670.4493199999999433
20
-163.7948779999999829
11
670.352989999999977
21
-163.7694119999999884
0
LINE
8
BLACK
6
CONTINUOUS
10
649.8837019999999711
20
-158.8225510000000043
11
649.8338289999999233
21
-158.8186849999999879
0
LINE
8
BLACK
6
CONTINUOUS
10
616.887377000000015
20
-160.4860789999999895
11
616.8375549999999521
21
-160.4936199999999928
0
LINE
8
BLACK
6
CONTINUOUS
10
637.6482109999999466
20
-158.6673759999999902
11
637.5484629999999697
21
-158.6691349999999829
0
LINE
8
BLACK
6
CONTINUOUS
10
699.3251289999999472
20
-163.4762619999999913
11
699.2514739999999165
21
-163.5250769999999818
0
LINE
8
BLACK
6
CONTINUOUS
10
642.8323769999999513
20
-158.5980989999999906
11
642.7325220000000172
21
-158.598399999999998
0
LINE
8
BLACK
6
CONTINUOUS
10
615.3433529999999791
20
-160.7251449999999977
11
615.2935879999999997
21
-160.7330910000000017
0
LINE
8
BLACK
6
CONTINUOUS
10
611.7329019999999673
20
-161.3777209999999798
11
611.6839209999999412
21
-161.3880159999999933
0
LINE
8
BLACK
6
CONTINUOUS
10
659.7251669999999422
20
-160.6087009999999964
11
659.6293329999999742
21
-160.5809030000000064
0
LINE
8
BLACK
6
CONTINUOUS
10
702.0041769999999133
20
-80.4746159999999975
11
702.011735999999928
21
-80.5667199999999895
0
LINE
8
BLACK
6
CONTINUOUS
10
667.3755519999999706
20
-162.9326030000000003
11
667.2797389999999496
21
-162.9043509999999912
0
LINE
8
BLACK
6
CONTINUOUS
10
647.4852549999999383
20
-158.6800079999999866
11
647.435214999999971
21
-158.6778730000000053
0
LINE
8
BLACK
6
CONTINUOUS
10
701.2723069999999552
20
-78.2920319999999919
11
701.2996039999999311
21
-78.3359880000000004
0
LINE
8
BLACK
6
CONTINUOUS
10
701.8276200000000244
20
-159.9733449999999948
11
701.8053949999999759
21
-160.030967000000004
0
LINE
8
BLACK
6
CONTINUOUS
10
644.5820199999999431
20
-158.6048329999999851
11
644.5319839999999658
21
-158.6042819999999836
0
LINE
8
BLACK
6
CONTINUOUS
10
619.4232230000000072
20
-160.1038269999999955
11
619.3736699999999473
21
-160.1114350000000002
0
LINE
8
BLACK
6
CONTINUOUS
10
608.3537089999999807
20
-162.2246779999999831
11
608.258944999999926
21
-162.2532949999999801
0
LINE
8
BLACK
6
CONTINUOUS
10
656.4464669999999842
20
-159.7574160000000063
11
656.3491960000000063
21
-159.7361809999999878
0
LINE
8
BLACK
6
CONTINUOUS
10
647.435214999999971
20
-158.6778730000000053
11
647.3851740000000063
21
-158.675801000000007
0
LINE
8
BLACK
6
CONTINUOUS
10
605.7485189999999875
20
-163.1411970000000053
11
605.657511999999997
21
-163.1787369999999839
0
LINE
8
BLACK
6
CONTINUOUS
10
654.8838589999999158
20
-159.4466119999999876
11
654.7857759999999416
21
-159.4291800000000023
0
LINE
8
BLACK
6
CONTINUOUS
10
648.4855499999999893
20
-158.729344999999995
11
648.4355630000000019
21
-158.7265339999999867
0
LINE
8
BLACK
6
CONTINUOUS
10
646.4341429999999491
20
-158.6419989999999984
11
646.3840809999999237
21
-158.6405289999999866
0
LINE
8
BLACK
6
CONTINUOUS
10
654.5894759999999906
20
-159.394993999999997
11
654.4912560000000212
21
-159.3782429999999977
  0
ENDSEC
  0
EOF
