%TF.GenerationSoftware,KiCad,Pcbnew,8.0.5*%
%TF.CreationDate,2024-10-07T12:12:51+02:00*%
%TF.ProjectId,chastity,63686173-7469-4747-992e-6b696361645f,rev?*%
%TF.SameCoordinates,Original*%
%TF.FileFunction,Profile,NP*%
%FSLAX46Y46*%
G04 Gerber Fmt 4.6, Leading zero omitted, Abs format (unit mm)*
G04 Created by KiCad (PCBNEW 8.0.5) date 2024-10-07 12:12:51*
%MOMM*%
%LPD*%
G01*
G04 APERTURE LIST*
%ADD10C,0.150000*%
%TA.AperFunction,Profile*%
%ADD11C,0.200000*%
%TD*%
%TA.AperFunction,Profile*%
%ADD12C,0.100000*%
%TD*%
%TA.AperFunction,Profile*%
%ADD13C,0.300000*%
%TD*%
G04 APERTURE END LIST*
D10*
X132375284Y128475181D02*
X132708617Y127475181D01*
X132708617Y127475181D02*
X133041950Y128475181D01*
X134137189Y127856134D02*
X134899094Y127856134D01*
X136708617Y127570420D02*
X136660998Y127522800D01*
X136660998Y127522800D02*
X136518141Y127475181D01*
X136518141Y127475181D02*
X136422903Y127475181D01*
X136422903Y127475181D02*
X136280046Y127522800D01*
X136280046Y127522800D02*
X136184808Y127618039D01*
X136184808Y127618039D02*
X136137189Y127713277D01*
X136137189Y127713277D02*
X136089570Y127903753D01*
X136089570Y127903753D02*
X136089570Y128046610D01*
X136089570Y128046610D02*
X136137189Y128237086D01*
X136137189Y128237086D02*
X136184808Y128332324D01*
X136184808Y128332324D02*
X136280046Y128427562D01*
X136280046Y128427562D02*
X136422903Y128475181D01*
X136422903Y128475181D02*
X136518141Y128475181D01*
X136518141Y128475181D02*
X136660998Y128427562D01*
X136660998Y128427562D02*
X136708617Y128379943D01*
X137137189Y128475181D02*
X137137189Y127665658D01*
X137137189Y127665658D02*
X137184808Y127570420D01*
X137184808Y127570420D02*
X137232427Y127522800D01*
X137232427Y127522800D02*
X137327665Y127475181D01*
X137327665Y127475181D02*
X137518141Y127475181D01*
X137518141Y127475181D02*
X137613379Y127522800D01*
X137613379Y127522800D02*
X137660998Y127570420D01*
X137660998Y127570420D02*
X137708617Y127665658D01*
X137708617Y127665658D02*
X137708617Y128475181D01*
X138041951Y128475181D02*
X138613379Y128475181D01*
X138327665Y127475181D02*
X138327665Y128475181D01*
X132375284Y35398959D02*
X132708617Y34398959D01*
X132708617Y34398959D02*
X133041950Y35398959D01*
X134137189Y34779912D02*
X134899094Y34779912D01*
X136708617Y34494198D02*
X136660998Y34446578D01*
X136660998Y34446578D02*
X136518141Y34398959D01*
X136518141Y34398959D02*
X136422903Y34398959D01*
X136422903Y34398959D02*
X136280046Y34446578D01*
X136280046Y34446578D02*
X136184808Y34541817D01*
X136184808Y34541817D02*
X136137189Y34637055D01*
X136137189Y34637055D02*
X136089570Y34827531D01*
X136089570Y34827531D02*
X136089570Y34970388D01*
X136089570Y34970388D02*
X136137189Y35160864D01*
X136137189Y35160864D02*
X136184808Y35256102D01*
X136184808Y35256102D02*
X136280046Y35351340D01*
X136280046Y35351340D02*
X136422903Y35398959D01*
X136422903Y35398959D02*
X136518141Y35398959D01*
X136518141Y35398959D02*
X136660998Y35351340D01*
X136660998Y35351340D02*
X136708617Y35303721D01*
X137137189Y35398959D02*
X137137189Y34589436D01*
X137137189Y34589436D02*
X137184808Y34494198D01*
X137184808Y34494198D02*
X137232427Y34446578D01*
X137232427Y34446578D02*
X137327665Y34398959D01*
X137327665Y34398959D02*
X137518141Y34398959D01*
X137518141Y34398959D02*
X137613379Y34446578D01*
X137613379Y34446578D02*
X137660998Y34494198D01*
X137660998Y34494198D02*
X137708617Y34589436D01*
X137708617Y34589436D02*
X137708617Y35398959D01*
X138041951Y35398959D02*
X138613379Y35398959D01*
X138327665Y34398959D02*
X138327665Y35398959D01*
D11*
X131418512Y120352381D02*
X131400954Y41510698D01*
X67946539Y42359222D02*
X67846859Y42357452D01*
X130278638Y123267928D02*
X130311541Y123227292D01*
X46786454Y40599657D02*
X46736650Y40592178D01*
X70936212Y42404075D02*
X70836506Y42403046D01*
X250218628Y26830269D02*
X250133413Y26802224D01*
X198483064Y42291862D02*
X198582937Y42289653D01*
D12*
X42169764Y96343000D02*
G75*
G02*
X40148874Y96343000I-1010445J0D01*
G01*
X40148874Y96343000D02*
G75*
G02*
X42169764Y96343000I1010445J0D01*
G01*
D11*
X44545276Y40253623D02*
X44495529Y40245602D01*
X204768384Y42040965D02*
X204867885Y42034364D01*
X103722932Y36306310D02*
X103625581Y36326051D01*
X43402728Y40063118D02*
X43353150Y40054516D01*
X132558386Y123267928D02*
X132525483Y123227292D01*
X52720233Y41502315D02*
X52621720Y41488458D01*
X42264907Y39857656D02*
X42215568Y39848336D01*
X194491828Y42366245D02*
X194591485Y42364502D01*
X179535043Y41728367D02*
X179633562Y41743594D01*
X135395406Y124976780D02*
X135301073Y124956256D01*
X193495415Y42382950D02*
X193595052Y42381362D01*
X212579522Y41130540D02*
X212678176Y41115049D01*
X186100937Y42336966D02*
X186150982Y42338973D01*
X202875628Y42147558D02*
X202975339Y42142774D01*
X98503437Y37581866D02*
X98407369Y37608745D01*
X209386815Y131332555D02*
G75*
G02*
X202233601Y132080823I-3574272J396457D01*
G01*
X218142482Y40277607D02*
X218192240Y40269627D01*
X176601064Y41165822D02*
X176698115Y41188068D01*
X205166310Y42013911D02*
X205265757Y42006873D01*
X172753645Y40118602D02*
X172849297Y40147318D01*
X174574389Y40647539D02*
X174670482Y40674110D01*
X177866974Y41435606D02*
X177964717Y41454661D01*
X250731582Y27029325D02*
X250645891Y26992483D01*
D12*
X78386490Y129732582D02*
G75*
G02*
X76365600Y129732582I-1010445J0D01*
G01*
X76365600Y129732582D02*
G75*
G02*
X78386490Y129732582I1010445J0D01*
G01*
D11*
X90370271Y40032077D02*
X90274652Y40060980D01*
X179830721Y41773407D02*
X179929362Y41787994D01*
X132306038Y122935528D02*
X132276815Y122892555D01*
X132730690Y123465047D02*
X132695218Y123426468D01*
X201279233Y42213533D02*
X201379054Y42209948D01*
X132247592Y122849582D02*
X132219326Y122806102D01*
X208439261Y41716110D02*
X208538116Y41704756D01*
X37282008Y38640110D02*
X37187837Y38610062D01*
X189504343Y42411203D02*
X189554346Y42411456D01*
X128196240Y37225173D02*
X128117830Y37187174D01*
X220473415Y39876223D02*
X220522779Y39866976D01*
X191102821Y42410467D02*
X191202610Y42409862D01*
X251333650Y27328269D02*
X251247402Y27281165D01*
X158919296Y36267357D02*
X159016710Y36286744D01*
X201478872Y42206296D02*
X201578682Y42202577D01*
X47234543Y40666834D02*
X47184773Y40659380D01*
X203573408Y42112237D02*
X203673052Y42106828D01*
X220917167Y39791523D02*
X220966398Y39781902D01*
X53213008Y41569672D02*
X53114421Y41556468D01*
X157884559Y36258037D02*
X158724376Y36229114D01*
X15140223Y26626745D02*
X15223053Y26642685D01*
X127715603Y37020345D02*
X127633120Y36991614D01*
X133264891Y123966700D02*
X133224255Y123933797D01*
X89221931Y40374091D02*
X89126121Y40401997D01*
X130290064Y39169472D02*
X130261387Y39126526D01*
X247531224Y26660094D02*
X247448555Y26678968D01*
X93953940Y38931297D02*
X93906147Y38945995D01*
X15800622Y26795336D02*
X15882812Y26823008D01*
X133906274Y124408351D02*
X133861874Y124382034D01*
X210116791Y41502315D02*
X210215304Y41488458D01*
X204270684Y42072401D02*
X204370249Y42066317D01*
X211397008Y41314214D02*
X211495487Y41299163D01*
X45590839Y40418201D02*
X45541022Y40410512D01*
X80330761Y42097812D02*
X80231244Y42107224D01*
X211593974Y41284052D02*
X211692468Y41268882D01*
X49269752Y40975766D02*
X49220277Y40968073D01*
X103042112Y36448080D02*
X102944971Y36469000D01*
X79434249Y42176379D02*
X79384388Y42180327D01*
X92854970Y39270121D02*
X92759421Y39299615D01*
X179043076Y41648992D02*
X179141384Y41665304D01*
X215950970Y40614609D02*
X216000769Y40607133D01*
X76936247Y42328557D02*
X76886209Y42330690D01*
X81721062Y41947144D02*
X81621956Y41959121D01*
X66949417Y42341563D02*
X66849659Y42339801D01*
X219781182Y40002358D02*
X219830705Y39993574D01*
X130925368Y40320693D02*
X130900764Y40268478D01*
X91230568Y39770110D02*
X91134996Y39799350D01*
X85750150Y41274517D02*
X85652823Y41295509D01*
X16374292Y27019825D02*
X16455926Y27057763D01*
X43899029Y40147533D02*
X43849366Y40139196D01*
X76235580Y42355800D02*
X76185523Y42357500D01*
X60460074Y42170255D02*
X60360324Y42165876D01*
X194192884Y42371421D02*
X194292528Y42369711D01*
X208340387Y41727313D02*
X208439261Y41716110D01*
X131412690Y120443978D02*
X131418512Y120352381D01*
X-2219791Y53482555D02*
X11070940Y27585788D01*
X98119259Y37689913D02*
X98023255Y37717140D01*
X15882812Y26823008D02*
X15964924Y26852143D01*
X171702028Y39799350D02*
X171797603Y39828562D01*
X184400866Y42248273D02*
X184450818Y42251447D01*
X38516791Y39005192D02*
X38421147Y38978719D01*
X65552241Y42316241D02*
X65452404Y42314337D01*
X44296598Y40213268D02*
X44246882Y40205121D01*
X188353598Y42399202D02*
X188403648Y42399988D01*
X200081051Y42251834D02*
X200180921Y42248952D01*
X128750743Y124507664D02*
X128795934Y124483335D01*
X220670768Y39838942D02*
X220720081Y39829550D01*
X58865107Y42090051D02*
X58765505Y42084267D01*
X220127580Y39940120D02*
X220177018Y39931080D01*
X36906061Y38518147D02*
X36812387Y38486907D01*
X191202610Y42409862D02*
X191302384Y42409193D01*
X65851729Y42321852D02*
X65751905Y42319998D01*
X184750596Y42269824D02*
X184800571Y42272779D01*
X67248639Y42346843D02*
X67148905Y42345081D01*
X45889754Y40464058D02*
X45839934Y40456436D01*
X221064830Y39762579D02*
X221114031Y39752877D01*
X250989135Y27148646D02*
X250903205Y27107408D01*
X210904669Y41388398D02*
X211003133Y41373718D01*
X52030822Y41402988D02*
X51932355Y41388398D01*
X63155453Y42262876D02*
X63055580Y42260187D01*
X215204456Y40726475D02*
X215254188Y40719015D01*
X48873727Y40914482D02*
X48824177Y40906871D01*
X247118675Y26769129D02*
X247036402Y26795336D01*
X199082315Y42278075D02*
X199182191Y42275643D01*
X42660006Y39931080D02*
X42610573Y39922040D01*
X188503751Y42401458D02*
X188553797Y42402148D01*
X129448966Y124063620D02*
X129490231Y124031612D01*
X185350513Y42302715D02*
X185400525Y42305248D01*
X132428563Y123104125D02*
X132397468Y123062261D01*
X101975106Y36686902D02*
X101878268Y36709525D01*
X169122028Y39004841D02*
X169169810Y39019565D01*
X129531497Y123999603D02*
X129572133Y123966700D01*
X43650783Y40105645D02*
X43601149Y40097204D01*
X189454334Y42410907D02*
X189504343Y42411203D01*
X77336467Y42310176D02*
X77286445Y42312570D01*
X52523218Y41474484D02*
X52424725Y41460395D01*
X78236336Y42260819D02*
X78186368Y42263845D01*
X187802956Y42389093D02*
X187853018Y42390127D01*
X160571247Y36619917D02*
X160668164Y36642096D01*
X100332220Y37090223D02*
X100235789Y37115112D01*
X132840532Y38755457D02*
X132901284Y38677289D01*
X196586048Y42329137D02*
X196685852Y42327332D01*
X168357323Y38769898D02*
X168452928Y38799193D01*
X64453833Y42294044D02*
X64353960Y42291862D01*
X177574044Y41377017D02*
X177671636Y41396785D01*
X61058737Y42194930D02*
X60958945Y42191003D01*
X200780055Y42230514D02*
X200879899Y42227240D01*
X39575399Y39280218D02*
X39478691Y39256391D01*
X227138345Y38087336D02*
X227413616Y37979988D01*
X187102053Y42371635D02*
X187152117Y42373049D01*
X218788952Y40172348D02*
X218838641Y40164106D01*
X186651501Y42357500D02*
X186701558Y42359202D01*
X133065715Y123796965D02*
X133027136Y123761494D01*
X74433376Y42399988D02*
X74383324Y42400720D01*
X42166256Y39838942D02*
X42116943Y39829550D01*
X186401226Y42348636D02*
X186451277Y42350458D01*
X134486006Y37305809D02*
X134563054Y37264720D01*
X69142335Y42379752D02*
X69042699Y42378127D01*
X129848467Y123726022D02*
X129886306Y123689738D01*
X133683271Y37859770D02*
X133752853Y37801685D01*
X185300502Y42300185D02*
X185350513Y42302715D01*
X179141384Y41665304D02*
X179239734Y41681397D01*
X131006679Y122084464D02*
X131026966Y122038079D01*
X71335124Y42407698D02*
X71235380Y42406868D01*
X133514221Y124155978D02*
X133471787Y124125811D01*
X212678176Y41115049D02*
X212776852Y41099549D01*
X133144299Y123866237D02*
X133105007Y123831601D01*
X74483426Y42399202D02*
X74433376Y42399988D01*
X84872307Y41454661D02*
X84774511Y41473481D01*
X173998482Y40485030D02*
X174094394Y40512456D01*
X69939457Y42391913D02*
X69839810Y42390492D01*
X36999860Y38549085D02*
X36906061Y38518147D01*
X132525483Y123227292D02*
X132492580Y123186656D01*
X131102009Y121851299D02*
X131119245Y121804358D01*
X212086558Y41207728D02*
X212185114Y41192345D01*
X191701375Y42405986D02*
X191801099Y42405056D01*
X246790067Y26882749D02*
X246708114Y26914820D01*
X196885474Y42323694D02*
X196985295Y42321852D01*
X44495529Y40245602D02*
X44445791Y40237542D01*
X64853294Y42302464D02*
X64753433Y42300399D01*
X76736087Y42336966D02*
X76686042Y42338973D01*
X166539467Y38219945D02*
X166635225Y38248487D01*
X159406055Y36366050D02*
X159503312Y36386304D01*
X203872306Y42095741D02*
X203971917Y42090051D01*
X212283687Y41176927D02*
X212382279Y41161483D01*
X97064016Y37993729D02*
X96968167Y38021784D01*
X101297779Y36848269D02*
X101201118Y36871874D01*
X11933819Y27107408D02*
X12019669Y27067632D01*
X74933944Y42391159D02*
X74883884Y42392142D01*
X189204258Y42409193D02*
X189254278Y42409572D01*
X216249798Y40569714D02*
X216299610Y40562210D01*
X195787859Y42343322D02*
X195887607Y42341563D01*
X162697646Y37140111D02*
X162794035Y37165235D01*
X220424052Y39885471D02*
X220473415Y39876223D01*
X95914592Y38334428D02*
X95818876Y38363172D01*
X131441222Y120628648D02*
X131431893Y120536082D01*
X127347452Y124995376D02*
X127441618Y124976780D01*
X129692725Y123866237D02*
X129732017Y123831601D01*
X167592264Y38536596D02*
X167687920Y38565643D01*
X60061116Y42152261D02*
X59961396Y42147558D01*
X134409634Y37348446D02*
X134486006Y37305809D01*
X102556693Y36554299D02*
X102459694Y36576017D01*
X170364246Y39388071D02*
X170459795Y39417545D01*
X195987365Y42339801D02*
X196087128Y42338038D01*
X216449057Y40539679D02*
X216498878Y40532151D01*
X46836255Y40607133D02*
X46786454Y40599657D01*
X183402775Y42176379D02*
X183452636Y42180327D01*
X191302384Y42409193D02*
X191402150Y42408474D01*
X196087128Y42338038D02*
X196186898Y42336270D01*
X218291748Y40253623D02*
X218341495Y40245602D01*
X130244858Y123307906D02*
X130278638Y123267928D01*
D12*
X113770209Y108682555D02*
G75*
G02*
X111749319Y108682555I-1010445J0D01*
G01*
X111749319Y108682555D02*
G75*
G02*
X113770209Y108682555I1010445J0D01*
G01*
D11*
X217345816Y40402822D02*
X217395628Y40395103D01*
X183303070Y42168317D02*
X183352921Y42172348D01*
X150319708Y36771262D02*
X136406815Y36732555D01*
X130176442Y123387176D02*
X130211078Y123347884D01*
X202975339Y42142774D02*
X203075041Y42137904D01*
X201379054Y42209948D02*
X201478872Y42206296D01*
X162022313Y36967642D02*
X162118857Y36991910D01*
X131668098Y121663288D02*
X131637672Y121568977D01*
X37470716Y38699330D02*
X37376302Y38669865D01*
X93523864Y39063742D02*
X93476081Y39078475D01*
X45491208Y40402822D02*
X45441396Y40395103D01*
X132270365Y39622112D02*
X132297345Y39575303D01*
X94575311Y38740631D02*
X94479701Y38769898D01*
X45441396Y40395103D02*
X45391586Y40387386D01*
X35331946Y37943511D02*
X35240635Y37906683D01*
X44744307Y40285553D02*
X44694542Y40277607D01*
X47831453Y40756335D02*
X47781745Y40748862D01*
X46985640Y40629541D02*
X46935847Y40622075D01*
X237496815Y31872571D02*
X246299541Y27097165D01*
X47533094Y40711563D02*
X47483348Y40704106D01*
X251592873Y27478381D02*
X251549628Y27452630D01*
X224224487Y39031412D02*
X224320233Y39005192D01*
X170173152Y39329105D02*
X170268699Y39358591D01*
X134563054Y37264720D02*
X134640784Y37225173D01*
X55387454Y41821624D02*
X55288392Y41811715D01*
X47383842Y40689198D02*
X47334076Y40681743D01*
X129491464Y38173367D02*
X129425280Y38107558D01*
X164333587Y37581866D02*
X164429655Y37608745D01*
X131161215Y40866028D02*
X131138311Y40809949D01*
X227505078Y37943511D02*
X227596389Y37906683D01*
X98215280Y37662770D02*
X98119259Y37689913D01*
X67448079Y42350369D02*
X67348362Y42348601D01*
X219235875Y40097204D02*
X219285486Y40088708D01*
X218937995Y40147533D02*
X218987658Y40139196D01*
X86138909Y41188068D02*
X86041801Y41210056D01*
X176504071Y41143330D02*
X176601064Y41165822D01*
X190204129Y42413114D02*
X190304042Y42413086D01*
X130593299Y39669693D02*
X130566659Y39622112D01*
X187652765Y42385779D02*
X187702828Y42386923D01*
X88742630Y40512456D02*
X88646692Y40539756D01*
X187953140Y42392142D02*
X188003201Y42393124D01*
X209328135Y41608384D02*
X209426782Y41595633D01*
X88550723Y40566915D02*
X88454726Y40593939D01*
X93093851Y39196395D02*
X93046073Y39211138D01*
X163852990Y37448868D02*
X163949144Y37475279D01*
X44893627Y40309311D02*
X44843852Y40301404D01*
X169790951Y39211138D02*
X169886503Y39240627D01*
X195289237Y42352136D02*
X195388945Y42350369D01*
X50257502Y41130540D02*
X50158848Y41115049D01*
X29649827Y38983216D02*
X31088765Y35914654D01*
X132164482Y39813982D02*
X132190783Y39765627D01*
X78286295Y42257720D02*
X78236336Y42260819D01*
X37376302Y38669865D02*
X37282008Y38640110D01*
X221359771Y39703638D02*
X221408883Y39693692D01*
X93284962Y39137419D02*
X93237182Y39152162D01*
X134958493Y37082440D02*
X135039617Y37050620D01*
X75534712Y42377167D02*
X75484647Y42378470D01*
X188403648Y42399988D02*
X188453700Y42400720D01*
X69740167Y42389037D02*
X69640525Y42387561D01*
X44048072Y40172348D02*
X43998383Y40164106D01*
X205265757Y42006873D02*
X205365188Y41999724D01*
D12*
X261856815Y81172555D02*
G75*
G02*
X259835925Y81172555I-1010445J0D01*
G01*
X259835925Y81172555D02*
G75*
G02*
X261856815Y81172555I1010445J0D01*
G01*
D11*
X133215228Y38309620D02*
X133280052Y38240721D01*
X129652747Y123900017D02*
X129692725Y123866237D01*
X187702828Y42386923D02*
X187752893Y42388006D01*
X214508816Y40831259D02*
X214558454Y40823736D01*
X167783569Y38594722D02*
X167879212Y38623841D01*
X200979740Y42223908D02*
X201079573Y42220513D01*
X132061314Y40012031D02*
X132086936Y39962133D01*
X187752893Y42388006D02*
X187802956Y42389093D01*
X164045280Y37501783D02*
X164141400Y37528382D01*
X86817107Y41027227D02*
X86720380Y41050916D01*
X65152863Y42308503D02*
X65053011Y42306514D01*
X165581271Y37937820D02*
X165677146Y37965739D01*
X86720380Y41050916D02*
X86623602Y41074376D01*
X68245539Y42364502D02*
X68145878Y42362748D01*
X60260581Y42161420D02*
X60160845Y42156882D01*
X172179942Y39945087D02*
X172275539Y39974129D01*
X192399265Y42398494D02*
X192498935Y42397253D01*
X13888259Y26563559D02*
X13972279Y26557508D01*
X191801099Y42405056D02*
X191900812Y42404075D01*
X51243050Y41284052D02*
X51144556Y41268882D01*
X133105007Y123831601D02*
X133065715Y123796965D01*
X130753192Y122585909D02*
X130778519Y122541097D01*
X218192240Y40269627D02*
X218241999Y40261645D01*
X67747177Y42355681D02*
X67647485Y42353909D01*
X171319763Y39682231D02*
X171415327Y39711547D01*
X37187837Y38610062D02*
X37093787Y38579722D01*
X135206630Y124933785D02*
X135112133Y124909348D01*
X180126760Y41816551D02*
X180225519Y41830519D01*
X129365237Y124125811D02*
X129407101Y124094716D01*
X216747979Y40494412D02*
X216797802Y40486833D01*
X192498935Y42397253D02*
X192598603Y42395972D01*
X194392177Y42367985D02*
X194491828Y42366245D01*
X62556243Y42246016D02*
X62456380Y42243025D01*
X70039109Y42393297D02*
X69939457Y42391913D01*
X53607562Y41620979D02*
X53508889Y41608384D01*
X131520902Y41270935D02*
X131542450Y41211767D01*
X174958977Y40752845D02*
X175055215Y40778749D01*
X128273970Y37264720D02*
X128196240Y37225173D01*
X135583520Y125012067D02*
X135489572Y124995376D01*
X133752853Y37801685D02*
X133823112Y37745146D01*
X131400954Y41510698D02*
X131380087Y41449984D01*
X73682791Y42408773D02*
X73632766Y42409193D01*
X219533455Y40045908D02*
X219583014Y40037248D01*
X45291971Y40371890D02*
X45242169Y40364120D01*
X60859156Y42187000D02*
X60759376Y42182927D01*
X46387967Y40539679D02*
X46338146Y40532151D01*
X197983730Y42302464D02*
X198083591Y42300399D01*
X91899483Y39564751D02*
X91803931Y39594148D01*
X216648337Y40509533D02*
X216698157Y40501971D01*
X45541022Y40410512D02*
X45491208Y40402822D01*
X185150494Y42292312D02*
X185200493Y42294981D01*
X207548632Y41811715D02*
X207647671Y41801663D01*
X79932546Y42134420D02*
X79832932Y42143145D01*
X186901800Y42365650D02*
X186951864Y42367177D01*
X81522812Y41970904D02*
X81423637Y41982496D01*
X226676691Y38259493D02*
X226769303Y38225726D01*
X96010318Y38305731D02*
X95914592Y38334428D01*
X170459795Y39417545D02*
X170555342Y39447010D01*
X66250976Y42329137D02*
X66151172Y42327332D01*
X71834000Y42411019D02*
X71734203Y42410467D01*
X199381945Y42270665D02*
X199481821Y42268114D01*
X134687826Y124774404D02*
X134640884Y124757168D01*
X130376452Y123145391D02*
X130408461Y123104125D01*
X218092717Y40285553D02*
X218142482Y40277607D01*
X88070413Y40700520D02*
X87974250Y40726767D01*
X93332741Y39122681D02*
X93284962Y39137419D01*
X206060801Y41946443D02*
X206160110Y41938354D01*
X127724891Y124909348D02*
X127819386Y124882928D01*
X133345560Y38173367D02*
X133411744Y38107558D01*
X42956821Y39984726D02*
X42907319Y39975884D01*
X59462935Y42122769D02*
X59363270Y42117548D01*
X216797802Y40486833D02*
X216847624Y40479252D01*
X66350771Y42330931D02*
X66250976Y42329137D01*
X184900532Y42278542D02*
X184950520Y42281353D01*
X40157460Y39418586D02*
X40060241Y39396056D01*
X128613813Y124576631D02*
X128659666Y124554315D01*
X91612819Y39652892D02*
X91517261Y39682231D01*
X128841126Y124459005D02*
X128885938Y124433678D01*
X167974847Y38652993D02*
X168070476Y38682174D01*
X132721066Y38916428D02*
X132750761Y38875799D01*
X186951864Y42367177D02*
X187001927Y42368699D01*
D12*
X3001099Y81172555D02*
G75*
G02*
X980209Y81172555I-1010445J0D01*
G01*
X980209Y81172555D02*
G75*
G02*
X3001099Y81172555I1010445J0D01*
G01*
D11*
X201179406Y42217054D02*
X201279233Y42213533D01*
X11503374Y27328269D02*
X11589622Y27281165D01*
X89509240Y40289733D02*
X89413493Y40317953D01*
D12*
X239296815Y47022555D02*
G75*
G02*
X237275925Y47022555I-1010445J0D01*
G01*
X237275925Y47022555D02*
G75*
G02*
X239296815Y47022555I1010445J0D01*
G01*
X217806815Y58602555D02*
G75*
G02*
X215785925Y58602555I-1010445J0D01*
G01*
X215785925Y58602555D02*
G75*
G02*
X217806815Y58602555I1010445J0D01*
G01*
D11*
X211003133Y41373718D02*
X211101598Y41358953D01*
X214161539Y40884091D02*
X214211130Y40876522D01*
X247613971Y26642685D02*
X247531224Y26660094D01*
X130949631Y40373683D02*
X130925368Y40320693D01*
X188303544Y42398417D02*
X188353598Y42399202D01*
X188603844Y42402833D02*
X188653888Y42403478D01*
X135489572Y124995376D02*
X135395406Y124976780D01*
X251161233Y27235525D02*
X251075144Y27191354D01*
X161539245Y36848269D02*
X161635906Y36871874D01*
X213864233Y40929738D02*
X213913767Y40922111D01*
X54496637Y41727313D02*
X54397763Y41716110D01*
X11244151Y27478381D02*
X11287396Y27452630D01*
X49763987Y41053035D02*
X49665204Y41037547D01*
X63455079Y42270665D02*
X63355203Y42268114D01*
X55486533Y41831399D02*
X55387454Y41821624D01*
X187352377Y42378470D02*
X187402441Y42379770D01*
X133773517Y124328420D02*
X133729561Y124301123D01*
X131092159Y40698566D02*
X131068914Y40643260D01*
X183851689Y42210643D02*
X183901590Y42214273D01*
X78486103Y42245025D02*
X78436158Y42248273D01*
X163371937Y37318336D02*
X163468186Y37344236D01*
X207944672Y41770665D02*
X208043632Y41760043D01*
X73882903Y42406923D02*
X73832872Y42407430D01*
X233187197Y38983216D02*
X231748259Y35914654D01*
X131321621Y121096777D02*
X131340217Y121002611D01*
X126788819Y125067849D02*
X126880923Y125060290D01*
X76686042Y42338973D02*
X76635998Y42340983D01*
X127535951Y124956256D02*
X127630394Y124933785D01*
X43105365Y40011141D02*
X43055842Y40002358D01*
X101878268Y36709525D02*
X101781455Y36732293D01*
X206358682Y41921808D02*
X206457942Y41913350D01*
X86526773Y41097598D02*
X86429889Y41120587D01*
X130106334Y123465047D02*
X130141806Y123426468D01*
X160861918Y36686902D02*
X160958756Y36709525D01*
X129222652Y37919400D02*
X129153753Y37859770D01*
X49665204Y41037547D02*
X49615796Y41029807D01*
X79184899Y42195802D02*
X79135018Y42199590D01*
X130408461Y123104125D02*
X130560209Y122892555D01*
X168961815Y129972556D02*
X169291815Y128512554D01*
X54002480Y41669776D02*
X53903716Y41657815D01*
X176407135Y41120587D02*
X176504071Y41143330D01*
X85067745Y41416317D02*
X84970050Y41435606D01*
X130800992Y40062701D02*
X130775710Y40012031D01*
X187001927Y42368699D02*
X187051989Y42370169D01*
X219682115Y40019864D02*
X219731659Y40011141D01*
X12276747Y26957108D02*
X12362277Y26923198D01*
X11847889Y27148646D02*
X11933819Y27107408D01*
X204967374Y42027653D02*
X205066850Y42020838D01*
X72632895Y42413114D02*
X72532982Y42413086D01*
X197584309Y42310469D02*
X197684161Y42308503D01*
X184650656Y42263845D02*
X184700624Y42266869D01*
X59861685Y42142774D02*
X59761983Y42137904D01*
X46188687Y40509533D02*
X46138867Y40501971D01*
X165868857Y38021784D02*
X165964694Y38049908D01*
X102071972Y36664421D02*
X101975106Y36686902D01*
X128942973Y37690152D02*
X128871358Y37636702D01*
X224702171Y38897737D02*
X224797385Y38870213D01*
X101491175Y36801459D02*
X101394464Y36824795D01*
X95818876Y38363172D02*
X95723166Y38391966D01*
X199781444Y42260187D02*
X199881314Y42257453D01*
X69241972Y42381362D02*
X69142335Y42379752D01*
X207152276Y41850537D02*
X207251392Y41841037D01*
X50158848Y41115049D02*
X50060172Y41099549D01*
X49220277Y40968073D02*
X49170803Y40960386D01*
X251247402Y27281165D02*
X251161233Y27235525D01*
X15718349Y26769129D02*
X15800622Y26795336D01*
X130973894Y40426670D02*
X130949631Y40373683D01*
X180324311Y41844280D02*
X180423142Y41857835D01*
X53804976Y41645693D02*
X53706256Y41633415D01*
X199981185Y42254670D02*
X200081051Y42251834D01*
X188153375Y42395870D02*
X188203434Y42396751D01*
X91803931Y39594148D02*
X91708375Y39623528D01*
X187452507Y42381016D02*
X187502572Y42382261D01*
X203772684Y42101332D02*
X203872306Y42095741D01*
X251506385Y27426875D02*
X251419979Y27376842D01*
X103528261Y36345963D02*
X103430969Y36366050D01*
X58964718Y42095741D02*
X58865107Y42090051D01*
X131424334Y120443978D02*
X131418512Y120352381D01*
X80728567Y42058417D02*
X80629155Y42068532D01*
X218639856Y40196974D02*
X218689562Y40188781D01*
X74733705Y42394987D02*
X74683649Y42395870D01*
X131915552Y122268972D02*
X131893236Y122223119D01*
X132086936Y39962133D02*
X132112558Y39912235D01*
X214359929Y40853851D02*
X214409552Y40846315D01*
X94192902Y38857854D02*
X94097312Y38887217D01*
X201778287Y42194930D02*
X201878079Y42191003D01*
X213765208Y40945043D02*
X213814721Y40937392D01*
X219483874Y40054516D02*
X219533455Y40045908D01*
X73782844Y42407891D02*
X73732815Y42408353D01*
X98887880Y37475279D02*
X98791744Y37501783D01*
X47334076Y40681743D02*
X47284315Y40674288D01*
X57571267Y42006873D02*
X57471836Y41999724D01*
X186301124Y42344869D02*
X186351174Y42346751D01*
X222484885Y39463027D02*
X222582264Y39440909D01*
X206557186Y41904764D02*
X206656410Y41896051D01*
X90848260Y39886889D02*
X90752674Y39916006D01*
X211889488Y41238392D02*
X211988016Y41223080D01*
X14974329Y26599259D02*
X15057316Y26612270D01*
X221261517Y39723448D02*
X221310660Y39713586D01*
X131744865Y40698566D02*
X131768110Y40643260D01*
X175151492Y40804477D02*
X175247809Y40830019D01*
X217644657Y40356343D02*
X217694452Y40348535D01*
X92568325Y39358591D02*
X92472778Y39388071D01*
X100911277Y36943506D02*
X100814711Y36967642D01*
X212480891Y41146024D02*
X212579522Y41130540D01*
X203174734Y42132947D02*
X203274416Y42127903D01*
X131815281Y40534193D02*
X131839205Y40480432D01*
X221457964Y39683660D02*
X221507042Y39673627D01*
X80032136Y42125526D02*
X79932546Y42134420D01*
X128503082Y37392627D02*
X128427390Y37348446D01*
X36625426Y38423502D02*
X36532140Y38391337D01*
X73032696Y42412481D02*
X72932725Y42412754D01*
X219285486Y40088708D02*
X219335101Y40080217D01*
X248696941Y26549803D02*
X248613158Y26548152D01*
X61757451Y42220513D02*
X61657618Y42217054D01*
X96968167Y38021784D02*
X96872330Y38049908D01*
X101981804Y126626695D02*
G75*
G02*
X93545173Y128512560I-4175940J1132505D01*
G01*
X196186898Y42336270D02*
X196286676Y42334498D01*
X79733295Y42151699D02*
X79683464Y42155894D01*
X204370249Y42066317D02*
X204469801Y42060136D01*
X134223211Y124576631D02*
X134177358Y124554315D01*
X221507042Y39673627D02*
X222289896Y39506663D01*
X182108457Y42058417D02*
X182207869Y42068532D01*
X203673052Y42106828D02*
X203772684Y42101332D01*
X43601149Y40097204D02*
X43551538Y40088708D01*
X128382920Y124682125D02*
X128429304Y124661839D01*
X53410242Y41595633D02*
X53311614Y41582727D01*
X182506263Y42097812D02*
X182605780Y42107224D01*
X61258342Y42202577D02*
X61158536Y42198785D01*
X79783113Y42147424D02*
X79733295Y42151699D01*
X214757101Y40793729D02*
X214806784Y40786243D01*
X98023255Y37717140D02*
X97927267Y37744450D01*
X44993193Y40325056D02*
X44943411Y40317184D01*
X168961815Y129972556D02*
X186126815Y132242555D01*
X196985295Y42321852D02*
X197085119Y42319998D01*
X50947536Y41238392D02*
X50849008Y41223080D01*
X128567960Y124598947D02*
X128613813Y124576631D01*
X208538116Y41704756D02*
X208636948Y41693247D01*
X185050500Y42286904D02*
X185100494Y42289643D01*
X218838641Y40164106D02*
X218888321Y40155821D01*
X208142570Y41749284D02*
X208241489Y41738373D01*
X82512713Y41844280D02*
X82413882Y41857835D01*
X136156042Y36777535D02*
X136406815Y36732555D01*
X219731659Y40011141D02*
X219781182Y40002358D01*
X16210784Y26948357D02*
X16292578Y26983360D01*
X187853018Y42390127D02*
X187903080Y42391159D01*
X82611505Y41830519D02*
X82512713Y41844280D01*
X52917297Y41529657D02*
X52818759Y41516050D01*
X90657082Y39945087D02*
X90561485Y39974129D01*
X189354310Y42410282D02*
X189404324Y42410616D01*
X131496807Y121002611D02*
X131480116Y120908663D01*
X205961474Y41954408D02*
X206060801Y41946443D01*
D12*
X78119764Y96593000D02*
G75*
G02*
X76098874Y96593000I-1010445J0D01*
G01*
X76098874Y96593000D02*
G75*
G02*
X78119764Y96593000I1010445J0D01*
G01*
D11*
X195089847Y42355681D02*
X195189539Y42353909D01*
X38134853Y38897737D02*
X38039639Y38870213D01*
X73432700Y42410616D02*
X73382690Y42410907D01*
X199182191Y42275643D02*
X199282068Y42273178D01*
X135112133Y124909348D02*
X135017638Y124882928D01*
X217744249Y40340732D02*
X217794040Y40332894D01*
X85360519Y41357006D02*
X85262980Y41377017D01*
X47085213Y40644465D02*
X47035427Y40637002D01*
X61457970Y42209948D02*
X61358152Y42206296D01*
X73482714Y42410282D02*
X73432700Y42410616D01*
X220078123Y39949094D02*
X220127580Y39940120D01*
X93571646Y39049011D02*
X93523864Y39063742D01*
X42808359Y39958064D02*
X42758901Y39949094D01*
X47980557Y40778756D02*
X47930861Y40771280D01*
X129194423Y124244591D02*
X129237396Y124215368D01*
X226861776Y38191630D02*
X226954107Y38157197D01*
X200380644Y42243025D02*
X200480501Y42239981D01*
X75434583Y42379770D02*
X75384517Y42381016D01*
X79135018Y42199590D02*
X79085128Y42203303D01*
X45391586Y40387386D02*
X45341777Y40379640D01*
X89892061Y40175960D02*
X89796380Y40204530D01*
X214260716Y40868954D02*
X214310324Y40861402D01*
X44346325Y40221374D02*
X44296598Y40213268D01*
X49418104Y40998892D02*
X49368664Y40991175D01*
X169504283Y39122681D02*
X169552062Y39137419D01*
X128427390Y37348446D02*
X128351018Y37305809D01*
X132219326Y122806102D02*
X132191060Y122762622D01*
X167209556Y38420810D02*
X167305244Y38449694D01*
X188003201Y42393124D02*
X188053261Y42394057D01*
X174670482Y40674110D02*
X174766611Y40700520D01*
X128149198Y124774404D02*
X128196140Y124757168D01*
X203473754Y42117548D02*
X203573408Y42112237D01*
X98311316Y37635716D02*
X98215280Y37662770D01*
X131653243Y40922879D02*
X131675809Y40866028D01*
X129935740Y38677289D02*
X129874310Y38600666D01*
X216150178Y40584696D02*
X216199987Y40577206D01*
X62955710Y42257453D02*
X62855839Y42254670D01*
X134269064Y124598947D02*
X134223211Y124576631D01*
X172466753Y40032077D02*
X172562372Y40060980D01*
X41182871Y39643184D02*
X41133856Y39632977D01*
X192797915Y42393297D02*
X192897567Y42391913D01*
X129358416Y38043292D02*
X129290873Y37980574D01*
X224128639Y39057379D02*
X224224487Y39031412D01*
X129150943Y124272857D02*
X129194423Y124244591D01*
X215254188Y40719015D02*
X215303930Y40711563D01*
D12*
X21174764Y63332000D02*
G75*
G02*
X19153874Y63332000I-1010445J0D01*
G01*
X19153874Y63332000D02*
G75*
G02*
X21174764Y63332000I1010445J0D01*
G01*
D11*
X63255329Y42265516D02*
X63155453Y42262876D01*
X201079573Y42220513D02*
X201179406Y42217054D01*
X59961396Y42147558D02*
X59861685Y42142774D01*
X59163972Y42106828D02*
X59064340Y42101332D01*
X164429655Y37608745D02*
X164525708Y37635716D01*
X44694542Y40277607D02*
X44644784Y40269627D01*
X160086248Y36511331D02*
X160183304Y36532737D01*
X97735334Y37799310D02*
X97639390Y37826864D01*
X134037964Y37584796D02*
X134110941Y37534436D01*
X169647619Y39166902D02*
X169695398Y39181647D01*
X193893964Y42376475D02*
X193993600Y42374808D01*
X23284375Y36004672D02*
G75*
G02*
X29649826Y38983215I3106989J1651128D01*
G01*
X135626506Y36871131D02*
X135713066Y36851667D01*
X78386206Y42251447D02*
X78336254Y42254617D01*
X55684748Y41850537D02*
X55585632Y41841037D01*
X214806784Y40786243D02*
X214856467Y40778756D01*
X135203904Y36991614D02*
X135287069Y36964428D01*
X49566389Y41022071D02*
X49516968Y41014338D01*
X76335692Y42352277D02*
X76285637Y42354038D01*
X15964924Y26852143D02*
X16046957Y26882749D01*
X181512593Y41993897D02*
X181611830Y42005111D01*
X92186133Y39476465D02*
X92090584Y39505907D01*
X48427472Y40846315D02*
X48377848Y40838778D01*
X160668164Y36642096D02*
X160765052Y36664421D01*
X86332953Y41143330D02*
X86235960Y41165822D01*
X70637118Y42400858D02*
X70537436Y42399695D01*
X52621720Y41488458D02*
X52523218Y41474484D01*
X188103319Y42394987D02*
X188153375Y42395870D01*
X97447545Y37882191D02*
X97351640Y37909971D01*
D12*
X223446815Y111212555D02*
G75*
G02*
X221425925Y111212555I-1010445J0D01*
G01*
X221425925Y111212555D02*
G75*
G02*
X223446815Y111212555I1010445J0D01*
G01*
D11*
X215105001Y40741398D02*
X215154722Y40733935D01*
X62755973Y42251834D02*
X62656103Y42248952D01*
X42857840Y39966976D02*
X42808359Y39958064D01*
X160280331Y36554299D02*
X160377330Y36576017D01*
X103625581Y36326051D02*
X103528261Y36345963D01*
X189154233Y42408773D02*
X189204258Y42409193D01*
X174478328Y40620814D02*
X174574389Y40647539D01*
X209229462Y41620979D02*
X209328135Y41608384D01*
X248445833Y26549245D02*
X248362288Y26551992D01*
X165677146Y37965739D02*
X165773008Y37993729D01*
X88262635Y40647539D02*
X88166542Y40674110D01*
X216698157Y40501971D02*
X216747979Y40494412D01*
X36067721Y38225726D02*
X35975248Y38191630D01*
X69540882Y42386049D02*
X69441245Y42384512D01*
X49319207Y40983468D02*
X49269752Y40975766D01*
X11675791Y27235525D02*
X11761880Y27191354D01*
X36812387Y38486907D02*
X36718840Y38455360D01*
X190503825Y42412828D02*
X190603693Y42412599D01*
X165005732Y37771841D02*
X165101690Y37799310D01*
X42314245Y39866976D02*
X42264907Y39857656D01*
X41280934Y39663508D02*
X41231887Y39653389D01*
X94862177Y38652993D02*
X94766548Y38682174D01*
X184201107Y42235131D02*
X184251042Y42238454D01*
X39285548Y39208052D02*
X39189114Y39183538D01*
X47433593Y40696648D02*
X47383842Y40689198D01*
X72433083Y42412995D02*
X72333199Y42412828D01*
X181909720Y42037641D02*
X182009075Y42048122D01*
X183801788Y42207012D02*
X183851689Y42210643D01*
X59263616Y42112237D02*
X59163972Y42106828D01*
X79035236Y42207012D02*
X78985335Y42210643D01*
X183103729Y42151699D02*
X183153560Y42155894D01*
X43799707Y40130860D02*
X43750060Y40122470D01*
X49170803Y40960386D02*
X49121309Y40952714D01*
X46537414Y40562210D02*
X46487601Y40554710D01*
X35790728Y38122439D02*
X35698679Y38087336D01*
X171128649Y39623528D02*
X171224205Y39652892D01*
X131911656Y40320693D02*
X131936260Y40268478D01*
X75634842Y42374457D02*
X75584778Y42375815D01*
X55982213Y41878240D02*
X55883039Y41869138D01*
X207251392Y41841037D02*
X207350491Y41831399D01*
X159989165Y36490086D02*
X160086248Y36511331D01*
X131206349Y40979731D02*
X131183781Y40922879D01*
D12*
X46936490Y58552582D02*
G75*
G02*
X44915600Y58552582I-1010445J0D01*
G01*
X44915600Y58552582D02*
G75*
G02*
X46936490Y58552582I1010445J0D01*
G01*
D11*
X48278570Y40823736D02*
X48228917Y40816230D01*
X73732815Y42408353D02*
X73682791Y42408773D01*
X182406771Y42088227D02*
X182506263Y42097812D01*
X195388945Y42350369D02*
X195488662Y42348601D01*
X210707734Y41417489D02*
X210806202Y41402988D01*
X131564336Y41153371D02*
X131586223Y41094975D01*
X173519300Y40346074D02*
X173615093Y40374091D01*
D12*
X242836815Y84232555D02*
G75*
G02*
X240815925Y84232555I-1010445J0D01*
G01*
X240815925Y84232555D02*
G75*
G02*
X242836815Y84232555I1010445J0D01*
G01*
D11*
X130875830Y122360364D02*
X130899156Y122314825D01*
X170268699Y39358591D02*
X170364246Y39388071D01*
X72133476Y42412298D02*
X72033639Y42411933D01*
X170555342Y39447010D02*
X170650891Y39476465D01*
X12105442Y27029325D02*
X12191133Y26992483D01*
X54991331Y41781140D02*
X54892352Y41770665D01*
X37093787Y38579722D02*
X36999860Y38549085D01*
X131582835Y121380050D02*
X131558398Y121285553D01*
X85652823Y41295509D02*
X85555442Y41316252D01*
X194292528Y42369711D02*
X194392177Y42367985D01*
X79484103Y42172348D02*
X79434249Y42176379D01*
X166060518Y38078095D02*
X166156331Y38106347D01*
X83203462Y41743594D02*
X83104903Y41758606D01*
X133429923Y124094716D02*
X133388058Y124063620D01*
X35606776Y38051899D02*
X35515019Y38016116D01*
X247448555Y26678968D02*
X247365966Y26699311D01*
X130560209Y122892555D02*
X130589432Y122849582D01*
X163275670Y37292545D02*
X163371937Y37318336D01*
X185450542Y42307712D02*
X185500557Y42310176D01*
X74233180Y42402833D02*
X74183136Y42403478D01*
D12*
X151117260Y74832110D02*
G75*
G02*
X149096370Y74832110I-1010445J0D01*
G01*
X149096370Y74832110D02*
G75*
G02*
X151117260Y74832110I1010445J0D01*
G01*
D11*
X205464608Y41992461D02*
X205564011Y41985085D01*
X177281582Y41316252D02*
X177379018Y41336750D01*
X193794325Y42378127D02*
X193893964Y42376475D01*
X165964694Y38049908D02*
X166060518Y38078095D01*
X99850274Y37215820D02*
X99753944Y37241286D01*
X160436815Y128512555D02*
X136230851Y125077787D01*
X46288331Y40524619D02*
X46238509Y40517078D01*
X225555016Y38640110D02*
X225649187Y38610062D01*
X169313160Y39063742D02*
X169360943Y39078475D01*
X168644122Y38857854D02*
X168739712Y38887217D01*
X89604972Y40261420D02*
X89509240Y40289733D01*
X198183456Y42298313D02*
X198283323Y42296194D01*
X175440568Y40880536D02*
X175537012Y40905506D01*
X48477095Y40853851D02*
X48427472Y40846315D01*
X178258247Y41510421D02*
X178356191Y41528537D01*
X89413493Y40317953D02*
X89317724Y40346074D01*
X215552709Y40674288D02*
X215602481Y40666834D01*
X133184277Y123900017D02*
X133144299Y123866237D01*
X65951550Y42323694D02*
X65851729Y42321852D01*
X135121421Y37020345D02*
X135203904Y36991614D01*
X131026966Y122038079D02*
X131046235Y121991477D01*
X174862774Y40726767D02*
X174958977Y40752845D01*
X78685844Y42231732D02*
X78635917Y42235131D01*
X182904478Y42134420D02*
X183004092Y42143145D01*
X134640784Y37225173D02*
X134719194Y37187174D01*
X130617698Y122806102D02*
X130645964Y122762622D01*
X226583943Y38292933D02*
X226676691Y38259493D01*
X88358696Y40620814D02*
X88262635Y40647539D01*
X13972279Y26557508D02*
X14056224Y26552921D01*
X60559836Y42174555D02*
X60460074Y42170255D01*
X213616747Y40968073D02*
X213666221Y40960386D01*
X66151172Y42327332D02*
X66051365Y42325520D01*
X185250497Y42297579D02*
X185300502Y42300185D01*
X212974281Y41068535D02*
X213073037Y41053035D01*
X89030287Y40429795D02*
X88934426Y40457474D01*
X14808115Y26577637D02*
X14891263Y26587715D01*
X248529456Y26547966D02*
X248445833Y26549245D01*
X174766611Y40700520D02*
X174862774Y40726767D01*
X71734203Y42410467D02*
X71634414Y42409862D01*
X131452350Y120721633D02*
X131441222Y120628648D01*
X159308763Y36345963D02*
X159406055Y36366050D01*
X200480501Y42239981D02*
X200580355Y42236885D01*
X50060172Y41099549D02*
X49961471Y41084042D01*
X196685852Y42327332D02*
X196785659Y42325520D01*
X133995898Y124459005D02*
X133951086Y124433678D01*
X57173626Y41977589D02*
X57074250Y41969984D01*
X131294574Y41211767D02*
X131272688Y41153371D01*
X250048278Y26775648D02*
X249963223Y26750533D01*
X130141806Y123426468D02*
X130176442Y123387176D01*
X11589622Y27281165D02*
X11675791Y27235525D01*
X250133413Y26802224D02*
X250048278Y26775648D01*
X159794912Y36448080D02*
X159892053Y36469000D01*
X92759421Y39299615D02*
X92663872Y39329105D01*
X98791744Y37501783D02*
X98695624Y37528382D01*
X205365188Y41999724D02*
X205464608Y41992461D01*
X62456380Y42243025D02*
X62356523Y42239981D01*
X82907662Y41787994D02*
X82808983Y41802377D01*
X64154212Y42287408D02*
X64054339Y42285129D01*
X40547128Y39506663D02*
X40449595Y39484944D01*
X58267682Y42053849D02*
X58168152Y42047459D01*
X63355203Y42268114D02*
X63255329Y42265516D01*
X91039421Y39828562D02*
X90943843Y39857742D01*
X11330639Y27426875D02*
X11417045Y27376842D01*
X169408724Y39093204D02*
X169456504Y39107944D01*
X78935434Y42214273D02*
X78885523Y42217827D01*
X130034578Y123541465D02*
X130070863Y123503626D01*
X55783885Y41859904D02*
X55684748Y41850537D01*
X76710209Y132242555D02*
X62810209Y132242555D01*
X65352561Y42312411D02*
X65252715Y42310469D01*
X90943843Y39857742D02*
X90848260Y39886889D01*
X217495247Y40379640D02*
X217545053Y40371890D01*
X54595535Y41738373D02*
X54496637Y41727313D01*
X214906163Y40771280D02*
X214955860Y40763802D01*
X130619940Y39717275D02*
X130593299Y39669693D01*
X99946622Y37190472D02*
X99850274Y37215820D01*
X183652125Y42195802D02*
X183702006Y42199590D01*
X11200869Y27504867D02*
X11244151Y27478381D01*
X214657762Y40808722D02*
X214707431Y40801226D01*
X213913767Y40922111D02*
X213963297Y40914482D01*
X128429304Y124661839D02*
X128475689Y124641552D01*
X218391233Y40237542D02*
X218440972Y40229479D01*
X78536047Y42241778D02*
X78486103Y42245025D01*
X133151081Y38380063D02*
X133215228Y38309620D01*
X217246185Y40418201D02*
X217296002Y40410512D01*
X178650294Y41581518D02*
X178748422Y41598724D01*
X131721621Y40753870D02*
X131744865Y40698566D01*
X87878047Y40752845D02*
X87781809Y40778749D01*
X198782685Y42285129D02*
X198882560Y42282816D01*
X55883039Y41869138D02*
X55783885Y41859904D01*
X48774624Y40899263D02*
X48725052Y40891678D01*
X73132680Y42412133D02*
X73032696Y42412481D01*
X60759376Y42182927D02*
X60659601Y42178778D01*
X265056815Y53482555D02*
X251766084Y27585788D01*
X104069764Y36213000D02*
X103722932Y36306310D01*
X132276815Y122892555D02*
X132247592Y122849582D01*
X134333942Y37392627D02*
X134409634Y37348446D01*
X183502498Y42184279D02*
X183552368Y42188147D01*
X135017638Y124882928D02*
X134923206Y124854511D01*
X69341609Y42382950D02*
X69241972Y42381362D01*
X157889071Y39147074D02*
X157884559Y36258037D01*
X130070863Y123503626D02*
X130106334Y123465047D01*
X223454950Y39232337D02*
X223551476Y39208052D01*
X131961194Y122360364D02*
X131937868Y122314825D01*
X209426782Y41595633D02*
X209525410Y41582727D01*
X201977868Y42187000D02*
X202077648Y42182927D01*
X215602481Y40666834D02*
X215652251Y40659380D01*
X184800571Y42272779D02*
X184850552Y42275663D01*
X61857284Y42223908D02*
X61757451Y42220513D01*
X51341537Y41299163D02*
X51243050Y41284052D01*
X94097312Y38887217D02*
X94001729Y38916599D01*
X213468360Y40991175D02*
X213517817Y40983468D01*
X69839810Y42390492D02*
X69740167Y42389037D01*
X79832932Y42143145D02*
X79783113Y42147424D01*
X225930963Y38518147D02*
X226024637Y38486907D01*
X42758901Y39949094D02*
X42709444Y39940120D01*
X130965090Y122176984D02*
X130986393Y122130848D01*
X72832769Y42412945D02*
X72732825Y42413068D01*
X213666221Y40960386D02*
X213715715Y40952714D01*
X73332681Y42411203D02*
X73282678Y42411456D01*
X96872330Y38049908D02*
X96776506Y38078095D01*
X65053011Y42306514D02*
X64953154Y42304502D01*
X82117169Y41897301D02*
X82018195Y41910055D01*
X166347920Y38163029D02*
X166443700Y38191458D01*
X218540426Y40213268D02*
X218590142Y40205121D01*
X249032866Y26571076D02*
X248948765Y26563559D01*
X203075041Y42137904D02*
X203174734Y42132947D01*
X76035346Y42362482D02*
X75985284Y42364069D01*
X131735015Y121851299D02*
X131717779Y121804358D01*
X61158536Y42198785D02*
X61058737Y42194930D01*
X181711097Y42016139D02*
X181810393Y42026986D01*
X223067944Y39327203D02*
X223164828Y39303823D01*
X205564011Y41985085D02*
X205862132Y41962257D01*
X129874310Y38600666D02*
X129812201Y38525586D01*
X97639390Y37826864D02*
X97543459Y37854491D01*
X132802446Y123541465D02*
X132766161Y123503626D01*
X56974892Y41962257D02*
X56875550Y41954408D01*
X132490282Y39256910D02*
X132518621Y39213192D01*
X87010413Y40979181D02*
X86913782Y41003311D01*
X43750060Y40122470D02*
X43700413Y40114084D01*
X134041090Y124483335D02*
X133995898Y124459005D01*
X45092775Y40340732D02*
X45042984Y40332894D01*
X188653888Y42403478D02*
X188703934Y42404121D01*
X219086964Y40122470D02*
X219136611Y40114084D01*
X100139378Y37140111D02*
X100042989Y37165235D01*
X189554346Y42411456D02*
X189604350Y42411708D01*
X161635906Y36871874D02*
X161732544Y36895620D01*
X77786524Y42286904D02*
X77736530Y42289643D01*
X164717765Y37689913D02*
X164813769Y37717140D01*
X73382690Y42410907D02*
X73332681Y42411203D01*
X176213422Y41074376D02*
X176310251Y41097598D01*
X77436499Y42305248D02*
X77386482Y42307712D01*
X247945761Y26587715D02*
X247862695Y26599259D01*
X72333199Y42412828D02*
X72233331Y42412599D01*
X126880923Y125060290D02*
X126973489Y125050961D01*
X132138519Y39863108D02*
X132164482Y39813982D01*
X86041801Y41210056D02*
X85944642Y41231796D01*
X135455429Y36914690D02*
X135540630Y36892138D01*
X42610573Y39922040D02*
X42561160Y39912933D01*
X180818829Y41910055D02*
X180917839Y41922614D01*
X169599842Y39152162D02*
X169647619Y39166902D01*
X159211443Y36326051D02*
X159308763Y36345963D01*
X223744252Y39158788D02*
X223840494Y39133800D01*
X89126121Y40401997D02*
X89030287Y40429795D01*
X93667214Y39019565D02*
X93619430Y39034287D01*
X126697222Y125073671D02*
X126788819Y125067849D01*
X130512698Y39528493D02*
X130485379Y39482458D01*
X219880203Y39984726D02*
X219929705Y39975884D01*
X46587226Y40569714D02*
X46537414Y40562210D01*
X48625894Y40876522D02*
X48576308Y40868954D01*
X134454104Y124682125D02*
X134407720Y124661839D01*
X13043673Y26704712D02*
X13128489Y26683997D01*
X84088602Y41598724D02*
X83990430Y41615704D01*
X217046911Y40448819D02*
X217096732Y40441177D01*
X13128489Y26683997D02*
X13213228Y26664750D01*
X131960863Y40216263D02*
X131985806Y40164817D01*
X173423531Y40317953D02*
X173519300Y40346074D01*
X171988764Y39886889D02*
X172084350Y39916006D01*
X44794075Y40293497D02*
X44744307Y40285553D01*
X129996492Y38755457D02*
X129935740Y38677289D01*
X249454561Y26630655D02*
X249370065Y26615806D01*
X66749896Y42338038D02*
X66650126Y42336270D01*
X208636948Y41693247D02*
X208735755Y41681591D01*
X191501900Y42407698D02*
X191601644Y42406868D01*
X74383324Y42400720D02*
X74333273Y42401458D01*
X133546151Y37980574D02*
X133614372Y37919400D01*
X61557791Y42213533D02*
X61457970Y42209948D01*
X220374664Y39894647D02*
X220424052Y39885471D01*
X68444847Y42367985D02*
X68345196Y42366245D01*
X220769367Y39820079D02*
X220818652Y39810612D01*
X128038743Y37150718D02*
X127958977Y37115808D01*
X203274416Y42127903D02*
X203374089Y42122769D01*
X102265777Y36619917D02*
X102168860Y36642096D01*
X56478342Y41921808D02*
X56379082Y41913350D01*
X202676179Y42156882D02*
X202775908Y42152261D01*
X180225519Y41830519D02*
X180324311Y41844280D01*
X223358333Y39256391D02*
X223454950Y39232337D01*
X212776852Y41099549D02*
X212875553Y41084042D01*
X69441245Y42384512D02*
X69341609Y42382950D01*
X131698713Y40809949D02*
X131721621Y40753870D01*
X87974250Y40726767D02*
X87878047Y40752845D01*
X77386482Y42307712D02*
X77336467Y42310176D01*
X129612769Y123933797D02*
X129652747Y123900017D01*
X183452636Y42180327D02*
X183502498Y42184279D01*
X134594097Y124738916D02*
X134547309Y124720664D01*
X63754709Y42278075D02*
X63654833Y42275643D01*
X77136375Y42319629D02*
X77086346Y42321894D01*
X249878248Y26726891D02*
X249793351Y26704712D01*
X226491057Y38326054D02*
X226583943Y38292933D01*
X80131703Y42116461D02*
X80032136Y42125526D01*
X131717779Y121804358D02*
X131700543Y121757416D01*
X134640884Y124757168D02*
X134594097Y124738916D01*
X83006303Y41773407D02*
X82907662Y41787994D01*
X167879212Y38623841D02*
X167974847Y38652993D01*
X188703934Y42404121D02*
X188753974Y42404716D01*
X174286301Y40566915D02*
X174382298Y40593939D01*
X133556655Y124186145D02*
X133514221Y124155978D01*
X197085119Y42319998D02*
X197184949Y42318127D01*
X167496596Y38507586D02*
X167592264Y38536596D01*
X43303569Y40045908D02*
X43254010Y40037248D01*
X25340209Y31872571D02*
X16537483Y27097165D01*
X224415877Y38978719D02*
X224511414Y38951983D01*
X186801678Y42362482D02*
X186851740Y42364069D01*
X132592166Y123307906D02*
X132558386Y123267928D01*
X190304042Y42413086D02*
X190403941Y42412995D01*
X129290873Y37980574D02*
X129222652Y37919400D01*
X171415327Y39711547D02*
X171510889Y39740842D01*
X222679564Y39418586D02*
X222776783Y39396056D01*
D12*
X187516815Y98782555D02*
G75*
G02*
X185495925Y98782555I-1010445J0D01*
G01*
X185495925Y98782555D02*
G75*
G02*
X187516815Y98782555I1010445J0D01*
G01*
D11*
X95244760Y38536596D02*
X95149104Y38565643D01*
X44843852Y40301404D02*
X44794075Y40293497D01*
X161345849Y36801459D02*
X161442560Y36824795D01*
X38612537Y39031412D02*
X38516791Y39005192D01*
X74533480Y42398417D02*
X74483426Y42399202D01*
X172275539Y39974129D02*
X172371143Y40003128D01*
X167018148Y38363172D02*
X167113858Y38391966D01*
X65751905Y42319998D02*
X65652075Y42318127D01*
X130724466Y39912235D02*
X130698505Y39863108D01*
X42215568Y39848336D02*
X42166256Y39838942D01*
X130232709Y39083579D02*
X130203691Y39041406D01*
X220226451Y39922040D02*
X220275864Y39912933D01*
X81919185Y41922614D02*
X81820142Y41934977D01*
X187252246Y42375815D02*
X187302312Y42377167D01*
X182804888Y42125526D02*
X182904478Y42134420D01*
X211988016Y41223080D02*
X212086558Y41207728D01*
X92950521Y39240627D02*
X92854970Y39270121D01*
X61358152Y42206296D02*
X61258342Y42202577D01*
X187152117Y42373049D02*
X187202182Y42374457D01*
X132462282Y39301403D02*
X132490282Y39256910D01*
X198083591Y42300399D02*
X198183456Y42298313D01*
X47682302Y40733935D02*
X47632568Y40726475D01*
X219632576Y40028584D02*
X219682115Y40019864D01*
X161442560Y36824795D02*
X161539245Y36848269D01*
X88454726Y40593939D02*
X88358696Y40620814D01*
X56577619Y41930142D02*
X56478342Y41921808D01*
X127819386Y124882928D02*
X127913818Y124854511D01*
X45640656Y40425869D02*
X45590839Y40418201D01*
X128242927Y124738916D02*
X128289715Y124720664D01*
X224987481Y38814359D02*
X225082361Y38786020D01*
X131272688Y41153371D02*
X131250801Y41094975D01*
X184001412Y42221379D02*
X184051331Y42224857D01*
X48824177Y40906871D02*
X48774624Y40899263D01*
X226118184Y38455360D02*
X226211598Y38423502D01*
X58168152Y42047459D02*
X58068640Y42040965D01*
X99080209Y37422555D02*
X98984034Y37448868D01*
X42018372Y39810612D02*
X41969114Y39801068D01*
X80430253Y42088227D02*
X80330761Y42097812D01*
X191900812Y42404075D02*
X192000518Y42403046D01*
X215403431Y40696648D02*
X215453182Y40689198D01*
X188753974Y42404716D02*
X188804013Y42405310D01*
X73532729Y42409947D02*
X73482714Y42410282D01*
X131863130Y40426670D02*
X131887393Y40373683D01*
X131384674Y120721633D02*
X131395802Y120628648D01*
X129809888Y123761494D02*
X129848467Y123726022D01*
X265446815Y127502555D02*
X265056815Y53482555D01*
X41673821Y39743095D02*
X41624648Y39733312D01*
X55585632Y41841037D02*
X55486533Y41831399D01*
X169169810Y39019565D02*
X169217594Y39034287D01*
X35698679Y38087336D02*
X35606776Y38051899D01*
X192698259Y42394654D02*
X192797915Y42393297D01*
X171893181Y39857742D02*
X171988764Y39886889D01*
X129490231Y124031612D02*
X129531497Y123999603D01*
X127913818Y124854511D02*
X128008129Y124824085D01*
X172084350Y39916006D02*
X172179942Y39945087D01*
X54298908Y41704756D02*
X54200076Y41693247D01*
X169217594Y39034287D02*
X169265378Y39049011D01*
X197184949Y42318127D02*
X197284783Y42316241D01*
X166635225Y38248487D02*
X166730970Y38277079D01*
X177769279Y41416317D02*
X177866974Y41435606D01*
X251075144Y27191354D02*
X250989135Y27148646D01*
X132950718Y123689738D02*
X132912879Y123653453D01*
X76786128Y42334897D02*
X76736087Y42336966D01*
X126973489Y125050961D02*
X127066474Y125039833D01*
X179732121Y41758606D02*
X179830721Y41773407D01*
X189904299Y42412754D02*
X190004255Y42412945D01*
X93380520Y39107944D02*
X93332741Y39122681D01*
X131119245Y121804358D02*
X131136481Y121757416D01*
X43353150Y40054516D02*
X43303569Y40045908D01*
X-2609791Y127502555D02*
X-2219791Y53482555D01*
X75734971Y42371635D02*
X75684907Y42373049D01*
X15553569Y26721117D02*
X15636000Y26744389D01*
X208933308Y41657815D02*
X209032048Y41645693D01*
X62656103Y42248952D02*
X62556243Y42246016D01*
X165773008Y37993729D02*
X165868857Y38021784D01*
X57770174Y42020838D02*
X57670714Y42013911D01*
X164621744Y37662770D02*
X164717765Y37689913D01*
X58765505Y42084267D02*
X58665917Y42078383D01*
X199581695Y42265516D02*
X199681571Y42262876D01*
X198283323Y42296194D02*
X198383191Y42294044D01*
X220275864Y39912933D02*
X220325274Y39903822D01*
X186150982Y42338973D02*
X186201026Y42340983D01*
X183901590Y42214273D02*
X183951501Y42217827D01*
D12*
X243957260Y62362555D02*
G75*
G02*
X241936370Y62362555I-1010445J0D01*
G01*
X241936370Y62362555D02*
G75*
G02*
X243957260Y62362555I1010445J0D01*
G01*
D11*
X226398038Y38358855D02*
X226491057Y38326054D01*
X200026815Y132242555D02*
X202233613Y132080822D01*
X131753267Y121898087D02*
X131735015Y121851299D01*
X251636155Y27504867D02*
X251592873Y27478381D01*
X218987658Y40139196D02*
X219037317Y40130860D01*
X168548527Y38828513D02*
X168644122Y38857854D01*
X57869650Y42027653D02*
X57770174Y42020838D01*
X132695218Y123426468D02*
X132660582Y123387176D01*
X83695640Y41665304D02*
X83597290Y41681397D01*
X250303922Y26859780D02*
X250218628Y26830269D01*
X160436815Y128512555D02*
X160855220Y126626695D01*
X168166099Y38711389D02*
X168261713Y38740631D01*
X70238421Y42395972D02*
X70138765Y42394654D01*
X16128910Y26914820D02*
X16210784Y26948357D01*
X128102257Y124791640D02*
X128149198Y124774404D01*
X54200076Y41693247D02*
X54101269Y41681591D01*
X129886306Y123689738D02*
X129924145Y123653453D01*
X196286676Y42334498D02*
X196386463Y42332717D01*
X175055215Y40778749D02*
X175151492Y40804477D01*
X247862695Y26599259D02*
X247779708Y26612270D01*
X75484647Y42378470D02*
X75434583Y42379770D01*
X68046211Y42360985D02*
X67946539Y42359222D01*
X42462360Y39894647D02*
X42412972Y39885471D01*
X215851384Y40629541D02*
X215901177Y40622075D01*
X188553797Y42402148D02*
X188603844Y42402833D01*
X225649187Y38610062D02*
X225743237Y38579722D01*
X66849659Y42339801D02*
X66749896Y42338038D01*
X220966398Y39781902D02*
X221015629Y39772281D01*
X15057316Y26612270D02*
X15140223Y26626745D01*
X200180921Y42248952D02*
X200280781Y42246016D01*
X71235380Y42406868D02*
X71135649Y42405986D01*
X48079923Y40793729D02*
X48030240Y40786243D01*
X132033178Y122496285D02*
X132008849Y122451094D01*
X130203691Y39041406D02*
X130174673Y38999232D01*
X85262980Y41377017D02*
X85165388Y41396785D01*
X249963223Y26750533D02*
X249878248Y26726891D01*
X48526700Y40861402D02*
X48477095Y40853851D01*
X130346742Y39256910D02*
X130318403Y39213192D01*
X79683464Y42155894D02*
X79633635Y42160089D01*
X150307340Y39033849D02*
X150319708Y36771262D01*
X131358877Y41390044D02*
X131337671Y41330103D01*
X195189539Y42353909D02*
X195289237Y42352136D01*
X130876161Y40216263D02*
X130851218Y40164817D01*
X93906147Y38945995D02*
X93858360Y38960705D01*
X132112558Y39912235D02*
X132138519Y39863108D01*
X186201026Y42340983D02*
X186251074Y42342926D01*
X133686081Y124272857D02*
X133642601Y124244591D01*
X219929705Y39975884D02*
X219979184Y39966976D01*
X91995035Y39535337D02*
X91899483Y39564751D01*
X209525410Y41582727D02*
X209624016Y41569672D01*
X75034068Y42389093D02*
X74984006Y42390127D01*
X96106054Y38277079D02*
X96010318Y38305731D01*
X16046957Y26882749D02*
X16128910Y26914820D01*
X187602701Y42384644D02*
X187652765Y42385779D01*
X217096732Y40441177D02*
X217146551Y40433532D01*
X197883870Y42304502D02*
X197983730Y42302464D01*
X75184259Y42385779D02*
X75134196Y42386923D01*
X87781809Y40778749D02*
X87685532Y40804477D01*
X48576308Y40868954D02*
X48526700Y40861402D01*
D12*
X60180209Y81923445D02*
G75*
G02*
X58159319Y81923445I-1010445J0D01*
G01*
X58159319Y81923445D02*
G75*
G02*
X60180209Y81923445I1010445J0D01*
G01*
D11*
X196785659Y42325520D02*
X196885474Y42323694D01*
X98599521Y37555076D02*
X98503437Y37581866D01*
X169265378Y39049011D02*
X169313160Y39063742D01*
X202775908Y42152261D02*
X202875628Y42147558D01*
X41870626Y39781902D02*
X41821395Y39772281D01*
X197384620Y42314337D02*
X197484463Y42312411D01*
X207053139Y41859904D02*
X207152276Y41850537D01*
X176989603Y41253282D02*
X177086874Y41274517D01*
X41624648Y39733312D02*
X41575507Y39723448D01*
X41231887Y39653389D02*
X41182871Y39643184D01*
X132875805Y123616379D02*
X132838730Y123579304D01*
X195488662Y42348601D02*
X195588385Y42346843D01*
X130899156Y122314825D02*
X130921472Y122268972D01*
X249370065Y26615806D02*
X249285646Y26602424D01*
X222582264Y39440909D02*
X222679564Y39418586D01*
X171224205Y39652892D02*
X171319763Y39682231D01*
X128795934Y124483335D02*
X128841126Y124459005D01*
X224606848Y38924991D02*
X224702171Y38897737D01*
X213517817Y40983468D02*
X213567272Y40975766D01*
X188453700Y42400720D02*
X188503751Y42401458D01*
X219136611Y40114084D02*
X219186241Y40105645D01*
X127633120Y36991614D02*
X127123958Y36851667D01*
X59064340Y42101332D02*
X58964718Y42095741D01*
X179633562Y41743594D02*
X179732121Y41758606D01*
X60603411Y132080822D02*
G75*
G02*
X53450185Y131332552I-3578947J-351822D01*
G01*
X132406625Y39391157D02*
X132434284Y39345895D01*
X220621456Y39848336D02*
X220670768Y39838942D01*
X190104199Y42413068D02*
X190204129Y42413114D01*
X181413387Y41982496D02*
X181512593Y41993897D01*
X129425280Y38107558D02*
X129358416Y38043292D01*
X247779708Y26612270D02*
X247696801Y26626745D01*
X83793948Y41648992D02*
X83695640Y41665304D01*
X131436070Y41510698D02*
X131456937Y41449984D01*
X197684161Y42308503D02*
X197784013Y42306514D01*
X213073037Y41053035D02*
X213171820Y41037547D01*
X100428674Y37065463D02*
X100332220Y37090223D01*
X134828895Y124824085D02*
X134734767Y124791640D01*
X214707431Y40801226D02*
X214757101Y40793729D01*
X89317724Y40346074D02*
X89221931Y40374091D01*
X207845693Y41781140D02*
X207944672Y41770665D01*
X131984519Y122405902D02*
X131961194Y122360364D01*
X45740292Y40441177D02*
X45690473Y40433532D01*
X177379018Y41336750D02*
X177476505Y41357006D01*
X226304884Y38391337D02*
X226398038Y38358855D01*
X184300977Y42241778D02*
X184350921Y42245025D01*
X204171107Y42078383D02*
X204270684Y42072401D01*
X168739712Y38887217D02*
X168835295Y38916599D01*
X59761983Y42137904D02*
X59662290Y42132947D01*
X63854586Y42280461D02*
X63754709Y42278075D01*
X71634414Y42409862D02*
X71534640Y42409193D01*
X206755620Y41887211D02*
X206854811Y41878240D01*
X131337671Y41330103D02*
X131316122Y41270935D01*
X14056224Y26552921D02*
X14140083Y26549803D01*
X82216110Y41884347D02*
X82117169Y41897301D01*
X250817355Y27067632D02*
X250731582Y27029325D01*
X85458006Y41336750D02*
X85360519Y41357006D01*
X68544496Y42369711D02*
X68444847Y42367985D01*
X220867910Y39801068D02*
X220917167Y39791523D01*
D12*
X222836815Y95262555D02*
G75*
G02*
X220815925Y95262555I-1010445J0D01*
G01*
X220815925Y95262555D02*
G75*
G02*
X222836815Y95262555I1010445J0D01*
G01*
D11*
X50651910Y41192345D02*
X50553337Y41176927D01*
X136048205Y125067849D02*
X135956101Y125060290D01*
X72033639Y42411933D02*
X71933813Y42411508D01*
X48328208Y40831259D02*
X48278570Y40823736D01*
X37849543Y38814359D02*
X37754663Y38786020D01*
X131340217Y121002611D02*
X131356908Y120908663D01*
X204668872Y42047459D02*
X204768384Y42040965D01*
X60958945Y42191003D02*
X60859156Y42187000D01*
X53903716Y41657815D02*
X53804976Y41645693D01*
X73232674Y42411708D02*
X73132680Y42412133D01*
X53706256Y41633415D02*
X53607562Y41620979D01*
X129237396Y124215368D02*
X129280369Y124186145D01*
X41379060Y39683660D02*
X41329982Y39673627D01*
X40791294Y39560090D02*
X40742419Y39549517D01*
X225837164Y38549085D02*
X225930963Y38518147D01*
X186701558Y42359202D02*
X186751619Y42360843D01*
X129749412Y38452052D02*
X129685943Y38380063D01*
X223164828Y39303823D02*
X223261625Y39280218D01*
X13551378Y26602424D02*
X13635720Y26590510D01*
X129771309Y123796965D02*
X129809888Y123761494D01*
X128289715Y124720664D02*
X128336317Y124701395D01*
X70736808Y42401975D02*
X70637118Y42400858D01*
X206854811Y41878240D02*
X206953985Y41869138D01*
X170746440Y39505907D02*
X170841989Y39535337D01*
X168930877Y38945995D02*
X168978664Y38960705D01*
X131183781Y40922879D02*
X131161215Y40866028D01*
X194093241Y42373123D02*
X194192884Y42371421D01*
X92472778Y39388071D02*
X92377229Y39417545D01*
X77836517Y42284164D02*
X77786524Y42286904D01*
X71434874Y42408474D02*
X71335124Y42407698D01*
X173232052Y40261420D02*
X173327784Y40289733D01*
X38325610Y38951983D02*
X38230176Y38924991D01*
X36253081Y38292933D02*
X36160333Y38259493D01*
X133642601Y124244591D02*
X133599628Y124215368D01*
X98407369Y37608745D02*
X98311316Y37635716D01*
X220522779Y39866976D02*
X220572117Y39857656D01*
D12*
X172387260Y58173000D02*
G75*
G02*
X170366370Y58173000I-1010445J0D01*
G01*
X170366370Y58173000D02*
G75*
G02*
X172387260Y58173000I1010445J0D01*
G01*
D11*
X131499353Y41330103D02*
X131520902Y41270935D01*
X14641585Y26561882D02*
X14724891Y26569029D01*
X76085405Y42360843D02*
X76035346Y42362482D01*
X186501332Y42352277D02*
X186551387Y42354038D01*
X51046050Y41253662D02*
X50947536Y41238392D01*
X132110149Y122630310D02*
X132083832Y122585909D01*
X102168860Y36642096D02*
X102071972Y36664421D01*
X206160110Y41938354D02*
X206259405Y41930142D01*
X76986281Y42326357D02*
X76936247Y42328557D01*
X131380087Y41449984D02*
X131358877Y41390044D01*
X86623602Y41074376D02*
X86526773Y41097598D01*
X184500770Y42254617D02*
X184550729Y42257720D01*
X163179386Y37266861D02*
X163275670Y37292545D01*
X163949144Y37475279D02*
X164045280Y37501783D01*
X130852505Y122405902D02*
X130875830Y122360364D01*
X131790789Y121991477D02*
X131771519Y121944874D01*
X53015848Y41543133D02*
X52917297Y41529657D01*
X132750761Y38875799D02*
X132780459Y38835169D01*
X92377229Y39417545D02*
X92281682Y39447010D01*
X176698115Y41188068D02*
X176795223Y41210056D01*
X188053261Y42394057D02*
X188103319Y42394987D01*
X209386815Y131332555D02*
X239006815Y127502555D01*
X47930861Y40771280D02*
X47881164Y40763802D01*
X204569342Y42053849D02*
X204668872Y42047459D01*
X66650126Y42336270D02*
X66550348Y42334498D01*
D12*
X113579764Y91573000D02*
G75*
G02*
X111558874Y91573000I-1010445J0D01*
G01*
X111558874Y91573000D02*
G75*
G02*
X113579764Y91573000I1010445J0D01*
G01*
X151116815Y108882555D02*
G75*
G02*
X149095925Y108882555I-1010445J0D01*
G01*
X149095925Y108882555D02*
G75*
G02*
X151116815Y108882555I1010445J0D01*
G01*
D11*
X46935847Y40622075D02*
X46886054Y40614609D01*
X131609255Y121474545D02*
X131582835Y121380050D01*
X132660582Y123387176D02*
X132625946Y123347884D01*
X133280052Y38240721D02*
X133345560Y38173367D01*
X78785693Y42224857D02*
X78735775Y42228333D01*
X64054339Y42285129D02*
X63954464Y42282816D01*
X181115962Y41947144D02*
X181215068Y41959121D01*
X72532982Y42413086D02*
X72433083Y42412995D01*
X133729561Y124301123D02*
X133686081Y124272857D01*
X100525149Y37040821D02*
X100428674Y37065463D01*
X86913782Y41003311D02*
X86817107Y41027227D01*
X191003024Y42411019D02*
X191102821Y42410467D01*
X49862743Y41068535D02*
X49763987Y41053035D01*
X46487601Y40554710D02*
X46437784Y40547194D01*
D12*
X222886815Y77892555D02*
G75*
G02*
X220865925Y77892555I-1010445J0D01*
G01*
X220865925Y77892555D02*
G75*
G02*
X222886815Y77892555I1010445J0D01*
G01*
D11*
X188203434Y42396751D02*
X188253489Y42397586D01*
X211298534Y41329199D02*
X211397008Y41314214D01*
X12873801Y26750533D02*
X12958776Y26726891D01*
X67846859Y42357452D02*
X67747177Y42355681D01*
X213171820Y41037547D02*
X213221228Y41029807D01*
X13297884Y26646969D02*
X13382463Y26630655D01*
X47035427Y40637002D02*
X46985640Y40629541D01*
X136066088Y36789272D02*
X136156042Y36777535D01*
D12*
X114219764Y74783000D02*
G75*
G02*
X112198874Y74783000I-1010445J0D01*
G01*
X112198874Y74783000D02*
G75*
G02*
X114219764Y74783000I1010445J0D01*
G01*
D11*
X132546960Y39169472D02*
X132575637Y39126526D01*
X246462732Y27019825D02*
X246381098Y27057763D01*
X225743237Y38579722D02*
X225837164Y38549085D01*
X96297557Y38219945D02*
X96201799Y38248487D01*
X11114263Y27558568D02*
X11157586Y27531351D01*
X57372416Y41992461D02*
X57273013Y41985085D01*
X128117830Y37187174D02*
X128038743Y37150718D01*
X84676668Y41492067D02*
X84578777Y41510421D01*
X102400209Y128512555D02*
X101981804Y126626695D01*
X194790813Y42360985D02*
X194890485Y42359222D01*
X187202182Y42374457D02*
X187252246Y42375815D01*
X52129290Y41417489D02*
X52030822Y41402988D01*
X167687920Y38565643D02*
X167783569Y38594722D01*
X47632568Y40726475D02*
X47582836Y40719015D01*
X136230851Y125077787D02*
X136139802Y125073671D01*
X177086874Y41274517D02*
X177184201Y41295509D01*
X186351174Y42346751D02*
X186401226Y42348636D01*
X50849008Y41223080D02*
X50750466Y41207728D01*
X102750776Y36511331D02*
X102653720Y36532737D01*
D12*
X25561099Y47022555D02*
G75*
G02*
X23540209Y47022555I-1010445J0D01*
G01*
X23540209Y47022555D02*
G75*
G02*
X25561099Y47022555I1010445J0D01*
G01*
D11*
X13719978Y26580057D02*
X13804158Y26571076D01*
X13466959Y26615806D02*
X13551378Y26602424D01*
X47184773Y40659380D02*
X47134993Y40651922D01*
X217196368Y40425869D02*
X217246185Y40418201D01*
X220720081Y39829550D02*
X220769367Y39820079D01*
X88646692Y40539756D02*
X88550723Y40566915D01*
X78136400Y42266869D02*
X78086428Y42269824D01*
X135713066Y36851667D02*
X135800302Y36833753D01*
X54892352Y41770665D02*
X54793392Y41760043D01*
X249708535Y26683997D02*
X249623796Y26664750D01*
X163660623Y37396349D02*
X163756815Y37422555D01*
X103139283Y36427320D02*
X103042112Y36448080D01*
X162601235Y37115112D02*
X162697646Y37140111D01*
X41919857Y39791523D02*
X41870626Y39781902D01*
X101201118Y36871874D02*
X101104480Y36895620D01*
X213369481Y41006611D02*
X213418920Y40998892D01*
X104042884Y39150299D02*
G75*
G02*
X111629756Y39033849I3796220J123141D01*
G01*
X171797603Y39828562D02*
X171893181Y39857742D01*
X164141400Y37528382D02*
X164237503Y37555076D01*
X126606173Y125077787D02*
X126697222Y125073671D01*
X130921472Y122268972D02*
X130943788Y122223119D01*
X205862132Y41962257D02*
X205961474Y41954408D01*
X162986750Y37215820D02*
X163083080Y37241286D01*
X45690473Y40433532D02*
X45640656Y40425869D01*
X87396456Y40880536D02*
X87300012Y40905506D01*
X129084171Y37801685D02*
X129013912Y37745146D01*
X90465881Y40003128D02*
X90370271Y40032077D01*
X71933813Y42411508D02*
X71834000Y42411019D01*
X62356523Y42239981D02*
X62256669Y42236885D01*
X199481821Y42268114D02*
X199581695Y42265516D01*
X65652075Y42318127D02*
X65552241Y42316241D01*
X35240635Y37906683D02*
X35149473Y37869501D01*
X45939576Y40471656D02*
X45889754Y40464058D01*
X55090332Y41791471D02*
X54991331Y41781140D01*
X99368838Y37344236D02*
X99272609Y37370242D01*
X183053911Y42147424D02*
X183103729Y42151699D01*
X97831292Y37771841D02*
X97735334Y37799310D01*
X131227769Y121474545D02*
X131254189Y121380050D01*
X208043632Y41760043D02*
X208142570Y41749284D01*
X68943060Y42376475D02*
X68843424Y42374808D01*
X12447731Y26890757D02*
X12533102Y26859780D01*
X96776506Y38078095D02*
X96680693Y38106347D01*
X77536522Y42300185D02*
X77486511Y42302715D01*
X131356908Y120908663D02*
X131371719Y120814987D01*
X201578682Y42202577D02*
X201678488Y42198785D01*
X15305800Y26660094D02*
X15388469Y26678968D01*
X200580355Y42236885D02*
X200680206Y42233727D01*
X129961219Y123616379D02*
X129998294Y123579304D01*
X78635917Y42235131D02*
X78585982Y42238454D01*
X134361335Y124641552D02*
X134315200Y124620250D01*
X83104903Y41758606D02*
X83006303Y41773407D01*
X14891263Y26587715D02*
X14974329Y26599259D01*
X76135466Y42359202D02*
X76085405Y42360843D01*
X215154722Y40733935D02*
X215204456Y40726475D01*
X128652428Y37485621D02*
X128578095Y37438352D01*
X39478691Y39256391D02*
X39382074Y39232337D01*
X130344444Y123186656D02*
X130376452Y123145391D01*
X195688119Y42345081D02*
X195787859Y42343322D01*
X80529717Y42078470D02*
X80430253Y42088227D01*
X132058505Y122541097D02*
X132033178Y122496285D01*
X45192367Y40356343D02*
X45142572Y40348535D01*
X128705204Y124530990D02*
X128750743Y124507664D01*
X54694454Y41749284D02*
X54595535Y41738373D01*
X194890485Y42359222D02*
X194990165Y42357452D01*
X185700649Y42319629D02*
X185750678Y42321894D01*
X40986945Y39602002D02*
X40937997Y39591616D01*
X217445438Y40387386D02*
X217495247Y40379640D01*
X248028909Y26577637D02*
X247945761Y26587715D01*
X131630675Y40979731D02*
X131653243Y40922879D01*
X199881314Y42257453D02*
X199981185Y42254670D01*
X164525708Y37635716D02*
X164621744Y37662770D01*
X175730033Y40954832D02*
X175826611Y40979181D01*
X210609261Y41431895D02*
X210707734Y41417489D01*
X251549628Y27452630D02*
X251506385Y27426875D01*
X198682812Y42287408D02*
X198782685Y42285129D01*
X175344168Y40855375D02*
X175440568Y40880536D01*
X75785035Y42370169D02*
X75734971Y42371635D01*
X202476700Y42165876D02*
X202576443Y42161420D01*
X45790113Y40448819D02*
X45740292Y40441177D01*
X41084875Y39622682D02*
X41035893Y39612389D01*
X73282678Y42411456D02*
X73232674Y42411708D01*
D12*
X237537260Y37702555D02*
G75*
G02*
X235516370Y37702555I-1010445J0D01*
G01*
X235516370Y37702555D02*
G75*
G02*
X237537260Y37702555I1010445J0D01*
G01*
D11*
X85847421Y41253282D02*
X85750150Y41274517D01*
X96489104Y38163029D02*
X96393324Y38191458D01*
X223551476Y39208052D02*
X223647910Y39183538D01*
X198982438Y42280461D02*
X199082315Y42278075D01*
X194990165Y42357452D02*
X195089847Y42355681D01*
X132336205Y122977962D02*
X132306038Y122935528D01*
X13213228Y26664750D02*
X13297884Y26646969D01*
X250389293Y26890757D02*
X250303922Y26859780D01*
X46637037Y40577206D02*
X46587226Y40569714D01*
X134258929Y37438352D02*
X134333942Y37392627D01*
X84186730Y41581518D02*
X84088602Y41598724D01*
X132912879Y123653453D02*
X132875805Y123616379D01*
X44147462Y40188781D02*
X44097761Y40180585D01*
X43551538Y40088708D02*
X43501923Y40080217D01*
X193296142Y42386049D02*
X193395779Y42384512D01*
X40644736Y39528184D02*
X40547128Y39506663D01*
X246381098Y27057763D02*
X246299541Y27097165D01*
X135976815Y36802555D02*
X136066088Y36789272D01*
X220572117Y39857656D02*
X220621456Y39848336D01*
X75334452Y42382261D02*
X75284386Y42383452D01*
X93428300Y39093204D02*
X93380520Y39107944D01*
X179929362Y41787994D02*
X180028041Y41802377D01*
X131542450Y41211767D02*
X131564336Y41153371D01*
X190703548Y42412298D02*
X190803385Y42411933D01*
X216299610Y40562210D02*
X216349423Y40554710D01*
X185400525Y42305248D02*
X185450542Y42307712D01*
X131637672Y121568977D02*
X131609255Y121474545D01*
X38039639Y38870213D02*
X37944534Y38842422D01*
X188253489Y42397586D02*
X188303544Y42398417D01*
X217545053Y40371890D02*
X217594855Y40364120D01*
X43700413Y40114084D02*
X43650783Y40105645D01*
X135540630Y36892138D02*
X135626506Y36871131D01*
X129685943Y38380063D02*
X129621796Y38309620D01*
X159503312Y36386304D02*
X159600540Y36406731D01*
X64953154Y42304502D02*
X64853294Y42302464D01*
X132988557Y123726022D02*
X132950718Y123689738D01*
X169074240Y38990129D02*
X169122028Y39004841D01*
X56776223Y41946443D02*
X56676914Y41938354D01*
X172849297Y40147318D02*
X172944963Y40175960D01*
X131893236Y122223119D02*
X131871934Y122176984D01*
X48129593Y40801226D02*
X48079923Y40793729D01*
X50454745Y41161483D02*
X50356133Y41146024D01*
X60360324Y42165876D02*
X60260581Y42161420D01*
X49071816Y40945043D02*
X49022303Y40937392D01*
X182705321Y42116461D02*
X182804888Y42125526D01*
X197784013Y42306514D02*
X197883870Y42304502D01*
X210018265Y41516050D02*
X210116791Y41502315D01*
X129013912Y37745146D02*
X128942973Y37690152D01*
X52424725Y41460395D02*
X52326242Y41446197D01*
X135370910Y36938786D02*
X135455429Y36914690D01*
X187051989Y42370169D02*
X187102053Y42371635D01*
X226024637Y38486907D02*
X226118184Y38455360D01*
X54101269Y41681591D02*
X54002480Y41669776D01*
X84970050Y41435606D02*
X84872307Y41454661D01*
X169552062Y39137419D02*
X169599842Y39152162D01*
X62256669Y42236885D02*
X62156818Y42233727D01*
X222970974Y39350368D02*
X223067944Y39327203D01*
X11287396Y27452630D02*
X11330639Y27426875D01*
X131480116Y120908663D02*
X131465305Y120814987D01*
X166252131Y38134655D02*
X166347920Y38163029D01*
X13635720Y26590510D02*
X13719978Y26580057D01*
X131431893Y120536082D02*
X131424334Y120443978D01*
X54793392Y41760043D02*
X54694454Y41749284D01*
X43849366Y40139196D02*
X43799707Y40130860D01*
X189104209Y42408353D02*
X189154233Y42408773D01*
X162311875Y37040821D02*
X162408350Y37065463D01*
X217893613Y40317184D02*
X217943397Y40309311D01*
X131810058Y122038079D02*
X131790789Y121991477D01*
X89700681Y40233017D02*
X89604972Y40261420D01*
X93046073Y39211138D02*
X92950521Y39240627D01*
X100621648Y37016301D02*
X100525149Y37040821D01*
X250474747Y26923198D02*
X250389293Y26890757D01*
X131830345Y122084464D02*
X131810058Y122038079D01*
X204867885Y42034364D02*
X204967374Y42027653D01*
X192997214Y42390492D02*
X193096857Y42389037D01*
X132036032Y40062701D02*
X132061314Y40012031D01*
X184600688Y42260819D02*
X184650656Y42263845D01*
X61657618Y42217054D02*
X61557791Y42213533D01*
X75234323Y42384644D02*
X75184259Y42385779D01*
X185850743Y42326357D02*
X185900777Y42328557D01*
X86429889Y41120587D02*
X86332953Y41143330D01*
X87106991Y40954832D02*
X87010413Y40979181D01*
X250560277Y26957108D02*
X250474747Y26923198D01*
X186551387Y42354038D02*
X186601444Y42355800D01*
X56279838Y41904764D02*
X56180614Y41896051D01*
X133861874Y124382034D02*
X133817473Y124355717D01*
X103333712Y36386304D02*
X103236484Y36406731D01*
X14558201Y26556204D02*
X14641585Y26561882D01*
X160474302Y36597890D02*
X160571247Y36619917D01*
X185750678Y42321894D02*
X185800708Y42324159D01*
X134734767Y124791640D02*
X134687826Y124774404D01*
X174190332Y40539756D02*
X174286301Y40566915D01*
X76585950Y42342926D02*
X76535900Y42344869D01*
X111639764Y36693000D02*
X126430209Y36732555D01*
X131065505Y121944874D02*
X131083757Y121898087D01*
X246954212Y26823008D02*
X246872100Y26852143D01*
X76836169Y42332825D02*
X76786128Y42334897D01*
X246708114Y26914820D02*
X246626240Y26948357D01*
X131515403Y121096777D02*
X131496807Y121002611D01*
X206656410Y41896051D02*
X206755620Y41887211D01*
X68145878Y42362748D02*
X68046211Y42360985D01*
X169743173Y39196395D02*
X169790951Y39211138D01*
X183253229Y42164206D02*
X183303070Y42168317D01*
X131278626Y121285553D02*
X131301097Y121191110D01*
X130673261Y122718666D02*
X130700558Y122674710D01*
X219583014Y40037248D02*
X219632576Y40028584D01*
X131316122Y41270935D02*
X131294574Y41211767D01*
X247201024Y26744389D02*
X247118675Y26769129D01*
X62855839Y42254670D02*
X62755973Y42251834D01*
X81820142Y41934977D02*
X81721062Y41947144D01*
X82710264Y41816551D02*
X82611505Y41830519D01*
X179436563Y41712924D02*
X179535043Y41728367D01*
X58367223Y42060136D02*
X58267682Y42053849D01*
X130803846Y122496285D02*
X130828175Y122451094D01*
X133087612Y38452052D02*
X133151081Y38380063D01*
X129322803Y124155978D02*
X129365237Y124125811D01*
X133823112Y37745146D02*
X133894051Y37690152D01*
X129019551Y124355717D02*
X129063507Y124328420D01*
X59662290Y42132947D02*
X59562608Y42127903D01*
X63954464Y42282816D02*
X63854586Y42280461D01*
X188854050Y42405865D02*
X188904086Y42406416D01*
X214558454Y40823736D02*
X214608107Y40816230D01*
X198383191Y42294044D02*
X198483064Y42291862D01*
X225271776Y38728509D02*
X225366308Y38699330D01*
X226769303Y38225726D02*
X226861776Y38191630D01*
X73932938Y42406416D02*
X73882903Y42406923D01*
X185100494Y42289643D02*
X185150494Y42292312D01*
X209130768Y41633415D02*
X209229462Y41620979D01*
X15471058Y26699311D02*
X15553569Y26721117D01*
X88838542Y40485030D02*
X88742630Y40512456D01*
X185800708Y42324159D02*
X185850743Y42326357D01*
X78585982Y42238454D02*
X78536047Y42241778D01*
X49121309Y40952714D02*
X49071816Y40945043D01*
X14223866Y26548152D02*
X14307568Y26547966D01*
X134110941Y37534436D02*
X134184596Y37485621D01*
X169982054Y39270121D02*
X170077603Y39299615D01*
X74583535Y42397586D02*
X74533480Y42398417D01*
X128930750Y124408351D02*
X128975150Y124382034D01*
X78436158Y42248273D02*
X78386206Y42251447D01*
X225366308Y38699330D02*
X225460722Y38669865D01*
X101781455Y36732293D02*
X101684671Y36755207D01*
X79583795Y42164206D02*
X79533954Y42168317D01*
X135770550Y125039833D02*
X135677196Y125026878D01*
X84382848Y41546428D02*
X84284813Y41564086D01*
X173040644Y40204530D02*
X173136343Y40233017D01*
X128578095Y37438352D02*
X128503082Y37392627D01*
X216100374Y40592178D02*
X216150178Y40584696D01*
X76535900Y42344869D02*
X76485850Y42346751D01*
X79234783Y42192013D02*
X79184899Y42195802D01*
X23830209Y127502555D02*
X-2609791Y127502555D01*
X195588385Y42346843D02*
X195688119Y42345081D01*
X43998383Y40164106D02*
X43948703Y40155821D01*
X76485850Y42346751D02*
X76435798Y42348636D01*
X132518621Y39213192D02*
X132546960Y39169472D01*
X77636531Y42294981D02*
X77586527Y42297579D01*
X168261713Y38740631D02*
X168357323Y38769898D01*
X77486511Y42302715D02*
X77436499Y42305248D01*
X56180614Y41896051D02*
X56081404Y41887211D01*
X165197634Y37826864D02*
X165293565Y37854491D01*
X44644784Y40269627D02*
X44595025Y40261645D01*
X216000769Y40607133D02*
X216050570Y40599657D01*
X12019669Y27067632D02*
X12105442Y27029325D01*
X127630394Y124933785D02*
X127724891Y124909348D01*
X187402441Y42379770D02*
X187452507Y42381016D01*
X130374742Y39301403D02*
X130346742Y39256910D01*
X210313806Y41474484D02*
X210412299Y41460395D01*
X220177018Y39931080D02*
X220226451Y39922040D01*
X219186241Y40105645D02*
X219235875Y40097204D01*
X82315012Y41871194D02*
X82216110Y41884347D01*
X68345196Y42366245D02*
X68245539Y42364502D01*
X58068640Y42040965D02*
X57969139Y42034364D01*
X217794040Y40332894D02*
X217843831Y40325056D01*
X56379082Y41913350D02*
X56279838Y41904764D01*
X44396052Y40229479D02*
X44346325Y40221374D01*
X85555442Y41316252D02*
X85458006Y41336750D01*
X12191133Y26992483D02*
X12276747Y26957108D01*
X248195439Y26561882D02*
X248112133Y26569029D01*
X164813769Y37717140D02*
X164909757Y37744450D01*
X57969139Y42034364D02*
X57869650Y42027653D01*
X127253504Y125012067D02*
X127347452Y124995376D01*
X185900777Y42328557D02*
X185950815Y42330690D01*
X189704344Y42412133D02*
X189804328Y42412481D01*
X162408350Y37065463D02*
X162504804Y37090223D01*
X131456937Y41449984D02*
X131478147Y41390044D01*
X72932725Y42412754D02*
X72832769Y42412945D01*
X39189114Y39183538D02*
X39092772Y39158788D01*
X131937868Y122314825D02*
X131915552Y122268972D01*
X43452327Y40071665D02*
X43402728Y40063118D01*
X184101249Y42228333D02*
X184151180Y42231732D01*
X248613158Y26548152D02*
X248529456Y26547966D01*
X177184201Y41295509D02*
X177281582Y41316252D01*
X186050896Y42334897D02*
X186100937Y42336966D01*
X215005571Y40756335D02*
X215055279Y40748862D01*
X11070940Y27585788D02*
X11114263Y27558568D01*
X211200065Y41344114D02*
X211298534Y41329199D01*
X218888321Y40155821D02*
X218937995Y40147533D01*
X41035893Y39612389D02*
X40986945Y39602002D01*
X50750466Y41207728D02*
X50651910Y41192345D01*
X46437784Y40547194D02*
X46387967Y40539679D01*
X52227763Y41431895D02*
X52129290Y41417489D01*
X37944534Y38842422D02*
X37849543Y38814359D01*
X91517261Y39682231D02*
X91421697Y39711547D01*
X248278823Y26556204D02*
X248195439Y26561882D01*
X41969114Y39801068D02*
X41919857Y39791523D01*
X203374089Y42122769D02*
X203473754Y42117548D01*
X83498897Y41697271D02*
X83400461Y41712924D01*
X12618396Y26830269D02*
X12703611Y26802224D01*
X190803385Y42411933D02*
X190903211Y42411508D01*
X76435798Y42348636D02*
X76385747Y42350458D01*
X95627468Y38420810D02*
X95531780Y38449694D01*
X185550579Y42312570D02*
X185600598Y42314969D01*
X214955860Y40763802D02*
X215005571Y40756335D01*
X216199987Y40577206D02*
X216249798Y40569714D01*
X73982974Y42405865D02*
X73932938Y42406416D01*
X127958977Y37115808D02*
X127715603Y37020345D01*
X15223053Y26642685D02*
X15305800Y26660094D01*
X246544446Y26983360D02*
X246462732Y27019825D01*
X128521824Y124620250D02*
X128567960Y124598947D01*
X186451277Y42350458D02*
X186501332Y42352277D01*
X131138311Y40809949D02*
X131115403Y40753870D01*
X38230176Y38924991D02*
X38134853Y38897737D01*
X217993172Y40301404D02*
X218042949Y40293497D01*
X221408883Y39693692D02*
X221457964Y39683660D01*
X169456504Y39107944D02*
X169504283Y39122681D01*
X184850552Y42275663D02*
X184900532Y42278542D01*
X131936260Y40268478D02*
X131960863Y40216263D01*
X193694689Y42379752D02*
X193794325Y42378127D01*
X172658004Y40089819D02*
X172753645Y40118602D01*
X224511414Y38951983D02*
X224606848Y38924991D01*
X44097761Y40180585D02*
X44048072Y40172348D01*
X213963297Y40914482D02*
X214012847Y40906871D01*
X74033011Y42405310D02*
X73982974Y42405865D01*
X39963104Y39373321D02*
X39866050Y39350368D01*
X83597290Y41681397D02*
X83498897Y41697271D01*
X195887607Y42341563D02*
X195987365Y42339801D01*
X172562372Y40060980D02*
X172658004Y40089819D01*
X132780459Y38835169D02*
X132840532Y38755457D01*
X47483348Y40704106D02*
X47433593Y40696648D01*
X49961471Y41084042D02*
X49862743Y41068535D01*
X175923242Y41003311D02*
X176019917Y41027227D01*
X209919727Y41529657D02*
X210018265Y41516050D01*
X130826275Y40113374D02*
X130800992Y40062701D01*
X51440016Y41314214D02*
X51341537Y41299163D01*
X44246882Y40205121D02*
X44197168Y40196974D01*
X35423408Y37979988D02*
X35331946Y37943511D01*
X96584893Y38134655D02*
X96489104Y38163029D01*
X82808983Y41802377D02*
X82710264Y41816551D01*
X53508889Y41608384D02*
X53410242Y41595633D01*
X133894051Y37690152D02*
X133965666Y37636702D01*
X131250801Y41094975D02*
X131228574Y41037353D01*
X183951501Y42217827D02*
X184001412Y42221379D01*
X47134993Y40651922D02*
X47085213Y40644465D01*
X76385747Y42350458D02*
X76335692Y42352277D01*
X35975248Y38191630D02*
X35882917Y38157197D01*
X183751896Y42203303D02*
X183801788Y42207012D01*
X239552649Y36004672D02*
X237496815Y31872571D01*
X169291815Y128512554D02*
G75*
G02*
X160855229Y126626697I-4260672J-753342D01*
G01*
X170841989Y39535337D02*
X170937541Y39564751D01*
X94479701Y38769898D02*
X94384096Y38799193D01*
X216997090Y40456436D02*
X217046911Y40448819D01*
X205066850Y42020838D02*
X205166310Y42013911D01*
X129812201Y38525586D02*
X129749412Y38452052D01*
X95436098Y38478619D02*
X95340428Y38507586D01*
X39769080Y39327203D02*
X39672196Y39303823D01*
X54397763Y41716110D02*
X54298908Y41704756D01*
X194691146Y42362748D02*
X194790813Y42360985D01*
X171606456Y39770110D02*
X171702028Y39799350D01*
X132366372Y123020396D02*
X132336205Y122977962D01*
X217146551Y40433532D02*
X217196368Y40425869D01*
X223840494Y39133800D02*
X223936640Y39108569D01*
X130750088Y39962133D02*
X130724466Y39912235D01*
X93141626Y39181647D02*
X93093851Y39196395D01*
X42363609Y39876223D02*
X42314245Y39866976D01*
X79085128Y42203303D02*
X79035236Y42207012D01*
X216598515Y40517078D02*
X216648337Y40509533D01*
X158821852Y36248143D02*
X158919296Y36267357D01*
X150304497Y39035187D02*
G75*
G02*
X157891358Y39151638I3790646J239625D01*
G01*
X189304295Y42409947D02*
X189354310Y42410282D01*
X201678488Y42198785D02*
X201778287Y42194930D01*
X184151180Y42231732D02*
X184201107Y42235131D01*
X135287069Y36964428D02*
X135370910Y36938786D01*
X46338146Y40532151D02*
X46288331Y40524619D01*
X75084131Y42388006D02*
X75034068Y42389093D01*
X135888217Y36817382D02*
X135976815Y36802555D01*
X37754663Y38786020D02*
X37659899Y38757403D01*
X130646241Y39765627D02*
X130619940Y39717275D01*
X206953985Y41869138D02*
X207053139Y41859904D01*
X171510889Y39740842D02*
X171606456Y39770110D01*
X11761880Y27191354D02*
X11847889Y27148646D01*
X215303930Y40711563D02*
X215353676Y40704106D01*
X15636000Y26744389D02*
X15718349Y26769129D01*
X132324326Y39528493D02*
X132351645Y39482458D01*
X43154909Y40019864D02*
X43105365Y40011141D01*
D12*
X151146815Y91962555D02*
G75*
G02*
X149125925Y91962555I-1010445J0D01*
G01*
X149125925Y91962555D02*
G75*
G02*
X151146815Y91962555I1010445J0D01*
G01*
D11*
X218341495Y40245602D02*
X218391233Y40237542D01*
X176892382Y41231796D02*
X176989603Y41253282D01*
X74984006Y42390127D02*
X74933944Y42391159D01*
X167305244Y38449694D02*
X167400926Y38478619D01*
X44197168Y40196974D02*
X44147462Y40188781D01*
X131771519Y121944874D02*
X131753267Y121898087D01*
X70437759Y42398494D02*
X70338089Y42397253D01*
X92281682Y39447010D02*
X92186133Y39476465D01*
X178748422Y41598724D02*
X178846594Y41615704D01*
X180719855Y41897301D02*
X180818829Y41910055D01*
X67148905Y42345081D02*
X67049165Y42343322D01*
X134547309Y124720664D02*
X134500707Y124701395D01*
X212875553Y41084042D02*
X212974281Y41068535D01*
X200280781Y42246016D02*
X200380644Y42243025D01*
X214211130Y40876522D02*
X214260716Y40868954D01*
X183552368Y42188147D02*
X183602241Y42192013D01*
X209722603Y41556468D02*
X209821176Y41543133D01*
X179239734Y41681397D02*
X179338127Y41697271D01*
X215055279Y40748862D02*
X215105001Y40741398D01*
X14307568Y26547966D02*
X14391191Y26549245D01*
X132492580Y123186656D02*
X132460572Y123145391D01*
X36718840Y38455360D02*
X36625426Y38423502D01*
X250903205Y27107408D02*
X250817355Y27067632D01*
X132243725Y39669693D02*
X132270365Y39622112D01*
X53114421Y41556468D02*
X53015848Y41543133D01*
X48725052Y40891678D02*
X48675485Y40884091D01*
X62156818Y42233727D02*
X62056969Y42230514D01*
X71534640Y42409193D02*
X71434874Y42408474D01*
X79384388Y42180327D02*
X79334526Y42184279D01*
X197284783Y42316241D02*
X197384620Y42314337D01*
X179338127Y41697271D02*
X179436563Y41712924D01*
X133817473Y124355717D02*
X133773517Y124328420D01*
X162890402Y37190472D02*
X162986750Y37215820D01*
X214608107Y40816230D02*
X214657762Y40808722D01*
X160958756Y36709525D02*
X161055569Y36732293D01*
X201878079Y42191003D02*
X201977868Y42187000D01*
X176116644Y41050916D02*
X176213422Y41074376D01*
D12*
X91460209Y58173000D02*
G75*
G02*
X89439319Y58173000I-1010445J0D01*
G01*
X89439319Y58173000D02*
G75*
G02*
X91460209Y58173000I1010445J0D01*
G01*
D11*
X77086346Y42321894D02*
X77036316Y42324159D01*
X132351645Y39482458D02*
X132378966Y39436422D01*
X78885523Y42217827D02*
X78835612Y42221379D01*
X208834544Y41669776D02*
X208933308Y41657815D01*
X133305527Y123999603D02*
X133264891Y123966700D01*
X218689562Y40188781D02*
X218739263Y40180585D01*
X88166542Y40674110D02*
X88070413Y40700520D01*
X97255753Y37937820D02*
X97159878Y37965739D01*
X177476505Y41357006D02*
X177574044Y41377017D01*
X207746692Y41791471D02*
X207845693Y41781140D01*
X135301073Y124956256D02*
X135206630Y124933785D01*
X190903211Y42411508D02*
X191003024Y42411019D01*
X78835612Y42221379D02*
X78785693Y42224857D01*
X16455926Y27057763D02*
X16537483Y27097165D01*
X165101690Y37799310D02*
X165197634Y37826864D01*
X131839205Y40480432D02*
X131863130Y40426670D01*
X12362277Y26923198D02*
X12447731Y26890757D01*
X127066474Y125039833D02*
X127159828Y125026878D01*
X184450818Y42251447D02*
X184500770Y42254617D01*
X93237182Y39152162D02*
X93189405Y39166902D01*
X52818759Y41516050D02*
X52720233Y41502315D01*
X62810209Y132242555D02*
X60603411Y132080822D01*
X251766084Y27585788D02*
X251722761Y27558568D01*
X74883884Y42392142D02*
X74833823Y42393124D01*
X185600598Y42314969D02*
X185650624Y42317300D01*
X44943411Y40317184D02*
X44893627Y40309311D01*
X163564415Y37370242D02*
X163660623Y37396349D01*
X187302312Y42377167D02*
X187352377Y42378470D01*
X43948703Y40155821D02*
X43899029Y40147533D01*
X135677196Y125026878D02*
X135583520Y125012067D01*
X128885938Y124433678D02*
X128930750Y124408351D01*
X97543459Y37854491D02*
X97447545Y37882191D01*
X226954107Y38157197D02*
X227046296Y38122439D01*
X220325274Y39903822D02*
X220374664Y39894647D01*
X212382279Y41161483D02*
X212480891Y41146024D01*
X40254760Y39440909D02*
X40157460Y39418586D01*
X90561485Y39974129D02*
X90465881Y40003128D01*
X160377330Y36576017D02*
X160474302Y36597890D01*
X133965666Y37636702D02*
X134037964Y37584796D01*
X185650624Y42317300D02*
X185700649Y42319629D01*
X131586223Y41094975D02*
X131608450Y41037353D01*
X102459694Y36576017D02*
X102362722Y36597890D01*
X38996530Y39133800D02*
X38900384Y39108569D01*
X200680206Y42233727D02*
X200780055Y42230514D01*
X77686530Y42292312D02*
X77636531Y42294981D01*
X68743783Y42373123D02*
X68644140Y42371421D01*
X35515019Y38016116D02*
X35423408Y37979988D01*
X12703611Y26802224D02*
X12788746Y26775648D01*
X215801597Y40637002D02*
X215851384Y40629541D01*
X159600540Y36406731D02*
X159697741Y36427320D01*
X221114031Y39752877D02*
X221163203Y39743095D01*
X46886054Y40614609D02*
X46836255Y40607133D01*
X175247809Y40830019D02*
X175344168Y40855375D01*
X62056969Y42230514D02*
X61957125Y42227240D01*
X130145317Y38957831D02*
X130115958Y38916428D01*
X187903080Y42391159D02*
X187953140Y42392142D01*
X69042699Y42378127D02*
X68943060Y42376475D01*
X45242169Y40364120D02*
X45192367Y40356343D01*
X185950815Y42330690D02*
X186000855Y42332825D01*
X80629155Y42068532D02*
X80529717Y42078470D01*
X184950520Y42281353D02*
X185000507Y42284164D01*
X72732825Y42413068D02*
X72632895Y42413114D01*
X173806737Y40429795D02*
X173902598Y40457474D01*
X196386463Y42332717D02*
X196486253Y42330931D01*
X93810571Y38975413D02*
X93762784Y38990129D01*
X213814721Y40937392D02*
X213864233Y40929738D01*
X219979184Y39966976D02*
X220028665Y39958064D01*
X131608450Y41037353D02*
X131630675Y40979731D01*
X92090584Y39505907D02*
X91995035Y39535337D01*
X51636959Y41344114D02*
X51538490Y41329199D01*
X162118857Y36991910D02*
X162215376Y37016301D01*
X188804013Y42405310D02*
X188854050Y42405865D01*
X46238509Y40517078D02*
X46188687Y40509533D01*
X131675809Y40866028D02*
X131698713Y40809949D01*
X100235789Y37115112D02*
X100139378Y37140111D01*
X162215376Y37016301D02*
X162311875Y37040821D01*
X58566340Y42072401D02*
X58466775Y42066317D01*
X47781745Y40748862D02*
X47732023Y40741398D01*
X218042949Y40293497D02*
X218092717Y40285553D01*
X23284375Y36004672D02*
X25340209Y31872571D01*
X186851740Y42364069D02*
X186901800Y42365650D01*
X168835295Y38916599D02*
X168883084Y38931297D01*
X216399240Y40547194D02*
X216449057Y40539679D01*
X129621796Y38309620D02*
X129556972Y38240721D01*
X35149473Y37869501D02*
X35058466Y37831961D01*
X161249113Y36778262D02*
X161345849Y36801459D01*
X74633590Y42396751D02*
X74583535Y42397586D01*
X102847859Y36490086D02*
X102750776Y36511331D01*
X69640525Y42387561D02*
X69540882Y42386049D01*
X130997819Y40480432D02*
X130973894Y40426670D01*
X182605780Y42107224D02*
X182705321Y42116461D01*
X46686846Y40584696D02*
X46637037Y40577206D01*
X215353676Y40704106D02*
X215403431Y40696648D01*
X251679438Y27531351D02*
X251636155Y27504867D01*
X73582746Y42409572D02*
X73532729Y42409947D01*
X166156331Y38106347D02*
X166252131Y38134655D01*
X95531780Y38449694D02*
X95436098Y38478619D01*
X51833891Y41373718D02*
X51735426Y41358953D01*
X75134196Y42386923D02*
X75084131Y42388006D01*
X192598603Y42395972D02*
X192698259Y42394654D01*
X187552638Y42383452D02*
X187602701Y42384644D01*
X79533954Y42168317D02*
X79484103Y42172348D01*
X55189353Y41801663D02*
X55090332Y41791471D01*
X73832872Y42407430D02*
X73782844Y42407891D01*
X167113858Y38391966D02*
X167209556Y38420810D01*
X219434296Y40063118D02*
X219483874Y40054516D01*
X160765052Y36664421D02*
X160861918Y36686902D01*
X190004255Y42412945D02*
X190104199Y42413068D01*
X77186400Y42317300D02*
X77136375Y42319629D01*
X94670925Y38711389D02*
X94575311Y38740631D01*
X212185114Y41192345D02*
X212283687Y41176927D01*
X225460722Y38669865D02*
X225555016Y38640110D01*
X131021743Y40534193D02*
X130997819Y40480432D01*
X47284315Y40674288D02*
X47234543Y40666834D01*
X48675485Y40884091D02*
X48625894Y40876522D01*
X176310251Y41097598D02*
X176407135Y41120587D01*
X129732017Y123831601D02*
X129771309Y123796965D01*
X130539679Y39575303D02*
X130512698Y39528493D01*
X227413616Y37979988D02*
X227505078Y37943511D01*
X129998294Y123579304D02*
X130034578Y123541465D01*
X184051331Y42224857D02*
X184101249Y42228333D01*
X130402740Y39345895D02*
X130374742Y39301403D01*
X77986472Y42275663D02*
X77936492Y42278542D01*
X131985806Y40164817D02*
X132010749Y40113374D01*
X129556972Y38240721D02*
X129491464Y38173367D01*
X41428141Y39693692D02*
X41379060Y39683660D01*
X102362722Y36597890D02*
X102265777Y36619917D01*
X81225194Y42005111D02*
X81125927Y42016139D01*
X215502948Y40681743D02*
X215552709Y40674288D01*
X249539140Y26646969D02*
X249454561Y26630655D01*
X129572133Y123966700D02*
X129612769Y123933797D01*
X97159878Y37965739D02*
X97064016Y37993729D01*
X132297345Y39575303D02*
X132324326Y39528493D01*
X129063507Y124328420D02*
X129107463Y124301123D01*
X132190783Y39765627D02*
X132217084Y39717275D01*
X53311614Y41582727D02*
X53213008Y41569672D01*
X74333273Y42401458D02*
X74283227Y42402148D01*
X186126815Y132242555D02*
X200026815Y132242555D01*
X131478147Y41390044D02*
X131499353Y41330103D01*
X41477253Y39703638D02*
X41428141Y39693692D01*
X80231244Y42107224D02*
X80131703Y42116461D01*
X132691707Y38957831D02*
X132721066Y38916428D01*
X171033093Y39594148D02*
X171128649Y39623528D01*
X87300012Y40905506D02*
X87203525Y40930272D01*
X94384096Y38799193D02*
X94288497Y38828513D01*
X211790974Y41253662D02*
X211889488Y41238392D01*
X65252715Y42310469D02*
X65152863Y42308503D01*
X161829159Y36919497D02*
X161925747Y36943506D01*
X128871358Y37636702D02*
X128799060Y37584796D01*
X39866050Y39350368D02*
X39769080Y39327203D01*
X40889085Y39581138D02*
X40840171Y39570660D01*
X14474736Y26551992D02*
X14558201Y26556204D01*
X169360943Y39078475D02*
X169408724Y39093204D01*
X218490699Y40221374D02*
X218540426Y40213268D01*
X57670714Y42013911D02*
X57571267Y42006873D01*
X132604315Y39083579D02*
X132633333Y39041406D01*
X132901284Y38677289D02*
X132962714Y38600666D01*
X131254189Y121380050D02*
X131278626Y121285553D01*
X134184596Y37485621D02*
X134258929Y37438352D01*
X94288497Y38828513D02*
X94192902Y38857854D01*
X130430399Y39391157D02*
X130402740Y39345895D01*
X133951086Y124433678D02*
X133906274Y124408351D01*
X48030240Y40786243D02*
X47980557Y40778756D01*
X75935224Y42365650D02*
X75885160Y42367177D01*
X216050570Y40599657D02*
X216100374Y40592178D01*
X74683649Y42395870D02*
X74633590Y42396751D01*
X128659666Y124554315D02*
X128705204Y124530990D01*
X199282068Y42273178D02*
X199381945Y42270665D01*
X180423142Y41857835D02*
X180522012Y41871194D01*
X94957812Y38623841D02*
X94862177Y38652993D01*
X219384697Y40071665D02*
X219434296Y40063118D01*
X249117046Y26580057D02*
X249032866Y26571076D01*
X130458058Y39436422D02*
X130430399Y39391157D01*
X91326135Y39740842D02*
X91230568Y39770110D01*
X51735426Y41358953D02*
X51636959Y41344114D01*
X132662351Y38999232D02*
X132691707Y38957831D01*
X93858360Y38960705D02*
X93810571Y38975413D01*
X132217084Y39717275D02*
X132243725Y39669693D01*
X158724376Y36229114D02*
X158821852Y36248143D01*
X40060241Y39396056D02*
X39963104Y39373321D01*
X99272609Y37370242D02*
X99176401Y37396349D01*
X87685532Y40804477D02*
X87589215Y40830019D01*
X42412972Y39885471D02*
X42363609Y39876223D01*
X67647485Y42353909D02*
X67547787Y42352136D01*
X211495487Y41299163D02*
X211593974Y41284052D01*
X66550348Y42334498D02*
X66450561Y42332717D01*
X134798281Y37150718D02*
X134878047Y37115808D01*
X93875209Y129972556D02*
X76710209Y132242555D01*
X216349423Y40554710D02*
X216399240Y40547194D01*
X77236426Y42314969D02*
X77186400Y42317300D01*
X90179020Y40089819D02*
X90083379Y40118602D01*
X174382298Y40593939D02*
X174478328Y40620814D01*
X189404324Y42410616D02*
X189454334Y42410907D01*
X217296002Y40410512D02*
X217345816Y40402822D01*
X166922432Y38334428D02*
X167018148Y38363172D01*
X132008849Y122451094D02*
X131984519Y122405902D01*
X161152353Y36755207D02*
X161249113Y36778262D01*
X178454176Y41546428D02*
X178552211Y41564086D01*
X75835097Y42368699D02*
X75785035Y42370169D01*
X97351640Y37909971D02*
X97255753Y37937820D01*
X198582937Y42289653D02*
X198682812Y42287408D01*
X130318403Y39213192D02*
X130290064Y39169472D01*
X45142572Y40348535D02*
X45092775Y40340732D01*
D12*
X42090209Y79313000D02*
G75*
G02*
X40069319Y79313000I-1010445J0D01*
G01*
X40069319Y79313000D02*
G75*
G02*
X42090209Y79313000I1010445J0D01*
G01*
D11*
X215702031Y40651922D02*
X215751811Y40644465D01*
X210806202Y41402988D02*
X210904669Y41388398D01*
X210215304Y41488458D02*
X210313806Y41474484D01*
X175826611Y40979181D02*
X175923242Y41003311D01*
X182009075Y42048122D02*
X182108457Y42058417D01*
X46039222Y40486833D02*
X45989400Y40479252D01*
X130589432Y122849582D02*
X130617698Y122806102D01*
X83400461Y41712924D02*
X83301981Y41728367D01*
X134086281Y124507664D02*
X134041090Y124483335D01*
X206457942Y41913350D02*
X206557186Y41904764D01*
X189604350Y42411708D02*
X189704344Y42412133D01*
X168883084Y38931297D02*
X168930877Y38945995D01*
X193196499Y42387561D02*
X193296142Y42386049D01*
X164237503Y37555076D02*
X164333587Y37581866D01*
X63554956Y42273178D02*
X63455079Y42270665D01*
X132625946Y123347884D02*
X132592166Y123307906D01*
X203971917Y42090051D02*
X204071519Y42084267D01*
X70836506Y42403046D02*
X70736808Y42401975D01*
X224797385Y38870213D02*
X224892490Y38842422D01*
X189804328Y42412481D02*
X189904299Y42412754D01*
X217843831Y40325056D02*
X217893613Y40317184D01*
X39382074Y39232337D02*
X39285548Y39208052D01*
X184251042Y42238454D02*
X184300977Y42241778D01*
X248948765Y26563559D02*
X248864745Y26557508D01*
X63654833Y42275643D02*
X63554956Y42273178D01*
X128351018Y37305809D02*
X128273970Y37264720D01*
X93476081Y39078475D02*
X93428300Y39093204D01*
X166730970Y38277079D02*
X166826706Y38305731D01*
X168452928Y38799193D02*
X168548527Y38828513D01*
X14724891Y26569029D02*
X14808115Y26577637D01*
X41575507Y39723448D02*
X41526364Y39713586D01*
X101684671Y36755207D02*
X101587911Y36778262D01*
X169886503Y39240627D02*
X169982054Y39270121D01*
X49022303Y40937392D02*
X48972791Y40929738D01*
X176795223Y41210056D02*
X176892382Y41231796D01*
X47582836Y40719015D02*
X47533094Y40711563D01*
X130851218Y40164817D02*
X130826275Y40113374D01*
X64553701Y42296194D02*
X64453833Y42294044D01*
X161055569Y36732293D02*
X161152353Y36755207D01*
X214012847Y40906871D02*
X214062400Y40899263D01*
X56676914Y41938354D02*
X56577619Y41930142D01*
X131791694Y40588726D02*
X131815281Y40534193D01*
X83990430Y41615704D02*
X83892210Y41632455D01*
X215901177Y40622075D02*
X215950970Y40614609D01*
X129924145Y123653453D02*
X129961219Y123616379D01*
X128336317Y124701395D02*
X128382920Y124682125D01*
X202177423Y42178778D02*
X202277188Y42174555D01*
X173136343Y40233017D02*
X173232052Y40261420D01*
X220818652Y39810612D02*
X220867910Y39801068D01*
X130645964Y122762622D02*
X130673261Y122718666D01*
X90083379Y40118602D02*
X89987727Y40147318D01*
X247283455Y26721117D02*
X247201024Y26744389D01*
X102400209Y128512555D02*
X126606173Y125077787D01*
X51932355Y41388398D02*
X51833891Y41373718D01*
X130726875Y122630310D02*
X130753192Y122585909D01*
X177671636Y41396785D02*
X177769279Y41416317D01*
X131199352Y121568977D02*
X131227769Y121474545D01*
X59562608Y42127903D02*
X59462935Y42122769D01*
X47881164Y40763802D02*
X47831453Y40756335D01*
X77886504Y42281353D02*
X77836517Y42284164D01*
X213567272Y40975766D02*
X213616747Y40968073D01*
X224032690Y39083098D02*
X224128639Y39057379D01*
X170650891Y39476465D02*
X170746440Y39505907D01*
X93714996Y39004841D02*
X93667214Y39019565D01*
X99465087Y37318336D02*
X99368838Y37344236D01*
X127159828Y125026878D02*
X127253504Y125012067D01*
X36532140Y38391337D02*
X36438986Y38358855D01*
X94001729Y38916599D02*
X93953940Y38931297D01*
X217943397Y40309311D02*
X217993172Y40301404D01*
X38900384Y39108569D02*
X38804334Y39083098D01*
X186000855Y42332825D02*
X186050896Y42334897D01*
X81621956Y41959121D02*
X81522812Y41970904D01*
X251722761Y27558568D02*
X251679438Y27531351D01*
X209624016Y41569672D02*
X209722603Y41556468D01*
X208241489Y41738373D02*
X208340387Y41727313D01*
X129407101Y124094716D02*
X129448966Y124063620D01*
X13382463Y26630655D02*
X13466959Y26615806D01*
X131395802Y120628648D02*
X131405131Y120536082D01*
X84774511Y41473481D02*
X84676668Y41492067D01*
X183203389Y42160089D02*
X183253229Y42164206D01*
X132575637Y39126526D02*
X132604315Y39083579D01*
X188904086Y42406416D02*
X188954121Y42406923D01*
X42067657Y39820079D02*
X42018372Y39810612D01*
X224892490Y38842422D02*
X224987481Y38814359D01*
X178944814Y41632455D02*
X179043076Y41648992D01*
X215652251Y40659380D02*
X215702031Y40651922D01*
X43006319Y39993574D02*
X42956821Y39984726D01*
X42907319Y39975884D02*
X42857840Y39966976D01*
X131405131Y120536082D02*
X131412690Y120443978D01*
X209821176Y41543133D02*
X209919727Y41529657D01*
X130261387Y39126526D02*
X130232709Y39083579D01*
X247696801Y26626745D02*
X247613971Y26642685D01*
X227046296Y38122439D02*
X227138345Y38087336D01*
X103236484Y36406731D02*
X103139283Y36427320D01*
X102653720Y36532737D02*
X102556693Y36554299D01*
X214409552Y40846315D02*
X214459176Y40838778D01*
X131136481Y121757416D02*
X131168926Y121663288D01*
X251419979Y27376842D02*
X251333650Y27328269D01*
X75584778Y42375815D02*
X75534712Y42377167D01*
X46736650Y40592178D02*
X46686846Y40584696D01*
X49368664Y40991175D02*
X49319207Y40983468D01*
X194591485Y42364502D02*
X194691146Y42362748D01*
X74133090Y42404121D02*
X74083050Y42404716D01*
X64653568Y42298313D02*
X64553701Y42296194D01*
X181215068Y41959121D02*
X181314212Y41970904D01*
X46138867Y40501971D02*
X46089045Y40494412D01*
X133614372Y37919400D02*
X133683271Y37859770D01*
X185500557Y42310176D02*
X185550579Y42312570D01*
X131168926Y121663288D02*
X131199352Y121568977D01*
X130311541Y123227292D02*
X130344444Y123186656D01*
X219830705Y39993574D02*
X219880203Y39984726D01*
X214856467Y40778756D02*
X214906163Y40771280D01*
X16292578Y26983360D02*
X16374292Y27019825D01*
X183004092Y42143145D02*
X183053911Y42147424D01*
X159892053Y36469000D02*
X159989165Y36490086D01*
X74083050Y42404716D02*
X74033011Y42405310D01*
X130986393Y122130848D02*
X131006679Y122084464D01*
X132191060Y122762622D02*
X132163763Y122718666D01*
X57074250Y41969984D02*
X56974892Y41962257D01*
X35882917Y38157197D02*
X35790728Y38122439D01*
X74283227Y42402148D02*
X74233180Y42402833D01*
X64353960Y42291862D02*
X64254087Y42289653D01*
X36160333Y38259493D02*
X36067721Y38225726D01*
X37659899Y38757403D02*
X37565248Y38728509D01*
X216498878Y40532151D02*
X216548693Y40524619D01*
X84480833Y41528537D02*
X84382848Y41546428D01*
X161732544Y36895620D02*
X161829159Y36919497D01*
X134315200Y124620250D02*
X134269064Y124598947D01*
X96201799Y38248487D02*
X96106054Y38277079D01*
X172371143Y40003128D02*
X172466753Y40032077D01*
X50356133Y41146024D02*
X50257502Y41130540D01*
X80927304Y42037641D02*
X80827949Y42048122D01*
X202376950Y42170255D02*
X202476700Y42165876D01*
X55288392Y41811715D02*
X55189353Y41801663D01*
X58466775Y42066317D02*
X58367223Y42060136D01*
X131465305Y120814987D02*
X131452350Y120721633D01*
X49516968Y41014338D02*
X49467543Y41006611D01*
X184550729Y42257720D02*
X184600688Y42260819D01*
X162504804Y37090223D02*
X162601235Y37115112D01*
X213270635Y41022071D02*
X213320056Y41014338D01*
X172944963Y40175960D02*
X173040644Y40204530D01*
X134923206Y124854511D02*
X134828895Y124824085D01*
D12*
X21130209Y87142555D02*
G75*
G02*
X19109319Y87142555I-1010445J0D01*
G01*
X19109319Y87142555D02*
G75*
G02*
X21130209Y87142555I1010445J0D01*
G01*
D11*
X173902598Y40457474D02*
X173998482Y40485030D01*
X180620914Y41884347D02*
X180719855Y41897301D01*
X163468186Y37344236D02*
X163564415Y37370242D01*
X58665917Y42078383D02*
X58566340Y42072401D01*
X180522012Y41871194D02*
X180620914Y41884347D01*
X60160845Y42156882D02*
X60061116Y42152261D01*
X249285646Y26602424D02*
X249201304Y26590510D01*
X184700624Y42266869D02*
X184750596Y42269824D01*
X163083080Y37241286D02*
X163179386Y37266861D01*
X182207869Y42068532D02*
X182307307Y42078470D01*
X219037317Y40130860D02*
X219086964Y40122470D01*
X131700543Y121757416D02*
X131668098Y121663288D01*
X66450561Y42332717D02*
X66350771Y42330931D01*
X182307307Y42078470D02*
X182406771Y42088227D01*
X49615796Y41029807D02*
X49566389Y41022071D01*
X170937541Y39564751D02*
X171033093Y39594148D01*
X183602241Y42192013D02*
X183652125Y42195802D01*
X135863535Y125050961D02*
X135770550Y125039833D01*
X131850631Y122130848D02*
X131830345Y122084464D01*
X76635998Y42340983D02*
X76585950Y42342926D01*
X249793351Y26704712D02*
X249708535Y26683997D01*
X93189405Y39166902D02*
X93141626Y39181647D01*
X35058466Y37831961D02*
X34967610Y37794064D01*
X162794035Y37165235D02*
X162890402Y37190472D01*
X57471836Y41999724D02*
X57372416Y41992461D01*
X128008129Y124824085D02*
X128102257Y124791640D01*
X70338089Y42397253D02*
X70238421Y42395972D01*
X224320233Y39005192D02*
X224415877Y38978719D01*
X183352921Y42172348D02*
X183402775Y42176379D01*
X181016882Y41934977D02*
X181115962Y41947144D01*
X43055842Y40002358D02*
X43006319Y39993574D01*
X71035925Y42405056D02*
X70936212Y42404075D01*
X165389479Y37882191D02*
X165485384Y37909971D01*
X131535927Y121191110D02*
X131515403Y121096777D01*
X79633635Y42160089D02*
X79583795Y42164206D01*
X132378966Y39436422D02*
X132406625Y39391157D01*
X77586527Y42297579D02*
X77536522Y42300185D01*
X41526364Y39713586D02*
X41477253Y39703638D01*
X81026631Y42026986D02*
X80927304Y42037641D01*
X99753944Y37241286D02*
X99657638Y37266861D01*
X40352139Y39463027D02*
X40254760Y39440909D01*
X74833823Y42393124D02*
X74783763Y42394057D01*
X66051365Y42325520D02*
X65951550Y42323694D01*
X127123958Y36851667D02*
X126860209Y36802555D01*
D12*
X42190209Y113353000D02*
G75*
G02*
X40169319Y113353000I-1010445J0D01*
G01*
X40169319Y113353000D02*
G75*
G02*
X42190209Y113353000I1010445J0D01*
G01*
D11*
X127441618Y124976780D02*
X127535951Y124956256D01*
D12*
X40806490Y127422582D02*
G75*
G02*
X38785600Y127422582I-1010445J0D01*
G01*
X38785600Y127422582D02*
G75*
G02*
X40806490Y127422582I1010445J0D01*
G01*
D11*
X159114092Y36306310D02*
X159211443Y36326051D01*
X210412299Y41460395D02*
X210510782Y41446197D01*
X36438986Y38358855D02*
X36345967Y38326054D01*
X250645891Y26992483D02*
X250560277Y26957108D01*
X68644140Y42371421D02*
X68544496Y42369711D01*
X103430969Y36366050D02*
X103333712Y36386304D01*
X135956101Y125060290D02*
X135863535Y125050961D01*
X248780800Y26552921D02*
X248696941Y26549803D01*
X39092772Y39158788D02*
X38996530Y39133800D01*
X187502572Y42382261D02*
X187552638Y42383452D01*
X95340428Y38507586D02*
X95244760Y38536596D01*
X188954121Y42406923D02*
X189004152Y42407430D01*
X56875550Y41954408D02*
X56776223Y41946443D01*
X248864745Y26557508D02*
X248780800Y26552921D01*
X76185523Y42357500D02*
X76135466Y42359202D01*
X207647671Y41801663D02*
X207746692Y41791471D01*
X223936640Y39108569D02*
X224032690Y39083098D01*
X202277188Y42174555D02*
X202376950Y42170255D01*
D12*
X223936815Y127472555D02*
G75*
G02*
X221915925Y127472555I-1010445J0D01*
G01*
X221915925Y127472555D02*
G75*
G02*
X223936815Y127472555I1010445J0D01*
G01*
D11*
X168070476Y38682174D02*
X168166099Y38711389D01*
X180028041Y41802377D02*
X180126760Y41816551D01*
X214111972Y40891678D02*
X214161539Y40884091D01*
X213715715Y40952714D02*
X213765208Y40945043D01*
X42511750Y39903822D02*
X42462360Y39894647D01*
X89987727Y40147318D02*
X89892061Y40175960D01*
X221015629Y39772281D02*
X221064830Y39762579D01*
X133027136Y123761494D02*
X132988557Y123726022D01*
X131046235Y121991477D02*
X131065505Y121944874D01*
X96680693Y38106347D02*
X96584893Y38134655D01*
X45989400Y40479252D02*
X45939576Y40471656D01*
X131045330Y40588726D02*
X131021743Y40534193D01*
X95149104Y38565643D02*
X95053455Y38594722D01*
X190403941Y42412995D02*
X190503825Y42412828D01*
X192897567Y42391913D02*
X192997214Y42390492D01*
X61957125Y42227240D02*
X61857284Y42223908D01*
X215453182Y40689198D02*
X215502948Y40681743D01*
X86235960Y41165822D02*
X86138909Y41188068D01*
D12*
X195666815Y60762555D02*
G75*
G02*
X193645925Y60762555I-1010445J0D01*
G01*
X193645925Y60762555D02*
G75*
G02*
X195666815Y60762555I1010445J0D01*
G01*
D11*
X181611830Y42005111D02*
X181711097Y42016139D01*
X133478608Y38043292D02*
X133546151Y37980574D01*
X134407720Y124661839D02*
X134361335Y124641552D01*
X132460572Y123145391D02*
X132428563Y123104125D01*
X178160356Y41492067D02*
X178258247Y41510421D01*
X85944642Y41231796D02*
X85847421Y41253282D01*
X223261625Y39280218D02*
X223358333Y39256391D01*
X198882560Y42282816D02*
X198982438Y42280461D01*
X78735775Y42228333D02*
X78685844Y42231732D01*
X78186368Y42263845D02*
X78136400Y42266869D01*
X97927267Y37744450D02*
X97831292Y37771841D01*
X82018195Y41910055D02*
X81919185Y41922614D01*
X213418920Y40998892D02*
X213468360Y40991175D01*
X94766548Y38682174D02*
X94670925Y38711389D01*
X167400926Y38478619D02*
X167496596Y38507586D01*
X134500707Y124701395D02*
X134454104Y124682125D01*
X191601644Y42406868D02*
X191701375Y42405986D01*
X214310324Y40861402D02*
X214359929Y40853851D01*
X128196140Y124757168D02*
X128242927Y124738916D01*
X67049165Y42343322D02*
X66949417Y42341563D01*
X64254087Y42289653D02*
X64154212Y42287408D01*
X192100216Y42401975D02*
X192199906Y42400858D01*
X207350491Y41831399D02*
X207449570Y41821624D01*
X70138765Y42394654D02*
X70039109Y42393297D01*
X169695398Y39181647D02*
X169743173Y39196395D01*
X170077603Y39299615D02*
X170173152Y39329105D01*
X129280369Y124186145D02*
X129322803Y124155978D01*
X73632766Y42409193D02*
X73582746Y42409572D01*
X48923257Y40922111D02*
X48873727Y40914482D01*
X183702006Y42199590D02*
X183751896Y42203303D01*
X99176401Y37396349D02*
X99080209Y37422555D01*
X79284656Y42188147D02*
X79234783Y42192013D01*
X196486253Y42330931D02*
X196586048Y42329137D01*
X11417045Y27376842D02*
X11503374Y27328269D01*
X173615093Y40374091D02*
X173710903Y40401997D01*
X222289896Y39506663D02*
X222387429Y39484944D01*
X98984034Y37448868D02*
X98887880Y37475279D01*
X50553337Y41176927D02*
X50454745Y41161483D01*
X216548693Y40524619D02*
X216598515Y40517078D01*
X131115403Y40753870D02*
X131092159Y40698566D01*
X218440972Y40229479D02*
X218490699Y40221374D01*
X239006815Y127502555D02*
X265446815Y127502555D01*
X177964717Y41454661D02*
X178062513Y41473481D01*
X248112133Y26569029D02*
X248028909Y26577637D01*
X217694452Y40348535D02*
X217744249Y40340732D01*
X79334526Y42184279D02*
X79284656Y42188147D01*
X71135649Y42405986D02*
X71035925Y42405056D01*
X197484463Y42312411D02*
X197584309Y42310469D01*
X14391191Y26549245D02*
X14474736Y26551992D01*
X12788746Y26775648D02*
X12873801Y26750533D01*
X134131820Y124530990D02*
X134086281Y124507664D01*
X75684907Y42373049D02*
X75634842Y42374457D01*
X131301097Y121191110D02*
X131321621Y121096777D01*
X48972791Y40929738D02*
X48923257Y40922111D01*
X247365966Y26699311D02*
X247283455Y26721117D01*
X126860209Y36802555D02*
X126430209Y36732555D01*
X221310660Y39713586D02*
X221359771Y39703638D01*
X41821395Y39772281D02*
X41772194Y39762579D01*
X40937997Y39591616D02*
X40889085Y39581138D01*
X134719194Y37187174D02*
X134798281Y37150718D01*
X132010749Y40113374D02*
X132036032Y40062701D01*
X41722993Y39752877D02*
X41673821Y39743095D01*
X222873920Y39373321D02*
X222970974Y39350368D01*
X100718167Y36991910D02*
X100621648Y37016301D01*
X67348362Y42348601D02*
X67248639Y42346843D01*
X204071519Y42084267D02*
X204171107Y42078383D01*
X130775710Y40012031D02*
X130750088Y39962133D01*
X225082361Y38786020D02*
X225177125Y38757403D01*
X75284386Y42383452D02*
X75234323Y42384644D01*
X220028665Y39958064D02*
X220078123Y39949094D01*
X41133856Y39632977D02*
X41084875Y39622682D01*
X246626240Y26948357D02*
X246544446Y26983360D01*
X191402150Y42408474D02*
X191501900Y42407698D01*
X133471787Y124125811D02*
X133429923Y124094716D01*
X131371719Y120814987D02*
X131384674Y120721633D01*
X130698505Y39863108D02*
X130672542Y39813982D01*
X131228574Y41037353D02*
X131206349Y40979731D01*
X130056565Y38835169D02*
X129996492Y38755457D01*
X81423637Y41982496D02*
X81324431Y41993897D01*
X213320056Y41014338D02*
X213369481Y41006611D01*
X207449570Y41821624D02*
X207548632Y41811715D01*
X130778519Y122541097D02*
X130803846Y122496285D01*
X193395779Y42384512D02*
X193495415Y42382950D01*
X101587911Y36778262D02*
X101491175Y36801459D01*
X219335101Y40080217D02*
X219384697Y40071665D01*
X132163763Y122718666D02*
X132136466Y122674710D01*
X175633499Y40930272D02*
X175730033Y40954832D01*
X225177125Y38757403D02*
X225271776Y38728509D01*
X101007865Y36919497D02*
X100911277Y36943506D01*
X211101598Y41358953D02*
X211200065Y41344114D01*
X163756815Y37422555D02*
X163852990Y37448868D01*
X249623796Y26664750D02*
X249539140Y26646969D01*
X38421147Y38978719D02*
X38325610Y38951983D01*
X178846594Y41615704D02*
X178944814Y41632455D01*
X135039617Y37050620D02*
X135121421Y37020345D01*
X249201304Y26590510D02*
X249117046Y26580057D01*
X185000507Y42284164D02*
X185050500Y42286904D01*
X159697741Y36427320D02*
X159794912Y36448080D01*
X130174673Y38999232D02*
X130145317Y38957831D01*
X45341777Y40379640D02*
X45291971Y40371890D01*
X75885160Y42367177D02*
X75835097Y42368699D01*
X11157586Y27531351D02*
X11200869Y27504867D01*
D12*
X69076490Y60712582D02*
G75*
G02*
X67055600Y60712582I-1010445J0D01*
G01*
X67055600Y60712582D02*
G75*
G02*
X69076490Y60712582I1010445J0D01*
G01*
D11*
X186251074Y42342926D02*
X186301124Y42344869D01*
X84284813Y41564086D02*
X84186730Y41581518D01*
X67547787Y42352136D02*
X67448079Y42350369D01*
X192299588Y42399695D02*
X192399265Y42398494D01*
X221163203Y39743095D02*
X221212376Y39733312D01*
X51538490Y41329199D02*
X51440016Y41314214D01*
X40449595Y39484944D02*
X40352139Y39463027D01*
X216897448Y40471656D02*
X216947270Y40464058D01*
X131871934Y122176984D02*
X131850631Y122130848D01*
X39672196Y39303823D02*
X39575399Y39280218D01*
X131887393Y40373683D02*
X131911656Y40320693D01*
X128799060Y37584796D02*
X128726083Y37534436D01*
X133411744Y38107558D02*
X133478608Y38043292D01*
D12*
X186356815Y129782555D02*
G75*
G02*
X184335925Y129782555I-1010445J0D01*
G01*
X184335925Y129782555D02*
G75*
G02*
X186356815Y129782555I1010445J0D01*
G01*
D11*
X130900764Y40268478D02*
X130876161Y40216263D01*
X183153560Y42155894D02*
X183203389Y42160089D01*
X217594855Y40364120D02*
X217644657Y40356343D01*
X173327784Y40289733D02*
X173423531Y40317953D01*
X95053455Y38594722D02*
X94957812Y38623841D01*
X44595025Y40261645D02*
X44545276Y40253623D01*
X132838730Y123579304D02*
X132802446Y123541465D01*
X37565248Y38728509D02*
X37470716Y38699330D01*
X221212376Y39733312D02*
X221261517Y39723448D01*
X161925747Y36943506D02*
X162022313Y36967642D01*
X193595052Y42381362D02*
X193694689Y42379752D01*
X51144556Y41268882D02*
X51046050Y41253662D01*
X70537436Y42399695D02*
X70437759Y42398494D01*
X128475689Y124641552D02*
X128521824Y124620250D01*
X53450209Y131332555D02*
X23830209Y127502555D01*
X233187197Y38983216D02*
G75*
G02*
X239552614Y36004691I3258446J-1327404D01*
G01*
X160183304Y36532737D02*
X160280331Y36554299D01*
X82413882Y41857835D02*
X82315012Y41871194D01*
X81125927Y42016139D02*
X81026631Y42026986D01*
X136139802Y125073671D02*
X136048205Y125067849D01*
X132083832Y122585909D02*
X132058505Y122541097D01*
X48228917Y40816230D02*
X48179262Y40808722D01*
X246872100Y26852143D02*
X246790067Y26882749D01*
X178356191Y41528537D02*
X178454176Y41546428D01*
X210510782Y41446197D02*
X210609261Y41431895D01*
X100814711Y36967642D02*
X100718167Y36991910D01*
X217395628Y40395103D02*
X217445438Y40387386D01*
X173710903Y40401997D02*
X173806737Y40429795D01*
X83892210Y41632455D02*
X83793948Y41648992D01*
X90274652Y40060980D02*
X90179020Y40089819D01*
X36345967Y38326054D02*
X36253081Y38292933D01*
X47732023Y40741398D02*
X47682302Y40733935D01*
X206259405Y41930142D02*
X206358682Y41921808D01*
X63055580Y42260187D02*
X62955710Y42257453D01*
X89796380Y40204530D02*
X89700681Y40233017D01*
X199681571Y42262876D02*
X199781444Y42260187D01*
X48377848Y40838778D02*
X48328208Y40831259D01*
X226211598Y38423502D02*
X226304884Y38391337D01*
X65452404Y42314337D02*
X65352561Y42312411D01*
X42561160Y39912933D02*
X42511750Y39903822D01*
X93875209Y129972556D02*
X93545209Y128512554D01*
X42116943Y39829550D02*
X42067657Y39820079D01*
X132962714Y38600666D02*
X133024823Y38525586D01*
X95723166Y38391966D02*
X95627468Y38420810D01*
X209032048Y41645693D02*
X209130768Y41633415D01*
X208735755Y41681591D02*
X208834544Y41669776D01*
X186751619Y42360843D02*
X186801678Y42362482D01*
X129107463Y124301123D02*
X129150943Y124272857D01*
X131558398Y121285553D02*
X131535927Y121191110D01*
X133024823Y38525586D02*
X133087612Y38452052D01*
X133346793Y124031612D02*
X133305527Y123999603D01*
X181314212Y41970904D02*
X181413387Y41982496D01*
X166826706Y38305731D02*
X166922432Y38334428D01*
X78086428Y42269824D02*
X78036453Y42272779D01*
X193096857Y42389037D02*
X193196499Y42387561D01*
X100042989Y37165235D02*
X99946622Y37190472D01*
X92663872Y39329105D02*
X92568325Y39358591D01*
X81324431Y41993897D02*
X81225194Y42005111D01*
X204469801Y42060136D02*
X204569342Y42053849D01*
X132434284Y39345895D02*
X132462282Y39301403D01*
X132633333Y39041406D02*
X132662351Y38999232D01*
X77936492Y42278542D02*
X77886504Y42281353D01*
X178062513Y41473481D02*
X178160356Y41492067D01*
X190603693Y42412599D02*
X190703548Y42412298D01*
X41329982Y39673627D02*
X41280934Y39663508D01*
X42709444Y39940120D02*
X42660006Y39931080D01*
X174094394Y40512456D02*
X174190332Y40539756D01*
X43204448Y40028584D02*
X43154909Y40019864D01*
X90752674Y39916006D02*
X90657082Y39945087D01*
X93762784Y38990129D02*
X93714996Y39004841D01*
X77286445Y42312570D02*
X77236426Y42314969D01*
X231748259Y35914654D02*
X227596389Y37906683D01*
X91421697Y39711547D02*
X91326135Y39740842D01*
X130566659Y39622112D02*
X130539679Y39575303D01*
X128726083Y37534436D02*
X128652428Y37485621D01*
X159016710Y36286744D02*
X159114092Y36306310D01*
X87492856Y40855375D02*
X87396456Y40880536D01*
X12533102Y26859780D02*
X12618396Y26830269D01*
X91134996Y39799350D02*
X91039421Y39828562D01*
X214062400Y40899263D02*
X214111972Y40891678D01*
X57273013Y41985085D02*
X57173626Y41977589D01*
X133599628Y124215368D02*
X133556655Y124186145D01*
X218590142Y40205121D02*
X218639856Y40196974D01*
X59363270Y42117548D02*
X59263616Y42112237D01*
X248362288Y26551992D02*
X248278823Y26556204D01*
X202077648Y42182927D02*
X202177423Y42178778D01*
X88934426Y40457474D02*
X88838542Y40485030D01*
X128975150Y124382034D02*
X129019551Y124355717D01*
X222776783Y39396056D02*
X222873920Y39373321D01*
X218241999Y40261645D02*
X218291748Y40253623D01*
X200879899Y42227240D02*
X200979740Y42223908D01*
X77036316Y42324159D02*
X76986281Y42326357D01*
X186601444Y42355800D02*
X186651501Y42357500D01*
X78985335Y42210643D02*
X78935434Y42214273D01*
X102944971Y36469000D02*
X102847859Y36490086D01*
X87203525Y40930272D02*
X87106991Y40954832D01*
X74783763Y42394057D02*
X74733705Y42394987D01*
X64753433Y42300399D02*
X64653568Y42298313D01*
X169026453Y38975413D02*
X169074240Y38990129D01*
X130115958Y38916428D02*
X130086263Y38875799D01*
X192000518Y42403046D02*
X192100216Y42401975D01*
X84578777Y41510421D02*
X84480833Y41528537D01*
X75985284Y42364069D02*
X75935224Y42365650D01*
X165485384Y37909971D02*
X165581271Y37937820D01*
X98695624Y37528382D02*
X98599521Y37555076D01*
X192199906Y42400858D02*
X192299588Y42399695D01*
X216947270Y40464058D02*
X216997090Y40456436D01*
X184350921Y42245025D02*
X184400866Y42248273D01*
X189254278Y42409572D02*
X189304295Y42409947D01*
X132766161Y123503626D02*
X132730690Y123465047D01*
X189004152Y42407430D02*
X189054180Y42407891D01*
X247036402Y26795336D02*
X246954212Y26823008D01*
X135800302Y36833753D02*
X135888217Y36817382D01*
X216847624Y40479252D02*
X216897448Y40471656D01*
X60659601Y42178778D02*
X60559836Y42174555D01*
X80827949Y42048122D02*
X80728567Y42058417D01*
X132397468Y123062261D02*
X132366372Y123020396D01*
X129153753Y37859770D02*
X129084171Y37801685D01*
X13804158Y26571076D02*
X13888259Y26563559D01*
X130211078Y123347884D02*
X130244858Y123307906D01*
X130086263Y38875799D02*
X130056565Y38835169D01*
X189054180Y42407891D02*
X189104209Y42408353D01*
X214459176Y40838778D02*
X214508816Y40831259D01*
X75384517Y42381016D02*
X75334452Y42382261D01*
X133224255Y123933797D02*
X133184277Y123900017D01*
X15388469Y26678968D02*
X15471058Y26699311D01*
X83301981Y41728367D02*
X83203462Y41743594D01*
X130672542Y39813982D02*
X130646241Y39765627D01*
X44445791Y40237542D02*
X44396052Y40229479D01*
X180917839Y41922614D02*
X181016882Y41934977D01*
X43254010Y40037248D02*
X43204448Y40028584D01*
X218739263Y40180585D02*
X218788952Y40172348D01*
X40840171Y39570660D02*
X40791294Y39560090D01*
X178552211Y41564086D02*
X178650294Y41581518D01*
X131083757Y121898087D02*
X131102009Y121851299D01*
X52326242Y41446197D02*
X52227763Y41431895D01*
X134878047Y37115808D02*
X134958493Y37082440D01*
X91708375Y39623528D02*
X91612819Y39652892D01*
X48179262Y40808722D02*
X48129593Y40801226D01*
X49467543Y41006611D02*
X49418104Y40998892D01*
X176019917Y41027227D02*
X176116644Y41050916D01*
X130700558Y122674710D02*
X130726875Y122630310D01*
X76285637Y42354038D02*
X76235580Y42355800D01*
X14140083Y26549803D02*
X14223866Y26548152D01*
X101394464Y36824795D02*
X101297779Y36848269D01*
X133388058Y124063620D02*
X133346793Y124031612D01*
X45042984Y40332894D02*
X44993193Y40325056D01*
X211692468Y41268882D02*
X211790974Y41253662D01*
X185200493Y42294981D02*
X185250497Y42297579D01*
X76886209Y42330690D02*
X76836169Y42332825D01*
X56081404Y41887211D02*
X55982213Y41878240D01*
X99561354Y37292545D02*
X99465087Y37318336D01*
X131768110Y40643260D02*
X131791694Y40588726D01*
X215751811Y40644465D02*
X215801597Y40637002D01*
X40742419Y39549517D02*
X40644736Y39528184D01*
X78036453Y42272779D02*
X77986472Y42275663D01*
X41772194Y39762579D02*
X41722993Y39752877D01*
X101104480Y36895620D02*
X101007865Y36919497D01*
X74183136Y42403478D02*
X74133090Y42404121D01*
X85165388Y41396785D02*
X85067745Y41416317D01*
X43501923Y40080217D02*
X43452327Y40071665D01*
X168978664Y38960705D02*
X169026453Y38975413D01*
X164909757Y37744450D02*
X165005732Y37771841D01*
X130485379Y39482458D02*
X130458058Y39436422D01*
X99657638Y37266861D02*
X99561354Y37292545D01*
X130943788Y122223119D02*
X130965090Y122176984D01*
X72233331Y42412599D02*
X72133476Y42412298D01*
X111629764Y39033849D02*
X111639764Y36693000D01*
X38804334Y39083098D02*
X38708385Y39057379D01*
X78336254Y42254617D02*
X78286295Y42257720D01*
X193993600Y42374808D02*
X194093241Y42373123D01*
X68843424Y42374808D02*
X68743783Y42373123D01*
X131068914Y40643260D02*
X131045330Y40588726D01*
X202576443Y42161420D02*
X202676179Y42156882D01*
X46089045Y40494412D02*
X46039222Y40486833D01*
X130828175Y122451094D02*
X130852505Y122405902D01*
X31088765Y35914654D02*
X34967610Y37794064D01*
X175537012Y40905506D02*
X175633499Y40930272D01*
X222387429Y39484944D02*
X222484885Y39463027D01*
X96393324Y38191458D02*
X96297557Y38219945D01*
X181810393Y42026986D02*
X181909720Y42037641D01*
D12*
X205216815Y79932555D02*
G75*
G02*
X203195925Y79932555I-1010445J0D01*
G01*
X203195925Y79932555D02*
G75*
G02*
X205216815Y79932555I1010445J0D01*
G01*
D11*
X93619430Y39034287D02*
X93571646Y39049011D01*
X104042884Y39150299D02*
X104069764Y36213000D01*
X45839934Y40456436D02*
X45790113Y40448819D01*
X213221228Y41029807D02*
X213270635Y41022071D01*
X165293565Y37854491D02*
X165389479Y37882191D01*
X166443700Y38191458D02*
X166539467Y38219945D01*
X132136466Y122674710D02*
X132110149Y122630310D01*
X223647910Y39183538D02*
X223744252Y39158788D01*
X87589215Y40830019D02*
X87492856Y40855375D01*
X38708385Y39057379D02*
X38612537Y39031412D01*
X77736530Y42289643D02*
X77686530Y42292312D01*
X12958776Y26726891D02*
X13043673Y26704712D01*
X134177358Y124554315D02*
X134131820Y124530990D01*
X131436070Y41510698D02*
X131418512Y120352381D01*
D13*
X131419457Y34268778D02*
X131419457Y127345000D01*
M02*
