M48
; DRILL file {KiCad 8.0.5} date 2024-10-07T12:12:51+0200
; FORMAT={-:-/ absolute / inch / decimal}
; #@! TF.CreationDate,2024-10-07T12:12:51+02:00
; #@! TF.GenerationSoftware,Kicad,Pcbnew,8.0.5
; #@! TF.FileFunction,NonPlated,1,2,NPTH
FMAT,2
INCH
; #@! TA.AperFunction,NonPlated,NPTH,ComponentDrill
T1C0.0354
; #@! TA.AperFunction,NonPlated,NPTH,ComponentDrill
T2C0.0669
; #@! TA.AperFunction,NonPlated,NPTH,ComponentDrill
T3C0.1339
%
G90
G05
T1
X0.2677Y3.4393
X0.3858Y3.4393
X9.9463Y3.4416
X10.0644Y3.4416
T2
X0.37Y1.8963
X0.5666Y1.5104
X1.0296Y4.6734
X1.0296Y4.0041
X1.0296Y3.3348
X1.0296Y2.6655
X1.2591Y1.835
X1.4627Y4.6734
X1.4627Y4.0041
X1.4627Y3.3348
X1.4627Y2.6655
X1.6811Y1.9324
X1.7383Y4.7659
X1.7383Y4.0966
X1.7383Y3.4273
X1.7383Y2.758
X2.0264Y1.9905
X2.1713Y4.7659
X2.1713Y4.0966
X2.1713Y3.4273
X2.1713Y2.758
X2.4469Y4.8624
X2.4469Y4.1931
X2.4469Y3.5238
X2.4469Y2.8545
X2.4584Y2.0207
X2.8111Y2.0208
X2.88Y4.8624
X2.88Y4.1931
X2.88Y3.5238
X2.88Y2.8545
X3.1551Y4.7655
X3.1551Y4.0962
X3.1551Y3.4269
X3.1551Y2.7576
X3.2431Y1.9906
X3.5882Y4.7655
X3.5882Y4.0962
X3.5882Y3.4269
X3.5882Y2.7576
X3.604Y1.9161
X3.8636Y4.5765
X3.8636Y3.9072
X3.8636Y3.2379
X3.8636Y2.5686
X4.0203Y1.7967
X4.2966Y4.5765
X4.2966Y3.9072
X4.2966Y3.2379
X4.2966Y2.5686
X4.4838Y1.8989
X4.5722Y4.5765
X4.5722Y3.9072
X4.5722Y3.2379
X4.5722Y2.5686
X4.9169Y1.8989
X5.0053Y4.5765
X5.0053Y3.9072
X5.0053Y3.2379
X5.0053Y2.5686
X5.3396Y4.5769
X5.3396Y3.9076
X5.3396Y3.2383
X5.3396Y2.569
X5.4283Y1.8991
X5.7727Y4.5769
X5.7727Y3.9076
X5.7727Y3.2383
X5.7727Y2.569
X5.8614Y1.8991
X6.0483Y4.5769
X6.0483Y3.9076
X6.0483Y3.2383
X6.0483Y2.569
X6.3249Y1.7969
X6.4814Y4.5769
X6.4814Y3.9076
X6.4814Y3.2383
X6.4814Y2.569
X6.7412Y1.9162
X6.757Y4.7658
X6.757Y4.0966
X6.757Y3.4273
X6.757Y2.758
X7.1017Y1.9904
X7.19Y4.7658
X7.19Y4.0966
X7.19Y3.4273
X7.19Y2.758
X7.4656Y4.8643
X7.4656Y4.195
X7.4656Y3.5257
X7.4656Y2.8564
X7.5337Y2.0206
X7.8856Y2.0193
X7.8987Y4.8643
X7.8987Y4.195
X7.8987Y3.5257
X7.8987Y2.8564
X8.1743Y4.7658
X8.1743Y4.0966
X8.1743Y3.4273
X8.1743Y2.758
X8.3176Y1.9891
X8.6074Y4.7658
X8.6074Y4.0966
X8.6074Y3.4273
X8.6074Y2.758
X8.6647Y1.933
X8.8829Y4.6753
X8.8829Y4.006
X8.8829Y3.3367
X8.8829Y2.6674
X9.0867Y1.8356
X9.316Y4.6753
X9.316Y4.006
X9.316Y3.3367
X9.316Y2.6674
X9.7787Y1.5127
X9.9753Y1.8985
T3
X0.4683Y1.7033
X1.2461Y4.6734
X1.2461Y4.0041
X1.2461Y3.3348
X1.2461Y2.6655
X1.4701Y1.8837
X1.9548Y4.7659
X1.9548Y4.0966
X1.9548Y3.4273
X1.9548Y2.758
X2.2424Y2.0056
X2.6635Y4.8624
X2.6635Y4.1931
X2.6635Y3.5238
X2.6635Y2.8545
X3.0271Y2.0057
X3.3716Y4.7655
X3.3716Y4.0962
X3.3716Y3.4269
X3.3716Y2.7576
X3.8122Y1.8564
X4.0801Y4.5765
X4.0801Y3.9072
X4.0801Y3.2379
X4.0801Y2.5686
X4.7004Y1.8989
X4.7888Y4.5765
X4.7888Y3.9072
X4.7888Y3.2379
X4.7888Y2.5686
X5.5562Y4.5769
X5.5562Y3.9076
X5.5562Y3.2383
X5.5562Y2.569
X5.6449Y1.8991
X6.2648Y4.5769
X6.2648Y3.9076
X6.2648Y3.2383
X6.2648Y2.569
X6.5331Y1.8566
X6.9735Y4.7658
X6.9735Y4.0966
X6.9735Y3.4273
X6.9735Y2.758
X7.3177Y2.0055
X7.6822Y4.8643
X7.6822Y4.195
X7.6822Y3.5257
X7.6822Y2.8564
X8.1016Y2.0042
X8.3908Y4.7658
X8.3908Y4.0966
X8.3908Y3.4273
X8.3908Y2.758
X8.8757Y1.8843
X9.0995Y4.6753
X9.0995Y4.006
X9.0995Y3.3367
X9.0995Y2.6674
X9.877Y1.7056
M30
