M48
; DRILL file {KiCad 8.0.5} date 2024-10-07T12:12:51+0200
; FORMAT={-:-/ absolute / inch / decimal}
; #@! TF.CreationDate,2024-10-07T12:12:51+02:00
; #@! TF.GenerationSoftware,Kicad,Pcbnew,8.0.5
; #@! TF.FileFunction,Plated,1,2,PTH
FMAT,2
INCH
; #@! TA.AperFunction,Plated,PTH,ViaDrill
T1C0.0157
; #@! TA.AperFunction,Plated,PTH,ComponentDrill
T2C0.0295
; #@! TA.AperFunction,Plated,PTH,ComponentDrill
T3C0.0394
; #@! TA.AperFunction,Plated,PTH,ComponentDrill
T4C0.0591
; #@! TA.AperFunction,Plated,PTH,ComponentDrill
T5C0.1181
%
G90
G05
T1
X1.1143Y3.497
X1.8229Y3.6113
X2.5316Y3.7476
X3.2398Y3.6444
X3.9482Y3.4724
X4.6569Y3.484
X5.4243Y3.469
X6.1329Y3.4566
X6.8416Y3.6369
X7.5503Y3.7223
X8.2589Y3.6031
X8.9676Y3.4995
T2
X0.8362Y4.8907
X0.8362Y4.8119
X9.5093Y4.9021
X9.5093Y4.8233
T3
X0.0653Y4.9592
X0.0653Y4.8592
X0.0653Y4.7592
X0.0653Y4.6592
X0.0653Y4.5592
X0.0653Y4.4592
X0.0653Y4.3592
X0.0653Y4.2592
X0.0653Y4.1592
X0.0653Y4.0592
X0.0653Y3.9592
X0.0653Y3.8592
X0.0653Y3.7592
X0.1653Y3.9592
X0.2653Y3.9592
X0.2732Y2.9954
X0.2732Y2.4245
X0.3653Y3.9592
X0.3716Y2.4245
X0.4701Y2.9954
X0.4701Y2.4245
X0.6653Y4.9592
X0.6653Y4.8592
X0.6653Y4.7592
X0.6653Y4.6592
X0.6653Y4.5592
X0.6653Y4.4592
X0.6653Y4.3592
X0.6653Y4.2592
X0.6653Y4.1592
X0.6653Y4.0592
X0.6653Y3.9592
X0.6653Y3.8592
X0.6653Y3.7592
X9.6881Y4.9572
X9.6881Y4.8572
X9.6881Y4.7572
X9.6881Y4.6572
X9.6881Y4.5572
X9.6881Y4.4572
X9.6881Y4.3572
X9.6881Y4.2572
X9.6881Y4.1572
X9.6881Y4.0572
X9.6881Y3.9572
X9.6881Y3.8572
X9.6881Y3.7572
X9.7881Y3.9572
X9.8766Y2.9997
X9.8766Y2.4288
X9.8881Y3.9572
X9.9751Y2.4288
X9.9881Y3.9572
X10.0735Y2.9997
X10.0735Y2.4288
X10.2881Y4.9572
X10.2881Y4.8572
X10.2881Y4.7572
X10.2881Y4.6572
X10.2881Y4.5572
X10.2881Y4.4572
X10.2881Y4.3572
X10.2881Y4.2572
X10.2881Y4.1572
X10.2881Y4.0572
X10.2881Y3.9572
X10.2881Y3.8572
X10.2881Y3.7572
T5
X0.677Y1.8097
X0.6892Y1.595
X1.0493Y4.5258
X1.0493Y3.8565
X1.0493Y3.1872
X1.0493Y2.5179
X1.2461Y4.4391
X1.2461Y3.7699
X1.2461Y3.1006
X1.2461Y2.4313
X1.3115Y1.6956
X1.5228Y1.6554
X1.758Y4.6183
X1.758Y3.949
X1.758Y3.2797
X1.758Y2.6104
X1.9548Y4.5317
X1.9548Y3.8624
X1.9548Y3.1931
X1.9548Y2.5238
X2.0564Y1.8446
X2.2588Y1.7719
X2.4666Y4.7147
X2.4666Y4.0454
X2.4666Y3.3762
X2.4666Y2.7069
X2.6635Y4.6281
X2.6635Y3.9588
X2.6635Y3.2895
X2.6635Y2.6202
X2.8204Y1.8722
X3.0107Y1.772
X3.1748Y4.6178
X3.1748Y3.9485
X3.1748Y3.2793
X3.1748Y2.61
X3.3716Y4.5312
X3.3716Y3.8619
X3.3716Y3.1926
X3.3716Y2.5233
X3.5823Y1.7688
X3.7476Y1.6312
X3.8833Y4.4289
X3.8833Y3.7596
X3.8833Y3.0903
X3.8833Y2.421
X4.0801Y4.3422
X4.0801Y3.673
X4.0801Y3.0037
X4.0801Y2.3344
X4.5035Y1.7513
X4.5919Y4.4289
X4.5919Y3.7596
X4.5919Y3.0903
X4.5919Y2.421
X4.7004Y1.6647
X4.7888Y4.3422
X4.7888Y3.673
X4.7888Y3.0037
X4.7888Y2.3344
X5.3593Y4.4292
X5.3593Y3.7599
X5.3593Y3.0907
X5.3593Y2.4214
X5.448Y1.7515
X5.5562Y4.3426
X5.5562Y3.6733
X5.5562Y3.004
X5.5562Y2.3347
X5.6449Y1.6649
X6.068Y4.4292
X6.068Y3.7599
X6.068Y3.0907
X6.068Y2.4214
X6.2648Y4.3426
X6.2648Y3.6733
X6.2648Y3.004
X6.2648Y2.3347
X6.3845Y1.6604
X6.5976Y1.6314
X6.7766Y4.6182
X6.7766Y3.9489
X6.7766Y3.2796
X6.7766Y2.6103
X6.9735Y4.5316
X6.9735Y3.8623
X6.9735Y3.193
X6.9735Y2.5237
X7.1317Y1.8445
X7.3341Y1.7718
X7.4853Y4.7166
X7.4853Y4.0473
X7.4853Y3.3781
X7.4853Y2.7088
X7.6822Y4.63
X7.6822Y3.9607
X7.6822Y3.2914
X7.6822Y2.6221
X7.8949Y1.8706
X8.0852Y1.7705
X8.194Y4.6182
X8.194Y3.9489
X8.194Y3.2796
X8.194Y2.6103
X8.3908Y4.5316
X8.3908Y3.8623
X8.3908Y3.193
X8.3908Y2.5237
X8.6507Y1.7847
X8.823Y1.6561
X8.9026Y4.5277
X8.9026Y3.8584
X8.9026Y3.1891
X8.9026Y2.5198
X9.0995Y4.441
X9.0995Y3.7718
X9.0995Y3.1025
X9.0995Y2.4332
X9.6683Y1.812
X9.8349Y1.948
T4
G00X0.1512Y2.6942
M15
G01X0.1512Y2.7454
M16
G05
G00X0.5921Y2.6942
M15
G01X0.5921Y2.7454
M16
G05
G00X9.7546Y2.6985
M15
G01X9.7546Y2.7497
M16
G05
G00X10.1955Y2.6985
M15
G01X10.1955Y2.7497
M16
G05
M30
