%TF.GenerationSoftware,KiCad,Pcbnew,8.0.5*%
%TF.CreationDate,2024-10-07T12:12:51+02:00*%
%TF.ProjectId,chastity,63686173-7469-4747-992e-6b696361645f,rev?*%
%TF.SameCoordinates,Original*%
%TF.FileFunction,Legend,Top*%
%TF.FilePolarity,Positive*%
%FSLAX46Y46*%
G04 Gerber Fmt 4.6, Leading zero omitted, Abs format (unit mm)*
G04 Created by KiCad (PCBNEW 8.0.5) date 2024-10-07 12:12:51*
%MOMM*%
%LPD*%
G01*
G04 APERTURE LIST*
G04 Aperture macros list*
%AMRoundRect*
0 Rectangle with rounded corners*
0 $1 Rounding radius*
0 $2 $3 $4 $5 $6 $7 $8 $9 X,Y pos of 4 corners*
0 Add a 4 corners polygon primitive as box body*
4,1,4,$2,$3,$4,$5,$6,$7,$8,$9,$2,$3,0*
0 Add four circle primitives for the rounded corners*
1,1,$1+$1,$2,$3*
1,1,$1+$1,$4,$5*
1,1,$1+$1,$6,$7*
1,1,$1+$1,$8,$9*
0 Add four rect primitives between the rounded corners*
20,1,$1+$1,$2,$3,$4,$5,0*
20,1,$1+$1,$4,$5,$6,$7,0*
20,1,$1+$1,$6,$7,$8,$9,0*
20,1,$1+$1,$8,$9,$2,$3,0*%
G04 Aperture macros list end*
%ADD10C,0.150000*%
%ADD11C,0.120000*%
%ADD12R,1.000000X0.800000*%
%ADD13C,0.900000*%
%ADD14R,0.700000X1.500000*%
%ADD15C,1.700000*%
%ADD16C,3.400000*%
%ADD17O,1.750000X1.200000*%
%ADD18RoundRect,0.250000X0.625000X-0.350000X0.625000X0.350000X-0.625000X0.350000X-0.625000X-0.350000X0*%
%ADD19RoundRect,0.250000X-0.625000X0.350000X-0.625000X-0.350000X0.625000X-0.350000X0.625000X0.350000X0*%
%ADD20C,0.800000*%
G04 APERTURE END LIST*
D10*
X3061669Y83420799D02*
X3204526Y83373180D01*
X3204526Y83373180D02*
X3442621Y83373180D01*
X3442621Y83373180D02*
X3537859Y83420799D01*
X3537859Y83420799D02*
X3585478Y83468419D01*
X3585478Y83468419D02*
X3633097Y83563657D01*
X3633097Y83563657D02*
X3633097Y83658895D01*
X3633097Y83658895D02*
X3585478Y83754133D01*
X3585478Y83754133D02*
X3537859Y83801752D01*
X3537859Y83801752D02*
X3442621Y83849371D01*
X3442621Y83849371D02*
X3252145Y83896990D01*
X3252145Y83896990D02*
X3156907Y83944609D01*
X3156907Y83944609D02*
X3109288Y83992228D01*
X3109288Y83992228D02*
X3061669Y84087466D01*
X3061669Y84087466D02*
X3061669Y84182704D01*
X3061669Y84182704D02*
X3109288Y84277942D01*
X3109288Y84277942D02*
X3156907Y84325561D01*
X3156907Y84325561D02*
X3252145Y84373180D01*
X3252145Y84373180D02*
X3490240Y84373180D01*
X3490240Y84373180D02*
X3633097Y84325561D01*
X3966431Y84373180D02*
X4204526Y83373180D01*
X4204526Y83373180D02*
X4395002Y84087466D01*
X4395002Y84087466D02*
X4585478Y83373180D01*
X4585478Y83373180D02*
X4823574Y84373180D01*
X4966431Y83277942D02*
X5728335Y83277942D01*
X5966431Y83373180D02*
X5966431Y84373180D01*
X5966431Y84373180D02*
X6347383Y84373180D01*
X6347383Y84373180D02*
X6442621Y84325561D01*
X6442621Y84325561D02*
X6490240Y84277942D01*
X6490240Y84277942D02*
X6537859Y84182704D01*
X6537859Y84182704D02*
X6537859Y84039847D01*
X6537859Y84039847D02*
X6490240Y83944609D01*
X6490240Y83944609D02*
X6442621Y83896990D01*
X6442621Y83896990D02*
X6347383Y83849371D01*
X6347383Y83849371D02*
X5966431Y83849371D01*
X7156907Y84373180D02*
X7347383Y84373180D01*
X7347383Y84373180D02*
X7442621Y84325561D01*
X7442621Y84325561D02*
X7537859Y84230323D01*
X7537859Y84230323D02*
X7585478Y84039847D01*
X7585478Y84039847D02*
X7585478Y83706514D01*
X7585478Y83706514D02*
X7537859Y83516038D01*
X7537859Y83516038D02*
X7442621Y83420799D01*
X7442621Y83420799D02*
X7347383Y83373180D01*
X7347383Y83373180D02*
X7156907Y83373180D01*
X7156907Y83373180D02*
X7061669Y83420799D01*
X7061669Y83420799D02*
X6966431Y83516038D01*
X6966431Y83516038D02*
X6918812Y83706514D01*
X6918812Y83706514D02*
X6918812Y84039847D01*
X6918812Y84039847D02*
X6966431Y84230323D01*
X6966431Y84230323D02*
X7061669Y84325561D01*
X7061669Y84325561D02*
X7156907Y84373180D01*
X7918812Y84373180D02*
X8156907Y83373180D01*
X8156907Y83373180D02*
X8347383Y84087466D01*
X8347383Y84087466D02*
X8537859Y83373180D01*
X8537859Y83373180D02*
X8775955Y84373180D01*
X9156907Y83896990D02*
X9490240Y83896990D01*
X9633097Y83373180D02*
X9156907Y83373180D01*
X9156907Y83373180D02*
X9156907Y84373180D01*
X9156907Y84373180D02*
X9633097Y84373180D01*
X10633097Y83373180D02*
X10299764Y83849371D01*
X10061669Y83373180D02*
X10061669Y84373180D01*
X10061669Y84373180D02*
X10442621Y84373180D01*
X10442621Y84373180D02*
X10537859Y84325561D01*
X10537859Y84325561D02*
X10585478Y84277942D01*
X10585478Y84277942D02*
X10633097Y84182704D01*
X10633097Y84182704D02*
X10633097Y84039847D01*
X10633097Y84039847D02*
X10585478Y83944609D01*
X10585478Y83944609D02*
X10537859Y83896990D01*
X10537859Y83896990D02*
X10442621Y83849371D01*
X10442621Y83849371D02*
X10061669Y83849371D01*
X11633097Y83373180D02*
X11299764Y83849371D01*
X11061669Y83373180D02*
X11061669Y84373180D01*
X11061669Y84373180D02*
X11442621Y84373180D01*
X11442621Y84373180D02*
X11537859Y84325561D01*
X11537859Y84325561D02*
X11585478Y84277942D01*
X11585478Y84277942D02*
X11633097Y84182704D01*
X11633097Y84182704D02*
X11633097Y84039847D01*
X11633097Y84039847D02*
X11585478Y83944609D01*
X11585478Y83944609D02*
X11537859Y83896990D01*
X11537859Y83896990D02*
X11442621Y83849371D01*
X11442621Y83849371D02*
X11061669Y83849371D01*
X11966431Y84373180D02*
X12585478Y84373180D01*
X12585478Y84373180D02*
X12252145Y83992228D01*
X12252145Y83992228D02*
X12395002Y83992228D01*
X12395002Y83992228D02*
X12490240Y83944609D01*
X12490240Y83944609D02*
X12537859Y83896990D01*
X12537859Y83896990D02*
X12585478Y83801752D01*
X12585478Y83801752D02*
X12585478Y83563657D01*
X12585478Y83563657D02*
X12537859Y83468419D01*
X12537859Y83468419D02*
X12490240Y83420799D01*
X12490240Y83420799D02*
X12395002Y83373180D01*
X12395002Y83373180D02*
X12109288Y83373180D01*
X12109288Y83373180D02*
X12014050Y83420799D01*
X12014050Y83420799D02*
X11966431Y83468419D01*
X12966431Y84277942D02*
X13014050Y84325561D01*
X13014050Y84325561D02*
X13109288Y84373180D01*
X13109288Y84373180D02*
X13347383Y84373180D01*
X13347383Y84373180D02*
X13442621Y84325561D01*
X13442621Y84325561D02*
X13490240Y84277942D01*
X13490240Y84277942D02*
X13537859Y84182704D01*
X13537859Y84182704D02*
X13537859Y84087466D01*
X13537859Y84087466D02*
X13490240Y83944609D01*
X13490240Y83944609D02*
X12918812Y83373180D01*
X12918812Y83373180D02*
X13537859Y83373180D01*
X248898720Y83480355D02*
X249041577Y83432736D01*
X249041577Y83432736D02*
X249279672Y83432736D01*
X249279672Y83432736D02*
X249374910Y83480355D01*
X249374910Y83480355D02*
X249422529Y83527975D01*
X249422529Y83527975D02*
X249470148Y83623213D01*
X249470148Y83623213D02*
X249470148Y83718451D01*
X249470148Y83718451D02*
X249422529Y83813689D01*
X249422529Y83813689D02*
X249374910Y83861308D01*
X249374910Y83861308D02*
X249279672Y83908927D01*
X249279672Y83908927D02*
X249089196Y83956546D01*
X249089196Y83956546D02*
X248993958Y84004165D01*
X248993958Y84004165D02*
X248946339Y84051784D01*
X248946339Y84051784D02*
X248898720Y84147022D01*
X248898720Y84147022D02*
X248898720Y84242260D01*
X248898720Y84242260D02*
X248946339Y84337498D01*
X248946339Y84337498D02*
X248993958Y84385117D01*
X248993958Y84385117D02*
X249089196Y84432736D01*
X249089196Y84432736D02*
X249327291Y84432736D01*
X249327291Y84432736D02*
X249470148Y84385117D01*
X249803482Y84432736D02*
X250041577Y83432736D01*
X250041577Y83432736D02*
X250232053Y84147022D01*
X250232053Y84147022D02*
X250422529Y83432736D01*
X250422529Y83432736D02*
X250660625Y84432736D01*
X250803482Y83337498D02*
X251565386Y83337498D01*
X251803482Y83432736D02*
X251803482Y84432736D01*
X251803482Y84432736D02*
X252184434Y84432736D01*
X252184434Y84432736D02*
X252279672Y84385117D01*
X252279672Y84385117D02*
X252327291Y84337498D01*
X252327291Y84337498D02*
X252374910Y84242260D01*
X252374910Y84242260D02*
X252374910Y84099403D01*
X252374910Y84099403D02*
X252327291Y84004165D01*
X252327291Y84004165D02*
X252279672Y83956546D01*
X252279672Y83956546D02*
X252184434Y83908927D01*
X252184434Y83908927D02*
X251803482Y83908927D01*
X252993958Y84432736D02*
X253184434Y84432736D01*
X253184434Y84432736D02*
X253279672Y84385117D01*
X253279672Y84385117D02*
X253374910Y84289879D01*
X253374910Y84289879D02*
X253422529Y84099403D01*
X253422529Y84099403D02*
X253422529Y83766070D01*
X253422529Y83766070D02*
X253374910Y83575594D01*
X253374910Y83575594D02*
X253279672Y83480355D01*
X253279672Y83480355D02*
X253184434Y83432736D01*
X253184434Y83432736D02*
X252993958Y83432736D01*
X252993958Y83432736D02*
X252898720Y83480355D01*
X252898720Y83480355D02*
X252803482Y83575594D01*
X252803482Y83575594D02*
X252755863Y83766070D01*
X252755863Y83766070D02*
X252755863Y84099403D01*
X252755863Y84099403D02*
X252803482Y84289879D01*
X252803482Y84289879D02*
X252898720Y84385117D01*
X252898720Y84385117D02*
X252993958Y84432736D01*
X253755863Y84432736D02*
X253993958Y83432736D01*
X253993958Y83432736D02*
X254184434Y84147022D01*
X254184434Y84147022D02*
X254374910Y83432736D01*
X254374910Y83432736D02*
X254613006Y84432736D01*
X254993958Y83956546D02*
X255327291Y83956546D01*
X255470148Y83432736D02*
X254993958Y83432736D01*
X254993958Y83432736D02*
X254993958Y84432736D01*
X254993958Y84432736D02*
X255470148Y84432736D01*
X256470148Y83432736D02*
X256136815Y83908927D01*
X255898720Y83432736D02*
X255898720Y84432736D01*
X255898720Y84432736D02*
X256279672Y84432736D01*
X256279672Y84432736D02*
X256374910Y84385117D01*
X256374910Y84385117D02*
X256422529Y84337498D01*
X256422529Y84337498D02*
X256470148Y84242260D01*
X256470148Y84242260D02*
X256470148Y84099403D01*
X256470148Y84099403D02*
X256422529Y84004165D01*
X256422529Y84004165D02*
X256374910Y83956546D01*
X256374910Y83956546D02*
X256279672Y83908927D01*
X256279672Y83908927D02*
X255898720Y83908927D01*
X257470148Y83432736D02*
X257136815Y83908927D01*
X256898720Y83432736D02*
X256898720Y84432736D01*
X256898720Y84432736D02*
X257279672Y84432736D01*
X257279672Y84432736D02*
X257374910Y84385117D01*
X257374910Y84385117D02*
X257422529Y84337498D01*
X257422529Y84337498D02*
X257470148Y84242260D01*
X257470148Y84242260D02*
X257470148Y84099403D01*
X257470148Y84099403D02*
X257422529Y84004165D01*
X257422529Y84004165D02*
X257374910Y83956546D01*
X257374910Y83956546D02*
X257279672Y83908927D01*
X257279672Y83908927D02*
X256898720Y83908927D01*
X257803482Y84432736D02*
X258422529Y84432736D01*
X258422529Y84432736D02*
X258089196Y84051784D01*
X258089196Y84051784D02*
X258232053Y84051784D01*
X258232053Y84051784D02*
X258327291Y84004165D01*
X258327291Y84004165D02*
X258374910Y83956546D01*
X258374910Y83956546D02*
X258422529Y83861308D01*
X258422529Y83861308D02*
X258422529Y83623213D01*
X258422529Y83623213D02*
X258374910Y83527975D01*
X258374910Y83527975D02*
X258327291Y83480355D01*
X258327291Y83480355D02*
X258232053Y83432736D01*
X258232053Y83432736D02*
X257946339Y83432736D01*
X257946339Y83432736D02*
X257851101Y83480355D01*
X257851101Y83480355D02*
X257803482Y83527975D01*
X259374910Y83432736D02*
X258803482Y83432736D01*
X259089196Y83432736D02*
X259089196Y84432736D01*
X259089196Y84432736D02*
X258993958Y84289879D01*
X258993958Y84289879D02*
X258898720Y84194641D01*
X258898720Y84194641D02*
X258803482Y84147022D01*
X250901338Y86628782D02*
X250840862Y86568305D01*
X250840862Y86568305D02*
X250659433Y86507829D01*
X250659433Y86507829D02*
X250538481Y86507829D01*
X250538481Y86507829D02*
X250357052Y86568305D01*
X250357052Y86568305D02*
X250236100Y86689258D01*
X250236100Y86689258D02*
X250175623Y86810210D01*
X250175623Y86810210D02*
X250115147Y87052115D01*
X250115147Y87052115D02*
X250115147Y87233544D01*
X250115147Y87233544D02*
X250175623Y87475448D01*
X250175623Y87475448D02*
X250236100Y87596401D01*
X250236100Y87596401D02*
X250357052Y87717353D01*
X250357052Y87717353D02*
X250538481Y87777829D01*
X250538481Y87777829D02*
X250659433Y87777829D01*
X250659433Y87777829D02*
X250840862Y87717353D01*
X250840862Y87717353D02*
X250901338Y87656877D01*
X251385147Y87656877D02*
X251445623Y87717353D01*
X251445623Y87717353D02*
X251566576Y87777829D01*
X251566576Y87777829D02*
X251868957Y87777829D01*
X251868957Y87777829D02*
X251989909Y87717353D01*
X251989909Y87717353D02*
X252050385Y87656877D01*
X252050385Y87656877D02*
X252110862Y87535925D01*
X252110862Y87535925D02*
X252110862Y87414972D01*
X252110862Y87414972D02*
X252050385Y87233544D01*
X252050385Y87233544D02*
X251324671Y86507829D01*
X251324671Y86507829D02*
X252110862Y86507829D01*
X252594671Y87656877D02*
X252655147Y87717353D01*
X252655147Y87717353D02*
X252776100Y87777829D01*
X252776100Y87777829D02*
X253078481Y87777829D01*
X253078481Y87777829D02*
X253199433Y87717353D01*
X253199433Y87717353D02*
X253259909Y87656877D01*
X253259909Y87656877D02*
X253320386Y87535925D01*
X253320386Y87535925D02*
X253320386Y87414972D01*
X253320386Y87414972D02*
X253259909Y87233544D01*
X253259909Y87233544D02*
X252534195Y86507829D01*
X252534195Y86507829D02*
X253320386Y86507829D01*
X254529910Y86507829D02*
X253804195Y86507829D01*
X254167052Y86507829D02*
X254167052Y87777829D01*
X254167052Y87777829D02*
X254046100Y87596401D01*
X254046100Y87596401D02*
X253925148Y87475448D01*
X253925148Y87475448D02*
X253804195Y87414972D01*
X255255624Y87233544D02*
X255134672Y87294020D01*
X255134672Y87294020D02*
X255074195Y87354496D01*
X255074195Y87354496D02*
X255013719Y87475448D01*
X255013719Y87475448D02*
X255013719Y87535925D01*
X255013719Y87535925D02*
X255074195Y87656877D01*
X255074195Y87656877D02*
X255134672Y87717353D01*
X255134672Y87717353D02*
X255255624Y87777829D01*
X255255624Y87777829D02*
X255497529Y87777829D01*
X255497529Y87777829D02*
X255618481Y87717353D01*
X255618481Y87717353D02*
X255678957Y87656877D01*
X255678957Y87656877D02*
X255739434Y87535925D01*
X255739434Y87535925D02*
X255739434Y87475448D01*
X255739434Y87475448D02*
X255678957Y87354496D01*
X255678957Y87354496D02*
X255618481Y87294020D01*
X255618481Y87294020D02*
X255497529Y87233544D01*
X255497529Y87233544D02*
X255255624Y87233544D01*
X255255624Y87233544D02*
X255134672Y87173067D01*
X255134672Y87173067D02*
X255074195Y87112591D01*
X255074195Y87112591D02*
X255013719Y86991639D01*
X255013719Y86991639D02*
X255013719Y86749734D01*
X255013719Y86749734D02*
X255074195Y86628782D01*
X255074195Y86628782D02*
X255134672Y86568305D01*
X255134672Y86568305D02*
X255255624Y86507829D01*
X255255624Y86507829D02*
X255497529Y86507829D01*
X255497529Y86507829D02*
X255618481Y86568305D01*
X255618481Y86568305D02*
X255678957Y86628782D01*
X255678957Y86628782D02*
X255739434Y86749734D01*
X255739434Y86749734D02*
X255739434Y86991639D01*
X255739434Y86991639D02*
X255678957Y87112591D01*
X255678957Y87112591D02*
X255618481Y87173067D01*
X255618481Y87173067D02*
X255497529Y87233544D01*
X256828005Y87354496D02*
X256828005Y86507829D01*
X256525624Y87838305D02*
X256223243Y86931163D01*
X256223243Y86931163D02*
X257009434Y86931163D01*
X258158482Y86507829D02*
X257432767Y86507829D01*
X257795624Y86507829D02*
X257795624Y87777829D01*
X257795624Y87777829D02*
X257674672Y87596401D01*
X257674672Y87596401D02*
X257553720Y87475448D01*
X257553720Y87475448D02*
X257432767Y87414972D01*
X476543Y93758181D02*
X476543Y92948658D01*
X476543Y92948658D02*
X524162Y92853420D01*
X524162Y92853420D02*
X571781Y92805800D01*
X571781Y92805800D02*
X667019Y92758181D01*
X667019Y92758181D02*
X857495Y92758181D01*
X857495Y92758181D02*
X952733Y92805800D01*
X952733Y92805800D02*
X1000352Y92853420D01*
X1000352Y92853420D02*
X1047971Y92948658D01*
X1047971Y92948658D02*
X1047971Y93758181D01*
X1428924Y93758181D02*
X2047971Y93758181D01*
X2047971Y93758181D02*
X1714638Y93377229D01*
X1714638Y93377229D02*
X1857495Y93377229D01*
X1857495Y93377229D02*
X1952733Y93329610D01*
X1952733Y93329610D02*
X2000352Y93281991D01*
X2000352Y93281991D02*
X2047971Y93186753D01*
X2047971Y93186753D02*
X2047971Y92948658D01*
X2047971Y92948658D02*
X2000352Y92853420D01*
X2000352Y92853420D02*
X1952733Y92805800D01*
X1952733Y92805800D02*
X1857495Y92758181D01*
X1857495Y92758181D02*
X1571781Y92758181D01*
X1571781Y92758181D02*
X1476543Y92805800D01*
X1476543Y92805800D02*
X1428924Y92853420D01*
X2428924Y93662943D02*
X2476543Y93710562D01*
X2476543Y93710562D02*
X2571781Y93758181D01*
X2571781Y93758181D02*
X2809876Y93758181D01*
X2809876Y93758181D02*
X2905114Y93710562D01*
X2905114Y93710562D02*
X2952733Y93662943D01*
X2952733Y93662943D02*
X3000352Y93567705D01*
X3000352Y93567705D02*
X3000352Y93472467D01*
X3000352Y93472467D02*
X2952733Y93329610D01*
X2952733Y93329610D02*
X2381305Y92758181D01*
X2381305Y92758181D02*
X3000352Y92758181D01*
X6660716Y125049848D02*
X7041668Y125049848D01*
X6803573Y125383181D02*
X6803573Y124526039D01*
X6803573Y124526039D02*
X6851192Y124430800D01*
X6851192Y124430800D02*
X6946430Y124383181D01*
X6946430Y124383181D02*
X7041668Y124383181D01*
X7517859Y124383181D02*
X7422621Y124430800D01*
X7422621Y124430800D02*
X7375002Y124478420D01*
X7375002Y124478420D02*
X7327383Y124573658D01*
X7327383Y124573658D02*
X7327383Y124859372D01*
X7327383Y124859372D02*
X7375002Y124954610D01*
X7375002Y124954610D02*
X7422621Y125002229D01*
X7422621Y125002229D02*
X7517859Y125049848D01*
X7517859Y125049848D02*
X7660716Y125049848D01*
X7660716Y125049848D02*
X7755954Y125002229D01*
X7755954Y125002229D02*
X7803573Y124954610D01*
X7803573Y124954610D02*
X7851192Y124859372D01*
X7851192Y124859372D02*
X7851192Y124573658D01*
X7851192Y124573658D02*
X7803573Y124478420D01*
X7803573Y124478420D02*
X7755954Y124430800D01*
X7755954Y124430800D02*
X7660716Y124383181D01*
X7660716Y124383181D02*
X7517859Y124383181D01*
X8279764Y125049848D02*
X8279764Y124049848D01*
X8279764Y125002229D02*
X8375002Y125049848D01*
X8375002Y125049848D02*
X8565478Y125049848D01*
X8565478Y125049848D02*
X8660716Y125002229D01*
X8660716Y125002229D02*
X8708335Y124954610D01*
X8708335Y124954610D02*
X8755954Y124859372D01*
X8755954Y124859372D02*
X8755954Y124573658D01*
X8755954Y124573658D02*
X8708335Y124478420D01*
X8708335Y124478420D02*
X8660716Y124430800D01*
X8660716Y124430800D02*
X8565478Y124383181D01*
X8565478Y124383181D02*
X8375002Y124383181D01*
X8375002Y124383181D02*
X8279764Y124430800D01*
X9136907Y124430800D02*
X9232145Y124383181D01*
X9232145Y124383181D02*
X9422621Y124383181D01*
X9422621Y124383181D02*
X9517859Y124430800D01*
X9517859Y124430800D02*
X9565478Y124526039D01*
X9565478Y124526039D02*
X9565478Y124573658D01*
X9565478Y124573658D02*
X9517859Y124668896D01*
X9517859Y124668896D02*
X9422621Y124716515D01*
X9422621Y124716515D02*
X9279764Y124716515D01*
X9279764Y124716515D02*
X9184526Y124764134D01*
X9184526Y124764134D02*
X9136907Y124859372D01*
X9136907Y124859372D02*
X9136907Y124906991D01*
X9136907Y124906991D02*
X9184526Y125002229D01*
X9184526Y125002229D02*
X9279764Y125049848D01*
X9279764Y125049848D02*
X9422621Y125049848D01*
X9422621Y125049848D02*
X9517859Y125002229D01*
X9994050Y124383181D02*
X9994050Y125049848D01*
X9994050Y125383181D02*
X9946431Y125335562D01*
X9946431Y125335562D02*
X9994050Y125287943D01*
X9994050Y125287943D02*
X10041669Y125335562D01*
X10041669Y125335562D02*
X9994050Y125383181D01*
X9994050Y125383181D02*
X9994050Y125287943D01*
X10898811Y124383181D02*
X10898811Y125383181D01*
X10898811Y124430800D02*
X10803573Y124383181D01*
X10803573Y124383181D02*
X10613097Y124383181D01*
X10613097Y124383181D02*
X10517859Y124430800D01*
X10517859Y124430800D02*
X10470240Y124478420D01*
X10470240Y124478420D02*
X10422621Y124573658D01*
X10422621Y124573658D02*
X10422621Y124859372D01*
X10422621Y124859372D02*
X10470240Y124954610D01*
X10470240Y124954610D02*
X10517859Y125002229D01*
X10517859Y125002229D02*
X10613097Y125049848D01*
X10613097Y125049848D02*
X10803573Y125049848D01*
X10803573Y125049848D02*
X10898811Y125002229D01*
X11755954Y124430800D02*
X11660716Y124383181D01*
X11660716Y124383181D02*
X11470240Y124383181D01*
X11470240Y124383181D02*
X11375002Y124430800D01*
X11375002Y124430800D02*
X11327383Y124526039D01*
X11327383Y124526039D02*
X11327383Y124906991D01*
X11327383Y124906991D02*
X11375002Y125002229D01*
X11375002Y125002229D02*
X11470240Y125049848D01*
X11470240Y125049848D02*
X11660716Y125049848D01*
X11660716Y125049848D02*
X11755954Y125002229D01*
X11755954Y125002229D02*
X11803573Y124906991D01*
X11803573Y124906991D02*
X11803573Y124811753D01*
X11803573Y124811753D02*
X11327383Y124716515D01*
X8017859Y126783181D02*
X8017859Y125973658D01*
X8017859Y125973658D02*
X8065478Y125878420D01*
X8065478Y125878420D02*
X8113097Y125830800D01*
X8113097Y125830800D02*
X8208335Y125783181D01*
X8208335Y125783181D02*
X8398811Y125783181D01*
X8398811Y125783181D02*
X8494049Y125830800D01*
X8494049Y125830800D02*
X8541668Y125878420D01*
X8541668Y125878420D02*
X8589287Y125973658D01*
X8589287Y125973658D02*
X8589287Y126783181D01*
X9017859Y125830800D02*
X9160716Y125783181D01*
X9160716Y125783181D02*
X9398811Y125783181D01*
X9398811Y125783181D02*
X9494049Y125830800D01*
X9494049Y125830800D02*
X9541668Y125878420D01*
X9541668Y125878420D02*
X9589287Y125973658D01*
X9589287Y125973658D02*
X9589287Y126068896D01*
X9589287Y126068896D02*
X9541668Y126164134D01*
X9541668Y126164134D02*
X9494049Y126211753D01*
X9494049Y126211753D02*
X9398811Y126259372D01*
X9398811Y126259372D02*
X9208335Y126306991D01*
X9208335Y126306991D02*
X9113097Y126354610D01*
X9113097Y126354610D02*
X9065478Y126402229D01*
X9065478Y126402229D02*
X9017859Y126497467D01*
X9017859Y126497467D02*
X9017859Y126592705D01*
X9017859Y126592705D02*
X9065478Y126687943D01*
X9065478Y126687943D02*
X9113097Y126735562D01*
X9113097Y126735562D02*
X9208335Y126783181D01*
X9208335Y126783181D02*
X9446430Y126783181D01*
X9446430Y126783181D02*
X9589287Y126735562D01*
X10351192Y126306991D02*
X10494049Y126259372D01*
X10494049Y126259372D02*
X10541668Y126211753D01*
X10541668Y126211753D02*
X10589287Y126116515D01*
X10589287Y126116515D02*
X10589287Y125973658D01*
X10589287Y125973658D02*
X10541668Y125878420D01*
X10541668Y125878420D02*
X10494049Y125830800D01*
X10494049Y125830800D02*
X10398811Y125783181D01*
X10398811Y125783181D02*
X10017859Y125783181D01*
X10017859Y125783181D02*
X10017859Y126783181D01*
X10017859Y126783181D02*
X10351192Y126783181D01*
X10351192Y126783181D02*
X10446430Y126735562D01*
X10446430Y126735562D02*
X10494049Y126687943D01*
X10494049Y126687943D02*
X10541668Y126592705D01*
X10541668Y126592705D02*
X10541668Y126497467D01*
X10541668Y126497467D02*
X10494049Y126402229D01*
X10494049Y126402229D02*
X10446430Y126354610D01*
X10446430Y126354610D02*
X10351192Y126306991D01*
X10351192Y126306991D02*
X10017859Y126306991D01*
X3850478Y122865681D02*
X3279050Y122865681D01*
X3564764Y122865681D02*
X3564764Y123865681D01*
X3564764Y123865681D02*
X3469526Y123722824D01*
X3469526Y123722824D02*
X3374288Y123627586D01*
X3374288Y123627586D02*
X3279050Y123579967D01*
X244893594Y93707736D02*
X244893594Y92898213D01*
X244893594Y92898213D02*
X244941213Y92802975D01*
X244941213Y92802975D02*
X244988832Y92755355D01*
X244988832Y92755355D02*
X245084070Y92707736D01*
X245084070Y92707736D02*
X245274546Y92707736D01*
X245274546Y92707736D02*
X245369784Y92755355D01*
X245369784Y92755355D02*
X245417403Y92802975D01*
X245417403Y92802975D02*
X245465022Y92898213D01*
X245465022Y92898213D02*
X245465022Y93707736D01*
X245845975Y93707736D02*
X246465022Y93707736D01*
X246465022Y93707736D02*
X246131689Y93326784D01*
X246131689Y93326784D02*
X246274546Y93326784D01*
X246274546Y93326784D02*
X246369784Y93279165D01*
X246369784Y93279165D02*
X246417403Y93231546D01*
X246417403Y93231546D02*
X246465022Y93136308D01*
X246465022Y93136308D02*
X246465022Y92898213D01*
X246465022Y92898213D02*
X246417403Y92802975D01*
X246417403Y92802975D02*
X246369784Y92755355D01*
X246369784Y92755355D02*
X246274546Y92707736D01*
X246274546Y92707736D02*
X245988832Y92707736D01*
X245988832Y92707736D02*
X245893594Y92755355D01*
X245893594Y92755355D02*
X245845975Y92802975D01*
X247417403Y92707736D02*
X246845975Y92707736D01*
X247131689Y92707736D02*
X247131689Y93707736D01*
X247131689Y93707736D02*
X247036451Y93564879D01*
X247036451Y93564879D02*
X246941213Y93469641D01*
X246941213Y93469641D02*
X246845975Y93422022D01*
X251077767Y124999403D02*
X251458719Y124999403D01*
X251220624Y125332736D02*
X251220624Y124475594D01*
X251220624Y124475594D02*
X251268243Y124380355D01*
X251268243Y124380355D02*
X251363481Y124332736D01*
X251363481Y124332736D02*
X251458719Y124332736D01*
X251934910Y124332736D02*
X251839672Y124380355D01*
X251839672Y124380355D02*
X251792053Y124427975D01*
X251792053Y124427975D02*
X251744434Y124523213D01*
X251744434Y124523213D02*
X251744434Y124808927D01*
X251744434Y124808927D02*
X251792053Y124904165D01*
X251792053Y124904165D02*
X251839672Y124951784D01*
X251839672Y124951784D02*
X251934910Y124999403D01*
X251934910Y124999403D02*
X252077767Y124999403D01*
X252077767Y124999403D02*
X252173005Y124951784D01*
X252173005Y124951784D02*
X252220624Y124904165D01*
X252220624Y124904165D02*
X252268243Y124808927D01*
X252268243Y124808927D02*
X252268243Y124523213D01*
X252268243Y124523213D02*
X252220624Y124427975D01*
X252220624Y124427975D02*
X252173005Y124380355D01*
X252173005Y124380355D02*
X252077767Y124332736D01*
X252077767Y124332736D02*
X251934910Y124332736D01*
X252696815Y124999403D02*
X252696815Y123999403D01*
X252696815Y124951784D02*
X252792053Y124999403D01*
X252792053Y124999403D02*
X252982529Y124999403D01*
X252982529Y124999403D02*
X253077767Y124951784D01*
X253077767Y124951784D02*
X253125386Y124904165D01*
X253125386Y124904165D02*
X253173005Y124808927D01*
X253173005Y124808927D02*
X253173005Y124523213D01*
X253173005Y124523213D02*
X253125386Y124427975D01*
X253125386Y124427975D02*
X253077767Y124380355D01*
X253077767Y124380355D02*
X252982529Y124332736D01*
X252982529Y124332736D02*
X252792053Y124332736D01*
X252792053Y124332736D02*
X252696815Y124380355D01*
X253553958Y124380355D02*
X253649196Y124332736D01*
X253649196Y124332736D02*
X253839672Y124332736D01*
X253839672Y124332736D02*
X253934910Y124380355D01*
X253934910Y124380355D02*
X253982529Y124475594D01*
X253982529Y124475594D02*
X253982529Y124523213D01*
X253982529Y124523213D02*
X253934910Y124618451D01*
X253934910Y124618451D02*
X253839672Y124666070D01*
X253839672Y124666070D02*
X253696815Y124666070D01*
X253696815Y124666070D02*
X253601577Y124713689D01*
X253601577Y124713689D02*
X253553958Y124808927D01*
X253553958Y124808927D02*
X253553958Y124856546D01*
X253553958Y124856546D02*
X253601577Y124951784D01*
X253601577Y124951784D02*
X253696815Y124999403D01*
X253696815Y124999403D02*
X253839672Y124999403D01*
X253839672Y124999403D02*
X253934910Y124951784D01*
X254411101Y124332736D02*
X254411101Y124999403D01*
X254411101Y125332736D02*
X254363482Y125285117D01*
X254363482Y125285117D02*
X254411101Y125237498D01*
X254411101Y125237498D02*
X254458720Y125285117D01*
X254458720Y125285117D02*
X254411101Y125332736D01*
X254411101Y125332736D02*
X254411101Y125237498D01*
X255315862Y124332736D02*
X255315862Y125332736D01*
X255315862Y124380355D02*
X255220624Y124332736D01*
X255220624Y124332736D02*
X255030148Y124332736D01*
X255030148Y124332736D02*
X254934910Y124380355D01*
X254934910Y124380355D02*
X254887291Y124427975D01*
X254887291Y124427975D02*
X254839672Y124523213D01*
X254839672Y124523213D02*
X254839672Y124808927D01*
X254839672Y124808927D02*
X254887291Y124904165D01*
X254887291Y124904165D02*
X254934910Y124951784D01*
X254934910Y124951784D02*
X255030148Y124999403D01*
X255030148Y124999403D02*
X255220624Y124999403D01*
X255220624Y124999403D02*
X255315862Y124951784D01*
X256173005Y124380355D02*
X256077767Y124332736D01*
X256077767Y124332736D02*
X255887291Y124332736D01*
X255887291Y124332736D02*
X255792053Y124380355D01*
X255792053Y124380355D02*
X255744434Y124475594D01*
X255744434Y124475594D02*
X255744434Y124856546D01*
X255744434Y124856546D02*
X255792053Y124951784D01*
X255792053Y124951784D02*
X255887291Y124999403D01*
X255887291Y124999403D02*
X256077767Y124999403D01*
X256077767Y124999403D02*
X256173005Y124951784D01*
X256173005Y124951784D02*
X256220624Y124856546D01*
X256220624Y124856546D02*
X256220624Y124761308D01*
X256220624Y124761308D02*
X255744434Y124666070D01*
X248267529Y122815236D02*
X247696101Y122815236D01*
X247981815Y122815236D02*
X247981815Y123815236D01*
X247981815Y123815236D02*
X247886577Y123672379D01*
X247886577Y123672379D02*
X247791339Y123577141D01*
X247791339Y123577141D02*
X247696101Y123529522D01*
X252434910Y126732736D02*
X252434910Y125923213D01*
X252434910Y125923213D02*
X252482529Y125827975D01*
X252482529Y125827975D02*
X252530148Y125780355D01*
X252530148Y125780355D02*
X252625386Y125732736D01*
X252625386Y125732736D02*
X252815862Y125732736D01*
X252815862Y125732736D02*
X252911100Y125780355D01*
X252911100Y125780355D02*
X252958719Y125827975D01*
X252958719Y125827975D02*
X253006338Y125923213D01*
X253006338Y125923213D02*
X253006338Y126732736D01*
X253434910Y125780355D02*
X253577767Y125732736D01*
X253577767Y125732736D02*
X253815862Y125732736D01*
X253815862Y125732736D02*
X253911100Y125780355D01*
X253911100Y125780355D02*
X253958719Y125827975D01*
X253958719Y125827975D02*
X254006338Y125923213D01*
X254006338Y125923213D02*
X254006338Y126018451D01*
X254006338Y126018451D02*
X253958719Y126113689D01*
X253958719Y126113689D02*
X253911100Y126161308D01*
X253911100Y126161308D02*
X253815862Y126208927D01*
X253815862Y126208927D02*
X253625386Y126256546D01*
X253625386Y126256546D02*
X253530148Y126304165D01*
X253530148Y126304165D02*
X253482529Y126351784D01*
X253482529Y126351784D02*
X253434910Y126447022D01*
X253434910Y126447022D02*
X253434910Y126542260D01*
X253434910Y126542260D02*
X253482529Y126637498D01*
X253482529Y126637498D02*
X253530148Y126685117D01*
X253530148Y126685117D02*
X253625386Y126732736D01*
X253625386Y126732736D02*
X253863481Y126732736D01*
X253863481Y126732736D02*
X254006338Y126685117D01*
X254768243Y126256546D02*
X254911100Y126208927D01*
X254911100Y126208927D02*
X254958719Y126161308D01*
X254958719Y126161308D02*
X255006338Y126066070D01*
X255006338Y126066070D02*
X255006338Y125923213D01*
X255006338Y125923213D02*
X254958719Y125827975D01*
X254958719Y125827975D02*
X254911100Y125780355D01*
X254911100Y125780355D02*
X254815862Y125732736D01*
X254815862Y125732736D02*
X254434910Y125732736D01*
X254434910Y125732736D02*
X254434910Y126732736D01*
X254434910Y126732736D02*
X254768243Y126732736D01*
X254768243Y126732736D02*
X254863481Y126685117D01*
X254863481Y126685117D02*
X254911100Y126637498D01*
X254911100Y126637498D02*
X254958719Y126542260D01*
X254958719Y126542260D02*
X254958719Y126447022D01*
X254958719Y126447022D02*
X254911100Y126351784D01*
X254911100Y126351784D02*
X254863481Y126304165D01*
X254863481Y126304165D02*
X254768243Y126256546D01*
X254768243Y126256546D02*
X254434910Y126256546D01*
X13856431Y75675800D02*
X13999288Y75628181D01*
X13999288Y75628181D02*
X14237383Y75628181D01*
X14237383Y75628181D02*
X14332621Y75675800D01*
X14332621Y75675800D02*
X14380240Y75723420D01*
X14380240Y75723420D02*
X14427859Y75818658D01*
X14427859Y75818658D02*
X14427859Y75913896D01*
X14427859Y75913896D02*
X14380240Y76009134D01*
X14380240Y76009134D02*
X14332621Y76056753D01*
X14332621Y76056753D02*
X14237383Y76104372D01*
X14237383Y76104372D02*
X14046907Y76151991D01*
X14046907Y76151991D02*
X13951669Y76199610D01*
X13951669Y76199610D02*
X13904050Y76247229D01*
X13904050Y76247229D02*
X13856431Y76342467D01*
X13856431Y76342467D02*
X13856431Y76437705D01*
X13856431Y76437705D02*
X13904050Y76532943D01*
X13904050Y76532943D02*
X13951669Y76580562D01*
X13951669Y76580562D02*
X14046907Y76628181D01*
X14046907Y76628181D02*
X14285002Y76628181D01*
X14285002Y76628181D02*
X14427859Y76580562D01*
X14761193Y76628181D02*
X14999288Y75628181D01*
X14999288Y75628181D02*
X15189764Y76342467D01*
X15189764Y76342467D02*
X15380240Y75628181D01*
X15380240Y75628181D02*
X15618336Y76628181D01*
X15951669Y76532943D02*
X15999288Y76580562D01*
X15999288Y76580562D02*
X16094526Y76628181D01*
X16094526Y76628181D02*
X16332621Y76628181D01*
X16332621Y76628181D02*
X16427859Y76580562D01*
X16427859Y76580562D02*
X16475478Y76532943D01*
X16475478Y76532943D02*
X16523097Y76437705D01*
X16523097Y76437705D02*
X16523097Y76342467D01*
X16523097Y76342467D02*
X16475478Y76199610D01*
X16475478Y76199610D02*
X15904050Y75628181D01*
X15904050Y75628181D02*
X16523097Y75628181D01*
X6204287Y68624227D02*
X6143811Y68563750D01*
X6143811Y68563750D02*
X5962382Y68503274D01*
X5962382Y68503274D02*
X5841430Y68503274D01*
X5841430Y68503274D02*
X5660001Y68563750D01*
X5660001Y68563750D02*
X5539049Y68684703D01*
X5539049Y68684703D02*
X5478572Y68805655D01*
X5478572Y68805655D02*
X5418096Y69047560D01*
X5418096Y69047560D02*
X5418096Y69228989D01*
X5418096Y69228989D02*
X5478572Y69470893D01*
X5478572Y69470893D02*
X5539049Y69591846D01*
X5539049Y69591846D02*
X5660001Y69712798D01*
X5660001Y69712798D02*
X5841430Y69773274D01*
X5841430Y69773274D02*
X5962382Y69773274D01*
X5962382Y69773274D02*
X6143811Y69712798D01*
X6143811Y69712798D02*
X6204287Y69652322D01*
X6688096Y69652322D02*
X6748572Y69712798D01*
X6748572Y69712798D02*
X6869525Y69773274D01*
X6869525Y69773274D02*
X7171906Y69773274D01*
X7171906Y69773274D02*
X7292858Y69712798D01*
X7292858Y69712798D02*
X7353334Y69652322D01*
X7353334Y69652322D02*
X7413811Y69531370D01*
X7413811Y69531370D02*
X7413811Y69410417D01*
X7413811Y69410417D02*
X7353334Y69228989D01*
X7353334Y69228989D02*
X6627620Y68503274D01*
X6627620Y68503274D02*
X7413811Y68503274D01*
X8562858Y69773274D02*
X7958096Y69773274D01*
X7958096Y69773274D02*
X7897620Y69168512D01*
X7897620Y69168512D02*
X7958096Y69228989D01*
X7958096Y69228989D02*
X8079049Y69289465D01*
X8079049Y69289465D02*
X8381430Y69289465D01*
X8381430Y69289465D02*
X8502382Y69228989D01*
X8502382Y69228989D02*
X8562858Y69168512D01*
X8562858Y69168512D02*
X8623335Y69047560D01*
X8623335Y69047560D02*
X8623335Y68745179D01*
X8623335Y68745179D02*
X8562858Y68624227D01*
X8562858Y68624227D02*
X8502382Y68563750D01*
X8502382Y68563750D02*
X8381430Y68503274D01*
X8381430Y68503274D02*
X8079049Y68503274D01*
X8079049Y68503274D02*
X7958096Y68563750D01*
X7958096Y68563750D02*
X7897620Y68624227D01*
X9772382Y69773274D02*
X9167620Y69773274D01*
X9167620Y69773274D02*
X9107144Y69168512D01*
X9107144Y69168512D02*
X9167620Y69228989D01*
X9167620Y69228989D02*
X9288573Y69289465D01*
X9288573Y69289465D02*
X9590954Y69289465D01*
X9590954Y69289465D02*
X9711906Y69228989D01*
X9711906Y69228989D02*
X9772382Y69168512D01*
X9772382Y69168512D02*
X9832859Y69047560D01*
X9832859Y69047560D02*
X9832859Y68745179D01*
X9832859Y68745179D02*
X9772382Y68624227D01*
X9772382Y68624227D02*
X9711906Y68563750D01*
X9711906Y68563750D02*
X9590954Y68503274D01*
X9590954Y68503274D02*
X9288573Y68503274D01*
X9288573Y68503274D02*
X9167620Y68563750D01*
X9167620Y68563750D02*
X9107144Y68624227D01*
X10981906Y69773274D02*
X10377144Y69773274D01*
X10377144Y69773274D02*
X10316668Y69168512D01*
X10316668Y69168512D02*
X10377144Y69228989D01*
X10377144Y69228989D02*
X10498097Y69289465D01*
X10498097Y69289465D02*
X10800478Y69289465D01*
X10800478Y69289465D02*
X10921430Y69228989D01*
X10921430Y69228989D02*
X10981906Y69168512D01*
X10981906Y69168512D02*
X11042383Y69047560D01*
X11042383Y69047560D02*
X11042383Y68745179D01*
X11042383Y68745179D02*
X10981906Y68624227D01*
X10981906Y68624227D02*
X10921430Y68563750D01*
X10921430Y68563750D02*
X10800478Y68503274D01*
X10800478Y68503274D02*
X10498097Y68503274D01*
X10498097Y68503274D02*
X10377144Y68563750D01*
X10377144Y68563750D02*
X10316668Y68624227D01*
X12251907Y68503274D02*
X11526192Y68503274D01*
X11889049Y68503274D02*
X11889049Y69773274D01*
X11889049Y69773274D02*
X11768097Y69591846D01*
X11768097Y69591846D02*
X11647145Y69470893D01*
X11647145Y69470893D02*
X11526192Y69410417D01*
X13400954Y69773274D02*
X12796192Y69773274D01*
X12796192Y69773274D02*
X12735716Y69168512D01*
X12735716Y69168512D02*
X12796192Y69228989D01*
X12796192Y69228989D02*
X12917145Y69289465D01*
X12917145Y69289465D02*
X13219526Y69289465D01*
X13219526Y69289465D02*
X13340478Y69228989D01*
X13340478Y69228989D02*
X13400954Y69168512D01*
X13400954Y69168512D02*
X13461431Y69047560D01*
X13461431Y69047560D02*
X13461431Y68745179D01*
X13461431Y68745179D02*
X13400954Y68624227D01*
X13400954Y68624227D02*
X13340478Y68563750D01*
X13340478Y68563750D02*
X13219526Y68503274D01*
X13219526Y68503274D02*
X12917145Y68503274D01*
X12917145Y68503274D02*
X12796192Y68563750D01*
X12796192Y68563750D02*
X12735716Y68624227D01*
X257783482Y75785355D02*
X257926339Y75737736D01*
X257926339Y75737736D02*
X258164434Y75737736D01*
X258164434Y75737736D02*
X258259672Y75785355D01*
X258259672Y75785355D02*
X258307291Y75832975D01*
X258307291Y75832975D02*
X258354910Y75928213D01*
X258354910Y75928213D02*
X258354910Y76023451D01*
X258354910Y76023451D02*
X258307291Y76118689D01*
X258307291Y76118689D02*
X258259672Y76166308D01*
X258259672Y76166308D02*
X258164434Y76213927D01*
X258164434Y76213927D02*
X257973958Y76261546D01*
X257973958Y76261546D02*
X257878720Y76309165D01*
X257878720Y76309165D02*
X257831101Y76356784D01*
X257831101Y76356784D02*
X257783482Y76452022D01*
X257783482Y76452022D02*
X257783482Y76547260D01*
X257783482Y76547260D02*
X257831101Y76642498D01*
X257831101Y76642498D02*
X257878720Y76690117D01*
X257878720Y76690117D02*
X257973958Y76737736D01*
X257973958Y76737736D02*
X258212053Y76737736D01*
X258212053Y76737736D02*
X258354910Y76690117D01*
X258688244Y76737736D02*
X258926339Y75737736D01*
X258926339Y75737736D02*
X259116815Y76452022D01*
X259116815Y76452022D02*
X259307291Y75737736D01*
X259307291Y75737736D02*
X259545387Y76737736D01*
X260450148Y75737736D02*
X259878720Y75737736D01*
X260164434Y75737736D02*
X260164434Y76737736D01*
X260164434Y76737736D02*
X260069196Y76594879D01*
X260069196Y76594879D02*
X259973958Y76499641D01*
X259973958Y76499641D02*
X259878720Y76452022D01*
X250131338Y68733782D02*
X250070862Y68673305D01*
X250070862Y68673305D02*
X249889433Y68612829D01*
X249889433Y68612829D02*
X249768481Y68612829D01*
X249768481Y68612829D02*
X249587052Y68673305D01*
X249587052Y68673305D02*
X249466100Y68794258D01*
X249466100Y68794258D02*
X249405623Y68915210D01*
X249405623Y68915210D02*
X249345147Y69157115D01*
X249345147Y69157115D02*
X249345147Y69338544D01*
X249345147Y69338544D02*
X249405623Y69580448D01*
X249405623Y69580448D02*
X249466100Y69701401D01*
X249466100Y69701401D02*
X249587052Y69822353D01*
X249587052Y69822353D02*
X249768481Y69882829D01*
X249768481Y69882829D02*
X249889433Y69882829D01*
X249889433Y69882829D02*
X250070862Y69822353D01*
X250070862Y69822353D02*
X250131338Y69761877D01*
X250615147Y69761877D02*
X250675623Y69822353D01*
X250675623Y69822353D02*
X250796576Y69882829D01*
X250796576Y69882829D02*
X251098957Y69882829D01*
X251098957Y69882829D02*
X251219909Y69822353D01*
X251219909Y69822353D02*
X251280385Y69761877D01*
X251280385Y69761877D02*
X251340862Y69640925D01*
X251340862Y69640925D02*
X251340862Y69519972D01*
X251340862Y69519972D02*
X251280385Y69338544D01*
X251280385Y69338544D02*
X250554671Y68612829D01*
X250554671Y68612829D02*
X251340862Y68612829D01*
X252489909Y69882829D02*
X251885147Y69882829D01*
X251885147Y69882829D02*
X251824671Y69278067D01*
X251824671Y69278067D02*
X251885147Y69338544D01*
X251885147Y69338544D02*
X252006100Y69399020D01*
X252006100Y69399020D02*
X252308481Y69399020D01*
X252308481Y69399020D02*
X252429433Y69338544D01*
X252429433Y69338544D02*
X252489909Y69278067D01*
X252489909Y69278067D02*
X252550386Y69157115D01*
X252550386Y69157115D02*
X252550386Y68854734D01*
X252550386Y68854734D02*
X252489909Y68733782D01*
X252489909Y68733782D02*
X252429433Y68673305D01*
X252429433Y68673305D02*
X252308481Y68612829D01*
X252308481Y68612829D02*
X252006100Y68612829D01*
X252006100Y68612829D02*
X251885147Y68673305D01*
X251885147Y68673305D02*
X251824671Y68733782D01*
X253699433Y69882829D02*
X253094671Y69882829D01*
X253094671Y69882829D02*
X253034195Y69278067D01*
X253034195Y69278067D02*
X253094671Y69338544D01*
X253094671Y69338544D02*
X253215624Y69399020D01*
X253215624Y69399020D02*
X253518005Y69399020D01*
X253518005Y69399020D02*
X253638957Y69338544D01*
X253638957Y69338544D02*
X253699433Y69278067D01*
X253699433Y69278067D02*
X253759910Y69157115D01*
X253759910Y69157115D02*
X253759910Y68854734D01*
X253759910Y68854734D02*
X253699433Y68733782D01*
X253699433Y68733782D02*
X253638957Y68673305D01*
X253638957Y68673305D02*
X253518005Y68612829D01*
X253518005Y68612829D02*
X253215624Y68612829D01*
X253215624Y68612829D02*
X253094671Y68673305D01*
X253094671Y68673305D02*
X253034195Y68733782D01*
X254908957Y69882829D02*
X254304195Y69882829D01*
X254304195Y69882829D02*
X254243719Y69278067D01*
X254243719Y69278067D02*
X254304195Y69338544D01*
X254304195Y69338544D02*
X254425148Y69399020D01*
X254425148Y69399020D02*
X254727529Y69399020D01*
X254727529Y69399020D02*
X254848481Y69338544D01*
X254848481Y69338544D02*
X254908957Y69278067D01*
X254908957Y69278067D02*
X254969434Y69157115D01*
X254969434Y69157115D02*
X254969434Y68854734D01*
X254969434Y68854734D02*
X254908957Y68733782D01*
X254908957Y68733782D02*
X254848481Y68673305D01*
X254848481Y68673305D02*
X254727529Y68612829D01*
X254727529Y68612829D02*
X254425148Y68612829D01*
X254425148Y68612829D02*
X254304195Y68673305D01*
X254304195Y68673305D02*
X254243719Y68733782D01*
X256178958Y68612829D02*
X255453243Y68612829D01*
X255816100Y68612829D02*
X255816100Y69882829D01*
X255816100Y69882829D02*
X255695148Y69701401D01*
X255695148Y69701401D02*
X255574196Y69580448D01*
X255574196Y69580448D02*
X255453243Y69519972D01*
X257328005Y69882829D02*
X256723243Y69882829D01*
X256723243Y69882829D02*
X256662767Y69278067D01*
X256662767Y69278067D02*
X256723243Y69338544D01*
X256723243Y69338544D02*
X256844196Y69399020D01*
X256844196Y69399020D02*
X257146577Y69399020D01*
X257146577Y69399020D02*
X257267529Y69338544D01*
X257267529Y69338544D02*
X257328005Y69278067D01*
X257328005Y69278067D02*
X257388482Y69157115D01*
X257388482Y69157115D02*
X257388482Y68854734D01*
X257388482Y68854734D02*
X257328005Y68733782D01*
X257328005Y68733782D02*
X257267529Y68673305D01*
X257267529Y68673305D02*
X257146577Y68612829D01*
X257146577Y68612829D02*
X256844196Y68612829D01*
X256844196Y68612829D02*
X256723243Y68673305D01*
X256723243Y68673305D02*
X256662767Y68733782D01*
D11*
%TO.C,SW_POWERR32*%
X4849765Y87747999D02*
X4849764Y86957999D01*
X6899764Y85907999D02*
X6699764Y85907999D01*
X8399763Y90047999D02*
X8399764Y88758000D01*
X8399763Y90047999D02*
X8599765Y90258000D01*
X9499765Y90257999D02*
X8599765Y90258000D01*
X9699764Y90047999D02*
X9499765Y90257999D01*
X9699764Y88757999D02*
X9699764Y90047999D01*
X9899764Y85907999D02*
X8199764Y85907999D01*
X11149764Y88757999D02*
X5449764Y88757999D01*
X11749764Y86957999D02*
X11749765Y87747999D01*
%TO.C,SW_POWERR31*%
X257586815Y87017555D02*
X257586815Y87807555D01*
X256986815Y88817555D02*
X251286815Y88817555D01*
X255736815Y85967555D02*
X254036815Y85967555D01*
X255536815Y88817555D02*
X255536815Y90107555D01*
X255536815Y90107555D02*
X255336815Y90317555D01*
X255336815Y90317555D02*
X254436815Y90317555D01*
X254236815Y90107555D02*
X254436815Y90317555D01*
X254236815Y90107555D02*
X254236815Y88817555D01*
X252736815Y85967555D02*
X252536815Y85967555D01*
X250686815Y87807555D02*
X250686815Y87017555D01*
D10*
%TO.C,U32*%
X5729764Y123653000D02*
X5729764Y127233000D01*
X12829764Y123653000D02*
X5729764Y123653000D01*
X12829764Y123653000D02*
X12829764Y127233000D01*
X389764Y127233000D02*
X18169764Y127233000D01*
X18169764Y94213000D01*
X389764Y94213000D01*
X389764Y127233000D01*
%TO.C,U31*%
X244806815Y127182555D02*
X262586815Y127182555D01*
X262586815Y94162555D01*
X244806815Y94162555D01*
X244806815Y127182555D01*
X257246815Y123602555D02*
X257246815Y127182555D01*
X257246815Y123602555D02*
X250146815Y123602555D01*
X250146815Y123602555D02*
X250146815Y127182555D01*
D11*
%TO.C,SW2*%
X3539764Y75183000D02*
X5939764Y75183000D01*
X3539764Y71083000D02*
X3539764Y75183000D01*
X3539764Y67083000D02*
X3539764Y62983000D01*
X3539764Y62983000D02*
X15339764Y62983000D01*
X8139764Y75183000D02*
X10739764Y75183000D01*
X12939764Y75183000D02*
X15339764Y75183000D01*
X15339764Y75183000D02*
X15339764Y71083000D01*
X15339764Y67083000D02*
X15339764Y62983000D01*
X11439764Y69083000D02*
G75*
G02*
X7439764Y69083000I-2000000J0D01*
G01*
X7439764Y69083000D02*
G75*
G02*
X11439764Y69083000I2000000J0D01*
G01*
X9439764Y63184892D02*
X9199764Y63514892D01*
X9679764Y63514892D01*
X9439764Y63184892D01*
G36*
X9439764Y63184892D02*
G01*
X9199764Y63514892D01*
X9679764Y63514892D01*
X9439764Y63184892D01*
G37*
%TO.C,SW1*%
X253366815Y63294447D02*
X253126815Y63624447D01*
X253606815Y63624447D01*
X253366815Y63294447D01*
G36*
X253366815Y63294447D02*
G01*
X253126815Y63624447D01*
X253606815Y63624447D01*
X253366815Y63294447D01*
G37*
X255366815Y69192555D02*
G75*
G02*
X251366815Y69192555I-2000000J0D01*
G01*
X251366815Y69192555D02*
G75*
G02*
X255366815Y69192555I2000000J0D01*
G01*
X259266815Y67192555D02*
X259266815Y63092555D01*
X259266815Y75292555D02*
X259266815Y71192555D01*
X256866815Y75292555D02*
X259266815Y75292555D01*
X252066815Y75292555D02*
X254666815Y75292555D01*
X247466815Y63092555D02*
X259266815Y63092555D01*
X247466815Y67192555D02*
X247466815Y63092555D01*
X247466815Y71192555D02*
X247466815Y75292555D01*
X247466815Y75292555D02*
X249866815Y75292555D01*
%TD*%
%LPC*%
D12*
%TO.C,SW_POWERR32*%
X11949764Y86247998D03*
X11949764Y88457999D03*
D13*
X9799764Y87357999D03*
X6799764Y87357999D03*
D12*
X4649764Y86248000D03*
X4649764Y88457999D03*
D14*
X10549765Y85597999D03*
X7549764Y85597999D03*
X6049765Y85597999D03*
%TD*%
%TO.C,SW_POWERR31*%
X251886815Y85657555D03*
X253386815Y85657555D03*
X256386815Y85657555D03*
D12*
X250486815Y88517555D03*
X250486815Y86307555D03*
D13*
X252636815Y87417555D03*
X255636815Y87417555D03*
D12*
X257786815Y88517555D03*
X257786815Y86307555D03*
%TD*%
D15*
%TO.C,MX35*%
X109134764Y116243000D03*
D16*
X103634764Y116243000D03*
D15*
X98134764Y116243000D03*
%TD*%
%TO.C,MX19*%
X135626815Y65252555D03*
D16*
X141126815Y65252555D03*
D15*
X146626815Y65252555D03*
%TD*%
%TO.C,MX58*%
X82374322Y50561205D03*
D16*
X76887720Y50944866D03*
D15*
X71401118Y51328527D03*
%TD*%
%TO.C,MX4*%
X189626815Y123552555D03*
D16*
X195126815Y123552555D03*
D15*
X200626815Y123552555D03*
%TD*%
%TO.C,MX40*%
X91139764Y104043000D03*
D16*
X85639764Y104043000D03*
D15*
X80139764Y104043000D03*
%TD*%
%TO.C,MX11*%
X207626815Y104052555D03*
D16*
X213126815Y104052555D03*
D15*
X218626815Y104052555D03*
%TD*%
%TO.C,MX10*%
X189626815Y106552555D03*
D16*
X195126815Y106552555D03*
D15*
X200626815Y106552555D03*
%TD*%
%TO.C,MX15*%
X171626815Y87052555D03*
D16*
X177126815Y87052555D03*
D15*
X182626815Y87052555D03*
%TD*%
%TO.C,MX60*%
X124889764Y48233000D03*
D16*
X119389764Y48233000D03*
D15*
X113889764Y48233000D03*
%TD*%
%TO.C,MX54*%
X127134764Y65243000D03*
D16*
X121634764Y65243000D03*
D15*
X116134764Y65243000D03*
%TD*%
%TO.C,MX33*%
X73152114Y123504250D03*
D16*
X67652114Y123504250D03*
D15*
X62152114Y123504250D03*
%TD*%
%TO.C,MX14*%
X153626815Y82252555D03*
D16*
X159126815Y82252555D03*
D15*
X164626815Y82252555D03*
%TD*%
%TO.C,MX41*%
X109134764Y99243000D03*
D16*
X103634764Y99243000D03*
D15*
X98134764Y99243000D03*
%TD*%
%TO.C,MX9*%
X171626815Y104052555D03*
D16*
X177126815Y104052555D03*
D15*
X182626815Y104052555D03*
%TD*%
%TO.C,MX32*%
X55152114Y121054250D03*
D16*
X49652114Y121054250D03*
D15*
X44152114Y121054250D03*
%TD*%
%TO.C,MX16*%
X189626815Y89552555D03*
D16*
X195126815Y89552555D03*
D15*
X200626815Y89552555D03*
%TD*%
%TO.C,MX31*%
X37152114Y118704250D03*
D16*
X31652114Y118704250D03*
D15*
X26152114Y118704250D03*
%TD*%
%TO.C,MX26*%
X160652937Y45640545D03*
D16*
X165939876Y47156550D03*
D15*
X171226815Y48672555D03*
%TD*%
%TO.C,MX2*%
X153626815Y116252555D03*
D16*
X159126815Y116252555D03*
D15*
X164626815Y116252555D03*
%TD*%
%TO.C,MX21*%
X171626815Y70052555D03*
D16*
X177126815Y70052555D03*
D15*
X182626815Y70052555D03*
%TD*%
%TO.C,MX3*%
X171626815Y121052555D03*
D16*
X177126815Y121052555D03*
D15*
X182626815Y121052555D03*
%TD*%
%TO.C,MX56*%
X42699764Y49083000D03*
D16*
X37340729Y47845769D03*
D15*
X31981694Y46608538D03*
%TD*%
%TO.C,MX13*%
X135626815Y82252555D03*
D16*
X141126815Y82252555D03*
D15*
X146626815Y82252555D03*
%TD*%
%TO.C,MX12*%
X225626815Y101752555D03*
D16*
X231126815Y101752555D03*
D15*
X236626815Y101752555D03*
%TD*%
%TO.C,MX1*%
X135626815Y116252555D03*
D16*
X141126815Y116252555D03*
D15*
X146626815Y116252555D03*
%TD*%
%TO.C,MX44*%
X55152114Y87054250D03*
D16*
X49652114Y87054250D03*
D15*
X44152114Y87054250D03*
%TD*%
%TO.C,MX18*%
X225626815Y84752555D03*
D16*
X231126815Y84752555D03*
D15*
X236626815Y84752555D03*
%TD*%
%TO.C,MX20*%
X153626815Y65252555D03*
D16*
X159126815Y65252555D03*
D15*
X164626815Y65252555D03*
%TD*%
%TO.C,MX53*%
X109134764Y65243000D03*
D16*
X103634764Y65243000D03*
D15*
X98134764Y65243000D03*
%TD*%
%TO.C,MX47*%
X109134764Y82243000D03*
D16*
X103634764Y82243000D03*
D15*
X98134764Y82243000D03*
%TD*%
%TO.C,MX59*%
X102116703Y45636995D03*
D16*
X96829764Y47153000D03*
D15*
X91542825Y48669005D03*
%TD*%
%TO.C,MX34*%
X91139764Y121043000D03*
D16*
X85639764Y121043000D03*
D15*
X80139764Y121043000D03*
%TD*%
%TO.C,MX36*%
X127134764Y116243000D03*
D16*
X121634764Y116243000D03*
D15*
X116134764Y116243000D03*
%TD*%
%TO.C,MX25*%
X137880058Y48238079D03*
D16*
X143380058Y48238079D03*
D15*
X148880058Y48238079D03*
%TD*%
%TO.C,MX8*%
X153626815Y99252555D03*
D16*
X159126815Y99252555D03*
D15*
X164626815Y99252555D03*
%TD*%
%TO.C,MX29*%
X220083197Y49098919D03*
D16*
X225442232Y47861688D03*
D15*
X230801267Y46624457D03*
%TD*%
%TO.C,MX42*%
X127134764Y99243000D03*
D16*
X121634764Y99243000D03*
D15*
X116134764Y99243000D03*
%TD*%
%TO.C,MX27*%
X180383611Y50555233D03*
D16*
X185870213Y50938894D03*
D15*
X191356815Y51322555D03*
%TD*%
%TO.C,MX7*%
X135626815Y99252555D03*
D16*
X141126815Y99252555D03*
D15*
X146626815Y99252555D03*
%TD*%
%TO.C,MX45*%
X73152114Y89504250D03*
D16*
X67652114Y89504250D03*
D15*
X62152114Y89504250D03*
%TD*%
%TO.C,MX23*%
X207626815Y70052555D03*
D16*
X213126815Y70052555D03*
D15*
X218626815Y70052555D03*
%TD*%
%TO.C,MX37*%
X37152114Y101704250D03*
D16*
X31652114Y101704250D03*
D15*
X26152114Y101704250D03*
%TD*%
%TO.C,MX49*%
X37152114Y67704250D03*
D16*
X31652114Y67704250D03*
D15*
X26152114Y67704250D03*
%TD*%
%TO.C,MX28*%
X200293611Y51289877D03*
D16*
X205780213Y50906216D03*
D15*
X211266815Y50522555D03*
%TD*%
%TO.C,MX22*%
X189626815Y72552555D03*
D16*
X195126815Y72552555D03*
D15*
X200626815Y72552555D03*
%TD*%
D17*
%TO.C,J31*%
X241536815Y124512555D03*
D18*
X241536815Y122512555D03*
%TD*%
D15*
%TO.C,MX43*%
X37152114Y84704250D03*
D16*
X31652114Y84704250D03*
D15*
X26152114Y84704250D03*
%TD*%
%TO.C,MX38*%
X55152114Y104054250D03*
D16*
X49652114Y104054250D03*
D15*
X44152114Y104054250D03*
%TD*%
%TO.C,MX48*%
X127134764Y82243000D03*
D16*
X121634764Y82243000D03*
D15*
X116134764Y82243000D03*
%TD*%
%TO.C,MX17*%
X207626815Y87052555D03*
D16*
X213126815Y87052555D03*
D15*
X218626815Y87052555D03*
%TD*%
%TO.C,MX39*%
X73152114Y106504250D03*
D16*
X67652114Y106504250D03*
D15*
X62152114Y106504250D03*
%TD*%
%TO.C,MX52*%
X91139764Y70043000D03*
D16*
X85639764Y70043000D03*
D15*
X80139764Y70043000D03*
%TD*%
%TO.C,MX30*%
X253373763Y48223091D03*
D16*
X250876815Y43322555D03*
D15*
X248379867Y38422019D03*
%TD*%
%TO.C,MX6*%
X225626815Y118752555D03*
D16*
X231126815Y118752555D03*
D15*
X236626815Y118752555D03*
%TD*%
%TO.C,MX5*%
X207626815Y121052555D03*
D16*
X213126815Y121052555D03*
D15*
X218626815Y121052555D03*
%TD*%
%TO.C,MX50*%
X55152114Y70054250D03*
D16*
X49652114Y70054250D03*
D15*
X44152114Y70054250D03*
%TD*%
%TO.C,MX24*%
X225626815Y67752555D03*
D16*
X231126815Y67752555D03*
D15*
X236626815Y67752555D03*
%TD*%
%TO.C,MX46*%
X91139764Y87043000D03*
D16*
X85639764Y87043000D03*
D15*
X80139764Y87043000D03*
%TD*%
%TO.C,MX51*%
X73152114Y72504250D03*
D16*
X67652114Y72504250D03*
D15*
X62152114Y72504250D03*
%TD*%
%TO.C,MX55*%
X14391660Y38364157D03*
D16*
X11894712Y43264693D03*
D15*
X9397764Y48165229D03*
%TD*%
D19*
%TO.C,J32*%
X21239764Y124223000D03*
D17*
X21239764Y122223000D03*
%TD*%
D15*
%TO.C,MX57*%
X62444220Y51325808D03*
D16*
X56957618Y50942147D03*
D15*
X51471016Y50558486D03*
%TD*%
D20*
X137776815Y88112555D03*
X155776815Y87797555D03*
X173776815Y92377555D03*
X191776815Y94547555D03*
X209776815Y91517555D03*
X227776815Y88887555D03*
X118284764Y88493000D03*
X100284764Y88198000D03*
X46302114Y91728000D03*
X82289764Y92568000D03*
X64302114Y95188000D03*
X28302114Y88823000D03*
%LPD*%
M02*
