%TF.GenerationSoftware,KiCad,Pcbnew,8.0.5*%
%TF.CreationDate,2024-10-07T12:12:51+02:00*%
%TF.ProjectId,chastity,63686173-7469-4747-992e-6b696361645f,rev?*%
%TF.SameCoordinates,Original*%
%TF.FileFunction,Soldermask,Top*%
%TF.FilePolarity,Negative*%
%FSLAX46Y46*%
G04 Gerber Fmt 4.6, Leading zero omitted, Abs format (unit mm)*
G04 Created by KiCad (PCBNEW 8.0.5) date 2024-10-07 12:12:51*
%MOMM*%
%LPD*%
G01*
G04 APERTURE LIST*
G04 Aperture macros list*
%AMRoundRect*
0 Rectangle with rounded corners*
0 $1 Rounding radius*
0 $2 $3 $4 $5 $6 $7 $8 $9 X,Y pos of 4 corners*
0 Add a 4 corners polygon primitive as box body*
4,1,4,$2,$3,$4,$5,$6,$7,$8,$9,$2,$3,0*
0 Add four circle primitives for the rounded corners*
1,1,$1+$1,$2,$3*
1,1,$1+$1,$4,$5*
1,1,$1+$1,$6,$7*
1,1,$1+$1,$8,$9*
0 Add four rect primitives between the rounded corners*
20,1,$1+$1,$2,$3,$4,$5,0*
20,1,$1+$1,$4,$5,$6,$7,0*
20,1,$1+$1,$6,$7,$8,$9,0*
20,1,$1+$1,$8,$9,$2,$3,0*%
G04 Aperture macros list end*
%ADD10R,1.000000X0.800000*%
%ADD11C,0.900000*%
%ADD12R,0.700000X1.500000*%
%ADD13C,1.700000*%
%ADD14C,3.400000*%
%ADD15O,1.750000X1.200000*%
%ADD16RoundRect,0.250000X0.625000X-0.350000X0.625000X0.350000X-0.625000X0.350000X-0.625000X-0.350000X0*%
%ADD17RoundRect,0.250000X-0.625000X0.350000X-0.625000X-0.350000X0.625000X-0.350000X0.625000X0.350000X0*%
%ADD18C,0.800000*%
G04 APERTURE END LIST*
D10*
%TO.C,SW_POWERR32*%
X11949764Y86247998D03*
X11949764Y88457999D03*
D11*
X9799764Y87357999D03*
X6799764Y87357999D03*
D10*
X4649764Y86248000D03*
X4649764Y88457999D03*
D12*
X10549765Y85597999D03*
X7549764Y85597999D03*
X6049765Y85597999D03*
%TD*%
%TO.C,SW_POWERR31*%
X251886815Y85657555D03*
X253386815Y85657555D03*
X256386815Y85657555D03*
D10*
X250486815Y88517555D03*
X250486815Y86307555D03*
D11*
X252636815Y87417555D03*
X255636815Y87417555D03*
D10*
X257786815Y88517555D03*
X257786815Y86307555D03*
%TD*%
D13*
%TO.C,MX35*%
X109134764Y116243000D03*
D14*
X103634764Y116243000D03*
D13*
X98134764Y116243000D03*
%TD*%
%TO.C,MX19*%
X135626815Y65252555D03*
D14*
X141126815Y65252555D03*
D13*
X146626815Y65252555D03*
%TD*%
%TO.C,MX58*%
X82374322Y50561205D03*
D14*
X76887720Y50944866D03*
D13*
X71401118Y51328527D03*
%TD*%
%TO.C,MX4*%
X189626815Y123552555D03*
D14*
X195126815Y123552555D03*
D13*
X200626815Y123552555D03*
%TD*%
%TO.C,MX40*%
X91139764Y104043000D03*
D14*
X85639764Y104043000D03*
D13*
X80139764Y104043000D03*
%TD*%
%TO.C,MX11*%
X207626815Y104052555D03*
D14*
X213126815Y104052555D03*
D13*
X218626815Y104052555D03*
%TD*%
%TO.C,MX10*%
X189626815Y106552555D03*
D14*
X195126815Y106552555D03*
D13*
X200626815Y106552555D03*
%TD*%
%TO.C,MX15*%
X171626815Y87052555D03*
D14*
X177126815Y87052555D03*
D13*
X182626815Y87052555D03*
%TD*%
%TO.C,MX60*%
X124889764Y48233000D03*
D14*
X119389764Y48233000D03*
D13*
X113889764Y48233000D03*
%TD*%
%TO.C,MX54*%
X127134764Y65243000D03*
D14*
X121634764Y65243000D03*
D13*
X116134764Y65243000D03*
%TD*%
%TO.C,MX33*%
X73152114Y123504250D03*
D14*
X67652114Y123504250D03*
D13*
X62152114Y123504250D03*
%TD*%
%TO.C,MX14*%
X153626815Y82252555D03*
D14*
X159126815Y82252555D03*
D13*
X164626815Y82252555D03*
%TD*%
%TO.C,MX41*%
X109134764Y99243000D03*
D14*
X103634764Y99243000D03*
D13*
X98134764Y99243000D03*
%TD*%
%TO.C,MX9*%
X171626815Y104052555D03*
D14*
X177126815Y104052555D03*
D13*
X182626815Y104052555D03*
%TD*%
%TO.C,MX32*%
X55152114Y121054250D03*
D14*
X49652114Y121054250D03*
D13*
X44152114Y121054250D03*
%TD*%
%TO.C,MX16*%
X189626815Y89552555D03*
D14*
X195126815Y89552555D03*
D13*
X200626815Y89552555D03*
%TD*%
%TO.C,MX31*%
X37152114Y118704250D03*
D14*
X31652114Y118704250D03*
D13*
X26152114Y118704250D03*
%TD*%
%TO.C,MX26*%
X160652937Y45640545D03*
D14*
X165939876Y47156550D03*
D13*
X171226815Y48672555D03*
%TD*%
%TO.C,MX2*%
X153626815Y116252555D03*
D14*
X159126815Y116252555D03*
D13*
X164626815Y116252555D03*
%TD*%
%TO.C,MX21*%
X171626815Y70052555D03*
D14*
X177126815Y70052555D03*
D13*
X182626815Y70052555D03*
%TD*%
%TO.C,MX3*%
X171626815Y121052555D03*
D14*
X177126815Y121052555D03*
D13*
X182626815Y121052555D03*
%TD*%
%TO.C,MX56*%
X42699764Y49083000D03*
D14*
X37340729Y47845769D03*
D13*
X31981694Y46608538D03*
%TD*%
%TO.C,MX13*%
X135626815Y82252555D03*
D14*
X141126815Y82252555D03*
D13*
X146626815Y82252555D03*
%TD*%
%TO.C,MX12*%
X225626815Y101752555D03*
D14*
X231126815Y101752555D03*
D13*
X236626815Y101752555D03*
%TD*%
%TO.C,MX1*%
X135626815Y116252555D03*
D14*
X141126815Y116252555D03*
D13*
X146626815Y116252555D03*
%TD*%
%TO.C,MX44*%
X55152114Y87054250D03*
D14*
X49652114Y87054250D03*
D13*
X44152114Y87054250D03*
%TD*%
%TO.C,MX18*%
X225626815Y84752555D03*
D14*
X231126815Y84752555D03*
D13*
X236626815Y84752555D03*
%TD*%
%TO.C,MX20*%
X153626815Y65252555D03*
D14*
X159126815Y65252555D03*
D13*
X164626815Y65252555D03*
%TD*%
%TO.C,MX53*%
X109134764Y65243000D03*
D14*
X103634764Y65243000D03*
D13*
X98134764Y65243000D03*
%TD*%
%TO.C,MX47*%
X109134764Y82243000D03*
D14*
X103634764Y82243000D03*
D13*
X98134764Y82243000D03*
%TD*%
%TO.C,MX59*%
X102116703Y45636995D03*
D14*
X96829764Y47153000D03*
D13*
X91542825Y48669005D03*
%TD*%
%TO.C,MX34*%
X91139764Y121043000D03*
D14*
X85639764Y121043000D03*
D13*
X80139764Y121043000D03*
%TD*%
%TO.C,MX36*%
X127134764Y116243000D03*
D14*
X121634764Y116243000D03*
D13*
X116134764Y116243000D03*
%TD*%
%TO.C,MX25*%
X137880058Y48238079D03*
D14*
X143380058Y48238079D03*
D13*
X148880058Y48238079D03*
%TD*%
%TO.C,MX8*%
X153626815Y99252555D03*
D14*
X159126815Y99252555D03*
D13*
X164626815Y99252555D03*
%TD*%
%TO.C,MX29*%
X220083197Y49098919D03*
D14*
X225442232Y47861688D03*
D13*
X230801267Y46624457D03*
%TD*%
%TO.C,MX42*%
X127134764Y99243000D03*
D14*
X121634764Y99243000D03*
D13*
X116134764Y99243000D03*
%TD*%
%TO.C,MX27*%
X180383611Y50555233D03*
D14*
X185870213Y50938894D03*
D13*
X191356815Y51322555D03*
%TD*%
%TO.C,MX7*%
X135626815Y99252555D03*
D14*
X141126815Y99252555D03*
D13*
X146626815Y99252555D03*
%TD*%
%TO.C,MX45*%
X73152114Y89504250D03*
D14*
X67652114Y89504250D03*
D13*
X62152114Y89504250D03*
%TD*%
%TO.C,MX23*%
X207626815Y70052555D03*
D14*
X213126815Y70052555D03*
D13*
X218626815Y70052555D03*
%TD*%
%TO.C,MX37*%
X37152114Y101704250D03*
D14*
X31652114Y101704250D03*
D13*
X26152114Y101704250D03*
%TD*%
%TO.C,MX49*%
X37152114Y67704250D03*
D14*
X31652114Y67704250D03*
D13*
X26152114Y67704250D03*
%TD*%
%TO.C,MX28*%
X200293611Y51289877D03*
D14*
X205780213Y50906216D03*
D13*
X211266815Y50522555D03*
%TD*%
%TO.C,MX22*%
X189626815Y72552555D03*
D14*
X195126815Y72552555D03*
D13*
X200626815Y72552555D03*
%TD*%
D15*
%TO.C,J31*%
X241536815Y124512555D03*
D16*
X241536815Y122512555D03*
%TD*%
D13*
%TO.C,MX43*%
X37152114Y84704250D03*
D14*
X31652114Y84704250D03*
D13*
X26152114Y84704250D03*
%TD*%
%TO.C,MX38*%
X55152114Y104054250D03*
D14*
X49652114Y104054250D03*
D13*
X44152114Y104054250D03*
%TD*%
%TO.C,MX48*%
X127134764Y82243000D03*
D14*
X121634764Y82243000D03*
D13*
X116134764Y82243000D03*
%TD*%
%TO.C,MX17*%
X207626815Y87052555D03*
D14*
X213126815Y87052555D03*
D13*
X218626815Y87052555D03*
%TD*%
%TO.C,MX39*%
X73152114Y106504250D03*
D14*
X67652114Y106504250D03*
D13*
X62152114Y106504250D03*
%TD*%
%TO.C,MX52*%
X91139764Y70043000D03*
D14*
X85639764Y70043000D03*
D13*
X80139764Y70043000D03*
%TD*%
%TO.C,MX30*%
X253373763Y48223091D03*
D14*
X250876815Y43322555D03*
D13*
X248379867Y38422019D03*
%TD*%
%TO.C,MX6*%
X225626815Y118752555D03*
D14*
X231126815Y118752555D03*
D13*
X236626815Y118752555D03*
%TD*%
%TO.C,MX5*%
X207626815Y121052555D03*
D14*
X213126815Y121052555D03*
D13*
X218626815Y121052555D03*
%TD*%
%TO.C,MX50*%
X55152114Y70054250D03*
D14*
X49652114Y70054250D03*
D13*
X44152114Y70054250D03*
%TD*%
%TO.C,MX24*%
X225626815Y67752555D03*
D14*
X231126815Y67752555D03*
D13*
X236626815Y67752555D03*
%TD*%
%TO.C,MX46*%
X91139764Y87043000D03*
D14*
X85639764Y87043000D03*
D13*
X80139764Y87043000D03*
%TD*%
%TO.C,MX51*%
X73152114Y72504250D03*
D14*
X67652114Y72504250D03*
D13*
X62152114Y72504250D03*
%TD*%
%TO.C,MX55*%
X14391660Y38364157D03*
D14*
X11894712Y43264693D03*
D13*
X9397764Y48165229D03*
%TD*%
D17*
%TO.C,J32*%
X21239764Y124223000D03*
D15*
X21239764Y122223000D03*
%TD*%
D13*
%TO.C,MX57*%
X62444220Y51325808D03*
D14*
X56957618Y50942147D03*
D13*
X51471016Y50558486D03*
%TD*%
D18*
X137776815Y88112555D03*
X155776815Y87797555D03*
X173776815Y92377555D03*
X191776815Y94547555D03*
X209776815Y91517555D03*
X227776815Y88887555D03*
X118284764Y88493000D03*
X100284764Y88198000D03*
X46302114Y91728000D03*
X82289764Y92568000D03*
X64302114Y95188000D03*
X28302114Y88823000D03*
M02*
