M48
; DRILL file {KiCad 8.0.5} date 2024-10-06T11:07:10+0200
; FORMAT={-:-/ absolute / inch / decimal}
; #@! TF.CreationDate,2024-10-06T11:07:10+02:00
; #@! TF.GenerationSoftware,Kicad,Pcbnew,8.0.5
; #@! TF.FileFunction,Plated,1,2,PTH
FMAT,2
INCH
; #@! TA.AperFunction,Plated,PTH,ViaDrill
T1C0.0118
; #@! TA.AperFunction,Plated,PTH,ViaDrill
T2C0.0157
; #@! TA.AperFunction,Plated,PTH,ComponentDrill
T3C0.0236
; #@! TA.AperFunction,Plated,PTH,ComponentDrill
T4C0.0394
; #@! TA.AperFunction,Plated,PTH,ComponentDrill
T5C0.0591
; #@! TA.AperFunction,Plated,PTH,ComponentDrill
T6C0.1181
; #@! TA.AperFunction,Plated,PTH,ComponentDrill
T7C0.1200
%
G90
G05
T1
X4.8339Y4.9191
T2
X-1.5712Y2.738
X-1.5646Y4.9718
X-1.5646Y4.6671
X-1.5646Y4.2237
X-1.5646Y3.4836
X-1.5015Y3.0608
X-1.4846Y4.7301
X-1.4767Y2.5254
X-1.461Y4.0608
X-1.2602Y3.8404
X-1.2523Y4.5923
X-1.2444Y3.1081
X-1.1696Y2.3364
X-0.8232Y5.3301
X-0.8192Y4.9821
X-0.8192Y4.6406
X-0.8192Y4.2341
X-0.8192Y3.4939
X-0.8192Y2.7459
X-0.583Y2.049
X-0.5043Y4.5805
X-0.4885Y3.8285
X-0.4767Y3.1159
X-0.4373Y2.3207
X-0.206Y3.4073
X-0.1775Y4.1781
X-0.1761Y2.6961
X-0.1732Y5.0801
X-0.148Y4.9486
X-0.1475Y3.1159
X-0.1475Y3.2743
X-0.1475Y3.1946
X-0.1475Y3.1553
X-0.1475Y3.235
X-0.0747Y5.1557
X-0.0747Y4.4077
X-0.0747Y3.6675
X-0.0747Y2.9195
X-0.0744Y4.7456
X0.232Y4.0096
X0.2635Y2.2813
X0.2753Y4.7419
X0.295Y1.927
X0.4642Y2.4624
X0.5768Y5.5301
X0.6733Y5.2561
X0.6733Y4.8847
X0.6733Y4.5081
X0.6733Y3.7679
X0.6733Y3.0199
X0.9879Y4.1238
X0.9957Y4.8325
X1.112Y2.307
X1.2438Y5.0175
X1.2556Y2.5175
X1.4213Y5.1518
X1.4213Y4.7774
X1.4213Y4.4037
X1.4213Y3.6636
X1.4213Y2.9156
X1.7241Y4.7341
X1.7438Y4.0333
X1.9367Y2.2577
X2.0666Y2.427
X2.1375Y5.4073
X2.169Y5.0648
X2.169Y4.6593
X2.169Y4.3167
X2.169Y3.5766
X2.169Y2.8285
X2.48Y3.927
X2.6335Y2.427
X2.6926Y3.36
X2.7005Y4.8246
X2.7657Y4.9602
X2.7657Y4.053
X2.7657Y3.4703
X2.7657Y2.5411
X2.8422Y1.8679
X2.854Y4.3128
X2.8579Y1.801
X2.8934Y4.8876
X2.8934Y2.8915
X2.9387Y2.5333
X2.9387Y2.4732
X2.9387Y2.4073
X3.0312Y4.5805
X3.0312Y4.5411
X3.0312Y4.5018
X3.0312Y4.4624
X3.0312Y4.4231
X3.0312Y4.3837
X3.0312Y4.3443
X3.0312Y4.305
X3.0312Y4.2656
X3.0312Y4.2262
X3.0312Y4.1789
X3.0312Y4.1396
X3.113Y4.546
X3.169Y3.7459
X3.232Y5.1238
X3.2398Y3.7459
X3.244Y4.756
X3.2871Y5.0136
X3.291Y1.675
X3.295Y3.7459
X3.3068Y4.1829
X3.3228Y4.4139
X3.3228Y4.3352
X3.3448Y4.1245
X3.3461Y4.7934
X3.3461Y4.7222
X3.3622Y4.3745
X3.3638Y2.9329
X3.3658Y4.6671
X3.4016Y4.4139
X3.4016Y4.3352
X3.4172Y4.4634
X3.4937Y3.7368
X3.5134Y4.8932
X3.539Y4.9231
X3.5469Y4.549
X3.5548Y4.1317
X3.5548Y4.9788
X3.5553Y4.2502
X3.5592Y4.497
X3.5593Y4.4574
X3.5745Y5.121
X3.602Y4.7809
X3.6345Y4.6204
X3.7241Y2.5333
X4.467Y4.9355
X4.4745Y4.5751
X4.5317Y5.1243
X4.5425Y4.1474
X4.5504Y1.8482
X4.5583Y4.9191
X4.6255Y3.7222
X4.6323Y4.1378
X4.6488Y3.8916
X4.7103Y4.4694
X4.826Y4.988
X4.8459Y4.5571
X4.8529Y4.1238
X4.8695Y5.1238
X4.889Y4.1396
X4.8969Y4.1789
X4.9313Y4.6226
X4.9677Y4.8325
X4.9677Y4.3409
X5.0007Y5.0121
X5.015Y2.2341
X5.0347Y3.7872
X5.0347Y3.7144
X5.0347Y3.6415
X5.1056Y4.6435
X5.1056Y4.6041
X5.1056Y4.5647
X5.1056Y4.5253
X5.1056Y4.486
X5.1056Y4.4466
X5.1056Y4.4073
X5.1056Y4.3679
X5.1056Y4.3286
X5.1056Y4.2892
X5.1056Y4.2499
X5.1056Y4.2105
X5.1056Y4.1712
X5.1056Y4.1318
X5.1122Y2.611
X5.1134Y2.7659
X5.1134Y2.6907
X5.2438Y4.7961
X5.2438Y4.2183
X5.2438Y2.7089
X5.2448Y3.4319
X5.3108Y5.0929
X5.3108Y4.3449
X5.3108Y3.6047
X5.3108Y2.8482
X5.312Y4.533
X5.7394Y2.3285
X6.0576Y5.1835
X6.0576Y4.4355
X6.0576Y3.6953
X6.0576Y2.9348
X6.0581Y4.7601
X6.5268Y2.4309
X6.7158Y5.2183
X6.8057Y5.2701
X6.8057Y4.5314
X6.8057Y3.7912
X6.8057Y3.0372
X6.8063Y4.8719
X7.0622Y1.9978
X7.3457Y2.4545
X7.5189Y5.486
X7.5555Y5.1816
X7.5555Y4.8177
X7.5555Y4.4336
X7.5555Y3.6934
X7.5555Y2.9348
X7.763Y2.0215
X8.141Y2.3207
X8.2107Y3.1869
X8.2108Y3.1464
X8.2118Y5.0136
X8.2118Y3.2656
X8.2118Y3.2262
X8.2123Y3.3054
X8.2433Y4.2498
X8.267Y2.675
X8.274Y3.423
X8.3013Y4.6633
X8.3015Y4.99
X8.3015Y4.2443
X8.3015Y3.5042
X8.3015Y2.7459
X9.0534Y4.675
X9.0534Y4.2419
X9.0544Y4.99
X9.0544Y3.5018
X9.0544Y2.7459
X9.0544Y2.297
T4
X3.2654Y3.3935
X3.2654Y2.8226
X3.3638Y2.8226
X3.4623Y3.3935
X3.4623Y2.8226
X3.6808Y4.3348
X3.6808Y4.2348
X3.6808Y4.1348
X3.6808Y4.0348
X3.6808Y3.9348
X3.7635Y5.1829
X3.7635Y5.0829
X3.7635Y4.9829
X3.7635Y4.8829
X3.7635Y4.7829
X3.7635Y4.6829
X3.7635Y4.5829
X3.7635Y4.4829
X4.3496Y5.1978
X4.3496Y5.0978
X4.3496Y4.9978
X4.3496Y4.8978
X4.3496Y4.7978
X4.3496Y4.6978
X4.3496Y4.5978
X4.3496Y4.4978
X4.4284Y4.3238
X4.4284Y4.2238
X4.4284Y4.1238
X4.4284Y4.0238
X4.4284Y3.9238
X4.6497Y3.421
X4.6497Y2.8502
X4.7481Y3.421
X4.8465Y3.421
X4.8465Y2.8502
T6
X-1.4043Y5.0742
X-1.4043Y4.3262
X-1.4031Y3.5774
X-1.4023Y2.8301
X-1.3098Y2.0821
X-1.1543Y5.1742
X-1.1543Y4.4262
X-1.1531Y3.6774
X-1.1523Y2.9301
X-1.0598Y2.1821
X-0.6562Y5.0742
X-0.6562Y2.8301
X-0.655Y3.5785
X-0.6543Y4.3262
X-0.4062Y5.1742
X-0.4062Y2.9301
X-0.405Y3.6785
X-0.4043Y4.4262
X-0.3197Y2.0073
X-0.107Y2.1724
X0.0918Y5.2612
X0.0918Y4.5124
X0.093Y3.7667
X0.0938Y3.0152
X0.3418Y5.3612
X0.3418Y4.6124
X0.343Y3.8667
X0.3438Y3.1152
X0.499Y2.1986
X0.7393Y2.32
X0.8398Y5.3577
X0.8398Y4.6096
X0.8398Y3.1156
X0.841Y3.8624
X1.0898Y5.4577
X1.0898Y4.7096
X1.0898Y3.2156
X1.091Y3.9624
X1.3217Y2.2296
X1.5765Y2.3163
X1.589Y3.7652
X1.5898Y5.2616
X1.5898Y3.0171
X1.591Y4.514
X1.839Y3.8652
X1.8398Y5.3616
X1.8398Y3.1171
X1.841Y4.614
X2.1434Y2.1406
X2.3359Y2.9266
X2.3371Y4.4226
X2.3371Y3.6758
X2.3379Y5.1726
X2.4088Y2.1865
X2.5859Y3.0266
X2.5871Y4.5226
X2.5871Y3.7758
X2.5879Y5.2726
X3.1063Y1.8348
X3.1307Y2.1029
X4.8691Y2.1122
X5.0717Y1.9349
X5.4757Y5.1828
X5.4757Y4.4348
X5.4757Y3.6867
X5.4757Y2.9367
X5.6767Y2.0884
X5.7257Y5.2828
X5.7257Y4.5348
X5.7257Y3.7867
X5.7257Y3.0367
X5.9004Y2.2382
X6.2237Y5.2714
X6.2237Y4.5233
X6.2237Y3.7753
X6.2237Y3.0273
X6.4737Y5.3714
X6.4737Y4.6233
X6.4737Y3.8753
X6.4737Y3.1273
X6.4923Y2.224
X6.7367Y2.337
X6.9717Y5.3678
X6.9717Y4.6198
X6.9717Y3.8718
X6.9717Y3.1237
X7.2217Y5.4678
X7.2217Y4.7198
X7.2217Y3.9718
X7.2217Y3.2237
X7.3157Y2.2368
X7.5734Y2.3146
X7.7198Y5.2714
X7.7198Y4.5233
X7.7198Y3.7753
X7.7198Y3.0273
X7.9698Y5.3714
X7.9698Y4.6233
X7.9698Y3.8753
X7.9698Y3.1273
X8.1429Y2.0982
X8.4108Y2.1254
X8.4678Y5.0844
X8.4678Y4.3363
X8.4678Y3.5883
X8.4678Y2.8403
X8.7178Y5.1844
X8.7178Y4.4363
X8.7178Y3.6883
X8.7178Y2.9403
X9.1233Y2.0922
X9.2158Y5.0844
X9.2158Y4.3363
X9.2158Y3.5883
X9.2158Y2.8403
X9.3733Y2.1922
X9.4658Y5.1844
X9.4658Y4.4363
X9.4658Y3.6883
X9.4658Y2.9403
T7
X2.8076Y1.6302
X3.2332Y2.4655
X4.8803Y2.4757
X5.3059Y1.6404
T3
G00X3.1841Y5.1903
M15
G01X3.1841Y5.1489
M16
G05
G00X3.1849Y5.3714
M15
G01X3.1849Y5.33
M16
G05
G00X3.6109Y3.8589
M15
G01X3.5696Y3.8589
M16
G05
G00X3.6109Y3.4199
M15
G01X3.5696Y3.4199
M16
G05
G00X3.6231Y5.1903
M15
G01X3.6231Y5.1489
M16
G05
G00X3.6238Y5.3714
M15
G01X3.6238Y5.33
M16
G05
G00X3.792Y3.8581
M15
G01X3.7507Y3.8581
M16
G05
G00X3.792Y3.4191
M15
G01X3.7507Y3.4191
M16
G05
G00X4.3215Y3.8598
M15
G01X4.3629Y3.8598
M16
G05
G00X4.3215Y3.4208
M15
G01X4.3629Y3.4208
M16
G05
G00X4.4813Y5.1953
M15
G01X4.4813Y5.154
M16
G05
G00X4.4821Y5.3764
M15
G01X4.4821Y5.3351
M16
G05
G00X4.5026Y3.859
M15
G01X4.544Y3.859
M16
G05
G00X4.5026Y3.42
M15
G01X4.544Y3.42
M16
G05
G00X4.9203Y5.1953
M15
G01X4.9203Y5.154
M16
G05
G00X4.9211Y5.3764
M15
G01X4.9211Y5.3351
M16
G05
T5
G00X3.1434Y3.0923
M15
G01X3.1434Y3.1435
M16
G05
G00X3.5843Y3.0923
M15
G01X3.5843Y3.1435
M16
G05
G00X4.5276Y3.1513
M15
G01X4.5276Y3.1002
M16
G05
G00X4.9686Y3.1513
M15
G01X4.9686Y3.1002
M16
G05
M30
