%TF.GenerationSoftware,KiCad,Pcbnew,8.0.5*%
%TF.CreationDate,2024-10-06T11:07:10+02:00*%
%TF.ProjectId,chastity,63686173-7469-4747-992e-6b696361645f,rev?*%
%TF.SameCoordinates,Original*%
%TF.FileFunction,Soldermask,Top*%
%TF.FilePolarity,Negative*%
%FSLAX46Y46*%
G04 Gerber Fmt 4.6, Leading zero omitted, Abs format (unit mm)*
G04 Created by KiCad (PCBNEW 8.0.5) date 2024-10-06 11:07:10*
%MOMM*%
%LPD*%
G01*
G04 APERTURE LIST*
G04 Aperture macros list*
%AMRoundRect*
0 Rectangle with rounded corners*
0 $1 Rounding radius*
0 $2 $3 $4 $5 $6 $7 $8 $9 X,Y pos of 4 corners*
0 Add a 4 corners polygon primitive as box body*
4,1,4,$2,$3,$4,$5,$6,$7,$8,$9,$2,$3,0*
0 Add four circle primitives for the rounded corners*
1,1,$1+$1,$2,$3*
1,1,$1+$1,$4,$5*
1,1,$1+$1,$6,$7*
1,1,$1+$1,$8,$9*
0 Add four rect primitives between the rounded corners*
20,1,$1+$1,$2,$3,$4,$5,0*
20,1,$1+$1,$4,$5,$6,$7,0*
20,1,$1+$1,$6,$7,$8,$9,0*
20,1,$1+$1,$8,$9,$2,$3,0*%
%AMRotRect*
0 Rectangle, with rotation*
0 The origin of the aperture is its center*
0 $1 length*
0 $2 width*
0 $3 Rotation angle, in degrees counterclockwise*
0 Add horizontal line*
21,1,$1,$2,0,0,$3*%
G04 Aperture macros list end*
%ADD10RoundRect,0.250000X-0.625000X0.375000X-0.625000X-0.375000X0.625000X-0.375000X0.625000X0.375000X0*%
%ADD11RoundRect,0.140000X-0.140000X-0.170000X0.140000X-0.170000X0.140000X0.170000X-0.140000X0.170000X0*%
%ADD12RoundRect,0.135000X0.185000X-0.135000X0.185000X0.135000X-0.185000X0.135000X-0.185000X-0.135000X0*%
%ADD13RoundRect,0.140000X0.140000X0.170000X-0.140000X0.170000X-0.140000X-0.170000X0.140000X-0.170000X0*%
%ADD14RoundRect,0.140000X0.170000X-0.140000X0.170000X0.140000X-0.170000X0.140000X-0.170000X-0.140000X0*%
%ADD15RoundRect,0.050000X-0.387500X-0.050000X0.387500X-0.050000X0.387500X0.050000X-0.387500X0.050000X0*%
%ADD16RoundRect,0.050000X-0.050000X-0.387500X0.050000X-0.387500X0.050000X0.387500X-0.050000X0.387500X0*%
%ADD17R,3.200000X3.200000*%
%ADD18RoundRect,0.135000X-0.185000X0.135000X-0.185000X-0.135000X0.185000X-0.135000X0.185000X0.135000X0*%
%ADD19C,0.650000*%
%ADD20R,1.100000X0.540000*%
%ADD21R,1.100000X0.300000*%
%ADD22O,2.250000X1.200000*%
%ADD23R,0.540000X1.100000*%
%ADD24R,0.300000X1.100000*%
%ADD25O,1.200000X2.250000*%
%ADD26RoundRect,0.150000X0.150000X-0.650000X0.150000X0.650000X-0.150000X0.650000X-0.150000X-0.650000X0*%
%ADD27R,1.000000X1.700000*%
%ADD28RoundRect,0.140000X-0.021213X0.219203X-0.219203X0.021213X0.021213X-0.219203X0.219203X-0.021213X0*%
%ADD29RoundRect,0.135000X0.135000X0.185000X-0.135000X0.185000X-0.135000X-0.185000X0.135000X-0.185000X0*%
%ADD30RoundRect,0.150000X-0.150000X0.512500X-0.150000X-0.512500X0.150000X-0.512500X0.150000X0.512500X0*%
%ADD31RoundRect,0.140000X-0.170000X0.140000X-0.170000X-0.140000X0.170000X-0.140000X0.170000X0.140000X0*%
%ADD32RoundRect,0.225000X0.225000X0.250000X-0.225000X0.250000X-0.225000X-0.250000X0.225000X-0.250000X0*%
%ADD33RoundRect,0.150000X0.150000X-0.512500X0.150000X0.512500X-0.150000X0.512500X-0.150000X-0.512500X0*%
%ADD34R,1.700000X1.000000*%
%ADD35RoundRect,0.140000X0.219203X0.021213X0.021213X0.219203X-0.219203X-0.021213X-0.021213X-0.219203X0*%
%ADD36RotRect,1.400000X1.200000X135.000000*%
%ADD37C,3.987800*%
%ADD38C,1.750000*%
%ADD39C,3.300000*%
%ADD40R,1.700000X1.700000*%
%ADD41O,1.700000X1.700000*%
%ADD42C,0.800000*%
%ADD43C,0.500000*%
G04 APERTURE END LIST*
D10*
%TO.C,F1*%
X92091764Y128745000D03*
X92091764Y125945000D03*
%TD*%
D11*
%TO.C,C45*%
X69311764Y100110302D03*
X70271764Y100110302D03*
%TD*%
D12*
%TO.C,R18*%
X119530067Y118972118D03*
X119530067Y119992118D03*
%TD*%
D13*
%TO.C,C32*%
X124897560Y124575540D03*
X123937560Y124575540D03*
%TD*%
D14*
%TO.C,C31*%
X112662918Y128999888D03*
X112662918Y129959888D03*
%TD*%
D11*
%TO.C,C18*%
X88009775Y105452286D03*
X88969775Y105452286D03*
%TD*%
D10*
%TO.C,F2*%
X124780764Y128882118D03*
X124780764Y126082118D03*
%TD*%
D12*
%TO.C,R10*%
X87178681Y97235000D03*
X87178681Y98255000D03*
%TD*%
D15*
%TO.C,U3*%
X81962599Y113716140D03*
X81962599Y113316140D03*
X81962599Y112916140D03*
X81962599Y112516140D03*
X81962599Y112116140D03*
X81962599Y111716140D03*
X81962599Y111316140D03*
X81962599Y110916140D03*
X81962599Y110516140D03*
X81962599Y110116140D03*
X81962599Y109716140D03*
X81962599Y109316140D03*
X81962599Y108916140D03*
X81962599Y108516140D03*
D16*
X82800099Y107678640D03*
X83200099Y107678640D03*
X83600099Y107678640D03*
X84000099Y107678640D03*
X84400099Y107678640D03*
X84800099Y107678640D03*
X85200099Y107678640D03*
X85600099Y107678640D03*
X86000099Y107678640D03*
X86400099Y107678640D03*
X86800099Y107678640D03*
X87200099Y107678640D03*
X87600099Y107678640D03*
X88000099Y107678640D03*
D15*
X88837599Y108516140D03*
X88837599Y108916140D03*
X88837599Y109316140D03*
X88837599Y109716140D03*
X88837599Y110116140D03*
X88837599Y110516140D03*
X88837599Y110916140D03*
X88837599Y111316140D03*
X88837599Y111716140D03*
X88837599Y112116140D03*
X88837599Y112516140D03*
X88837599Y112916140D03*
X88837599Y113316140D03*
X88837599Y113716140D03*
D16*
X88000099Y114553640D03*
X87600099Y114553640D03*
X87200099Y114553640D03*
X86800099Y114553640D03*
X86400099Y114553640D03*
X86000099Y114553640D03*
X85600099Y114553640D03*
X85200099Y114553640D03*
X84800099Y114553640D03*
X84400099Y114553640D03*
X84000099Y114553640D03*
X83600099Y114553640D03*
X83200099Y114553640D03*
X82800099Y114553640D03*
D17*
X85400099Y111116140D03*
%TD*%
D18*
%TO.C,R27*%
X128780764Y74255000D03*
X128780764Y73235000D03*
%TD*%
D12*
%TO.C,R6*%
X87691764Y118835000D03*
X87691764Y119855000D03*
%TD*%
D19*
%TO.C,SPLIT_R1*%
X114971764Y96192805D03*
X114971764Y88692805D03*
D20*
X116171764Y95642805D03*
X116171764Y94892805D03*
D21*
X116171764Y93692805D03*
X116171764Y92692805D03*
X116171764Y92192805D03*
X116171764Y91192805D03*
D20*
X116171764Y89992805D03*
X116171764Y89242805D03*
X116171764Y89242805D03*
X116171764Y89992805D03*
D21*
X116171764Y90692805D03*
X116171764Y91692805D03*
X116171764Y93192805D03*
X116171764Y94192805D03*
D20*
X116171764Y94892805D03*
X116171764Y95642805D03*
D22*
X110291764Y98037805D03*
X114891764Y98017805D03*
X110291764Y86887805D03*
X114891764Y86867805D03*
%TD*%
D11*
%TO.C,C41*%
X69287728Y81167508D03*
X70247728Y81167508D03*
%TD*%
D19*
%TO.C,J1*%
X90200621Y131227621D03*
X82700621Y131227621D03*
D23*
X89650621Y130027621D03*
X88900621Y130027621D03*
D24*
X87700621Y130027621D03*
X86700621Y130027621D03*
X86200621Y130027621D03*
X85200621Y130027621D03*
D23*
X84000621Y130027621D03*
X83250621Y130027621D03*
X83250621Y130027621D03*
X84000621Y130027621D03*
D24*
X84700621Y130027621D03*
X85700621Y130027621D03*
X87200621Y130027621D03*
X88200621Y130027621D03*
D23*
X88900621Y130027621D03*
X89650621Y130027621D03*
D25*
X92045621Y135907621D03*
X92025621Y131307621D03*
X80895621Y135907621D03*
X80875621Y131307621D03*
%TD*%
D26*
%TO.C,U1*%
X78586764Y117545000D03*
X79856764Y117545000D03*
X81126764Y117545000D03*
X82396764Y117545000D03*
X82396764Y124745000D03*
X81126764Y124745000D03*
X79856764Y124745000D03*
X78586764Y124745000D03*
%TD*%
D12*
%TO.C,R12*%
X74391764Y67735000D03*
X74391764Y68755000D03*
%TD*%
D18*
%TO.C,R16*%
X117803279Y90692214D03*
X117803279Y89672214D03*
%TD*%
D14*
%TO.C,C17*%
X85205628Y116465000D03*
X85205628Y117425000D03*
%TD*%
%TO.C,C10*%
X89193640Y116436716D03*
X89193640Y117396716D03*
%TD*%
D27*
%TO.C,BOOT2*%
X131280764Y71295000D03*
X131280764Y64995000D03*
X127480764Y71295000D03*
X127480764Y64995000D03*
%TD*%
D28*
%TO.C,C36*%
X115956025Y104515440D03*
X115277203Y103836618D03*
%TD*%
D29*
%TO.C,R23*%
X125404071Y99368926D03*
X124384071Y99368926D03*
%TD*%
D11*
%TO.C,C48*%
X130300764Y61945000D03*
X131260764Y61945000D03*
%TD*%
D18*
%TO.C,R9*%
X76346638Y127884986D03*
X76346638Y126864986D03*
%TD*%
%TO.C,R22*%
X122580764Y128554609D03*
X122580764Y127534609D03*
%TD*%
D12*
%TO.C,R26*%
X127580764Y73235000D03*
X127580764Y74255000D03*
%TD*%
D30*
%TO.C,U7*%
X131730764Y130882500D03*
X130780764Y130882500D03*
X129830764Y130882500D03*
X129830764Y128607500D03*
X130780764Y128607500D03*
X131730764Y128607500D03*
%TD*%
D11*
%TO.C,C43*%
X69276956Y60738731D03*
X70236956Y60738731D03*
%TD*%
D28*
%TO.C,C5*%
X82731175Y103584411D03*
X82052353Y102905589D03*
%TD*%
D31*
%TO.C,C8*%
X74412587Y127817504D03*
X74412587Y126857504D03*
%TD*%
D32*
%TO.C,C20*%
X124992560Y118882118D03*
X123442560Y118882118D03*
%TD*%
D33*
%TO.C,U4*%
X90541764Y120607500D03*
X92441764Y120607500D03*
X91491764Y122882500D03*
%TD*%
%TO.C,U9*%
X123467560Y120744618D03*
X125367560Y120744618D03*
X124417560Y123019618D03*
%TD*%
D11*
%TO.C,C46*%
X132182234Y73750530D03*
X133142234Y73750530D03*
%TD*%
%TO.C,C42*%
X132220764Y110145000D03*
X133180764Y110145000D03*
%TD*%
D31*
%TO.C,C4*%
X72891764Y132145642D03*
X72891764Y131185642D03*
%TD*%
D11*
%TO.C,C24*%
X124282009Y115382294D03*
X125242009Y115382294D03*
%TD*%
%TO.C,C25*%
X121361054Y103493392D03*
X122321054Y103493392D03*
%TD*%
D19*
%TO.C,SPLIT_L1*%
X91111764Y88690000D03*
X91111764Y96190000D03*
D20*
X89911764Y89240000D03*
X89911764Y89990000D03*
D21*
X89911764Y91190000D03*
X89911764Y92190000D03*
X89911764Y92690000D03*
X89911764Y93690000D03*
D20*
X89911764Y94890000D03*
X89911764Y95640000D03*
X89911764Y95640000D03*
X89911764Y94890000D03*
D21*
X89911764Y94190000D03*
X89911764Y93190000D03*
X89911764Y91690000D03*
X89911764Y90690000D03*
D20*
X89911764Y89990000D03*
X89911764Y89240000D03*
D22*
X95791764Y86845000D03*
X91191764Y86865000D03*
X95791764Y97995000D03*
X91191764Y98015000D03*
%TD*%
D11*
%TO.C,C26*%
X124300764Y110259545D03*
X125260764Y110259545D03*
%TD*%
%TO.C,C14*%
X88011764Y104345000D03*
X88971764Y104345000D03*
%TD*%
D14*
%TO.C,C30*%
X120981310Y116023597D03*
X120981310Y116983597D03*
%TD*%
D33*
%TO.C,U12*%
X119141152Y125744618D03*
X120091152Y125744618D03*
X121041152Y125744618D03*
X121041152Y128019618D03*
X120091152Y128019618D03*
X119141152Y128019618D03*
%TD*%
D11*
%TO.C,C11*%
X91340550Y116245558D03*
X92300550Y116245558D03*
%TD*%
D18*
%TO.C,R3*%
X77777553Y131619625D03*
X77777553Y130599625D03*
%TD*%
D31*
%TO.C,C15*%
X90291764Y109825000D03*
X90291764Y108865000D03*
%TD*%
D14*
%TO.C,C27*%
X119183461Y116601816D03*
X119183461Y117561816D03*
%TD*%
D34*
%TO.C,RST1*%
X78941764Y97445000D03*
X85241764Y97445000D03*
X78941764Y93645000D03*
X85241764Y93645000D03*
%TD*%
D13*
%TO.C,C1*%
X91971764Y124438422D03*
X91011764Y124438422D03*
%TD*%
D12*
%TO.C,R8*%
X75382478Y133230834D03*
X75382478Y134250834D03*
%TD*%
%TO.C,R4*%
X86604271Y118835000D03*
X86604271Y119855000D03*
%TD*%
D31*
%TO.C,R20*%
X130780764Y127027064D03*
X130780764Y126067064D03*
%TD*%
D19*
%TO.C,J4*%
X123151032Y131356728D03*
X115651032Y131356728D03*
D23*
X122601032Y130156728D03*
X121851032Y130156728D03*
D24*
X120651032Y130156728D03*
X119651032Y130156728D03*
X119151032Y130156728D03*
X118151032Y130156728D03*
D23*
X116951032Y130156728D03*
X116201032Y130156728D03*
X116201032Y130156728D03*
X116951032Y130156728D03*
D24*
X117651032Y130156728D03*
X118651032Y130156728D03*
X120151032Y130156728D03*
X121151032Y130156728D03*
D23*
X121851032Y130156728D03*
X122601032Y130156728D03*
D25*
X124996032Y136036728D03*
X124976032Y131436728D03*
X113846032Y136036728D03*
X113826032Y131436728D03*
%TD*%
D35*
%TO.C,C37*%
X120272027Y102740590D03*
X119593205Y103419412D03*
%TD*%
D31*
%TO.C,C34*%
X133191930Y129112784D03*
X133191930Y128152784D03*
%TD*%
D13*
%TO.C,C33*%
X124131661Y117560152D03*
X123171661Y117560152D03*
%TD*%
D14*
%TO.C,R21*%
X129815844Y132504589D03*
X129815844Y133464589D03*
%TD*%
D18*
%TO.C,R14*%
X76879228Y68766337D03*
X76879228Y67746337D03*
%TD*%
D12*
%TO.C,R15*%
X118580764Y94235000D03*
X118580764Y95255000D03*
%TD*%
D13*
%TO.C,C47*%
X71204471Y55875831D03*
X70244471Y55875831D03*
%TD*%
D11*
%TO.C,C29*%
X121346585Y104585836D03*
X122306585Y104585836D03*
%TD*%
D14*
%TO.C,C21*%
X122118607Y116573532D03*
X122118607Y117533532D03*
%TD*%
D18*
%TO.C,R25*%
X118580764Y105455000D03*
X118580764Y104435000D03*
%TD*%
D12*
%TO.C,R2*%
X87689743Y94427264D03*
X87689743Y95447264D03*
%TD*%
D33*
%TO.C,U2*%
X86215356Y125607500D03*
X87165356Y125607500D03*
X88115356Y125607500D03*
X88115356Y127882500D03*
X87165356Y127882500D03*
X86215356Y127882500D03*
%TD*%
%TO.C,U5*%
X74409989Y129387412D03*
X75359989Y129387412D03*
X76309989Y129387412D03*
X76309989Y131662412D03*
X75359989Y131662412D03*
X74409989Y131662412D03*
%TD*%
D31*
%TO.C,R17*%
X128271012Y129558607D03*
X128271012Y128598607D03*
%TD*%
D32*
%TO.C,C9*%
X92066764Y118745000D03*
X90516764Y118745000D03*
%TD*%
D13*
%TO.C,C2*%
X91205865Y117423034D03*
X90245865Y117423034D03*
%TD*%
D15*
%TO.C,U10*%
X114878129Y113858355D03*
X114878129Y113458355D03*
X114878129Y113058355D03*
X114878129Y112658355D03*
X114878129Y112258355D03*
X114878129Y111858355D03*
X114878129Y111458355D03*
X114878129Y111058355D03*
X114878129Y110658355D03*
X114878129Y110258355D03*
X114878129Y109858355D03*
X114878129Y109458355D03*
X114878129Y109058355D03*
X114878129Y108658355D03*
D16*
X115715629Y107820855D03*
X116115629Y107820855D03*
X116515629Y107820855D03*
X116915629Y107820855D03*
X117315629Y107820855D03*
X117715629Y107820855D03*
X118115629Y107820855D03*
X118515629Y107820855D03*
X118915629Y107820855D03*
X119315629Y107820855D03*
X119715629Y107820855D03*
X120115629Y107820855D03*
X120515629Y107820855D03*
X120915629Y107820855D03*
D15*
X121753129Y108658355D03*
X121753129Y109058355D03*
X121753129Y109458355D03*
X121753129Y109858355D03*
X121753129Y110258355D03*
X121753129Y110658355D03*
X121753129Y111058355D03*
X121753129Y111458355D03*
X121753129Y111858355D03*
X121753129Y112258355D03*
X121753129Y112658355D03*
X121753129Y113058355D03*
X121753129Y113458355D03*
X121753129Y113858355D03*
D16*
X120915629Y114695855D03*
X120515629Y114695855D03*
X120115629Y114695855D03*
X119715629Y114695855D03*
X119315629Y114695855D03*
X118915629Y114695855D03*
X118515629Y114695855D03*
X118115629Y114695855D03*
X117715629Y114695855D03*
X117315629Y114695855D03*
X116915629Y114695855D03*
X116515629Y114695855D03*
X116115629Y114695855D03*
X115715629Y114695855D03*
D17*
X118315629Y111258355D03*
%TD*%
D36*
%TO.C,Y1*%
X86336478Y101586153D03*
X84780843Y103141788D03*
X83578762Y101939707D03*
X85134397Y100384072D03*
%TD*%
D35*
%TO.C,C7*%
X87414400Y102689762D03*
X86735578Y103368584D03*
%TD*%
D13*
%TO.C,C40*%
X134156985Y123878281D03*
X133196985Y123878281D03*
%TD*%
D18*
%TO.C,R1*%
X88291764Y90255000D03*
X88291764Y89235000D03*
%TD*%
D27*
%TO.C,BOOT1*%
X73091764Y59595000D03*
X73091764Y65895000D03*
X76891764Y59595000D03*
X76891764Y65895000D03*
%TD*%
D18*
%TO.C,R28*%
X129980764Y74255000D03*
X129980764Y73235000D03*
%TD*%
D14*
%TO.C,C23*%
X113476366Y114093807D03*
X113476366Y115053807D03*
%TD*%
%TO.C,C16*%
X86258494Y116465000D03*
X86258494Y117425000D03*
%TD*%
%TO.C,C3*%
X78595535Y126587637D03*
X78595535Y127547637D03*
%TD*%
D18*
%TO.C,R11*%
X85894533Y105176806D03*
X85894533Y104156806D03*
%TD*%
%TO.C,R5*%
X90293266Y128410546D03*
X90293266Y127390546D03*
%TD*%
D11*
%TO.C,C39*%
X69311764Y119445000D03*
X70271764Y119445000D03*
%TD*%
D29*
%TO.C,R24*%
X114844091Y129218496D03*
X113824091Y129218496D03*
%TD*%
D14*
%TO.C,C19*%
X88056343Y115886781D03*
X88056343Y116846781D03*
%TD*%
D37*
%TO.C,S31*%
X110381181Y55963660D03*
X121191830Y34746567D03*
%TD*%
D14*
%TO.C,C38*%
X131727709Y132516448D03*
X131727709Y133476448D03*
%TD*%
D11*
%TO.C,C44*%
X132220764Y90745000D03*
X133180764Y90745000D03*
%TD*%
%TO.C,C22*%
X124274338Y116487036D03*
X125234338Y116487036D03*
%TD*%
D26*
%TO.C,U8*%
X113475764Y120145000D03*
X114745764Y120145000D03*
X116015764Y120145000D03*
X117285764Y120145000D03*
X117285764Y127345000D03*
X116015764Y127345000D03*
X114745764Y127345000D03*
X113475764Y127345000D03*
%TD*%
D37*
%TO.C,S1*%
X84891698Y34488762D03*
X95702347Y55705855D03*
%TD*%
D27*
%TO.C,RST2*%
X129206298Y97588826D03*
X129206298Y91288826D03*
X125406298Y97588826D03*
X125406298Y91288826D03*
%TD*%
D18*
%TO.C,R13*%
X75651158Y68752538D03*
X75651158Y67732538D03*
%TD*%
D11*
%TO.C,C13*%
X91356904Y115174382D03*
X92316904Y115174382D03*
%TD*%
D12*
%TO.C,R19*%
X120630067Y118962118D03*
X120630067Y119982118D03*
%TD*%
D36*
%TO.C,Y2*%
X118959701Y101904798D03*
X117404066Y103460433D03*
X116201985Y102258352D03*
X117757620Y100702717D03*
%TD*%
D18*
%TO.C,R7*%
X84691764Y128455000D03*
X84691764Y127435000D03*
%TD*%
D14*
%TO.C,C12*%
X80551399Y113956991D03*
X80551399Y114916991D03*
%TD*%
%TO.C,C28*%
X118130595Y116601816D03*
X118130595Y117561816D03*
%TD*%
D38*
%TO.C,MX51*%
X185971764Y76802805D03*
D37*
X180891764Y76802805D03*
D38*
X175811764Y76802805D03*
D39*
X177081764Y79342805D03*
X183431764Y81882805D03*
%TD*%
D38*
%TO.C,MX6*%
X68271764Y128845000D03*
D37*
X63191764Y128845000D03*
D38*
X58111764Y128845000D03*
D39*
X59381764Y131385000D03*
X65731764Y133925000D03*
%TD*%
D40*
%TO.C,J5*%
X112480764Y109825000D03*
D41*
X112480764Y107285000D03*
X112480764Y104745000D03*
X112480764Y102205000D03*
X112480764Y99665000D03*
%TD*%
D40*
%TO.C,J6*%
X110480764Y114245000D03*
D41*
X110480764Y116785000D03*
X110480764Y119325000D03*
X110480764Y121865000D03*
X110480764Y124405000D03*
X110480764Y126945000D03*
X110480764Y129485000D03*
X110480764Y132025000D03*
%TD*%
D38*
%TO.C,MX22*%
X30221764Y76595000D03*
D37*
X25141764Y76595000D03*
D38*
X20061764Y76595000D03*
D39*
X21331764Y79135000D03*
X27681764Y81675000D03*
%TD*%
D38*
%TO.C,MX37*%
X147971764Y110102805D03*
D37*
X142891764Y110102805D03*
D38*
X137811764Y110102805D03*
D39*
X139081764Y112642805D03*
X145431764Y115182805D03*
%TD*%
D38*
%TO.C,MX38*%
X166971764Y112352805D03*
D37*
X161891764Y112352805D03*
D38*
X156811764Y112352805D03*
D39*
X158081764Y114892805D03*
X164431764Y117432805D03*
%TD*%
D38*
%TO.C,MX58*%
X194452433Y53510054D03*
D37*
X189391764Y53952805D03*
D38*
X184331095Y54395556D03*
D39*
X185817638Y56815203D03*
X192364850Y58792098D03*
%TD*%
D38*
%TO.C,MX54*%
X242971764Y69602805D03*
D37*
X237891764Y69602805D03*
D38*
X232811764Y69602805D03*
D39*
X234081764Y72142805D03*
X240431764Y74682805D03*
%TD*%
D38*
%TO.C,MX42*%
X242971764Y107602805D03*
D37*
X237891764Y107602805D03*
D38*
X232811764Y107602805D03*
D39*
X234081764Y110142805D03*
X240431764Y112682805D03*
%TD*%
D38*
%TO.C,MX8*%
X-7728236Y107345000D03*
D37*
X-12808236Y107345000D03*
D38*
X-17888236Y107345000D03*
D39*
X-16618236Y109885000D03*
X-10268236Y112425000D03*
%TD*%
D38*
%TO.C,MX48*%
X242971764Y88602805D03*
D37*
X237891764Y88602805D03*
D38*
X232811764Y88602805D03*
D39*
X234081764Y91142805D03*
X240431764Y93682805D03*
%TD*%
D38*
%TO.C,MX55*%
X125448036Y44576492D03*
D37*
X123141764Y49102805D03*
D38*
X120835492Y53629118D03*
D39*
X123675217Y53650676D03*
X128821213Y49145920D03*
%TD*%
D38*
%TO.C,MX24*%
X68221764Y71795000D03*
D37*
X63141764Y71795000D03*
D38*
X58061764Y71795000D03*
D39*
X59331764Y74335000D03*
X65681764Y76875000D03*
%TD*%
D38*
%TO.C,MX33*%
X185971764Y133802805D03*
D37*
X180891764Y133802805D03*
D38*
X175811764Y133802805D03*
D39*
X177081764Y136342805D03*
X183431764Y138882805D03*
%TD*%
D38*
%TO.C,MX19*%
X-26728236Y69345000D03*
D37*
X-31808236Y69345000D03*
D38*
X-36888236Y69345000D03*
D39*
X-35618236Y71885000D03*
X-29268236Y74425000D03*
%TD*%
D38*
%TO.C,MX29*%
X62610754Y50038809D03*
D37*
X57641764Y51095000D03*
D38*
X52672774Y52151191D03*
D39*
X54443117Y54371638D03*
X61182450Y55535894D03*
%TD*%
D38*
%TO.C,MX40*%
X204971764Y112352805D03*
D37*
X199891764Y112352805D03*
D38*
X194811764Y112352805D03*
D39*
X196081764Y114892805D03*
X202431764Y117432805D03*
%TD*%
D38*
%TO.C,MX2*%
X-7778236Y126345000D03*
D37*
X-12858236Y126345000D03*
D38*
X-17938236Y126345000D03*
D39*
X-16668236Y128885000D03*
X-10318236Y131425000D03*
%TD*%
D38*
%TO.C,MX50*%
X166971764Y74352805D03*
D37*
X161891764Y74352805D03*
D38*
X156811764Y74352805D03*
D39*
X158081764Y76892805D03*
X164431764Y79432805D03*
%TD*%
D38*
%TO.C,MX52*%
X204971764Y74352805D03*
D37*
X199891764Y74352805D03*
D38*
X194811764Y74352805D03*
D39*
X196081764Y76892805D03*
X202431764Y79432805D03*
%TD*%
D38*
%TO.C,MX14*%
X-7748236Y88355000D03*
D37*
X-12828236Y88355000D03*
D38*
X-17908236Y88355000D03*
D39*
X-16638236Y90895000D03*
X-10288236Y93435000D03*
%TD*%
D38*
%TO.C,MX13*%
X-26748236Y88325000D03*
D37*
X-31828236Y88325000D03*
D38*
X-36908236Y88325000D03*
D39*
X-35638236Y90865000D03*
X-29288236Y93405000D03*
%TD*%
D38*
%TO.C,MX20*%
X-7778236Y69345000D03*
D37*
X-12858236Y69345000D03*
D38*
X-17938236Y69345000D03*
D39*
X-16668236Y71885000D03*
X-10318236Y74425000D03*
%TD*%
D38*
%TO.C,MX32*%
X166971764Y131352805D03*
D37*
X161891764Y131352805D03*
D38*
X156811764Y131352805D03*
D39*
X158081764Y133892805D03*
X164431764Y136432805D03*
%TD*%
D38*
%TO.C,MX16*%
X30251764Y95565000D03*
D37*
X25171764Y95565000D03*
D38*
X20091764Y95565000D03*
D39*
X21361764Y98105000D03*
X27711764Y100645000D03*
%TD*%
D38*
%TO.C,MX43*%
X147971764Y91102805D03*
D37*
X142891764Y91102805D03*
D38*
X137811764Y91102805D03*
D39*
X139081764Y93642805D03*
X145431764Y96182805D03*
%TD*%
D38*
%TO.C,MX59*%
X214674973Y48402567D03*
D37*
X209791764Y49802805D03*
D38*
X204908555Y51203043D03*
D39*
X206829476Y53294588D03*
X213633606Y53985896D03*
%TD*%
D38*
%TO.C,MX35*%
X223971764Y126602805D03*
D37*
X218891764Y126602805D03*
D38*
X213811764Y126602805D03*
D39*
X215081764Y129142805D03*
X221431764Y131682805D03*
%TD*%
D38*
%TO.C,MX31*%
X147971764Y129102805D03*
D37*
X142891764Y129102805D03*
D38*
X137811764Y129102805D03*
D39*
X139081764Y131642805D03*
X145431764Y134182805D03*
%TD*%
D38*
%TO.C,MX5*%
X49271764Y131105000D03*
D37*
X44191764Y131105000D03*
D38*
X39111764Y131105000D03*
D39*
X40381764Y133645000D03*
X46731764Y136185000D03*
%TD*%
D38*
%TO.C,MX28*%
X42314802Y53629133D03*
D37*
X37241764Y53895000D03*
D38*
X32168726Y54160867D03*
D39*
X33569919Y56630919D03*
X40044150Y58835105D03*
%TD*%
D38*
%TO.C,MX17*%
X49251764Y93095000D03*
D37*
X44171764Y93095000D03*
D38*
X39091764Y93095000D03*
D39*
X40361764Y95635000D03*
X46711764Y98175000D03*
%TD*%
D38*
%TO.C,MX47*%
X223971764Y88602805D03*
D37*
X218891764Y88602805D03*
D38*
X213811764Y88602805D03*
D39*
X215081764Y91142805D03*
X221431764Y93682805D03*
%TD*%
D38*
%TO.C,MX1*%
X-26778236Y126345000D03*
D37*
X-31858236Y126345000D03*
D38*
X-36938236Y126345000D03*
D39*
X-35668236Y128885000D03*
X-29318236Y131425000D03*
%TD*%
D38*
%TO.C,MX44*%
X166971764Y93352805D03*
D37*
X161891764Y93352805D03*
D38*
X156811764Y93352805D03*
D39*
X158081764Y95892805D03*
X164431764Y98432805D03*
%TD*%
D40*
%TO.C,J2*%
X93491764Y99945000D03*
D41*
X93491764Y102485000D03*
X93491764Y105025000D03*
X93491764Y107565000D03*
X93491764Y110105000D03*
%TD*%
D38*
%TO.C,MX57*%
X173914802Y54418672D03*
D37*
X168841764Y54152805D03*
D38*
X163768726Y53886938D03*
D39*
X164904052Y56489924D03*
X171112416Y59358776D03*
%TD*%
D40*
%TO.C,J3*%
X95591764Y131645000D03*
D41*
X95591764Y129105000D03*
X95591764Y126565000D03*
X95591764Y124025000D03*
X95591764Y121485000D03*
X95591764Y118945000D03*
X95591764Y116405000D03*
X95591764Y113865000D03*
%TD*%
D38*
%TO.C,MX15*%
X11251764Y93135000D03*
D37*
X6171764Y93135000D03*
D38*
X1091764Y93135000D03*
D39*
X2361764Y95675000D03*
X8711764Y98215000D03*
%TD*%
D38*
%TO.C,MX18*%
X68251764Y90825000D03*
D37*
X63171764Y90825000D03*
D38*
X58091764Y90825000D03*
D39*
X59361764Y93365000D03*
X65711764Y95905000D03*
%TD*%
D38*
%TO.C,MX45*%
X185971764Y95802805D03*
D37*
X180891764Y95802805D03*
D38*
X175811764Y95802805D03*
D39*
X177081764Y98342805D03*
X183431764Y100882805D03*
%TD*%
D38*
%TO.C,MX53*%
X223971764Y69602805D03*
D37*
X218891764Y69602805D03*
D38*
X213811764Y69602805D03*
D39*
X215081764Y72142805D03*
X221431764Y74682805D03*
%TD*%
D38*
%TO.C,MX9*%
X11221764Y112075000D03*
D37*
X6141764Y112075000D03*
D38*
X1061764Y112075000D03*
D39*
X2331764Y114615000D03*
X8681764Y117155000D03*
%TD*%
D38*
%TO.C,MX46*%
X204971764Y93352805D03*
D37*
X199891764Y93352805D03*
D38*
X194811764Y93352805D03*
D39*
X196081764Y95892805D03*
X202431764Y98432805D03*
%TD*%
D38*
%TO.C,MX12*%
X68251764Y109795000D03*
D37*
X63171764Y109795000D03*
D38*
X58091764Y109795000D03*
D39*
X59361764Y112335000D03*
X65711764Y114875000D03*
%TD*%
D38*
%TO.C,MX26*%
X1124973Y50995238D03*
D37*
X-3758236Y49595000D03*
D38*
X-8641445Y48194762D03*
D39*
X-8120762Y50986426D03*
X-2716869Y55178328D03*
%TD*%
D38*
%TO.C,MX41*%
X223971764Y107602805D03*
D37*
X218891764Y107602805D03*
D38*
X213811764Y107602805D03*
D39*
X215081764Y110142805D03*
X221431764Y112682805D03*
%TD*%
D38*
%TO.C,MX11*%
X49301764Y112115000D03*
D37*
X44221764Y112115000D03*
D38*
X39141764Y112115000D03*
D39*
X40411764Y114655000D03*
X46761764Y117195000D03*
%TD*%
D38*
%TO.C,MX30*%
X85198036Y53371313D03*
D37*
X82891764Y48845000D03*
D38*
X80585492Y44318687D03*
D39*
X78898904Y46603401D03*
X79518587Y53414428D03*
%TD*%
D38*
%TO.C,MX49*%
X147971764Y72052805D03*
D37*
X142891764Y72052805D03*
D38*
X137811764Y72052805D03*
D39*
X139081764Y74592805D03*
X145431764Y77132805D03*
%TD*%
D38*
%TO.C,MX36*%
X242971764Y126602805D03*
D37*
X237891764Y126602805D03*
D38*
X232811764Y126602805D03*
D39*
X234081764Y129142805D03*
X240431764Y131682805D03*
%TD*%
D38*
%TO.C,MX21*%
X11271764Y74045000D03*
D37*
X6191764Y74045000D03*
D38*
X1111764Y74045000D03*
D39*
X2381764Y76585000D03*
X8731764Y79125000D03*
%TD*%
D38*
%TO.C,MX60*%
X240621764Y50602805D03*
D37*
X235541764Y50602805D03*
D38*
X230461764Y50602805D03*
D39*
X231731764Y53142805D03*
X238081764Y55682805D03*
%TD*%
D38*
%TO.C,MX4*%
X30221764Y133545000D03*
D37*
X25141764Y133545000D03*
D38*
X20061764Y133545000D03*
D39*
X21331764Y136085000D03*
X27681764Y138625000D03*
%TD*%
D38*
%TO.C,MX56*%
X153410754Y52408996D03*
D37*
X148441764Y51352805D03*
D38*
X143472774Y50296614D03*
D39*
X144186926Y53045156D03*
X149870068Y56849891D03*
%TD*%
D38*
%TO.C,MX10*%
X30221764Y114545000D03*
D37*
X25141764Y114545000D03*
D38*
X20061764Y114545000D03*
D39*
X21331764Y117085000D03*
X27681764Y119625000D03*
%TD*%
D38*
%TO.C,MX34*%
X204971764Y131352805D03*
D37*
X199891764Y131352805D03*
D38*
X194811764Y131352805D03*
D39*
X196081764Y133892805D03*
X202431764Y136432805D03*
%TD*%
D38*
%TO.C,MX7*%
X-26778236Y107345000D03*
D37*
X-31858236Y107345000D03*
D38*
X-36938236Y107345000D03*
D39*
X-35668236Y109885000D03*
X-29318236Y112425000D03*
%TD*%
D38*
%TO.C,MX3*%
X11221764Y131095000D03*
D37*
X6141764Y131095000D03*
D38*
X1061764Y131095000D03*
D39*
X2331764Y133635000D03*
X8681764Y136175000D03*
%TD*%
D38*
%TO.C,MX27*%
X21752433Y54087751D03*
D37*
X16691764Y53645000D03*
D38*
X11631095Y53202249D03*
D39*
X12674887Y55843271D03*
X18779347Y58927045D03*
%TD*%
D38*
%TO.C,MX39*%
X185971764Y114802805D03*
D37*
X180891764Y114802805D03*
D38*
X175811764Y114802805D03*
D39*
X177081764Y117342805D03*
X183431764Y119882805D03*
%TD*%
D38*
%TO.C,MX25*%
X-24378236Y50345000D03*
D37*
X-29458236Y50345000D03*
D38*
X-34538236Y50345000D03*
D39*
X-33268236Y52885000D03*
X-26918236Y55425000D03*
%TD*%
D38*
%TO.C,MX23*%
X49271764Y74095000D03*
D37*
X44191764Y74095000D03*
D38*
X39111764Y74095000D03*
D39*
X40381764Y76635000D03*
X46731764Y79175000D03*
%TD*%
D42*
X74641764Y64345000D03*
X127880764Y94345000D03*
X68391764Y85345000D03*
X179380764Y50745000D03*
X-4398236Y129035000D03*
X68591764Y122545000D03*
X54291764Y137345000D03*
X52491764Y61645000D03*
X90291764Y104945000D03*
X90303390Y107955920D03*
X44291764Y102445000D03*
X90791764Y130073764D03*
X5891764Y101845000D03*
X31891764Y63945000D03*
X115106032Y130156728D03*
X62991764Y99745000D03*
X94591764Y64345000D03*
X73491764Y124145000D03*
X82396764Y120802239D03*
X-31808236Y116645000D03*
X86400099Y110113140D03*
X-12108236Y79145000D03*
X85441764Y74495000D03*
X74641764Y62820000D03*
X117659380Y105099502D03*
D43*
X122780764Y124945000D03*
D42*
X80491764Y95145000D03*
X-20908236Y135385000D03*
X123684304Y130145000D03*
X31591764Y127445000D03*
X190980764Y139345000D03*
X84991264Y121751892D03*
X122580764Y126694500D03*
X-31608236Y78945000D03*
X89891764Y125045500D03*
X86400099Y112113140D03*
X82291764Y95145000D03*
X90291927Y126460730D03*
X115380764Y105345000D03*
X25291764Y122745000D03*
X92317298Y117358641D03*
X25091764Y104745000D03*
X84991264Y119945000D03*
X113651695Y116207566D03*
X-32008236Y97545000D03*
X127880764Y96195000D03*
X84400099Y112113140D03*
X6991764Y120445000D03*
X73491764Y73445000D03*
X129848959Y66320634D03*
X-12808236Y116345000D03*
X79070355Y115467283D03*
X72491764Y109545000D03*
X83991764Y106245000D03*
X-11108236Y58945000D03*
X-12408236Y97245000D03*
X43791764Y120245000D03*
X127880764Y92495000D03*
X14651764Y140465000D03*
X84400099Y110113140D03*
X129880764Y68345000D03*
X83691764Y95145000D03*
X126180764Y110259545D03*
X11791764Y62545000D03*
X74641764Y61145000D03*
X84957620Y104762930D03*
X66891764Y61645000D03*
X125256206Y117414273D03*
X85400099Y111113140D03*
X-29708236Y59345000D03*
X85491764Y118545000D03*
X82091764Y130145000D03*
X170580764Y132545000D03*
X129880764Y70254214D03*
X113461477Y125360503D03*
X90091764Y115545000D03*
X123085000Y115751006D03*
X83591764Y42545000D03*
X70248014Y125988750D03*
X70248014Y64545000D03*
X72191764Y47445000D03*
X70248014Y88145000D03*
X70248014Y102945000D03*
X133191930Y121820500D03*
X115580764Y46945000D03*
X133191930Y68805214D03*
X133191930Y107145000D03*
X133216844Y87169914D03*
X76991264Y109345994D03*
X-3746668Y83167707D03*
X-3758236Y125695000D03*
X-37708236Y120145000D03*
X-37108236Y103145000D03*
X-37508236Y64145000D03*
X-38138236Y77745000D03*
X-39741678Y118545000D03*
X-39908236Y69545000D03*
X76991264Y115345000D03*
X-39741678Y126283076D03*
X-39741678Y88483076D03*
X-39741678Y107283076D03*
X-14808236Y52045000D03*
X76991264Y114345497D03*
X-20808236Y107545000D03*
X-20808236Y126545000D03*
X-20808236Y117870500D03*
X-20808236Y69745000D03*
X-20808236Y88745000D03*
X6691764Y57945000D03*
X76991264Y113345994D03*
X-1890937Y120537701D03*
X-1898236Y130955000D03*
X-1898236Y93155000D03*
X-1898236Y111955000D03*
X-1898236Y74155000D03*
X17101764Y133505000D03*
X17101764Y114505000D03*
X76991264Y112346491D03*
X17101764Y124070500D03*
X17101764Y76705000D03*
X17101764Y95705000D03*
X28244130Y58597366D03*
X36101764Y130855000D03*
X49191764Y57345000D03*
X36101764Y74055000D03*
X76991264Y111345000D03*
X36101764Y93055000D03*
X36101764Y121345000D03*
X36101764Y111855000D03*
X55091764Y71845000D03*
X55091764Y118345000D03*
X55091764Y109645000D03*
X55091764Y128645000D03*
X55091764Y90845000D03*
X72591764Y45745000D03*
X76991264Y110345497D03*
X134923632Y115136968D03*
X127380764Y56745000D03*
X134895418Y110359606D03*
X129681264Y109945497D03*
X134895418Y91559606D03*
X134895418Y129359606D03*
X134895418Y72345000D03*
X153863963Y131661615D03*
X153863963Y93861615D03*
X153863963Y112661615D03*
X153876589Y120907039D03*
X145780764Y59145000D03*
X153863963Y74545000D03*
X129681264Y110945000D03*
X172879556Y123746402D03*
X172865432Y77145000D03*
X172865432Y96297725D03*
X172865432Y133860332D03*
X165780764Y61745000D03*
X129681264Y111944503D03*
X172865432Y115097725D03*
X191909333Y93812617D03*
X186580764Y62345000D03*
X191909333Y122370500D03*
X191909333Y131612617D03*
X191909333Y112612617D03*
X191909333Y74545000D03*
X129681264Y112944006D03*
X210859097Y69745000D03*
X210853016Y118448150D03*
X210859097Y126745000D03*
X129681264Y113943509D03*
X210859097Y89005601D03*
X210859097Y107805601D03*
X206780764Y58945000D03*
X229980764Y88945000D03*
X229980764Y126745000D03*
X229955463Y118745500D03*
X229980764Y69745000D03*
X129681264Y114943012D03*
X229980764Y58345000D03*
X229955463Y107745000D03*
X-3746988Y79145000D03*
X7491764Y48945000D03*
X76991264Y105145000D03*
X208554713Y79918949D03*
X197180764Y51345000D03*
X129681264Y104947982D03*
X-4471988Y68481247D03*
X76991264Y106145000D03*
X-3746433Y80144502D03*
X209980764Y67945000D03*
X208551337Y80946925D03*
X129681264Y105947485D03*
X-5232736Y86545000D03*
X76991264Y107345000D03*
X-3746508Y81144004D03*
X208580764Y81945994D03*
X129681264Y106946988D03*
X210159597Y86945000D03*
X-3746110Y82168205D03*
X76991264Y108345000D03*
X-4508236Y106123611D03*
X208580764Y82945497D03*
X209380764Y107945000D03*
X129681264Y107946491D03*
X208593665Y83957194D03*
X208580764Y127345000D03*
X129681264Y108945994D03*
X90407034Y113217164D03*
X129681264Y117945000D03*
X90403239Y114222900D03*
X129681264Y116945000D03*
X118080420Y98846032D03*
X117487392Y94545000D03*
X88738875Y94914500D03*
X89241564Y124286392D03*
X127019000Y127306764D03*
X91491764Y121435858D03*
X83491764Y127345000D03*
X124180764Y105145000D03*
X123264748Y104745099D03*
X124380764Y106145000D03*
X126180764Y122745000D03*
X115780764Y124945000D03*
X76991264Y116344503D03*
X129681264Y115942515D03*
X119642075Y113521722D03*
X86797143Y113370547D03*
M02*
