%TF.GenerationSoftware,KiCad,Pcbnew,8.0.5*%
%TF.CreationDate,2024-10-06T11:07:10+02:00*%
%TF.ProjectId,chastity,63686173-7469-4747-992e-6b696361645f,rev?*%
%TF.SameCoordinates,Original*%
%TF.FileFunction,Profile,NP*%
%FSLAX46Y46*%
G04 Gerber Fmt 4.6, Leading zero omitted, Abs format (unit mm)*
G04 Created by KiCad (PCBNEW 8.0.5) date 2024-10-06 11:07:10*
%MOMM*%
%LPD*%
G01*
G04 APERTURE LIST*
%TA.AperFunction,Profile*%
%ADD10C,0.100000*%
%TD*%
%TA.AperFunction,Profile*%
%ADD11C,0.200000*%
%TD*%
%TA.AperFunction,Profile*%
%ADD12C,0.050000*%
%TD*%
%TA.AperFunction,Profile*%
%ADD13C,0.080000*%
%TD*%
G04 APERTURE END LIST*
D10*
X121964921Y32388424D02*
X118809899Y35248763D01*
X227649899Y41108763D02*
X217599899Y40678763D01*
X35553325Y46340546D02*
X36253325Y46330546D01*
X155419899Y44908763D02*
X154859899Y44828763D01*
X35013325Y46370546D02*
X35553325Y46340546D01*
X229471974Y116834763D02*
G75*
G02*
X227539824Y116834763I-966075J0D01*
G01*
X227539824Y116834763D02*
G75*
G02*
X229471974Y116834763I966075J0D01*
G01*
X27273325Y46510546D02*
X28773325Y46500546D01*
X10593325Y44940546D02*
X11533325Y45190546D01*
X198069899Y44298763D02*
X197439899Y44488763D01*
X-34636675Y41770546D02*
X-34306675Y41670546D01*
X14183325Y45720546D02*
X15773325Y45960546D01*
X42973325Y45900546D02*
X43693325Y45820546D01*
X-5106675Y40510546D02*
X-3286675Y40920546D01*
X9843325Y44740546D02*
X10593325Y44940546D01*
X49883325Y44920546D02*
X50633325Y44810546D01*
X194519899Y45288763D02*
X193969899Y45408763D01*
X7983325Y44200546D02*
X7513325Y44060546D01*
X181909899Y46608763D02*
X179639899Y46608763D01*
X51813325Y44630546D02*
X52143325Y44580546D01*
X19613325Y46340546D02*
X20763325Y46410546D01*
X241839200Y135328210D02*
G75*
G02*
X246742763Y130486297I-17136J-4921310D01*
G01*
X97564667Y137681842D02*
X97563667Y111659842D01*
X150349899Y44088763D02*
X150009899Y44028763D01*
X173337642Y141240653D02*
G75*
G02*
X167459810Y140248750I-2927778J-561953D01*
G01*
X109408553Y110534715D02*
G75*
G02*
X108465979Y111477763I11J942585D01*
G01*
X160749899Y45718763D02*
X159559899Y45548763D01*
X188469899Y46268763D02*
X187389899Y46368763D01*
X18173325Y142450546D02*
X32133325Y142450546D01*
X95345776Y103197647D02*
X95345117Y109772794D01*
X-6006675Y40330546D02*
X-5106675Y40510546D01*
X208089899Y139838763D02*
X187879899Y142548763D01*
X244139899Y45888763D02*
X243532488Y44591300D01*
X39963325Y46150546D02*
X41263325Y46060546D01*
X118809899Y35248763D02*
X110513663Y53583763D01*
X163079899Y45998763D02*
X162359899Y45918763D01*
X207907262Y138506928D02*
X208089899Y139838763D01*
X58243325Y43460546D02*
X58853325Y43310546D01*
X48603325Y45120546D02*
X49293325Y45010546D01*
X8613325Y44390546D02*
X9213325Y44560546D01*
X150009899Y44028763D02*
X149709899Y43968763D01*
X145359899Y42898763D02*
X144819899Y42728763D01*
X-11546675Y40580546D02*
X-6006675Y40330546D01*
X216509899Y138718763D02*
X241839200Y135328210D01*
X168979899Y46398763D02*
X167569899Y46328763D01*
X54403325Y44220546D02*
X54863325Y44140546D01*
X24143325Y46510546D02*
X26413325Y46510546D01*
D11*
X-15343333Y45956242D02*
G75*
G02*
X-17343333Y45956242I-1000000J0D01*
G01*
X-17343333Y45956242D02*
G75*
G02*
X-15343333Y45956242I1000000J0D01*
G01*
D10*
X58853325Y43310546D02*
X59513325Y43140546D01*
X-1756675Y41310546D02*
X483325Y41930546D01*
X59513325Y43140546D02*
X60193325Y42950546D01*
X241169899Y42068763D02*
X240689899Y41868763D01*
X95345117Y109772794D02*
G75*
G02*
X96287667Y110715847I942647J406D01*
G01*
X21843325Y46450546D02*
X24143325Y46510546D01*
X-38086675Y45790546D02*
X-37479264Y44493083D01*
X55273325Y44070546D02*
X55443325Y44040546D01*
X163739899Y46068763D02*
X163079899Y45998763D01*
X54863325Y44140546D02*
X54983325Y44120546D01*
X108458112Y101127958D02*
G75*
G02*
X109400662Y102070952I942552J442D01*
G01*
X240689899Y41868763D02*
X240359899Y41768763D01*
X62533325Y42160546D02*
X63083325Y41940546D01*
X134939899Y137798763D02*
X123959666Y137791147D01*
X164789899Y46158763D02*
X163739899Y46068763D01*
X173337642Y141240653D02*
X173189899Y142458763D01*
X18663325Y46270546D02*
X19613325Y46340546D01*
X57353325Y43660546D02*
X57803325Y43560546D01*
X-32566675Y41490546D02*
X-11546675Y40580546D01*
X-40689316Y97019491D02*
X-40696675Y65390546D01*
X246742540Y97117708D02*
X246749899Y65488763D01*
X20763325Y46410546D02*
X21843325Y46450546D01*
X50633325Y44810546D02*
X51193325Y44730546D01*
X191869899Y45818763D02*
X190279899Y46058763D01*
X96629008Y102253085D02*
X96288326Y102254599D01*
X167569899Y46328763D02*
X166089899Y46248763D01*
X96621117Y110716794D02*
X96287667Y110715842D01*
X55443325Y44040546D02*
X55703325Y43990546D01*
X151069899Y44218763D02*
X150959899Y44198763D01*
X147199899Y43408763D02*
X146539899Y43238763D01*
X7983325Y44200546D02*
X8613325Y44390546D01*
X167259899Y141738763D02*
X134939899Y137798763D01*
X-33336675Y41520546D02*
X-32566675Y41490546D01*
X88863375Y68840546D02*
G75*
G02*
X86863275Y68840546I-1000050J0D01*
G01*
X86863275Y68840546D02*
G75*
G02*
X88863375Y68840546I1000050J0D01*
G01*
X108463663Y137812763D02*
X108466003Y111477763D01*
X197439899Y44488763D02*
X196839899Y44658763D01*
X77699171Y32692842D02*
X78790763Y32025103D01*
X60693325Y42800546D02*
X61233325Y42630546D01*
X-40696675Y98920546D02*
X-40689537Y130388080D01*
X97547167Y87885843D02*
X97570667Y56584842D01*
X60193325Y42950546D02*
X60693325Y42800546D01*
X154859899Y44828763D02*
X154239899Y44728763D01*
X77699171Y32692842D02*
X63083325Y41940546D01*
X-40689537Y130388080D02*
G75*
G02*
X-35785976Y135229992I4920761J-79460D01*
G01*
X16743325Y46080546D02*
X17583325Y46170546D01*
X84125145Y32347500D02*
X87243325Y35150546D01*
X156169899Y45018763D02*
X155419899Y44908763D01*
X135719899Y37328763D02*
X127299303Y32066027D01*
X26413325Y46510546D02*
X27273325Y46510546D01*
X153449899Y44608763D02*
X152679899Y44488763D01*
X30423325Y46460546D02*
X32933325Y46420546D01*
X110683894Y103015568D02*
G75*
G02*
X109741344Y102072470I-942530J-568D01*
G01*
X173919899Y142548763D02*
X173189899Y142458763D01*
X52603325Y44510546D02*
X53373325Y44390546D01*
X196209899Y44838763D02*
X195459899Y45038763D01*
X12823325Y45470546D02*
X14183325Y45720546D01*
X95555667Y53442842D02*
X97570667Y56584842D01*
X193229899Y45568763D02*
X191869899Y45818763D01*
X216289898Y137068763D02*
X216509899Y138718763D01*
X17583325Y46170546D02*
X18663325Y46270546D01*
X54983325Y44120546D02*
X55093325Y44100546D01*
X157449899Y45218763D02*
X156759899Y45108763D01*
X71113325Y137700546D02*
X81909666Y137663342D01*
X216289898Y137068763D02*
G75*
G02*
X207910036Y138506414I-4200034J659937D01*
G01*
X178779899Y46608763D02*
X177279899Y46598763D01*
X42313325Y45970546D02*
X42973325Y45900546D01*
X-35116675Y41970546D02*
G75*
G02*
X-37479246Y44493092I2860839J5047054D01*
G01*
X246749899Y99018763D02*
X246742761Y130486297D01*
X38593325Y140150546D02*
G75*
G02*
X32715588Y141142435I-2950001J429974D01*
G01*
X152129899Y44398763D02*
X151649899Y44318763D01*
X217599899Y40678763D02*
X212059899Y40428763D01*
X171039899Y46468763D02*
X170499899Y46438763D01*
X483325Y41930546D02*
X1823325Y42320546D01*
X173119899Y46518763D02*
X171039899Y46468763D01*
X-1854038Y138408711D02*
X-2036675Y139740546D01*
X238619899Y41588763D02*
X227649899Y41108763D01*
X211159899Y40608763D02*
X209339899Y41018763D01*
X156759899Y45108763D02*
X156169899Y45018763D01*
X179639899Y46608763D02*
X178779899Y46608763D01*
X186439899Y46438763D02*
X185289899Y46508763D01*
X-40696675Y98920546D02*
G75*
G02*
X-40689315Y97019498I140059J-949996D01*
G01*
X149349899Y43898763D02*
X148939899Y43808763D01*
X191643494Y103244763D02*
G75*
G02*
X189676304Y103244763I-983595J0D01*
G01*
X189676304Y103244763D02*
G75*
G02*
X191643494Y103244763I983595J0D01*
G01*
X148699899Y43758763D02*
X148249899Y43658763D01*
X36253325Y46330546D02*
X37073325Y46300546D01*
X135719899Y37328763D02*
X142969899Y42038763D01*
X11533325Y45190546D02*
X12083325Y45310546D01*
X154239899Y44728763D02*
X153909899Y44678763D01*
X32933325Y46420546D02*
X35013325Y46370546D01*
X27623330Y64972546D02*
G75*
G02*
X25653320Y64972546I-985005J0D01*
G01*
X25653320Y64972546D02*
G75*
G02*
X27623330Y64972546I985005J0D01*
G01*
X-10456675Y138620546D02*
X-35785976Y135229993D01*
X45303325Y45620546D02*
X46493325Y45450546D01*
X32715582Y141142436D02*
X32863325Y142360546D01*
X239899899Y41678763D02*
X239389899Y41618763D01*
X57803325Y43560546D02*
X58243325Y43460546D01*
X38593325Y140150546D02*
X38793325Y141640546D01*
X62063325Y42340546D02*
X62533325Y42160546D01*
X69578258Y43070546D02*
G75*
G02*
X67708392Y43070546I-934933J0D01*
G01*
X67708392Y43070546D02*
G75*
G02*
X69578258Y43070546I934933J0D01*
G01*
X-10236674Y136970546D02*
X-10456675Y138620546D01*
X15773325Y45960546D02*
X16743325Y46080546D01*
X204229899Y42418763D02*
X201579899Y43228763D01*
X108532167Y87903646D02*
X108463663Y56808763D01*
X-1856859Y138408188D02*
G75*
G02*
X-10236668Y136970547I-4179807J-777678D01*
G01*
X49293325Y45010546D02*
X49883325Y44920546D01*
X147809899Y43558763D02*
X147199899Y43408763D01*
X87243325Y35150546D02*
X95555667Y53442842D01*
X138344832Y43168763D02*
G75*
G02*
X136474966Y43168763I-934933J0D01*
G01*
X136474966Y43168763D02*
G75*
G02*
X138344832Y43168763I934933J0D01*
G01*
X158339899Y45358763D02*
X157449899Y45218763D01*
X187879899Y142548763D02*
X173919899Y142548763D01*
X193969899Y45408763D02*
X193229899Y45568763D01*
X150609899Y44138763D02*
X150349899Y44088763D01*
X51193325Y44730546D02*
X51813325Y44630546D01*
X-3286675Y40920546D02*
X-1756675Y41310546D01*
X162359899Y45918763D02*
X161669899Y45838763D01*
X119189949Y68938763D02*
G75*
G02*
X117189849Y68938763I-1000050J0D01*
G01*
X117189849Y68938763D02*
G75*
G02*
X119189949Y68938763I1000050J0D01*
G01*
X109742003Y110533763D02*
X109408553Y110534715D01*
X198069899Y44298763D02*
X198539899Y44158763D01*
X190279899Y46058763D02*
X189309899Y46178763D01*
X-33846675Y41580546D02*
X-33336675Y41520546D01*
X12083325Y45310546D02*
X12823325Y45470546D01*
X-38326675Y46480546D02*
X-38086675Y45790546D01*
X169799899Y46428763D02*
X168979899Y46398763D01*
X-35116675Y41970546D02*
X-34636675Y41770546D01*
X159559899Y45548763D02*
X158339899Y45358763D01*
X32133325Y142450546D02*
X32863325Y142360546D01*
X53373325Y44390546D02*
X53923325Y44300546D01*
X114859666Y137791147D02*
X108463663Y137812763D01*
X56703325Y43800546D02*
X57113325Y43710546D01*
X96629008Y102253085D02*
G75*
G02*
X97571549Y101310037I-44J-942585D01*
G01*
X96288326Y102254599D02*
G75*
G02*
X95345763Y103197647I38J942601D01*
G01*
X153909899Y44678763D02*
X153449899Y44608763D01*
X144819899Y42728763D02*
X143989899Y42438763D01*
X1823325Y42320546D02*
X4473325Y43130546D01*
X47713325Y45260546D02*
X48603325Y45120546D01*
X55703325Y43990546D02*
X56043325Y43930546D01*
X161669899Y45838763D02*
X160749899Y45718763D01*
X177279899Y46598763D02*
X175629899Y46558763D01*
X205569899Y42028763D02*
X204229899Y42418763D01*
X52143325Y44580546D02*
X52603325Y44510546D01*
X146539899Y43238763D02*
X145859899Y43048763D01*
X150779899Y44168763D02*
X150609899Y44138763D01*
X108532167Y97003646D02*
X108458112Y101127958D01*
X41263325Y46060546D02*
X42313325Y45970546D01*
X61233325Y42630546D02*
X62063325Y42340546D01*
X152679899Y44488763D02*
X152129899Y44398763D01*
X148249899Y43658763D02*
X147809899Y43558763D01*
X127299303Y32066027D02*
G75*
G02*
X121964917Y32388418I-2380539J4904273D01*
G01*
X97571558Y101310037D02*
X97547167Y96985843D01*
X38793325Y141640546D02*
X71113325Y137700546D01*
X145859899Y43048763D02*
X145359899Y42898763D01*
X46493325Y45450546D02*
X47713325Y45260546D01*
X109741344Y102072520D02*
X109400662Y102071006D01*
X56043325Y43930546D02*
X56343325Y43870546D01*
X151649899Y44318763D02*
X151189899Y44238763D01*
X166089899Y46248763D02*
X164789899Y46158763D01*
X151189899Y44238763D02*
X151069899Y44218763D01*
X189309899Y46178763D02*
X188469899Y46268763D01*
X187389899Y46368763D02*
X186439899Y46438763D01*
X240359899Y41768763D02*
X239899899Y41678763D01*
X54863532Y100937546D02*
G75*
G02*
X52933118Y100937546I-965207J0D01*
G01*
X52933118Y100937546D02*
G75*
G02*
X54863532Y100937546I965207J0D01*
G01*
X55093325Y44100546D02*
X55273325Y44070546D01*
X246742540Y97117708D02*
G75*
G02*
X246749910Y99018835I-132676J951092D01*
G01*
X-40696675Y65390546D02*
X-38326675Y46480546D01*
X44383325Y45740546D02*
X45303325Y45620546D01*
X143519899Y42258763D02*
X142969899Y42038763D01*
X167459899Y140248763D02*
X167259899Y141738763D01*
X110684553Y109590715D02*
X110683894Y103015568D01*
X209339899Y41018763D02*
X207809899Y41408763D01*
X148939899Y43808763D02*
X148699899Y43758763D01*
X201579899Y43228763D02*
X198539899Y44158763D01*
X28773325Y46500546D02*
X30423325Y46460546D01*
X239389899Y41618763D02*
X238619899Y41588763D01*
X97563667Y111659842D02*
G75*
G02*
X96621117Y110716797I-942503J-542D01*
G01*
X110513663Y53583763D02*
X108463663Y56808763D01*
X84125145Y32347500D02*
G75*
G02*
X78790756Y32025088I-2953881J4582100D01*
G01*
X207809899Y41408763D02*
X205569899Y42028763D01*
X57113325Y43710546D02*
X57353325Y43660546D01*
X149709899Y43968763D02*
X149349899Y43898763D01*
X38483325Y46230546D02*
X39963325Y46150546D01*
X180399904Y65070763D02*
G75*
G02*
X178429894Y65070763I-985005J0D01*
G01*
X178429894Y65070763D02*
G75*
G02*
X180399904Y65070763I985005J0D01*
G01*
X91009666Y137663342D02*
X97564667Y137681842D01*
X195459899Y45038763D02*
X194519899Y45288763D01*
X175629899Y46558763D02*
X173119899Y46518763D01*
X196839899Y44658763D02*
X196209899Y44838763D01*
X185289899Y46508763D02*
X184209899Y46548763D01*
X184209899Y46548763D02*
X181909899Y46608763D01*
X153120106Y101035763D02*
G75*
G02*
X151189692Y101035763I-965207J0D01*
G01*
X151189692Y101035763D02*
G75*
G02*
X153120106Y101035763I965207J0D01*
G01*
X16376920Y103146546D02*
G75*
G02*
X14409730Y103146546I-983595J0D01*
G01*
X14409730Y103146546D02*
G75*
G02*
X16376920Y103146546I983595J0D01*
G01*
X170499899Y46438763D02*
X169799899Y46428763D01*
X53923325Y44300546D02*
X54403325Y44220546D01*
X212059899Y40428763D02*
X211159899Y40608763D01*
X246749899Y65488763D02*
X244379899Y46578763D01*
X43693325Y45820546D02*
X44383325Y45740546D01*
X4473325Y43130546D02*
X7513325Y44060546D01*
X109742003Y110533763D02*
G75*
G02*
X110684527Y109590715I-39J-942563D01*
G01*
X9213325Y44560546D02*
X9843325Y44740546D01*
X-2036675Y139740546D02*
X18173325Y142450546D01*
X150959899Y44198763D02*
X150779899Y44168763D01*
X243532488Y44591300D02*
G75*
G02*
X241169892Y42068776I-5223324J2524500D01*
G01*
X244379899Y46578763D02*
X244139899Y45888763D01*
X-34306675Y41670546D02*
X-33846675Y41580546D01*
X37073325Y46300546D02*
X38483325Y46230546D01*
X56343325Y43870546D02*
X56703325Y43800546D01*
X-21486600Y116736546D02*
G75*
G02*
X-23418750Y116736546I-966075J0D01*
G01*
X-23418750Y116736546D02*
G75*
G02*
X-21486600Y116736546I966075J0D01*
G01*
X143989899Y42438763D02*
X143519899Y42258763D01*
D12*
%TO.C,TFT2*%
X128010710Y134495000D02*
G75*
G02*
X126010710Y134495000I-1000000J0D01*
G01*
X126010710Y134495000D02*
G75*
G02*
X128010710Y134495000I1000000J0D01*
G01*
X113010710Y134495000D02*
G75*
G02*
X111010710Y134495000I-1000000J0D01*
G01*
X111010710Y134495000D02*
G75*
G02*
X113010710Y134495000I1000000J0D01*
G01*
X128060710Y102995000D02*
G75*
G02*
X126060710Y102995000I-1000000J0D01*
G01*
X126060710Y102995000D02*
G75*
G02*
X128060710Y102995000I1000000J0D01*
G01*
D13*
%TO.C,SPLIT_R1*%
X112895943Y96997804D02*
X108536764Y96997804D01*
X114066764Y95847803D02*
X114066764Y96997804D01*
X114466764Y95647804D02*
X114266764Y95647804D01*
X114616764Y92447804D02*
X114616764Y94541586D01*
X114616764Y92447804D02*
X114616764Y90354022D01*
X114466764Y89247804D02*
X114266764Y89247804D01*
X114066764Y89047805D02*
X114066764Y87897804D01*
X112895943Y87897804D02*
X108536764Y87897804D01*
X113087607Y97140661D02*
G75*
G02*
X114066764Y96997804I479157J-142858D01*
G01*
X113087606Y97140661D02*
G75*
G02*
X112895943Y96997804I-191662J57142D01*
G01*
X114466764Y95647804D02*
G75*
G02*
X114716764Y94714791I0J-500000D01*
G01*
X114266764Y95647803D02*
G75*
G02*
X114066764Y95847803I1J200001D01*
G01*
X114616764Y94541586D02*
G75*
G02*
X114716764Y94714791I200000J0D01*
G01*
X114716764Y90180817D02*
G75*
G02*
X114616779Y90354022I100000J173188D01*
G01*
X114716764Y90180817D02*
G75*
G02*
X114466764Y89247806I-250000J-433012D01*
G01*
X114066765Y89047805D02*
G75*
G02*
X114266764Y89247804I199999J0D01*
G01*
X114066765Y87897804D02*
G75*
G02*
X113087606Y87754947I-500001J1D01*
G01*
X112895943Y87897804D02*
G75*
G02*
X113087608Y87754948I-19J-200029D01*
G01*
%TO.C,J1*%
X91005620Y133303442D02*
X91005620Y137662621D01*
X89855619Y132132621D02*
X91005620Y132132621D01*
X89655620Y131732621D02*
X89655620Y131932621D01*
X86455620Y131582621D02*
X88549402Y131582621D01*
X86455620Y131582621D02*
X84361838Y131582621D01*
X83255620Y131732621D02*
X83255620Y131932621D01*
X83055621Y132132621D02*
X81905620Y132132621D01*
X81905620Y133303442D02*
X81905620Y137662621D01*
X91148477Y133111778D02*
G75*
G02*
X91005620Y132132621I-142858J-479157D01*
G01*
X91148477Y133111779D02*
G75*
G02*
X91005620Y133303442I57142J191662D01*
G01*
X89655620Y131732621D02*
G75*
G02*
X88722607Y131482621I-500000J0D01*
G01*
X89655619Y131932621D02*
G75*
G02*
X89855619Y132132621I200001J-1D01*
G01*
X88549402Y131582621D02*
G75*
G02*
X88722607Y131482621I0J-200000D01*
G01*
X84188633Y131482621D02*
G75*
G02*
X84361838Y131582606I173188J-100000D01*
G01*
X84188633Y131482621D02*
G75*
G02*
X83255622Y131732621I-433012J250000D01*
G01*
X83055621Y132132620D02*
G75*
G02*
X83255620Y131932621I0J-199999D01*
G01*
X81905620Y132132620D02*
G75*
G02*
X81762763Y133111779I1J500001D01*
G01*
X81905620Y133303442D02*
G75*
G02*
X81762764Y133111777I-200029J19D01*
G01*
D12*
%TO.C,TFT1*%
X80007082Y102720609D02*
G75*
G02*
X78007082Y102720609I-1000000J0D01*
G01*
X78007082Y102720609D02*
G75*
G02*
X80007082Y102720609I1000000J0D01*
G01*
X80007082Y134220609D02*
G75*
G02*
X78007082Y134220609I-1000000J0D01*
G01*
X78007082Y134220609D02*
G75*
G02*
X80007082Y134220609I1000000J0D01*
G01*
X95007082Y134220609D02*
G75*
G02*
X93007082Y134220609I-1000000J0D01*
G01*
X93007082Y134220609D02*
G75*
G02*
X95007082Y134220609I1000000J0D01*
G01*
D13*
%TO.C,SPLIT_L1*%
X93187585Y87885001D02*
X97546764Y87885001D01*
X92016764Y89035002D02*
X92016764Y87885001D01*
X91616764Y89235001D02*
X91816764Y89235001D01*
X91466764Y92435001D02*
X91466764Y90341219D01*
X91466764Y92435001D02*
X91466764Y94528783D01*
X91616764Y95635001D02*
X91816764Y95635001D01*
X92016764Y95835000D02*
X92016764Y96985001D01*
X93187585Y96985001D02*
X97546764Y96985001D01*
X92995921Y87742144D02*
G75*
G02*
X92016764Y87885001I-479157J142858D01*
G01*
X92995922Y87742144D02*
G75*
G02*
X93187585Y87885001I191662J-57142D01*
G01*
X91616764Y89235001D02*
G75*
G02*
X91366764Y90168014I0J500000D01*
G01*
X91816764Y89235002D02*
G75*
G02*
X92016764Y89035002I-1J-200001D01*
G01*
X91466764Y90341219D02*
G75*
G02*
X91366764Y90168014I-200000J0D01*
G01*
X91366764Y94701988D02*
G75*
G02*
X91466749Y94528783I-100000J-173188D01*
G01*
X91366764Y94701988D02*
G75*
G02*
X91616764Y95634999I250000J433012D01*
G01*
X92016763Y95835000D02*
G75*
G02*
X91816764Y95635001I-199999J0D01*
G01*
X92016763Y96985001D02*
G75*
G02*
X92995922Y97127858I500001J-1D01*
G01*
X93187585Y96985001D02*
G75*
G02*
X92995920Y97127857I19J200029D01*
G01*
%TO.C,J4*%
X123956031Y133432549D02*
X123956031Y137791728D01*
X122806030Y132261728D02*
X123956031Y132261728D01*
X122606031Y131861728D02*
X122606031Y132061728D01*
X119406031Y131711728D02*
X121499813Y131711728D01*
X119406031Y131711728D02*
X117312249Y131711728D01*
X116206031Y131861728D02*
X116206031Y132061728D01*
X116006032Y132261728D02*
X114856031Y132261728D01*
X114856031Y133432549D02*
X114856031Y137791728D01*
X124098888Y133240885D02*
G75*
G02*
X123956031Y132261728I-142858J-479157D01*
G01*
X124098888Y133240886D02*
G75*
G02*
X123956031Y133432549I57142J191662D01*
G01*
X122606031Y131861728D02*
G75*
G02*
X121673018Y131611728I-500000J0D01*
G01*
X122606030Y132061728D02*
G75*
G02*
X122806030Y132261728I200001J-1D01*
G01*
X121499813Y131711728D02*
G75*
G02*
X121673018Y131611728I0J-200000D01*
G01*
X117139044Y131611728D02*
G75*
G02*
X117312249Y131711713I173188J-100000D01*
G01*
X117139044Y131611728D02*
G75*
G02*
X116206033Y131861728I-433012J250000D01*
G01*
X116006032Y132261727D02*
G75*
G02*
X116206031Y132061728I0J-199999D01*
G01*
X114856031Y132261727D02*
G75*
G02*
X114713174Y133240886I1J500001D01*
G01*
X114856031Y133432549D02*
G75*
G02*
X114713175Y133240884I-200029J19D01*
G01*
D10*
%TO.C,LED11*%
X42521765Y106332157D02*
X42521765Y107737841D01*
X43427312Y108534999D02*
X45016216Y108534999D01*
X45016216Y105535000D02*
X43427311Y105535000D01*
X45921763Y107737841D02*
X45921763Y106332157D01*
X42472280Y107954719D02*
G75*
G02*
X42521765Y107737841I-450505J-216876D01*
G01*
X42472280Y107954718D02*
G75*
G02*
X43175053Y108603298I450514J216880D01*
G01*
X42521765Y106332156D02*
G75*
G02*
X42472280Y106115279I-499990J-1D01*
G01*
X43175053Y105466701D02*
G75*
G02*
X42472280Y106115279I-252258J431701D01*
G01*
X43175053Y105466701D02*
G75*
G02*
X43427311Y105535000I252261J-431710D01*
G01*
X43427312Y108534999D02*
G75*
G02*
X43175053Y108603298I2J500009D01*
G01*
X45016217Y105534999D02*
G75*
G02*
X45268475Y105466700I-3J-500009D01*
G01*
X45268474Y108603298D02*
G75*
G02*
X45016216Y108535000I-252260J431712D01*
G01*
X45268475Y108603296D02*
G75*
G02*
X45971244Y107954721I252259J-431696D01*
G01*
X45921763Y107737842D02*
G75*
G02*
X45971248Y107954719I500351J-82D01*
G01*
X45971248Y106115279D02*
G75*
G02*
X45268475Y105466700I-450514J-216879D01*
G01*
X45971248Y106115279D02*
G75*
G02*
X45921774Y106332157I450816J216921D01*
G01*
%TO.C,LED19*%
X-33508235Y63562157D02*
X-33508235Y64967841D01*
X-32602688Y65764999D02*
X-31013784Y65764999D01*
X-31013784Y62765000D02*
X-32602689Y62765000D01*
X-30108237Y64967841D02*
X-30108237Y63562157D01*
X-33557720Y65184719D02*
G75*
G02*
X-33508235Y64967841I-450505J-216876D01*
G01*
X-33557720Y65184718D02*
G75*
G02*
X-32854947Y65833298I450514J216880D01*
G01*
X-33508235Y63562156D02*
G75*
G02*
X-33557720Y63345279I-499990J-1D01*
G01*
X-32854947Y62696701D02*
G75*
G02*
X-33557720Y63345279I-252258J431701D01*
G01*
X-32854947Y62696701D02*
G75*
G02*
X-32602689Y62765000I252261J-431710D01*
G01*
X-32602688Y65764999D02*
G75*
G02*
X-32854947Y65833298I2J500009D01*
G01*
X-31013783Y62764999D02*
G75*
G02*
X-30761525Y62696700I-3J-500009D01*
G01*
X-30761526Y65833298D02*
G75*
G02*
X-31013784Y65765000I-252260J431712D01*
G01*
X-30761525Y65833296D02*
G75*
G02*
X-30058756Y65184721I252259J-431696D01*
G01*
X-30108237Y64967842D02*
G75*
G02*
X-30058752Y65184719I500351J-82D01*
G01*
X-30058752Y63345279D02*
G75*
G02*
X-30761525Y62696700I-450514J-216879D01*
G01*
X-30058752Y63345279D02*
G75*
G02*
X-30108226Y63562157I450816J216921D01*
G01*
%TO.C,LED57*%
X167446746Y48288916D02*
X167373178Y49692674D01*
X168235764Y50536132D02*
X169822490Y50619289D01*
X169979498Y47623401D02*
X168392771Y47540244D01*
X170768516Y49870616D02*
X170842084Y48466858D01*
X167312410Y49906665D02*
G75*
G02*
X167373178Y49692674I-438537J-240157D01*
G01*
X167312410Y49906664D02*
G75*
G02*
X167980275Y50591133I438545J240160D01*
G01*
X167446746Y48288915D02*
G75*
G02*
X167408679Y48069746I-499305J-26168D01*
G01*
X168144433Y47458837D02*
G75*
G02*
X167408679Y48069746I-274506J417907D01*
G01*
X168144433Y47458837D02*
G75*
G02*
X168392771Y47540245I274509J-417916D01*
G01*
X168235764Y50536132D02*
G75*
G02*
X167980276Y50591135I-26167J499324D01*
G01*
X169979499Y47623400D02*
G75*
G02*
X170234986Y47568397I26166J-499324D01*
G01*
X170070828Y50700696D02*
G75*
G02*
X169822490Y50619289I-274508J417918D01*
G01*
X170070829Y50700694D02*
G75*
G02*
X170806579Y50089788I274507J-417902D01*
G01*
X170768516Y49870617D02*
G75*
G02*
X170806583Y50089786I499670J26104D01*
G01*
X170902852Y48252867D02*
G75*
G02*
X170234986Y47568398I-438546J-240159D01*
G01*
X170902852Y48252867D02*
G75*
G02*
X170842095Y48466859I438845J240218D01*
G01*
%TO.C,LED6*%
X64891763Y124377843D02*
X64891763Y122972159D01*
X63986216Y122175001D02*
X62397312Y122175001D01*
X62397312Y125175000D02*
X63986217Y125175000D01*
X61491765Y122972159D02*
X61491765Y124377843D01*
X64941248Y122755281D02*
G75*
G02*
X64891763Y122972159I450505J216876D01*
G01*
X64941248Y122755282D02*
G75*
G02*
X64238475Y122106702I-450514J-216880D01*
G01*
X64891763Y124377844D02*
G75*
G02*
X64941248Y124594721I499990J1D01*
G01*
X64238475Y125243299D02*
G75*
G02*
X64941248Y124594721I252258J-431701D01*
G01*
X64238475Y125243299D02*
G75*
G02*
X63986217Y125175000I-252261J431710D01*
G01*
X63986216Y122175001D02*
G75*
G02*
X64238475Y122106702I-2J-500009D01*
G01*
X62397311Y125175001D02*
G75*
G02*
X62145053Y125243300I3J500009D01*
G01*
X62145054Y122106702D02*
G75*
G02*
X62397312Y122175000I252260J-431712D01*
G01*
X62145053Y122106704D02*
G75*
G02*
X61442284Y122755279I-252259J431696D01*
G01*
X61491765Y122972158D02*
G75*
G02*
X61442280Y122755281I-500351J82D01*
G01*
X61442280Y124594721D02*
G75*
G02*
X62145053Y125243300I450514J216879D01*
G01*
X61442280Y124594721D02*
G75*
G02*
X61491754Y124377843I-450816J-216921D01*
G01*
%TO.C,LED14*%
X-11128237Y83977843D02*
X-11128237Y82572159D01*
X-12033784Y81775001D02*
X-13622688Y81775001D01*
X-13622688Y84775000D02*
X-12033783Y84775000D01*
X-14528235Y82572159D02*
X-14528235Y83977843D01*
X-11078752Y82355281D02*
G75*
G02*
X-11128237Y82572159I450505J216876D01*
G01*
X-11078752Y82355282D02*
G75*
G02*
X-11781525Y81706702I-450514J-216880D01*
G01*
X-11128237Y83977844D02*
G75*
G02*
X-11078752Y84194721I499990J1D01*
G01*
X-11781525Y84843299D02*
G75*
G02*
X-11078752Y84194721I252258J-431701D01*
G01*
X-11781525Y84843299D02*
G75*
G02*
X-12033783Y84775000I-252261J431710D01*
G01*
X-12033784Y81775001D02*
G75*
G02*
X-11781525Y81706702I-2J-500009D01*
G01*
X-13622689Y84775001D02*
G75*
G02*
X-13874947Y84843300I3J500009D01*
G01*
X-13874946Y81706702D02*
G75*
G02*
X-13622688Y81775000I252260J-431712D01*
G01*
X-13874947Y81706704D02*
G75*
G02*
X-14577716Y82355279I-252259J431696D01*
G01*
X-14528235Y82572158D02*
G75*
G02*
X-14577720Y82355281I-500351J82D01*
G01*
X-14577720Y84194721D02*
G75*
G02*
X-13874947Y84843300I450514J216879D01*
G01*
X-14577720Y84194721D02*
G75*
G02*
X-14528246Y83977843I-450816J-216921D01*
G01*
%TO.C,LED35*%
X217191765Y120819962D02*
X217191765Y122225646D01*
X218097312Y123022804D02*
X219686216Y123022804D01*
X219686216Y120022805D02*
X218097311Y120022805D01*
X220591763Y122225646D02*
X220591763Y120819962D01*
X217142280Y122442524D02*
G75*
G02*
X217191765Y122225646I-450505J-216876D01*
G01*
X217142280Y122442523D02*
G75*
G02*
X217845053Y123091103I450514J216880D01*
G01*
X217191765Y120819961D02*
G75*
G02*
X217142280Y120603084I-499990J-1D01*
G01*
X217845053Y119954506D02*
G75*
G02*
X217142280Y120603084I-252258J431701D01*
G01*
X217845053Y119954506D02*
G75*
G02*
X218097311Y120022805I252261J-431710D01*
G01*
X218097312Y123022804D02*
G75*
G02*
X217845053Y123091103I2J500009D01*
G01*
X219686217Y120022804D02*
G75*
G02*
X219938475Y119954505I-3J-500009D01*
G01*
X219938474Y123091103D02*
G75*
G02*
X219686216Y123022805I-252260J431712D01*
G01*
X219938475Y123091101D02*
G75*
G02*
X220641244Y122442526I252259J-431696D01*
G01*
X220591763Y122225647D02*
G75*
G02*
X220641248Y122442524I500351J-82D01*
G01*
X220641248Y120603084D02*
G75*
G02*
X219938475Y119954505I-450514J-216879D01*
G01*
X220641248Y120603084D02*
G75*
G02*
X220591774Y120819962I450816J216921D01*
G01*
%TO.C,LED47*%
X217191765Y82819962D02*
X217191765Y84225646D01*
X218097312Y85022804D02*
X219686216Y85022804D01*
X219686216Y82022805D02*
X218097311Y82022805D01*
X220591763Y84225646D02*
X220591763Y82819962D01*
X217142280Y84442524D02*
G75*
G02*
X217191765Y84225646I-450505J-216876D01*
G01*
X217142280Y84442523D02*
G75*
G02*
X217845053Y85091103I450514J216880D01*
G01*
X217191765Y82819961D02*
G75*
G02*
X217142280Y82603084I-499990J-1D01*
G01*
X217845053Y81954506D02*
G75*
G02*
X217142280Y82603084I-252258J431701D01*
G01*
X217845053Y81954506D02*
G75*
G02*
X218097311Y82022805I252261J-431710D01*
G01*
X218097312Y85022804D02*
G75*
G02*
X217845053Y85091103I2J500009D01*
G01*
X219686217Y82022804D02*
G75*
G02*
X219938475Y81954505I-3J-500009D01*
G01*
X219938474Y85091103D02*
G75*
G02*
X219686216Y85022805I-252260J431712D01*
G01*
X219938475Y85091101D02*
G75*
G02*
X220641244Y84442526I252259J-431696D01*
G01*
X220591763Y84225647D02*
G75*
G02*
X220641248Y84442524I500351J-82D01*
G01*
X220641248Y82603084D02*
G75*
G02*
X219938475Y81954505I-450514J-216879D01*
G01*
X220641248Y82603084D02*
G75*
G02*
X220591774Y82819962I450816J216921D01*
G01*
%TO.C,LED23*%
X42491765Y68312157D02*
X42491765Y69717841D01*
X43397312Y70514999D02*
X44986216Y70514999D01*
X44986216Y67515000D02*
X43397311Y67515000D01*
X45891763Y69717841D02*
X45891763Y68312157D01*
X42442280Y69934719D02*
G75*
G02*
X42491765Y69717841I-450505J-216876D01*
G01*
X42442280Y69934718D02*
G75*
G02*
X43145053Y70583298I450514J216880D01*
G01*
X42491765Y68312156D02*
G75*
G02*
X42442280Y68095279I-499990J-1D01*
G01*
X43145053Y67446701D02*
G75*
G02*
X42442280Y68095279I-252258J431701D01*
G01*
X43145053Y67446701D02*
G75*
G02*
X43397311Y67515000I252261J-431710D01*
G01*
X43397312Y70514999D02*
G75*
G02*
X43145053Y70583298I2J500009D01*
G01*
X44986217Y67514999D02*
G75*
G02*
X45238475Y67446700I-3J-500009D01*
G01*
X45238474Y70583298D02*
G75*
G02*
X44986216Y70515000I-252260J431712D01*
G01*
X45238475Y70583296D02*
G75*
G02*
X45941244Y69934721I252259J-431696D01*
G01*
X45891763Y69717842D02*
G75*
G02*
X45941248Y69934719I500351J-82D01*
G01*
X45941248Y68095279D02*
G75*
G02*
X45238475Y67446700I-450514J-216879D01*
G01*
X45941248Y68095279D02*
G75*
G02*
X45891774Y68312157I450816J216921D01*
G01*
%TO.C,LED54*%
X239591763Y65225648D02*
X239591763Y63819964D01*
X238686216Y63022806D02*
X237097312Y63022806D01*
X237097312Y66022805D02*
X238686217Y66022805D01*
X236191765Y63819964D02*
X236191765Y65225648D01*
X239641248Y63603086D02*
G75*
G02*
X239591763Y63819964I450505J216876D01*
G01*
X239641248Y63603087D02*
G75*
G02*
X238938475Y62954507I-450514J-216880D01*
G01*
X239591763Y65225649D02*
G75*
G02*
X239641248Y65442526I499990J1D01*
G01*
X238938475Y66091104D02*
G75*
G02*
X239641248Y65442526I252258J-431701D01*
G01*
X238938475Y66091104D02*
G75*
G02*
X238686217Y66022805I-252261J431710D01*
G01*
X238686216Y63022806D02*
G75*
G02*
X238938475Y62954507I-2J-500009D01*
G01*
X237097311Y66022806D02*
G75*
G02*
X236845053Y66091105I3J500009D01*
G01*
X236845054Y62954507D02*
G75*
G02*
X237097312Y63022805I252260J-431712D01*
G01*
X236845053Y62954509D02*
G75*
G02*
X236142284Y63603084I-252259J431696D01*
G01*
X236191765Y63819963D02*
G75*
G02*
X236142280Y63603086I-500351J82D01*
G01*
X236142280Y65442526D02*
G75*
G02*
X236845053Y66091105I450514J216879D01*
G01*
X236142280Y65442526D02*
G75*
G02*
X236191754Y65225648I-450816J-216921D01*
G01*
%TO.C,LED9*%
X4441765Y106292157D02*
X4441765Y107697841D01*
X5347312Y108494999D02*
X6936216Y108494999D01*
X6936216Y105495000D02*
X5347311Y105495000D01*
X7841763Y107697841D02*
X7841763Y106292157D01*
X4392280Y107914719D02*
G75*
G02*
X4441765Y107697841I-450505J-216876D01*
G01*
X4392280Y107914718D02*
G75*
G02*
X5095053Y108563298I450514J216880D01*
G01*
X4441765Y106292156D02*
G75*
G02*
X4392280Y106075279I-499990J-1D01*
G01*
X5095053Y105426701D02*
G75*
G02*
X4392280Y106075279I-252258J431701D01*
G01*
X5095053Y105426701D02*
G75*
G02*
X5347311Y105495000I252261J-431710D01*
G01*
X5347312Y108494999D02*
G75*
G02*
X5095053Y108563298I2J500009D01*
G01*
X6936217Y105494999D02*
G75*
G02*
X7188475Y105426700I-3J-500009D01*
G01*
X7188474Y108563298D02*
G75*
G02*
X6936216Y108495000I-252260J431712D01*
G01*
X7188475Y108563296D02*
G75*
G02*
X7891244Y107914721I252259J-431696D01*
G01*
X7841763Y107697842D02*
G75*
G02*
X7891248Y107914719I500351J-82D01*
G01*
X7891248Y106075279D02*
G75*
G02*
X7188475Y105426700I-450514J-216879D01*
G01*
X7891248Y106075279D02*
G75*
G02*
X7841774Y106292157I450816J216921D01*
G01*
%TO.C,LED2*%
X-11158237Y121967843D02*
X-11158237Y120562159D01*
X-12063784Y119765001D02*
X-13652688Y119765001D01*
X-13652688Y122765000D02*
X-12063783Y122765000D01*
X-14558235Y120562159D02*
X-14558235Y121967843D01*
X-11108752Y120345281D02*
G75*
G02*
X-11158237Y120562159I450505J216876D01*
G01*
X-11108752Y120345282D02*
G75*
G02*
X-11811525Y119696702I-450514J-216880D01*
G01*
X-11158237Y121967844D02*
G75*
G02*
X-11108752Y122184721I499990J1D01*
G01*
X-11811525Y122833299D02*
G75*
G02*
X-11108752Y122184721I252258J-431701D01*
G01*
X-11811525Y122833299D02*
G75*
G02*
X-12063783Y122765000I-252261J431710D01*
G01*
X-12063784Y119765001D02*
G75*
G02*
X-11811525Y119696702I-2J-500009D01*
G01*
X-13652689Y122765001D02*
G75*
G02*
X-13904947Y122833300I3J500009D01*
G01*
X-13904946Y119696702D02*
G75*
G02*
X-13652688Y119765000I252260J-431712D01*
G01*
X-13904947Y119696704D02*
G75*
G02*
X-14607716Y120345279I-252259J431696D01*
G01*
X-14558235Y120562158D02*
G75*
G02*
X-14607720Y120345281I-500351J82D01*
G01*
X-14607720Y122184721D02*
G75*
G02*
X-13904947Y122833300I450514J216879D01*
G01*
X-14607720Y122184721D02*
G75*
G02*
X-14558246Y121967843I-450816J-216921D01*
G01*
%TO.C,LED51*%
X182591763Y72425648D02*
X182591763Y71019964D01*
X181686216Y70222806D02*
X180097312Y70222806D01*
X180097312Y73222805D02*
X181686217Y73222805D01*
X179191765Y71019964D02*
X179191765Y72425648D01*
X182641248Y70803086D02*
G75*
G02*
X182591763Y71019964I450505J216876D01*
G01*
X182641248Y70803087D02*
G75*
G02*
X181938475Y70154507I-450514J-216880D01*
G01*
X182591763Y72425649D02*
G75*
G02*
X182641248Y72642526I499990J1D01*
G01*
X181938475Y73291104D02*
G75*
G02*
X182641248Y72642526I252258J-431701D01*
G01*
X181938475Y73291104D02*
G75*
G02*
X181686217Y73222805I-252261J431710D01*
G01*
X181686216Y70222806D02*
G75*
G02*
X181938475Y70154507I-2J-500009D01*
G01*
X180097311Y73222806D02*
G75*
G02*
X179845053Y73291105I3J500009D01*
G01*
X179845054Y70154507D02*
G75*
G02*
X180097312Y70222805I252260J-431712D01*
G01*
X179845053Y70154509D02*
G75*
G02*
X179142284Y70803084I-252259J431696D01*
G01*
X179191765Y71019963D02*
G75*
G02*
X179142280Y70803086I-500351J82D01*
G01*
X179142280Y72642526D02*
G75*
G02*
X179845053Y73291105I450514J216879D01*
G01*
X179142280Y72642526D02*
G75*
G02*
X179191754Y72425648I-450816J-216921D01*
G01*
%TO.C,LED29*%
X58394552Y46460045D02*
X58102294Y45085078D01*
X57050797Y44493614D02*
X55496614Y44823965D01*
X56120349Y47758407D02*
X57674533Y47428055D01*
X54776594Y45791977D02*
X55068852Y47166944D01*
X58105606Y44862651D02*
G75*
G02*
X58102294Y45085078I485752J118471D01*
G01*
X58105606Y44862652D02*
G75*
G02*
X57283344Y44374361I-485760J-118474D01*
G01*
X58394552Y46460046D02*
G75*
G02*
X58488047Y46661895I489065J-103953D01*
G01*
X57935479Y47442414D02*
G75*
G02*
X58488047Y46661895I156989J-474714D01*
G01*
X57935479Y47442414D02*
G75*
G02*
X57674533Y47428055I-156991J474725D01*
G01*
X57050797Y44493614D02*
G75*
G02*
X57283343Y44374360I-103963J-489089D01*
G01*
X56120348Y47758408D02*
G75*
G02*
X55887803Y47877662I103961J489082D01*
G01*
X55235669Y44809606D02*
G75*
G02*
X55496614Y44823967I156995J-474747D01*
G01*
X55235668Y44809608D02*
G75*
G02*
X54683102Y45590124I-156992J474710D01*
G01*
X54776594Y45791976D02*
G75*
G02*
X54683099Y45590127I-489400J104109D01*
G01*
X55065540Y47389371D02*
G75*
G02*
X55887803Y47877662I485761J118473D01*
G01*
X55065540Y47389371D02*
G75*
G02*
X55068841Y47166946I-486065J-118451D01*
G01*
%TO.C,LED25*%
X-27758237Y45967843D02*
X-27758237Y44562159D01*
X-28663784Y43765001D02*
X-30252688Y43765001D01*
X-30252688Y46765000D02*
X-28663783Y46765000D01*
X-31158235Y44562159D02*
X-31158235Y45967843D01*
X-27708752Y44345281D02*
G75*
G02*
X-27758237Y44562159I450505J216876D01*
G01*
X-27708752Y44345282D02*
G75*
G02*
X-28411525Y43696702I-450514J-216880D01*
G01*
X-27758237Y45967844D02*
G75*
G02*
X-27708752Y46184721I499990J1D01*
G01*
X-28411525Y46833299D02*
G75*
G02*
X-27708752Y46184721I252258J-431701D01*
G01*
X-28411525Y46833299D02*
G75*
G02*
X-28663783Y46765000I-252261J431710D01*
G01*
X-28663784Y43765001D02*
G75*
G02*
X-28411525Y43696702I-2J-500009D01*
G01*
X-30252689Y46765001D02*
G75*
G02*
X-30504947Y46833300I3J500009D01*
G01*
X-30504946Y43696702D02*
G75*
G02*
X-30252688Y43765000I252260J-431712D01*
G01*
X-30504947Y43696704D02*
G75*
G02*
X-31207716Y44345279I-252259J431696D01*
G01*
X-31158235Y44562158D02*
G75*
G02*
X-31207720Y44345281I-500351J82D01*
G01*
X-31207720Y46184721D02*
G75*
G02*
X-30504947Y46833300I450514J216879D01*
G01*
X-31207720Y46184721D02*
G75*
G02*
X-31158246Y45967843I-450816J-216921D01*
G01*
%TO.C,LED55*%
X117217430Y47992159D02*
X118469904Y48630326D01*
X119591286Y48185380D02*
X120312634Y46769656D01*
X117639615Y45407685D02*
X116918267Y46823410D01*
X120013470Y45600906D02*
X118760997Y44962739D01*
X118640678Y48772878D02*
G75*
G02*
X118469904Y48630326I-397763J302944D01*
G01*
X118640677Y48772878D02*
G75*
G02*
X119537617Y48441152I397770J-302949D01*
G01*
X117217429Y47992159D02*
G75*
G02*
X117001724Y47937790I-226989J445485D01*
G01*
X116742890Y47017166D02*
G75*
G02*
X117001724Y47937790I270124J420752D01*
G01*
X116742890Y47017166D02*
G75*
G02*
X116918267Y46823410I-270127J-420753D01*
G01*
X119591286Y48185380D02*
G75*
G02*
X119537618Y48441152I445512J226998D01*
G01*
X117639614Y45407684D02*
G75*
G02*
X117693282Y45151913I-445512J-226997D01*
G01*
X120488011Y46575900D02*
G75*
G02*
X120312632Y46769655I270148J420776D01*
G01*
X120488010Y46575898D02*
G75*
G02*
X120229176Y45655279I-270121J-420750D01*
G01*
X120013471Y45600906D02*
G75*
G02*
X120229176Y45655277I227114J-445960D01*
G01*
X118590223Y44820187D02*
G75*
G02*
X117693282Y45151913I-397770J302950D01*
G01*
X118590223Y44820187D02*
G75*
G02*
X118761002Y44962729I397944J-303200D01*
G01*
%TO.C,LED20*%
X-14558235Y63562157D02*
X-14558235Y64967841D01*
X-13652688Y65764999D02*
X-12063784Y65764999D01*
X-12063784Y62765000D02*
X-13652689Y62765000D01*
X-11158237Y64967841D02*
X-11158237Y63562157D01*
X-14607720Y65184719D02*
G75*
G02*
X-14558235Y64967841I-450505J-216876D01*
G01*
X-14607720Y65184718D02*
G75*
G02*
X-13904947Y65833298I450514J216880D01*
G01*
X-14558235Y63562156D02*
G75*
G02*
X-14607720Y63345279I-499990J-1D01*
G01*
X-13904947Y62696701D02*
G75*
G02*
X-14607720Y63345279I-252258J431701D01*
G01*
X-13904947Y62696701D02*
G75*
G02*
X-13652689Y62765000I252261J-431710D01*
G01*
X-13652688Y65764999D02*
G75*
G02*
X-13904947Y65833298I2J500009D01*
G01*
X-12063783Y62764999D02*
G75*
G02*
X-11811525Y62696700I-3J-500009D01*
G01*
X-11811526Y65833298D02*
G75*
G02*
X-12063784Y65765000I-252260J431712D01*
G01*
X-11811525Y65833296D02*
G75*
G02*
X-11108756Y65184721I252259J-431696D01*
G01*
X-11158237Y64967842D02*
G75*
G02*
X-11108752Y65184719I500351J-82D01*
G01*
X-11108752Y63345279D02*
G75*
G02*
X-11811525Y62696700I-450514J-216879D01*
G01*
X-11108752Y63345279D02*
G75*
G02*
X-11158226Y63562157I450816J216921D01*
G01*
%TO.C,LED33*%
X179191765Y128019962D02*
X179191765Y129425646D01*
X180097312Y130222804D02*
X181686216Y130222804D01*
X181686216Y127222805D02*
X180097311Y127222805D01*
X182591763Y129425646D02*
X182591763Y128019962D01*
X179142280Y129642524D02*
G75*
G02*
X179191765Y129425646I-450505J-216876D01*
G01*
X179142280Y129642523D02*
G75*
G02*
X179845053Y130291103I450514J216880D01*
G01*
X179191765Y128019961D02*
G75*
G02*
X179142280Y127803084I-499990J-1D01*
G01*
X179845053Y127154506D02*
G75*
G02*
X179142280Y127803084I-252258J431701D01*
G01*
X179845053Y127154506D02*
G75*
G02*
X180097311Y127222805I252261J-431710D01*
G01*
X180097312Y130222804D02*
G75*
G02*
X179845053Y130291103I2J500009D01*
G01*
X181686217Y127222804D02*
G75*
G02*
X181938475Y127154505I-3J-500009D01*
G01*
X181938474Y130291103D02*
G75*
G02*
X181686216Y130222805I-252260J431712D01*
G01*
X181938475Y130291101D02*
G75*
G02*
X182641244Y129642526I252259J-431696D01*
G01*
X182591763Y129425647D02*
G75*
G02*
X182641248Y129642524I500351J-82D01*
G01*
X182641248Y127803084D02*
G75*
G02*
X181938475Y127154505I-450514J-216879D01*
G01*
X182641248Y127803084D02*
G75*
G02*
X182591774Y128019962I450816J216921D01*
G01*
%TO.C,LED10*%
X23441765Y108762157D02*
X23441765Y110167841D01*
X24347312Y110964999D02*
X25936216Y110964999D01*
X25936216Y107965000D02*
X24347311Y107965000D01*
X26841763Y110167841D02*
X26841763Y108762157D01*
X23392280Y110384719D02*
G75*
G02*
X23441765Y110167841I-450505J-216876D01*
G01*
X23392280Y110384718D02*
G75*
G02*
X24095053Y111033298I450514J216880D01*
G01*
X23441765Y108762156D02*
G75*
G02*
X23392280Y108545279I-499990J-1D01*
G01*
X24095053Y107896701D02*
G75*
G02*
X23392280Y108545279I-252258J431701D01*
G01*
X24095053Y107896701D02*
G75*
G02*
X24347311Y107965000I252261J-431710D01*
G01*
X24347312Y110964999D02*
G75*
G02*
X24095053Y111033298I2J500009D01*
G01*
X25936217Y107964999D02*
G75*
G02*
X26188475Y107896700I-3J-500009D01*
G01*
X26188474Y111033298D02*
G75*
G02*
X25936216Y110965000I-252260J431712D01*
G01*
X26188475Y111033296D02*
G75*
G02*
X26891244Y110384721I252259J-431696D01*
G01*
X26841763Y110167842D02*
G75*
G02*
X26891248Y110384719I500351J-82D01*
G01*
X26891248Y108545279D02*
G75*
G02*
X26188475Y107896700I-450514J-216879D01*
G01*
X26891248Y108545279D02*
G75*
G02*
X26841774Y108762157I450816J216921D01*
G01*
%TO.C,LED18*%
X64871763Y86447843D02*
X64871763Y85042159D01*
X63966216Y84245001D02*
X62377312Y84245001D01*
X62377312Y87245000D02*
X63966217Y87245000D01*
X61471765Y85042159D02*
X61471765Y86447843D01*
X64921248Y84825281D02*
G75*
G02*
X64871763Y85042159I450505J216876D01*
G01*
X64921248Y84825282D02*
G75*
G02*
X64218475Y84176702I-450514J-216880D01*
G01*
X64871763Y86447844D02*
G75*
G02*
X64921248Y86664721I499990J1D01*
G01*
X64218475Y87313299D02*
G75*
G02*
X64921248Y86664721I252258J-431701D01*
G01*
X64218475Y87313299D02*
G75*
G02*
X63966217Y87245000I-252261J431710D01*
G01*
X63966216Y84245001D02*
G75*
G02*
X64218475Y84176702I-2J-500009D01*
G01*
X62377311Y87245001D02*
G75*
G02*
X62125053Y87313300I3J500009D01*
G01*
X62125054Y84176702D02*
G75*
G02*
X62377312Y84245000I252260J-431712D01*
G01*
X62125053Y84176704D02*
G75*
G02*
X61422284Y84825279I-252259J431696D01*
G01*
X61471765Y85042158D02*
G75*
G02*
X61422280Y84825281I-500351J82D01*
G01*
X61422280Y86664721D02*
G75*
G02*
X62125053Y87313300I450514J216879D01*
G01*
X61422280Y86664721D02*
G75*
G02*
X61471754Y86447843I-450816J-216921D01*
G01*
%TO.C,LED7*%
X-33558235Y101562157D02*
X-33558235Y102967841D01*
X-32652688Y103764999D02*
X-31063784Y103764999D01*
X-31063784Y100765000D02*
X-32652689Y100765000D01*
X-30158237Y102967841D02*
X-30158237Y101562157D01*
X-33607720Y103184719D02*
G75*
G02*
X-33558235Y102967841I-450505J-216876D01*
G01*
X-33607720Y103184718D02*
G75*
G02*
X-32904947Y103833298I450514J216880D01*
G01*
X-33558235Y101562156D02*
G75*
G02*
X-33607720Y101345279I-499990J-1D01*
G01*
X-32904947Y100696701D02*
G75*
G02*
X-33607720Y101345279I-252258J431701D01*
G01*
X-32904947Y100696701D02*
G75*
G02*
X-32652689Y100765000I252261J-431710D01*
G01*
X-32652688Y103764999D02*
G75*
G02*
X-32904947Y103833298I2J500009D01*
G01*
X-31063783Y100764999D02*
G75*
G02*
X-30811525Y100696700I-3J-500009D01*
G01*
X-30811526Y103833298D02*
G75*
G02*
X-31063784Y103765000I-252260J431712D01*
G01*
X-30811525Y103833296D02*
G75*
G02*
X-30108756Y103184721I252259J-431696D01*
G01*
X-30158237Y102967842D02*
G75*
G02*
X-30108752Y103184719I500351J-82D01*
G01*
X-30108752Y101345279D02*
G75*
G02*
X-30811525Y100696700I-450514J-216879D01*
G01*
X-30108752Y101345279D02*
G75*
G02*
X-30158226Y101562157I450816J216921D01*
G01*
%TO.C,LED16*%
X26871763Y91187843D02*
X26871763Y89782159D01*
X25966216Y88985001D02*
X24377312Y88985001D01*
X24377312Y91985000D02*
X25966217Y91985000D01*
X23471765Y89782159D02*
X23471765Y91187843D01*
X26921248Y89565281D02*
G75*
G02*
X26871763Y89782159I450505J216876D01*
G01*
X26921248Y89565282D02*
G75*
G02*
X26218475Y88916702I-450514J-216880D01*
G01*
X26871763Y91187844D02*
G75*
G02*
X26921248Y91404721I499990J1D01*
G01*
X26218475Y92053299D02*
G75*
G02*
X26921248Y91404721I252258J-431701D01*
G01*
X26218475Y92053299D02*
G75*
G02*
X25966217Y91985000I-252261J431710D01*
G01*
X25966216Y88985001D02*
G75*
G02*
X26218475Y88916702I-2J-500009D01*
G01*
X24377311Y91985001D02*
G75*
G02*
X24125053Y92053300I3J500009D01*
G01*
X24125054Y88916702D02*
G75*
G02*
X24377312Y88985000I252260J-431712D01*
G01*
X24125053Y88916704D02*
G75*
G02*
X23422284Y89565279I-252259J431696D01*
G01*
X23471765Y89782158D02*
G75*
G02*
X23422280Y89565281I-500351J82D01*
G01*
X23422280Y91404721D02*
G75*
G02*
X24125053Y92053300I450514J216879D01*
G01*
X23422280Y91404721D02*
G75*
G02*
X23471754Y91187843I-450816J-216921D01*
G01*
%TO.C,LED60*%
X233841765Y44819962D02*
X233841765Y46225646D01*
X234747312Y47022804D02*
X236336216Y47022804D01*
X236336216Y44022805D02*
X234747311Y44022805D01*
X237241763Y46225646D02*
X237241763Y44819962D01*
X233792280Y46442524D02*
G75*
G02*
X233841765Y46225646I-450505J-216876D01*
G01*
X233792280Y46442523D02*
G75*
G02*
X234495053Y47091103I450514J216880D01*
G01*
X233841765Y44819961D02*
G75*
G02*
X233792280Y44603084I-499990J-1D01*
G01*
X234495053Y43954506D02*
G75*
G02*
X233792280Y44603084I-252258J431701D01*
G01*
X234495053Y43954506D02*
G75*
G02*
X234747311Y44022805I252261J-431710D01*
G01*
X234747312Y47022804D02*
G75*
G02*
X234495053Y47091103I2J500009D01*
G01*
X236336217Y44022804D02*
G75*
G02*
X236588475Y43954505I-3J-500009D01*
G01*
X236588474Y47091103D02*
G75*
G02*
X236336216Y47022805I-252260J431712D01*
G01*
X236588475Y47091101D02*
G75*
G02*
X237291244Y46442526I252259J-431696D01*
G01*
X237241763Y46225647D02*
G75*
G02*
X237291248Y46442524I500351J-82D01*
G01*
X237291248Y44603084D02*
G75*
G02*
X236588475Y43954505I-450514J-216879D01*
G01*
X237291248Y44603084D02*
G75*
G02*
X237241774Y44819962I450816J216921D01*
G01*
%TO.C,LED1*%
X-30158237Y121967843D02*
X-30158237Y120562159D01*
X-31063784Y119765001D02*
X-32652688Y119765001D01*
X-32652688Y122765000D02*
X-31063783Y122765000D01*
X-33558235Y120562159D02*
X-33558235Y121967843D01*
X-30108752Y120345281D02*
G75*
G02*
X-30158237Y120562159I450505J216876D01*
G01*
X-30108752Y120345282D02*
G75*
G02*
X-30811525Y119696702I-450514J-216880D01*
G01*
X-30158237Y121967844D02*
G75*
G02*
X-30108752Y122184721I499990J1D01*
G01*
X-30811525Y122833299D02*
G75*
G02*
X-30108752Y122184721I252258J-431701D01*
G01*
X-30811525Y122833299D02*
G75*
G02*
X-31063783Y122765000I-252261J431710D01*
G01*
X-31063784Y119765001D02*
G75*
G02*
X-30811525Y119696702I-2J-500009D01*
G01*
X-32652689Y122765001D02*
G75*
G02*
X-32904947Y122833300I3J500009D01*
G01*
X-32904946Y119696702D02*
G75*
G02*
X-32652688Y119765000I252260J-431712D01*
G01*
X-32904947Y119696704D02*
G75*
G02*
X-33607716Y120345279I-252259J431696D01*
G01*
X-33558235Y120562158D02*
G75*
G02*
X-33607720Y120345281I-500351J82D01*
G01*
X-33607720Y122184721D02*
G75*
G02*
X-32904947Y122833300I450514J216879D01*
G01*
X-33607720Y122184721D02*
G75*
G02*
X-33558246Y121967843I-450816J-216921D01*
G01*
%TO.C,LED56*%
X147981235Y45342881D02*
X147688977Y46717848D01*
X148408997Y47685860D02*
X149963180Y48016211D01*
X150586915Y45081769D02*
X149032731Y44751418D01*
X151014677Y47424747D02*
X151306935Y46049780D01*
X147595482Y46919698D02*
G75*
G02*
X147688977Y46717848I-395569J-305802D01*
G01*
X147595482Y46919697D02*
G75*
G02*
X148148052Y47700220I395578J305808D01*
G01*
X147981236Y45342880D02*
G75*
G02*
X147977924Y45120454I-489064J-103955D01*
G01*
X148800186Y44632164D02*
G75*
G02*
X147977923Y45120454I-336501J369820D01*
G01*
X148800186Y44632164D02*
G75*
G02*
X149032731Y44751418I336506J-369828D01*
G01*
X148408997Y47685860D02*
G75*
G02*
X148148051Y47700219I-103955J489090D01*
G01*
X150586916Y45081769D02*
G75*
G02*
X150847862Y45067410I103955J-489084D01*
G01*
X150195725Y48135465D02*
G75*
G02*
X149963180Y48016212I-336505J369830D01*
G01*
X150195727Y48135463D02*
G75*
G02*
X151017984Y47647175I336501J-369814D01*
G01*
X151014677Y47424748D02*
G75*
G02*
X151017990Y47647174I489434J103948D01*
G01*
X151400430Y45847930D02*
G75*
G02*
X150847862Y45067410I-395577J-305807D01*
G01*
X151400430Y45847930D02*
G75*
G02*
X151306946Y46049782I395865J305911D01*
G01*
%TO.C,LED40*%
X201591763Y107975648D02*
X201591763Y106569964D01*
X200686216Y105772806D02*
X199097312Y105772806D01*
X199097312Y108772805D02*
X200686217Y108772805D01*
X198191765Y106569964D02*
X198191765Y107975648D01*
X201641248Y106353086D02*
G75*
G02*
X201591763Y106569964I450505J216876D01*
G01*
X201641248Y106353087D02*
G75*
G02*
X200938475Y105704507I-450514J-216880D01*
G01*
X201591763Y107975649D02*
G75*
G02*
X201641248Y108192526I499990J1D01*
G01*
X200938475Y108841104D02*
G75*
G02*
X201641248Y108192526I252258J-431701D01*
G01*
X200938475Y108841104D02*
G75*
G02*
X200686217Y108772805I-252261J431710D01*
G01*
X200686216Y105772806D02*
G75*
G02*
X200938475Y105704507I-2J-500009D01*
G01*
X199097311Y108772806D02*
G75*
G02*
X198845053Y108841105I3J500009D01*
G01*
X198845054Y105704507D02*
G75*
G02*
X199097312Y105772805I252260J-431712D01*
G01*
X198845053Y105704509D02*
G75*
G02*
X198142284Y106353084I-252259J431696D01*
G01*
X198191765Y106569963D02*
G75*
G02*
X198142280Y106353086I-500351J82D01*
G01*
X198142280Y108192526D02*
G75*
G02*
X198845053Y108841105I450514J216879D01*
G01*
X198142280Y108192526D02*
G75*
G02*
X198191754Y107975648I-450816J-216921D01*
G01*
%TO.C,LED52*%
X201591763Y69975648D02*
X201591763Y68569964D01*
X200686216Y67772806D02*
X199097312Y67772806D01*
X199097312Y70772805D02*
X200686217Y70772805D01*
X198191765Y68569964D02*
X198191765Y69975648D01*
X201641248Y68353086D02*
G75*
G02*
X201591763Y68569964I450505J216876D01*
G01*
X201641248Y68353087D02*
G75*
G02*
X200938475Y67704507I-450514J-216880D01*
G01*
X201591763Y69975649D02*
G75*
G02*
X201641248Y70192526I499990J1D01*
G01*
X200938475Y70841104D02*
G75*
G02*
X201641248Y70192526I252258J-431701D01*
G01*
X200938475Y70841104D02*
G75*
G02*
X200686217Y70772805I-252261J431710D01*
G01*
X200686216Y67772806D02*
G75*
G02*
X200938475Y67704507I-2J-500009D01*
G01*
X199097311Y70772806D02*
G75*
G02*
X198845053Y70841105I3J500009D01*
G01*
X198845054Y67704507D02*
G75*
G02*
X199097312Y67772805I252260J-431712D01*
G01*
X198845053Y67704509D02*
G75*
G02*
X198142284Y68353084I-252259J431696D01*
G01*
X198191765Y68569963D02*
G75*
G02*
X198142280Y68353086I-500351J82D01*
G01*
X198142280Y70192526D02*
G75*
G02*
X198845053Y70841105I450514J216879D01*
G01*
X198142280Y70192526D02*
G75*
G02*
X198191754Y69975648I-450816J-216921D01*
G01*
%TO.C,LED8*%
X-14508235Y101562157D02*
X-14508235Y102967841D01*
X-13602688Y103764999D02*
X-12013784Y103764999D01*
X-12013784Y100765000D02*
X-13602689Y100765000D01*
X-11108237Y102967841D02*
X-11108237Y101562157D01*
X-14557720Y103184719D02*
G75*
G02*
X-14508235Y102967841I-450505J-216876D01*
G01*
X-14557720Y103184718D02*
G75*
G02*
X-13854947Y103833298I450514J216880D01*
G01*
X-14508235Y101562156D02*
G75*
G02*
X-14557720Y101345279I-499990J-1D01*
G01*
X-13854947Y100696701D02*
G75*
G02*
X-14557720Y101345279I-252258J431701D01*
G01*
X-13854947Y100696701D02*
G75*
G02*
X-13602689Y100765000I252261J-431710D01*
G01*
X-13602688Y103764999D02*
G75*
G02*
X-13854947Y103833298I2J500009D01*
G01*
X-12013783Y100764999D02*
G75*
G02*
X-11761525Y100696700I-3J-500009D01*
G01*
X-11761526Y103833298D02*
G75*
G02*
X-12013784Y103765000I-252260J431712D01*
G01*
X-11761525Y103833296D02*
G75*
G02*
X-11058756Y103184721I252259J-431696D01*
G01*
X-11108237Y102967842D02*
G75*
G02*
X-11058752Y103184719I500351J-82D01*
G01*
X-11058752Y101345279D02*
G75*
G02*
X-11761525Y100696700I-450514J-216879D01*
G01*
X-11058752Y101345279D02*
G75*
G02*
X-11108226Y101562157I450816J216921D01*
G01*
%TO.C,LED28*%
X38710351Y49434871D02*
X38636783Y48031113D01*
X37690757Y47282440D02*
X36104031Y47365597D01*
X36261039Y50361485D02*
X37847766Y50278328D01*
X35241445Y48209055D02*
X35315013Y49612813D01*
X38674850Y47811943D02*
G75*
G02*
X38636783Y48031113I461238J193001D01*
G01*
X38674850Y47811944D02*
G75*
G02*
X37939097Y47201034I-461246J-193005D01*
G01*
X38710351Y49434872D02*
G75*
G02*
X38771119Y49648862I499296J-26164D01*
G01*
X38103253Y50333331D02*
G75*
G02*
X38771119Y49648862I229319J-444311D01*
G01*
X38103253Y50333331D02*
G75*
G02*
X37847766Y50278328I-229321J444321D01*
G01*
X37690757Y47282440D02*
G75*
G02*
X37939096Y47201032I-26170J-499323D01*
G01*
X36261038Y50361486D02*
G75*
G02*
X36012700Y50442893I26171J499323D01*
G01*
X35848544Y47310594D02*
G75*
G02*
X36104031Y47365596I229320J-444323D01*
G01*
X35848543Y47310596D02*
G75*
G02*
X35180680Y47995062I-229320J444307D01*
G01*
X35241445Y48209054D02*
G75*
G02*
X35180677Y47995064I-499701J26281D01*
G01*
X35276946Y49831983D02*
G75*
G02*
X36012700Y50442893I461247J193004D01*
G01*
X35276946Y49831983D02*
G75*
G02*
X35315001Y49612814I-461551J-193029D01*
G01*
%TO.C,LED12*%
X61471765Y104012157D02*
X61471765Y105417841D01*
X62377312Y106214999D02*
X63966216Y106214999D01*
X63966216Y103215000D02*
X62377311Y103215000D01*
X64871763Y105417841D02*
X64871763Y104012157D01*
X61422280Y105634719D02*
G75*
G02*
X61471765Y105417841I-450505J-216876D01*
G01*
X61422280Y105634718D02*
G75*
G02*
X62125053Y106283298I450514J216880D01*
G01*
X61471765Y104012156D02*
G75*
G02*
X61422280Y103795279I-499990J-1D01*
G01*
X62125053Y103146701D02*
G75*
G02*
X61422280Y103795279I-252258J431701D01*
G01*
X62125053Y103146701D02*
G75*
G02*
X62377311Y103215000I252261J-431710D01*
G01*
X62377312Y106214999D02*
G75*
G02*
X62125053Y106283298I2J500009D01*
G01*
X63966217Y103214999D02*
G75*
G02*
X64218475Y103146700I-3J-500009D01*
G01*
X64218474Y106283298D02*
G75*
G02*
X63966216Y106215000I-252260J431712D01*
G01*
X64218475Y106283296D02*
G75*
G02*
X64921244Y105634721I252259J-431696D01*
G01*
X64871763Y105417842D02*
G75*
G02*
X64921248Y105634719I500351J-82D01*
G01*
X64921248Y103795279D02*
G75*
G02*
X64218475Y103146700I-450514J-216879D01*
G01*
X64921248Y103795279D02*
G75*
G02*
X64871774Y104012157I450816J216921D01*
G01*
%TO.C,LED58*%
X187194226Y48340132D02*
X187316740Y49740467D01*
X188288318Y50455668D02*
X189871175Y50317186D01*
X189609708Y47328603D02*
X188026850Y47467085D01*
X190703800Y49444138D02*
X190581286Y48043803D01*
X187286345Y49960833D02*
G75*
G02*
X187316740Y49740467I-467693J-176787D01*
G01*
X187286345Y49960832D02*
G75*
G02*
X188042971Y50545694I467702J176790D01*
G01*
X187194226Y48340131D02*
G75*
G02*
X187126027Y48128392I-498079J43573D01*
G01*
X187769599Y47421032D02*
G75*
G02*
X187126027Y48128392I-213673J452044D01*
G01*
X187769599Y47421032D02*
G75*
G02*
X188026850Y47467085I213675J-452053D01*
G01*
X188288318Y50455668D02*
G75*
G02*
X188042971Y50545693I43580J498106D01*
G01*
X189609709Y47328602D02*
G75*
G02*
X189855055Y47238577I-43581J-498106D01*
G01*
X190128426Y50363239D02*
G75*
G02*
X189871175Y50317186I-213674J452055D01*
G01*
X190128427Y50363237D02*
G75*
G02*
X190771995Y49655880I213674J-452039D01*
G01*
X190703800Y49444139D02*
G75*
G02*
X190771999Y49655878I498440J-43690D01*
G01*
X190611681Y47823437D02*
G75*
G02*
X189855055Y47238577I-467702J-176789D01*
G01*
X190611681Y47823437D02*
G75*
G02*
X190581297Y48043802I468006J176805D01*
G01*
%TO.C,LED21*%
X4491765Y68262157D02*
X4491765Y69667841D01*
X5397312Y70464999D02*
X6986216Y70464999D01*
X6986216Y67465000D02*
X5397311Y67465000D01*
X7891763Y69667841D02*
X7891763Y68262157D01*
X4442280Y69884719D02*
G75*
G02*
X4491765Y69667841I-450505J-216876D01*
G01*
X4442280Y69884718D02*
G75*
G02*
X5145053Y70533298I450514J216880D01*
G01*
X4491765Y68262156D02*
G75*
G02*
X4442280Y68045279I-499990J-1D01*
G01*
X5145053Y67396701D02*
G75*
G02*
X4442280Y68045279I-252258J431701D01*
G01*
X5145053Y67396701D02*
G75*
G02*
X5397311Y67465000I252261J-431710D01*
G01*
X5397312Y70464999D02*
G75*
G02*
X5145053Y70533298I2J500009D01*
G01*
X6986217Y67464999D02*
G75*
G02*
X7238475Y67396700I-3J-500009D01*
G01*
X7238474Y70533298D02*
G75*
G02*
X6986216Y70465000I-252260J431712D01*
G01*
X7238475Y70533296D02*
G75*
G02*
X7941244Y69884721I252259J-431696D01*
G01*
X7891763Y69667842D02*
G75*
G02*
X7941248Y69884719I500351J-82D01*
G01*
X7941248Y68045279D02*
G75*
G02*
X7238475Y67396700I-450514J-216879D01*
G01*
X7941248Y68045279D02*
G75*
G02*
X7891774Y68262157I450816J216921D01*
G01*
%TO.C,LED24*%
X61441765Y66012157D02*
X61441765Y67417841D01*
X62347312Y68214999D02*
X63936216Y68214999D01*
X63936216Y65215000D02*
X62347311Y65215000D01*
X64841763Y67417841D02*
X64841763Y66012157D01*
X61392280Y67634719D02*
G75*
G02*
X61441765Y67417841I-450505J-216876D01*
G01*
X61392280Y67634718D02*
G75*
G02*
X62095053Y68283298I450514J216880D01*
G01*
X61441765Y66012156D02*
G75*
G02*
X61392280Y65795279I-499990J-1D01*
G01*
X62095053Y65146701D02*
G75*
G02*
X61392280Y65795279I-252258J431701D01*
G01*
X62095053Y65146701D02*
G75*
G02*
X62347311Y65215000I252261J-431710D01*
G01*
X62347312Y68214999D02*
G75*
G02*
X62095053Y68283298I2J500009D01*
G01*
X63936217Y65214999D02*
G75*
G02*
X64188475Y65146700I-3J-500009D01*
G01*
X64188474Y68283298D02*
G75*
G02*
X63936216Y68215000I-252260J431712D01*
G01*
X64188475Y68283296D02*
G75*
G02*
X64891244Y67634721I252259J-431696D01*
G01*
X64841763Y67417842D02*
G75*
G02*
X64891248Y67634719I500351J-82D01*
G01*
X64891248Y65795279D02*
G75*
G02*
X64188475Y65146700I-450514J-216879D01*
G01*
X64891248Y65795279D02*
G75*
G02*
X64841774Y66012157I450816J216921D01*
G01*
%TO.C,LED59*%
X206563653Y44712562D02*
X206951112Y46063792D01*
X208041306Y46580467D02*
X209568659Y46142506D01*
X208741747Y43258722D02*
X207214394Y43696683D01*
X210219400Y45126626D02*
X209831941Y43775396D01*
X206963324Y46285909D02*
G75*
G02*
X206951112Y46063792I-492832J-84299D01*
G01*
X206963324Y46285908D02*
G75*
G02*
X207817646Y46715653I492842J84300D01*
G01*
X206563653Y44712561D02*
G75*
G02*
X206456306Y44517726I-480621J137815D01*
G01*
X206953082Y43700562D02*
G75*
G02*
X206456306Y44517726I-123493J484509D01*
G01*
X206953082Y43700562D02*
G75*
G02*
X207214394Y43696683I123493J-484519D01*
G01*
X208041306Y46580467D02*
G75*
G02*
X207817645Y46715652I137827J480645D01*
G01*
X208741748Y43258721D02*
G75*
G02*
X208965408Y43123536I-137824J-480639D01*
G01*
X209829971Y46138627D02*
G75*
G02*
X209568659Y46142506I-123492J484521D01*
G01*
X209829971Y46138625D02*
G75*
G02*
X210326746Y45321465I123496J-484505D01*
G01*
X210219400Y45126627D02*
G75*
G02*
X210326746Y45321464I481046J-138044D01*
G01*
X209819729Y43553279D02*
G75*
G02*
X208965409Y43123537I-492841J-84299D01*
G01*
X209819729Y43553279D02*
G75*
G02*
X209831952Y43775393I493144J84256D01*
G01*
%TO.C,LED36*%
X236191765Y120819962D02*
X236191765Y122225646D01*
X237097312Y123022804D02*
X238686216Y123022804D01*
X238686216Y120022805D02*
X237097311Y120022805D01*
X239591763Y122225646D02*
X239591763Y120819962D01*
X236142280Y122442524D02*
G75*
G02*
X236191765Y122225646I-450505J-216876D01*
G01*
X236142280Y122442523D02*
G75*
G02*
X236845053Y123091103I450514J216880D01*
G01*
X236191765Y120819961D02*
G75*
G02*
X236142280Y120603084I-499990J-1D01*
G01*
X236845053Y119954506D02*
G75*
G02*
X236142280Y120603084I-252258J431701D01*
G01*
X236845053Y119954506D02*
G75*
G02*
X237097311Y120022805I252261J-431710D01*
G01*
X237097312Y123022804D02*
G75*
G02*
X236845053Y123091103I2J500009D01*
G01*
X238686217Y120022804D02*
G75*
G02*
X238938475Y119954505I-3J-500009D01*
G01*
X238938474Y123091103D02*
G75*
G02*
X238686216Y123022805I-252260J431712D01*
G01*
X238938475Y123091101D02*
G75*
G02*
X239641244Y122442526I252259J-431696D01*
G01*
X239591763Y122225647D02*
G75*
G02*
X239641248Y122442524I500351J-82D01*
G01*
X239641248Y120603084D02*
G75*
G02*
X238938475Y119954505I-450514J-216879D01*
G01*
X239641248Y120603084D02*
G75*
G02*
X239591774Y120819962I450816J216921D01*
G01*
%TO.C,LED53*%
X220591763Y65225648D02*
X220591763Y63819964D01*
X219686216Y63022806D02*
X218097312Y63022806D01*
X218097312Y66022805D02*
X219686217Y66022805D01*
X217191765Y63819964D02*
X217191765Y65225648D01*
X220641248Y63603086D02*
G75*
G02*
X220591763Y63819964I450505J216876D01*
G01*
X220641248Y63603087D02*
G75*
G02*
X219938475Y62954507I-450514J-216880D01*
G01*
X220591763Y65225649D02*
G75*
G02*
X220641248Y65442526I499990J1D01*
G01*
X219938475Y66091104D02*
G75*
G02*
X220641248Y65442526I252258J-431701D01*
G01*
X219938475Y66091104D02*
G75*
G02*
X219686217Y66022805I-252261J431710D01*
G01*
X219686216Y63022806D02*
G75*
G02*
X219938475Y62954507I-2J-500009D01*
G01*
X218097311Y66022806D02*
G75*
G02*
X217845053Y66091105I3J500009D01*
G01*
X217845054Y62954507D02*
G75*
G02*
X218097312Y63022805I252260J-431712D01*
G01*
X217845053Y62954509D02*
G75*
G02*
X217142284Y63603084I-252259J431696D01*
G01*
X217191765Y63819963D02*
G75*
G02*
X217142280Y63603086I-500351J82D01*
G01*
X217142280Y65442526D02*
G75*
G02*
X217845053Y66091105I450514J216879D01*
G01*
X217142280Y65442526D02*
G75*
G02*
X217191754Y65225648I-450816J-216921D01*
G01*
%TO.C,LED13*%
X-30128237Y83947843D02*
X-30128237Y82542159D01*
X-31033784Y81745001D02*
X-32622688Y81745001D01*
X-32622688Y84745000D02*
X-31033783Y84745000D01*
X-33528235Y82542159D02*
X-33528235Y83947843D01*
X-30078752Y82325281D02*
G75*
G02*
X-30128237Y82542159I450505J216876D01*
G01*
X-30078752Y82325282D02*
G75*
G02*
X-30781525Y81676702I-450514J-216880D01*
G01*
X-30128237Y83947844D02*
G75*
G02*
X-30078752Y84164721I499990J1D01*
G01*
X-30781525Y84813299D02*
G75*
G02*
X-30078752Y84164721I252258J-431701D01*
G01*
X-30781525Y84813299D02*
G75*
G02*
X-31033783Y84745000I-252261J431710D01*
G01*
X-31033784Y81745001D02*
G75*
G02*
X-30781525Y81676702I-2J-500009D01*
G01*
X-32622689Y84745001D02*
G75*
G02*
X-32874947Y84813300I3J500009D01*
G01*
X-32874946Y81676702D02*
G75*
G02*
X-32622688Y81745000I252260J-431712D01*
G01*
X-32874947Y81676704D02*
G75*
G02*
X-33577716Y82325279I-252259J431696D01*
G01*
X-33528235Y82542158D02*
G75*
G02*
X-33577720Y82325281I-500351J82D01*
G01*
X-33577720Y84164721D02*
G75*
G02*
X-32874947Y84813300I450514J216879D01*
G01*
X-33577720Y84164721D02*
G75*
G02*
X-33528246Y83947843I-450816J-216921D01*
G01*
%TO.C,LED43*%
X141191765Y85319962D02*
X141191765Y86725646D01*
X142097312Y87522804D02*
X143686216Y87522804D01*
X143686216Y84522805D02*
X142097311Y84522805D01*
X144591763Y86725646D02*
X144591763Y85319962D01*
X141142280Y86942524D02*
G75*
G02*
X141191765Y86725646I-450505J-216876D01*
G01*
X141142280Y86942523D02*
G75*
G02*
X141845053Y87591103I450514J216880D01*
G01*
X141191765Y85319961D02*
G75*
G02*
X141142280Y85103084I-499990J-1D01*
G01*
X141845053Y84454506D02*
G75*
G02*
X141142280Y85103084I-252258J431701D01*
G01*
X141845053Y84454506D02*
G75*
G02*
X142097311Y84522805I252261J-431710D01*
G01*
X142097312Y87522804D02*
G75*
G02*
X141845053Y87591103I2J500009D01*
G01*
X143686217Y84522804D02*
G75*
G02*
X143938475Y84454505I-3J-500009D01*
G01*
X143938474Y87591103D02*
G75*
G02*
X143686216Y87522805I-252260J431712D01*
G01*
X143938475Y87591101D02*
G75*
G02*
X144641244Y86942526I252259J-431696D01*
G01*
X144591763Y86725647D02*
G75*
G02*
X144641248Y86942524I500351J-82D01*
G01*
X144641248Y85103084D02*
G75*
G02*
X143938475Y84454505I-450514J-216879D01*
G01*
X144641248Y85103084D02*
G75*
G02*
X144591774Y85319962I450816J216921D01*
G01*
%TO.C,LED46*%
X198191765Y87569962D02*
X198191765Y88975646D01*
X199097312Y89772804D02*
X200686216Y89772804D01*
X200686216Y86772805D02*
X199097311Y86772805D01*
X201591763Y88975646D02*
X201591763Y87569962D01*
X198142280Y89192524D02*
G75*
G02*
X198191765Y88975646I-450505J-216876D01*
G01*
X198142280Y89192523D02*
G75*
G02*
X198845053Y89841103I450514J216880D01*
G01*
X198191765Y87569961D02*
G75*
G02*
X198142280Y87353084I-499990J-1D01*
G01*
X198845053Y86704506D02*
G75*
G02*
X198142280Y87353084I-252258J431701D01*
G01*
X198845053Y86704506D02*
G75*
G02*
X199097311Y86772805I252261J-431710D01*
G01*
X199097312Y89772804D02*
G75*
G02*
X198845053Y89841103I2J500009D01*
G01*
X200686217Y86772804D02*
G75*
G02*
X200938475Y86704505I-3J-500009D01*
G01*
X200938474Y89841103D02*
G75*
G02*
X200686216Y89772805I-252260J431712D01*
G01*
X200938475Y89841101D02*
G75*
G02*
X201641244Y89192526I252259J-431696D01*
G01*
X201591763Y88975647D02*
G75*
G02*
X201641248Y89192524I500351J-82D01*
G01*
X201641248Y87353084D02*
G75*
G02*
X200938475Y86704505I-450514J-216879D01*
G01*
X201641248Y87353084D02*
G75*
G02*
X201591774Y87569962I450816J216921D01*
G01*
%TO.C,LED4*%
X26841763Y129167843D02*
X26841763Y127762159D01*
X25936216Y126965001D02*
X24347312Y126965001D01*
X24347312Y129965000D02*
X25936217Y129965000D01*
X23441765Y127762159D02*
X23441765Y129167843D01*
X26891248Y127545281D02*
G75*
G02*
X26841763Y127762159I450505J216876D01*
G01*
X26891248Y127545282D02*
G75*
G02*
X26188475Y126896702I-450514J-216880D01*
G01*
X26841763Y129167844D02*
G75*
G02*
X26891248Y129384721I499990J1D01*
G01*
X26188475Y130033299D02*
G75*
G02*
X26891248Y129384721I252258J-431701D01*
G01*
X26188475Y130033299D02*
G75*
G02*
X25936217Y129965000I-252261J431710D01*
G01*
X25936216Y126965001D02*
G75*
G02*
X26188475Y126896702I-2J-500009D01*
G01*
X24347311Y129965001D02*
G75*
G02*
X24095053Y130033300I3J500009D01*
G01*
X24095054Y126896702D02*
G75*
G02*
X24347312Y126965000I252260J-431712D01*
G01*
X24095053Y126896704D02*
G75*
G02*
X23392284Y127545279I-252259J431696D01*
G01*
X23441765Y127762158D02*
G75*
G02*
X23392280Y127545281I-500351J82D01*
G01*
X23392280Y129384721D02*
G75*
G02*
X24095053Y130033300I450514J216879D01*
G01*
X23392280Y129384721D02*
G75*
G02*
X23441754Y129167843I-450816J-216921D01*
G01*
%TO.C,LED22*%
X23441765Y70812157D02*
X23441765Y72217841D01*
X24347312Y73014999D02*
X25936216Y73014999D01*
X25936216Y70015000D02*
X24347311Y70015000D01*
X26841763Y72217841D02*
X26841763Y70812157D01*
X23392280Y72434719D02*
G75*
G02*
X23441765Y72217841I-450505J-216876D01*
G01*
X23392280Y72434718D02*
G75*
G02*
X24095053Y73083298I450514J216880D01*
G01*
X23441765Y70812156D02*
G75*
G02*
X23392280Y70595279I-499990J-1D01*
G01*
X24095053Y69946701D02*
G75*
G02*
X23392280Y70595279I-252258J431701D01*
G01*
X24095053Y69946701D02*
G75*
G02*
X24347311Y70015000I252261J-431710D01*
G01*
X24347312Y73014999D02*
G75*
G02*
X24095053Y73083298I2J500009D01*
G01*
X25936217Y70014999D02*
G75*
G02*
X26188475Y69946700I-3J-500009D01*
G01*
X26188474Y73083298D02*
G75*
G02*
X25936216Y73015000I-252260J431712D01*
G01*
X26188475Y73083296D02*
G75*
G02*
X26891244Y72434721I252259J-431696D01*
G01*
X26841763Y72217842D02*
G75*
G02*
X26891248Y72434719I500351J-82D01*
G01*
X26891248Y70595279D02*
G75*
G02*
X26188475Y69946700I-450514J-216879D01*
G01*
X26891248Y70595279D02*
G75*
G02*
X26841774Y70812157I450816J216921D01*
G01*
%TO.C,LED3*%
X7841763Y126717843D02*
X7841763Y125312159D01*
X6936216Y124515001D02*
X5347312Y124515001D01*
X5347312Y127515000D02*
X6936217Y127515000D01*
X4441765Y125312159D02*
X4441765Y126717843D01*
X7891248Y125095281D02*
G75*
G02*
X7841763Y125312159I450505J216876D01*
G01*
X7891248Y125095282D02*
G75*
G02*
X7188475Y124446702I-450514J-216880D01*
G01*
X7841763Y126717844D02*
G75*
G02*
X7891248Y126934721I499990J1D01*
G01*
X7188475Y127583299D02*
G75*
G02*
X7891248Y126934721I252258J-431701D01*
G01*
X7188475Y127583299D02*
G75*
G02*
X6936217Y127515000I-252261J431710D01*
G01*
X6936216Y124515001D02*
G75*
G02*
X7188475Y124446702I-2J-500009D01*
G01*
X5347311Y127515001D02*
G75*
G02*
X5095053Y127583300I3J500009D01*
G01*
X5095054Y124446702D02*
G75*
G02*
X5347312Y124515000I252260J-431712D01*
G01*
X5095053Y124446704D02*
G75*
G02*
X4392284Y125095279I-252259J431696D01*
G01*
X4441765Y125312158D02*
G75*
G02*
X4392280Y125095281I-500351J82D01*
G01*
X4392280Y126934721D02*
G75*
G02*
X5095053Y127583300I450514J216879D01*
G01*
X4392280Y126934721D02*
G75*
G02*
X4441754Y126717843I-450816J-216921D01*
G01*
%TO.C,LED38*%
X163591763Y107975648D02*
X163591763Y106569964D01*
X162686216Y105772806D02*
X161097312Y105772806D01*
X161097312Y108772805D02*
X162686217Y108772805D01*
X160191765Y106569964D02*
X160191765Y107975648D01*
X163641248Y106353086D02*
G75*
G02*
X163591763Y106569964I450505J216876D01*
G01*
X163641248Y106353087D02*
G75*
G02*
X162938475Y105704507I-450514J-216880D01*
G01*
X163591763Y107975649D02*
G75*
G02*
X163641248Y108192526I499990J1D01*
G01*
X162938475Y108841104D02*
G75*
G02*
X163641248Y108192526I252258J-431701D01*
G01*
X162938475Y108841104D02*
G75*
G02*
X162686217Y108772805I-252261J431710D01*
G01*
X162686216Y105772806D02*
G75*
G02*
X162938475Y105704507I-2J-500009D01*
G01*
X161097311Y108772806D02*
G75*
G02*
X160845053Y108841105I3J500009D01*
G01*
X160845054Y105704507D02*
G75*
G02*
X161097312Y105772805I252260J-431712D01*
G01*
X160845053Y105704509D02*
G75*
G02*
X160142284Y106353084I-252259J431696D01*
G01*
X160191765Y106569963D02*
G75*
G02*
X160142280Y106353086I-500351J82D01*
G01*
X160142280Y108192526D02*
G75*
G02*
X160845053Y108841105I450514J216879D01*
G01*
X160142280Y108192526D02*
G75*
G02*
X160191754Y107975648I-450816J-216921D01*
G01*
%TO.C,LED44*%
X160191765Y87569962D02*
X160191765Y88975646D01*
X161097312Y89772804D02*
X162686216Y89772804D01*
X162686216Y86772805D02*
X161097311Y86772805D01*
X163591763Y88975646D02*
X163591763Y87569962D01*
X160142280Y89192524D02*
G75*
G02*
X160191765Y88975646I-450505J-216876D01*
G01*
X160142280Y89192523D02*
G75*
G02*
X160845053Y89841103I450514J216880D01*
G01*
X160191765Y87569961D02*
G75*
G02*
X160142280Y87353084I-499990J-1D01*
G01*
X160845053Y86704506D02*
G75*
G02*
X160142280Y87353084I-252258J431701D01*
G01*
X160845053Y86704506D02*
G75*
G02*
X161097311Y86772805I252261J-431710D01*
G01*
X161097312Y89772804D02*
G75*
G02*
X160845053Y89841103I2J500009D01*
G01*
X162686217Y86772804D02*
G75*
G02*
X162938475Y86704505I-3J-500009D01*
G01*
X162938474Y89841103D02*
G75*
G02*
X162686216Y89772805I-252260J431712D01*
G01*
X162938475Y89841101D02*
G75*
G02*
X163641244Y89192526I252259J-431696D01*
G01*
X163591763Y88975647D02*
G75*
G02*
X163641248Y89192524I500351J-82D01*
G01*
X163641248Y87353084D02*
G75*
G02*
X162938475Y86704505I-450514J-216879D01*
G01*
X163641248Y87353084D02*
G75*
G02*
X163591774Y87569962I450816J216921D01*
G01*
%TO.C,LED37*%
X144591763Y105725648D02*
X144591763Y104319964D01*
X143686216Y103522806D02*
X142097312Y103522806D01*
X142097312Y106522805D02*
X143686217Y106522805D01*
X141191765Y104319964D02*
X141191765Y105725648D01*
X144641248Y104103086D02*
G75*
G02*
X144591763Y104319964I450505J216876D01*
G01*
X144641248Y104103087D02*
G75*
G02*
X143938475Y103454507I-450514J-216880D01*
G01*
X144591763Y105725649D02*
G75*
G02*
X144641248Y105942526I499990J1D01*
G01*
X143938475Y106591104D02*
G75*
G02*
X144641248Y105942526I252258J-431701D01*
G01*
X143938475Y106591104D02*
G75*
G02*
X143686217Y106522805I-252261J431710D01*
G01*
X143686216Y103522806D02*
G75*
G02*
X143938475Y103454507I-2J-500009D01*
G01*
X142097311Y106522806D02*
G75*
G02*
X141845053Y106591105I3J500009D01*
G01*
X141845054Y103454507D02*
G75*
G02*
X142097312Y103522805I252260J-431712D01*
G01*
X141845053Y103454509D02*
G75*
G02*
X141142284Y104103084I-252259J431696D01*
G01*
X141191765Y104319963D02*
G75*
G02*
X141142280Y104103086I-500351J82D01*
G01*
X141142280Y105942526D02*
G75*
G02*
X141845053Y106591105I450514J216879D01*
G01*
X141142280Y105942526D02*
G75*
G02*
X141191754Y105725648I-450816J-216921D01*
G01*
%TO.C,LED15*%
X7871763Y88757843D02*
X7871763Y87352159D01*
X6966216Y86555001D02*
X5377312Y86555001D01*
X5377312Y89555000D02*
X6966217Y89555000D01*
X4471765Y87352159D02*
X4471765Y88757843D01*
X7921248Y87135281D02*
G75*
G02*
X7871763Y87352159I450505J216876D01*
G01*
X7921248Y87135282D02*
G75*
G02*
X7218475Y86486702I-450514J-216880D01*
G01*
X7871763Y88757844D02*
G75*
G02*
X7921248Y88974721I499990J1D01*
G01*
X7218475Y89623299D02*
G75*
G02*
X7921248Y88974721I252258J-431701D01*
G01*
X7218475Y89623299D02*
G75*
G02*
X6966217Y89555000I-252261J431710D01*
G01*
X6966216Y86555001D02*
G75*
G02*
X7218475Y86486702I-2J-500009D01*
G01*
X5377311Y89555001D02*
G75*
G02*
X5125053Y89623300I3J500009D01*
G01*
X5125054Y86486702D02*
G75*
G02*
X5377312Y86555000I252260J-431712D01*
G01*
X5125053Y86486704D02*
G75*
G02*
X4422284Y87135279I-252259J431696D01*
G01*
X4471765Y87352158D02*
G75*
G02*
X4422280Y87135281I-500351J82D01*
G01*
X4422280Y88974721D02*
G75*
G02*
X5125053Y89623300I450514J216879D01*
G01*
X4422280Y88974721D02*
G75*
G02*
X4471754Y88757843I-450816J-216921D01*
G01*
%TO.C,LED41*%
X220591763Y103225648D02*
X220591763Y101819964D01*
X219686216Y101022806D02*
X218097312Y101022806D01*
X218097312Y104022805D02*
X219686217Y104022805D01*
X217191765Y101819964D02*
X217191765Y103225648D01*
X220641248Y101603086D02*
G75*
G02*
X220591763Y101819964I450505J216876D01*
G01*
X220641248Y101603087D02*
G75*
G02*
X219938475Y100954507I-450514J-216880D01*
G01*
X220591763Y103225649D02*
G75*
G02*
X220641248Y103442526I499990J1D01*
G01*
X219938475Y104091104D02*
G75*
G02*
X220641248Y103442526I252258J-431701D01*
G01*
X219938475Y104091104D02*
G75*
G02*
X219686217Y104022805I-252261J431710D01*
G01*
X219686216Y101022806D02*
G75*
G02*
X219938475Y100954507I-2J-500009D01*
G01*
X218097311Y104022806D02*
G75*
G02*
X217845053Y104091105I3J500009D01*
G01*
X217845054Y100954507D02*
G75*
G02*
X218097312Y101022805I252260J-431712D01*
G01*
X217845053Y100954509D02*
G75*
G02*
X217142284Y101603084I-252259J431696D01*
G01*
X217191765Y101819963D02*
G75*
G02*
X217142280Y101603086I-500351J82D01*
G01*
X217142280Y103442526D02*
G75*
G02*
X217845053Y104091105I450514J216879D01*
G01*
X217142280Y103442526D02*
G75*
G02*
X217191754Y103225648I-450816J-216921D01*
G01*
%TO.C,LED34*%
X198191765Y125569962D02*
X198191765Y126975646D01*
X199097312Y127772804D02*
X200686216Y127772804D01*
X200686216Y124772805D02*
X199097311Y124772805D01*
X201591763Y126975646D02*
X201591763Y125569962D01*
X198142280Y127192524D02*
G75*
G02*
X198191765Y126975646I-450505J-216876D01*
G01*
X198142280Y127192523D02*
G75*
G02*
X198845053Y127841103I450514J216880D01*
G01*
X198191765Y125569961D02*
G75*
G02*
X198142280Y125353084I-499990J-1D01*
G01*
X198845053Y124704506D02*
G75*
G02*
X198142280Y125353084I-252258J431701D01*
G01*
X198845053Y124704506D02*
G75*
G02*
X199097311Y124772805I252261J-431710D01*
G01*
X199097312Y127772804D02*
G75*
G02*
X198845053Y127841103I2J500009D01*
G01*
X200686217Y124772804D02*
G75*
G02*
X200938475Y124704505I-3J-500009D01*
G01*
X200938474Y127841103D02*
G75*
G02*
X200686216Y127772805I-252260J431712D01*
G01*
X200938475Y127841101D02*
G75*
G02*
X201641244Y127192526I252259J-431696D01*
G01*
X201591763Y126975647D02*
G75*
G02*
X201641248Y127192524I500351J-82D01*
G01*
X201641248Y125353084D02*
G75*
G02*
X200938475Y124704505I-450514J-216879D01*
G01*
X201641248Y125353084D02*
G75*
G02*
X201591774Y125569962I450816J216921D01*
G01*
%TO.C,LED30*%
X87563623Y48372522D02*
X88816096Y47734355D01*
X89115260Y46565605D02*
X88393912Y45149881D01*
X85720894Y46511852D02*
X86442241Y47927577D01*
X87272530Y44704935D02*
X86020056Y45343102D01*
X89031802Y47679986D02*
G75*
G02*
X88816096Y47734355I11287J499863D01*
G01*
X89031801Y47679986D02*
G75*
G02*
X89290637Y46759363I-11287J-499871D01*
G01*
X87563622Y48372523D02*
G75*
G02*
X87392849Y48515074I226990J445495D01*
G01*
X86495909Y48183347D02*
G75*
G02*
X87392848Y48515073I499170J28776D01*
G01*
X86495909Y48183347D02*
G75*
G02*
X86442241Y47927577I-499180J-28774D01*
G01*
X89115260Y46565605D02*
G75*
G02*
X89290638Y46759362I445510J-227001D01*
G01*
X85720892Y46511851D02*
G75*
G02*
X85545515Y46318095I-445510J227002D01*
G01*
X88340244Y44894110D02*
G75*
G02*
X88393913Y45149881I499182J28772D01*
G01*
X88340242Y44894110D02*
G75*
G02*
X87443307Y44562385I-499167J-28778D01*
G01*
X87272530Y44704934D02*
G75*
G02*
X87443303Y44562382I-227227J-445779D01*
G01*
X85804350Y45397471D02*
G75*
G02*
X85545515Y46318095I11289J499872D01*
G01*
X85804350Y45397471D02*
G75*
G02*
X86020051Y45343092I-11388J-500160D01*
G01*
%TO.C,LED42*%
X239591763Y103225648D02*
X239591763Y101819964D01*
X238686216Y101022806D02*
X237097312Y101022806D01*
X237097312Y104022805D02*
X238686217Y104022805D01*
X236191765Y101819964D02*
X236191765Y103225648D01*
X239641248Y101603086D02*
G75*
G02*
X239591763Y101819964I450505J216876D01*
G01*
X239641248Y101603087D02*
G75*
G02*
X238938475Y100954507I-450514J-216880D01*
G01*
X239591763Y103225649D02*
G75*
G02*
X239641248Y103442526I499990J1D01*
G01*
X238938475Y104091104D02*
G75*
G02*
X239641248Y103442526I252258J-431701D01*
G01*
X238938475Y104091104D02*
G75*
G02*
X238686217Y104022805I-252261J431710D01*
G01*
X238686216Y101022806D02*
G75*
G02*
X238938475Y100954507I-2J-500009D01*
G01*
X237097311Y104022806D02*
G75*
G02*
X236845053Y104091105I3J500009D01*
G01*
X236845054Y100954507D02*
G75*
G02*
X237097312Y101022805I252260J-431712D01*
G01*
X236845053Y100954509D02*
G75*
G02*
X236142284Y101603084I-252259J431696D01*
G01*
X236191765Y101819963D02*
G75*
G02*
X236142280Y101603086I-500351J82D01*
G01*
X236142280Y103442526D02*
G75*
G02*
X236845053Y104091105I450514J216879D01*
G01*
X236142280Y103442526D02*
G75*
G02*
X236191754Y103225648I-450816J-216921D01*
G01*
%TO.C,LED39*%
X182591763Y110425648D02*
X182591763Y109019964D01*
X181686216Y108222806D02*
X180097312Y108222806D01*
X180097312Y111222805D02*
X181686217Y111222805D01*
X179191765Y109019964D02*
X179191765Y110425648D01*
X182641248Y108803086D02*
G75*
G02*
X182591763Y109019964I450505J216876D01*
G01*
X182641248Y108803087D02*
G75*
G02*
X181938475Y108154507I-450514J-216880D01*
G01*
X182591763Y110425649D02*
G75*
G02*
X182641248Y110642526I499990J1D01*
G01*
X181938475Y111291104D02*
G75*
G02*
X182641248Y110642526I252258J-431701D01*
G01*
X181938475Y111291104D02*
G75*
G02*
X181686217Y111222805I-252261J431710D01*
G01*
X181686216Y108222806D02*
G75*
G02*
X181938475Y108154507I-2J-500009D01*
G01*
X180097311Y111222806D02*
G75*
G02*
X179845053Y111291105I3J500009D01*
G01*
X179845054Y108154507D02*
G75*
G02*
X180097312Y108222805I252260J-431712D01*
G01*
X179845053Y108154509D02*
G75*
G02*
X179142284Y108803084I-252259J431696D01*
G01*
X179191765Y109019963D02*
G75*
G02*
X179142280Y108803086I-500351J82D01*
G01*
X179142280Y110642526D02*
G75*
G02*
X179845053Y111291105I450514J216879D01*
G01*
X179142280Y110642526D02*
G75*
G02*
X179191754Y110425648I-450816J-216921D01*
G01*
%TO.C,LED26*%
X-917584Y45855989D02*
X-530125Y44504759D01*
X-1180866Y43488879D02*
X-2708219Y43050918D01*
X-3535130Y45934702D02*
X-2007777Y46372663D01*
X-3798413Y43567593D02*
X-4185872Y44918823D01*
X-422777Y44309922D02*
G75*
G02*
X-530125Y44504759I373274J332651D01*
G01*
X-422777Y44309923D02*
G75*
G02*
X-919553Y43492759I-373281J-332656D01*
G01*
X-917584Y45855990D02*
G75*
G02*
X-929796Y46078106I480612J137817D01*
G01*
X-1784117Y46507848D02*
G75*
G02*
X-929796Y46078106I361479J-345445D01*
G01*
X-1784117Y46507848D02*
G75*
G02*
X-2007777Y46372663I-361484J345454D01*
G01*
X-1180866Y43488879D02*
G75*
G02*
X-919553Y43492757I137819J-480640D01*
G01*
X-3535132Y45934703D02*
G75*
G02*
X-3796443Y45930825I-137818J480640D01*
G01*
X-2931879Y42915733D02*
G75*
G02*
X-2708219Y43050917I361484J-345456D01*
G01*
X-2931880Y42915734D02*
G75*
G02*
X-3786198Y43345475I-361479J345441D01*
G01*
X-3798412Y43567592D02*
G75*
G02*
X-3786199Y43345476I-481103J-137848D01*
G01*
X-4293219Y45113659D02*
G75*
G02*
X-3796443Y45930823I373281J332656D01*
G01*
X-4293219Y45113659D02*
G75*
G02*
X-4185883Y44918820I-373561J-332779D01*
G01*
%TO.C,LED48*%
X236191765Y82819962D02*
X236191765Y84225646D01*
X237097312Y85022804D02*
X238686216Y85022804D01*
X238686216Y82022805D02*
X237097311Y82022805D01*
X239591763Y84225646D02*
X239591763Y82819962D01*
X236142280Y84442524D02*
G75*
G02*
X236191765Y84225646I-450505J-216876D01*
G01*
X236142280Y84442523D02*
G75*
G02*
X236845053Y85091103I450514J216880D01*
G01*
X236191765Y82819961D02*
G75*
G02*
X236142280Y82603084I-499990J-1D01*
G01*
X236845053Y81954506D02*
G75*
G02*
X236142280Y82603084I-252258J431701D01*
G01*
X236845053Y81954506D02*
G75*
G02*
X237097311Y82022805I252261J-431710D01*
G01*
X237097312Y85022804D02*
G75*
G02*
X236845053Y85091103I2J500009D01*
G01*
X238686217Y82022804D02*
G75*
G02*
X238938475Y81954505I-3J-500009D01*
G01*
X238938474Y85091103D02*
G75*
G02*
X238686216Y85022805I-252260J431712D01*
G01*
X238938475Y85091101D02*
G75*
G02*
X239641244Y84442526I252259J-431696D01*
G01*
X239591763Y84225647D02*
G75*
G02*
X239641248Y84442524I500351J-82D01*
G01*
X239641248Y82603084D02*
G75*
G02*
X238938475Y81954505I-450514J-216879D01*
G01*
X239641248Y82603084D02*
G75*
G02*
X239591774Y82819962I450816J216921D01*
G01*
%TO.C,LED31*%
X141191765Y123319962D02*
X141191765Y124725646D01*
X142097312Y125522804D02*
X143686216Y125522804D01*
X143686216Y122522805D02*
X142097311Y122522805D01*
X144591763Y124725646D02*
X144591763Y123319962D01*
X141142280Y124942524D02*
G75*
G02*
X141191765Y124725646I-450505J-216876D01*
G01*
X141142280Y124942523D02*
G75*
G02*
X141845053Y125591103I450514J216880D01*
G01*
X141191765Y123319961D02*
G75*
G02*
X141142280Y123103084I-499990J-1D01*
G01*
X141845053Y122454506D02*
G75*
G02*
X141142280Y123103084I-252258J431701D01*
G01*
X141845053Y122454506D02*
G75*
G02*
X142097311Y122522805I252261J-431710D01*
G01*
X142097312Y125522804D02*
G75*
G02*
X141845053Y125591103I2J500009D01*
G01*
X143686217Y122522804D02*
G75*
G02*
X143938475Y122454505I-3J-500009D01*
G01*
X143938474Y125591103D02*
G75*
G02*
X143686216Y125522805I-252260J431712D01*
G01*
X143938475Y125591101D02*
G75*
G02*
X144641244Y124942526I252259J-431696D01*
G01*
X144591763Y124725647D02*
G75*
G02*
X144641248Y124942524I500351J-82D01*
G01*
X144641248Y123103084D02*
G75*
G02*
X143938475Y122454505I-450514J-216879D01*
G01*
X144641248Y123103084D02*
G75*
G02*
X144591774Y123319962I450816J216921D01*
G01*
%TO.C,LED50*%
X163591763Y69975648D02*
X163591763Y68569964D01*
X162686216Y67772806D02*
X161097312Y67772806D01*
X161097312Y70772805D02*
X162686217Y70772805D01*
X160191765Y68569964D02*
X160191765Y69975648D01*
X163641248Y68353086D02*
G75*
G02*
X163591763Y68569964I450505J216876D01*
G01*
X163641248Y68353087D02*
G75*
G02*
X162938475Y67704507I-450514J-216880D01*
G01*
X163591763Y69975649D02*
G75*
G02*
X163641248Y70192526I499990J1D01*
G01*
X162938475Y70841104D02*
G75*
G02*
X163641248Y70192526I252258J-431701D01*
G01*
X162938475Y70841104D02*
G75*
G02*
X162686217Y70772805I-252261J431710D01*
G01*
X162686216Y67772806D02*
G75*
G02*
X162938475Y67704507I-2J-500009D01*
G01*
X161097311Y70772806D02*
G75*
G02*
X160845053Y70841105I3J500009D01*
G01*
X160845054Y67704507D02*
G75*
G02*
X161097312Y67772805I252260J-431712D01*
G01*
X160845053Y67704509D02*
G75*
G02*
X160142284Y68353084I-252259J431696D01*
G01*
X160191765Y68569963D02*
G75*
G02*
X160142280Y68353086I-500351J82D01*
G01*
X160142280Y70192526D02*
G75*
G02*
X160845053Y70841105I450514J216879D01*
G01*
X160142280Y70192526D02*
G75*
G02*
X160191754Y69975648I-450816J-216921D01*
G01*
%TO.C,LED5*%
X45891763Y126727843D02*
X45891763Y125322159D01*
X44986216Y124525001D02*
X43397312Y124525001D01*
X43397312Y127525000D02*
X44986217Y127525000D01*
X42491765Y125322159D02*
X42491765Y126727843D01*
X45941248Y125105281D02*
G75*
G02*
X45891763Y125322159I450505J216876D01*
G01*
X45941248Y125105282D02*
G75*
G02*
X45238475Y124456702I-450514J-216880D01*
G01*
X45891763Y126727844D02*
G75*
G02*
X45941248Y126944721I499990J1D01*
G01*
X45238475Y127593299D02*
G75*
G02*
X45941248Y126944721I252258J-431701D01*
G01*
X45238475Y127593299D02*
G75*
G02*
X44986217Y127525000I-252261J431710D01*
G01*
X44986216Y124525001D02*
G75*
G02*
X45238475Y124456702I-2J-500009D01*
G01*
X43397311Y127525001D02*
G75*
G02*
X43145053Y127593300I3J500009D01*
G01*
X43145054Y124456702D02*
G75*
G02*
X43397312Y124525000I252260J-431712D01*
G01*
X43145053Y124456704D02*
G75*
G02*
X42442284Y125105279I-252259J431696D01*
G01*
X42491765Y125322158D02*
G75*
G02*
X42442280Y125105281I-500351J82D01*
G01*
X42442280Y126944721D02*
G75*
G02*
X43145053Y127593300I450514J216879D01*
G01*
X42442280Y126944721D02*
G75*
G02*
X42491754Y126727843I-450816J-216921D01*
G01*
%TO.C,LED45*%
X179191765Y90019962D02*
X179191765Y91425646D01*
X180097312Y92222804D02*
X181686216Y92222804D01*
X181686216Y89222805D02*
X180097311Y89222805D01*
X182591763Y91425646D02*
X182591763Y90019962D01*
X179142280Y91642524D02*
G75*
G02*
X179191765Y91425646I-450505J-216876D01*
G01*
X179142280Y91642523D02*
G75*
G02*
X179845053Y92291103I450514J216880D01*
G01*
X179191765Y90019961D02*
G75*
G02*
X179142280Y89803084I-499990J-1D01*
G01*
X179845053Y89154506D02*
G75*
G02*
X179142280Y89803084I-252258J431701D01*
G01*
X179845053Y89154506D02*
G75*
G02*
X180097311Y89222805I252261J-431710D01*
G01*
X180097312Y92222804D02*
G75*
G02*
X179845053Y92291103I2J500009D01*
G01*
X181686217Y89222804D02*
G75*
G02*
X181938475Y89154505I-3J-500009D01*
G01*
X181938474Y92291103D02*
G75*
G02*
X181686216Y92222805I-252260J431712D01*
G01*
X181938475Y92291101D02*
G75*
G02*
X182641244Y91642526I252259J-431696D01*
G01*
X182591763Y91425647D02*
G75*
G02*
X182641248Y91642524I500351J-82D01*
G01*
X182641248Y89803084D02*
G75*
G02*
X181938475Y89154505I-450514J-216879D01*
G01*
X182641248Y89803084D02*
G75*
G02*
X182591774Y90019962I450816J216921D01*
G01*
%TO.C,LED32*%
X160191765Y125569962D02*
X160191765Y126975646D01*
X161097312Y127772804D02*
X162686216Y127772804D01*
X162686216Y124772805D02*
X161097311Y124772805D01*
X163591763Y126975646D02*
X163591763Y125569962D01*
X160142280Y127192524D02*
G75*
G02*
X160191765Y126975646I-450505J-216876D01*
G01*
X160142280Y127192523D02*
G75*
G02*
X160845053Y127841103I450514J216880D01*
G01*
X160191765Y125569961D02*
G75*
G02*
X160142280Y125353084I-499990J-1D01*
G01*
X160845053Y124704506D02*
G75*
G02*
X160142280Y125353084I-252258J431701D01*
G01*
X160845053Y124704506D02*
G75*
G02*
X161097311Y124772805I252261J-431710D01*
G01*
X161097312Y127772804D02*
G75*
G02*
X160845053Y127841103I2J500009D01*
G01*
X162686217Y124772804D02*
G75*
G02*
X162938475Y124704505I-3J-500009D01*
G01*
X162938474Y127841103D02*
G75*
G02*
X162686216Y127772805I-252260J431712D01*
G01*
X162938475Y127841101D02*
G75*
G02*
X163641244Y127192526I252259J-431696D01*
G01*
X163591763Y126975647D02*
G75*
G02*
X163641248Y127192524I500351J-82D01*
G01*
X163641248Y125353084D02*
G75*
G02*
X162938475Y124704505I-450514J-216879D01*
G01*
X163641248Y125353084D02*
G75*
G02*
X163591774Y125569962I450816J216921D01*
G01*
%TO.C,LED27*%
X18766788Y49432664D02*
X18889302Y48032329D01*
X18056677Y47159281D02*
X16473820Y47020799D01*
X16212353Y50009382D02*
X17795211Y50147864D01*
X15502242Y47736000D02*
X15379728Y49136335D01*
X18957500Y47820589D02*
G75*
G02*
X18889301Y48032329I429889J255315D01*
G01*
X18957500Y47820590D02*
G75*
G02*
X18313929Y47113228I-429897J-255319D01*
G01*
X18766788Y49432665D02*
G75*
G02*
X18797183Y49653030I498078J43579D01*
G01*
X18040557Y50237889D02*
G75*
G02*
X18797183Y49653030I288923J-408072D01*
G01*
X18040557Y50237889D02*
G75*
G02*
X17795211Y50147864I-288927J408081D01*
G01*
X18056677Y47159281D02*
G75*
G02*
X18313929Y47113228I43577J-498106D01*
G01*
X16212351Y50009383D02*
G75*
G02*
X15955101Y50055436I-43575J498106D01*
G01*
X16228474Y46930774D02*
G75*
G02*
X16473820Y47020798I288926J-408083D01*
G01*
X16228473Y46930776D02*
G75*
G02*
X15471851Y47515632I-288924J408067D01*
G01*
X15502242Y47735999D02*
G75*
G02*
X15471849Y47515633I-498566J-43517D01*
G01*
X15311529Y49348075D02*
G75*
G02*
X15955101Y50055436I429898J255318D01*
G01*
X15311529Y49348075D02*
G75*
G02*
X15379717Y49136334I-430194J-255387D01*
G01*
%TO.C,LED49*%
X144591763Y67675648D02*
X144591763Y66269964D01*
X143686216Y65472806D02*
X142097312Y65472806D01*
X142097312Y68472805D02*
X143686217Y68472805D01*
X141191765Y66269964D02*
X141191765Y67675648D01*
X144641248Y66053086D02*
G75*
G02*
X144591763Y66269964I450505J216876D01*
G01*
X144641248Y66053087D02*
G75*
G02*
X143938475Y65404507I-450514J-216880D01*
G01*
X144591763Y67675649D02*
G75*
G02*
X144641248Y67892526I499990J1D01*
G01*
X143938475Y68541104D02*
G75*
G02*
X144641248Y67892526I252258J-431701D01*
G01*
X143938475Y68541104D02*
G75*
G02*
X143686217Y68472805I-252261J431710D01*
G01*
X143686216Y65472806D02*
G75*
G02*
X143938475Y65404507I-2J-500009D01*
G01*
X142097311Y68472806D02*
G75*
G02*
X141845053Y68541105I3J500009D01*
G01*
X141845054Y65404507D02*
G75*
G02*
X142097312Y65472805I252260J-431712D01*
G01*
X141845053Y65404509D02*
G75*
G02*
X141142284Y66053084I-252259J431696D01*
G01*
X141191765Y66269963D02*
G75*
G02*
X141142280Y66053086I-500351J82D01*
G01*
X141142280Y67892526D02*
G75*
G02*
X141845053Y68541105I450514J216879D01*
G01*
X141142280Y67892526D02*
G75*
G02*
X141191754Y67675648I-450816J-216921D01*
G01*
%TO.C,LED17*%
X45871763Y88717843D02*
X45871763Y87312159D01*
X44966216Y86515001D02*
X43377312Y86515001D01*
X43377312Y89515000D02*
X44966217Y89515000D01*
X42471765Y87312159D02*
X42471765Y88717843D01*
X45921248Y87095281D02*
G75*
G02*
X45871763Y87312159I450505J216876D01*
G01*
X45921248Y87095282D02*
G75*
G02*
X45218475Y86446702I-450514J-216880D01*
G01*
X45871763Y88717844D02*
G75*
G02*
X45921248Y88934721I499990J1D01*
G01*
X45218475Y89583299D02*
G75*
G02*
X45921248Y88934721I252258J-431701D01*
G01*
X45218475Y89583299D02*
G75*
G02*
X44966217Y89515000I-252261J431710D01*
G01*
X44966216Y86515001D02*
G75*
G02*
X45218475Y86446702I-2J-500009D01*
G01*
X43377311Y89515001D02*
G75*
G02*
X43125053Y89583300I3J500009D01*
G01*
X43125054Y86446702D02*
G75*
G02*
X43377312Y86515000I252260J-431712D01*
G01*
X43125053Y86446704D02*
G75*
G02*
X42422284Y87095279I-252259J431696D01*
G01*
X42471765Y87312158D02*
G75*
G02*
X42422280Y87095281I-500351J82D01*
G01*
X42422280Y88934721D02*
G75*
G02*
X43125053Y89583300I450514J216879D01*
G01*
X42422280Y88934721D02*
G75*
G02*
X42471754Y88717843I-450816J-216921D01*
G01*
%TD*%
M02*
